<?xml version="1.0" encoding="utf-8"?>
<!-- Generator: Adobe Illustrator 22.0.1, SVG Export Plug-In . SVG Version: 6.00 Build 0)  -->
<svg version="1.1" id="Calque_1" xmlns="http://www.w3.org/2000/svg" xmlns:xlink="http://www.w3.org/1999/xlink" x="0px" y="0px"
	 viewBox="0 0 200 200" style="enable-background:new 0 0 200 200;" xml:space="preserve">
<style type="text/css">
	.st0{fill:#FFFFFF;}
	.st1{fill:#FBEDB6;}
	.st2{fill:none;stroke:#010101;stroke-miterlimit:10;}
	.st3{fill:#434C59;}
	.st4{opacity:0.1;fill:#010101;enable-background:new    ;}
	.st5{fill:#CCEBF7;}
	.st6{fill:#B3E2F2;}
	.st7{fill:#FADD56;}
	.st8{fill:#5A6776;}
	.st9{fill:#F6A4BB;}
</style>
<g id="XMLID_1_">
	<g>
		<path class="st0" d="M184.1,171.6V27.7c0-6.6-5.4-12-12-12H28.2c-6.6,0-12,5.4-12,12v143.9c0,6.6,5.4,12,12,12h143.9
			C178.7,183.6,184.1,178.2,184.1,171.6z M193.6,18.1v163.1c0,6.6-5.4,12-12,12H18.4c-6.6,0-12-5.4-12-12V18.1c0-6.6,5.4-12,12-12
			h163.1C188.2,6.1,193.6,11.5,193.6,18.1z"/>
		<path class="st1" d="M184.1,27.7v143.9c0,6.6-5.4,12-12,12H28.2c-6.6,0-12-5.4-12-12V27.7c0-6.6,5.4-12,12-12h143.9
			C178.7,15.7,184.1,21.1,184.1,27.7z"/>
	</g>
	<g>
		<path class="st2" d="M172.1,183.6H28.2c-6.6,0-12-5.4-12-12V27.7c0-6.6,5.4-12,12-12h143.9c6.6,0,12,5.4,12,12v143.9
			C184.1,178.2,178.7,183.6,172.1,183.6z"/>
		<path class="st2" d="M181.6,193.2H18.4c-6.6,0-12-5.4-12-12V18.1c0-6.6,5.4-12,12-12h163.1c6.6,0,12,5.4,12,12v163.1
			C193.6,187.8,188.2,193.2,181.6,193.2z"/>
	</g>
</g>
<g>
	<path class="st3" d="M83.7,147.3c-1.1,0-2.2-0.4-3-1.3c-1.6-1.6-1.5-4.2,0.1-5.8c4.3-4.1,4.3-9.1,4.3-12.8c0-2.3,1.8-4.1,4.1-4.1
		c2.3,0,4.1,1.8,4.1,4.1c0,4.3,0,12.2-6.8,18.7C85.8,146.9,84.8,147.3,83.7,147.3z"/>
	<path class="st3" d="M121.8,147.3c-1.1,0-2.2-0.4-3-1.3c-1.6-1.6-1.5-4.2,0.1-5.8c4.3-4.1,4.3-9.1,4.3-12.8c0-2.3,1.8-4.1,4.1-4.1
		c2.3,0,4.1,1.8,4.1,4.1c0,4.3,0,12.2-6.8,18.7C123.8,146.9,122.8,147.3,121.8,147.3z"/>
	<path class="st3" d="M63.7,113.1L63.7,113.1c-6.2,0-12.2-2.3-16.8-6.5l-1.3-1.2c-0.7-0.6-0.7-1.7,0-2.3l1.3-1.2
		c4.6-4.2,10.6-6.5,16.8-6.5l0,0V113.1z"/>
</g>
<path class="st4" d="M63.7,95.4c-3.5,0-6.9,0.7-10,2.1c-0.5,2.2-0.7,4.5-0.7,6.8l0,0c0,2.3,0.2,4.6,0.7,6.8c3.1,1.4,6.5,2.1,10,2.1
	l0,0V95.4L63.7,95.4z"/>
<path class="st5" d="M100.6,78.1h12.6c9.7,0,17.6-7.9,17.6-17.6l0,0c0-9.7-7.9-17.6-17.6-17.6l0,0c-9.7,0-17.6,7.9-17.6,17.6v12.6
	C95.6,75.9,97.9,78.1,100.6,78.1z"/>
<path class="st6" d="M101.4,47.4c-3.6,3.2-5.8,7.9-5.8,13.1v12.6c0,2.8,2.2,5,5,5h12.6c3.8,0,7.3-1.2,10.1-3.2
	C103.8,74.8,101.6,55.7,101.4,47.4z"/>
<path class="st7" d="M121.6,136.3L121.6,136.3c-12.9,3-26.4,3-39.4,0l0,0c-14.9-3.4-25.5-16.7-25.5-32l0,0c0-15.3,10.6-28.6,25.5-32
	l0,0c12.9-3,26.4-3,39.4,0l0,0c14.9,3.4,25.5,16.7,25.5,32l0,0C147.1,119.5,136.5,132.8,121.6,136.3z"/>
<path class="st8" d="M107.5,70.1c-7.7-0.5-15.5,0-23.2,1.6c-5.3,21.3-5.3,43.7,0,65c7.6,1.6,15.4,2.1,23.2,1.6
	C100.5,116.2,100.5,92.3,107.5,70.1z"/>
<path class="st4" d="M72.7,76c-9.7,5.8-16,16.4-16,28.2l0,0c0,15.3,10.6,28.6,25.5,32l0,0c12.9,3,26.4,3,39.4,0l0,0
	c0.5-0.1,0.9-0.2,1.4-0.3C80.5,137.4,71.3,98.3,72.7,76z"/>
<path class="st5" d="M90.6,78.1H78c-9.7,0-17.6-7.9-17.6-17.6l0,0c0-9.7,7.9-17.6,17.6-17.6l0,0c9.7,0,17.6,7.9,17.6,17.6v12.6
	C95.6,75.9,93.4,78.1,90.6,78.1z"/>
<g>
	<ellipse class="st9" cx="114.5" cy="105.1" rx="4.7" ry="3.7"/>
	<ellipse class="st9" cx="140" cy="105.1" rx="4.7" ry="3.7"/>
</g>
<g>
	<path class="st3" d="M117.3,102.8c-0.8,0-1.5-0.7-1.5-1.5v-1.7c0-0.8,0.7-1.5,1.5-1.5s1.5,0.7,1.5,1.5v1.7
		C118.8,102.2,118.1,102.8,117.3,102.8z"/>
	<path class="st3" d="M137.3,102.8c-0.8,0-1.5-0.7-1.5-1.5v-1.7c0-0.8,0.7-1.5,1.5-1.5s1.5,0.7,1.5,1.5v1.7
		C138.8,102.2,138.1,102.8,137.3,102.8z"/>
	<path class="st3" d="M127.3,104.1c-1.5,0-2.8-0.6-3.8-1.7c-0.6-0.6-0.5-1.6,0.1-2.2c0.6-0.6,1.6-0.5,2.2,0.1
		c0.4,0.4,0.9,0.7,1.5,0.7c0.6,0,1.1-0.2,1.5-0.7c0.6-0.6,1.5-0.7,2.2-0.1c0.6,0.6,0.7,1.5,0.1,2.2
		C130.1,103.5,128.7,104.1,127.3,104.1z"/>
	<path class="st3" d="M104.5,147.3c-1.1,0-2.2-0.4-3-1.3c-1.6-1.6-1.5-4.2,0.1-5.8c4.3-4.1,4.3-9.1,4.3-12.8c0-2.3,1.8-4.1,4.1-4.1
		s4.1,1.8,4.1,4.1c0,4.3,0,12.2-6.8,18.7C106.6,146.9,105.6,147.3,104.5,147.3z"/>
	<path class="st3" d="M66.5,147.3c-1.1,0-2.2-0.4-3-1.3c-1.6-1.6-1.5-4.2,0.1-5.8c4.3-4.1,4.3-9.1,4.3-12.8c0-2.3,1.8-4.1,4.1-4.1
		s4.1,1.8,4.1,4.1c0,4.3,0,12.2-6.8,18.7C68.5,146.9,67.5,147.3,66.5,147.3z"/>
</g>
<path class="st6" d="M72,44c-6.7,2.5-11.5,8.9-11.5,16.5l0,0c0,9.7,7.9,17.6,17.6,17.6h11C71.4,76.1,68.8,51.9,72,44z"/>
</svg>
