<?xml version="1.0" encoding="utf-8"?>
<!-- Generator: Adobe Illustrator 22.0.1, SVG Export Plug-In . SVG Version: 6.00 Build 0)  -->
<svg version="1.1" id="Calque_1" xmlns="http://www.w3.org/2000/svg" xmlns:xlink="http://www.w3.org/1999/xlink" x="0px" y="0px"
	 viewBox="0 0 200 200" style="enable-background:new 0 0 200 200;" xml:space="preserve">
<style type="text/css">
	.st0{fill:#FFFFFF;}
	.st1{fill:#D8EBDD;}
	.st2{fill:none;stroke:#010101;stroke-miterlimit:10;}
	.st3{fill:#464755;}
	.st4{fill:#F04F59;}
	.st5{fill:#42489B;}
	.st6{fill:#73AF43;}
	.st7{fill:#F5F6F6;}
	.st8{fill:#FEE15A;}
</style>
<g id="XMLID_1_">
	<g>
		<path class="st0" d="M194,18.4v163.1c0,6.6-5.4,12-12,12H18.8c-6.6,0-12-5.4-12-12V18.4c0-6.6,5.4-12,12-12h163.1
			C188.6,6.4,194,11.8,194,18.4z M184.5,171.9V28.1c0-6.6-5.4-12-12-12H28.6c-6.6,0-12,5.4-12,12V172c0,6.6,5.4,12,12,12h143.9
			C179.1,183.9,184.5,178.5,184.5,171.9z"/>
		<path class="st1" d="M184.5,28.1V172c0,6.6-5.4,12-12,12H28.6c-6.6,0-12-5.4-12-12V28.1c0-6.6,5.4-12,12-12h143.9
			C179.1,16.1,184.5,21.5,184.5,28.1z"/>
	</g>
	<g>
		<path class="st2" d="M172.5,183.9H28.6c-6.6,0-12-5.4-12-12V28.1c0-6.6,5.4-12,12-12h143.9c6.6,0,12,5.4,12,12V172
			C184.5,178.5,179.1,183.9,172.5,183.9z"/>
		<path class="st2" d="M182,193.6H18.8c-6.6,0-12-5.4-12-12V18.4c0-6.6,5.4-12,12-12h163.1c6.6,0,12,5.4,12,12v163.1
			C194,188.2,188.6,193.6,182,193.6z"/>
	</g>
</g>
<polygon class="st3" points="40.5,70.1 40.5,118.6 72.8,94.3 "/>
<path class="st4" d="M148.9,59.1H56.6L93,87.4h64.7V67.9C157.7,63,153.7,59.1,148.9,59.1z"/>
<path class="st5" d="M56.6,135.9h92.3c4.8,0,8.8-3.9,8.8-8.8v-19.5H93L56.6,135.9z"/>
<path class="st6" d="M53.5,59.1h-4.2c-4.8,0-8.8,3.9-8.8,8.8v1.5l35.5,28.1l-35.5,28.1v1.5c0,4.8,3.9,8.8,8.8,8.8h4.2l38.3-30.3
	h65.9V89.4H91.8L53.5,59.1z"/>
<polygon class="st7" points="60,59.1 53.5,59.1 91.8,89.4 157.7,89.4 157.7,85.4 93.2,85.4 "/>
<polygon class="st8" points="40.5,66.2 40.5,71.4 69.4,94.3 40.5,117.2 40.5,122.4 75.9,94.3 "/>
<polygon class="st7" points="91.8,105.6 53.5,135.9 60,135.9 93.2,109.6 157.7,109.6 157.7,105.6 "/>
</svg>
