<svg id="Calque_1" data-name="Calque 1" xmlns="http://www.w3.org/2000/svg" viewBox="0 0 473.24 658.89"><defs><style>.cls-1{fill:#f0b5bc;stroke-width:3px;}.cls-1,.cls-3{stroke:#231f20;}.cls-1,.cls-18,.cls-3{stroke-miterlimit:10;}.cls-2{fill:#939598;}.cls-18,.cls-3{fill:none;}.cls-4{fill:#f9ed32;}.cls-5{fill:#f15a29;}.cls-6{fill:#009444;}.cls-7{fill:#8dc63f;}.cls-8{fill:#006838;}.cls-9{fill:#231f20;}.cls-10{fill:#ef4136;}.cls-11{fill:#ed1c24;}.cls-12{fill:#be1e2d;}.cls-13,.cls-16{fill:#fff;}.cls-14{fill:#39b54a;}.cls-15{fill:#f281b3;}.cls-16{font-size:48px;font-family:ArialRoundedMTBold, Arial Rounded MT Bold;}.cls-17{letter-spacing:-0.06em;}.cls-18{stroke:#fff;stroke-width:5px;}</style></defs><title>Vignette a table</title><rect class="cls-1" x="1.5" y="1.5" width="470.24" height="655.89" rx="12" ry="12"/><ellipse class="cls-2" cx="305.86" cy="567.94" rx="53.22" ry="11.97"/><ellipse class="cls-2" cx="105.59" cy="560.19" rx="41.91" ry="11.97"/><path class="cls-3" d="M295.47,409.91s-.71-30.59,37.27-49.45" transform="translate(17.18 15.39)"/><circle class="cls-4" cx="168.37" cy="448.57" r="5.03"/><circle class="cls-4" cx="122.37" cy="440.2" r="5.36"/><path class="cls-5" d="M78.66,518.64S96,543.46,128.29,500.76,208.5,386.5,207.34,375s-5.19-25.39-5.19-25.39,4-16.16-28.85-26-54.25-15.58-63.48,0S78.66,394,72.89,425.74,59,496.14,78.66,518.64Z" transform="translate(17.18 15.39)"/><path class="cls-6" d="M165.56,331.68s26,16.16,53.09,7.5c0,0,12.12-9.81-4.62-17.31s-6.35-2.88-6.35-2.88,25.39-1.74,32.9-7.51,11.54-15.58,0-17.31-15.58,0-15.58,0,31.73-23.66,32.31-29.43-12.12-20.19-26.54-9.81-19.52,17.89-19.52,17.89-.1-14.42-3.57-15.58-12.11-2.88-13.27,3.46-15,26.55-15,26.55Z" transform="translate(17.18 15.39)"/><path class="cls-7" d="M155.75,332.26s21.56,7.54,55.5-35.76c0,0,3.36-17.91-11.07-17.91l-16.51,5.2s20.57-20.2,18.82-37.51-26.54,5-26.54,5,4.61-37.88-1.16-43.66-15.58-9.23-19-4.61-13.27,6.53-8.08,48.27c0,0-21.42-18.09-18.79,0s2.05,58.48,2.05,58.48Z" transform="translate(17.18 15.39)"/><path class="cls-8" d="M158.63,332.76s20.78-31.09,0-58.78c0,0-8.07-9.24-14.42,13.84,0,0-4.32-33.74-18.45-34.47s-9.42,21.2-9.42,21.2-22.09-34.63-34.59-21.21S103.3,293,103.3,293s-11.41-1.91-13.76,3.48,25.17,18.26,25.17,18.26S101,318,105.3,324.36s17.75,12.13,25.63,12.13S158.63,332.76,158.63,332.76Z" transform="translate(17.18 15.39)"/><path class="cls-9" d="M120.27,419.89s5.42,8.75,20.09,4.13C140.36,424,126.49,450.83,120.27,419.89Z" transform="translate(17.18 15.39)"/><path class="cls-10" d="M123.06,429.26l11.85,2.39S127.77,440,123.06,429.26Z" transform="translate(17.18 15.39)"/><path class="cls-9" d="M73.79,427.34s-23.5,2.93-24.35-7.89S53,406.5,53,406.5s6.19,1.46,8.54,0,3.89-.67,3.89-4.55-.34-4.66-.34-4.66H63.69V401a5.77,5.77,0,0,1-5.56-3.67H56.25l.51,4.66s-4.25,1.06-5.61-1H49.33s.79,2.56,3.18,2.56c0,0-4.77,1.51-5.45,5.61s-2,16.5,5.45,18.21,21.28,1.92,21.28,1.92Z" transform="translate(17.18 15.39)"/><path class="cls-5" d="M83.32,521v11.92s-4.59,8.52-4.59,11.75H89.79v-2.72l-6.81.17a41.34,41.34,0,0,1,4.6-6.81L88.09,521Z" transform="translate(17.18 15.39)"/><path class="cls-5" d="M96.78,521v11.84s-2.9,7.23-2.9,10.3h11.24v-3.07H97.8s.51-3.57,2.38-5.44l.34-13.63Z" transform="translate(17.18 15.39)"/><path class="cls-9" d="M167.57,446.43s1.36,8.31,14.86,6.27S193.34,444,193.34,444l.2-2s-3.2.68-7.57-2.18-5.42-3.69-5.42-3.69,1.74-7.89,3.11-8.72,4.22-.68,4.22-.68l-.13,1.5a1.46,1.46,0,0,0-2.05,1.1c-.41,1.76,4.23,1.49,4.23,1.49l-.14-1.49h3.14V432h-3.55l.14,5.42,4,.27-.48-2.94H195v2.08l4.23-.78v-1.3H201v7.3h1.5v-1.33h1.37v2.42l-3.41.55-.14,7.23s1.91,10.49,8.59,11.58S219,463.88,219,463.88v4.5s-18.82-6.14-21.54-10.64-1.78-4.63-1.78-4.63-5.45,4.9-9.81,4.36-18.26-5.59-20-8.18Z" transform="translate(17.18 15.39)"/><path class="cls-11" d="M214.13,427.34s-12.46,81.82,59.11,104.45c0,0-3,15.09-5.8,15.09s-8.65-3-8.65-3l-2,3s8.33,5.2,11.32,3.47,8.82-18.89,8.82-18.89L312,531l1.1,21.56h14v-2.83H316.54L317,531s33-6.61,45-30.68,14.16-34.93,14.16-34.93,6.46-42.74-7.75-58.88S336,380.16,302.8,391.35c0,0-20,2.34-24.69,0s-20.64-8.77-34.51-2.34S214.73,405.51,214.13,427.34Z" transform="translate(17.18 15.39)"/><path class="cls-12" d="M337.64,419.89s17.25,14.79,7.78,44.22,10.49,26.38,10.49,26.38,12.85-1,13.87-24.69.33-46-9.48-55.14-15.22-10.82-17.92-9.81S329,405.59,337.64,419.89Z" transform="translate(17.18 15.39)"/><path class="cls-12" d="M271.68,394.42s16.57,10.15,36.19,4.06,41.27-5.58,29.43,1.95-32.47,16-50.74,11.92-30.44-8.79-30.78-10.15S247.32,391,271.68,394.42Z" transform="translate(17.18 15.39)"/><circle class="cls-9" cx="280.95" cy="462.9" r="13.73"/><circle class="cls-9" cx="336.17" cy="465.74" r="13.51"/><circle class="cls-13" cx="284.3" cy="469.77" r="13.73"/><circle class="cls-13" cx="339.22" cy="469.77" r="15.34"/><circle class="cls-9" cx="286.41" cy="470.26" r="8.52"/><circle class="cls-9" cx="341.89" cy="467.26" r="8.03"/><circle class="cls-13" cx="286.41" cy="463.97" r="4.23"/><circle class="cls-13" cx="341.89" cy="460.54" r="4.1"/><circle class="cls-13" cx="337.39" cy="468.65" r="2.21"/><circle class="cls-13" cx="282.17" cy="471.65" r="2.21"/><path class="cls-13" d="M284.19,471.57s12.41,6.84,21.28-.56C305.47,471,296.52,505.43,284.19,471.57Z" transform="translate(17.18 15.39)"/><path class="cls-9" d="M283.41,473.81s10.53,9.87,24,0c0,0-1.68,8-12,7.85S283.41,473.81,283.41,473.81Z" transform="translate(17.18 15.39)"/><path class="cls-3" d="M279.74,403.56s12.89,12.07,34,2.94" transform="translate(17.18 15.39)"/><path class="cls-14" d="M308.31,378.22s19.5-26.31-21.15-33.36l-22.79-3.13L266,355.9S278.47,401.71,308.31,378.22Z" transform="translate(17.18 15.39)"/><path class="cls-9" d="M374.43,463.86s14,15.45,5.27,20.71-13.62,8-13.62,8-4.17,3.45-3.26,5.63a2.29,2.29,0,0,0,2.72,1.63l.54-1.45s-1.45-.18-1.09-2.18l2-.18a5.57,5.57,0,0,0,4.72,2.54l-.36-2.36s-2.36,1.27-2.18-2.72c0,0,14.34-4.18,16.15-9.62s3.82-11.62,0-15.61-6.89-6.9-9.25-6.9h-1.82Z" transform="translate(17.18 15.39)"/><path class="cls-3" d="M350.47,451.05s-8.35,2.55-8.35,4.42c0,0,.73,3.69,8.35,2.24" transform="translate(17.18 15.39)"/><path class="cls-3" d="M239.81,451.05s8.35,2.55,8.35,4.42c0,0-.72,3.69-8.35,2.24" transform="translate(17.18 15.39)"/><circle class="cls-15" cx="341.89" cy="493.12" r="5.22"/><circle class="cls-15" cx="280.95" cy="493.12" r="5.22"/><path class="cls-8" d="M304,378.54s10-11.17-14.29-23.2l-22.25-11s.86,12.47,5.45,20.92S289.64,389.72,304,378.54Z" transform="translate(17.18 15.39)"/><ellipse class="cls-9" cx="171.33" cy="422.53" rx="11.06" ry="9.32"/><path class="cls-12" d="M221,419.89s-14.54,83.61,41.69,97.53c0,0,4.26,9.87-4.16,5.06s-52.2-20-42.08-101.46C216.47,421,220.26,410.4,221,419.89Z" transform="translate(17.18 15.39)"/><path class="cls-13" d="M234.8,400.59s-13.12,6.69-8.37,21.39c0,0,5.43,5.54,5.66-2.09s7.72-14.65,7.72-14.65S243,398,234.8,400.59Z" transform="translate(17.18 15.39)"/><circle class="cls-13" cx="173.48" cy="428.19" r="13.2"/><circle class="cls-9" cx="176.69" cy="425.97" r="6.29"/><circle class="cls-13" cx="172.28" cy="428.19" r="2.3"/><circle class="cls-13" cx="178.1" cy="421.89" r="3.78"/><path class="cls-10" d="M123.43,338.69s-60.23,127-39.17,169.19c0,0,.52,16.32-5.53,3.58s-15.37-35.53-4.94-77.68,34.14-101,34.14-101S115.93,340.89,123.43,338.69Z" transform="translate(17.18 15.39)"/><ellipse class="cls-9" cx="123.51" cy="410.94" rx="10.24" ry="9.32"/><circle class="cls-13" cx="126.1" cy="417.33" r="12.83"/><circle class="cls-9" cx="129.53" cy="417.91" r="7.18"/><circle class="cls-13" cx="125.09" cy="420.25" r="2.22"/><circle class="cls-13" cx="130.36" cy="413.25" r="3.67"/><circle class="cls-4" cx="168.37" cy="450.14" r="5.22"/><circle class="cls-4" cx="122.37" cy="440.2" r="5.22"/><path class="cls-6" d="M156.3,327.74s12.81-14.24,4.62-40.74c0,0-5.07-13.24-8.12-6.95a67,67,0,0,0-4.38,11.59S142,321.14,156.3,327.74Z" transform="translate(17.18 15.39)"/><path class="cls-13" d="M203.25,367.23s3.43,11.27-8,25.44c0,0-6.36,4.19-1.94-4s4.36-18,4.36-18S200.2,361.87,203.25,367.23Z" transform="translate(17.18 15.39)"/><path class="cls-13" d="M205.75,187.31" transform="translate(17.18 15.39)"/><path class="cls-13" d="M149.51,461.58S140.7,479.73,111.3,511c0,0-12.16,10.84,2.3-6.08a347.19,347.19,0,0,0,25.57-34.35S152.06,453.72,149.51,461.58Z" transform="translate(17.18 15.39)"/><text class="cls-16" transform="translate(115.08 141.11)">À <tspan class="cls-17" x="46.52" y="0">T</tspan><tspan x="73.5" y="0">ABLE ! </tspan></text><rect class="cls-18" x="91.87" y="69.95" width="277.23" height="105.52" rx="12" ry="12"/></svg>