<?xml version="1.0" encoding="utf-8"?>
<!-- Generator: Adobe Illustrator 22.0.1, SVG Export Plug-In . SVG Version: 6.00 Build 0)  -->
<svg version="1.1" id="Calque_1" xmlns="http://www.w3.org/2000/svg" xmlns:xlink="http://www.w3.org/1999/xlink" x="0px" y="0px"
	 viewBox="0 0 200 200" style="enable-background:new 0 0 200 200;" xml:space="preserve">
<style type="text/css">
	.st0{fill:#F9BCC4;}
	.st1{fill:#FFFFFF;}
	.st2{fill:none;stroke:#000000;stroke-miterlimit:10;}
	.st3{fill:#CE3927;}
	.st4{fill:#EE8826;}
	.st5{fill:#85BD94;}
	.st6{fill:#402E21;}
</style>
<g id="XMLID_1_">
	<g>
		<path class="st0" d="M172.1,16.1c6.6,0,12,5.4,12,12v143.9c0,6.6-5.4,12-12,12H28.2c-6.6,0-12-5.4-12-12V28.1c0-6.6,5.4-12,12-12
			H172.1z"/>
		<path class="st1" d="M184.1,28.1c0-6.6-5.4-12-12-12H28.2c-6.6,0-12,5.4-12,12v143.9c0,6.6,5.4,12,12,12h143.9c6.6,0,12-5.4,12-12
			V28.1z M18.4,6.4h163.1c6.6,0,12,5.4,12,12v163.1c0,6.6-5.4,12-12,12H18.4c-6.6,0-12-5.4-12-12V18.4C6.4,11.8,11.8,6.4,18.4,6.4z"
			/>
	</g>
	<g>
		<path class="st2" d="M172.1,183.9H28.2c-6.6,0-12-5.4-12-12V28.1c0-6.6,5.4-12,12-12h143.9c6.6,0,12,5.4,12,12v143.9
			C184.1,178.5,178.7,183.9,172.1,183.9z"/>
		<path class="st2" d="M181.6,193.6H18.4c-6.6,0-12-5.4-12-12V18.4c0-6.6,5.4-12,12-12h163.1c6.6,0,12,5.4,12,12v163.1
			C193.6,188.2,188.2,193.6,181.6,193.6z"/>
	</g>
</g>
<polygon class="st3" points="136.5,157.4 136.5,157.2 136.2,157.4 "/>
<g>
	<path class="st4" d="M125.9,142.2L121,145l3,1.7C124.8,145.3,125.4,143.8,125.9,142.2z"/>
	<polygon class="st4" points="97.8,110.7 110.7,103.2 97.8,95.8 84.8,103.2 	"/>
	<path class="st4" d="M127.8,134l-12-6.9l-12.9,7.5l12.9,7.5l11.8-6.8C127.7,134.8,127.8,134.4,127.8,134z"/>
	<path class="st4" d="M102,160.9l-4.3-2.5l-4.3,2.5c1.4,0.1,2.8,0.2,4.2,0.2C99.2,161.2,100.6,161.1,102,160.9z"/>
	<path class="st4" d="M112,87.5l-9.1,5.3l12.9,7.5l5-2.9C118.4,93.4,115.4,90,112,87.5z"/>
	<path class="st4" d="M115.8,148l-12.9,7.5l6.7,3.9c4.8-1.6,8.6-4.4,11.6-8.2L115.8,148z"/>
	<path class="st4" d="M121,103.1l4.1,2.4c-0.5-1.3-1.1-2.5-1.7-3.8L121,103.1z"/>
	<path class="st4" d="M128.5,123.8c0-1.3-0.1-2.6-0.2-3.9l-7.3,4.2l7.4,4.2C128.5,126.9,128.5,125.3,128.5,123.8z"/>
	<path class="st4" d="M102.9,113.6l13,7.5l11.8-6.8c-0.1-0.5-0.2-1-0.3-1.5l-11.5-6.7L102.9,113.6z"/>
	<polygon class="st4" points="110.6,145 97.7,137.6 84.8,145 97.7,152.5 	"/>
	<polygon class="st4" points="84.7,124.1 97.7,131.6 110.7,124.1 97.7,116.6 	"/>
	<g>
		<g>
			<path class="st5" d="M109.4,53.2c0-0.7,0-1.3,0-1.9C109.4,51.9,109.4,52.5,109.4,53.2z"/>
			<path class="st5" d="M109.3,49.4c0,0.3,0,0.5,0.1,0.8C109.4,49.9,109.4,49.7,109.3,49.4z"/>
			<path class="st5" d="M109.4,50.4c0,0.2,0,0.5,0,0.8C109.4,50.9,109.4,50.6,109.4,50.4z"/>
			<path class="st5" d="M108.9,46.6c0,0.2,0.1,0.3,0.1,0.5C109,46.9,109,46.7,108.9,46.6z"/>
			<path class="st5" d="M109,50.1c-1.1,1.3-2.5,4.1-3.8,7.5c0.2,1.5,0.5,3,0.6,4.5c1-1.4,2-2.7,3.1-4c0.3-1.7,0.4-3.4,0.4-4.9
				C109.3,52,109.2,50.9,109,50.1z"/>
			<path class="st5" d="M109.1,47.3c0,0.1,0.1,0.3,0.1,0.4C109.1,47.6,109.1,47.4,109.1,47.3z"/>
			<path class="st5" d="M109.2,47.9c0,0.2,0,0.4,0.1,0.5C109.2,48.3,109.2,48.1,109.2,47.9z"/>
			<path class="st5" d="M109.3,48.6c0,0.3,0.1,0.5,0.1,0.8C109.3,49.1,109.3,48.9,109.3,48.6z"/>
		</g>
		<g>
			<path class="st5" d="M115,60.2c0,0.1,0,0.1,0,0.2C115,60.4,115,60.3,115,60.2z"/>
			<path class="st5" d="M105.8,72.3c0,0,0.1-0.1,0.1-0.1C105.8,72.2,105.8,72.2,105.8,72.3z"/>
			<path class="st5" d="M115,60.9c0,0.1,0,0.1,0,0.2C115,61,115,60.9,115,60.9z"/>
			<path class="st5" d="M115,61.9c0-0.1,0-0.2,0-0.2C115,61.8,115,61.9,115,61.9z"/>
			<path class="st5" d="M105.5,72.5c0,0-0.1,0.1-0.1,0.1C105.5,72.6,105.5,72.5,105.5,72.5z"/>
			<path class="st5" d="M115,62.4c0,0.1,0,0.2,0,0.4C115,62.7,115,62.6,115,62.4z"/>
			<path class="st5" d="M114.9,63.6c0-0.1,0-0.3,0-0.4C114.9,63.4,114.9,63.5,114.9,63.6z"/>
			<path class="st5" d="M105,72.9c0.1,0,0.1-0.1,0.2-0.1C105.1,72.8,105.1,72.9,105,72.9z"/>
		</g>
		<path class="st5" d="M104.5,73C104.5,73,104.5,73.1,104.5,73c0.1,0,0.1,0,0.2,0C104.7,73,104.6,73,104.5,73z"/>
		<g>
			<path class="st5" d="M99.5,55.1c0.2,0.7,0.3,1.5,0.5,2.3c0,0,0-0.1,0-0.1C99.9,56.5,99.7,55.8,99.5,55.1z"/>
			<path class="st5" d="M114.4,64.8c0,0-0.1,0.1-0.1,0.1c-2.1,2.2-5.2,6.1-7.3,10.5c-0.2,0.4-2.8,1.1-2.8-1.4V74
				c0-0.3,0.3-0.6,0.3-0.9c-0.4,0.1-0.6,0.2-1.1,0.1c-1.2-0.3-1.6-1.3-1.6-2.5v-0.1c0-4-0.8-9-1.7-13.1C99,61.8,96.9,68.5,98,74v0.1
				c0,1.2-1,2.3-2.2,2.5c-1.2,0.3-2.5-0.3-3-1.4c-0.3-0.7-0.7-1.4-1.1-2c0,0,0,0,0,0c-1,0-2-0.5-2.4-1.4c-2.2-4.4-5-8.3-7.1-10.5
				c0,0,0-0.1,0-0.1c-0.6-0.6-1.4-1.1-1.4-1.4c0,0,0,0,0,0c0,0.3,0.8,0.8,1.4,1.4c0,0.1,0,0.1,0.1,0.1c0.5,0.6,1.1,1.2,1.7,2
				c-0.5,2.7,0.6,10.3,3,16.2c-0.3,0.1-0.7,0.6-1,0.6c0,0,0,0,0,0c3.8-2.1,7.8-2.9,11.8-2.9c4.1,0,8,0.9,11.8,2.7
				c0.9-0.4,1.9-2.6,2.3-3.6c1.6-3.8,2.6-8.4,3-11.8C114.7,64.5,114.6,64.7,114.4,64.8z"/>
		</g>
		<g>
			<path class="st5" d="M97.9,35.7c0,0.1,0.1,0.2,0.1,0.3C98,35.9,97.9,35.8,97.9,35.7z"/>
			<path class="st5" d="M98.2,36.5c0,0.1,0.1,0.2,0.1,0.4C98.2,36.8,98.2,36.7,98.2,36.5z"/>
			<path class="st5" d="M98.4,37.5c0,0.1,0.1,0.3,0.1,0.4C98.5,37.7,98.4,37.6,98.4,37.5z"/>
			<path class="st5" d="M96.7,43.2c-0.3,0.1-0.5,0.2-0.8,0.3C96.2,43.3,96.5,43.2,96.7,43.2z"/>
			<path class="st5" d="M98.6,38.2c-0.4,1.3-0.8,3-1.1,4.8c-0.1,0-0.2,0-0.3,0c0.2,0,0.3-0.1,0.5-0.1c0.6,0,1.2,0.1,1.7,0.4
				C99.2,41.6,98.9,39.8,98.6,38.2z"/>
		</g>
		<g>
			<path class="st5" d="M87.8,48.8c0,0.1,0.1,0.1,0.1,0.2C87.9,49,87.9,48.9,87.8,48.8z"/>
			<path class="st5" d="M87.3,47.9c0,0.1,0.1,0.1,0.1,0.2C87.4,48,87.3,48,87.3,47.9z"/>
			<path class="st5" d="M88.4,49.9c0,0.1,0.1,0.1,0.1,0.2C88.4,50,88.4,49.9,88.4,49.9z"/>
			<path class="st5" d="M87.7,59.8c-0.1-0.1-0.1-0.2-0.2-0.3C87.6,59.6,87.7,59.7,87.7,59.8z"/>
			<path class="st5" d="M86.8,47.2c0,0,0,0.1,0.1,0.1C86.9,47.2,86.8,47.2,86.8,47.2z"/>
			<path class="st5" d="M88.7,50.6c-0.4,2.5-0.5,6.6,0.1,10.6c0.2,0.3,0.4,0.6,0.6,0.9c0.3-2.4,0.6-4.8,1.1-7
				C90,53.5,89.4,52,88.7,50.6z"/>
		</g>
		<path class="st1" d="M89.1,61.6c0.1,0.2,0.3,0.4,0.4,0.5c0,0,0-0.1,0-0.1C89.4,61.9,89.2,61.7,89.1,61.6z"/>
		<path class="st4" d="M70.2,123.8c0,0.9,0,1.8,0,2.7l4.1-2.4l-7.5-4.3l3.3,1.9C70.3,122.4,70.2,123.1,70.2,123.8z"/>
		<path class="st4" d="M87.9,90.1c-4.6,2.8-6.9,6.1-9.3,9.6l-4.2-2.4l5.2,3l12.9-7.5L87.9,90.1z"/>
		<path class="st4" d="M104.4,85.9c-1.1-0.2-2.2-0.3-3.3-0.3c-2.7,0-5.3,0.5-7.8,1.5l4.4,2.6l9.3-5.4L104.4,85.9z"/>
		<path class="st4" d="M79.7,106.2L68,112.9l4.3-2.5c-0.5,1.1-1.2,3-1.5,5.6l8.8,5.1l12.9-7.5L79.7,106.2z"/>
		<path class="st4" d="M73.7,145.4l0.7-0.4l-5.1-2.9l4,2.3C73.4,144.7,73.6,145.1,73.7,145.4z"/>
		<path class="st4" d="M79.5,127.1l-8.8,5.1c0.1,1.2,0.3,3,0.7,5.2l8.2,4.7l12.9-7.5L79.5,127.1z"/>
		<path class="st4" d="M79.6,148l-5.5,3.2l1.8-1c2.2,3.9,5.4,7.3,9.9,9.2l6.8-3.9L79.6,148z"/>
	</g>
	<path class="st6" d="M123.4,91.9c-2.8-3.8-5.9-7-9.3-9.4c1.1-1.3,1.9-2.9,2.5-4.3c1.4-3.3,7.2-20.9,0.5-23.7
		c-0.8-0.3-1.7-0.4-2.5-0.2c0.1-1.8,0.1-3.6-0.1-5.3c-0.1-1.9-0.6-7.6-4.3-8.4c-2.1-0.4-4,0.9-5.6,3c-0.2-2.6-0.6-5.5-1.3-8.1
		c-0.8-3.2-2.3-7.3-5.6-7.3c-3.3,0-4.8,4.2-5.6,7.3c-0.7,2.5-1.1,5.4-1.3,8.1c-1.6-2.1-3.5-3.5-5.6-3c-3.7,0.8-4.2,6.5-4.3,8.4
		c-0.1,1.6-0.1,3.5-0.1,5.3c-0.9-0.2-1.7-0.1-2.5,0.2c-6.6,2.8-0.9,20.3,0.5,23.7c0.6,1.4,1.4,3,2.5,4.3c-3.4,2.4-6.5,5.5-9.3,9.4
		c-6.5,9-10.3,20.6-10.3,31.9c0,12.6,2.6,22.6,7.8,29.8c6.1,8.5,15.6,12.8,28.3,12.8s22.2-4.3,28.3-12.8c5.1-7.1,7.8-17.2,7.8-29.8
		C133.7,112.5,130,100.8,123.4,91.9z M127.6,114.3l-11.8,6.8l-13-7.5l12.9-7.5l11.5,6.7C127.4,113.3,127.5,113.8,127.6,114.3z
		 M84.7,124.1l12.9-7.5l13,7.5l-12.9,7.5L84.7,124.1z M110.6,145l-12.9,7.5L84.8,145l12.9-7.5L110.6,145z M97.8,95.8l12.9,7.5
		l-12.9,7.5l-12.9-7.5L97.8,95.8z M97.8,89.8l-9.4-5.4c3-1.4,6.1-2.2,9.3-2.2c3.2,0,6.4,0.8,9.4,2.2L97.8,89.8z M123.4,101.8
		c0.6,1.2,1.2,2.5,1.7,3.8l-4.1-2.4L123.4,101.8z M120.9,97.3l-5,2.9l-12.9-7.5l9.1-5.3C115.4,90,118.4,93.4,120.9,97.3z
		 M108.9,46.6c0.6,2.2,0.8,7,0.1,11.6c-1.1,1.2-2.2,2.6-3.1,4c-0.3-2.4-0.6-4.8-1.1-7C106.1,51.2,107.8,48.1,108.9,46.6z M97.7,35
		c0.7,2,1.4,5.2,1.7,8.5c-0.5-0.3-1.1-0.4-1.7-0.4s-1.2,0.1-1.7,0.4C96.2,40.2,97,36.9,97.7,35z M86.4,46.6c1.2,1.5,2.8,4.6,4.2,8.6
		c-0.4,2.2-0.8,4.6-1.1,7c-1-1.4-2-2.7-3.1-4C85.6,53.6,85.8,48.8,86.4,46.6z M80.4,59.7c0.4,0.3,1,0.8,1.6,1.4
		c0,0.1,0.1,0.1,0.1,0.1c2.1,2.2,4.9,6.1,7.1,10.5c0.5,1.1,1.8,1.7,2.9,1.4c1.2-0.3,2-1.3,2-2.5v-0.1c0-8.6,3.3-20.1,3.8-21.3
		c0.5,1.1,3.8,13.2,3.8,21.3v0.1c0,1.2,0.5,2.3,1.7,2.5c1.2,0.3,2.2-0.3,2.8-1.4c2.2-4.4,4.9-8.3,7-10.5c0,0,0-0.1,0.1-0.1
		c0.6-0.6,1.1-1.1,1.6-1.4c0.5,2.7-0.6,10.5-3.1,16.5c-0.4,1-1.4,3.2-2.3,3.5c-3.8-1.8-7.8-2.8-11.8-2.8c-4.1,0-8,0.9-11.8,2.8
		c-0.6-0.3-1.5-1.6-2.3-3.6C81,70.2,79.9,62.4,80.4,59.7z M83.4,87.4l9.2,5.3l-12.9,7.5l-5.2-3C77,93.3,80,90,83.4,87.4z
		 M71.9,101.8l2.5,1.5l-4.2,2.4C70.7,104.3,71.3,103,71.9,101.8z M68,112.9l4.3-2.5l7.4-4.2l12.9,7.5l-12.9,7.5l-8.8-5.1l-3.1-1.8
		C67.8,113.8,67.9,113.4,68,112.9z M66.8,123.8c0-1.3,0.1-2.7,0.2-4l7.5,4.3l-7.5,4.3C66.8,126.9,66.8,125.4,66.8,123.8z
		 M67.7,135.1c-0.1-0.4-0.1-0.7-0.2-1.1l3.3-1.9l8.8-5.1l13,7.5L79.6,142l-8.2-4.7L67.7,135.1z M71.3,146.8c-0.8-1.5-1.4-3-2-4.7
		l4,2.3l1.1,0.7l-0.7,0.4L71.3,146.8z M85.8,159.4c-4.8-1.6-8.7-4.4-11.7-8.2l1.8-1l3.7-2.1l12.9,7.5L85.8,159.4z M97.7,161.2
		c-1.5,0-2.9-0.1-4.2-0.2l4.3-2.5l4.3,2.5C100.6,161.1,99.2,161.2,97.7,161.2z M109.7,159.3l-6.7-3.9l12.9-7.5l5.4,3.1
		C118.3,155,114.4,157.7,109.7,159.3z M124,146.8l-3-1.7l4.9-2.8C125.4,143.8,124.8,145.3,124,146.8z M127.7,135.2l-11.8,6.8
		l-12.9-7.5l12.9-7.5l12,6.9C127.8,134.4,127.7,134.8,127.7,135.2z M121.1,124.1l7.3-4.2c0.1,1.3,0.2,2.6,0.2,3.9
		c0,1.6,0,3.1-0.1,4.6L121.1,124.1z"/>
</g>
</svg>
