<?xml version="1.0" encoding="utf-8"?>
<!-- Generator: Adobe Illustrator 22.0.1, SVG Export Plug-In . SVG Version: 6.00 Build 0)  -->
<svg version="1.1" id="Calque_1" xmlns="http://www.w3.org/2000/svg" xmlns:xlink="http://www.w3.org/1999/xlink" x="0px" y="0px"
	 viewBox="0 0 200 200" style="enable-background:new 0 0 200 200;" xml:space="preserve">
<style type="text/css">
	.st0{fill:#FFFFFF;}
	.st1{fill:#FBEDB6;}
	.st2{fill:none;stroke:#010101;stroke-miterlimit:10;}
	.st3{fill:#88878A;}
	.st4{fill:#D37B93;}
	.st5{fill:#656568;}
	.st6{fill:#9E5C6F;}
	.st7{fill:#AFAEB4;}
	.st8{fill:#828287;}
	.st9{fill:#333333;}
</style>
<g id="XMLID_1_">
	<g>
		<path class="st0" d="M184.1,171.6V27.7c0-6.6-5.4-12-12-12H28.2c-6.6,0-12,5.4-12,12v143.9c0,6.6,5.4,12,12,12h143.9
			C178.7,183.6,184.1,178.2,184.1,171.6z M193.6,18.1v163.1c0,6.6-5.4,12-12,12H18.4c-6.6,0-12-5.4-12-12V18.1c0-6.6,5.4-12,12-12
			h163.1C188.2,6.1,193.6,11.5,193.6,18.1z"/>
		<path class="st1" d="M184.1,27.7v143.9c0,6.6-5.4,12-12,12H28.2c-6.6,0-12-5.4-12-12V27.7c0-6.6,5.4-12,12-12h143.9
			C178.7,15.7,184.1,21.1,184.1,27.7z"/>
	</g>
	<g>
		<path class="st2" d="M172.1,183.6H28.2c-6.6,0-12-5.4-12-12V27.7c0-6.6,5.4-12,12-12h143.9c6.6,0,12,5.4,12,12v143.9
			C184.1,178.2,178.7,183.6,172.1,183.6z"/>
		<path class="st2" d="M181.6,193.2H18.4c-6.6,0-12-5.4-12-12V18.1c0-6.6,5.4-12,12-12h163.1c6.6,0,12,5.4,12,12v163.1
			C193.6,187.8,188.2,193.2,181.6,193.2z"/>
	</g>
</g>
<path class="st3" d="M79.5,60.7c-1.1-10.2-4.7-17.9-11-22.7c-8.7-6.7-19-5.3-19.4-5.2l-2.5,0.4L46,35.6c-0.1,0.3-1.8,7.2-0.3,15.5
	c1.3,7.8,5.8,18.5,19.2,24.7L79.5,60.7z"/>
<path class="st4" d="M68,68.9C59.7,65,54.7,58.7,53.1,50c-0.7-3.9-0.5-7.5-0.3-9.9C55.6,40.3,60.1,41,64,44c4.5,3.5,7.2,9.4,8,17.4
	L68,68.9z"/>
<path class="st5" d="M113.5,60.7c1.1-10.2,4.7-17.9,11-22.7c8.7-6.7,19-5.3,19.4-5.2l2.5,0.4l0.6,2.4c0.1,0.3,1.8,7.2,0.3,15.5
	c-1.3,7.8-5.8,18.5-19.2,24.7L113.5,60.7"/>
<path class="st6" d="M125,68.9c8.3-3.8,13.3-10.2,14.9-18.8c0.7-3.9,0.5-7.5,0.3-9.9c-2.8,0.1-7.3,0.8-11.1,3.9
	c-4.5,3.5-7.2,9.4-8,17.4L125,68.9"/>
<path class="st7" d="M70.3,129.6c0,0.8,0,1.6,0,2.3l0,0.2c0,11.3,5.6,17,10.3,19.9c5.4,3.3,11.7,3.9,16,3.9c4.3,0,10.5-0.7,16-3.9
	c4.7-2.8,10.3-8.5,10.3-19.9l0-0.2c0-0.7,0-1.5,0-2.3c-8.6-3.9-17.6-5.3-26.2-5.3C87.8,124.3,78.9,125.7,70.3,129.6z"/>
<path class="st3" d="M124.9,62.9c-6.1-6.8-15.7-10.3-28.4-10.3s-22.3,3.5-28.4,10.3c-6.2,6.9-8.6,17-7.2,29.9
	c1,9.3,3.2,14.9,5.8,21.3c1,2.5,2,5.1,3.1,8.1c0.5,1.3,0.6,4.6,0.6,7.5c8.6-3.9,17.6-5.3,26.2-5.3s17.6,1.4,26.2,5.3
	c0-2.8,0.1-6.1,0.6-7.5c1-3,2.1-5.6,3.1-8.1c2.5-6.4,4.7-12,5.8-21.3C133.5,79.9,131.1,69.8,124.9,62.9z"/>
<path class="st8" d="M96.5,155.9L96.5,155.9c4.3,0,10.5-0.7,16-3.9c4.7-2.8,10.3-8.5,10.3-19.9l0-0.2c0-0.7,0-1.5,0-2.3
	c-8.6-3.9-17.6-5.3-26.2-5.3L96.5,155.9L96.5,155.9z"/>
<path class="st5" d="M124.9,62.9c-6.1-6.8-15.7-10.3-28.4-10.3l0,0v71.7c8.7,0,17.6,1.4,26.2,5.3c0-2.8,0.1-6.1,0.6-7.5
	c1-3,2.1-5.6,3.1-8.1c2.5-6.4,4.7-12,5.8-21.3C133.5,79.9,131.1,69.8,124.9,62.9z"/>
<g>
	<path class="st9" d="M79,96.8c0-2.8,2.2-5,5-5c2.7,0,5,2.2,5,5c0,2.8-2.2,5-5,5C81.2,101.8,79,99.5,79,96.8z"/>
	<path class="st9" d="M114,96.8c0-2.8-2.2-5.1-5-5.1c-2.8,0-5,2.3-5,5.1c0,2.8,2.2,5.1,5,5.1C111.8,101.8,114,99.6,114,96.8z"/>
	<path class="st9" d="M83.5,137c0-2.4,1.9-4.3,4.3-4.3c2.4,0,4.3,1.9,4.3,4.3c0,2.4-1.9,4.3-4.3,4.3C85.4,141.4,83.5,139.4,83.5,137
		z"/>
	<path class="st9" d="M109.5,137c0-2.4-1.9-4.4-4.3-4.4c-2.4,0-4.3,2-4.3,4.4s1.9,4.4,4.3,4.4C107.5,141.4,109.5,139.4,109.5,137z"
		/>
</g>
</svg>
