<svg id="Calque_1" data-name="Calque 1" xmlns="http://www.w3.org/2000/svg" viewBox="0 0 391.81 562.78"><defs><style>.cls-1{fill:#f9edae;stroke:#231f20;stroke-width:3px;}.cls-1,.cls-17,.cls-18,.cls-5{stroke-miterlimit:10;}.cls-2{font-size:38px;font-family:ArialRoundedMTBold, Arial Rounded MT Bold;}.cls-2,.cls-9{fill:#fff;}.cls-3{letter-spacing:-0.04em;}.cls-4{letter-spacing:-0.06em;}.cls-17,.cls-18,.cls-5{fill:none;}.cls-5{stroke:#fff;stroke-width:4px;}.cls-6{fill:#939598;opacity:0.28;}.cls-7{fill:#7475b7;}.cls-8{fill:#f0b5bc;}.cls-10{fill:#754c29;}.cls-11{fill:#ffde17;}.cls-12{fill:#00a651;}.cls-13{fill:#231f20;}.cls-14{fill:#8b5e3c;}.cls-15{fill:#f7941d;}.cls-16{fill:#2b3990;}.cls-17{stroke:#2e3192;}.cls-17,.cls-18{stroke-width:0.5px;}.cls-18{stroke:#2b3990;}</style></defs><title>royaumeanimal</title><rect class="cls-1" x="1.5" y="1.5" width="388.81" height="559.78" rx="12" ry="12"/><text class="cls-2" transform="translate(98.19 78.37)">R<tspan class="cls-3" x="27.33" y="0">O</tspan><tspan class="cls-4" x="55.98" y="0">Y</tspan><tspan class="cls-3" x="77.34" y="0">A</tspan><tspan x="103.22" y="0">UME </tspan><tspan x="19.53" y="45.6">ANIMAL</tspan></text><rect class="cls-5" x="53.75" y="34.98" width="277.23" height="105.52" rx="12" ry="12"/><ellipse class="cls-6" cx="246.71" cy="580.39" rx="97.89" ry="15.34" transform="translate(-87.03 -8.96) rotate(-6.64)"/><ellipse class="cls-6" cx="184.03" cy="546.97" rx="15.06" ry="97.89" transform="translate(-394.05 658.6) rotate(-86.78)"/><path class="cls-7" d="M175.39,417.27c3.77-2.61,21.19-26.08,8.77-28.74s-40.91,14.37-40.91,14.37l-2-4.66s-.39-13.15-27.32-14.72-22.25,4.69-22.25,4.69-2.74-38.67-19.91-34S75.71,396,75.71,396s6.25,5.2,1.56,11.77c0,0-20.3-3.25-22.25,20s20.3,20.65,20.3,20.65,10.15-3.19,14.83,4.59c0,0,3.91,9.94-12.49,13,0,0-7.42,1-7.42,8.64s14.06,7.79,14.06,7.79,20.69-3.37,28.11,0,22.25,14.78,16,23.52-9,15.77-16.4,18.5L138.17,535l13.66-14,.39,25.76L185,550.22l2.77-34.36,11.06-6.8-1.58,17.34,30.68,9.76s4.28-19.52,4.31-24.59c0,0,7.7,4.68,6.21,29.28l33.48,3.51s11-35.38-6.33-61.22l-85.15-53.65-13.94-.21s-5.28-10.27-11.91-12C154.57,417.27,172.29,419.43,175.39,417.27Z" transform="translate(-21.62 -41.35)"/><path class="cls-8" d="M142.35,407.79s22.52-14.75,38.07-6.85-36.88,9.72-36.88,9.72Z" transform="translate(-21.62 -41.35)"/><path class="cls-9" d="M206.86,190.31" transform="translate(-21.62 -41.35)"/><path class="cls-10" d="M291.75,203.38l8.74,6.77s10.28-4.84,3.08-10.64S291.75,203.38,291.75,203.38Z" transform="translate(-21.62 -41.35)"/><path class="cls-11" d="M263.67,284s-58.54,81.42-34.32,119.78c0,0,83.35-5.46,90.22,14.52,0,0,1.25-10.48-13.74-20.85s-3.2-27.57-3.2-27.57,15.27-4.36,24.24-2.67c0,0-2.67,7-12.85,9.21s-15.51,4.61-13.09,8.73,10.18,7.27,17,14.3,9.21,14.44,9,18.85-.49,4.17,1.45,10.23,5.2,22,0,50.55-4.58,18-4.58,18,13.67.62,21.75-9.32,18.64-8.7,18.64-8.7S366,489,354.19,494,327.77,504,327.77,504s2.8,1.86-2.17,16.78-9.94,22.37-8.07,32.31c0,0,6.83,0,1.86,7.46s-9.94,11.18-21.75,10.56c0,0,4.35,1.24,9.32-10.56s10.57-39.77,10.57-39.77-5.6-1.25-5-11.81c0,0-18.12,7.46-18.69-18.64l-8-8.7s-31.07,12.43-49.09,0c0,0-8.08,24.23-7.46,35.42s5,13.67,1.25,21.75-12.23,27.34-7.05,41.63c0,0-2.9,11.81-12.22,11.81s-8.7-1.86-3.1-11.81,12.42-29.2,11.18-39.15-4.35-36-10.56-45.36l-6.22-9.32s-3.73,18.64-3.1,23-7.21,7.46-11.06,16.78-4.48,24.86-4.48,24.86-11.81,8.7-14.91,8.7,3.72-7.46,8.07-18,10.82-20.51,11.32-37.29-5.72-51-5.72-53.44-5-35.88-3.73-53.67,5-56.94,32.93-91.12,23-30.45,23-30.45-9.32-10.57-9.32-14.92-18-6.21-18-16.77-1.24-18.65,3.11-21.75,25.48-3.73,25.48-3.73.62-10.57,5.59-13.67c0,0-21.75-19.27-1.86-29.21,0,0,16.78,3.11,21.75,15.54l7.45-1.25,2.49-5,5,1.24s-1.86,8.08-.62,10.57,13.05,9.94,16.78,6.21l9.94,6.84s-9.32,6.83-7.46,9.94,11.19,4.35,13.05,6.22,18,11.8,17.4,18-1.24,16.15-27.34,11.18c0,0-10,23.62-32,23.62Z" transform="translate(-21.62 -41.35)"/><path class="cls-10" d="M270.88,184.68l5,1.24s13.24-4.51,4.5-10.56S270.88,184.68,270.88,184.68Z" transform="translate(-21.62 -41.35)"/><path class="cls-10" d="M270.88,212.48l-5.31-4.62s5.34-11.26,17.77-5.63S270.88,212.48,270.88,212.48Z" transform="translate(-21.62 -41.35)"/><circle class="cls-9" cx="256.32" cy="189.29" r="7.53"/><circle class="cls-9" cx="223.74" cy="169.51" r="6.03"/><circle class="cls-12" cx="223.6" cy="171.13" r="3.15"/><circle class="cls-12" cx="255.86" cy="190.06" r="3.64"/><circle class="cls-13" cx="256.32" cy="192.68" r="3.35"/><circle class="cls-13" cx="223.74" cy="174.03" r="3.01"/><path class="cls-8" d="M251.39,196.13s-12.13-11.29-12.2-20.77c0,0-10.57,2.65-8.34,10.38s-.13,12.53,10.21,18.83Z" transform="translate(-21.62 -41.35)"/><path class="cls-8" d="M291.51,234s12.49,7.87,19.74,8.71,13.69,2,13.69,2,1.64,15.16-16.3,12.22-17.53-4.19-19.14-7.55S283.45,238.32,291.51,234Z" transform="translate(-21.62 -41.35)"/><path class="cls-14" d="M304.3,562.3s-7.12,5.81-5.29,10.62l15.85-7S305.94,560.75,304.3,562.3Z" transform="translate(-21.62 -41.35)"/><path class="cls-14" d="M199,591.71h14.41s6.42-3.41,6.42-5.57-15.7,0-15.7,0Z" transform="translate(-21.62 -41.35)"/><ellipse class="cls-14" cx="216.8" cy="390.5" rx="6.21" ry="9.85"/><ellipse class="cls-14" cx="257.16" cy="392.52" rx="6.88" ry="9.99"/><ellipse class="cls-14" cx="275.28" cy="462.36" rx="9.31" ry="6.07" transform="translate(-284.4 428.22) rotate(-60)"/><ellipse class="cls-14" cx="256.92" cy="461.95" rx="9.72" ry="4.72" transform="translate(-275.57 556.33) rotate(-75.8)"/><ellipse class="cls-14" cx="221.93" cy="418.84" rx="3.24" ry="7.15"/><ellipse class="cls-14" cx="236.72" cy="390.09" rx="7.23" ry="12.42"/><ellipse class="cls-14" cx="264.25" cy="365.76" rx="7.09" ry="3.54"/><ellipse class="cls-14" cx="313.61" cy="417.27" rx="6.61" ry="10.93" transform="translate(-229.63 356.52) rotate(-50.94)"/><ellipse class="cls-14" cx="305.08" cy="396.98" rx="4.32" ry="9.04"/><ellipse class="cls-14" cx="301.17" cy="420.33" rx="6.61" ry="8.64"/><circle class="cls-14" cx="280.69" cy="426.57" r="7.73"/><ellipse class="cls-14" cx="311.05" cy="437.38" rx="5.13" ry="8.1" transform="translate(-40.92 -26.96) rotate(-2.57)"/><circle class="cls-14" cx="285.65" cy="411.69" r="3.78"/><circle class="cls-14" cx="272.42" cy="407.1" r="4.59"/><ellipse class="cls-14" cx="294.85" cy="427.8" rx="5.4" ry="10.53" transform="translate(-84.48 9.63) rotate(-8.93)"/><ellipse class="cls-14" cx="235.7" cy="366.44" rx="12.69" ry="4.21"/><ellipse class="cls-14" cx="199.53" cy="365.12" rx="7.83" ry="5.53"/><circle class="cls-14" cx="188.19" cy="375.51" r="3.51"/><ellipse class="cls-14" cx="195.07" cy="388.74" rx="4.45" ry="6.21"/><ellipse class="cls-14" cx="201.96" cy="409.8" rx="10.26" ry="5.67"/><ellipse class="cls-14" cx="192.3" cy="424.65" rx="2.77" ry="4.32"/><circle class="cls-14" cx="206.78" cy="433.83" r="7.25"/><ellipse class="cls-14" cx="199.29" cy="452.46" rx="6.99" ry="5.94"/><ellipse class="cls-14" cx="198.33" cy="471.74" rx="6.34" ry="9.38" transform="translate(-246.92 143.32) rotate(-33.07)"/><ellipse class="cls-14" cx="169.63" cy="411.69" rx="7.09" ry="3.78"/><ellipse class="cls-14" cx="199.82" cy="431.71" rx="6.48" ry="11.34" transform="translate(-138.53 35.41) rotate(-16.91)"/><circle class="cls-14" cx="173" cy="363.77" r="6.88"/><ellipse class="cls-14" cx="163.35" cy="388.14" rx="4.55" ry="12.22"/><ellipse class="cls-14" cx="192.37" cy="342.66" rx="8.64" ry="10.07"/><ellipse class="cls-14" cx="180.7" cy="329.08" rx="3.98" ry="5.4"/><ellipse class="cls-14" cx="174.76" cy="312.88" rx="5.13" ry="7.02"/><ellipse class="cls-14" cx="207.28" cy="332.23" rx="6.61" ry="4.96" transform="translate(-205.72 278.13) rotate(-56.18)"/><ellipse class="cls-14" cx="211.54" cy="270.64" rx="5.26" ry="3.64"/><ellipse class="cls-14" cx="243.35" cy="299.77" rx="8.69" ry="6.68" transform="translate(-152.09 355.06) rotate(-65.43)"/><circle class="cls-14" cx="227.67" cy="243.03" r="2.5"/><ellipse class="cls-14" cx="277.13" cy="265.82" rx="8.74" ry="3.91" transform="translate(-125.52 272.17) rotate(-50.94)"/><ellipse class="cls-14" cx="233.16" cy="282.51" rx="5.26" ry="2.52" transform="translate(-150.58 185.99) rotate(-41.81)"/><ellipse class="cls-14" cx="204.92" cy="286.39" rx="8.71" ry="9.42"/><ellipse class="cls-14" cx="219.23" cy="349.64" rx="11.59" ry="6.48" transform="matrix(0.82, -0.57, 0.57, 0.82, -182.5, 147.58)"/><ellipse class="cls-14" cx="217.1" cy="308.35" rx="11.59" ry="4.41" transform="translate(-180.11 300.84) rotate(-60)"/><ellipse class="cls-14" cx="165.6" cy="342.17" rx="4.03" ry="7.69"/><ellipse class="cls-14" cx="293.48" cy="435.04" rx="3.51" ry="1.75"/><circle class="cls-14" cx="209.52" cy="202.07" r="2.29"/><circle class="cls-14" cx="190.3" cy="190.98" r="1.7"/><path class="cls-9" d="M298.94,226s16.89,6.08,20.11,12.22S309,235.05,309,235.05Z" transform="translate(-21.62 -41.35)"/><path class="cls-15" d="M194.62,486l1.76,23.92s1.17-18,3.44-22.07Z" transform="translate(-21.62 -41.35)"/><path class="cls-9" d="M230.87,255.16s-4.8,23.35,22.06,6l8.08-4.52S246.23,264.43,230.87,255.16Z" transform="translate(-21.62 -41.35)"/><path class="cls-15" d="M238.42,478.15s15.77,12,47.25,0c0,0,4.18,7,8.37,7.87,0,0,1.08,8,2.86,12s3,8,6.59,8c0,0-5.38-7.21-7-23.52a59.18,59.18,0,0,1-10.58-7.25s-27.94,5.94-39.08,3S238.42,478.15,238.42,478.15Z" transform="translate(-21.62 -41.35)"/><path class="cls-8" d="M248.94,263.43s-16,9.83-18.4-6.05C230.54,257.38,234.56,264.19,248.94,263.43Z" transform="translate(-21.62 -41.35)"/><path class="cls-8" d="M86.37,388.1s-5.63-25.77-14.22-21.62,9.77,27.61,9.77,27.61Z" transform="translate(-21.62 -41.35)"/><path class="cls-8" d="M85.77,459.58l37,1.3s5.33,11.34-22.22,11.54S85.77,459.58,85.77,459.58Z" transform="translate(-21.62 -41.35)"/><polygon class="cls-9" points="84.13 430.88 84.13 424.65 89.13 424.65 89.13 430.32 84.13 430.88"/><path class="cls-16" d="M65.23,420.38s5.72.58,6,3.51-4.52,2.92-6,2.68S60,420.86,65.23,420.38Z" transform="translate(-21.62 -41.35)"/><path class="cls-16" d="M108.25,429.49s7-3.52,9.41-5.6,5,7.76,0,8S112.42,432.88,108.25,429.49Z" transform="translate(-21.62 -41.35)"/><circle class="cls-9" cx="71.85" cy="362.22" r="8.47"/><circle class="cls-9" cx="101.6" cy="363.77" r="9.31"/><circle class="cls-12" cx="70.62" cy="364" r="2.88"/><circle class="cls-12" cx="103.13" cy="365.27" r="3.04"/><circle class="cls-13" cx="70.77" cy="361.77" r="2.67"/><path class="cls-13" d="M133.91,378.33s3.53-4.51,6.15-5.84S135.2,380,135.2,380s9.93-.83,11.92-4.8-.35,3.32-3.37,5.23,9.68,2.23,12-1.29-1.05,4.78-5,5,7.84,8.73,13.95,2.47-5.25,9-11.5,5.06-5.39,3.79-3.12,5.27-4,.19-5.17-3.35-5.95,2.27-4.46,3.2.64-.55-.88-3.14-11.9-7.73-11.9-7.73Z" transform="translate(-21.62 -41.35)"/><circle class="cls-13" cx="102.15" cy="362.73" r="3.26"/><polygon class="cls-9" points="247.36 502.6 246.54 511.02 236.44 510.03 242.31 502.11 247.36 502.6"/><polygon class="cls-9" points="195.67 491.47 193.12 499.53 183.44 496.46 190.84 489.93 195.67 491.47"/><polygon class="cls-9" points="115.09 492.94 111.8 500.73 102.45 496.79 110.41 490.97 115.09 492.94"/><polygon class="cls-9" points="140.04 506.06 139.05 514.45 128.97 513.26 135 505.46 140.04 506.06"/><path class="cls-17" d="M151.05,486s-.12,24.26.78,34.92" transform="translate(-21.62 -41.35)"/><path class="cls-18" d="M166.54,430.93S181,456,159.84,471s-29.1,11.31-29.1,11.31" transform="translate(-21.62 -41.35)"/><polygon class="cls-9" points="74.7 430.92 75.57 424.75 80.52 425.45 79.72 431.07 74.7 430.92"/><polygon class="cls-9" points="103.03 488.06 99.74 495.85 90.39 491.9 98.35 486.08 103.03 488.06"/><polygon class="cls-9" points="149.88 507.36 148.88 515.75 138.81 514.56 144.84 506.76 149.88 507.36"/><polygon class="cls-14" points="152.59 518.6 144.86 518.6 148.72 511.26 153.77 514.93 152.59 518.6"/><polygon class="cls-9" points="234.71 501.2 233.88 509.61 223.79 508.63 229.66 500.71 234.71 501.2"/><polygon class="cls-9" points="222.63 500.02 221.81 508.43 211.71 507.45 217.57 499.53 222.63 500.02"/><polygon class="cls-9" points="182.97 487.31 180.41 495.37 170.74 492.31 178.13 485.78 182.97 487.31"/><circle class="cls-9" cx="72.5" cy="360.83" r="0.95"/><circle class="cls-9" cx="104.17" cy="360.83" r="0.95"/><circle class="cls-9" cx="101.2" cy="363.77" r="0.47"/><circle class="cls-9" cx="69.78" cy="362.73" r="0.63"/><circle class="cls-9" cx="226.09" cy="172.88" r="0.95"/><circle class="cls-9" cx="259.63" cy="190.49" r="1.17"/><circle class="cls-9" cx="256.38" cy="194.22" r="0.52"/><circle class="cls-9" cx="224.21" cy="175.76" r="0.61"/></svg>