<?xml version="1.0" encoding="utf-8"?>
<!-- Generator: Adobe Illustrator 22.0.1, SVG Export Plug-In . SVG Version: 6.00 Build 0)  -->
<svg version="1.1" id="Calque_1" xmlns="http://www.w3.org/2000/svg" xmlns:xlink="http://www.w3.org/1999/xlink" x="0px" y="0px"
	 viewBox="0 0 200 200" style="enable-background:new 0 0 200 200;" xml:space="preserve">
<style type="text/css">
	.st0{fill:#FFFFFF;}
	.st1{fill:#D8EBDD;}
	.st2{fill:none;stroke:#010101;stroke-miterlimit:10;}
	.st3{fill:#75AADB;}
	.st4{fill:#EEEDEE;}
	.st5{fill:#FBBE4B;}
	.st6{fill:#84371B;}
	.st7{fill:none;stroke:#84371B;stroke-width:0.25;stroke-miterlimit:10;}
	.st8{fill:#C16641;}
	.st9{fill:#ED8662;}
</style>
<g id="XMLID_1_">
	<g>
		<path class="st0" d="M194,18.4v163.1c0,6.6-5.4,12-12,12H18.8c-6.6,0-12-5.4-12-12V18.4c0-6.6,5.4-12,12-12h163.1
			C188.6,6.4,194,11.8,194,18.4z M184.5,171.9V28.1c0-6.6-5.4-12-12-12H28.6c-6.6,0-12,5.4-12,12V172c0,6.6,5.4,12,12,12h143.9
			C179.1,183.9,184.5,178.5,184.5,171.9z"/>
		<path class="st1" d="M184.5,28.1V172c0,6.6-5.4,12-12,12H28.6c-6.6,0-12-5.4-12-12V28.1c0-6.6,5.4-12,12-12h143.9
			C179.1,16.1,184.5,21.5,184.5,28.1z"/>
	</g>
	<g>
		<path class="st2" d="M172.5,183.9H28.6c-6.6,0-12-5.4-12-12V28.1c0-6.6,5.4-12,12-12h143.9c6.6,0,12,5.4,12,12V172
			C184.5,178.5,179.1,183.9,172.5,183.9z"/>
		<path class="st2" d="M182,193.6H18.8c-6.6,0-12-5.4-12-12V18.4c0-6.6,5.4-12,12-12h163.1c6.6,0,12,5.4,12,12v163.1
			C194,188.2,188.6,193.6,182,193.6z"/>
	</g>
</g>
<g transform="matrix(1.25 0 0 -1.25 0 45)">
	<g>
		<g>
			<path class="st3" d="M118.5-63.5c0-5-4-9-9-9h-63c-5,0-9,4-9,9V-23c0,5,4,9,9,9h63c5,0,9-4,9-9L118.5-63.5L118.5-63.5z"/>
			<path class="st4" d="M118.5-54.5h-81V-32h81V-54.5z"/>
			<path class="st5" d="M77-48.1l-2.8-4.2l1,5l-4.2-2.8l2.8,4.2l-5-1l4.2,2.8l-5,1l5,1L69-39.5l5-1l-2.8,4.2l4.2-2.8l-1,5l2.8-4.2
				l1,5l1-5l2.8,4.2l-1-5l4.2,2.8L82-40.6l5,1l-4.2-2.8l5-1l-5-1L87-47l-5,1l2.8-4.2l-4.2,2.8l1-5l-2.8,4.2l-1-5L77-48.1z"/>
			<path class="st6" d="M88.4-38.8L88.4-38.8L88.4-38.8z M85.9-34.3L85.9-34.3L85.9-34.3z M82.3-32L82.3-32L82.3-32z M78-32
				l-1.1-5.7l-3.2,4.9l1.2-5.7L70-35.3l3.3-4.8L67.6-39l4.9-3.2l-5.7-1.1l5.7-1.1l-4.9-3.2l5.7,1.2L70-51.2l4.8,3.3l-1.2-5.7
				l3.2,4.9l1.1-5.7l1.1,5.7l3.2-4.9L81.1-48l4.8-3.3l-3.3,4.8l5.7-1.2l-4.9,3.2l5.7,1.1l-5.7,1.1l4.9,3.2l-5.7-1.2l3.3,4.8
				l-4.8-3.3l1.2,5.7l-3.2-4.9L78-32z M78-35l0.5-2.8l0.3-1.4l0.8,1.2l1.6,2.4l-0.6-2.8l-0.3-1.4l1.1,0.8l2.4,1.6l-1.6-2.4L81.4-41
				l1.4,0.3l2.8,0.6l-2.4-1.6L82-42.5l1.4-0.3l2.8-0.5l-2.8-0.5L82-44.1l1.2-0.8l2.4-1.6l-2.8,0.6l-1.4,0.3l0.8-1.1l1.6-2.4
				l-2.4,1.6l-1.1,0.8l0.3-1.4l0.6-2.8l-1.6,2.4l-0.8,1.2l-0.3-1.4L78-51.5l-0.5,2.8l-0.3,1.4l-0.8-1.2l-1.6-2.4l0.6,2.8l0.3,1.4
				l-1.1-0.8l-2.4-1.6l1.6,2.4l0.8,1.1l-1.4-0.3l-2.8-0.6l2.4,1.6l1.2,0.8l-1.4,0.3l-2.8,0.5l2.8,0.5l1.4,0.3l-1.2,0.8l-2.4,1.6
				l2.8-0.6l1.4-0.3l-0.8,1.1l-1.6,2.4l2.4-1.6l1.1-0.8l-0.3,1.4l-0.6,2.8l1.6-2.4l0.8-1.2l0.3,1.4C77.4-37.9,78-35,78-35z"/>
			<path class="st5" d="M73.5-43.3c0,2.5,2,4.5,4.5,4.5c2.5,0,4.5-2,4.5-4.5c0-2.5-2-4.5-4.5-4.5C75.5-47.8,73.5-45.8,73.5-43.3"/>
			<path class="st7" d="M73.5-43.3c0,2.5,2,4.5,4.5,4.5c2.5,0,4.5-2,4.5-4.5c0-2.5-2-4.5-4.5-4.5C75.5-47.8,73.5-45.8,73.5-43.3z"/>
			<g>
				<path class="st8" d="M77.5-42.8c0-0.3-0.6-0.6-1.3-0.6c-0.7,0-1.3,0.3-1.3,0.6s0.6,0.6,1.3,0.6C76.9-42.1,77.5-42.4,77.5-42.8"
					/>
				<path class="st8" d="M81-42.7c0,0.4-0.6,0.7-1.3,0.7c-0.7,0-1.3-0.3-1.3-0.7c0-0.4,0.6-0.7,1.3-0.7C80.4-43.4,81-43.1,81-42.7"
					/>
			</g>
			<path class="st9" d="M76.8-45.2c0,0.3,0.6,0.5,1.2,0.5c0.7,0,1.2-0.2,1.2-0.5s-0.6-0.5-1.2-0.5C77.3-45.8,76.8-45.5,76.8-45.2"/>
		</g>
	</g>
</g>
</svg>
