<?xml version="1.0" encoding="utf-8"?>
<!-- Generator: Adobe Illustrator 22.0.1, SVG Export Plug-In . SVG Version: 6.00 Build 0)  -->
<svg version="1.1" id="Calque_1" xmlns="http://www.w3.org/2000/svg" xmlns:xlink="http://www.w3.org/1999/xlink" x="0px" y="0px"
	 viewBox="0 0 200 200" style="enable-background:new 0 0 200 200;" xml:space="preserve">
<style type="text/css">
	.st0{fill:#FFFFFF;}
	.st1{fill:#D8EBDD;}
	.st2{fill:none;stroke:#010101;stroke-miterlimit:10;}
	.st3{fill:#42489B;}
	.st4{fill:#F5F6F6;}
	.st5{fill:#F04F59;}
</style>
<g id="XMLID_1_">
	<g>
		<path class="st0" d="M194,18.4v163.1c0,6.6-5.4,12-12,12H18.8c-6.6,0-12-5.4-12-12V18.4c0-6.6,5.4-12,12-12h163.1
			C188.6,6.4,194,11.8,194,18.4z M184.5,171.9V28.1c0-6.6-5.4-12-12-12H28.6c-6.6,0-12,5.4-12,12V172c0,6.6,5.4,12,12,12h143.9
			C179.1,183.9,184.5,178.5,184.5,171.9z"/>
		<path class="st1" d="M184.5,28.1V172c0,6.6-5.4,12-12,12H28.6c-6.6,0-12-5.4-12-12V28.1c0-6.6,5.4-12,12-12h143.9
			C179.1,16.1,184.5,21.5,184.5,28.1z"/>
	</g>
	<g>
		<path class="st2" d="M172.5,183.9H28.6c-6.6,0-12-5.4-12-12V28.1c0-6.6,5.4-12,12-12h143.9c6.6,0,12,5.4,12,12V172
			C184.5,178.5,179.1,183.9,172.5,183.9z"/>
		<path class="st2" d="M182,193.6H18.8c-6.6,0-12-5.4-12-12V18.4c0-6.6,5.4-12,12-12h163.1c6.6,0,12,5.4,12,12v163.1
			C194,188.2,188.6,193.6,182,193.6z"/>
	</g>
</g>
<path class="st3" d="M147.4,56.9H47.8c-4.8,0-8.8,3.9-8.8,8.8v59.2c0,4.8,3.9,8.8,8.8,8.8h99.6c4.8,0,8.8-3.9,8.8-8.8V65.7
	C156.2,60.9,152.3,56.9,147.4,56.9z"/>
<path class="st4" d="M41.1,95.3h3.5l18.7-12.3v12.3h10.1V83.1l18.7,12.3h3.5c1.1,0,2-0.9,2-2v-1.6L81.6,81.2h16.1V71.1H81.6
	l16.1-10.5V59c0-1.1-0.9-2-2-2h-3.5L73.4,69.2V56.9H63.3v12.3L45.2,57.3c-2.1,0.7-3.9,2.1-5,4l14.9,9.7H39.1v10.1h16.1L39.1,91.7
	v1.6C39.1,94.4,40,95.3,41.1,95.3z"/>
<g>
	<polygon class="st5" points="97.6,73.1 71.4,73.1 71.4,56.9 65.3,56.9 65.3,73.1 39.1,73.1 39.1,79.2 65.3,79.2 65.3,95.3 
		71.4,95.3 71.4,79.2 97.6,79.2 	"/>
	<path class="st5" d="M40.9,60.3l16.6,10.8h3.7L42.4,58.8C41.9,59.3,41.4,59.7,40.9,60.3z"/>
	<path class="st5" d="M77.1,71.1L97.3,58c-0.4-0.6-1-1-1.7-1h-0.4L73.4,71.1H77.1z"/>
	<path class="st5" d="M59.5,81.2L39.3,94.3c0.3,0.6,1,1,1.7,1h0.4l21.8-14.1L59.5,81.2L59.5,81.2z"/>
	<path class="st5" d="M97.6,93.5L78.7,81.2H75l21.5,13.9C97.1,94.8,97.5,94.2,97.6,93.5z"/>
</g>
<g>
	<path class="st4" d="M68.9,106.3l1.5,5l4.9-1.9c0.4-0.2,0.8,0.3,0.5,0.7l-3,4.3l4.6,2.6c0.4,0.2,0.3,0.8-0.2,0.8l-5.2,0.4l0.8,5.2
		c0.1,0.4-0.5,0.7-0.8,0.4l-3.6-3.9l-3.6,3.9c-0.3,0.3-0.9,0.1-0.8-0.4l0.8-5.2l-5.2-0.4c-0.4,0-0.6-0.6-0.2-0.8l4.6-2.6l-3-4.3
		c-0.3-0.4,0.1-0.8,0.5-0.7l4.9,1.9l1.5-5C68.2,105.9,68.8,105.9,68.9,106.3z"/>
	<path class="st4" d="M129,70.5l0.7,2.5l2.4-1c0.2-0.1,0.4,0.2,0.3,0.3l-1.5,2.1l2.2,1.3c0.2,0.1,0.1,0.4-0.1,0.4l-2.6,0.2l0.4,2.5
		c0,0.2-0.2,0.3-0.4,0.2l-1.7-1.9l-1.7,1.9c-0.1,0.2-0.4,0-0.4-0.2l0.4-2.5l-2.6-0.2c-0.2,0-0.3-0.3-0.1-0.4l2.2-1.3l-1.5-2.1
		c-0.1-0.2,0.1-0.4,0.3-0.3l2.4,1l0.7-2.5C128.7,70.3,129,70.3,129,70.5z"/>
	<path class="st4" d="M112.4,89.4l0.7,2.5l2.4-1c0.2-0.1,0.4,0.2,0.3,0.3l-1.5,2.1l2.2,1.3c0.2,0.1,0.1,0.4-0.1,0.4l-2.6,0.2
		l0.4,2.5c0,0.2-0.2,0.3-0.4,0.2l-1.7-1.9l-1.7,1.9c-0.1,0.2-0.4,0-0.4-0.2l0.4-2.5l-2.6-0.2c-0.2,0-0.3-0.3-0.1-0.4l2.2-1.3
		l-1.5-2.1c-0.1-0.2,0.1-0.4,0.3-0.3l2.4,1l0.7-2.5C112.1,89.2,112.4,89.2,112.4,89.4z"/>
	<path class="st4" d="M144.7,81.3l0.7,2.5l2.4-1c0.2-0.1,0.4,0.2,0.3,0.3l-1.5,2.1l2.2,1.3c0.2,0.1,0.1,0.4-0.1,0.4l-2.6,0.2
		l0.4,2.5c0,0.2-0.2,0.3-0.4,0.2l-1.7-1.9l-1.7,1.9c-0.1,0.2-0.4,0-0.4-0.2l0.4-2.5l-2.6-0.2c-0.2,0-0.3-0.3-0.1-0.4l2.2-1.3
		l-1.5-2.1c-0.1-0.2,0.1-0.4,0.3-0.3l2.4,1l0.7-2.5C144.4,81.1,144.7,81.1,144.7,81.3z"/>
	<path class="st4" d="M129,113.7l0.7,2.5l2.4-1c0.2-0.1,0.4,0.2,0.3,0.3l-1.5,2.1l2.2,1.3c0.2,0.1,0.1,0.4-0.1,0.4l-2.6,0.2l0.4,2.5
		c0,0.2-0.2,0.3-0.4,0.2l-1.7-1.9l-1.7,1.9c-0.1,0.2-0.4,0-0.4-0.2l0.4-2.5l-2.6-0.2c-0.2,0-0.3-0.3-0.1-0.4l2.2-1.3l-1.5-2.1
		c-0.1-0.2,0.1-0.4,0.3-0.3l2.4,1l0.7-2.5C128.7,113.4,129,113.4,129,113.7z"/>
	<path class="st4" d="M134.8,93.8l-0.6,1.8l-1.9,0c-0.2,0-0.3,0.3-0.1,0.5l1.5,1.1l-0.6,1.8c-0.1,0.2,0.2,0.4,0.4,0.3l1.5-1.1
		l1.5,1.1c0.2,0.1,0.5-0.1,0.4-0.3l-0.6-1.8l1.5-1.1c0.2-0.1,0.1-0.5-0.1-0.5l-1.9,0l-0.6-1.8C135.2,93.6,134.9,93.6,134.8,93.8z"/>
</g>
</svg>
