<?xml version="1.0" encoding="utf-8"?>
<!-- Generator: Adobe Illustrator 22.0.1, SVG Export Plug-In . SVG Version: 6.00 Build 0)  -->
<svg version="1.1" id="Calque_1" xmlns="http://www.w3.org/2000/svg" xmlns:xlink="http://www.w3.org/1999/xlink" x="0px" y="0px"
	 viewBox="0 0 200 200" style="enable-background:new 0 0 200 200;" xml:space="preserve">
<style type="text/css">
	.st0{fill:#D8C3DF;}
	.st1{fill:#FFFFFF;}
	.st2{fill:none;stroke:#010101;stroke-miterlimit:10;}
	.st3{fill:#CF3A27;}
	.st4{fill:#B6D997;}
	.st5{fill:#010101;}
</style>
<g id="XMLID_1_">
	<g>
		<path class="st0" d="M172,15.3c6.6,0,12,5.4,12,12v143.9c0,6.6-5.4,12-12,12H28.1c-6.6,0-12-5.4-12-12V27.3c0-6.6,5.4-12,12-12
			H172z"/>
		<path class="st1" d="M184,27.3c0-6.6-5.4-12-12-12H28.1c-6.6,0-12,5.4-12,12v143.9c0,6.6,5.4,12,12,12H172c6.6,0,12-5.4,12-12
			L184,27.3L184,27.3z M18.3,5.6h163.1c6.6,0,12,5.4,12,12v163.1c0,6.6-5.4,12-12,12H18.3c-6.6,0-12-5.4-12-12V17.6
			C6.3,11,11.7,5.6,18.3,5.6z"/>
	</g>
	<g>
		<path class="st2" d="M172,183.1H28.1c-6.6,0-12-5.4-12-12V27.3c0-6.6,5.4-12,12-12H172c6.6,0,12,5.4,12,12v143.9
			C184,177.7,178.6,183.1,172,183.1z"/>
		<path class="st2" d="M181.5,192.8H18.3c-6.6,0-12-5.4-12-12V17.6c0-6.6,5.4-12,12-12h163.1c6.6,0,12,5.4,12,12v163.1
			C193.5,187.4,188.1,192.8,181.5,192.8z"/>
	</g>
</g>
<polygon class="st3" points="136.4,156.6 136.4,156.4 136.1,156.6 "/>
<g>
	<path class="st1" d="M88.8,130.6l-23.8-23.8l-5.5,5.5c-6.6,6.6-6.6,17.3,0,23.8c3.2,3.2,7.4,4.9,11.9,4.9c4.5,0,8.7-1.8,11.9-4.9
		L88.8,130.6z"/>
	<polygon class="st4" points="91.8,126.5 92.8,127.5 145.4,100.6 138,98.2 	"/>
	<path class="st4" d="M74.7,94.5c0.7-1.2,2.3-1.5,3.4-0.8c1.2,0.7,1.5,2.3,0.8,3.4l-6.3,10.3l6,6l21.5-21.5c1-1,2.6-1,3.5,0
		c1,1,1,2.6,0,3.5l-21.5,21.5l6,6l46.5-28.5l-3.6-11.1l-11.6-3.7l-8.8,8.8c-0.5,0.5-1.1,0.7-1.8,0.7c-0.6,0-1.3-0.2-1.8-0.7
		c-1-1-1-2.6,0-3.5L116,76l-3.7-11.6l-11.1-3.6l-17,27.7c-0.5,0.8-1.3,1.2-2.1,1.2c-0.4,0-0.9-0.1-1.3-0.4c-1.2-0.7-1.5-2.3-0.8-3.4
		l17.4-28.4L95,50.2l-27,52.6l1,1L74.7,94.5z"/>
	<path class="st5" d="M154.4,99.8c-0.1-1-0.8-1.9-1.7-2.2l-13-4.2l-4.2-13c-0.2-0.8-0.8-1.4-1.6-1.6l-13-4.2l-4.2-13
		c-0.2-0.8-0.8-1.4-1.6-1.6l-13-4.2l-4.2-13c-0.3-1-1.2-1.6-2.2-1.7c-1-0.1-2,0.4-2.4,1.3l-30.4,59.2l-7,7c-8.5,8.5-8.5,22.4,0,30.9
		c4.1,4.1,9.6,6.4,15.5,6.4c5.8,0,11.3-2.3,15.5-6.4l7-7l59.2-30.4C153.9,101.8,154.4,100.8,154.4,99.8z M92.8,127.5l-1-1L138,98.2
		l7.4,2.4L92.8,127.5z M59.5,136.1c-6.6-6.6-6.6-17.3,0-23.8l5.5-5.5l23.8,23.8l-5.5,5.5c-3.2,3.2-7.4,4.9-11.9,4.9
		C66.9,141,62.7,139.3,59.5,136.1z M95,50.2l2.4,7.4L79.9,86c-0.7,1.2-0.4,2.7,0.8,3.4c0.4,0.2,0.9,0.4,1.3,0.4
		c0.8,0,1.7-0.4,2.1-1.2l17-27.7l11.1,3.6L116,76l-8.8,8.8c-1,1-1,2.6,0,3.5c0.5,0.5,1.1,0.7,1.8,0.7s1.3-0.2,1.8-0.7l8.8-8.8
		l11.6,3.7l3.6,11.1l-46.5,28.5l-6-6l21.5-21.5c1-1,1-2.6,0-3.5c-1-1-2.6-1-3.5,0l-21.5,21.5l-6-6L79,97.1c0.7-1.2,0.4-2.7-0.8-3.4
		c-1.2-0.7-2.7-0.4-3.4,0.8l-5.7,9.3l-1-1L95,50.2z"/>
</g>
</svg>
