<?xml version="1.0" encoding="utf-8"?>
<!-- Generator: Adobe Illustrator 22.0.1, SVG Export Plug-In . SVG Version: 6.00 Build 0)  -->
<svg version="1.1" id="Calque_1" xmlns="http://www.w3.org/2000/svg" xmlns:xlink="http://www.w3.org/1999/xlink" x="0px" y="0px"
	 viewBox="0 0 200 200" style="enable-background:new 0 0 200 200;" xml:space="preserve">
<style type="text/css">
	.st0{fill:#FFFFFF;}
	.st1{fill:#F9BCC4;}
	.st2{fill:none;stroke:#000000;stroke-miterlimit:10;}
	.st3{fill:#A7D16A;}
	.st4{fill:#F4B954;}
	.st5{fill:#53BB73;}
	.st6{fill:#010101;}
</style>
<g id="XMLID_1_">
	<g>
		<path class="st0" d="M193.6,18.4v163.1c0,6.6-5.4,12-12,12H18.4c-6.6,0-12-5.4-12-12V18.4c0-6.6,5.4-12,12-12h163.1
			C188.2,6.4,193.6,11.8,193.6,18.4z M184.1,171.9V28.1c0-6.6-5.4-12-12-12H28.2c-6.6,0-12,5.4-12,12v143.9c0,6.6,5.4,12,12,12
			h143.9C178.7,183.9,184.1,178.5,184.1,171.9z"/>
		<path class="st1" d="M184.1,28.1v143.9c0,6.6-5.4,12-12,12H28.2c-6.6,0-12-5.4-12-12V28.1c0-6.6,5.4-12,12-12h143.9
			C178.7,16.1,184.1,21.5,184.1,28.1z"/>
	</g>
	<g>
		<path class="st2" d="M172.1,183.9H28.2c-6.6,0-12-5.4-12-12V28.1c0-6.6,5.4-12,12-12h143.9c6.6,0,12,5.4,12,12v143.9
			C184.1,178.5,178.7,183.9,172.1,183.9z"/>
		<path class="st2" d="M181.6,193.6H18.4c-6.6,0-12-5.4-12-12V18.4c0-6.6,5.4-12,12-12h163.1c6.6,0,12,5.4,12,12v163.1
			C193.6,188.2,188.2,193.6,181.6,193.6z"/>
	</g>
</g>
<g>
	<rect x="130.2" y="56.2" class="st3" width="9.3" height="14.7"/>
	<rect x="124.3" y="44.4" class="st3" width="9.3" height="16.7"/>
</g>
<g>
	<path class="st4" d="M60.6,105L60.6,105c0.9,0,1.8,0.1,2.7,0.2l8.6,1.3c11.2,1.7,22.6-0.3,32.6-5.7l0,0c8.1-4.4,15-10.9,19.7-18.8
		l6.8-11.2h1.4l-2.7-9.8h-4.7l-7.7,8.5c-5.5,6-12.5,10.4-20.2,12.8l0,0c-9.5,2.9-19.7,2.7-29-0.7l-7.2-2.6c-3-1.1-6.2-1.4-9.4-0.8
		l-6.3-2.3L40,80.8l0,0C43.3,86.9,48.5,98,60.6,105z"/>
	<path class="st4" d="M64.4,126.3c3.2-1.8,6.7-2.7,10.3-2.7h8.7c11.3,0,22.3-3.7,31.3-10.5l0,0c7.4-5.6,13.1-13,16.7-21.6l5-12.1
		l0.6,0l-0.6-8.4H131l-6.8,11.2c-4.8,7.9-11.6,14.4-19.7,18.8l0,0c-9.9,5.4-21.4,7.4-32.6,5.7l-8.6-1.3c-3.6-0.5-7.3-0.2-10.6,1.1
		l0,0l-7.6-1.2l-4.7,6.6l0,0c5,6.2,11.4,11.1,18.6,14.5L64.4,126.3L64.4,126.3L64.4,126.3z"/>
</g>
<polygon class="st3" points="136.5,79.3 136.5,64.5 144.4,64.5 148.6,78.8 "/>
<path class="st4" d="M148.6,78.8l-12.1,0.5l-5,12.1c-3.5,8.6-9.3,16-16.7,21.6l0,0c-9,6.8-20,10.5-31.3,10.5h-8.7
	c-3.6,0-7.2,0.9-10.3,2.7l0,0h-7.7l-3.6,7.2l0,0c6,5.4,13.1,9.4,20.9,11.6l2.2,0.6c16,4.6,33.2,3.4,48.4-3.3l0,0
	c10.9-4.8,20.2-12.5,26.8-22.3l0.6-0.9c6.8-10,7.1-23.1,0.8-33.4L148.6,78.8z"/>
<polygon class="st5" points="144.4,64.5 133.9,44.4 124.3,44.4 136.5,64.5 "/>
<path class="st6" d="M154.8,84.5l-4-6.7l-4-14c0,0,0,0,0,0c0-0.2-0.1-0.3-0.2-0.4L136,43.3c-0.4-0.8-1.2-1.3-2.1-1.3h-9.6
	c-0.9,0-1.6,0.5-2.1,1.2c-0.2,0.4-0.3,0.9-0.3,1.3c0,0.1,0,0.1,0,0.2V61l-6.4,7c-3.3,3.6-7.2,6.6-11.5,9c-1.2,0.6-1.6,2.1-1,3.2
	c0.4,0.8,1.2,1.3,2.1,1.3c0.4,0,0.8-0.1,1.1-0.3c4.8-2.6,9.1-5.9,12.8-9.9l7-7.7h1.7v8.2l-5.6,9.3c-4.6,7.6-11.1,13.8-18.8,18
	c-9.4,5.1-20.5,7-31.1,5.4l-8.6-1.3c-0.8-0.1-1.6-0.2-2.4-0.2c-5.2-3.2-9.1-7.1-12-11.1l2.7-3.5c0.8-1,0.6-2.5-0.4-3.3
	c-1-0.8-2.5-0.6-3.3,0.4l-1.7,2.2c-1.4-2.2-2.5-4.4-3.5-6.2l2.8-2.6l5,1.8c0.4,0.1,0.8,0.2,1.2,0.1c2.7-0.5,5.5-0.2,8.1,0.7l7.2,2.6
	c6.5,2.4,13.3,3.3,20.1,2.7c1.3-0.1,2.3-1.2,2.2-2.6c-0.1-1.3-1.2-2.3-2.6-2.2c-6.2,0.5-12.3-0.3-18.1-2.5l-7.2-2.6
	c-3.2-1.2-6.6-1.5-9.9-1L46,73.7c-0.8-0.3-1.8-0.1-2.4,0.5L38.4,79c-0.8,0.7-1,1.9-0.5,2.8c0.2,0.4,0.4,0.8,0.6,1.2
	c2.8,5.4,7.2,13.7,15.5,20.4c-0.6,0.2-1.1,0.3-1.7,0.5l-7-1.1c-0.9-0.1-1.8,0.2-2.3,1l-4.7,6.6c-0.6,0.9-0.6,2.1,0.1,2.9
	c4.3,5.3,9.6,9.7,15.5,13.1l-3,6c-0.5,1-0.3,2.1,0.5,2.8c3.2,2.9,6.8,5.5,10.7,7.6c0.1,0.1,0.3,0.2,0.4,0.2c3.4,1.8,7,3.3,10.7,4.3
	l2.2,0.6c6.6,1.9,13.4,2.8,20.2,2.8c10.2,0,20.4-2.1,29.8-6.3c11.3-5,20.9-13,27.8-23.2l0.6-0.9C161.2,109.7,161.5,95.6,154.8,84.5z
	 M132.6,62.6l1.6,2.6v3.4h-1.6V62.6z M138.9,66.9h3.8l2.8,9.7l-6.6,0.3L138.9,66.9L138.9,66.9z M132.5,46.8l8,15.4h-2.7l-9.3-15.4
	H132.5z M126.7,58.7v-5.8l1.1,1.9c0,0.1,0,0.2,0,0.3v3.7C127.8,58.7,126.7,58.7,126.7,58.7z M43.4,111.7l2.8-3.9l6.2,0.9
	c0.4,0.1,0.8,0,1.2-0.1c3-1.1,6.3-1.5,9.4-1l8.6,1.3c11.6,1.8,23.7-0.3,34-5.9c8.5-4.6,15.7-11.4,20.7-19.7l6.1-10h1.8v5.6
	l-4.8,11.7c-3.4,8.2-8.9,15.3-15.9,20.6c-8.6,6.5-19.2,10-29.9,10h-8.7c-3.8,0-7.6,0.9-11,2.7h-4.3c-2-0.9-3.9-2-5.7-3.2l1.4-2.7
	c0.6-1.2,0.1-2.6-1.1-3.2c-1.2-0.6-2.6-0.1-3.2,1.1l-1,2.1C47.5,116,45.4,114,43.4,111.7z M150,117.8l-0.6,0.9
	c-6.4,9.4-15.3,16.9-25.8,21.5c-14.7,6.5-31.3,7.6-46.8,3.2l-2.2-0.6c-2.8-0.8-5.6-1.9-8.2-3.1l1.1-3.2c0.4-1.2-0.2-2.6-1.5-3
	c-1.2-0.4-2.6,0.2-3,1.5l-0.9,2.5c-2.2-1.3-4.2-2.8-6.1-4.4l2.2-4.2h0.7c0,0,0,0,0,0c0,0,0,0,0,0h5.5c0.4,0,0.8-0.1,1.2-0.3
	c2.8-1.6,6-2.4,9.2-2.4h8.7c11.8,0,23.4-3.9,32.8-11c7.7-5.8,13.7-13.6,17.4-22.6l4.4-10.7l9.1-0.4l3.5,5.7
	C156.5,96.5,156.2,108.6,150,117.8z"/>
<path class="st6" d="M97.1,84.8c0.2,0,0.5,0,0.7-0.1c1.3-0.4,2-1.7,1.6-3c-0.4-1.3-1.7-2-3-1.6c0,0,0,0,0,0c-1.3,0.4-2,1.7-1.6,3
	C95.1,84.1,96.1,84.8,97.1,84.8z"/>
<path class="st6" d="M135.4,120.8c-4.5,4.5-9.8,8.1-15.6,10.7c-7.1,3.1-14.6,4.8-22.4,5c-1.3,0-2.3,1.1-2.3,2.4
	c0,1.3,1.1,2.3,2.4,2.3c0,0,0,0,0.1,0c8.4-0.2,16.5-2.1,24.2-5.4c6.4-2.8,12.2-6.8,17.1-11.7c0.9-0.9,0.9-2.4,0-3.4
	C137.8,119.9,136.3,119.9,135.4,120.8z"/>
</svg>
