<?xml version="1.0" encoding="utf-8"?>
<!-- Generator: Adobe Illustrator 22.0.1, SVG Export Plug-In . SVG Version: 6.00 Build 0)  -->
<svg version="1.1" id="Calque_1" xmlns="http://www.w3.org/2000/svg" xmlns:xlink="http://www.w3.org/1999/xlink" x="0px" y="0px"
	 viewBox="0 0 200 200" style="enable-background:new 0 0 200 200;" xml:space="preserve">
<style type="text/css">
	.st0{fill:#D8C3DF;}
	.st1{fill:#FFFFFF;}
	.st2{fill:none;stroke:#010101;stroke-miterlimit:10;}
	.st3{fill:#CF3A27;}
	.st4{fill:#FFDD95;}
	.st5{fill:#010101;}
</style>
<g id="XMLID_1_">
	<g>
		<path class="st0" d="M174,16.3c6.6,0,12,5.4,12,12v143.9c0,6.6-5.4,12-12,12H30.1c-6.6,0-12-5.4-12-12V28.3c0-6.6,5.4-12,12-12
			H174z"/>
		<path class="st1" d="M186,28.3c0-6.6-5.4-12-12-12H30.1c-6.6,0-12,5.4-12,12v143.9c0,6.6,5.4,12,12,12H174c6.6,0,12-5.4,12-12
			L186,28.3L186,28.3z M20.3,6.6h163.1c6.6,0,12,5.4,12,12v163.1c0,6.6-5.4,12-12,12H20.3c-6.6,0-12-5.4-12-12V18.6
			C8.3,12,13.7,6.6,20.3,6.6z"/>
	</g>
	<g>
		<path class="st2" d="M174,184.1H30.1c-6.6,0-12-5.4-12-12V28.3c0-6.6,5.4-12,12-12H174c6.6,0,12,5.4,12,12v143.9
			C186,178.7,180.6,184.1,174,184.1z"/>
		<path class="st2" d="M183.5,193.8H20.3c-6.6,0-12-5.4-12-12V18.6c0-6.6,5.4-12,12-12h163.1c6.6,0,12,5.4,12,12v163.1
			C195.5,188.4,190.1,193.8,183.5,193.8z"/>
	</g>
</g>
<polygon class="st3" points="138.4,157.6 138.4,157.4 138.1,157.6 "/>
<circle class="st4" cx="101" cy="97.2" r="51.6"/>
<path class="st5" d="M101,150.5c-29.4,0-53.4-23.9-53.4-53.4S71.6,43.8,101,43.8s53.4,23.9,53.4,53.4S130.4,150.5,101,150.5z
	 M101,47.4c-27.5,0-49.8,22.3-49.8,49.8S73.5,147,101,147s49.8-22.3,49.8-49.8S128.5,47.4,101,47.4z"/>
<path class="st5" d="M101,86.5c-16.1,0-31.2-7.2-41.4-19.7c-0.6-0.8-0.5-1.9,0.3-2.5c0.8-0.6,1.9-0.5,2.5,0.3
	c9.5,11.7,23.6,18.4,38.6,18.4c14.9,0,28.9-6.6,38.4-18.1c0.6-0.8,1.7-0.9,2.5-0.2c0.8,0.6,0.9,1.7,0.2,2.5
	C132,79.4,117,86.5,101,86.5z"/>
<path class="st5" d="M63.6,79.4c-0.2,0-0.5,0-0.7-0.1c-0.9-0.4-1.3-1.4-0.9-2.3l5.3-12.5c0.4-0.9,1.4-1.3,2.3-0.9
	c0.9,0.4,1.3,1.4,0.9,2.3l-5.3,12.5C65,79,64.3,79.4,63.6,79.4z"/>
<path class="st5" d="M72.5,84.7c-0.2,0-0.3,0-0.5-0.1c-0.9-0.3-1.5-1.3-1.2-2.2L74.4,70c0.3-0.9,1.3-1.5,2.2-1.2
	c0.9,0.3,1.5,1.3,1.2,2.2l-3.6,12.5C74,84.2,73.3,84.7,72.5,84.7z"/>
<path class="st5" d="M81.4,88.3c-0.1,0-0.1,0-0.2,0c-1-0.1-1.7-1-1.5-2l1.8-14.2c0.1-1,1-1.7,2-1.5c1,0.1,1.7,1,1.5,2l-1.8,14.2
	C83.1,87.6,82.3,88.3,81.4,88.3z"/>
<path class="st5" d="M90.3,91.8c-0.1,0-0.1,0-0.2,0c-1-0.1-1.7-1-1.5-2l1.8-14.2c0.1-1,1-1.7,2-1.5c1,0.1,1.7,1,1.5,2l-1.8,14.2
	C92,91.2,91.2,91.8,90.3,91.8z"/>
<path class="st5" d="M101,93.6c-1,0-1.8-0.8-1.8-1.8V77.6c0-1,0.8-1.8,1.8-1.8s1.8,0.8,1.8,1.8v14.2C102.8,92.8,102,93.6,101,93.6z"
	/>
<path class="st5" d="M140.1,79.4c-0.7,0-1.3-0.4-1.6-1.1l-5.3-12.5c-0.4-0.9,0-1.9,0.9-2.3c0.9-0.4,1.9,0,2.3,0.9l5.3,12.5
	c0.4,0.9,0,1.9-0.9,2.3C140.6,79.3,140.4,79.4,140.1,79.4z"/>
<path class="st5" d="M131.2,84.7c-0.8,0-1.5-0.5-1.7-1.3L126,71c-0.3-0.9,0.3-1.9,1.2-2.2c0.9-0.3,1.9,0.3,2.2,1.2l3.6,12.5
	c0.3,0.9-0.3,1.9-1.2,2.2C131.6,84.7,131.4,84.7,131.2,84.7z"/>
<path class="st5" d="M122.3,88.3c-0.9,0-1.7-0.7-1.8-1.6l-1.8-14.2c-0.1-1,0.6-1.9,1.5-2c1-0.1,1.9,0.6,2,1.5l1.8,14.2
	c0.1,1-0.6,1.9-1.5,2C122.5,88.3,122.4,88.3,122.3,88.3z"/>
<path class="st5" d="M113.4,91.8c-0.9,0-1.7-0.7-1.8-1.6L109.9,76c-0.1-1,0.6-1.9,1.5-2c1-0.1,1.9,0.6,2,1.5l1.8,14.2
	c0.1,1-0.6,1.9-1.5,2C113.6,91.8,113.5,91.8,113.4,91.8z"/>
<path class="st5" d="M61,130.4c-0.4,0-0.8-0.1-1.1-0.4c-0.8-0.6-0.9-1.7-0.3-2.5c10.2-12.5,25.3-19.7,41.4-19.7
	c16,0,31,7.1,41.2,19.4c0.6,0.8,0.5,1.9-0.2,2.5c-0.8,0.6-1.9,0.5-2.5-0.2c-9.5-11.5-23.5-18.1-38.4-18.1c-15,0-29.1,6.7-38.6,18.4
	C62,130.2,61.5,130.4,61,130.4z"/>
<path class="st5" d="M69,131c-0.7,0-1.3-0.4-1.6-1.1L62,117.4c-0.4-0.9,0-1.9,0.9-2.3c0.9-0.4,1.9,0,2.3,0.9l5.3,12.5
	c0.4,0.9,0,1.9-0.9,2.3C69.4,130.9,69.2,131,69,131z"/>
<path class="st5" d="M76.1,125.6c-0.8,0-1.5-0.5-1.7-1.3l-3.6-12.5c-0.3-0.9,0.3-1.9,1.2-2.2c0.9-0.3,1.9,0.3,2.2,1.2l3.6,12.5
	c0.3,0.9-0.3,1.9-1.2,2.2C76.4,125.6,76.2,125.6,76.1,125.6z"/>
<path class="st5" d="M83.2,123.9c-0.9,0-1.7-0.7-1.8-1.6l-1.8-14.2c-0.1-1,0.6-1.9,1.5-2c1-0.1,1.9,0.6,2,1.5l1.8,14.2
	c0.1,1-0.6,1.9-1.5,2C83.3,123.9,83.3,123.9,83.2,123.9z"/>
<path class="st5" d="M92.1,120.3c-0.9,0-1.7-0.7-1.8-1.6l-1.8-14.2c-0.1-1,0.6-1.9,1.5-2c1-0.1,1.9,0.6,2,1.5l1.8,14.2
	c0.1,1-0.6,1.9-1.5,2C92.2,120.3,92.2,120.3,92.1,120.3z"/>
<path class="st5" d="M101,118.5c-1,0-1.8-0.8-1.8-1.8v-14.2c0-1,0.8-1.8,1.8-1.8s1.8,0.8,1.8,1.8v14.2
	C102.8,117.7,102,118.5,101,118.5z"/>
<path class="st5" d="M134.8,131c-0.2,0-0.5,0-0.7-0.1c-0.9-0.4-1.3-1.4-0.9-2.3l5.3-12.5c0.4-0.9,1.4-1.3,2.3-0.9
	c0.9,0.4,1.3,1.4,0.9,2.3l-5.3,12.5C136.1,130.6,135.5,131,134.8,131z"/>
<path class="st5" d="M127.7,125.6c-0.2,0-0.3,0-0.5-0.1c-0.9-0.3-1.5-1.3-1.2-2.2l3.6-12.5c0.3-0.9,1.3-1.5,2.2-1.2
	c0.9,0.3,1.5,1.3,1.2,2.2l-3.6,12.5C129.2,125.1,128.5,125.6,127.7,125.6z"/>
<path class="st5" d="M120.6,123.9c-0.1,0-0.1,0-0.2,0c-1-0.1-1.7-1-1.5-2l1.8-14.2c0.1-1,1-1.7,2-1.5c1,0.1,1.7,1,1.5,2l-1.8,14.2
	C122.2,123.2,121.4,123.9,120.6,123.9z"/>
<path class="st5" d="M111.7,120.3c-0.1,0-0.1,0-0.2,0c-1-0.1-1.7-1-1.5-2l1.8-14.2c0.1-1,1-1.7,2-1.5c1,0.1,1.7,1,1.5,2l-1.8,14.2
	C113.3,119.6,112.6,120.3,111.7,120.3z"/>
</svg>
