<?xml version="1.0" encoding="utf-8"?>
<!-- Generator: Adobe Illustrator 22.0.1, SVG Export Plug-In . SVG Version: 6.00 Build 0)  -->
<svg version="1.1" id="Calque_1" xmlns="http://www.w3.org/2000/svg" xmlns:xlink="http://www.w3.org/1999/xlink" x="0px" y="0px"
	 viewBox="0 0 200 200" style="enable-background:new 0 0 200 200;" xml:space="preserve">
<style type="text/css">
	.st0{fill:#D8C3DF;}
	.st1{fill:#FFFFFF;}
	.st2{fill:none;stroke:#010101;stroke-miterlimit:10;}
	.st3{fill:none;}
	.st4{fill:#73C7AC;}
	.st5{fill:#7A4E34;}
	.st6{fill:#FAAB54;}
	.st7{fill:#010101;}
</style>
<g id="XMLID_1_">
	<g>
		<path class="st0" d="M172.1,16.1c6.6,0,12,5.4,12,12V172c0,6.6-5.4,12-12,12H28.2c-6.6,0-12-5.4-12-12V28.1c0-6.6,5.4-12,12-12
			H172.1z"/>
		<path class="st1" d="M184.1,28.1c0-6.6-5.4-12-12-12H28.2c-6.6,0-12,5.4-12,12V172c0,6.6,5.4,12,12,12h143.9c6.6,0,12-5.4,12-12
			L184.1,28.1L184.1,28.1z M18.4,6.4h163.1c6.6,0,12,5.4,12,12v163.1c0,6.6-5.4,12-12,12H18.4c-6.6,0-12-5.4-12-12V18.4
			C6.4,11.8,11.8,6.4,18.4,6.4z"/>
	</g>
	<g>
		<path class="st2" d="M172.1,183.9H28.2c-6.6,0-12-5.4-12-12V28.1c0-6.6,5.4-12,12-12h143.9c6.6,0,12,5.4,12,12V172
			C184.1,178.5,178.7,183.9,172.1,183.9z"/>
		<path class="st2" d="M181.6,193.6H18.4c-6.6,0-12-5.4-12-12V18.4c0-6.6,5.4-12,12-12h163.1c6.6,0,12,5.4,12,12v163.1
			C193.6,188.2,188.2,193.6,181.6,193.6z"/>
	</g>
</g>
<g>
	<path class="st3" d="M121.8,117.5h13.2c0.5-5.6,1.6-12,3.3-17h-19.8C120.2,105.4,121.3,111.8,121.8,117.5z"/>
	<path class="st4" d="M94.2,92.5c-3.5-0.2-7.1-0.9-10.7-2.2c-1.5-0.5-2.2-2.2-1.7-3.6c0.5-1.5,2.2-2.2,3.6-1.7
		c2.7,1,5.4,1.6,8.1,1.8c-0.7-2-2.4-4-8.6-4.9c-1.3-0.2-2.4-0.3-3.4-0.3c-6.7,0-8.2,3.6-10.2,18.1c-1.2,8.6-0.9,13.7,1.1,16.3
		c1.3,1.7,3.6,2.8,7.2,3.3c1,0.1,2,0.2,2.8,0.2c1.2,0,2.2-0.1,3.2-0.4c0.1-0.1,0.2-0.1,0.4-0.1c3.4-1.3,5.6-5.4,7.1-16.2
		C93.6,98.9,94.1,95.4,94.2,92.5z"/>
	<path class="st5" d="M77.1,59c0,5.9,4.8,10.7,10.7,10.7c5.9,0,10.7-4.8,10.7-10.7c0-5.9-4.8-10.7-10.7-10.7
		C81.9,48.3,77.1,53.1,77.1,59z"/>
	<path class="st6" d="M124.9,75c4.3,0,7.7-3.5,7.7-7.7c0-4.3-3.5-7.7-7.7-7.7c-4.3,0-7.7,3.5-7.7,7.7C117.2,71.6,120.6,75,124.9,75z
		"/>
	<path class="st7" d="M118.7,79.1c1.8,1,3.9,1.5,6.2,1.5c7.4,0,13.3-6,13.3-13.3s-6-13.3-13.3-13.3c-7.4,0-13.3,6-13.3,13.3
		c0,3,1,5.8,2.7,8.1c-1.8,4.3-4.9,7.6-9,9.5c-1.8,0.9-3.8,1.5-6,1.8c-0.1-0.4-0.2-0.9-0.3-1.3c-2.2-6.6-8.6-8.3-13.3-9
		c-1.6-0.2-2.9-0.3-4.2-0.3c-5.6,0-9.5,2.2-11.9,6.7c-2,3.9-2.9,9.2-3.9,16.3c-1.5,10.5-0.9,16.4,2.2,20.5c1,1.3,2.2,2.4,3.7,3.2
		c-1.2,5.1-5.6,7.6-9.2,8.2c-4.8,0.8-11.2-1.2-14.5-9c-0.3-0.7-0.9-1.3-1.7-1.6c-0.8-0.3-1.6-0.2-2.3,0.2l-8.2,4.5
		c-1.4,0.8-1.8,2.5-1.1,3.8c0.8,1.4,2.5,1.8,3.8,1.1l5.6-3.1c3.6,6.2,9.6,9.8,16.2,9.8c1,0,2-0.1,3-0.2c6.7-1.1,11.9-5.7,13.6-11.9
		c0.6,0.1,1.2,0.2,1.9,0.3c1.3,0.2,2.5,0.3,3.6,0.3c1.3,0,2.5-0.1,3.6-0.4c5,4.9,4.2,10.7,1.8,14.3c-3.1,4.8-9.8,7.9-17.8,3.9
		c-0.7-0.4-1.5-0.4-2.3-0.1c-0.7,0.3-1.3,0.9-1.6,1.6l-3.3,8.8c-0.5,1.5,0.2,3.1,1.6,3.6c0.3,0.1,0.7,0.2,1,0.2
		c1.1,0,2.2-0.7,2.6-1.8l2.2-6c9.8,3.5,18.3-0.9,22.2-7c2.2-3.4,3.2-7.5,2.6-11.4c-0.4-3.1-1.7-6-3.9-8.5c4.2-3.6,6.1-10.2,7.3-18.7
		c0.6-4.4,1.1-8.2,1.2-11.4c2.8-0.4,5.5-1.2,7.9-2.3C112.6,87.6,116.3,83.9,118.7,79.1z M124.9,59.6c4.3,0,7.7,3.5,7.7,7.7
		c0,4.3-3.5,7.7-7.7,7.7c-4.3,0-7.7-3.5-7.7-7.7C117.2,63,120.6,59.6,124.9,59.6z M86,119.1c-0.1,0-0.2,0.1-0.4,0.1
		c-1,0.3-2,0.4-3.2,0.4c-0.9,0-1.8-0.1-2.8-0.2c-3.6-0.5-5.9-1.6-7.2-3.3c-2-2.7-2.4-7.7-1.1-16.3c2-14.5,3.5-18.1,10.2-18.1
		c1,0,2.2,0.1,3.4,0.3c6.3,0.9,7.9,2.9,8.6,4.9c-2.7-0.2-5.4-0.8-8.1-1.8c-1.5-0.5-3.1,0.2-3.6,1.7c-0.5,1.5,0.2,3.1,1.7,3.6
		c3.5,1.3,7.1,2.1,10.7,2.2c-0.1,2.9-0.5,6.3-1.1,10.4C91.5,113.7,89.3,117.8,86,119.1z"/>
	<path class="st7" d="M87.8,75.3c9,0,16.3-7.3,16.3-16.3c0-9-7.3-16.3-16.3-16.3c-9,0-16.3,7.3-16.3,16.3
		C71.5,68,78.8,75.3,87.8,75.3z M98.5,59c0,5.9-4.8,10.7-10.7,10.7c-5.9,0-10.7-4.8-10.7-10.7c0-5.9,4.8-10.7,10.7-10.7
		C93.7,48.3,98.5,53.1,98.5,59z"/>
	<path class="st7" d="M154.8,50.6c-1.6,0-2.8,1.3-2.8,2.8v41.4h-9.3c0,0,0,0,0,0h-32.2c-1.6,0-2.8,1.3-2.8,2.8s1.3,2.8,2.8,2.8h2
		c2,4.7,3.5,13,3.9,20c0,0,0,0.1,0,0.1c0.1,1.4,0.1,2.8,0.1,4c0,1.6,1.3,2.8,2.8,2.8c1.6,0,2.8-1.3,2.8-2.8c0-0.5,0-1,0-1.5h12.5
		c0,0.5,0,1,0,1.5c0,1.6,1.3,2.8,2.8,2.8s2.8-1.3,2.8-2.8c0-1.3,0-2.6,0.1-4c0-0.1,0-0.1,0-0.2c0.4-7,1.9-15.2,3.9-19.9h7.6v17.6
		c0,1.6,1.3,2.8,2.8,2.8c1.6,0,2.8-1.3,2.8-2.8V53.4C157.7,51.9,156.4,50.6,154.8,50.6z M135.1,117.5h-13.2c-0.5-5.6-1.6-12-3.3-17
		h19.8C136.7,105.4,135.6,111.8,135.1,117.5z"/>
</g>
</svg>
