<?xml version="1.0" encoding="utf-8"?>
<!-- Generator: Adobe Illustrator 22.0.1, SVG Export Plug-In . SVG Version: 6.00 Build 0)  -->
<svg version="1.1" id="Calque_1" xmlns="http://www.w3.org/2000/svg" xmlns:xlink="http://www.w3.org/1999/xlink" x="0px" y="0px"
	 viewBox="0 0 200 200" style="enable-background:new 0 0 200 200;" xml:space="preserve">
<style type="text/css">
	.st0{fill:#D8C3DF;}
	.st1{fill:#FFFFFF;}
	.st2{fill:none;stroke:#010101;stroke-miterlimit:10;}
	.st3{fill:#CF3A27;}
	.st4{fill:#E65725;}
	.st5{fill:#010101;}
</style>
<g id="XMLID_1_">
	<g>
		<path class="st0" d="M172,15.3c6.6,0,12,5.4,12,12v143.9c0,6.6-5.4,12-12,12H28.1c-6.6,0-12-5.4-12-12V27.3c0-6.6,5.4-12,12-12
			H172z"/>
		<path class="st1" d="M184,27.3c0-6.6-5.4-12-12-12H28.1c-6.6,0-12,5.4-12,12v143.9c0,6.6,5.4,12,12,12H172c6.6,0,12-5.4,12-12
			L184,27.3L184,27.3z M18.3,5.6h163.1c6.6,0,12,5.4,12,12v163.1c0,6.6-5.4,12-12,12H18.3c-6.6,0-12-5.4-12-12V17.6
			C6.3,11,11.7,5.6,18.3,5.6z"/>
	</g>
	<g>
		<path class="st2" d="M172,183.1H28.1c-6.6,0-12-5.4-12-12V27.3c0-6.6,5.4-12,12-12H172c6.6,0,12,5.4,12,12v143.9
			C184,177.7,178.6,183.1,172,183.1z"/>
		<path class="st2" d="M181.5,192.8H18.3c-6.6,0-12-5.4-12-12V17.6c0-6.6,5.4-12,12-12h163.1c6.6,0,12,5.4,12,12v163.1
			C193.5,187.4,188.1,192.8,181.5,192.8z"/>
	</g>
</g>
<polygon class="st3" points="136.4,156.6 136.4,156.4 136.1,156.6 "/>
<g>
	<path class="st4" d="M140.5,134.6c1.4,0,2.5-1.1,2.5-2.5v-23.2c-4.3,2.6-9.5,4-15.1,4c-3.9,0-7.7-0.7-11-2v21.2
		c0,1.4,1.1,2.5,2.5,2.5L140.5,134.6L140.5,134.6z M123.7,121c-1-1-1-2.6,0-3.5c1-1,2.6-1,3.5,0l2.7,2.7l2.7-2.7c1-1,2.6-1,3.5,0
		c1,1,1,2.6,0,3.5l-2.7,2.7l2.7,2.7c1,1,1,2.6,0,3.5c-0.5,0.5-1.1,0.7-1.8,0.7s-1.3-0.2-1.8-0.7l-2.7-2.7l-2.7,2.7
		c-0.5,0.5-1.1,0.7-1.8,0.7c-0.6,0-1.3-0.2-1.8-0.7c-1-1-1-2.6,0-3.5l2.7-2.7L123.7,121z"/>
	<path class="st4" d="M133,59.7c-7.5,0-13.9,5.4-15.4,12.6h6.5c4.5,0,8.3,3.1,9.4,7.2h7.7c1.4,0,2.5,1.1,2.5,2.5
		c0,1.4-1.1,2.5-2.5,2.5h-7.7c-1.1,4.1-4.9,7.2-9.4,7.2h-6.6v3.8c0,1.4-1.1,2.5-2.5,2.5c-1.4,0-2.5-1.1-2.5-2.5v-6.3
		c0-1.4,1.1-2.5,2.5-2.5h9.1c2.6,0,4.7-2.1,4.7-4.7c0-2.6-2.1-4.7-4.7-4.7h-6.6c-0.7,0-1.5,0.1-2.2,0.2c0,0,0,0,0,0
		c-4.8,1.1-8.4,5.4-8.4,10.4v1.8c0,10.8,8.6,18.3,20.9,18.3s20.9-7.5,20.9-18.3V75.4C148.7,66.7,141.7,59.7,133,59.7z"/>
	<path class="st1" d="M123.7,130c0.5,0.5,1.1,0.7,1.8,0.7c0.6,0,1.3-0.2,1.8-0.7l2.7-2.7l2.7,2.7c0.5,0.5,1.1,0.7,1.8,0.7
		c0.6,0,1.3-0.2,1.8-0.7c1-1,1-2.6,0-3.5l-2.7-2.7l2.7-2.7c1-1,1-2.6,0-3.5c-1-1-2.6-1-3.5,0l-2.7,2.7l-2.7-2.7c-1-1-2.6-1-3.5,0
		c-1,1-1,2.6,0,3.5l2.7,2.7l-2.7,2.7C122.7,127.5,122.7,129.1,123.7,130z"/>
	<path class="st4" d="M82.3,77.5C82.3,77.5,82.3,77.5,82.3,77.5c-0.8-0.2-1.5-0.2-2.3-0.2h-6.6c-2.6,0-4.7,2.1-4.7,4.7
		c0,2.6,2.1,4.7,4.7,4.7h9.1c1.4,0,2.5,1.1,2.5,2.5v6.3c0,1.4-1.1,2.5-2.5,2.5c-1.4,0-2.5-1.1-2.5-2.5v-3.8h-6.6
		c-4.5,0-8.3-3.1-9.4-7.2h-7.7c-1.4,0-2.5-1.1-2.5-2.5c0-1.4,1.1-2.5,2.5-2.5h7.7c1.1-4.1,4.9-7.2,9.4-7.2H80
		c-1.5-7.1-7.8-12.6-15.4-12.6c-8.7,0-15.7,7-15.7,15.7v14.3c0,10.8,8.6,18.3,20.9,18.3c12.3,0,20.9-7.5,20.9-18.3v-1.8
		C90.7,82.9,87.2,78.6,82.3,77.5z"/>
	<path class="st4" d="M54.7,108.9v23.2c0,1.4,1.1,2.5,2.5,2.5h21.1c1.4,0,2.5-1.1,2.5-2.5V111c-3.3,1.3-7.1,2-11,2
		C64.2,112.9,59,111.5,54.7,108.9z M74,117.5c1,1,1,2.6,0,3.5l-2.7,2.7l2.7,2.7c1,1,1,2.6,0,3.5c-0.5,0.5-1.1,0.7-1.8,0.7
		c-0.6,0-1.3-0.2-1.8-0.7l-2.7-2.7L65,130c-0.5,0.5-1.1,0.7-1.8,0.7s-1.3-0.2-1.8-0.7c-1-1-1-2.6,0-3.5l2.7-2.7l-2.7-2.7
		c-1-1-1-2.6,0-3.5c1-1,2.6-1,3.5,0l2.7,2.7l2.7-2.7C71.5,116.5,73.1,116.5,74,117.5z"/>
	<path class="st1" d="M65,117.5c-1-1-2.6-1-3.5,0c-1,1-1,2.6,0,3.5l2.7,2.7l-2.7,2.7c-1,1-1,2.6,0,3.5c0.5,0.5,1.1,0.7,1.8,0.7
		c0.6,0,1.3-0.2,1.8-0.7l2.7-2.7l2.7,2.7c0.5,0.5,1.1,0.7,1.8,0.7s1.3-0.2,1.8-0.7c1-1,1-2.6,0-3.5l-2.7-2.7L74,121c1-1,1-2.6,0-3.5
		c-1-1-2.6-1-3.5,0l-2.7,2.7L65,117.5z"/>
	<path class="st5" d="M133,54.7c-5.5,0-10.6,2.1-14.5,5.9c-3.4,3.4-5.6,7.8-6.1,12.5c-6.2,2.2-10.4,8.1-10.4,14.7v1.8
		c0,6.8,2.7,12.9,7.7,17.1c0.7,0.6,1.4,1.1,2.1,1.6v23.7c0,4.1,3.4,7.5,7.5,7.5h21.1c4.1,0,7.5-3.4,7.5-7.5v-27.3
		c3.7-4.1,5.7-9.4,5.7-15.2V75.4C153.7,64,144.4,54.7,133,54.7z M148.7,89.6c0,10.8-8.6,18.3-20.9,18.3S107,100.4,107,89.6v-1.8
		c0-5,3.5-9.3,8.4-10.4c0,0,0,0,0,0c0.7-0.2,1.5-0.2,2.2-0.2h6.6c2.6,0,4.7,2.1,4.7,4.7c0,2.6-2.1,4.7-4.7,4.7h-9.1
		c-1.4,0-2.5,1.1-2.5,2.5v6.3c0,1.4,1.1,2.5,2.5,2.5c1.4,0,2.5-1.1,2.5-2.5v-3.8h6.6c4.5,0,8.3-3.1,9.4-7.2h7.7
		c1.4,0,2.5-1.1,2.5-2.5c0-1.4-1.1-2.5-2.5-2.5h-7.7c-1.1-4.1-4.9-7.2-9.4-7.2h-6.5c1.5-7.1,7.8-12.6,15.4-12.6
		c8.7,0,15.7,7,15.7,15.7V89.6z M116.9,132.1V111c3.3,1.3,7.1,2,11,2c5.6,0,10.9-1.4,15.1-4v23.2c0,1.4-1.1,2.5-2.5,2.5h-21.1
		C118,134.6,116.9,133.5,116.9,132.1z"/>
	<path class="st5" d="M85.2,73.2c-0.5-4.7-2.6-9.1-6.1-12.5c-3.9-3.8-9-5.9-14.5-5.9C53.3,54.7,44,64,44,75.4v14.3
		c0,5.9,2,11.2,5.7,15.2v27.3c0,4.1,3.4,7.5,7.5,7.5h21.1c4.1,0,7.5-3.4,7.5-7.5v-23.7c0.7-0.5,1.5-1,2.1-1.6
		c5-4.2,7.7-10.3,7.7-17.1v-1.8C95.7,81.2,91.4,75.3,85.2,73.2z M90.7,89.6c0,10.8-8.6,18.3-20.9,18.3c-12.3,0-20.9-7.5-20.9-18.3
		V75.4c0-8.7,7-15.7,15.7-15.7c7.5,0,13.9,5.4,15.4,12.6h-6.5c-4.5,0-8.3,3.1-9.4,7.2h-7.7c-1.4,0-2.5,1.1-2.5,2.5
		c0,1.4,1.1,2.5,2.5,2.5h7.7c1.1,4.1,4.9,7.2,9.4,7.2h6.6v3.8c0,1.4,1.1,2.5,2.5,2.5s2.5-1.1,2.5-2.5v-6.3c0-1.4-1.1-2.5-2.5-2.5
		h-9.1c-2.6,0-4.7-2.1-4.7-4.7c0-2.6,2.1-4.7,4.7-4.7h6.6c0.7,0,1.5,0.1,2.2,0.2c0,0,0,0,0,0c4.8,1.1,8.4,5.4,8.4,10.4L90.7,89.6
		L90.7,89.6z M80.8,132.1c0,1.4-1.1,2.5-2.5,2.5H57.2c-1.4,0-2.5-1.1-2.5-2.5v-23.2c4.3,2.6,9.5,4,15.1,4c3.9,0,7.7-0.7,11-2V132.1z
		"/>
</g>
</svg>
