<?xml version="1.0" encoding="utf-8"?>
<!-- Generator: Adobe Illustrator 22.0.1, SVG Export Plug-In . SVG Version: 6.00 Build 0)  -->
<svg version="1.1" id="Calque_1" xmlns="http://www.w3.org/2000/svg" xmlns:xlink="http://www.w3.org/1999/xlink" x="0px" y="0px"
	 viewBox="0 0 200 200" style="enable-background:new 0 0 200 200;" xml:space="preserve">
<style type="text/css">
	.st0{fill:#FFFFFF;}
	.st1{fill:#D8EBDD;}
	.st2{fill:none;stroke:#010101;stroke-miterlimit:10;}
	.st3{fill:#0A9C49;}
	.st4{fill:#FEDF00;}
	.st5{fill:#253370;}
	.st6{fill:#CCE7D4;}
	.st7{fill:#8EC7EC;}
	.st8{fill:#5FA9DD;}
	.st9{fill:#3B89C3;}
</style>
<g id="XMLID_1_">
	<g>
		<path class="st0" d="M194,18.4v163.1c0,6.6-5.4,12-12,12H18.8c-6.6,0-12-5.4-12-12V18.4c0-6.6,5.4-12,12-12h163.1
			C188.6,6.4,194,11.8,194,18.4z M184.5,171.9V28.1c0-6.6-5.4-12-12-12H28.6c-6.6,0-12,5.4-12,12V172c0,6.6,5.4,12,12,12h143.9
			C179.1,183.9,184.5,178.5,184.5,171.9z"/>
		<path class="st1" d="M184.5,28.1V172c0,6.6-5.4,12-12,12H28.6c-6.6,0-12-5.4-12-12V28.1c0-6.6,5.4-12,12-12h143.9
			C179.1,16.1,184.5,21.5,184.5,28.1z"/>
	</g>
	<g>
		<path class="st2" d="M172.5,183.9H28.6c-6.6,0-12-5.4-12-12V28.1c0-6.6,5.4-12,12-12h143.9c6.6,0,12,5.4,12,12V172
			C184.5,178.5,179.1,183.9,172.5,183.9z"/>
		<path class="st2" d="M182,193.6H18.8c-6.6,0-12-5.4-12-12V18.4c0-6.6,5.4-12,12-12h163.1c6.6,0,12,5.4,12,12v163.1
			C194,188.2,188.6,193.6,182,193.6z"/>
	</g>
</g>
<g transform="matrix(1.25 0 0 -1.25 0 45)">
	<g>
		<g>
			<path class="st3" d="M123.5-64.8c0-5.6-4.5-10.1-10.1-10.1H42.5c-5.6,0-10.1,4.5-10.1,10.1v45.6c0,5.6,4.5,10.1,10.1,10.1h70.9
				c5.6,0,10.1-4.5,10.1-10.1L123.5-64.8L123.5-64.8z"/>
			<path class="st4" d="M115.2-42L77.9-70.2L40.6-42l37.3,28.2L115.2-42z"/>
			<path class="st5" d="M94.2-41.8c0,9-7.3,16.4-16.4,16.4c-9,0-16.4-7.3-16.4-16.4c0-9,7.3-16.4,16.4-16.4
				C86.9-58.2,94.2-50.9,94.2-41.8"/>
			<path class="st6" d="M63.4-34.2c-0.8-1.6-1.4-3.3-1.7-5.1c10.1,0.7,23.9-4.8,29.7-11.6c1,1.5,1.8,3.2,2.2,5.1
				C86.4-38.7,73.7-34.1,63.4-34.2"/>
			<g>
				<path class="st7" d="M65.3-45.2h-2.5v2.5h2.5V-45.2z"/>
				<path class="st7" d="M67.8-50.2h-2.5v2.5h2.5V-50.2z"/>
			</g>
			<g>
				<path class="st8" d="M72.9-45.2h-2.5v2.5h2.5V-45.2z"/>
				<path class="st8" d="M77.9-47.7h-2.5v2.5h2.5V-47.7z"/>
				<path class="st8" d="M88.1-52.8h-2.5v2.5h2.5V-52.8z"/>
				<path class="st8" d="M80.5-55.3h-2.5v2.5h2.5V-55.3L80.5-55.3z"/>
				<path class="st8" d="M88.1-40.1h-2.5v2.5h2.5V-40.1z"/>
			</g>
			<path class="st9" d="M83-50.2h-2.5v2.5H83V-50.2z"/>
		</g>
	</g>
</g>
</svg>
