<?xml version="1.0" encoding="utf-8"?>
<!-- Generator: Adobe Illustrator 22.0.1, SVG Export Plug-In . SVG Version: 6.00 Build 0)  -->
<svg version="1.1" id="Calque_1" xmlns="http://www.w3.org/2000/svg" xmlns:xlink="http://www.w3.org/1999/xlink" x="0px" y="0px"
	 viewBox="0 0 200 200" style="enable-background:new 0 0 200 200;" xml:space="preserve">
<style type="text/css">
	.st0{fill:#F9BCC4;}
	.st1{fill:#FFFFFF;}
	.st2{fill:none;stroke:#000000;stroke-miterlimit:10;}
	.st3{fill:#CE3927;}
	.st4{fill:#85BD94;}
	.st5{fill:#402E21;}
</style>
<g id="XMLID_1_">
	<g>
		<path class="st0" d="M27.7,16.1h143.9c6.6,0,12,5.4,12,12v143.9c0,6.6-5.4,12-12,12H27.7c-6.6,0-12-5.4-12-12V28.1
			C15.7,21.5,21.1,16.1,27.7,16.1z"/>
		<path class="st1" d="M17.9,6.4h163.1c6.6,0,12,5.4,12,12v163.1c0,6.6-5.4,12-12,12H17.9c-6.6,0-12-5.4-12-12V18.4
			C5.9,11.8,11.3,6.4,17.9,6.4z M171.5,183.9c6.6,0,12-5.4,12-12V28.1c0-6.6-5.4-12-12-12H27.7c-6.6,0-12,5.4-12,12v143.9
			c0,6.6,5.4,12,12,12H171.5z"/>
	</g>
	<g>
		<path class="st2" d="M171.5,183.9H27.7c-6.6,0-12-5.4-12-12V28.1c0-6.6,5.4-12,12-12h143.9c6.6,0,12,5.4,12,12v143.9
			C183.5,178.5,178.1,183.9,171.5,183.9z"/>
		<path class="st2" d="M181.1,193.6H17.9c-6.6,0-12-5.4-12-12V18.4c0-6.6,5.4-12,12-12h163.1c6.6,0,12,5.4,12,12v163.1
			C193.1,188.2,187.7,193.6,181.1,193.6z"/>
	</g>
</g>
<polygon class="st3" points="136,157.4 135.9,157.2 135.7,157.4 "/>
<g>
	<path class="st1" d="M116.1,112.5C116.1,112.5,116.1,112.5,116.1,112.5c0-0.2-0.1-0.2-0.2-0.3C115.9,112.3,116,112.4,116.1,112.5z"
		/>
	<path class="st1" d="M138.3,83.5l0,0.1c0,0.8,0.3,1.5,0.9,2c0.6,0.5,1.4,0.7,2.1,0.6c0.6-0.1,1.1-0.1,1.7-0.1
		c1.7,0,3.3,0.5,4.7,1.3c-1.6-2.8-4.7-4.7-8.2-4.7c-0.4,0-0.9,0-1.3,0.1C138.3,83,138.3,83.3,138.3,83.5z"/>
	<path class="st1" d="M128.3,77.1c-0.1,1,0.3,1.9,1.1,2.5c0.8,0.6,1.8,0.6,2.7,0.2c0.6-0.3,1.3-0.5,2-0.5c0.3,0,0.5,0,0.8,0.1
		c-0.4-2-2.1-3.5-4.2-3.5c-0.7,0-1.4,0.2-2,0.5c-0.1,0-0.2,0.1-0.3,0.1C128.3,76.6,128.3,76.9,128.3,77.1z"/>
	<path class="st1" d="M53.1,115c-0.1-0.9-0.6-1.6-1.3-2.1c-0.8-0.4-1.5-0.9-2.1-1.4c0.3,3.2,2.1,5.9,4.7,7.4
		C53.6,117.7,53.2,116.4,53.1,115z"/>
	<path class="st1" d="M104.7,57.7c0.1,0.7,0.6,1.3,1.2,1.7c0.6,0.4,1.4,0.5,2.1,0.3c1.5-0.4,3-0.7,4.5-0.7c3.5,0,6.7,1.1,9.4,3.1
		c-2.9-3.9-7.6-6.5-12.8-6.5c-1.5,0-3,0.2-4.5,0.7c-0.1,0-0.1,0-0.2,0.1C104.5,56.8,104.7,57.2,104.7,57.7z"/>
	<g>
		<path class="st4" d="M44.5,106.5c0.1,0.1,0.2,0.2,0.3,0.3C44.6,106.7,44.6,106.6,44.5,106.5z"/>
		<path class="st4" d="M39.9,98.3c0-0.1-0.1-0.3-0.1-0.4C39.9,98,39.9,98.1,39.9,98.3z"/>
		<path class="st4" d="M39.6,96.1c0-0.1,0-0.2,0-0.3C39.6,95.8,39.6,95.9,39.6,96.1z"/>
		<path class="st4" d="M94.6,47c0.3,0.1,0.7,0.2,1,0.4C95.3,47.2,94.9,47.1,94.6,47z"/>
		<path class="st4" d="M39.7,97.2c0-0.1,0-0.3-0.1-0.4C39.7,96.9,39.7,97.1,39.7,97.2z"/>
		<path class="st4" d="M93.4,46.7c0.4,0.1,0.7,0.1,1.1,0.2C94.2,46.9,93.8,46.8,93.4,46.7z"/>
		<path class="st4" d="M99.5,50.3c-0.5-0.6-1-1.2-1.6-1.7C98.5,49.1,99,49.7,99.5,50.3z"/>
		<path class="st4" d="M99.5,50.4c0.2,0.3,0.5,0.6,0.7,1C100,51,99.8,50.7,99.5,50.4z"/>
		<path class="st4" d="M96.8,47.9c0.3,0.2,0.6,0.4,0.9,0.6C97.4,48.3,97.1,48.1,96.8,47.9z"/>
		<path class="st4" d="M95.8,47.4c0.3,0.1,0.7,0.3,1,0.5C96.5,47.7,96.1,47.6,95.8,47.4z"/>
		<path class="st4" d="M92.1,46.6c0.4,0,0.8,0,1.1,0.1C92.8,46.7,92.4,46.6,92.1,46.6z"/>
		<path class="st4" d="M46.4,108.2C46.4,108.2,46.4,108.2,46.4,108.2C46.4,108.2,46.4,108.2,46.4,108.2z"/>
		<path class="st4" d="M43.3,105.3c-0.1-0.1-0.2-0.2-0.3-0.3C43.1,105,43.2,105.2,43.3,105.3z"/>
		<path class="st4" d="M44,106.1c-0.1-0.1-0.2-0.2-0.3-0.3C43.8,105.9,43.9,106,44,106.1z"/>
		<path class="st4" d="M145.5,103.4c-0.6-0.5-0.9-1.2-0.9-2c0-0.8,0.4-1.5,1-2c2.2-1.8,3.5-4.5,3.5-7.3c0-5.2-4.2-9.4-9.4-9.4
			c-0.5,0-1.1,0-1.7,0.1c-0.8,0.1-1.5-0.1-2.1-0.6c-0.6-0.5-0.9-1.2-0.9-2l0-0.1c0-2.4-1.9-4.3-4.3-4.3c-0.7,0-1.4,0.2-2,0.5
			c-0.9,0.5-1.9,0.4-2.7-0.2c-0.8-0.6-1.2-1.5-1.1-2.5c0.1-0.7,0.2-1.5,0.2-2.2c0-8.8-7.1-15.9-15.9-15.9c-1.5,0-3,0.2-4.5,0.7
			c-0.7,0.2-1.5,0.1-2.1-0.3c-0.6-0.4-1.1-1-1.2-1.7c-0.2-1-0.6-2-1.1-2.9c-1.4-0.8-3-1.3-4.7-1.3c-4.7,0-8.8,3.5-9.3,8.2
			c-0.1,0.8-0.6,1.5-1.3,1.9c-0.7,0.4-1.5,0.5-2.3,0.2c-0.8-0.3-1.6-0.5-2.4-0.5c-3.4,0-6.2,2.8-6.2,6.2c0,0.1,0,0.3,0,0.5
			c0.1,0.7-0.2,1.4-0.7,2c-0.5,0.5-1.2,0.8-1.9,0.8l-0.1,0c-5.9,0-11,4.2-12.3,10c-0.2,1-1,1.8-2.1,2c-8.1,1.4-14,8.4-14,16.7
			c0,3.7,1.2,7.3,3.4,10.1c0.6,0.5,1.3,0.9,1.9,1.2c0.8,0.4,1.3,1.2,1.3,2.1c0.4,4.8,4.5,8.6,9.4,8.6c2.1,0,4.1-0.7,5.8-2
			c-1.5-1.3-3-2.6-4.6-3.8c-1.2-0.8-1.4-2.5-0.6-3.6c0.8-1.2,2.5-1.4,3.6-0.6c13.2,9.7,19.2,22.2,21.8,30.8c1.8,6,2.4,10.4,2.5,14.2
			h17.3c4.3-29.9,22.7-36.4,23.5-36.6c1.3-0.5,2.8,0.1,3.3,1.5c0.5,1.3-0.2,2.8-1.6,3.2c-0.1,0-1.2,0.4-3,1.5
			c1.8,1.2,3.2,1.4,4.5,1.4c4.7,0,8.6-3.9,8.6-8.6c0-1.1-0.2-2.2-0.6-3.2c-0.3-0.8-0.2-1.8,0.3-2.5c0.6-0.7,1.5-1.1,2.4-1
			c0.2,0,0.3,0,0.5,0c2.4,0,4.3-1.9,4.3-4.3C147,105.4,146.5,104.2,145.5,103.4z M92.5,130.5c0,1.2-0.8,2.2-2,2.5
			c-0.2,0-0.4,0.1-0.6,0.1c-1,0-1.9-0.5-2.3-1.4c-10.2-20.2-20.4-25.7-20.5-25.8c-1.3-0.7-1.8-2.2-1.1-3.5c0.7-1.3,2.2-1.8,3.5-1.1
			c0.2,0.1,3.1,1.6,7.2,5.6c2.1-2.4,4.7-4.1,7.8-5.1c0.9-0.3,1.9-0.5,2.6-0.6V89.8c0-1.4,1.3-2.6,2.8-2.6c1.4,0,2.8,1.2,2.8,2.6
			L92.5,130.5L92.5,130.5z M122.3,114.5c-14.7,9.3-19.3,24.2-19.3,24.4c-0.3,1.1-1.3,1.9-2.5,1.9c-0.1,0-0.2,0-0.3,0
			c-1.3-0.2-2.2-1.3-2.2-2.6V98c0-1.4,1.3-2.6,2.8-2.6s2.8,1.2,2.8,2.6v7.1c4.1,0.4,9.8,3.1,12.8,7.3c1.1-0.8,2.1-1.6,3.3-2.4
			c1.2-0.8,2.8-0.4,3.5,0.8C123.9,112.2,123.5,113.8,122.3,114.5z"/>
		<path class="st4" d="M42.7,104.4c-0.1-0.1-0.2-0.2-0.2-0.3C42.5,104.2,42.6,104.3,42.7,104.4z"/>
		<path class="st4" d="M45.5,107.6c-0.1-0.1-0.2-0.2-0.3-0.2C45.4,107.4,45.4,107.5,45.5,107.6z"/>
		<path class="st4" d="M40.9,101.3c0-0.1-0.1-0.2-0.1-0.3C40.8,101.1,40.9,101.2,40.9,101.3z"/>
		<path class="st4" d="M42,103.5c-0.1-0.1-0.1-0.2-0.2-0.3C41.9,103.3,42,103.4,42,103.5z"/>
		<path class="st4" d="M40.5,100.3c0-0.1-0.1-0.3-0.1-0.4C40.4,100.1,40.5,100.2,40.5,100.3z"/>
		<path class="st4" d="M40.2,99.3c0-0.1-0.1-0.3-0.1-0.4C40.1,99,40.2,99.2,40.2,99.3z"/>
		<path class="st4" d="M41.4,102.3C41.4,102.3,41.4,102.3,41.4,102.3C41.4,102.3,41.4,102.3,41.4,102.3z"/>
	</g>
	<path class="st5" d="M89.9,87.2c-1.4,0-2.6,1.2-2.6,2.6v11.4c-0.9,0.1-1.9,0.3-2.8,0.6c-3.1,1-5.8,2.7-7.9,5.1
		c-4.1-4-6.9-5.5-7.2-5.6c-1.3-0.6-2.8-0.1-3.5,1.1c-0.7,1.3-0.2,2.8,1.1,3.5c0.1,0.1,10.3,5.5,20.5,25.8c0.4,0.9,1.4,1.4,2.3,1.4
		c0.2,0,0.4,0,0.6-0.1c1.2-0.3,2-1.3,2-2.5V89.8C92.5,88.4,91.3,87.2,89.9,87.2z M86.1,106.8c0.4-0.1,0.8-0.2,1.2-0.3v14.1
		c-2.5-4-4.9-7.3-7.2-9.9C81.7,108.9,83.8,107.5,86.1,106.8z"/>
	<path class="st5" d="M119.5,110.1c-1.2,0.8-2.3,1.5-3.4,2.4c-3.1-4.2-7.8-6.9-13-7.3V98c0-1.4-1.2-2.6-2.6-2.6
		c-1.4,0-2.6,1.2-2.6,2.6v40.1c0,1.3,0.9,2.4,2.2,2.6c0.1,0,0.2,0,0.4,0c1.1,0,2.2-0.7,2.5-1.9c0-0.2,4.6-15.1,19.3-24.4
		c1.2-0.8,1.6-2.4,0.8-3.6C122.3,109.7,120.7,109.4,119.5,110.1z M103.1,126.7v-16.4c3.7,0.4,6.9,2.4,9,5.4
		C108.1,119.5,105.2,123.3,103.1,126.7z"/>
	<path class="st5" d="M154.2,92.1c0-8-6.5-14.5-14.5-14.6c-1.1-4-4.8-6.9-9.1-6.9c-0.2,0-0.3,0-0.5,0c-0.5-11.2-9.7-20.2-21.1-20.2
		c-1.2,0-2.3,0.1-3.4,0.3c-2.2-5.5-7.5-9.2-13.6-9.2c-6.3,0-11.9,4.1-13.8,9.9c-0.5-0.1-1-0.1-1.5-0.1c-5.7,0-10.4,4.2-11.3,9.7
		C58.7,61.9,53,66.7,51,73.2c-9.7,2.5-16.6,11.2-16.6,21.4c0,7.6,3.9,14.6,10.3,18.7c1.2,6.8,7.3,12,14.4,12c3.5,0,6.8-1.3,9.5-3.5
		c5.3,5.8,9.1,12.6,11.5,20.3c2.6,8.5,2.4,15.1,2.4,15.1c0,0.7,0.2,1.4,0.7,1.9c0.5,0.5,1.2,0.8,1.9,0.8h22.1c1.3,0,2.4-1,2.6-2.3
		c1.4-11.6,5.3-21.2,11.4-27.8c0.6-0.6,1.1-1.2,1.7-1.7c2.7,2.2,5.5,3.3,8.7,3.3c7.6,0,13.8-6.2,13.8-13.8c0-0.6,0-1.2-0.1-1.9
		c4-1.1,7-4.8,7-9.1c0-1.8-0.5-3.6-1.5-5.1C152.9,98.9,154.2,95.6,154.2,92.1z M145.5,103.4c1,0.8,1.5,2,1.5,3.3
		c0,2.4-1.9,4.3-4.3,4.3c-0.2,0-0.3,0-0.5,0c-0.9-0.1-1.8,0.3-2.4,1c-0.6,0.7-0.7,1.7-0.3,2.5c0.4,1,0.6,2.1,0.6,3.2
		c0,4.7-3.8,8.6-8.6,8.6c-1.3,0-2.7-0.2-4.5-1.4c1.8-1.1,2.9-1.6,3-1.6c1.3-0.5,2-1.9,1.6-3.3c-0.5-1.3-1.9-2.1-3.3-1.6
		c-0.8,0.3-19.2,7-23.5,36.4H87.5c-0.1-2.9-0.7-8-2.5-14c-2.6-8.6-8.6-20.9-21.8-30.6c-1.2-0.8-2.8-0.6-3.6,0.6
		c-0.8,1.2-0.6,2.8,0.6,3.6c1.6,1.2,3.2,2.4,4.6,3.8c-1.6,1.3-3.7,2-5.8,2c-4.9,0-9-3.8-9.4-8.6c-0.1-0.9-0.6-1.6-1.3-2.1
		c-5.4-3-8.8-8.7-8.8-14.8c0-8.2,5.9-15.3,14-16.7c1-0.2,1.9-1,2.1-2c1.2-5.8,6.4-9.9,12.3-10l0.1,0c0.7,0,1.4-0.3,1.9-0.8
		c0.5-0.5,0.8-1.2,0.7-2c0-0.2,0-0.4,0-0.5c0-3.4,2.8-6.2,6.2-6.2c0.8,0,1.6,0.2,2.4,0.5c0.7,0.3,1.6,0.3,2.3-0.2
		c0.7-0.4,1.2-1.1,1.3-1.9c0.6-4.7,4.6-8.2,9.3-8.2c4.5,0,8.4,3.2,9.2,7.6c0.1,0.7,0.6,1.3,1.2,1.7c0.6,0.4,1.4,0.5,2.1,0.3
		c1.5-0.4,3-0.7,4.5-0.7c8.8,0,15.9,7.1,15.9,15.9c0,0.7-0.1,1.4-0.2,2.2c-0.1,1,0.3,1.9,1.1,2.5c0.8,0.6,1.8,0.6,2.7,0.2
		c0.6-0.3,1.3-0.5,2-0.5c2.4,0,4.3,1.9,4.3,4.3l0,0.1c0,0.8,0.3,1.5,0.9,2c0.6,0.5,1.4,0.7,2.1,0.6c0.6-0.1,1.1-0.1,1.7-0.1
		c5.2,0,9.4,4.2,9.4,9.4c0,2.8-1.3,5.5-3.5,7.3c-0.6,0.5-1,1.2-1,2C144.5,102.2,144.9,102.9,145.5,103.4z"/>
</g>
</svg>
