<?xml version="1.0" encoding="utf-8"?>
<!-- Generator: Adobe Illustrator 22.0.1, SVG Export Plug-In . SVG Version: 6.00 Build 0)  -->
<svg version="1.1" id="Calque_1" xmlns="http://www.w3.org/2000/svg" xmlns:xlink="http://www.w3.org/1999/xlink" x="0px" y="0px"
	 viewBox="0 0 200 200" style="enable-background:new 0 0 200 200;" xml:space="preserve">
<style type="text/css">
	.st0{fill:#FFFFFF;}
	.st1{fill:#D8EBDD;}
	.st2{fill:none;stroke:#010101;stroke-miterlimit:10;}
	.st3{fill:#D42E27;}
	.st4{fill:#EEEDEE;}
</style>
<g id="XMLID_1_">
	<g>
		<path class="st0" d="M194,18.4v163.1c0,6.6-5.4,12-12,12H18.8c-6.6,0-12-5.4-12-12V18.4c0-6.6,5.4-12,12-12h163.1
			C188.6,6.4,194,11.8,194,18.4z M184.5,171.9V28.1c0-6.6-5.4-12-12-12H28.6c-6.6,0-12,5.4-12,12V172c0,6.6,5.4,12,12,12h143.9
			C179.1,183.9,184.5,178.5,184.5,171.9z"/>
		<path class="st1" d="M184.5,28.1V172c0,6.6-5.4,12-12,12H28.6c-6.6,0-12-5.4-12-12V28.1c0-6.6,5.4-12,12-12h143.9
			C179.1,16.1,184.5,21.5,184.5,28.1z"/>
	</g>
	<g>
		<path class="st2" d="M172.5,183.9H28.6c-6.6,0-12-5.4-12-12V28.1c0-6.6,5.4-12,12-12h143.9c6.6,0,12,5.4,12,12V172
			C184.5,178.5,179.1,183.9,172.5,183.9z"/>
		<path class="st2" d="M182,193.6H18.8c-6.6,0-12-5.4-12-12V18.4c0-6.6,5.4-12,12-12h163.1c6.6,0,12,5.4,12,12v163.1
			C194,188.2,188.6,193.6,182,193.6z"/>
	</g>
</g>
<g transform="matrix(1.25 0 0 -1.25 0 45)">
	<g>
		<g>
			<g>
				<path class="st3" d="M46.3-10.4c-5.4,0-9.8-4.4-9.8-9.8V-64c0-5.4,4.4-9.8,9.8-9.8h14.6v63.4C60.9-10.4,46.3-10.4,46.3-10.4z"/>
				<path class="st3" d="M114.6-10.4H99.9v-63.4h14.6c5.4,0,9.8,4.4,9.8,9.8v43.9C124.3-14.7,119.9-10.4,114.6-10.4"/>
			</g>
			<path class="st4" d="M60.9-73.8h39v63.4h-39V-73.8z"/>
			<path class="st3" d="M81.9-52.1c2.9-0.3,5.5-0.6,8.5-1l-0.7,2.4c-0.1,0.4,0.1,0.9,0.4,1.2l8.5,6.9l-1.8,0.8
				C96-41.5,96.2-41,96.5-40l1.3,4.7l-4.9-1c-0.5-0.1-0.8,0.2-0.9,0.5l-0.6,2.2l-3.9-4.4c-0.6-0.7-1.7-0.7-1.3,0.9l1.7,8.9l-2.2-1.2
				c-0.6-0.4-1.3-0.4-1.6,0.2l-3.1,5.8l0-0.1v0.1l-3.1-5.8c-0.4-0.6-1-0.6-1.6-0.2l-2.2,1.2l1.7-8.9c0.4-1.6-0.8-1.6-1.3-0.9
				l-3.9,4.4l-0.6-2.2c-0.1-0.3-0.4-0.6-0.9-0.5l-4.9,1l1.3-4.7c0.3-1,0.5-1.5-0.3-1.8l-1.8-0.8l8.5-6.9c0.3-0.3,0.5-0.7,0.4-1.2
				l-0.7-2.4c2.9,0.3,5.5,0.6,8.5,1c0.3,0,0.4-0.1,0.4-0.4l-0.5-9H82l-0.5,9C81.5-52.2,81.7-52.1,81.9-52.1"/>
		</g>
	</g>
</g>
</svg>
