<svg id="Calque_1" data-name="Calque 1" xmlns="http://www.w3.org/2000/svg" viewBox="0 0 188.14 188.14"><defs><style>.cls-1{fill:#fff;}.cls-2{fill:#f9bcc4;}.cls-3{fill:none;stroke:#231f20;stroke-miterlimit:10;}.cls-4{fill:#a7d16a;}.cls-5{fill:#53bb73;}.cls-6{fill:#f79058;}.cls-7{fill:#010101;}</style></defs><title>carotte</title><path class="cls-1" d="M187.64,12.5V175.64a12,12,0,0,1-12,12H12.5a12,12,0,0,1-12-12V12.5a12,12,0,0,1,12-12H175.64A12,12,0,0,1,187.64,12.5ZM178.13,166V22.14a12,12,0,0,0-12-12H22.27a12,12,0,0,0-12,12V166a12,12,0,0,0,12,12H166.13a12,12,0,0,0,12-12Z"/><rect class="cls-2" x="10.27" y="10.14" width="167.86" height="167.86" rx="12" ry="12"/><rect class="cls-3" x="10.27" y="10.14" width="167.86" height="167.86" rx="12" ry="12"/><rect class="cls-3" x="0.5" y="0.5" width="187.14" height="187.14" rx="12" ry="12"/><path class="cls-4" d="M117.67,68.47,140.35,45.8a9.85,9.85,0,0,1,9.87-2.45L155,44.82a2.8,2.8,0,0,1,1.15,4.64L127.07,78.58Z"/><path class="cls-5" d="M107.42,59.67l26.52-26.52,2.91,11a7.27,7.27,0,0,1-1.88,7l-17.3,17.32Z"/><polygon class="cls-5" points="131.84 88.4 156.15 64.08 145.28 60.35 127.05 78.58 131.84 88.4"/><polygon class="cls-4" points="98.64 55.2 113.16 40.69 117.23 49.86 107.74 59.35 98.64 55.2"/><path class="cls-6" d="M31.22,155h0a114.64,114.64,0,0,0,48.14-15.57l40.15-23.78a24.84,24.84,0,0,0,12.15-20h0a24.84,24.84,0,0,0-7.24-19L117,69.17l-7.47-7.47a24.84,24.84,0,0,0-19-7.24h0a24.84,24.84,0,0,0-20,12.15L46.72,106.79a114.82,114.82,0,0,0-15.56,48.14h0"/><path class="cls-7" d="M58,90.3a2.56,2.56,0,0,0,2.55-2.57,2.56,2.56,0,0,0-4.36-1.8h0A2.56,2.56,0,0,0,58,90.3Z"/><path class="cls-7" d="M80.56,114a2.57,2.57,0,1,0-1.81-.76h0A2.54,2.54,0,0,0,80.56,114Z"/><path class="cls-7" d="M157,61.66l-7-2.4,8-8a5.33,5.33,0,0,0,0-7.55,5.39,5.39,0,0,0-2.22-1.34L151,40.89a12.41,12.41,0,0,0-11.7,2.42l-2.85-10.82a2.56,2.56,0,0,0-3.12-1.83,2.59,2.59,0,0,0-1.17.67L118.07,45.42l-2.56-5.77a2.54,2.54,0,0,0-3.36-1.3,2.45,2.45,0,0,0-.78.53L97.71,52.52A27.38,27.38,0,0,0,68.3,65.34L61.24,77.26a2.56,2.56,0,0,0,4.4,2.6l5.43-9.12L82.61,82.29a2.55,2.55,0,0,0,3.61-3.61L73.81,66.26a22.32,22.32,0,0,1,33.86-2.72l14.94,14.94A22.29,22.29,0,0,1,129.13,95l-6.76-6.75a2.56,2.56,0,0,0-3.61,3.62l9.29,9.29a22.3,22.3,0,0,1-9.85,12.28l-20.13,11.9-9.25-9.27a2.56,2.56,0,1,0-3.67,3.57s0,0,0,0l8.37,8.38-15.5,9.15A112.24,112.24,0,0,1,53.54,148a2.85,2.85,0,0,0-.31-.38l-4-4a2.56,2.56,0,1,0-3.67,3.57l0,.05,2.32,2.31a114.21,114.21,0,0,1-13.86,2.57A113.18,113.18,0,0,1,44,117.49l10.79,10.79a2.56,2.56,0,0,0,3.62-3.62l-12-12c.82-1.54,1.67-3.07,2.56-4.57l5.23-8.83a2.56,2.56,0,0,0-4.4-2.61l-5.23,8.83a118.27,118.27,0,0,0-15.91,49.21A2.62,2.62,0,0,0,31,157.54h.53a118.11,118.11,0,0,0,49.17-15.92l17.79-10.55a2.61,2.61,0,0,0,1.12-.66h0l21.21-12.57a27.35,27.35,0,0,0,13.1-27.9l24-24a2.58,2.58,0,0,0,.68-2.39A2.53,2.53,0,0,0,157,61.66ZM112.33,45.13l1.85,4.17-7.11,7.15a28.72,28.72,0,0,0-3.88-2.14Zm-1.26,14.54,21.53-21.6,1.78,6.74a4.71,4.71,0,0,1-1.22,4.53L117,65.58l-5.66-5.66Zm9.54,9.53,5.58-5.58h0L136.82,53h0l5.38-5.38a7.27,7.27,0,0,1,7.31-1.82l4.79,1.48a.22.22,0,0,1,.16.16.21.21,0,0,1-.06.22L126.68,75.33l-.45-.47Zm11.79,15a28,28,0,0,0-2.49-4.88L146,63.29l5.5,1.88Z"/></svg>