<?xml version="1.0" encoding="utf-8"?>
<!-- Generator: Adobe Illustrator 22.0.1, SVG Export Plug-In . SVG Version: 6.00 Build 0)  -->
<svg version="1.1" id="Calque_1" xmlns="http://www.w3.org/2000/svg" xmlns:xlink="http://www.w3.org/1999/xlink" x="0px" y="0px"
	 viewBox="0 0 200 200" style="enable-background:new 0 0 200 200;" xml:space="preserve">
<style type="text/css">
	.st0{fill:#FFFFFF;}
	.st1{fill:#FBEDB6;}
	.st2{fill:none;stroke:#010101;stroke-miterlimit:10;}
	.st3{fill:#F79041;}
	.st4{fill:#D7752E;}
	.st5{fill:#FAAA52;}
	.st6{fill:#F9EBC8;}
	.st7{fill:#563833;}
</style>
<g id="XMLID_1_">
	<g>
		<path class="st0" d="M184.1,171.6V27.7c0-6.6-5.4-12-12-12H28.2c-6.6,0-12,5.4-12,12v143.9c0,6.6,5.4,12,12,12h143.9
			C178.7,183.6,184.1,178.2,184.1,171.6z M193.6,18.1v163.1c0,6.6-5.4,12-12,12H18.4c-6.6,0-12-5.4-12-12V18.1c0-6.6,5.4-12,12-12
			h163.1C188.2,6.1,193.6,11.5,193.6,18.1z"/>
		<path class="st1" d="M184.1,27.7v143.9c0,6.6-5.4,12-12,12H28.2c-6.6,0-12-5.4-12-12V27.7c0-6.6,5.4-12,12-12h143.9
			C178.7,15.7,184.1,21.1,184.1,27.7z"/>
	</g>
	<g>
		<path class="st2" d="M172.1,183.6H28.2c-6.6,0-12-5.4-12-12V27.7c0-6.6,5.4-12,12-12h143.9c6.6,0,12,5.4,12,12v143.9
			C184.1,178.2,178.7,183.6,172.1,183.6z"/>
		<path class="st2" d="M181.6,193.2H18.4c-6.6,0-12-5.4-12-12V18.1c0-6.6,5.4-12,12-12h163.1c6.6,0,12,5.4,12,12v163.1
			C193.6,187.8,188.2,193.2,181.6,193.2z"/>
	</g>
</g>
<path class="st3" d="M116.7,106.5l-38.4,0l-7.5,54.2c-0.4,2.7,1.8,5.2,4.5,5.2h44.4c2.8,0,4.9-2.5,4.5-5.2L116.7,106.5z"/>
<path class="st4" d="M77.1,115.1c6.1,3.3,13,5.1,20.4,5.1s14.3-1.9,20.4-5.1l-1.2-8.6l-38.4,0L77.1,115.1z"/>
<path class="st3" d="M113.5,49.4l15-15c2-2,5.5-0.6,5.5,2.3v40.2C134.1,63.8,123.7,55.8,113.5,49.4z"/>
<path class="st5" d="M134.1,76.8c0,20.2-16.4,36.6-36.6,36.6S60.9,97,60.9,76.8s16.4-34.3,36.6-34.3S134.1,56.6,134.1,76.8z"/>
<path class="st3" d="M81.5,76.8c0-17.6,10.1-30.6,23.6-33.6c-2.4-0.4-5-0.7-7.6-0.7c-6.7,0-13,1.6-18.4,4.4L66.5,34.3
	c-2-2-5.5-0.6-5.5,2.3v40.2c0-0.8,0-0.8,0,0c0,20.2,16.4,36.6,36.6,36.6c2.6,0,5.1-0.3,7.6-0.8C91.6,109.1,81.5,94.4,81.5,76.8z"/>
<g>
	<ellipse class="st6" cx="89.5" cy="92.8" rx="8" ry="6.9"/>
	<ellipse class="st6" cx="105.5" cy="92.8" rx="8" ry="6.9"/>
</g>
<circle class="st3" cx="97.5" cy="88.2" r="4.6"/>
<path class="st4" d="M113.5,140.6c-0.1-1.3-1.2-2.2-2.5-2.1c-1.3,0.1-2.2,1.2-2.1,2.5l0.4,5.2c0.6,6.9-4.9,12.9-11.9,12.9l0,0
	c-7,0-12.4-6-11.9-12.9L86,141c0.1-1.3-0.8-2.4-2.1-2.5c-1.3-0.1-2.4,0.8-2.5,2.1l-2.1,25.3h36.2L113.5,140.6z"/>
<g>
	<path class="st7" d="M83.8,79.1c-1.3,0-2.3-1-2.3-2.3v-2.3c0-1.3,1-2.3,2.3-2.3c1.3,0,2.3,1,2.3,2.3v2.3
		C86.1,78.1,85,79.1,83.8,79.1z"/>
	<path class="st7" d="M111.2,79.1c-1.3,0-2.3-1-2.3-2.3v-2.3c0-1.3,1-2.3,2.3-2.3c1.3,0,2.3,1,2.3,2.3v2.3
		C113.5,78.1,112.5,79.1,111.2,79.1z"/>
</g>
</svg>
