<?xml version="1.0" encoding="utf-8"?>
<!-- Generator: Adobe Illustrator 22.0.1, SVG Export Plug-In . SVG Version: 6.00 Build 0)  -->
<svg version="1.1" id="Calque_1" xmlns="http://www.w3.org/2000/svg" xmlns:xlink="http://www.w3.org/1999/xlink" x="0px" y="0px"
	 viewBox="0 0 200 200" style="enable-background:new 0 0 200 200;" xml:space="preserve">
<style type="text/css">
	.st0{fill:#FFFFFF;}
	.st1{fill:#FBEDB6;}
	.st2{fill:none;stroke:#010101;stroke-miterlimit:10;}
	.st3{fill:#9F8976;}
	.st4{fill:#FFEBD3;}
	.st5{fill:#464755;}
	.st6{fill:#887465;}
	.st7{fill:#CFBBA5;}
</style>
<g id="XMLID_1_">
	<g>
		<path class="st0" d="M184.1,171.6V27.7c0-6.6-5.4-12-12-12H28.2c-6.6,0-12,5.4-12,12v143.9c0,6.6,5.4,12,12,12h143.9
			C178.7,183.6,184.1,178.2,184.1,171.6z M193.6,18.1v163.1c0,6.6-5.4,12-12,12H18.4c-6.6,0-12-5.4-12-12V18.1c0-6.6,5.4-12,12-12
			h163.1C188.2,6.1,193.6,11.5,193.6,18.1z"/>
		<path class="st1" d="M184.1,27.7v143.9c0,6.6-5.4,12-12,12H28.2c-6.6,0-12-5.4-12-12V27.7c0-6.6,5.4-12,12-12h143.9
			C178.7,15.7,184.1,21.1,184.1,27.7z"/>
	</g>
	<g>
		<path class="st2" d="M172.1,183.6H28.2c-6.6,0-12-5.4-12-12V27.7c0-6.6,5.4-12,12-12h143.9c6.6,0,12,5.4,12,12v143.9
			C184.1,178.2,178.7,183.6,172.1,183.6z"/>
		<path class="st2" d="M181.6,193.2H18.4c-6.6,0-12-5.4-12-12V18.1c0-6.6,5.4-12,12-12h163.1c6.6,0,12,5.4,12,12v163.1
			C193.6,187.8,188.2,193.2,181.6,193.2z"/>
	</g>
</g>
<path class="st3" d="M98.9,64.5c15.1,0,23.3,8.4,26.6,15.4c1.9,4.1,3.5,8.6,3.5,13.5c0,10-3.8,36.6-3.8,36.6
	c-1.9,11.9-5.6,18.2-15.1,19.2H98.9H87.6c-9.5-1-13.2-7.3-15.1-19.2c0,0-3.8-26.6-3.8-36.6c0-4.9,1.6-9.4,3.5-13.5
	C75.6,72.9,83.9,64.5,98.9,64.5z"/>
<path class="st4" d="M85.7,140.7c0,10.8,5.9,14.4,13.2,14.4s13.2-3.5,13.2-14.4H85.7z"/>
<path class="st0" d="M115.9,134.5c0,8.4-7.6,11.1-17,11.1s-17-2.7-17-11.1s7.6-17.2,17-17.2S115.9,126.1,115.9,134.5z"/>
<g>
	<circle class="st5" cx="78.2" cy="98.5" r="3.8"/>
	<circle class="st5" cx="119.7" cy="98.5" r="3.8"/>
	<path class="st5" d="M108.3,134.9c0-0.1,0.1-0.2,0.1-0.3c0-0.2,0-0.4,0-0.5c0-0.1,0-0.1,0-0.2c0-0.1-0.1-0.2-0.2-0.3
		c-0.1-0.1-0.1-0.2-0.2-0.3c0,0,0,0,0,0v0c-0.6-0.8-1.7-0.9-2.5-0.4c-0.1,0-0.1,0-0.2,0.1l-0.4,0.3c-0.1,0.1-0.2,0.1-0.3,0.2
		c-3.3,2.5-8,2.5-11.3,0l-0.8-0.6c-0.4-0.3-0.9-0.4-1.4-0.4c0,0,0,0,0,0c-0.1,0-0.2,0.1-0.3,0.1c-0.4,0.1-0.7,0.3-1,0.6
		c-0.6,0.8-0.5,2,0.4,2.6l0.8,0.6c0,0,0,0,0,0l6.8,5.1c0.3,0.3,0.7,0.4,1.1,0.4c0.4,0,0.7-0.1,1-0.3c0.4-0.3,4.8-3.5,6.9-5.2
		c0,0,0,0,0,0l0.7-0.5l0,0l0,0c0,0,0-0.1,0.1-0.1c0.2-0.1,0.3-0.3,0.4-0.5C108.2,135.1,108.2,135,108.3,134.9z"/>
</g>
<g>
	<path class="st6" d="M61.2,115.4C54.9,120.3,53,95,72.4,72.7c0,0-13.7-5.1-17.1-2.5c-9.9,7.4-6.9,48.7-6.9,48.7l7.9,2.8L61.2,115.4
		z"/>
	<path class="st6" d="M76.3,81.5c17-1.9,18.9-15.1,18.9-15.1c-1.9-9.4-32.1-37-48.3-3.8c0,0,18.5,0.5,18.9,0.9
		C66.3,64.1,76.3,81.5,76.3,81.5"/>
</g>
<path class="st3" d="M61.2,115.4c-3.8,18.9-20.7,11.3-20.7-28.3c0-16.8,9.4-35.8,17-35.8c15.1,0,18.9,30.2,18.9,30.2
	s-25.2-26.9-25.2,22.2C51.1,128.2,61.2,115.4,61.2,115.4z"/>
<g>
	<path class="st6" d="M136.7,115.4c6.4,4.8,8.2-20.5-11.2-42.7c0,0,13.7-5.1,17.1-2.5c9.9,7.4,6.9,48.7,6.9,48.7l-7.9,2.8
		L136.7,115.4z"/>
	<path class="st6" d="M121.6,81.5c-17-1.9-18.9-15.1-18.9-15.1c1.9-9.4,32.1-37,48.3-3.8c0,0-18.5,0.5-18.9,0.9
		C131.6,64.1,121.6,81.5,121.6,81.5"/>
</g>
<g>
	<path class="st3" d="M136.7,115.4c3.8,18.9,20.7,11.3,20.7-28.3c0-16.8-9.4-35.8-17-35.8c-15.1,0-18.9,30.2-18.9,30.2
		s25.2-26.9,25.2,22.2C146.8,128.2,136.7,115.4,136.7,115.4z"/>
	<path class="st3" d="M78.1,87.9c0,0-8.3-9.9-23.3-8.1c-1.9,0.2-3.3,2.1-2.9,4c0.8,4.6,4.3,12.2,18.7,13.5L78.1,87.9z"/>
</g>
<path class="st7" d="M59.2,79.6c-1.4,0-2.9,0-4.5,0.2c-1.9,0.2-3.3,2.1-2.9,4c0.8,4.6,4.3,12.2,18.7,13.5
	C70.5,97.4,72.1,84.7,59.2,79.6z"/>
<path class="st3" d="M119.8,87.9c0,0,8.3-9.9,23.3-8.1c1.9,0.2,3.3,2.1,2.9,4c-0.8,4.6-4.3,12.2-18.7,13.5L119.8,87.9z"/>
<path class="st7" d="M138.6,79.6c1.4,0,2.9,0,4.5,0.2c1.9,0.2,3.3,2.1,2.9,4c-0.8,4.6-4.3,12.2-18.7,13.5
	C127.4,97.4,125.8,84.7,138.6,79.6z"/>
</svg>
