<?xml version="1.0" encoding="utf-8"?>
<!-- Generator: Adobe Illustrator 22.0.1, SVG Export Plug-In . SVG Version: 6.00 Build 0)  -->
<svg version="1.1" id="Calque_1" xmlns="http://www.w3.org/2000/svg" xmlns:xlink="http://www.w3.org/1999/xlink" x="0px" y="0px"
	 viewBox="0 0 200 200" style="enable-background:new 0 0 200 200;" xml:space="preserve">
<style type="text/css">
	.st0{fill:#FFFFFF;}
	.st1{fill:#FBEDB6;}
	.st2{fill:none;stroke:#010101;stroke-miterlimit:10;}
	.st3{fill:#976A60;}
	.st4{fill:#CD916E;}
	.st5{fill:#E2A178;}
	.st6{fill:#6E585B;}
	.st7{fill:#464755;}
</style>
<g id="XMLID_1_">
	<g>
		<path class="st0" d="M184.1,171.6V27.7c0-6.6-5.4-12-12-12H28.2c-6.6,0-12,5.4-12,12v143.9c0,6.6,5.4,12,12,12h143.9
			C178.7,183.6,184.1,178.2,184.1,171.6z M193.6,18.1v163.1c0,6.6-5.4,12-12,12H18.4c-6.6,0-12-5.4-12-12V18.1c0-6.6,5.4-12,12-12
			h163.1C188.2,6.1,193.6,11.5,193.6,18.1z"/>
		<path class="st1" d="M184.1,27.7v143.9c0,6.6-5.4,12-12,12H28.2c-6.6,0-12-5.4-12-12V27.7c0-6.6,5.4-12,12-12h143.9
			C178.7,15.7,184.1,21.1,184.1,27.7z"/>
	</g>
	<g>
		<path class="st2" d="M172.1,183.6H28.2c-6.6,0-12-5.4-12-12V27.7c0-6.6,5.4-12,12-12h143.9c6.6,0,12,5.4,12,12v143.9
			C184.1,178.2,178.7,183.6,172.1,183.6z"/>
		<path class="st2" d="M181.6,193.2H18.4c-6.6,0-12-5.4-12-12V18.1c0-6.6,5.4-12,12-12h163.1c6.6,0,12,5.4,12,12v163.1
			C193.6,187.8,188.2,193.2,181.6,193.2z"/>
	</g>
</g>
<g>
	<path class="st3" d="M83.4,54.9c-6.6-13.1-8.7-24-13.1-24c-2.2,0-8.7,6.6-8.7,15.3c0,4.4,2.2,21.8,6.6,28.4L83.4,54.9z"/>
	<path class="st3" d="M105.2,54.9c6.6-13.1,8.7-24,13.1-24c2.2,0,8.7,6.6,8.7,15.3c0,4.4-2.2,21.8-6.6,28.4L105.2,54.9z"/>
</g>
<path class="st4" d="M122.5,74.5c-2.2-10.9-15.2-26.2-28.2-26.2c-13.1,0-26.2,15.3-28.4,26.2c-1.2,6.1,9.1,47.2,13.1,63.4
	c2.2,8.7,2.2,15.3,2.2,15.3h26.1c0,0,0-6.6,2.2-15.3C113.5,121.7,123.7,80.6,122.5,74.5z"/>
<path class="st5" d="M94.3,102.9L94.3,102.9c-4.8,0-8.7,3.9-8.7,8.7v37.1H103v-37.1C103,106.8,99.1,102.9,94.3,102.9z"/>
<path class="st3" d="M106.4,144.8c-0.7-3.5-5.1-5.1-7.7-2.6c0,0,0,0-0.1,0.1c-2.2,2.2-4.4,2.2-4.4,2.2s-2.2,0-4.4-2.2
	c0,0,0,0-0.1-0.1c-2.6-2.5-7-0.9-7.7,2.6c-0.5,2.4-1,5.4-1,8.4c0,6.6,2.2,15.3,13.1,15.3s13.1-8.7,13.1-15.3
	C107.4,150.2,106.9,147.2,106.4,144.8z"/>
<g>
	<path class="st6" d="M89.9,157.6c-0.3,0-0.7-0.1-1-0.2c-5.4-2.7-5.6-9.9-5.6-10.7c0-1.2,1-2.2,2.2-2.2s2.2,1,2.2,2.2
		c0,0.1,0,5.2,3.2,6.8c1.1,0.5,1.5,1.9,1,2.9C91.5,157.1,90.7,157.6,89.9,157.6z"/>
	<path class="st6" d="M98.7,157.6c0.3,0,0.7-0.1,1-0.2c5.4-2.7,5.6-9.9,5.6-10.7c0-1.2-1-2.2-2.2-2.2s-2.2,1-2.2,2.2
		c0,0.1,0,5.2-3.2,6.8c-1.1,0.5-1.5,1.9-1,2.9C97.1,157.1,97.8,157.6,98.7,157.6z"/>
</g>
<g>
	<circle class="st7" cx="113.9" cy="85.4" r="4.4"/>
	<circle class="st7" cx="74.6" cy="85.4" r="4.4"/>
</g>
<path class="st6" d="M94.3,164.1c-5.3,0-9.1-1.2-11.8-3c1.6,4.1,5,7.4,11.8,7.4s10.1-3.3,11.8-7.4
	C103.4,162.9,99.6,164.1,94.3,164.1z"/>
<path class="st3" d="M72,67.8c0,0,7-0.7,16.4-11.6l-1.8,6.3c0,0,13.7-1.1,18.7-6.3l-0.8,4c6.6-1.1,8.6-3.1,8.6-3.1
	s-5.2-9.3-18.7-11.1l-0.1,2.3c0,0-4.6-3.1-11.9-2.6l1,2.6l-6.6,2.2L72,67.8z"/>
</svg>
