<?xml version="1.0" encoding="utf-8"?>
<!-- Generator: Adobe Illustrator 22.0.1, SVG Export Plug-In . SVG Version: 6.00 Build 0)  -->
<svg version="1.1" id="Calque_1" xmlns="http://www.w3.org/2000/svg" xmlns:xlink="http://www.w3.org/1999/xlink" x="0px" y="0px"
	 viewBox="0 0 200 200" style="enable-background:new 0 0 200 200;" xml:space="preserve">
<style type="text/css">
	.st0{fill:#FFFFFF;}
	.st1{fill:#FBEDB6;}
	.st2{fill:none;stroke:#010101;stroke-miterlimit:10;}
	.st3{fill:#AA968C;}
	.st4{fill:#464755;}
	.st5{fill:#D2BEAF;}
	.st6{fill:#8D7973;}
</style>
<g id="XMLID_1_">
	<g>
		<path class="st0" d="M184.1,171.6V27.7c0-6.6-5.4-12-12-12H28.2c-6.6,0-12,5.4-12,12v143.9c0,6.6,5.4,12,12,12h143.9
			C178.7,183.6,184.1,178.2,184.1,171.6z M193.6,18.1v163.1c0,6.6-5.4,12-12,12H18.4c-6.6,0-12-5.4-12-12V18.1c0-6.6,5.4-12,12-12
			h163.1C188.2,6.1,193.6,11.5,193.6,18.1z"/>
		<path class="st1" d="M184.1,27.7v143.9c0,6.6-5.4,12-12,12H28.2c-6.6,0-12-5.4-12-12V27.7c0-6.6,5.4-12,12-12h143.9
			C178.7,15.7,184.1,21.1,184.1,27.7z"/>
	</g>
	<g>
		<path class="st2" d="M172.1,183.6H28.2c-6.6,0-12-5.4-12-12V27.7c0-6.6,5.4-12,12-12h143.9c6.6,0,12,5.4,12,12v143.9
			C184.1,178.2,178.7,183.6,172.1,183.6z"/>
		<path class="st2" d="M181.6,193.2H18.4c-6.6,0-12-5.4-12-12V18.1c0-6.6,5.4-12,12-12h163.1c6.6,0,12,5.4,12,12v163.1
			C193.6,187.8,188.2,193.2,181.6,193.2z"/>
	</g>
</g>
<path class="st3" d="M100.1,53C77,53,56,61.4,56,61.4v46.2c0,16.8,11,24.4,23.1,33.6h42c12.1-9.2,23.1-16.8,23.1-33.6V61.4
	C144.3,61.4,123.2,53,100.1,53z"/>
<g>
	<circle class="st4" cx="77" cy="95" r="6.3"/>
	<circle class="st4" cx="123.2" cy="95" r="6.3"/>
</g>
<path class="st3" d="M106.4,155.9H93.8c-9.3,0-16.8-7.5-16.8-16.8v-16.8h46.2v16.8C123.2,148.4,115.7,155.9,106.4,155.9z"/>
<path class="st5" d="M100.1,99.2L100.1,99.2c-4,0-7.7,2-9.8,5.3c-5.5,8.3-15.4,23.7-15.4,27.1c0,4.6,8.4,20.8,25.2,11.5
	c16.8,9.2,25.2-6.9,25.2-11.5c0-3.3-9.9-18.8-15.4-27.1C107.8,101.2,104.1,99.2,100.1,99.2z"/>
<path class="st4" d="M110.6,123.5c0,5.2-10.5,9.3-10.5,9.3s-10.5-4.2-10.5-9.3c0-5.2,4.7-7.5,10.5-7.5S110.6,118.3,110.6,123.5z"/>
<g>
	<path class="st6" d="M71.4,62.4l-17.2,42.9c-1,2.5-4.4,2.7-5.7,0.4L36.2,83.8c-2-3.5-1.5-7.9,1.3-10.9l21.1-22.6
		c2-2.1,5.3-2,7.1,0.2l4.6,5.6C71.9,57.8,72.3,60.3,71.4,62.4z"/>
	<path class="st6" d="M128.9,62.4l17.2,42.9c1,2.5,4.4,2.7,5.7,0.4l12.3-21.9c2-3.5,1.5-7.9-1.3-10.9l-21.1-22.6
		c-2-2.1-5.3-2-7.1,0.2l-4.6,5.6C128.4,57.8,128,60.3,128.9,62.4z"/>
</g>
</svg>
