<?xml version="1.0" encoding="utf-8"?>
<!-- Generator: Adobe Illustrator 22.0.1, SVG Export Plug-In . SVG Version: 6.00 Build 0)  -->
<svg version="1.1" id="Calque_1" xmlns="http://www.w3.org/2000/svg" xmlns:xlink="http://www.w3.org/1999/xlink" x="0px" y="0px"
	 viewBox="0 0 200 200" style="enable-background:new 0 0 200 200;" xml:space="preserve">
<style type="text/css">
	.st0{fill:#FFFFFF;}
	.st1{fill:#D8EBDD;}
	.st2{fill:none;stroke:#010101;stroke-miterlimit:10;}
	.st3{fill:#DD2E26;}
	.st4{fill:#FEDE00;}
</style>
<g id="XMLID_1_">
	<g>
		<path class="st0" d="M193.6,18.4v163.1c0,6.6-5.4,12-12,12H18.4c-6.6,0-12-5.4-12-12V18.4c0-6.6,5.4-12,12-12h163.1
			C188.2,6.4,193.6,11.8,193.6,18.4z M184.1,171.9V28.1c0-6.6-5.4-12-12-12H28.2c-6.6,0-12,5.4-12,12V172c0,6.6,5.4,12,12,12h143.9
			C178.7,183.9,184.1,178.5,184.1,171.9z"/>
		<path class="st1" d="M184.1,28.1V172c0,6.6-5.4,12-12,12H28.2c-6.6,0-12-5.4-12-12V28.1c0-6.6,5.4-12,12-12h143.9
			C178.7,16.1,184.1,21.5,184.1,28.1z"/>
	</g>
	<g>
		<path class="st2" d="M172.1,183.9H28.2c-6.6,0-12-5.4-12-12V28.1c0-6.6,5.4-12,12-12h143.9c6.6,0,12,5.4,12,12V172
			C184.1,178.5,178.7,183.9,172.1,183.9z"/>
		<path class="st2" d="M181.6,193.6H18.4c-6.6,0-12-5.4-12-12V18.4c0-6.6,5.4-12,12-12h163.1c6.6,0,12,5.4,12,12v163.1
			C193.6,188.2,188.2,193.6,181.6,193.6z"/>
	</g>
</g>
<g transform="matrix(1.25 0 0 -1.25 0 45)">
	<path class="st3" d="M112.6-12.5H44.8c-5.3,0-9.7-4.3-9.7-9.7v-43.6c0-5.3,4.3-9.7,9.7-9.7h67.8c5.3,0,9.7,4.3,9.7,9.7v43.6
		C122.3-16.8,117.9-12.5,112.6-12.5z"/>
	<g>
		<path class="st4" d="M52-26.9l2.2-6.5l6.8-0.1l-5.5-4.1l2-6.6L52-40.3l-5.6-3.9l2,6.6L43-33.5l6.8,0.1L52-26.9z"/>
		<path class="st4" d="M66.6-18.6l0.8-1.7l1.8-0.3l-1.3-1.3l0.3-1.8l-1.6,0.9l-1.6-0.9l0.3,1.8l-1.3,1.3l1.8,0.3L66.6-18.6z"/>
		<path class="st4" d="M71.4-28.3l0.8-1.7l1.8-0.3l-1.3-1.3l0.3-1.8l-1.6,0.9l-1.6-0.9l0.3,1.8l-1.3,1.3l1.8,0.3L71.4-28.3z"/>
		<path class="st4" d="M71.4-38l0.8-1.7l1.8-0.3l-1.3-1.3l0.3-1.8l-1.6,0.9L69.8-43l0.3,1.8l-1.3,1.3l1.8,0.3L71.4-38z"/>
		<path class="st4" d="M66.6-47.7l0.8-1.7l1.8-0.3l-1.3-1.3l0.3-1.8l-1.6,0.9l-1.6-0.9l0.3,1.8l-1.3,1.3l1.8,0.3L66.6-47.7z"/>
	</g>
</g>
</svg>
