<?xml version="1.0" encoding="utf-8"?>
<!-- Generator: Adobe Illustrator 22.0.1, SVG Export Plug-In . SVG Version: 6.00 Build 0)  -->
<svg version="1.1" id="Calque_1" xmlns="http://www.w3.org/2000/svg" xmlns:xlink="http://www.w3.org/1999/xlink" x="0px" y="0px"
	 viewBox="0 0 200 200" style="enable-background:new 0 0 200 200;" xml:space="preserve">
<style type="text/css">
	.st0{fill:#F9BCC4;}
	.st1{fill:#FFFFFF;}
	.st2{fill:none;stroke:#000000;stroke-miterlimit:10;}
	.st3{fill:#CE3927;}
	.st4{fill:#4D322D;}
	.st5{fill:#593F69;}
	.st6{fill:#6A3514;}
	.st7{fill:#7059A6;}
	.st8{fill:#382742;}
	.st9{fill:#E6E6E5;}
</style>
<g id="XMLID_1_">
	<g>
		<path class="st0" d="M184.1,171.9c0,6.6-5.4,12-12,12H28.2c-6.6,0-12-5.4-12-12V28.1c0-6.6,5.4-12,12-12h143.9c6.6,0,12,5.4,12,12
			V171.9z"/>
		<path class="st1" d="M172.1,183.9c6.6,0,12-5.4,12-12V28.1c0-6.6-5.4-12-12-12H28.2c-6.6,0-12,5.4-12,12v143.9c0,6.6,5.4,12,12,12
			H172.1z M6.4,18.4c0-6.6,5.4-12,12-12h163.1c6.6,0,12,5.4,12,12v163.1c0,6.6-5.4,12-12,12H18.4c-6.6,0-12-5.4-12-12V18.4z"/>
	</g>
	<g>
		<path class="st2" d="M172.1,183.9H28.2c-6.6,0-12-5.4-12-12V28.1c0-6.6,5.4-12,12-12h143.9c6.6,0,12,5.4,12,12v143.9
			C184.1,178.5,178.7,183.9,172.1,183.9z"/>
		<path class="st2" d="M181.6,193.6H18.4c-6.6,0-12-5.4-12-12V18.4c0-6.6,5.4-12,12-12h163.1c6.6,0,12,5.4,12,12v163.1
			C193.6,188.2,188.2,193.6,181.6,193.6z"/>
	</g>
</g>
<polygon class="st3" points="136.5,157.4 136.5,157.2 136.2,157.4 "/>
<g>
	<g>
		<polygon class="st4" points="92.7,41.7 92.7,56.2 78.2,56.2 78.2,70.7 63.8,70.7 63.8,101.7 134.1,58.3 134.1,41.7 		"/>
	</g>
	<g>
		<path class="st5" d="M134.1,143.1V58.3l-18.6,68.3l-51.7-22.8v39.3l-4.1,10.3c3.6,3.4,13.4,3.6,17.3,0.7c0.5-0.4,1.2-0.4,1.7,0
			c3.6,2.7,8.7,2.7,12.3,0c0.5-0.4,1.2-0.4,1.7,0c3.6,2.7,8.7,2.7,12.3,0c0.5-0.4,1.2-0.4,1.7,0c3.6,2.7,8.7,2.7,12.3,0
			c0.5-0.4,1.2-0.4,1.7,0c3.9,2.9,13.7,2.7,17.3-0.7L134.1,143.1z"/>
	</g>
	<path class="st6" d="M134.1,54.1h-10.3V41.7h-4.1v12.4h-10.3V41.7h-4.1v12.4H94.8V41.7h-2.1v14.5H78.2v14.5H63.8v2.1h12.4v10.3
		H63.8v4.1h12.4v4.4l-12.4,7.7v2.4l70.3-43.5V54.1z M80.3,89.1v-1.8h3L80.3,89.1z M90.7,82.7L90,83.1h-9.7V72.7h10.3
		C90.7,72.7,90.7,82.7,90.7,82.7z M90.7,68.6H80.3V58.3h10.3V68.6z M105.1,73.7l-10.3,6.4v-7.4h10.3V73.7z M105.1,68.6H94.8V58.3
		h10.3V68.6z M119.6,64.8l-6.2,3.8v0h-4.1V58.3h10.3V64.8z M123.8,62.2v-4h6.4L123.8,62.2z"/>
	<path class="st7" d="M69,158.3c-4.2,0-8.5-1.1-10.8-3.3l2.8-3c2.8,2.6,11.5,3,14.7,0.6c1.2-0.9,3-0.9,4.2,0c2.9,2.1,7,2.1,9.9,0
		c1.2-0.9,3-0.9,4.2,0c2.9,2.1,7,2.1,9.9,0c1.2-0.9,3-0.9,4.2,0c2.9,2.1,7,2.1,9.9,0c1.2-0.9,3-0.9,4.2,0c3.2,2.4,11.9,2.1,14.7-0.6
		l2.8,3c-4.2,3.9-14.6,4.5-19.6,1.1c-4.2,2.9-9.9,2.9-14.1,0c-4.2,2.9-9.9,2.9-14.1,0c-4.2,2.9-9.9,2.9-14.1,0
		C75.6,157.6,72.3,158.3,69,158.3z"/>
	<rect x="72" y="141" class="st7" width="4.1" height="4.1"/>
	<rect x="78.2" y="141" class="st7" width="4.1" height="4.1"/>
	<rect x="84.5" y="141" class="st7" width="4.1" height="4.1"/>
	<rect x="90.7" y="141" class="st7" width="4.1" height="4.1"/>
	<rect x="96.9" y="141" class="st7" width="4.1" height="4.1"/>
	<rect x="103.1" y="141" class="st7" width="4.1" height="4.1"/>
	<rect x="109.3" y="141" class="st7" width="4.1" height="4.1"/>
	<rect x="115.5" y="141" class="st7" width="4.1" height="4.1"/>
	<rect x="121.7" y="141" class="st7" width="4.1" height="4.1"/>
	<polygon class="st8" points="63.8,101.7 134.1,58.3 119.6,136.9 63.8,103.8 	"/>
	<g>
		<polygon class="st9" points="63.8,101.7 134.1,58.3 115.5,126.5 63.8,103.8 		"/>
		<path class="st9" d="M116.2,128l-53.4-23.5v-3.3L135.8,56L116.2,128z M64.8,103.1l50,22l17.6-64.6l-67.6,41.8V103.1z"/>
	</g>
</g>
</svg>
