<?xml version="1.0" encoding="utf-8"?>
<!-- Generator: Adobe Illustrator 22.0.1, SVG Export Plug-In . SVG Version: 6.00 Build 0)  -->
<svg version="1.1" id="Calque_1" xmlns="http://www.w3.org/2000/svg" xmlns:xlink="http://www.w3.org/1999/xlink" x="0px" y="0px"
	 viewBox="0 0 200 200" style="enable-background:new 0 0 200 200;" xml:space="preserve">
<style type="text/css">
	.st0{fill:#FFFFFF;}
	.st1{fill:#FBEDB6;}
	.st2{fill:none;stroke:#010101;stroke-miterlimit:10;}
	.st3{fill:#7E5D63;}
	.st4{fill:#FFCE04;}
	.st5{fill:#F7911E;}
	.st6{fill:#E5BE94;}
	.st7{fill:#9A655B;}
	.st8{fill:#5D556B;}
</style>
<g id="XMLID_1_">
	<g>
		<path class="st0" d="M184.1,171.6V27.7c0-6.6-5.4-12-12-12H28.2c-6.6,0-12,5.4-12,12v143.9c0,6.6,5.4,12,12,12h143.9
			C178.7,183.6,184.1,178.2,184.1,171.6z M193.6,18.1v163.1c0,6.6-5.4,12-12,12H18.4c-6.6,0-12-5.4-12-12V18.1c0-6.6,5.4-12,12-12
			h163.1C188.2,6.1,193.6,11.5,193.6,18.1z"/>
		<path class="st1" d="M184.1,27.7v143.9c0,6.6-5.4,12-12,12H28.2c-6.6,0-12-5.4-12-12V27.7c0-6.6,5.4-12,12-12h143.9
			C178.7,15.7,184.1,21.1,184.1,27.7z"/>
	</g>
	<g>
		<path class="st2" d="M172.1,183.6H28.2c-6.6,0-12-5.4-12-12V27.7c0-6.6,5.4-12,12-12h143.9c6.6,0,12,5.4,12,12v143.9
			C184.1,178.2,178.7,183.6,172.1,183.6z"/>
		<path class="st2" d="M181.6,193.2H18.4c-6.6,0-12-5.4-12-12V18.1c0-6.6,5.4-12,12-12h163.1c6.6,0,12,5.4,12,12v163.1
			C193.6,187.8,188.2,193.2,181.6,193.2z"/>
	</g>
</g>
<g>
	<g>
		<ellipse class="st3" cx="97.3" cy="103.1" rx="58.7" ry="53.2"/>
	</g>
	<g>
		<path class="st4" d="M108,122.2l-9.2-12.8c-0.3-0.5-0.9-0.8-1.5-0.8c0,0,0,0,0,0c-0.6,0-1.1,0.3-1.5,0.8l-9.1,12.8
			c-0.4,0.6-0.5,1.3-0.1,2l9.2,16.5c0.3,0.6,0.9,0.9,1.6,0.9c0.7,0,1.3-0.4,1.6-0.9l9.2-16.5C108.5,123.6,108.4,122.8,108,122.2z"/>
	</g>
	<g>
		<path class="st5" d="M95.8,109.4l-9.1,12.8c-0.4,0.6-0.5,1.3-0.1,2l9.2,16.5c0.3,0.6,0.9,0.9,1.6,0.9v-33c0,0,0,0,0,0
			C96.7,108.6,96.2,108.9,95.8,109.4z"/>
	</g>
	<g>
		<path class="st6" d="M124.8,77.7C112.5,76,101.6,83,97.3,93.5C93.1,83,82.2,76,69.8,77.7c-11.5,1.6-20.6,11-21.9,22.5
			c-1.7,15.5,10.4,28.6,25.5,28.6c9.5,0,17.8-5.2,22.3-12.9c0.7-1.2,2.4-1.2,3.1,0c4.4,7.7,12.7,12.9,22.3,12.9
			c15.2,0,27.2-13.1,25.5-28.6C145.4,88.7,136.3,79.3,124.8,77.7z"/>
	</g>
	<g>
		<circle class="st7" cx="121.2" cy="103.1" r="16.5"/>
	</g>
	<g>
		<circle class="st7" cx="73.5" cy="103.1" r="16.5"/>
	</g>
	<g>
		<path class="st7" d="M130.3,59.1h9.2c7.1,0,12.8-5.8,12.8-12.8c0-1,0.8-1.8,1.8-1.8s1.8,0.8,1.8,1.8v22c0,9.1-7.4,16.5-16.5,16.5
			h-22c-10.1,0-18.3,8.2-18.3,18.3c0,1-0.8,1.8-1.8,1.8s-1.8-0.8-1.8-1.8v-9.2C95.5,74.7,111.1,59.1,130.3,59.1z"/>
	</g>
	<g>
		<path class="st7" d="M64.3,59.1h-9.2c-7.1,0-12.8-5.8-12.8-12.8c0-1-0.8-1.8-1.8-1.8c-1,0-1.8,0.8-1.8,1.8v22
			c0,9.1,7.4,16.5,16.5,16.5h22c10.1,0,18.3,8.2,18.3,18.3c0,1,0.8,1.8,1.8,1.8c1,0,1.8-0.8,1.8-1.8v-9.2
			C99.2,74.7,83.6,59.1,64.3,59.1z"/>
	</g>
	<g>
		<g>
			<circle class="st4" cx="73.5" cy="103.1" r="11"/>
		</g>
		<g>
			<circle class="st8" cx="73.5" cy="103.1" r="5.5"/>
		</g>
		<g>
			<circle class="st0" cx="77.2" cy="99.5" r="3.7"/>
		</g>
	</g>
	<g>
		<g>
			<circle class="st4" cx="121.2" cy="103.1" r="11"/>
		</g>
		<g>
			<circle class="st8" cx="121.2" cy="103.1" r="5.5"/>
		</g>
		<g>
			<circle class="st0" cx="124.8" cy="99.5" r="3.7"/>
		</g>
	</g>
	<g>
		<path class="st6" d="M154.2,44.4c-1,0-1.8,0.8-1.8,1.8c0,7.1-5.8,12.8-12.8,12.8h-9.2c-15.4,0-28.4,10-33.1,23.9
			c-4.6-13.8-17.7-23.9-33.1-23.9h-9.2c-7.1,0-12.8-5.8-12.8-12.8c0-1-0.8-1.8-1.8-1.8c-1,0-1.8,0.8-1.8,1.8v11
			c0,7.1,5.8,12.8,12.8,12.8h12.8c12.5,0,23.4,6.6,29.5,16.4c0.8,1.2,2.1,1.9,3.5,1.9h0c1.4,0,2.8-0.7,3.5-1.9
			c6.2-9.9,17.1-16.4,29.5-16.4h12.8c7.1,0,12.8-5.8,12.8-12.8v-11C156.1,45.2,155.3,44.4,154.2,44.4z"/>
	</g>
</g>
</svg>
