<svg id="Calque_1" data-name="Calque 1" xmlns="http://www.w3.org/2000/svg" viewBox="0 0 469.98 675.31"><defs><style>.cls-1{fill:#ace0f4;stroke-width:3px;}.cls-1,.cls-10,.cls-11,.cls-2,.cls-7,.cls-8{stroke:#231f20;}.cls-1,.cls-10,.cls-11,.cls-2,.cls-6,.cls-7,.cls-8{stroke-miterlimit:10;}.cls-2{fill:#bcbec0;}.cls-3{fill:#231f20;}.cls-4{font-size:38px;font-family:ArialRoundedMTBold, Arial Rounded MT Bold;}.cls-13,.cls-4{fill:#fff;}.cls-5{letter-spacing:-0.01em;}.cls-6,.cls-8,.cls-9{fill:none;}.cls-6{stroke:#fff;stroke-width:4px;}.cls-7{fill:#a7a9ac;}.cls-10{fill:#d1d3d4;}.cls-11,.cls-12{fill:#58595b;}</style></defs><title>ciné</title><rect class="cls-1" x="1.5" y="1.5" width="466.98" height="672.31" rx="12" ry="12"/><path class="cls-2" d="M283.55,285.19s-21.13-47.91,18.34-48.66,16,43.38,16,43.38l15.91,9.27S331.9,257,356.51,258.12s23.87,31.06,23.87,31.06-1.2,18.14-16.76,17.55l-7.43,16.61Z" transform="translate(12.13 17.02)"/><path class="cls-3" d="M59.3,350.79,160.45,330l12.32,60s-.18,4.25-3.18,5-92.55,19-92.55,19-5.53.26-6.52-4.46S59.3,350.79,59.3,350.79Z" transform="translate(12.13 17.02)"/><text class="cls-4" transform="translate(203.77 133.54)">ÇA <tspan class="cls-5" x="-65.23" y="45.6">T</tspan><tspan x="-41.98" y="45.6">OURNE !</tspan></text><rect class="cls-6" x="92.51" y="91.63" width="277.23" height="105.52" rx="12" ry="12"/><path class="cls-7" d="M224.53,347.8l99.27,54.32L365,327.2l-97.39-50.57S232,312.21,224.53,347.8Z" transform="translate(12.13 17.02)"/><line class="cls-8" x1="327.35" y1="373.15" x2="318.6" y2="373.15"/><line class="cls-8" x1="327.35" y1="382.87" x2="321.03" y2="382.87"/><path class="cls-8" d="M266.85,295.91s-19.08,23.3-21.28,43.46" transform="translate(12.13 17.02)"/><line class="cls-8" x1="286.56" y1="329.11" x2="286.56" y2="332.78"/><path class="cls-9" d="M281.76,310.87" transform="translate(12.13 17.02)"/><path class="cls-8" d="M281.76,313.93" transform="translate(12.13 17.02)"/><path class="cls-10" d="M294.7,290.56s-12.19-14.81-1.82-20.23,11.94,16.31,11.94,16.31l35.47,18.12S338.73,292.33,350,292s-6.27,24.14-6.27,24.14Z" transform="translate(12.13 17.02)"/><polygon class="cls-10" points="271.4 302.94 252.33 291.45 241.57 306.12 260.64 317.86 271.4 302.94"/><path class="cls-11" d="M218.67,272.48s-11,13.4-3.18,19.29,19.06-9.65,19.06-9.65,12.49-13.8,3.93-20.89S218.67,272.48,218.67,272.48Z" transform="translate(12.13 17.02)"/><polygon class="cls-10" points="248.1 336.7 238.25 331.87 233.6 339.53 243.46 344.47 248.1 336.7"/><path class="cls-11" d="M215.48,314.81s-4.82,7-.74,9.6,8.94-5.54,8.94-5.54,5.54-7.3,1-10.42S215.48,314.81,215.48,314.81Z" transform="translate(12.13 17.02)"/><polygon class="cls-11" points="248.1 371.07 135.57 487.21 147.49 503.27 264.07 379.81 248.1 371.07"/><polygon class="cls-11" points="316.31 410.05 327.35 414.43 276.43 573.7 264.07 573.7 316.31 410.05"/><path class="cls-12" d="M288.82,287.64" transform="translate(12.13 17.02)"/><path class="cls-3" d="M66.36,344.56l77.47-60.41s-7-17-18.1-8.19-69.25,54.09-69.25,54.09-5.44,3.88.63,10.37,6.13,6.79,6.13,6.79Z" transform="translate(12.13 17.02)"/><polygon class="cls-13" points="105.85 334.68 91.77 333.41 106.07 322.02 120.44 323.36 105.85 334.68"/><polygon class="cls-13" points="134.68 311.98 121.28 310.44 135.24 299.38 149.1 300.83 134.68 311.98"/><polygon class="cls-13" points="93.38 344.97 79.66 343.49 68.33 352.39 80.87 354.61 93.38 344.97"/><polygon class="cls-13" points="91.8 377.44 98.14 366.95 81.45 370.38 76.31 380.62 91.8 377.44"/><polygon class="cls-13" points="115.04 363.48 107.51 374.21 124.33 370.76 131.47 360.11 115.04 363.48"/><polygon class="cls-13" points="148.9 356.53 141.1 367.31 157.65 363.92 164.66 353.3 148.9 356.53"/><path class="cls-3" d="M57.37,340.78,60.09,354s12.89-2.35,11.42-8.77S57.37,340.78,57.37,340.78Z" transform="translate(12.13 17.02)"/><path class="cls-13" d="M85.43,376.29,145.8,363.9s3.64,1.39.78,3.81L86.21,380.1S82.69,379.3,85.43,376.29Z" transform="translate(12.13 17.02)"/><path class="cls-13" d="M88.81,392.77l60.37-12.39s3.64,1.39.78,3.81L89.6,396.58S86.07,395.78,88.81,392.77Z" transform="translate(12.13 17.02)"/><line class="cls-8" x1="256.01" y1="256.56" x2="268.17" y2="244.43"/><line class="cls-8" x1="240.16" y1="254.86" x2="237.38" y2="237.88"/><line class="cls-8" x1="225.61" y1="261.89" x2="214.96" y2="250.54"/></svg>