<svg id="Calque_1" data-name="Calque 1" xmlns="http://www.w3.org/2000/svg" viewBox="0 0 188.14 188.14"><defs><style>.cls-1{fill:#fff;}.cls-2{fill:#f9bcc5;}.cls-3{fill:none;stroke:#231f20;stroke-miterlimit:10;}.cls-4{fill:#f4b954;}.cls-5{fill:#e6ab45;}.cls-6{fill:#fae196;}.cls-7{fill:#010101;}</style></defs><title>citron</title><path class="cls-1" d="M193.57,18.43V181.57a12,12,0,0,1-12,12H18.43a12,12,0,0,1-12-12V18.43a12,12,0,0,1,12-12H181.57A12,12,0,0,1,193.57,18.43Zm-9.51,153.5V28.07a12,12,0,0,0-12-12H28.2a12,12,0,0,0-12,12V171.93a12,12,0,0,0,12,12H172.06A12,12,0,0,0,184.06,171.93Z" transform="translate(-5.93 -5.93)"/><rect class="cls-2" x="10.27" y="10.14" width="167.86" height="167.86" rx="12" ry="12"/><rect class="cls-3" x="10.27" y="10.14" width="167.86" height="167.86" rx="12" ry="12"/><rect class="cls-3" x="0.5" y="0.5" width="187.14" height="187.14" rx="12" ry="12"/><path class="cls-4" d="M56.42,106.36h93.66a52.36,52.36,0,0,0,.08-20.53s-1.67-17,1.56-24.61c2.29-5.43,4.31-10.87.27-14.9s-9.4-1.85-14.9.27c-6.67,2.57-24.09,1.36-30.75.79a49.27,49.27,0,0,0-10.79.18A56.53,56.53,0,0,0,62.91,63.82C48.49,78.24,43.33,98.21,47.73,115.73c0,0,1.7,14.06-1,22.07-1.94,5.86-4.52,11.4-.28,15.64s10,2.17,15.64-.29c8.4-3.65,18-2.83,22.35-2.17A49.57,49.57,0,0,1,56.42,106.36Z" transform="translate(-5.93 -5.93)"/><path class="cls-5" d="M106.24,156a49.71,49.71,0,0,0,49.82-49.59H56.42A49.71,49.71,0,0,0,106.24,156Z" transform="translate(-5.93 -5.93)"/><path class="cls-6" d="M106.24,146.31a40,40,0,0,0,40.13-39.95H66.1A40,40,0,0,0,106.24,146.31Z" transform="translate(-5.93 -5.93)"/><path class="cls-5" d="M111.81,118v14.38a4,4,0,0,0,5.54,3.66,30.42,30.42,0,0,0,3.2-1.58,4,4,0,0,0,.93-6.18C112.14,118.28,111.81,118,111.81,118Z" transform="translate(-5.93 -5.93)"/><path class="cls-5" d="M117.73,113.12l10.62,10a4,4,0,0,0,6-.66,21.28,21.28,0,0,0,2.11-3.93,4,4,0,0,0-3.68-5.45C119.24,113.05,117.73,113.12,117.73,113.12Z" transform="translate(-5.93 -5.93)"/><path class="cls-5" d="M101.42,118.41V132.8a4,4,0,0,1-5.54,3.65,27.87,27.87,0,0,1-3.21-1.58,4,4,0,0,1-.93-6.18C101.08,118.74,101.42,118.41,101.42,118.41Z" transform="translate(-5.93 -5.93)"/><path class="cls-5" d="M95.5,113.58l-10.62,10a4,4,0,0,1-6-.66A21.06,21.06,0,0,1,76.75,119a4,4,0,0,1,3.68-5.45C94,113.51,95.5,113.58,95.5,113.58Z" transform="translate(-5.93 -5.93)"/><path class="cls-7" d="M156.06,104.08h-3.27a53.87,53.87,0,0,0-.38-18.58c-.13-1.42-1.43-16.68,1.4-23.4C156,57,158.91,50,153.6,44.71c-5-5-11.35-2.55-16.95-.39l-.38.15c-4.28,1.65-15.4,1.89-29.74.64a52.08,52.08,0,0,0-11.27.19A59.11,59.11,0,0,0,61.31,62.21C46.87,76.64,40.82,97.3,45.48,116.14c.16,1.43,1.46,13.92-.87,20.94-.2.61-.41,1.22-.62,1.82-1.83,5.32-3.91,11.35.89,16.15a10.33,10.33,0,0,0,7.6,3.12c3.79,0,7.62-1.66,10.55-2.93,7.74-3.36,16.81-2.62,20.73-2.07a52.43,52.43,0,0,0,50.7-3.21,2.28,2.28,0,0,0-2.46-3.83,47.61,47.61,0,0,1-73.25-37.5h5.14a42.42,42.42,0,0,0,84.7,0h5.14a46.72,46.72,0,0,1-9.6,26.31,2.28,2.28,0,1,0,3.62,2.76,51.3,51.3,0,0,0,10.58-31.34A2.28,2.28,0,0,0,156.06,104.08ZM69.41,143a52.35,52.35,0,0,0,6,5.12,38.55,38.55,0,0,0-14.15,2.91c-6.28,2.73-10.23,3.66-13.13.77-2.65-2.65-1.65-6.08.21-11.44l.63-1.88c2.78-8.39,1.13-22.46,1.06-23a2.3,2.3,0,0,0-.06-.28c-4.35-17.34,1.24-36.41,14.59-49.75A54.58,54.58,0,0,1,95.84,49.81a48.24,48.24,0,0,1,10.3-.17c8.94.78,25,1.69,31.77-.93l.37-.14c5.71-2.2,9.34-3.41,12.1-.65s1.89,6.14-.76,12.41c-3.41,8.08-1.79,25-1.72,25.72a.83.83,0,0,0,0,.22,49.53,49.53,0,0,1,.25,17.81H56.42a2.28,2.28,0,0,0-2.28,2.28A51.37,51.37,0,0,0,69.41,143Zm36.83,1a37.84,37.84,0,0,1-37.8-35.4H144A37.82,37.82,0,0,1,106.24,144Z" transform="translate(-5.93 -5.93)"/><path class="cls-7" d="M138.43,141.18l-.16.14a2.28,2.28,0,0,0,3.06,3.37l.17-.15a2.28,2.28,0,0,0-3.07-3.36Z" transform="translate(-5.93 -5.93)"/><path class="cls-7" d="M112.32,137.55a6.31,6.31,0,0,0,5.91.55,32.74,32.74,0,0,0,3.46-1.71,6.25,6.25,0,0,0,1.45-9.71c-5.87-6.26-9.51-10.13-9.75-10.35a2.26,2.26,0,0,0-2.47-.47,2.28,2.28,0,0,0-1.39,2.1v14.38A6.23,6.23,0,0,0,112.32,137.55Zm1.76-13.87,5.75,6.11a1.7,1.7,0,0,1-.41,2.65,26.27,26.27,0,0,1-3,1.46,1.71,1.71,0,0,1-2.38-1.56v-8.66Z" transform="translate(-5.93 -5.93)"/><path class="cls-7" d="M126.79,124.8a6.25,6.25,0,0,0,4.29,1.7,5.32,5.32,0,0,0,.69,0,6.23,6.23,0,0,0,4.49-2.71,23.54,23.54,0,0,0,2.33-4.35,6.26,6.26,0,0,0-5.79-8.58c-13.46,0-15.11,0-15.17,0a2.27,2.27,0,0,0-1.46,3.92Zm6-9.43a1.69,1.69,0,0,1,1.41.76,1.67,1.67,0,0,1,.17,1.57,18.49,18.49,0,0,1-1.89,3.51,1.66,1.66,0,0,1-1.21.73,1.7,1.7,0,0,1-1.36-.45l-6.49-6.13Z" transform="translate(-5.93 -5.93)"/><path class="cls-7" d="M88.46,132.33a6.19,6.19,0,0,0,3.08,4.51A30.76,30.76,0,0,0,95,138.55a6.35,6.35,0,0,0,2.45.5,6.26,6.26,0,0,0,6.25-6.25V118.41a2.28,2.28,0,0,0-3.86-1.63c-.23.23-3.88,4.1-9.75,10.36A6.19,6.19,0,0,0,88.46,132.33Zm4.94-2.08,5.74-6.12v8.67a1.69,1.69,0,0,1-.75,1.41,1.74,1.74,0,0,1-1.63.15,29.08,29.08,0,0,1-3-1.46,1.73,1.73,0,0,1-.84-1.24A1.65,1.65,0,0,1,93.4,130.25Z" transform="translate(-5.93 -5.93)"/><path class="cls-7" d="M74.63,119.85A24,24,0,0,0,77,124.21a6.21,6.21,0,0,0,4.48,2.71c.23,0,.47,0,.7,0a6.28,6.28,0,0,0,4.29-1.71l10.62-10a2.28,2.28,0,0,0-1.46-3.93c-.07,0-1.72-.07-15.18,0a6.25,6.25,0,0,0-5.79,8.57ZM79,116.58a1.73,1.73,0,0,1,1.42-.75l8.12,0h1.25l-6.5,6.13a1.7,1.7,0,0,1-1.36.46,1.68,1.68,0,0,1-1.21-.74,18.43,18.43,0,0,1-1.88-3.51A1.68,1.68,0,0,1,79,116.58Z" transform="translate(-5.93 -5.93)"/><path class="cls-7" d="M106.24,115.36a2.27,2.27,0,0,0,2.27-2.28,2.28,2.28,0,0,0-4.55,0,2.29,2.29,0,0,0,2.28,2.28Z" transform="translate(-5.93 -5.93)"/><path class="cls-7" d="M109.47,60h.06a2.27,2.27,0,1,0,0-4.54h-.06a2.27,2.27,0,1,0,0,4.54Z" transform="translate(-5.93 -5.93)"/><path class="cls-7" d="M116.74,73.54h.06a2.28,2.28,0,1,0,0-4.55h-.06a2.28,2.28,0,0,0,0,4.55Z" transform="translate(-5.93 -5.93)"/><path class="cls-7" d="M127.58,62.7h.06a2.28,2.28,0,1,0,0-4.55h-.06a2.28,2.28,0,0,0,0,4.55Z" transform="translate(-5.93 -5.93)"/><path class="cls-7" d="M58.76,91.79a2.18,2.18,0,0,0,.74.13,2.27,2.27,0,0,0,2.15-1.54l.08-.22a2.27,2.27,0,1,0-4.29-1.5l-.09.24A2.27,2.27,0,0,0,58.76,91.79Z" transform="translate(-5.93 -5.93)"/><path class="cls-7" d="M62.51,82.66a2.32,2.32,0,0,0,1.18.33,2.29,2.29,0,0,0,2-1.09,45,45,0,0,1,6.6-8.41,44.06,44.06,0,0,1,23.63-12.3,2.27,2.27,0,1,0-.75-4.48A48.53,48.53,0,0,0,69,70.28a49.54,49.54,0,0,0-7.28,9.25A2.29,2.29,0,0,0,62.51,82.66Z" transform="translate(-5.93 -5.93)"/></svg>