<?xml version="1.0" encoding="utf-8"?>
<!-- Generator: Adobe Illustrator 22.0.1, SVG Export Plug-In . SVG Version: 6.00 Build 0)  -->
<svg version="1.1" id="Calque_1" xmlns="http://www.w3.org/2000/svg" xmlns:xlink="http://www.w3.org/1999/xlink" x="0px" y="0px"
	 viewBox="0 0 200 200" style="enable-background:new 0 0 200 200;" xml:space="preserve">
<style type="text/css">
	.st0{fill:#FFFFFF;}
	.st1{fill:#FBEDB6;}
	.st2{fill:none;stroke:#010101;stroke-miterlimit:10;}
	.st3{fill:#FDD2BA;}
	.st4{fill:#EBB4A0;}
	.st5{fill:#D7A192;}
	.st6{fill:#464755;}
</style>
<g id="XMLID_1_">
	<g>
		<path class="st0" d="M184.1,171.6V27.7c0-6.6-5.4-12-12-12H28.2c-6.6,0-12,5.4-12,12v143.9c0,6.6,5.4,12,12,12h143.9
			C178.7,183.6,184.1,178.2,184.1,171.6z M193.6,18.1v163.1c0,6.6-5.4,12-12,12H18.4c-6.6,0-12-5.4-12-12V18.1c0-6.6,5.4-12,12-12
			h163.1C188.2,6.1,193.6,11.5,193.6,18.1z"/>
		<path class="st1" d="M184.1,27.7v143.9c0,6.6-5.4,12-12,12H28.2c-6.6,0-12-5.4-12-12V27.7c0-6.6,5.4-12,12-12h143.9
			C178.7,15.7,184.1,21.1,184.1,27.7z"/>
	</g>
	<g>
		<path class="st2" d="M172.1,183.6H28.2c-6.6,0-12-5.4-12-12V27.7c0-6.6,5.4-12,12-12h143.9c6.6,0,12,5.4,12,12v143.9
			C184.1,178.2,178.7,183.6,172.1,183.6z"/>
		<path class="st2" d="M181.6,193.2H18.4c-6.6,0-12-5.4-12-12V18.1c0-6.6,5.4-12,12-12h163.1c6.6,0,12,5.4,12,12v163.1
			C193.6,187.8,188.2,193.2,181.6,193.2z"/>
	</g>
</g>
<path class="st3" d="M41.1,48c0,32.3,22.8,39.9,30.4,36.1l13.3-13.3C77.2,49.9,41.1,48,41.1,48z"/>
<path class="st4" d="M70.4,84.5c2.9-5.8,3.2-14.6-0.8-19.4C60.1,53.7,48.7,53.7,41.1,48C41.1,78.9,61.9,87.2,70.4,84.5z"/>
<path class="st3" d="M158.9,48c0,32.3-22.8,39.9-30.4,36.1l-13.3-13.3C122.8,49.9,158.9,48,158.9,48z"/>
<path class="st4" d="M129.6,84.5c-2.9-5.8-3.2-14.6,0.8-19.4c9.5-11.4,20.9-11.4,28.5-17.1C158.9,78.9,138.1,87.2,129.6,84.5z"/>
<path class="st3" d="M141.8,116.4c0,23.1-18.7,41.8-41.8,41.8s-41.8-18.7-41.8-41.8S72.7,65.1,100,65.1S141.8,93.3,141.8,116.4z"/>
<path class="st5" d="M84.9,133.8c2,7.7,7.5,13.2,15.4,13.2c7.8-0.1,13.1-5.9,15.1-13.4L84.9,133.8z"/>
<path class="st4" d="M119.1,127.9c0.1,11.4-13.2,7.5-18.9,7.5c-5.6,0.1-19,4.2-19.1-7.2c-0.1-11.6,8.3-21.1,18.8-21.2
	S119,116.3,119.1,127.9z"/>
<g>
	<circle class="st6" cx="76.2" cy="96.5" r="2.9"/>
	<circle class="st6" cx="123.8" cy="96.5" r="2.9"/>
</g>
<g>
	<circle class="st5" cx="93.3" cy="121.2" r="2.9"/>
	<circle class="st5" cx="106.7" cy="121.2" r="2.9"/>
</g>
</svg>
