<?xml version="1.0" encoding="utf-8"?>
<!-- Generator: Adobe Illustrator 22.0.1, SVG Export Plug-In . SVG Version: 6.00 Build 0)  -->
<svg version="1.1" id="Calque_1" xmlns="http://www.w3.org/2000/svg" xmlns:xlink="http://www.w3.org/1999/xlink" x="0px" y="0px"
	 viewBox="0 0 200 200" style="enable-background:new 0 0 200 200;" xml:space="preserve">
<style type="text/css">
	.st0{fill:#FFFFFF;}
	.st1{fill:#F9BCC4;}
	.st2{fill:none;stroke:#000000;stroke-miterlimit:10;}
	.st3{fill:#509141;}
	.st4{fill:#5FAD46;}
	.st5{fill:#96CB5D;}
	.st6{fill:#B8DA92;}
	.st7{fill:#010101;}
</style>
<g id="XMLID_1_">
	<g>
		<path class="st0" d="M193.6,18.4v163.1c0,6.6-5.4,12-12,12H18.4c-6.6,0-12-5.4-12-12V18.4c0-6.6,5.4-12,12-12h163.1
			C188.2,6.4,193.6,11.8,193.6,18.4z M184.1,171.9V28.1c0-6.6-5.4-12-12-12H28.2c-6.6,0-12,5.4-12,12v143.9c0,6.6,5.4,12,12,12
			h143.9C178.7,183.9,184.1,178.5,184.1,171.9z"/>
		<path class="st1" d="M184.1,28.1v143.9c0,6.6-5.4,12-12,12H28.2c-6.6,0-12-5.4-12-12V28.1c0-6.6,5.4-12,12-12h143.9
			C178.7,16.1,184.1,21.5,184.1,28.1z"/>
	</g>
	<g>
		<path class="st2" d="M172.1,183.9H28.2c-6.6,0-12-5.4-12-12V28.1c0-6.6,5.4-12,12-12h143.9c6.6,0,12,5.4,12,12v143.9
			C184.1,178.5,178.7,183.9,172.1,183.9z"/>
		<path class="st2" d="M181.6,193.6H18.4c-6.6,0-12-5.4-12-12V18.4c0-6.6,5.4-12,12-12h163.1c6.6,0,12,5.4,12,12v163.1
			C193.6,188.2,188.2,193.6,181.6,193.6z"/>
	</g>
</g>
<path class="st3" d="M92,102.3v12.6c0,5.1-3.5,9.7-9,12.4c-1.1,0.5-2.2,1-3.4,1.4c-1.9,0.6-3.9,1.1-6,1.3c0,0-0.1,0-0.1,0
	c-1,0.1-2.1,0.2-3.2,0.2h-0.2c-1.1,0-2.1-0.1-3.2-0.2c-1.2-0.1-2.3-0.3-3.4-0.6c-2-0.5-3.9-1.2-5.6-2c-1.2-0.6-2.4-1.3-3.4-2.1
	c-3.6-2.7-5.9-6.4-5.9-10.5v-12.6L92,102.3L92,102.3z"/>
<path class="st4" d="M92,102.3v12.6c0,5.1-3.5,9.7-9,12.4c-1.1,0.5-2.2,1-3.4,1.4c-1.9,0.6-3.9,1.1-6,1.3c0,0-0.1,0-0.1,0
	c-1.2-0.1-2.3-0.3-3.4-0.6c-2-0.5-3.9-1.2-5.6-2c-1.2-0.6-2.4-1.3-3.4-2.1c-3.6-2.7-5.9-6.4-5.9-10.5v-12.6H92z"/>
<path class="st3" d="M153.9,74.5c0,3-0.6,5.8-1.7,8.4c-3.3,7.8-11.1,13.4-20.1,13.4H63.8c-12,0-21.8-9.8-21.8-21.8
	c0-2.9,0.6-5.6,1.6-8.2c0.5-1.2,1.1-2.3,1.7-3.4c0.9-1.4,1.9-2.7,3.1-3.8c0,0,0,0,0.1-0.1c3.9-3.9,9.4-6.3,15.3-6.3h68.3
	C144.1,52.7,153.9,62.5,153.9,74.5z"/>
<path class="st4" d="M153.9,74.5c0,3-0.6,5.8-1.7,8.4c-3.9,3.9-9.4,6.3-15.3,6.3H68.6c-12,0-21.8-9.8-21.8-21.8
	c0-2.9,0.6-5.6,1.6-8.2c0-0.1,0.1-0.2,0.1-0.3c3.9-3.9,9.4-6.3,15.3-6.3h68.3C144.1,52.7,153.9,62.5,153.9,74.5z"/>
<g>
	<circle class="st5" cx="132.3" cy="74.5" r="21.7"/>
	<ellipse class="st5" cx="70.4" cy="102.2" rx="21.7" ry="15.3"/>
</g>
<ellipse class="st6" cx="70.4" cy="102" rx="17.4" ry="11.4"/>
<path class="st3" d="M130.4,122.6v12.6c0,2.5-0.9,4.9-2.4,7c-0.9,1.2-2.1,2.4-3.4,3.4c-1.4,1.1-3,2-4.7,2.7
	c-1.1,0.5-2.2,0.8-3.4,1.2c-1.4,0.4-2.9,0.7-4.4,0.8c0,0-0.1,0-0.1,0c-1,0.1-2.1,0.2-3.1,0.2c-0.1,0-0.2,0-0.3,0
	c-6.1,0-11.6-1.9-15.5-4.8c-1.3-1-2.5-2.1-3.4-3.4c-1.6-2.1-2.5-4.6-2.5-7.1v-12.6H130.4z"/>
<path class="st4" d="M130.4,122.6v12.6c0,2.5-0.9,4.9-2.4,7c-0.9,1.2-2.1,2.4-3.4,3.4c-1.4,1.1-3,2-4.7,2.7
	c-1.1,0.5-2.2,0.8-3.4,1.2c-1.4,0.4-2.9,0.7-4.4,0.8c-4.9-0.5-9.3-2.2-12.5-4.7c-1.3-1-2.5-2.1-3.4-3.4c-1.6-2.1-2.5-4.6-2.5-7.1
	v-12.6L130.4,122.6L130.4,122.6z"/>
<ellipse class="st5" cx="108.8" cy="122.5" rx="21.7" ry="15.3"/>
<g>
	<ellipse class="st6" cx="108.8" cy="122.3" rx="17.4" ry="11.4"/>
	<circle class="st6" cx="132.3" cy="74.4" r="18.2"/>
</g>
<path class="st7" d="M43.9,77.2c-0.5-3.6,0-7.3,1.5-10.9h25.2c0.9,0,1.7-0.8,1.7-1.7c0-0.9-0.8-1.7-1.7-1.7H47.4
	c3.6-5.2,9.7-8.5,16.4-8.5h22.9c0.9,0,1.7-0.8,1.7-1.7c0-0.9-0.8-1.7-1.7-1.7H63.8c-14.2,0-25.2,12.6-23.3,26.7
	c0.1,0.9,1,1.6,1.9,1.4C43.4,79,44,78.2,43.9,77.2z"/>
<path class="st7" d="M151.8,61.7C151.8,61.7,151.8,61.7,151.8,61.7c0,0,0-0.1-0.1-0.1C147.3,55,140,51,132.1,51H93.5
	c-0.9,0-1.7,0.8-1.7,1.7c0,0.9,0.8,1.7,1.7,1.7h26.9c-15.3,9.1-15.3,31.1,0,40.2h-14.2c-0.9,0-1.7,0.8-1.7,1.7s0.8,1.7,1.7,1.7h25.9
	C150.7,98,162,77.2,151.8,61.7z M132.3,94.5c-11,0-20-9-20-20s9-20,20-20c6.5,0,12.7,3.1,16.6,8.9C157.6,76.6,148.2,94.5,132.3,94.5
	z"/>
<circle class="st7" cx="132.8" cy="64.1" r="2.4"/>
<circle class="st7" cx="124.7" cy="72" r="2.4"/>
<circle class="st7" cx="130.1" cy="84.9" r="2.4"/>
<circle class="st7" cx="144.3" cy="75.6" r="2.4"/>
<path class="st7" d="M125.1,110.3c-8.7-6.1-22.3-6.4-31.4-0.8c0-7.6,0.2-8.9-0.7-11.5h6.4c0.9,0,1.7-0.8,1.7-1.7
	c0-0.9-0.8-1.7-1.7-1.7h-8.1c-7.3-10.9-27.8-13-38.8-3.5c-2.9-2-5.2-4.7-6.8-7.9c-0.4-0.8-1.4-1.2-2.3-0.8c-0.8,0.4-1.2,1.4-0.8,2.3
	c1.7,3.6,4.3,6.6,7.5,8.9c-2,2.6-3.1,5.5-3.1,8.6v0c0,11.9,0,11.4,0,11.7c0,0.1-1,7.4,7,13.2c8.7,6.1,22.3,6.4,31.4,0.8
	c0,4.5,0,6.7,0,6.5c0,0,0,0,0,0c-1.2,15.6,24.5,23.8,39.6,13.2c4.6-3.2,7.1-7.6,7.1-12.2c0-12.2,0-12.7,0-12.7
	C132.1,117.8,129.6,113.5,125.1,110.3z M50.4,102.1c0-3.8,2.2-7,5.3-9.2C66.2,85,84.8,88.2,89.4,98c1,2.2,0.9,3.8,0.9,4.1
	c0,8-9.6,13.6-20,13.6C60,115.7,50.4,110,50.4,102.1L50.4,102.1L50.4,102.1z M85.4,123.7c-0.7,0.6-1.5,1.1-2.4,1.6v-4.8
	c0-0.9-0.6-1.6-1.5-1.7c-1-0.1-1.9,0.7-1.9,1.7v6.4c-1.9,0.7-4,1.2-6.1,1.4v-2.3c0-0.9-0.6-1.6-1.5-1.7c-1-0.1-1.9,0.7-1.9,1.7v2.6
	c-12.4-0.1-22.3-8-19.2-16.8c3.9,4.2,10.8,7.5,19.4,7.5c8.4,0,15.1-3.1,19-7.1c0.2-0.2,0.5-0.1,0.6,0.1c0,0,0,0,0,0
	c0,0.1,0,0.2-0.1,0.3C84.6,117.8,85.6,123.1,85.4,123.7z M108.5,148.8c-12.3-0.1-22.2-8-19.2-16.8c4.6,5,11.8,7.5,19.2,7.5V148.8z
	 M128,138.9v-1.1c0-0.9-0.8-1.7-1.7-1.7c-0.9,0-1.7,0.8-1.7,1.7v5.7c-1.3,1.2-2.9,2.2-4.7,3v-2.4c0-0.9-0.8-1.7-1.7-1.7
	s-1.7,0.8-1.7,1.7v3.6c-1.4,0.4-3,0.7-4.6,0.9v-9.3c2.5-0.3,10.7-1.3,16.3-7.4C129,134.4,128.9,136.7,128,138.9z M126.5,128.8
	c-9,11.7-34.3,8.6-37.3-3.9c-1.1-4.4,0.9-8.4,4.6-11.3c3.7-2.9,9.1-4.7,15.1-4.7C123.6,108.9,133.5,119.7,126.5,128.8z"/>
<path class="st7" d="M94.8,63H77.4c-0.9,0-1.7,0.8-1.7,1.7c0,0.9,0.8,1.7,1.7,1.7h17.4c0.9,0,1.7-0.8,1.7-1.7
	C96.5,63.7,95.7,63,94.8,63z"/>
<path class="st7" d="M69,78h-8.6c-0.9,0-1.7,0.8-1.7,1.7s0.8,1.7,1.7,1.7H69c0.9,0,1.7-0.8,1.7-1.7S69.9,78,69,78z"/>
<path class="st7" d="M74.1,79.7c0,0.9,0.8,1.7,1.7,1.7h28.8c0.9,0,1.7-0.8,1.7-1.7s-0.8-1.7-1.7-1.7H75.8
	C74.8,78,74.1,78.8,74.1,79.7z"/>
<path class="st7" d="M68.4,99c0.9,0,1.7-0.4,2.1-1c0.2-0.2,0.2-0.5,0.2-0.8c0-1-1.1-1.8-2.4-1.8c-1.3,0-2.4,0.8-2.4,1.8
	c0,0.3,0.1,0.6,0.2,0.8C66.6,98.6,67.4,99,68.4,99z"/>
<ellipse class="st7" cx="66.2" cy="106" rx="2.4" ry="1.9"/>
<ellipse class="st7" cx="77.1" cy="102.7" rx="2.4" ry="2"/>
<ellipse class="st7" cx="106.8" cy="117.5" rx="2.4" ry="1.8"/>
<ellipse class="st7" cx="104.6" cy="126.3" rx="2.4" ry="1.9"/>
<ellipse class="st7" cx="115.5" cy="123" rx="2.4" ry="2"/>
</svg>
