<?xml version="1.0" encoding="utf-8"?>
<!-- Generator: Adobe Illustrator 22.0.1, SVG Export Plug-In . SVG Version: 6.00 Build 0)  -->
<svg version="1.1" id="Calque_1" xmlns="http://www.w3.org/2000/svg" xmlns:xlink="http://www.w3.org/1999/xlink" x="0px" y="0px"
	 viewBox="0 0 200 200" style="enable-background:new 0 0 200 200;" xml:space="preserve">
<style type="text/css">
	.st0{fill:#FFFFFF;}
	.st1{fill:#D8EBDD;}
	.st2{fill:none;stroke:#010101;stroke-miterlimit:10;}
	.st3{fill:#0951A0;}
	.st4{fill:#EEEDEE;}
	.st5{fill:#EC222A;}
</style>
<g id="XMLID_1_">
	<g>
		<path class="st0" d="M193.6,18.4v163.1c0,6.6-5.4,12-12,12H18.4c-6.6,0-12-5.4-12-12V18.4c0-6.6,5.4-12,12-12h163.1
			C188.2,6.4,193.6,11.8,193.6,18.4z M184.1,171.9V28.1c0-6.6-5.4-12-12-12H28.2c-6.6,0-12,5.4-12,12V172c0,6.6,5.4,12,12,12h143.9
			C178.7,183.9,184.1,178.5,184.1,171.9z"/>
		<path class="st1" d="M184.1,28.1V172c0,6.6-5.4,12-12,12H28.2c-6.6,0-12-5.4-12-12V28.1c0-6.6,5.4-12,12-12h143.9
			C178.7,16.1,184.1,21.5,184.1,28.1z"/>
	</g>
	<g>
		<path class="st2" d="M172.1,183.9H28.2c-6.6,0-12-5.4-12-12V28.1c0-6.6,5.4-12,12-12h143.9c6.6,0,12,5.4,12,12V172
			C184.1,178.5,178.7,183.9,172.1,183.9z"/>
		<path class="st2" d="M181.6,193.6H18.4c-6.6,0-12-5.4-12-12V18.4c0-6.6,5.4-12,12-12h163.1c6.6,0,12,5.4,12,12v163.1
			C193.6,188.2,188.2,193.6,181.6,193.6z"/>
	</g>
</g>
<path class="st3" d="M140.8,59H59.5c-6.4,0-11.6,5.2-11.6,11.6v2.9v46.4v2.9c0,6.4,5.2,11.6,11.6,11.6h81.2
	c6.4,0,11.6-5.2,11.6-11.6v-2.9V73.5v-2.9C152.4,64.2,147.2,59,140.8,59z"/>
<g>
	<rect x="47.9" y="70.6" class="st4" width="104.4" height="2.9"/>
	<polygon class="st4" points="152.4,119.9 47.9,119.9 47.9,122.8 152.4,122.8 	"/>
</g>
<path class="st5" d="M152.4,119.9V73.5H47.9v46.4l0,0H152.4L152.4,119.9z M86.5,80c9.3,0,16.8,7.5,16.8,16.8s-7.5,16.8-16.8,16.8
	S69.7,106,69.7,96.7S77.2,80,86.5,80z"/>
<path class="st0" d="M82.8,91.7l3.6-11.2l3.6,11.2h11.8l-9.5,6.9l3.6,11.2l-9.5-6.9l-9.5,6.9l3.6-11.2L71,91.7H82.8z M86.5,113.5
	c9.3,0,16.8-7.5,16.8-16.8S95.7,80,86.5,80s-16.8,7.5-16.8,16.8S77.2,113.5,86.5,113.5"/>
<path class="st5" d="M76.9,109.8l9.5-6.9l9.5,6.9l-3.6-11.2l9.5-6.9H90.1l-3.6-11.2l-3.6,11.2H71l9.5,6.9L76.9,109.8z"/>
</svg>
