<?xml version="1.0" encoding="utf-8"?>
<!-- Generator: Adobe Illustrator 22.0.1, SVG Export Plug-In . SVG Version: 6.00 Build 0)  -->
<svg version="1.1" id="Calque_1" xmlns="http://www.w3.org/2000/svg" xmlns:xlink="http://www.w3.org/1999/xlink" x="0px" y="0px"
	 viewBox="0 0 200 200" style="enable-background:new 0 0 200 200;" xml:space="preserve">
<style type="text/css">
	.st0{fill:#FFFFFF;}
	.st1{fill:#D8EBDD;}
	.st2{fill:none;stroke:#010101;stroke-miterlimit:10;}
	.st3{fill:#F5F6F6;}
	.st4{fill:#F04F59;}
	.st5{fill:#42489B;}
	.st6{fill:#464755;}
</style>
<g id="XMLID_1_">
	<g>
		<path class="st0" d="M194,18.4v163.1c0,6.6-5.4,12-12,12H18.8c-6.6,0-12-5.4-12-12V18.4c0-6.6,5.4-12,12-12h163.1
			C188.6,6.4,194,11.8,194,18.4z M184.5,171.9V28.1c0-6.6-5.4-12-12-12H28.6c-6.6,0-12,5.4-12,12V172c0,6.6,5.4,12,12,12h143.9
			C179.1,183.9,184.5,178.5,184.5,171.9z"/>
		<path class="st1" d="M184.5,28.1V172c0,6.6-5.4,12-12,12H28.6c-6.6,0-12-5.4-12-12V28.1c0-6.6,5.4-12,12-12h143.9
			C179.1,16.1,184.5,21.5,184.5,28.1z"/>
	</g>
	<g>
		<path class="st2" d="M172.5,183.9H28.6c-6.6,0-12-5.4-12-12V28.1c0-6.6,5.4-12,12-12h143.9c6.6,0,12,5.4,12,12V172
			C184.5,178.5,179.1,183.9,172.5,183.9z"/>
		<path class="st2" d="M182,193.6H18.8c-6.6,0-12-5.4-12-12V18.4c0-6.6,5.4-12,12-12h163.1c6.6,0,12,5.4,12,12v163.1
			C194,188.2,188.6,193.6,182,193.6z"/>
	</g>
</g>
<path class="st3" d="M145.8,61.6H51.7c-4.6,0-8.3,3.7-8.3,8.3v55.9c0,4.6,3.7,8.3,8.3,8.3h94.1c4.6,0,8.3-3.7,8.3-8.3V69.9
	C154.1,65.3,150.4,61.6,145.8,61.6z"/>
<path class="st4" d="M109.4,81.9c-8.8-5.8-20.6-3.5-26.4,5.3c-2.9,4.4-1.7,10.3,2.6,13.2c4.4,2.9,10.3,1.7,13.2-2.6
	c2.9-4.4,8.8-5.6,13.2-2.6c4.4,2.9,5.6,8.9,2.6,13.2C120.5,99.6,118.1,87.8,109.4,81.9"/>
<path class="st5" d="M82.9,87.2c-2.9,4.4-1.7,10.3,2.6,13.2c4.4,2.9,10.3,1.7,13.2-2.6c2.9-4.4,8.8-5.6,13.2-2.6
	c4.4,2.9,5.6,8.9,2.6,13.2c-5.8,8.8-17.7,11.1-26.4,5.3C79.5,107.8,77.1,96,82.9,87.2"/>
<g>
	<path class="st6" d="M119.1,74.7l3.5,5.2c0.3,0.4,0.2,1-0.3,1.3l-0.9,0.6c-0.4,0.3-1,0.2-1.3-0.3l-3.5-5.2c-0.3-0.4-0.2-1,0.3-1.3
		l0.9-0.6C118.2,74.2,118.8,74.3,119.1,74.7z"/>
	<path class="st6" d="M124.4,82.8l3.5,5.2c0.3,0.4,0.2,1-0.3,1.3l-0.9,0.6c-0.4,0.3-1,0.2-1.3-0.3l-3.5-5.2c-0.3-0.4-0.2-1,0.3-1.3
		l0.9-0.6C123.5,82.2,124.1,82.3,124.4,82.8z"/>
	<path class="st6" d="M122.8,72.3l8.8,13.2c0.3,0.4,0.2,1-0.3,1.3l-0.9,0.6c-0.4,0.3-1,0.2-1.3-0.3l-8.8-13.2
		c-0.3-0.4-0.2-1,0.3-1.3l0.9-0.6C121.9,71.7,122.5,71.8,122.8,72.3z"/>
	<path class="st6" d="M126.5,69.8l3.5,5.2c0.3,0.4,0.2,1-0.3,1.3l-0.9,0.6c-0.4,0.3-1,0.2-1.3-0.3l-3.5-5.2c-0.3-0.4-0.2-1,0.3-1.3
		l0.9-0.6C125.6,69.2,126.2,69.3,126.5,69.8z"/>
	<path class="st6" d="M131.8,77.8l3.5,5.2c0.3,0.4,0.2,1-0.3,1.3l-0.9,0.6c-0.4,0.3-1,0.2-1.3-0.3l-3.5-5.2c-0.3-0.4-0.2-1,0.3-1.3
		l0.9-0.6C130.9,77.3,131.5,77.4,131.8,77.8z"/>
	<path class="st6" d="M72.1,106l8.8,13.2c0.3,0.4,0.2,1-0.3,1.3l-0.9,0.6c-0.4,0.3-1,0.2-1.3-0.3l-8.8-13.2c-0.3-0.4-0.2-1,0.3-1.3
		l0.9-0.6C71.3,105.5,71.8,105.6,72.1,106z"/>
	<path class="st6" d="M68.4,108.5l3.5,5.2c0.3,0.4,0.2,1-0.3,1.3l-0.9,0.6c-0.4,0.3-1,0.2-1.3-0.3l-3.5-5.2c-0.3-0.4-0.2-1,0.3-1.3
		l0.9-0.6C67.6,107.9,68.1,108,68.4,108.5z"/>
	<path class="st6" d="M73.8,116.5l3.5,5.2c0.3,0.4,0.2,1-0.3,1.3l-0.9,0.6c-0.4,0.3-1,0.2-1.3-0.3l-3.5-5.2c-0.3-0.4-0.2-1,0.3-1.3
		l0.9-0.6C72.9,116,73.5,116.1,73.8,116.5z"/>
	<path class="st6" d="M64.7,111l8.8,13.2c0.3,0.4,0.2,1-0.3,1.3l-0.9,0.6c-0.4,0.3-1,0.2-1.3-0.3l-8.8-13.2c-0.3-0.4-0.2-1,0.3-1.3
		l0.9-0.6C63.9,110.4,64.4,110.5,64.7,111z"/>
	<path class="st6" d="M69.7,88l8.8-13.2c0.3-0.4,0.9-0.6,1.3-0.3l0.9,0.6c0.4,0.3,0.6,0.9,0.3,1.3l-8.8,13.2
		c-0.3,0.4-0.9,0.6-1.3,0.3l-0.9-0.6C69.5,89,69.4,88.4,69.7,88z"/>
	<path class="st6" d="M66,85.5l8.8-13.2c0.3-0.4,0.9-0.6,1.3-0.3l0.9,0.6c0.4,0.3,0.6,0.9,0.3,1.3l-8.8,13.2
		c-0.3,0.4-0.9,0.6-1.3,0.3l-0.9-0.6C65.8,86.5,65.7,85.9,66,85.5z"/>
	<path class="st6" d="M62.3,83l8.8-13.3c0.3-0.4,0.9-0.6,1.3-0.3l0.9,0.6c0.4,0.3,0.6,0.9,0.3,1.3l-8.8,13.3
		c-0.3,0.4-0.9,0.6-1.3,0.3l-0.9-0.6C62.1,84.1,62,83.5,62.3,83z"/>
	<path class="st6" d="M116.6,119.2l3.5-5.2c0.3-0.4,0.9-0.6,1.3-0.3l0.9,0.6c0.4,0.3,0.6,0.9,0.3,1.3l-3.5,5.2
		c-0.3,0.4-0.9,0.6-1.3,0.3l-0.9-0.6C116.4,120.3,116.3,119.7,116.6,119.2z"/>
	<path class="st6" d="M121.9,111.2l3.5-5.2c0.3-0.4,0.9-0.6,1.3-0.3l0.9,0.6c0.4,0.3,0.6,0.9,0.3,1.3l-3.5,5.2
		c-0.3,0.4-0.9,0.6-1.3,0.3l-0.9-0.6C121.8,112.3,121.7,111.7,121.9,111.2z"/>
	<path class="st6" d="M120.3,121.7l3.5-5.2c0.3-0.4,0.9-0.6,1.3-0.3l0.9,0.6c0.4,0.3,0.6,0.9,0.3,1.3l-3.5,5.2
		c-0.3,0.4-0.9,0.6-1.3,0.3l-0.9-0.6C120.1,122.8,120,122.2,120.3,121.7z"/>
	<path class="st6" d="M125.7,113.7l3.5-5.2c0.3-0.4,0.9-0.6,1.3-0.3l0.9,0.6c0.4,0.3,0.6,0.9,0.3,1.3l-3.5,5.2
		c-0.3,0.4-0.9,0.6-1.3,0.3l-0.9-0.6C125.5,114.7,125.4,114.1,125.7,113.7z"/>
	<path class="st6" d="M124,124.2l3.5-5.2c0.3-0.4,0.9-0.6,1.3-0.3l0.9,0.6c0.4,0.3,0.6,0.9,0.3,1.3l-3.5,5.2
		c-0.3,0.4-0.9,0.6-1.3,0.3l-0.9-0.6C123.8,125.2,123.7,124.6,124,124.2z"/>
	<path class="st6" d="M129.4,116.2l3.5-5.2c0.3-0.4,0.9-0.6,1.3-0.3l0.9,0.6c0.4,0.3,0.6,0.9,0.3,1.3l-3.5,5.2
		c-0.3,0.4-0.9,0.6-1.3,0.3l-0.9-0.6C129.2,117.2,129.1,116.6,129.4,116.2z"/>
</g>
</svg>
