<?xml version="1.0" encoding="utf-8"?>
<!-- Generator: Adobe Illustrator 22.0.1, SVG Export Plug-In . SVG Version: 6.00 Build 0)  -->
<svg version="1.1" id="Calque_1" xmlns="http://www.w3.org/2000/svg" xmlns:xlink="http://www.w3.org/1999/xlink" x="0px" y="0px"
	 viewBox="0 0 200 200" style="enable-background:new 0 0 200 200;" xml:space="preserve">
<style type="text/css">
	.st0{fill:#FFFFFF;}
	.st1{fill:#D8EBDD;}
	.st2{fill:none;stroke:#010101;stroke-miterlimit:10;}
	.st3{fill:#273986;}
	.st4{fill:#EEEDEE;}
	.st5{fill:#D0202D;}
</style>
<g id="XMLID_1_">
	<g>
		<path class="st0" d="M194,18.4v163.1c0,6.6-5.4,12-12,12H18.8c-6.6,0-12-5.4-12-12V18.4c0-6.6,5.4-12,12-12h163.1
			C188.6,6.4,194,11.8,194,18.4z M184.5,171.9V28.1c0-6.6-5.4-12-12-12H28.6c-6.6,0-12,5.4-12,12V172c0,6.6,5.4,12,12,12h143.9
			C179.1,183.9,184.5,178.5,184.5,171.9z"/>
		<path class="st1" d="M184.5,28.1V172c0,6.6-5.4,12-12,12H28.6c-6.6,0-12-5.4-12-12V28.1c0-6.6,5.4-12,12-12h143.9
			C179.1,16.1,184.5,21.5,184.5,28.1z"/>
	</g>
	<g>
		<path class="st2" d="M172.5,183.9H28.6c-6.6,0-12-5.4-12-12V28.1c0-6.6,5.4-12,12-12h143.9c6.6,0,12,5.4,12,12V172
			C184.5,178.5,179.1,183.9,172.5,183.9z"/>
		<path class="st2" d="M182,193.6H18.8c-6.6,0-12-5.4-12-12V18.4c0-6.6,5.4-12,12-12h163.1c6.6,0,12,5.4,12,12v163.1
			C194,188.2,188.6,193.6,182,193.6z"/>
	</g>
</g>
<path class="st3" d="M138.6,59H56.3c-3,0-5.7,1.1-7.7,2.9l0,0c-2.5,2.2-4,5.3-4,8.8v52.9c0,3.5,1.6,6.7,4,8.8l0,0
	c2.1,1.8,4.8,2.9,7.7,2.9h82.3c6.5,0,11.8-5.3,11.8-11.8v-2.9V106V88.4V73.7v-2.9C150.3,64.2,145.1,59,138.6,59z M85.2,88.4
	L85.2,88.4L64.9,73.7L85.2,88.4z"/>
<g>
	<polygon class="st4" points="150.3,73.7 64.9,73.7 85.2,88.4 150.3,88.4 	"/>
	<polygon class="st4" points="85.2,106 64.9,120.7 150.3,120.7 150.3,106 	"/>
</g>
<path class="st5" d="M64.9,73.7L48.6,61.9c-2.5,2.1-4,5.3-4,8.8v52.9c0,3.5,1.6,6.7,4,8.8l16.3-11.8L85.2,106l12.2-8.8l-12.2-8.8
	L64.9,73.7z"/>
<path class="st0" d="M66.6,98.9l5.9-4.3h-7.3l-2.3-6.9l-2.3,6.9h-7.3l5.9,4.3l-2.3,6.9l5.9-4.3l5.9,4.3L66.6,98.9z"/>
</svg>
