<?xml version="1.0" encoding="utf-8"?>
<!-- Generator: Adobe Illustrator 22.0.1, SVG Export Plug-In . SVG Version: 6.00 Build 0)  -->
<svg version="1.1" id="Calque_1" xmlns="http://www.w3.org/2000/svg" xmlns:xlink="http://www.w3.org/1999/xlink" x="0px" y="0px"
	 viewBox="0 0 200 200" style="enable-background:new 0 0 200 200;" xml:space="preserve">
<style type="text/css">
	.st0{fill:#D8C3DF;}
	.st1{fill:#FFFFFF;}
	.st2{fill:none;stroke:#010101;stroke-miterlimit:10;}
	.st3{fill:#FFDD95;}
	.st4{fill:#010101;}
	.st5{fill:#F27CA2;}
</style>
<g id="XMLID_1_">
	<g>
		<path class="st0" d="M172.1,16.1c6.6,0,12,5.4,12,12V172c0,6.6-5.4,12-12,12H28.2c-6.6,0-12-5.4-12-12V28.1c0-6.6,5.4-12,12-12
			H172.1z"/>
		<path class="st1" d="M184.1,28.1c0-6.6-5.4-12-12-12H28.2c-6.6,0-12,5.4-12,12V172c0,6.6,5.4,12,12,12h143.9c6.6,0,12-5.4,12-12
			L184.1,28.1L184.1,28.1z M18.4,6.4h163.1c6.6,0,12,5.4,12,12v163.1c0,6.6-5.4,12-12,12H18.4c-6.6,0-12-5.4-12-12V18.4
			C6.4,11.8,11.8,6.4,18.4,6.4z"/>
	</g>
	<g>
		<path class="st2" d="M172.1,183.9H28.2c-6.6,0-12-5.4-12-12V28.1c0-6.6,5.4-12,12-12h143.9c6.6,0,12,5.4,12,12V172
			C184.1,178.5,178.7,183.9,172.1,183.9z"/>
		<path class="st2" d="M181.6,193.6H18.4c-6.6,0-12-5.4-12-12V18.4c0-6.6,5.4-12,12-12h163.1c6.6,0,12,5.4,12,12v163.1
			C193.6,188.2,188.2,193.6,181.6,193.6z"/>
	</g>
</g>
<path class="st3" d="M84,47.1h25.7c0,0,19.2,57.9-2.5,97.5c0,0-2,5.2-6.3,5.2c-4.3,0-6.1-2.8-6.1-2.8s-5.9-5.1-3.9-15.9
	c2-10.8-4.6-20.8-11.1-29.2c-6.6-8.5,2.1-17.9,9.2-23.8C95.8,72.2,84,47.1,84,47.1z"/>
<path class="st4" d="M100.8,151.6c-4.5,0-6.8-2.6-7.4-3.3c-1-1-6.3-6.6-4.3-17.3c1.8-9.9-4.1-19.3-10.8-27.9
	c-5.7-7.3-2.5-16.1,9.4-26.2c2.3-1.9,2.2-7.6-0.3-15.9c-2-6.8-4.9-13-5-13.1c-0.2-0.5-0.2-1.1,0.1-1.6c0.3-0.5,0.9-0.8,1.4-0.8h25.7
	c0.7,0,1.4,0.5,1.6,1.2c0,0.1,4.9,14.9,6.9,34.3c1.9,17.9,1.8,43.7-9.6,64.5C108.3,146.3,105.9,151.6,100.8,151.6z M86.6,48.8
	c1.1,2.5,2.7,6.6,4.1,11.1c3,10.2,2.8,16.5-0.7,19.5C79.5,88.3,76.6,95.3,81,101c7.2,9.2,13.5,19.3,11.5,30.6
	c-1.8,9.7,3.3,14.2,3.4,14.3c0.1,0.1,0.2,0.2,0.3,0.4c0,0.1,1.4,2,4.7,2c3.1,0,4.7-4.1,4.7-4.1c0-0.1,0.1-0.1,0.1-0.2
	c19.4-35.4,5.3-86.7,2.8-95L86.6,48.8L86.6,48.8z"/>
<path class="st4" d="M97,96.4c-0.7,0-1.4-0.5-1.6-1.2c-0.3-0.9,0.2-1.9,1.1-2.1l17.7-5.9L89,63.7c-0.5-0.4-0.7-1.1-0.5-1.7
	c0.2-0.6,0.7-1.1,1.4-1.2l22.1-3.4c0.9-0.1,1.8,0.5,1.9,1.4c0.1,0.9-0.5,1.8-1.4,1.9l-18.6,2.9l24.6,23.1c0.4,0.4,0.6,1,0.5,1.6
	c-0.1,0.6-0.6,1.1-1.1,1.2l-20.4,6.8C97.3,96.4,97.1,96.4,97,96.4z"/>
<path class="st5" d="M100,93.6c-1.8-7.1-6.6-12.3-11-15.7c-0.1,0.1-0.1,0.2-0.2,0.2c-7,5.9-15.7,15.4-9.2,23.8
	c6.6,8.5,13.1,18.4,11.1,29.2c-2,10.8,3.9,15.9,3.9,15.9s1.8,2.8,6.1,2.8c4.3,0,6.3-5.2,6.3-5.2c2.4-4.4,4.3-9.1,5.8-13.9
	C102.4,121.6,103.3,106.7,100,93.6z"/>
<path class="st4" d="M100.8,151.6c-4.5,0-6.8-2.6-7.4-3.3c-1-1-6.3-6.6-4.3-17.3c1.8-9.9-4.1-19.3-10.8-27.9
	c-5.7-7.3-2.5-16.1,9.4-26.2c0,0,0.1-0.1,0.1-0.1c0.6-0.6,1.6-0.6,2.2-0.1c6.1,4.7,10,10.3,11.6,16.6c0.9,3.6,1.5,7.3,2.1,10.9
	c1.6,9.8,3,19.1,10.3,25.3c0.5,0.4,0.7,1.1,0.5,1.8c-1.6,5.1-3.6,9.9-5.9,14.1C108.3,146.3,105.9,151.6,100.8,151.6z M89.1,80.2
	C79.4,88.6,76.7,95.5,81,101c7.2,9.2,13.5,19.3,11.5,30.6c-1.8,9.7,3.3,14.2,3.4,14.3c0.1,0.1,0.2,0.2,0.3,0.4c0,0.1,1.4,2,4.7,2
	c3.1,0,4.7-4.1,4.7-4.1c0-0.1,0.1-0.1,0.1-0.2c2.1-3.8,3.9-8,5.4-12.6c-7.5-7-9.1-17-10.6-26.6c-0.6-3.5-1.1-7.2-2-10.6l0,0
	C97.1,88.8,94,84.2,89.1,80.2z"/>
<path class="st4" d="M151.3,152.5H85.1c-0.9,0-1.7-0.8-1.7-1.7c0-0.9,0.8-1.7,1.7-1.7h66.3c0.9,0,1.7,0.8,1.7,1.7
	C153,151.7,152.3,152.5,151.3,152.5z"/>
<path class="st4" d="M74.9,152.5H51.1c-0.9,0-1.7-0.8-1.7-1.7c0-0.9,0.8-1.7,1.7-1.7h23.8c0.9,0,1.7,0.8,1.7,1.7
	S75.8,152.5,74.9,152.5z"/>
</svg>
