<?xml version="1.0" encoding="utf-8"?>
<!-- Generator: Adobe Illustrator 22.0.1, SVG Export Plug-In . SVG Version: 6.00 Build 0)  -->
<svg version="1.1" id="Calque_1" xmlns="http://www.w3.org/2000/svg" xmlns:xlink="http://www.w3.org/1999/xlink" x="0px" y="0px"
	 viewBox="0 0 200 200" style="enable-background:new 0 0 200 200;" xml:space="preserve">
<style type="text/css">
	.st0{fill:#FFFFFF;}
	.st1{fill:#FBEDB6;}
	.st2{fill:none;stroke:#010101;stroke-miterlimit:10;}
	.st3{fill:#FBAB36;}
	.st4{fill:#BE2032;}
	.st5{fill:#C26A50;}
	.st6{fill:#2A2F33;}
	.st7{fill:#66767F;}
</style>
<g id="XMLID_1_">
	<g>
		<path class="st0" d="M184.1,171.6V27.7c0-6.6-5.4-12-12-12H28.2c-6.6,0-12,5.4-12,12v143.9c0,6.6,5.4,12,12,12h143.9
			C178.7,183.6,184.1,178.2,184.1,171.6z M193.6,18.1v163.1c0,6.6-5.4,12-12,12H18.4c-6.6,0-12-5.4-12-12V18.1c0-6.6,5.4-12,12-12
			h163.1C188.2,6.1,193.6,11.5,193.6,18.1z"/>
		<path class="st1" d="M184.1,27.7v143.9c0,6.6-5.4,12-12,12H28.2c-6.6,0-12-5.4-12-12V27.7c0-6.6,5.4-12,12-12h143.9
			C178.7,15.7,184.1,21.1,184.1,27.7z"/>
	</g>
	<g>
		<path class="st2" d="M172.1,183.6H28.2c-6.6,0-12-5.4-12-12V27.7c0-6.6,5.4-12,12-12h143.9c6.6,0,12,5.4,12,12v143.9
			C184.1,178.2,178.7,183.6,172.1,183.6z"/>
		<path class="st2" d="M181.6,193.2H18.4c-6.6,0-12-5.4-12-12V18.1c0-6.6,5.4-12,12-12h163.1c6.6,0,12,5.4,12,12v163.1
			C193.6,187.8,188.2,193.2,181.6,193.2z"/>
	</g>
</g>
<g transform="matrix(1.25 0 0 -1.25 0 45)">
	<g>
		<g>
			<g>
				<path class="st3" d="M90.6-81.5c-0.2,0.4-0.6,0.8-1,1c-4,4.3-1.2,9.3-1.2,9.3c0,1.4,2.5,5,0,5l-2.5-2.5c-2.5-2.5-2.5-10-2.5-10
					h-5c-1.4,0-2.5-1.1-2.5-2.5c0-1.4,1.1-2.5,2.5-2.5h2.8L80.6-84c-1.2-0.7-1.7-2.2-1-3.4c0.7-1.2,2.2-1.7,3.4-1l6.6,3.6
					C90.8-84.2,91.2-82.7,90.6-81.5"/>
				<path class="st3" d="M73.1-81.5c-0.2,0.4-0.6,0.8-1,1c-4,4.3-1.2,9.3-1.2,9.3c0,1.4,2.5,5,0,5l-2.5-2.5c-2.5-2.5-2.5-10-2.5-10
					h-5c-1.4,0-2.5-1.1-2.5-2.5c0-1.4,1.1-2.5,2.5-2.5h2.8L63.1-84c-1.2-0.7-1.7-2.2-1-3.4c0.7-1.2,2.2-1.7,3.4-1l6.6,3.6
					C73.3-84.2,73.7-82.7,73.1-81.5"/>
			</g>
			<path class="st4" d="M46.2-16.2c5-12.5-7.5-12.5-5-17.5s12.5,5,7.5,17.5S46.2-16.2,46.2-16.2"/>
			<path class="st3" d="M50.9-13.7c0-2.8,4.8-5,0-5s-17.5,2.5-17.5,5s2.7,7.5,7.5,7.5S50.9-11,50.9-13.7"/>
			<path class="st5" d="M48.4-51.2c0,15,8,32.5,2.5,32.5c-10,0-10,4.5-10,10s4.5,10,10,10c17.5,0,15-22.5,10-32.5
				C56.7-39.6,55.8-51.2,48.4-51.2"/>
			<g>
				<path class="st6" d="M123.3-41.2c0-19.9-12.5-28.2-25-28.1c-5.1-4.5-12.3-6.9-20-6.9c-16.6,0-30,12.1-30,27
					c0,14.9,13.4,27,30,27c7.5,6.7,17.5,16.2,25,18.5C118.4-12.7,123.3-23.2,123.3-41.2"/>
				<path class="st6" d="M50.9-6.2c0-1.4-1.1-2.5-2.5-2.5c-1.4,0-2.5,1.1-2.5,2.5s1.1,2.5,2.5,2.5S50.9-4.9,50.9-6.2"/>
			</g>
			<g>
				<path class="st7" d="M78.3-22.2c-4.1,0-7.9-0.7-11.5-2.1c9.8,0.6,15.9,0.1,24-3.9C88.6-24.4,82.4-22.2,78.3-22.2"/>
				<path class="st7" d="M123.2-35.8c-0.2,3.2-0.6,6.1-1.3,8.9C106.2-30.1,113.4-35.8,123.2-35.8"/>
				<path class="st7" d="M118.2-17.8c-1.7,2.9-3.9,5.5-6.6,8C93.7-18.7,104.1-21.6,118.2-17.8"/>
				<path class="st7" d="M121.2-53.9c-8.5,2.7-10.6-2.1-5.5-8.5c-6.2,5.9-10.1,2.7-8.4-5c-3.7,5.5-7.4,0.5-9-1.9
					C107.7-69.4,117.1-64.7,121.2-53.9"/>
				<path class="st7" d="M111.7-9.8c-2.3,2.1-5.1,4.1-8.3,6.1C85.9-12.9,98.4-14.7,111.7-9.8"/>
				<path class="st7" d="M121.2-53.9c1.3,3.6,2.1,7.8,2.1,12.7c0,1.9-0.1,3.7-0.2,5.4c-11.5-1-9.5-7.2,0-8.4
					C114.3-44.3,112.7-49.8,121.2-53.9"/>
				<path class="st7" d="M118.2-17.8c-16.1-6-9.2-10.7,3.7-9.2C121-23.6,119.8-20.6,118.2-17.8"/>
			</g>
		</g>
	</g>
</g>
</svg>
