<?xml version="1.0" encoding="utf-8"?>
<!-- Generator: Adobe Illustrator 22.0.1, SVG Export Plug-In . SVG Version: 6.00 Build 0)  -->
<svg version="1.1" id="Calque_1" xmlns="http://www.w3.org/2000/svg" xmlns:xlink="http://www.w3.org/1999/xlink" x="0px" y="0px"
	 viewBox="0 0 200 200" style="enable-background:new 0 0 200 200;" xml:space="preserve">
<style type="text/css">
	.st0{fill:#FFFFFF;}
	.st1{fill:#FBEDB6;}
	.st2{fill:none;stroke:#010101;stroke-miterlimit:10;}
	.st3{fill:#B47D5B;}
	.st4{fill:#FAA44E;}
	.st5{fill:#FFDEB8;}
	.st6{fill:#C2875A;}
	.st7{fill:#FDCDA6;}
	.st8{fill:#464755;}
</style>
<g id="XMLID_1_">
	<g>
		<path class="st0" d="M184.1,171.6V27.7c0-6.6-5.4-12-12-12H28.2c-6.6,0-12,5.4-12,12v143.9c0,6.6,5.4,12,12,12h143.9
			C178.7,183.6,184.1,178.2,184.1,171.6z M193.6,18.1v163.1c0,6.6-5.4,12-12,12H18.4c-6.6,0-12-5.4-12-12V18.1c0-6.6,5.4-12,12-12
			h163.1C188.2,6.1,193.6,11.5,193.6,18.1z"/>
		<path class="st1" d="M184.1,27.7v143.9c0,6.6-5.4,12-12,12H28.2c-6.6,0-12-5.4-12-12V27.7c0-6.6,5.4-12,12-12h143.9
			C178.7,15.7,184.1,21.1,184.1,27.7z"/>
	</g>
	<g>
		<path class="st2" d="M172.1,183.6H28.2c-6.6,0-12-5.4-12-12V27.7c0-6.6,5.4-12,12-12h143.9c6.6,0,12,5.4,12,12v143.9
			C184.1,178.2,178.7,183.6,172.1,183.6z"/>
		<path class="st2" d="M181.6,193.2H18.4c-6.6,0-12-5.4-12-12V18.1c0-6.6,5.4-12,12-12h163.1c6.6,0,12,5.4,12,12v163.1
			C193.6,187.8,188.2,193.2,181.6,193.2z"/>
	</g>
</g>
<g>
	<path class="st3" d="M59.1,103.1v-60c0-1.2,1-2.1,2.1-2.1l0,0c0.9,0,1.6,0.5,2,1.3l13.7,32.4L59.1,103.1z"/>
	<path class="st3" d="M118,72.4c0,0,18-33.7,22.5-31.4c2,1,2.2,22.5-4.5,49.4L118,72.4z"/>
</g>
<path class="st4" d="M100,58.7c-22.3,0-40.8,6.2-40.8,43.1c0,14.5,2.6,28.8,8.9,36.5C77.6,150,93.1,151,100,151
	c6.9,0,22.3-1,32-12.8c6.2-7.7,8.9-22,8.9-36.5C140.8,64.9,122.2,58.7,100,58.7z"/>
<path class="st5" d="M125.1,144.4c-8.3,0.4-14.5-5.8-14.5-5.8H100H89.3c0,0-6.2,6.2-14.5,5.8c9,6,19.7,6.6,25.1,6.6
	C105.4,151,116.1,150.4,125.1,144.4z"/>
<g>
	<path class="st6" d="M62.1,80.2c3.8-0.8,8.2,1.5,9.4,8.6c1.8,10.7,8.1,30,24.5,32.7h3.9V58.7C83,58.7,68.2,62.3,62.1,80.2z"/>
	<path class="st6" d="M137.8,80.2c-3.8-0.8-8.2,1.5-9.4,8.6c-1.8,10.7-8.1,30-24.5,32.7H100V58.7C116.9,58.7,131.7,62.3,137.8,80.2z
		"/>
</g>
<path class="st7" d="M87.5,136.3c0,5.9,5.6,10.7,12.4,10.7c6.9,0,12.4-4.8,12.4-10.7H87.5z"/>
<path class="st3" d="M91.1,136.3c0,2.9,4,5.3,8.9,5.3c4.9,0,8.9-2.4,8.9-5.3H91.1z"/>
<g>
	<ellipse class="st8" cx="61.8" cy="96.9" rx="4.4" ry="8"/>
	<ellipse class="st8" cx="138.1" cy="96.9" rx="4.4" ry="8"/>
</g>
<path class="st5" d="M100,113.3c-7.3,0-17.8,10.7-17.8,17.8c0,5.3,3.6,10.7,8.9,10.7c4.3,0,6.6-1.9,7.8-4.6c0.2-0.4,0.6-0.7,1.1-0.7
	s0.9,0.3,1.1,0.7c1.2,2.7,3.5,4.6,7.8,4.6c5.3,0,8.9-5.3,8.9-10.7C117.7,123.9,107.3,113.3,100,113.3z"/>
<circle class="st4" cx="100" cy="120.4" r="8.9"/>
<path class="st3" d="M107,119.5c-1.4-0.3-2.8,0.6-3.1,2.1c-0.4,1.9-2,3.2-3.9,3.2s-3.5-1.3-3.9-3.2c-0.3-1.4-1.7-2.4-3.1-2.1
	c-1.4,0.3-2.4,1.7-2.1,3.1c0.7,3.4,3.3,6.1,6.5,7v1.3c0,1.5,1.2,2.7,2.7,2.7c1.5,0,2.7-1.2,2.7-2.7v-1.3c3.2-1,5.8-3.6,6.5-7
	C109.4,121.2,108.4,119.8,107,119.5z"/>
</svg>
