<?xml version="1.0" encoding="utf-8"?>
<!-- Generator: Adobe Illustrator 22.0.1, SVG Export Plug-In . SVG Version: 6.00 Build 0)  -->
<svg version="1.1" id="Calque_1" xmlns="http://www.w3.org/2000/svg" xmlns:xlink="http://www.w3.org/1999/xlink" x="0px" y="0px"
	 viewBox="0 0 200 200" style="enable-background:new 0 0 200 200;" xml:space="preserve">
<style type="text/css">
	.st0{fill:#FFFFFF;}
	.st1{fill:#FBEDB6;}
	.st2{fill:none;stroke:#010101;stroke-miterlimit:10;}
	.st3{fill:#797880;}
	.st4{fill:#89878F;}
	.st5{fill:#FFD8A6;}
	.st6{fill:#FDC174;}
	.st7{fill:#C5C3CA;}
	.st8{fill:#58565D;}
	.st9{fill:#ACABB1;}
	.st10{fill:#3B3B42;}
</style>
<g id="XMLID_1_">
	<g>
		<path class="st0" d="M184.1,171.6V27.7c0-6.6-5.4-12-12-12H28.2c-6.6,0-12,5.4-12,12v143.9c0,6.6,5.4,12,12,12h143.9
			C178.7,183.6,184.1,178.2,184.1,171.6z M193.6,18.1v163.1c0,6.6-5.4,12-12,12H18.4c-6.6,0-12-5.4-12-12V18.1c0-6.6,5.4-12,12-12
			h163.1C188.2,6.1,193.6,11.5,193.6,18.1z"/>
		<path class="st1" d="M184.1,27.7v143.9c0,6.6-5.4,12-12,12H28.2c-6.6,0-12-5.4-12-12V27.7c0-6.6,5.4-12,12-12h143.9
			C178.7,15.7,184.1,21.1,184.1,27.7z"/>
	</g>
	<g>
		<path class="st2" d="M172.1,183.6H28.2c-6.6,0-12-5.4-12-12V27.7c0-6.6,5.4-12,12-12h143.9c6.6,0,12,5.4,12,12v143.9
			C184.1,178.2,178.7,183.6,172.1,183.6z"/>
		<path class="st2" d="M181.6,193.2H18.4c-6.6,0-12-5.4-12-12V18.1c0-6.6,5.4-12,12-12h163.1c6.6,0,12,5.4,12,12v163.1
			C193.6,187.8,188.2,193.2,181.6,193.2z"/>
	</g>
</g>
<path class="st3" d="M161.6,62.3c-0.2-0.2-3.8-6-13.1-12.4c-10.5-7.2-22.8-0.5-23.3-0.2l-0.2,0.1l-12.8,9.5l2.3,3l0,0l5,44.5l0,0
	l-2,3.2c4.6,2.8,9.6,3.9,14.4,3.9c8.4,0,16.3-3.2,20.5-5.7c2.6-1.6,5.6-5.7,8-24.4c1.3-9.7,1.8-18.9,1.8-19.3l0.1-1.2L161.6,62.3z"
	/>
<path class="st4" d="M70.2,49.8L70,49.7c-0.5-0.3-12.8-7-23.3,0.2C37.4,56.2,33.7,62,33.6,62.3l-0.6,1l0.1,1.2
	c0,0.4,0.5,9.5,1.8,19.3c2.4,18.7,5.4,22.9,8,24.4c4.2,2.6,12.1,5.7,20.5,5.7c4.8,0,9.8-1.1,14.4-3.9l-2-3.2l5-44.5l0,0l2.3-3
	L70.2,49.8z"/>
<path class="st5" d="M72.6,134.3l-4.5-6.1c6.9-5.1,9.2-16.5,9.2-16.6l7.4,1.4C84.7,113.6,82,127.4,72.6,134.3z"/>
<path class="st6" d="M122.6,134.3c-9.4-6.9-12-20.7-12.1-21.3l7.4-1.4l-3.7,0.7l3.7-0.7c0,0.1,2.3,11.5,9.2,16.6L122.6,134.3z"/>
<path class="st7" d="M110.4,119.6c-0.9,9.8,0.8,15.7,2.2,18.7l2.4-1.2h10.4v25.1h-10.8l-5.5-3.2c-3.6-0.2-7.7-1.3-11.5-4.6
	c-3.3-2.8-6.4-7.2-8.8-13.8c-2.8-7.9-3.8-16.5-4.1-21l-12.3-11.7c-2.7-2.6-4.4-6-4.8-9.5L66,81.6l0-0.3c0.5-15.1,9.1-22.6,16.3-26.2
	c7.5-3.8,14.9-4.1,15.2-4.2l0.2,0h0l0.2,0c0.3,0,7.7,0.4,15.2,4.2c7.2,3.6,15.8,11.1,16.3,26.2l0,0.3l-1.7,16.7
	c-0.4,3.6-2.1,7-4.8,9.5L110.4,119.6z"/>
<circle class="st8" cx="88.4" cy="90.8" r="3.9"/>
<path class="st9" d="M110.4,119.6c-0.9,9.8,0.8,15.7,2.2,18.7l2.4-1.2h10.4v25.1h-10.8l-5.5-3.2c-3.6-0.2-7.7-1.3-11.5-4.6V51l0.2,0
	c0.3,0,7.7,0.4,15.2,4.2c7.2,3.6,15.8,11.1,16.3,26.2l0,0.3l-1.7,16.7c-0.4,3.6-2.1,7-4.8,9.5L110.4,119.6z"/>
<circle class="st10" cx="106.8" cy="90.8" r="3.9"/>
</svg>
