<?xml version="1.0" encoding="utf-8"?>
<!-- Generator: Adobe Illustrator 22.0.1, SVG Export Plug-In . SVG Version: 6.00 Build 0)  -->
<svg version="1.1" id="Calque_1" xmlns="http://www.w3.org/2000/svg" xmlns:xlink="http://www.w3.org/1999/xlink" x="0px" y="0px"
	 viewBox="0 0 200 200" style="enable-background:new 0 0 200 200;" xml:space="preserve">
<style type="text/css">
	.st0{fill:#D8C3DF;}
	.st1{fill:#FFFFFF;}
	.st2{fill:none;stroke:#010101;stroke-miterlimit:10;}
	.st3{fill:#FFD340;}
	.st4{fill:#D52427;}
	.st5{fill:#EA3937;}
	.st6{fill:#92CECE;}
	.st7{fill:#84B3B8;}
	.st8{fill:#884F20;}
	.st9{fill:#393956;}
	.st10{fill:#FBAB42;}
	.st11{fill:#202133;}
	.st12{fill:#6C3916;}
	.st13{fill:#010101;}
</style>
<g id="XMLID_1_">
	<g>
		<path class="st0" d="M172.1,16.1c6.6,0,12,5.4,12,12V172c0,6.6-5.4,12-12,12H28.2c-6.6,0-12-5.4-12-12V28.1c0-6.6,5.4-12,12-12
			H172.1z"/>
		<path class="st1" d="M184.1,28.1c0-6.6-5.4-12-12-12H28.2c-6.6,0-12,5.4-12,12V172c0,6.6,5.4,12,12,12h143.9c6.6,0,12-5.4,12-12
			L184.1,28.1L184.1,28.1z M18.4,6.4h163.1c6.6,0,12,5.4,12,12v163.1c0,6.6-5.4,12-12,12H18.4c-6.6,0-12-5.4-12-12V18.4
			C6.4,11.8,11.8,6.4,18.4,6.4z"/>
	</g>
	<g>
		<path class="st2" d="M172.1,183.9H28.2c-6.6,0-12-5.4-12-12V28.1c0-6.6,5.4-12,12-12h143.9c6.6,0,12,5.4,12,12V172
			C184.1,178.5,178.7,183.9,172.1,183.9z"/>
		<path class="st2" d="M181.6,193.6H18.4c-6.6,0-12-5.4-12-12V18.4c0-6.6,5.4-12,12-12h163.1c6.6,0,12,5.4,12,12v163.1
			C193.6,188.2,188.2,193.6,181.6,193.6z"/>
	</g>
</g>
<path class="st3" d="M93.1,90c2.4,0,4.3-1.9,4.3-4.3c0-2.1-1.5-3.8-3.5-4.2l-4.5-0.8L88.5,90H93.1L93.1,90z"/>
<path class="st4" d="M107.6,102.4l-12.2-4.6H79.6l9,11.5l4.9-1.6l11.6,2.9c2.3,0.6,4.6-0.8,5.2-3.1
	C110.8,105.4,109.6,103.2,107.6,102.4z"/>
<path class="st5" d="M96.4,130.4c-1.2-5.9-3-14.7-3-14.7L79.6,97.9l-9.9,7.9l13.8,13.8l2.8,13c0.6,2.7,3.2,4.4,5.9,3.8l0.1,0
	C95.1,135.9,96.9,133.2,96.4,130.4C96.4,130.4,96.4,130.4,96.4,130.4z"/>
<path class="st6" d="M73.6,84L85.5,90h3l0.7-9.3l-3.8-0.6L71,72c-2.1-1.2-4.6-1.3-6.8-0.4l-3.9,1.6c-1.5,0.6-2.5,2.1-2.5,3.7v1.8
	c0,1,0.2,1.9,0.6,2.8l11.3,24.4l9.9-7.9L73.6,84z"/>
<path class="st7" d="M81.7,64.1l-4.1,4.1l-7.1,3.6c0.2,0.1,0.4,0.1,0.5,0.2l10.7,6l5.8-3.8l2.2-3.2L81.7,64.1z"/>
<path class="st3" d="M92.4,66.8c1.5-2.2,0.9-5.2-1.3-6.6c-1.9-1.3-4.4-1-6,0.6l-3.3,3.3l7.9,6.8L92.4,66.8z"/>
<polygon class="st8" points="111.2,38.6 95.4,38.6 95.4,80.1 111.2,95.9 111.2,119.6 125,133.4 125,157.2 136.9,157.2 144.8,157.2 
	144.8,88 144.8,38.6 "/>
<path class="st9" d="M58.8,48.4h8.9v5.9c-6.3,0-12.3,2.5-16.8,6.9c-0.6-1.2-1-2.6-1-4C49.9,52.4,53.9,48.4,58.8,48.4z"/>
<path class="st3" d="M67.7,57.3c0,4.9-4,8.9-8.8,8.9c-3.4,0-6.5-1.9-8-4.9c4.5-4.4,10.5-6.9,16.8-6.9V57.3z"/>
<path class="st10" d="M65.7,54.5v0.9c0,4.9-4,8.9-8.9,8.9c-1.9,0-3.7-0.6-5.2-1.7c2.9,4,8.4,4.9,12.4,2c2.3-1.7,3.7-4.4,3.7-7.2v-3
	C67,54.4,66.4,54.4,65.7,54.5z"/>
<path class="st11" d="M67.7,48.4c0.1,2.2-0.6,4.3-2,6c0.7-0.1,1.3-0.1,2-0.1V48.4z"/>
<polygon class="st3" points="136.9,157.2 136.9,95.9 144.8,88 144.8,38.6 111.2,38.6 111.2,60.3 125,74.1 125,157.2 "/>
<path class="st12" d="M111.2,38.6H95.4v4.7c4,0.6,9.7,1.6,15.8,3.2V38.6z"/>
<path class="st10" d="M144.8,63.4V38.6h-33.6v7.9C123.6,49.6,138,54.8,144.8,63.4z"/>
<path class="st13" d="M113.2,59.5V38.6h-4v21.7c0,0.5,0.2,1,0.6,1.4L123.1,75v53.7l-9.9-9.9V95.9c0-0.5-0.2-1-0.6-1.4L97.4,79.3
	V38.6h-4v21.1c-2.4-2.8-6.6-3-9.4-0.6c-0.1,0.1-0.2,0.2-0.4,0.3l-7.2,7.2l-6,3c-2.2-0.8-4.7-0.7-6.9,0.1l-3.9,1.6
	c-2.3,0.9-3.7,3.1-3.7,5.5v1.8c0,1.2,0.3,2.5,0.8,3.6l11.3,24.4c0.1,0.2,0.2,0.4,0.4,0.6l13.4,13.4l2.7,12.4
	c0.7,3.2,3.6,5.5,6.9,5.5c0.5,0,1,0,1.4-0.1c3.8-0.8,6.4-4.5,5.6-8.3c0,0,0,0,0-0.1c-1.2-5.8-3-14.7-3-14.7
	c-0.1-0.3-0.2-0.6-0.4-0.8l-3.2-4.1l1.7-0.6l11.1,2.8c0.5,0.1,1,0.2,1.5,0.2c1.1,0,2.2-0.3,3.1-0.9v7.7c0,0.5,0.2,1,0.6,1.4
	l13.3,13.3v22.9h4v-83c0-0.5-0.2-1-0.6-1.4L113.2,59.5z M93.4,68.8v10.6l-7.2-1.2l-0.6-0.4l3.1-2c0.2-0.1,0.4-0.3,0.5-0.5L93.4,68.8
	z M78.5,70c0.2-0.1,0.4-0.2,0.5-0.4l7.5-7.5c1.1-1.1,2.9-1.1,4,0c0.9,0.9,1.1,2.4,0.3,3.5l-4.7,7l-4.4,2.9l-6.9-3.8L78.5,70z
	 M94,133.1c-0.5,0.7-1.3,1.2-2.2,1.4c-1.6,0.3-3.2-0.7-3.5-2.3l-2.8-13c-0.1-0.4-0.3-0.7-0.5-1l-13.6-13.6L60.2,80.6
	c-0.3-0.6-0.4-1.3-0.4-1.9v-1.8c0-0.8,0.5-1.5,1.2-1.8l3.9-1.6c1.7-0.7,3.5-0.5,5.1,0.3l14.5,8.1c0.2,0.1,0.4,0.2,0.6,0.2l8.3,1.4
	c1.3,0.2,2.1,1.4,1.9,2.7c-0.2,1.1-1.1,1.9-2.3,1.9H86l-11.4-5.7c-1-0.5-2.2-0.1-2.7,0.9c-0.3,0.5-0.3,1.1,0,1.7l5.9,13.8
	c0.1,0.2,0.2,0.3,0.3,0.4l13.6,17.4c0.4,1.9,1.8,9.2,2.9,14.3C94.6,131.6,94.4,132.4,94,133.1z M108.4,107c-0.3,1.2-1.6,2-2.8,1.7
	l-11.6-2.9c-0.4-0.1-0.7-0.1-1.1,0l-3.6,1.2l-5.6-7.2H95l11.9,4.5C108,104.7,108.6,105.9,108.4,107L108.4,107z M108.3,100.6L96.1,96
	c-0.2-0.1-0.5-0.1-0.7-0.1H80.9l-3.3-7.7l7,3.5c0.3,0.1,0.6,0.2,0.9,0.2h7.6c3,0,5.6-2.2,6.2-5.2l10,10v4.3
	C108.9,100.9,108.6,100.7,108.3,100.6L108.3,100.6z"/>
<path class="st13" d="M140.9,38.6v50.6l-5.4,5.4c-0.4,0.4-0.6,0.9-0.6,1.4v61.3h4V96.7l5.4-5.4c0.4-0.4,0.6-0.9,0.6-1.4V38.6H140.9z
	"/>
<path class="st13" d="M58.8,68.2c6,0,10.9-4.9,10.9-10.9v-8.9c0-1.1-0.9-2-2-2h-8.9c-6,0-10.9,4.8-10.9,10.8c0,1.2,0.2,2.4,0.6,3.6
	l0,0l0,0C50.1,65.3,54.2,68.2,58.8,68.2z M58.8,64.3c-2.1,0-4.1-1-5.4-2.6c3.4-3,7.7-4.8,12.3-5.2v0.9
	C65.7,61.2,62.6,64.3,58.8,64.3z M58.8,50.4h6.9v2.1c-5,0.4-9.8,2.2-13.8,5.3c0-0.2,0-0.3,0-0.5C51.9,53.5,55,50.4,58.8,50.4z"/>
</svg>
