<?xml version="1.0" encoding="utf-8"?>
<!-- Generator: Adobe Illustrator 22.0.1, SVG Export Plug-In . SVG Version: 6.00 Build 0)  -->
<svg version="1.1" id="Calque_1" xmlns="http://www.w3.org/2000/svg" xmlns:xlink="http://www.w3.org/1999/xlink" x="0px" y="0px"
	 viewBox="0 0 200 200" style="enable-background:new 0 0 200 200;" xml:space="preserve">
<style type="text/css">
	.st0{fill:#D8C3DF;}
	.st1{fill:#FFFFFF;}
	.st2{fill:none;stroke:#010101;stroke-miterlimit:10;}
	.st3{fill:#4489C9;}
	.st4{fill:#010101;}
	.st5{fill:#ED5582;}
	.st6{fill:#8CC63F;}
</style>
<g id="XMLID_1_">
	<g>
		<path class="st0" d="M172.1,16.1c6.6,0,12,5.4,12,12V172c0,6.6-5.4,12-12,12H28.2c-6.6,0-12-5.4-12-12V28.1c0-6.6,5.4-12,12-12
			H172.1z"/>
		<path class="st1" d="M184.1,28.1c0-6.6-5.4-12-12-12H28.2c-6.6,0-12,5.4-12,12V172c0,6.6,5.4,12,12,12h143.9c6.6,0,12-5.4,12-12
			L184.1,28.1L184.1,28.1z M18.4,6.4h163.1c6.6,0,12,5.4,12,12v163.1c0,6.6-5.4,12-12,12H18.4c-6.6,0-12-5.4-12-12V18.4
			C6.4,11.8,11.8,6.4,18.4,6.4z"/>
	</g>
	<g>
		<path class="st2" d="M172.1,183.9H28.2c-6.6,0-12-5.4-12-12V28.1c0-6.6,5.4-12,12-12h143.9c6.6,0,12,5.4,12,12V172
			C184.1,178.5,178.7,183.9,172.1,183.9z"/>
		<path class="st2" d="M181.6,193.6H18.4c-6.6,0-12-5.4-12-12V18.4c0-6.6,5.4-12,12-12h163.1c6.6,0,12,5.4,12,12v163.1
			C193.6,188.2,188.2,193.6,181.6,193.6z"/>
	</g>
</g>
<path class="st3" d="M52.7,147.2L52.7,147.2c-1.8-1.8-1.8-4.7,0-6.5l16.4-16.4l6.5,6.5l-16.4,16.4C57.4,149,54.5,149,52.7,147.2z"/>
<path class="st4" d="M56,150.4c-1.6,0-3.3-0.6-4.6-1.9c-2.5-2.5-2.5-6.6,0-9.1L67.8,123c0.7-0.7,1.9-0.7,2.6,0l6.5,6.5
	c0.7,0.7,0.7,1.9,0,2.6l-16.4,16.4C59.3,149.8,57.6,150.4,56,150.4z M69.1,127L54,142.1c-1.1,1.1-1.1,2.8,0,3.9
	c1.1,1.1,2.8,1.1,3.9,0L73,130.8L69.1,127z"/>
<path class="st5" d="M81.5,136.8c5.1-5.1,5.1-13.3,0-18.3c-5.1-5.1-13.3-5.1-18.3,0L81.5,136.8z"/>
<path class="st4" d="M81.5,138.6c-0.5,0-0.9-0.2-1.3-0.5l-18.3-18.3c-0.7-0.7-0.7-1.9,0-2.6c5.8-5.8,15.2-5.8,21,0
	c5.8,5.8,5.8,15.2,0,21C82.5,138.4,82,138.6,81.5,138.6z M65.9,118.5L81.4,134c3.1-4.3,2.7-10.4-1.2-14.3
	C76.3,115.8,70.3,115.4,65.9,118.5z"/>
<path class="st4" d="M82.8,119c-0.5,0-0.9-0.2-1.3-0.5c-0.7-0.7-0.7-1.9,0-2.6L147.3,50c0.7-0.7,1.9-0.7,2.6,0
	c0.7,0.7,0.7,1.9,0,2.6l-65.8,65.8C83.8,118.8,83.3,119,82.8,119z"/>
<path class="st3" d="M147.3,147.2L147.3,147.2c-1.8,1.8-4.7,1.8-6.5,0l-16.4-16.4l6.5-6.5l16.4,16.4
	C149.1,142.5,149.1,145.4,147.3,147.2z"/>
<path class="st4" d="M144,150.4c-1.6,0-3.3-0.6-4.6-1.9l-16.4-16.4c-0.7-0.7-0.7-1.9,0-2.6l6.5-6.5c0.7-0.7,1.9-0.7,2.6,0l16.4,16.4
	c2.5,2.5,2.5,6.6,0,9.1C147.3,149.8,145.7,150.4,144,150.4z M127,130.8l15.1,15.1c1.1,1.1,2.8,1.1,3.9,0c1.1-1.1,1.1-2.8,0-3.9
	L130.9,127L127,130.8z"/>
<path class="st6" d="M136.8,118.4c-5.1-5.1-13.3-5.1-18.3,0c-5.1,5.1-5.1,13.3,0,18.3L136.8,118.4z"/>
<path class="st4" d="M118.5,138.6c-0.5,0-0.9-0.2-1.3-0.5c-5.8-5.8-5.8-15.2,0-21c5.8-5.8,15.2-5.8,21,0c0.7,0.7,0.7,1.9,0,2.6
	l-18.3,18.3C119.4,138.4,118.9,138.6,118.5,138.6z M127.6,116.5c-2.8,0-5.7,1.1-7.9,3.2c-3.9,3.9-4.3,10-1.2,14.3l15.5-15.5
	C132.2,117.2,129.9,116.5,127.6,116.5z"/>
<path class="st4" d="M117.2,119c-0.5,0-0.9-0.2-1.3-0.5L50.1,52.6c-0.7-0.7-0.7-1.9,0-2.6c0.7-0.7,1.9-0.7,2.6,0l65.8,65.8
	c0.7,0.7,0.7,1.9,0,2.6C118.1,118.8,117.6,119,117.2,119z"/>
</svg>
