<?xml version="1.0" encoding="utf-8"?>
<!-- Generator: Adobe Illustrator 22.0.1, SVG Export Plug-In . SVG Version: 6.00 Build 0)  -->
<svg version="1.1" id="Calque_1" xmlns="http://www.w3.org/2000/svg" xmlns:xlink="http://www.w3.org/1999/xlink" x="0px" y="0px"
	 viewBox="0 0 200 200" style="enable-background:new 0 0 200 200;" xml:space="preserve">
<style type="text/css">
	.st0{fill:#D8C3DF;}
	.st1{fill:#FFFFFF;}
	.st2{fill:none;stroke:#010101;stroke-miterlimit:10;}
	.st3{fill:#CF3A27;}
	.st4{fill:#73C7AC;}
	.st5{fill:#010101;}
</style>
<g id="XMLID_1_">
	<g>
		<path class="st0" d="M172,15.3c6.6,0,12,5.4,12,12v143.9c0,6.6-5.4,12-12,12H28.1c-6.6,0-12-5.4-12-12V27.3c0-6.6,5.4-12,12-12
			H172z"/>
		<path class="st1" d="M184,27.3c0-6.6-5.4-12-12-12H28.1c-6.6,0-12,5.4-12,12v143.9c0,6.6,5.4,12,12,12H172c6.6,0,12-5.4,12-12
			L184,27.3L184,27.3z M18.3,5.6h163.1c6.6,0,12,5.4,12,12v163.1c0,6.6-5.4,12-12,12H18.3c-6.6,0-12-5.4-12-12V17.6
			C6.3,11,11.7,5.6,18.3,5.6z"/>
	</g>
	<g>
		<path class="st2" d="M172,183.1H28.1c-6.6,0-12-5.4-12-12V27.3c0-6.6,5.4-12,12-12H172c6.6,0,12,5.4,12,12v143.9
			C184,177.7,178.6,183.1,172,183.1z"/>
		<path class="st2" d="M181.5,192.8H18.3c-6.6,0-12-5.4-12-12V17.6c0-6.6,5.4-12,12-12h163.1c6.6,0,12,5.4,12,12v163.1
			C193.5,187.4,188.1,192.8,181.5,192.8z"/>
	</g>
</g>
<polygon class="st3" points="136.4,156.6 136.4,156.4 136.1,156.6 "/>
<g>
	<path class="st1" d="M120.2,65.9c-2.2,4.2-4.7,8.9-7.7,14.1c2.2,3.7,4.4,7.5,6.6,11.2c0.7,1.2,1.4,2.4,2.1,3.6h17.2
		c2-3.2,3.6-5.9,5.1-8.3c-1.8-7.3-5.4-13.8-10.2-19.2C129,66.6,124.6,66.2,120.2,65.9z"/>
	<path class="st1" d="M81,103.1c-0.7-1.2-1.4-2.4-2.1-3.6H61.7c-2,3.2-3.6,5.9-5.1,8.3c1.8,7.3,5.4,13.8,10.2,19.2
		c4.4,0.5,8.8,1,13.1,1.3c2.2-4.2,4.7-8.9,7.7-14.1C85.4,110.5,83.1,106.7,81,103.1z"/>
	<path class="st1" d="M61.7,94.8h17.2c0.7-1.2,1.4-2.4,2.1-3.6c2.2-3.6,4.4-7.4,6.6-11.2c-3-5.3-5.5-9.9-7.7-14.1
		c-4.3,0.3-8.8,0.8-13.1,1.3c-4.9,5.4-8.4,12-10.2,19.2C58,88.9,59.7,91.6,61.7,94.8z"/>
	<path class="st1" d="M116.1,130.7c-2.2-4.2-4.7-8.9-7.7-14.1c-5.6,0.1-11.2,0.1-16.8,0c-3,5.3-5.5,9.9-7.7,14.1
		c2.1,3.5,4,6.8,5.8,10c3.3,0.8,6.8,1.2,10.3,1.2c3.5,0,7-0.4,10.3-1.2C112.2,137.5,114.1,134.2,116.1,130.7z"/>
	<path class="st1" d="M138.4,99.5h-17.2c-0.7,1.2-1.4,2.4-2.1,3.6c-2.2,3.6-4.4,7.4-6.6,11.2c3,5.3,5.5,9.9,7.7,14.1
		c4.3-0.3,8.8-0.8,13.1-1.3c4.9-5.4,8.4-12,10.2-19.2C142,105.3,140.4,102.6,138.4,99.5z"/>
	<path class="st1" d="M89.7,53.5c-1.8,3.2-3.7,6.5-5.8,10c2.2,4.2,4.7,8.9,7.7,14.2c5.6-0.1,11.2-0.1,16.8,0c3-5.3,5.5-9.9,7.7-14.2
		c-2.1-3.5-4-6.8-5.8-10c-3.3-0.8-6.8-1.2-10.3-1.2C96.5,52.3,93.1,52.7,89.7,53.5z"/>
	<path class="st4" d="M91.6,82.4c-2.2,3.8-4.4,7.5-6.6,11.2c-0.7,1.2-1.4,2.4-2.1,3.6c0.7,1.2,1.4,2.4,2.1,3.6
		c2.2,3.7,4.4,7.4,6.6,11.2c5.6,0.1,11.2,0.1,16.8,0c2.2-3.8,4.4-7.5,6.6-11.2c0.7-1.2,1.4-2.4,2.1-3.6c-0.7-1.2-1.4-2.4-2.1-3.6
		c-2.2-3.7-4.4-7.4-6.6-11.2C102.9,82.3,97.2,82.3,91.6,82.4z"/>
	<path class="st4" d="M83.1,55.7c-3.8,1.6-7.4,3.6-10.6,6.1c2.5-0.2,4.9-0.5,7.3-0.6C81,59.3,82.1,57.4,83.1,55.7z"/>
	<path class="st4" d="M144.7,93.5c-0.7,1.1-1.4,2.3-2.2,3.6c0.8,1.3,1.5,2.4,2.2,3.6c0.1-1.2,0.1-2.4,0.1-3.6
		C144.8,95.9,144.8,94.7,144.7,93.5z"/>
	<path class="st4" d="M117,138.6c3.8-1.6,7.4-3.6,10.6-6.1c-2.5,0.2-4.9,0.5-7.3,0.6C119.1,135,118,136.8,117,138.6z"/>
	<path class="st4" d="M120.2,61.1c2.4,0.2,4.9,0.4,7.3,0.6c-3.2-2.5-6.7-4.6-10.6-6.1C118,57.4,119.1,59.3,120.2,61.1z"/>
	<path class="st4" d="M55.4,100.7c0.7-1.1,1.4-2.3,2.2-3.6c-0.8-1.3-1.5-2.4-2.2-3.6c-0.1,1.2-0.1,2.4-0.1,3.6
		C55.2,98.3,55.3,99.5,55.4,100.7z"/>
	<path class="st4" d="M79.9,133.1c-2.4-0.2-4.9-0.4-7.3-0.6c3.2,2.5,6.7,4.6,10.6,6.1C82.1,136.8,81,135,79.9,133.1z"/>
	<path class="st5" d="M148.4,86.4c0-0.1,0-0.1,0-0.2c-1.9-8.6-6.1-16.3-11.9-22.6c-0.1-0.2-0.3-0.3-0.4-0.5
		c-6.3-6.6-14.3-11.5-23.4-13.9c-0.1,0-0.2-0.1-0.3-0.1c-3.9-1-8.1-1.5-12.3-1.5c-4.2,0-8.4,0.5-12.3,1.5c-0.1,0-0.2,0-0.3,0.1
		c-9.1,2.4-17.1,7.3-23.4,13.9c-0.2,0.1-0.3,0.3-0.4,0.5c-5.8,6.3-10,14-11.9,22.6c0,0.1,0,0.1,0,0.2c-0.8,3.4-1.2,7-1.2,10.7
		c0,3.7,0.4,7.3,1.2,10.7c0,0.1,0,0.1,0,0.2c1.9,8.6,6.1,16.3,11.9,22.6c0.1,0.2,0.3,0.3,0.4,0.5c6.3,6.6,14.3,11.5,23.4,13.9
		c0.1,0,0.1,0,0.2,0c4,1,8.1,1.6,12.4,1.6c4.3,0,8.4-0.5,12.4-1.6c0.1,0,0.1,0,0.2,0c9.1-2.4,17.2-7.3,23.4-13.9
		c0.2-0.1,0.3-0.3,0.4-0.5c5.8-6.3,10-14,11.9-22.6c0-0.1,0-0.1,0-0.2c0.8-3.4,1.2-7,1.2-10.7C149.6,93.4,149.2,89.9,148.4,86.4z
		 M117,138.6c1-1.8,2.1-3.6,3.2-5.5c2.4-0.2,4.9-0.4,7.3-0.6C124.4,134.9,120.8,137,117,138.6z M120.2,128.3
		c-2.2-4.2-4.7-8.8-7.7-14.1c2.2-3.7,4.4-7.5,6.6-11.2c0.7-1.2,1.4-2.4,2.1-3.6h17.2c2,3.2,3.6,5.9,5.1,8.3
		c-1.8,7.3-5.4,13.8-10.2,19.2C129,127.6,124.6,128,120.2,128.3z M79.9,133.1c1.1,1.9,2.2,3.7,3.2,5.5c-3.8-1.6-7.4-3.6-10.6-6.1
		C75,132.7,77.4,132.9,79.9,133.1z M79.9,128.3c-4.3-0.3-8.8-0.8-13.1-1.3c-4.9-5.4-8.4-12-10.2-19.2c1.5-2.5,3.2-5.2,5.1-8.3h17.2
		c0.7,1.2,1.4,2.4,2.1,3.6c2.2,3.6,4.4,7.4,6.6,11.2C84.6,119.5,82.1,124.1,79.9,128.3z M83.1,55.7c-1,1.8-2.1,3.6-3.2,5.5
		c-2.4,0.2-4.9,0.4-7.3,0.6C75.7,59.3,79.3,57.2,83.1,55.7z M79.9,65.9c2.2,4.2,4.7,8.9,7.7,14.1c-2.2,3.7-4.4,7.5-6.6,11.2
		c-0.7,1.2-1.4,2.4-2.1,3.6H61.7c-2-3.2-3.6-5.9-5.1-8.3c1.8-7.3,5.4-13.8,10.2-19.2C71.1,66.6,75.5,66.2,79.9,65.9z M117.1,97.1
		c-0.7,1.2-1.4,2.4-2.1,3.6c-2.2,3.7-4.4,7.4-6.6,11.2c-5.6,0.1-11.2,0.1-16.8,0c-2.2-3.8-4.4-7.5-6.6-11.2
		c-0.7-1.2-1.4-2.4-2.1-3.6c0.7-1.2,1.4-2.4,2.1-3.6c2.2-3.7,4.4-7.4,6.6-11.2c5.6-0.1,11.2-0.1,16.8,0c2.2,3.8,4.4,7.5,6.6,11.2
		C115.7,94.7,116.4,95.9,117.1,97.1z M57.6,97.1c-0.8,1.3-1.5,2.4-2.2,3.6c-0.1-1.2-0.1-2.4-0.1-3.6c0-1.2,0-2.4,0.1-3.6
		C56.1,94.7,56.8,95.9,57.6,97.1z M142.5,97.1c0.8-1.3,1.5-2.4,2.2-3.6c0.1,1.2,0.1,2.4,0.1,3.6c0,1.2,0,2.4-0.1,3.6
		C144,99.6,143.3,98.4,142.5,97.1z M138.4,94.8h-17.2c-0.7-1.2-1.4-2.4-2.1-3.6c-2.2-3.6-4.4-7.4-6.6-11.2c3-5.3,5.5-9.9,7.7-14.1
		c4.3,0.3,8.8,0.8,13.1,1.3c4.9,5.4,8.4,12,10.2,19.2C142,88.9,140.4,91.6,138.4,94.8z M120.2,61.1c-1.1-1.9-2.2-3.7-3.2-5.5
		c3.8,1.6,7.4,3.6,10.6,6.1C125.1,61.5,122.7,61.3,120.2,61.1z M116.1,63.5c-2.2,4.2-4.7,8.9-7.7,14.2c-5.6-0.1-11.2-0.1-16.8,0
		c-3-5.3-5.5-9.9-7.7-14.2c2.1-3.5,4-6.8,5.8-10c3.3-0.8,6.8-1.2,10.3-1.2c3.5,0,7,0.4,10.3,1.2C112.2,56.7,114.1,60,116.1,63.5z
		 M89.7,140.7c-1.8-3.2-3.7-6.5-5.8-10c2.2-4.2,4.7-8.9,7.7-14.1c5.6,0.1,11.2,0.1,16.8,0c3,5.3,5.5,9.9,7.7,14.1
		c-2.1,3.5-4,6.8-5.8,10c-3.3,0.8-6.8,1.2-10.3,1.2C96.5,141.9,93.1,141.5,89.7,140.7z"/>
</g>
</svg>
