<?xml version="1.0" encoding="utf-8"?>
<!-- Generator: Adobe Illustrator 22.0.1, SVG Export Plug-In . SVG Version: 6.00 Build 0)  -->
<svg version="1.1" id="Calque_1" xmlns="http://www.w3.org/2000/svg" xmlns:xlink="http://www.w3.org/1999/xlink" x="0px" y="0px"
	 viewBox="0 0 200 200" style="enable-background:new 0 0 200 200;" xml:space="preserve">
<style type="text/css">
	.st0{fill:#FFFFFF;}
	.st1{fill:#F9BCC4;}
	.st2{fill:none;stroke:#000000;stroke-miterlimit:10;}
	.st3{fill:#CE3927;}
	.st4{fill:#CF5A3F;}
	.st5{fill:#85BD94;}
	.st6{fill:#402E21;}
</style>
<g id="XMLID_1_">
	<g>
		<path class="st0" d="M171,186.2c6.6,0,12-5.4,12-12V30.4c0-6.6-5.4-12-12-12H27.1c-6.6,0-12,5.4-12,12v143.9c0,6.6,5.4,12,12,12
			H171z M192.5,183.9c0,6.6-5.4,12-12,12H17.3c-6.6,0-12-5.4-12-12V20.7c0-6.6,5.4-12,12-12h163.1c6.6,0,12,5.4,12,12V183.9z"/>
		<path class="st1" d="M183,174.2c0,6.6-5.4,12-12,12H27.1c-6.6,0-12-5.4-12-12V30.4c0-6.6,5.4-12,12-12H171c6.6,0,12,5.4,12,12
			V174.2z"/>
	</g>
	<g>
		<path class="st2" d="M171,186.2H27.1c-6.6,0-12-5.4-12-12V30.4c0-6.6,5.4-12,12-12H171c6.6,0,12,5.4,12,12v143.9
			C183,180.8,177.6,186.2,171,186.2z"/>
		<path class="st2" d="M180.5,195.9H17.3c-6.6,0-12-5.4-12-12V20.7c0-6.6,5.4-12,12-12h163.1c6.6,0,12,5.4,12,12v163.1
			C192.5,190.5,187.1,195.9,180.5,195.9z"/>
	</g>
</g>
<polygon class="st3" points="135.4,159.7 135.4,159.5 135.2,159.7 "/>
<g>
	<g>
		<path class="st4" d="M126.2,82.9c0.1,0,0.2,0.1,0.3,0.1C126.4,83,126.3,83,126.2,82.9z"/>
		<path class="st4" d="M125.9,82.9c0.1,0,0.2,0,0.2,0.1C126,82.9,126,82.9,125.9,82.9z"/>
		<path class="st4" d="M126.9,83.2c0.1,0,0.2,0.1,0.3,0.1C127.2,83.3,127,83.2,126.9,83.2z"/>
		<path class="st4" d="M126.5,83c0.1,0,0.2,0.1,0.3,0.1C126.7,83.1,126.6,83.1,126.5,83z"/>
		<path class="st4" d="M69,92.4c-0.1,0.1-0.1,0.1-0.2,0.2C68.9,92.6,69,92.5,69,92.4z"/>
		<path class="st4" d="M125.6,82.8c0.1,0,0.1,0,0.2,0C125.7,82.8,125.7,82.8,125.6,82.8z"/>
		<path class="st4" d="M68.6,93.1c0-0.1,0.1-0.2,0.1-0.3C68.7,92.9,68.6,93,68.6,93.1z"/>
		<path class="st4" d="M127.4,83.3c0.1,0,0.2,0.1,0.4,0.2C127.6,83.4,127.5,83.4,127.4,83.3z"/>
		<path class="st4" d="M125.4,82.8c0,0,0.1,0,0.2,0C125.5,82.8,125.5,82.8,125.4,82.8z"/>
		<path class="st4" d="M125.2,82.7c0,0,0.1,0,0.1,0C125.3,82.7,125.3,82.7,125.2,82.7z"/>
		<path class="st4" d="M130.5,85.1c0.1,0.1,0.3,0.2,0.4,0.3C130.7,85.3,130.6,85.2,130.5,85.1z"/>
		<path class="st4" d="M131,85.5c0.1,0.1,0.3,0.2,0.4,0.4C131.3,85.8,131.2,85.6,131,85.5z"/>
		<path class="st4" d="M131.6,86c0.1,0.1,0.3,0.3,0.4,0.4C131.9,86.3,131.7,86.1,131.6,86z"/>
		<path class="st4" d="M68.4,93.6c0-0.1,0.1-0.2,0.1-0.3C68.4,93.4,68.4,93.5,68.4,93.6z"/>
		<path class="st4" d="M128.3,83.8c0.1,0.1,0.3,0.1,0.4,0.2C128.6,83.9,128.4,83.8,128.3,83.8z"/>
		<path class="st4" d="M127.8,83.5c0.1,0.1,0.3,0.1,0.4,0.2C128.1,83.6,127.9,83.6,127.8,83.5z"/>
		<path class="st4" d="M129.4,84.3c0.1,0.1,0.3,0.2,0.4,0.3C129.6,84.5,129.5,84.4,129.4,84.3z"/>
		<path class="st4" d="M128.8,84c0.1,0.1,0.3,0.2,0.4,0.2C129.1,84.2,129,84.1,128.8,84z"/>
		<path class="st4" d="M129.9,84.7c0.1,0.1,0.3,0.2,0.4,0.3C130.2,84.9,130.1,84.8,129.9,84.7z"/>
		<path class="st4" d="M95.3,159.5c-0.3-0.1-0.5-0.2-0.8-0.4C94.8,159.3,95.1,159.4,95.3,159.5z"/>
		<path class="st4" d="M94.1,158.9c-0.2-0.1-0.5-0.3-0.7-0.4C93.7,158.7,93.9,158.8,94.1,158.9z"/>
		<path class="st4" d="M96.5,160c-0.3-0.1-0.5-0.2-0.8-0.3C96,159.8,96.3,159.9,96.5,160z"/>
		<path class="st4" d="M93.1,158.3c-0.2-0.2-0.5-0.3-0.7-0.5C92.6,157.9,92.8,158.1,93.1,158.3z"/>
		<path class="st4" d="M70.3,91.7c-0.1,0-0.1,0-0.2,0.1C70.1,91.7,70.2,91.7,70.3,91.7z"/>
		<path class="st4" d="M132.1,86.5c-0.5-0.1-0.9-0.2-1-0.2c-0.1,0-12.4-2.7-26.2-2.6c-13.4,0.1-25.9,2.5-26.1,2.6
			c-0.3,0-4.8,0.7-8.3,5.3c0,0,0,0,0,0c0.2,0,0.5,0,0.7,0c1.5,0,2.9,1.2,2.9,2.7v4.1c0,1.5-1.4,2.7-2.9,2.7s-2.9-1.2-2.9-2.7v-2.7
			c-0.7,2.7-1.8,6.1-1.8,10.6c0,12.6,4.4,22.1,13.8,30c3.3,2.8,5.7,7.1,8.2,11.8c2.4,4.4,4.9,8.9,8.1,12c0.8,0.2,1.6,0.4,2.4,0.5
			c8-0.8,12.3-8.5,16.4-16c2.5-4.6,4.9-9,8.2-11.8c9.4-7.9,13.8-17.5,13.8-30C137.5,94.2,134.9,89.3,132.1,86.5z M82.8,119
			c0,1.5-1,2.7-2.5,2.7c-1.5,0-2.5-1.2-2.5-2.7v-4.1c0-1.5,1-2.7,2.5-2.7c1.5,0,2.5,1.2,2.5,2.7V119z M92.3,139.6
			c0,1.5-1.4,2.7-2.9,2.7s-2.9-1.2-2.9-2.7v-4.1c0-1.5,1.4-2.7,2.9-2.7s2.9,1.2,2.9,2.7V139.6z M92.3,98.3c0,1.5-1.4,2.7-2.9,2.7
			s-2.9-1.2-2.9-2.7v-4.1c0-1.5,1.4-2.7,2.9-2.7s2.9,1.2,2.9,2.7V98.3z M101.7,119c0,1.5-1.4,2.7-2.9,2.7s-2.9-1.2-2.9-2.7v-4.1
			c0-1.5,1.4-2.7,2.9-2.7s2.9,1.2,2.9,2.7V119z M111.2,139.6c0,1.5-1.4,2.7-2.9,2.7s-2.9-1.2-2.9-2.7v-4.1c0-1.5,1.4-2.7,2.9-2.7
			s2.9,1.2,2.9,2.7V139.6z M111.2,98.3c0,1.5-1.4,2.7-2.9,2.7s-2.9-1.2-2.9-2.7v-4.1c0-1.5,1.4-2.7,2.9-2.7s2.9,1.2,2.9,2.7V98.3z
			 M119.9,119c0,1.5-0.7,2.7-2.2,2.7s-2.2-1.2-2.2-2.7v-4.1c0-1.5,0.7-2.7,2.2-2.7s2.2,1.2,2.2,2.7V119z M129.4,98.3
			c0,1.5-0.7,2.7-2.2,2.7c-1.5,0-2.2-1.2-2.2-2.7v-4.1c0-1.5,0.7-2.7,2.2-2.7c1.5,0,2.2,1.2,2.2,2.7V98.3z"/>
		<path class="st4" d="M69.8,91.8c-0.1,0-0.1,0.1-0.2,0.1C69.7,91.9,69.7,91.9,69.8,91.8z"/>
		<path class="st4" d="M92,157.5c-0.2-0.2-0.5-0.4-0.7-0.6C91.5,157.1,91.8,157.3,92,157.5z"/>
		<path class="st4" d="M69.4,92.1c-0.1,0-0.1,0.1-0.2,0.2C69.2,92.2,69.3,92.1,69.4,92.1z"/>
		<path class="st4" d="M84.5,147.7c-0.1-0.2-0.2-0.4-0.4-0.6C84.3,147.3,84.4,147.5,84.5,147.7z"/>
		<path class="st4" d="M68.3,94.3c0-0.2,0-0.4,0.1-0.5C68.3,93.9,68.3,94.1,68.3,94.3z"/>
		<path class="st4" d="M88.6,154c-0.2-0.2-0.4-0.5-0.6-0.8C88.2,153.5,88.4,153.8,88.6,154z"/>
		<path class="st4" d="M85.3,149.1c-0.1-0.2-0.3-0.5-0.4-0.7C85,148.6,85.2,148.9,85.3,149.1z"/>
		<path class="st4" d="M88.8,154.2c0.7,0.9,1.5,1.8,2.3,2.5C90.3,156,89.5,155.2,88.8,154.2z"/>
		<path class="st4" d="M83.7,146.3c-0.1-0.2-0.2-0.3-0.3-0.5C83.5,146,83.6,146.1,83.7,146.3z"/>
		<path class="st4" d="M87.7,152.9c-0.2-0.2-0.3-0.5-0.5-0.7C87.4,152.4,87.6,152.6,87.7,152.9z"/>
		<path class="st4" d="M86.1,150.4c-0.1-0.2-0.3-0.5-0.4-0.7C85.8,149.9,86,150.2,86.1,150.4z"/>
		<path class="st4" d="M86.9,151.7c-0.2-0.2-0.3-0.5-0.5-0.7C86.6,151.2,86.8,151.4,86.9,151.7z"/>
	</g>
	<g>
		<path class="st5" d="M101.7,57c0-0.1,0.1-0.2,0.1-0.4C101.7,56.7,101.7,56.8,101.7,57z"/>
		<path class="st5" d="M101.5,57.3c0,0,0-0.1,0.1-0.1C101.5,57.2,101.5,57.3,101.5,57.3z"/>
		<path class="st5" d="M112.8,45.3c0.3,0.2,0.6,0.5,0.8,0.8C113.3,45.8,113.1,45.6,112.8,45.3z"/>
		<path class="st5" d="M92.9,49.5c-0.1-0.1-0.2-0.2-0.3-0.3C92.7,49.3,92.8,49.4,92.9,49.5z"/>
		<path class="st5" d="M101.3,57.6C101.3,57.6,101.3,57.6,101.3,57.6C101.3,57.6,101.3,57.6,101.3,57.6z"/>
		<path class="st5" d="M93.3,50c0.1,0.1,0.2,0.2,0.3,0.3C93.5,50.2,93.4,50.1,93.3,50z"/>
		<path class="st5" d="M113.8,46.4c0.2,0.2,0.3,0.4,0.5,0.6C114.1,46.8,114,46.6,113.8,46.4z"/>
		<path class="st5" d="M132.1,66c0.1,0.1,0.1,0.2,0.2,0.3C132.2,66.2,132.2,66.1,132.1,66z"/>
		<path class="st5" d="M131.1,64.8c-0.1-0.1-0.1-0.1-0.2-0.2C131,64.7,131,64.7,131.1,64.8z"/>
		<path class="st5" d="M131.7,65.4c0,0.1,0.1,0.1,0.1,0.2C131.7,65.5,131.7,65.4,131.7,65.4z"/>
		<path class="st5" d="M132.5,66.6c0.1,0.1,0.1,0.2,0.2,0.3C132.6,66.8,132.6,66.7,132.5,66.6z"/>
		<path class="st5" d="M91.9,48.5c0.1,0.1,0.2,0.2,0.3,0.3C92.1,48.7,92,48.6,91.9,48.5z"/>
		<path class="st5" d="M130.2,64c0.1,0.1,0.2,0.1,0.2,0.2C130.4,64.1,130.3,64.1,130.2,64z"/>
		<path class="st5" d="M115,48.4c0.1,0.2,0.2,0.5,0.3,0.7C115.3,48.8,115.1,48.6,115,48.4z"/>
		<path class="st5" d="M129.4,63.5c0.1,0.1,0.2,0.1,0.2,0.2C129.6,63.6,129.5,63.5,129.4,63.5z"/>
		<path class="st5" d="M114.5,47.3c0.1,0.2,0.3,0.4,0.4,0.7C114.7,47.8,114.6,47.6,114.5,47.3z"/>
		<path class="st5" d="M66.1,70.8c0.2,0.4,0.4,0.7,0.5,1C66.5,71.5,66.3,71.1,66.1,70.8z"/>
		<path class="st5" d="M65.5,69.5c0.2,0.4,0.3,0.8,0.5,1.2C65.9,70.3,65.7,69.9,65.5,69.5z"/>
		<path class="st5" d="M68.1,73.9c0.2,0.3,0.5,0.5,0.8,0.8C68.6,74.4,68.4,74.2,68.1,73.9z"/>
		<path class="st5" d="M66.7,72c0.2,0.3,0.4,0.7,0.6,1C67.2,72.6,66.9,72.3,66.7,72z"/>
		<path class="st5" d="M70.6,76c-0.6-0.4-1.2-0.8-1.7-1.3C69.4,75.2,70,75.6,70.6,76z"/>
		<path class="st5" d="M68.1,73.8c-0.2-0.3-0.5-0.5-0.7-0.8C67.6,73.3,67.9,73.6,68.1,73.8z"/>
		<path class="st5" d="M132.7,66.9c-0.2-0.1-0.3-0.2-0.5-0.2c-2.3-1-5.2-0.8-8.5,0.7c-0.9,0.4-2,0.3-2.8-0.3c-0.8-0.6-1.2-1.6-1-2.6
			c0-0.2,0.1-0.4,0.1-0.7c0,0,0,0,0.1,0c-0.9,0.4-2,0.3-2.8-0.3c-0.8-0.6-1.2-1.6-1-2.6c0.4-2.3,0.7-7.5-0.9-11.6
			c-2.9,0.8-8.4,3.3-10,11c0,0,0,0,0,0c0,0,0,0,0,0v0c-0.4,1-1,1.9-2.1,2.1c-1.5,0.3-2.9-0.6-3.2-2.1c-0.1-0.5-0.2-1-0.4-1.5
			c0,0,0,0,0,0c-1.5,0.3-2.9-0.6-3.2-2.1c-0.5-2.3-1.3-4.1-2.2-5.5c-2-1.3-4-1.9-5.1-2.1c-4.4,3.7-4.1,12.3-3.6,15.4
			c0.2,1-0.2,2-1,2.6c-0.8,0.6-1.9,0.8-2.8,0.3c-3.3-1.5-6.2-1.7-8.5-0.7c-2.6,1.1-4,3.6-4.6,4.8c0.6,1.8,1.3,3.3,2,4.5
			c0.7,0.4,1.5,0.8,2.3,1.2c6.7-1.6,16.2-2.5,26.2-2.5c10,0,19.5,0.9,26.2,2.5c3.6-1.5,6.1-3.7,8-9.3
			C133.1,67.6,132.9,67.3,132.7,66.9z"/>
		<path class="st5" d="M64.9,67.9c0.2,0.5,0.3,0.9,0.5,1.4C65.3,68.8,65.1,68.3,64.9,67.9z"/>
		<path class="st5" d="M87.2,45.8c0,0,0.1,0,0.1,0C87.3,45.8,87.2,45.8,87.2,45.8z"/>
		<path class="st5" d="M89.4,46.8c0.1,0,0.2,0.1,0.3,0.2C89.6,46.9,89.5,46.8,89.4,46.8z"/>
		<path class="st5" d="M85.9,45.4c0,0,0.1,0,0.2,0C86,45.4,85.9,45.4,85.9,45.4z"/>
		<path class="st5" d="M88.5,46.3c0.1,0,0.2,0.1,0.3,0.1C88.7,46.4,88.6,46.4,88.5,46.3z"/>
		<path class="st5" d="M90.2,47.2c0.1,0.1,0.2,0.1,0.3,0.2C90.4,47.3,90.3,47.3,90.2,47.2z"/>
		<path class="st5" d="M86.4,45.6c0.1,0,0.1,0,0.2,0.1C86.5,45.6,86.5,45.6,86.4,45.6z"/>
		<path class="st5" d="M87.8,46c0.1,0,0.2,0.1,0.3,0.1C88,46.1,87.9,46.1,87.8,46z"/>
		<path class="st5" d="M90.9,47.7c0.1,0.1,0.2,0.1,0.3,0.2C91.1,47.9,91,47.8,90.9,47.7z"/>
	</g>
	<path class="st6" d="M71,91.5c-1.5,0-2.7,1.2-2.7,2.7v4.1c0,1.5,1.2,2.7,2.7,2.7c1.5,0,2.7-1.2,2.7-2.7v-4.1
		C73.8,92.8,72.5,91.5,71,91.5z"/>
	<path class="st6" d="M89.7,91.5c-1.5,0-2.7,1.2-2.7,2.7v4.1c0,1.5,1.2,2.7,2.7,2.7s2.7-1.2,2.7-2.7v-4.1
		C92.5,92.8,91.2,91.5,89.7,91.5z"/>
	<path class="st6" d="M108.4,91.5c-1.5,0-2.7,1.2-2.7,2.7v4.1c0,1.5,1.2,2.7,2.7,2.7c1.5,0,2.7-1.2,2.7-2.7v-4.1
		C111.2,92.8,110,91.5,108.4,91.5z"/>
	<path class="st6" d="M129.9,98.3v-4.1c0-1.5-1.2-2.7-2.7-2.7s-2.7,1.2-2.7,2.7v4.1c0,1.5,1.2,2.7,2.7,2.7
		C128.7,101.1,129.9,99.8,129.9,98.3z"/>
	<path class="st6" d="M80.4,112.2c-1.5,0-2.7,1.2-2.7,2.7v4.1c0,1.5,1.2,2.7,2.7,2.7c1.5,0,2.7-1.2,2.7-2.7v-4.1
		C83.1,113.4,81.9,112.2,80.4,112.2z"/>
	<path class="st6" d="M99.1,112.2c-1.5,0-2.7,1.2-2.7,2.7v4.1c0,1.5,1.2,2.7,2.7,2.7s2.7-1.2,2.7-2.7v-4.1
		C101.8,113.4,100.6,112.2,99.1,112.2z"/>
	<path class="st6" d="M117.8,112.2c-1.5,0-2.7,1.2-2.7,2.7v4.1c0,1.5,1.2,2.7,2.7,2.7s2.7-1.2,2.7-2.7v-4.1
		C120.5,113.4,119.3,112.2,117.8,112.2z"/>
	<path class="st6" d="M89.7,132.8c-1.5,0-2.7,1.2-2.7,2.7v4.1c0,1.5,1.2,2.7,2.7,2.7s2.7-1.2,2.7-2.7v-4.1
		C92.5,134,91.2,132.8,89.7,132.8z"/>
	<path class="st6" d="M108.4,132.8c-1.5,0-2.7,1.2-2.7,2.7v4.1c0,1.5,1.2,2.7,2.7,2.7c1.5,0,2.7-1.2,2.7-2.7v-4.1
		C111.2,134,110,132.8,108.4,132.8z"/>
	<path class="st6" d="M134.6,81.4c-0.9-0.7-1.8-1.3-2.6-1.8c2.7-2.1,5.1-5.4,6.8-11.1c0.2-0.5,0.1-1.1,0-1.6
		c-0.1-0.3-2.2-6.3-7.9-8.8c-2.7-1.2-5.6-1.4-8.8-0.7c0.1-5.1-0.8-13.2-7.2-17.2c-0.5-0.3-1.1-0.5-1.6-0.4
		c-3.7,0.3-10.3,2.5-14.2,8.9c-3.9-6.4-10.5-8.6-14.2-8.9c-0.6,0-1.2,0.1-1.6,0.4c-6.3,4-7.3,12.1-7.2,17.2
		c-3.2-0.7-6.1-0.5-8.8,0.7c-5.7,2.5-7.8,8.5-7.9,8.8c-0.2,0.5-0.2,1.1,0,1.6c1.7,5.6,4.1,8.9,6.8,11.1c-0.9,0.5-1.7,1.1-2.6,1.8
		c-3.8,3.2-8.4,9.4-8.4,21.3c0,14.1,5.2,25.3,15.8,34.2c2.5,2.1,4.7,6,6.9,10.2c4.4,8,9.8,17.9,20.9,18.9c0.1,0,0.2,0,0.2,0
		c0,0,0,0,0,0c0,0,0,0,0,0c0.1,0,0.2,0,0.2,0c11.1-0.9,16.6-10.9,20.9-18.9c2.3-4.2,4.4-8.1,6.9-10.2c10.6-8.9,15.8-20.1,15.8-34.2
		C143,90.8,138.4,84.6,134.6,81.4z M115.5,144.5c-4.1,7.5-8.3,15.2-16.4,16c-8-0.8-12.3-8.5-16.4-16c-2.5-4.6-4.9-9-8.2-11.8
		c-9.4-7.9-13.8-17.5-13.8-30c0-18.1,11.8-19.9,12.3-20c0.1,0,12.7-2.4,26.1-2.6c13.8-0.1,26,2.6,26.2,2.6c1.1,0.2,12.3,2.4,12.3,20
		c0,12.6-4.4,22.1-13.8,30C120.4,135.5,118,139.9,115.5,144.5z M69.5,63.1c2.3-1,5.2-0.8,8.5,0.7c0.9,0.4,2,0.3,2.8-0.3
		c0.8-0.6,1.2-1.6,1-2.6C81.3,57.6,81,49,85.4,45.3c2.5,0.5,9.2,2.6,11,11.3c0.3,1.5,1.8,2.4,3.2,2.1c1.1-0.2,1.9-1.1,2.1-2.1l0,0
		c0,0,0,0,0,0c0,0,0,0,0,0c1.8-8.7,8.5-10.8,11-11.2c4.4,3.7,4.1,12.3,3.6,15.4c-0.2,1,0.2,2,1,2.6c0.8,0.6,1.9,0.8,2.8,0.3
		c3.3-1.5,6.2-1.7,8.5-0.7c2.6,1.1,4,3.6,4.6,4.8c-1.8,5.6-4.4,7.8-8,9.3c-6.7-1.6-16.2-2.5-26.2-2.5c-10,0-19.5,0.9-26.2,2.5
		c-3.6-1.5-6.1-3.7-7.9-9.3C65.5,66.6,67,64.2,69.5,63.1z"/>
</g>
</svg>
