<?xml version="1.0" encoding="utf-8"?>
<!-- Generator: Adobe Illustrator 22.0.1, SVG Export Plug-In . SVG Version: 6.00 Build 0)  -->
<svg version="1.1" id="Calque_1" xmlns="http://www.w3.org/2000/svg" xmlns:xlink="http://www.w3.org/1999/xlink" x="0px" y="0px"
	 viewBox="0 0 200 200" style="enable-background:new 0 0 200 200;" xml:space="preserve">
<style type="text/css">
	.st0{fill:#F9BCC4;}
	.st1{fill:#FFFFFF;}
	.st2{fill:none;stroke:#000000;stroke-miterlimit:10;}
	.st3{fill:#CE3927;}
	.st4{fill:#FFDB70;}
	.st5{fill:#FDE492;}
	.st6{fill:#EC9922;}
	.st7{fill:#D3D3D3;}
	.st8{fill:#EBEBEB;}
	.st9{fill:#010101;}
</style>
<g id="XMLID_1_">
	<g>
		<path class="st0" d="M184.1,171.9c0,6.6-5.4,12-12,12H28.2c-6.6,0-12-5.4-12-12V28.1c0-6.6,5.4-12,12-12h143.9c6.6,0,12,5.4,12,12
			V171.9z"/>
		<path class="st1" d="M172.1,183.9c6.6,0,12-5.4,12-12V28.1c0-6.6-5.4-12-12-12H28.2c-6.6,0-12,5.4-12,12v143.9c0,6.6,5.4,12,12,12
			H172.1z M6.4,18.4c0-6.6,5.4-12,12-12h163.1c6.6,0,12,5.4,12,12v163.1c0,6.6-5.4,12-12,12H18.4c-6.6,0-12-5.4-12-12V18.4z"/>
	</g>
	<g>
		<path class="st2" d="M172.1,183.9H28.2c-6.6,0-12-5.4-12-12V28.1c0-6.6,5.4-12,12-12h143.9c6.6,0,12,5.4,12,12v143.9
			C184.1,178.5,178.7,183.9,172.1,183.9z"/>
		<path class="st2" d="M181.6,193.6H18.4c-6.6,0-12-5.4-12-12V18.4c0-6.6,5.4-12,12-12h163.1c6.6,0,12,5.4,12,12v163.1
			C193.6,188.2,188.2,193.6,181.6,193.6z"/>
	</g>
</g>
<polygon class="st3" points="136.5,157.4 136.5,157.2 136.2,157.4 "/>
<path class="st4" d="M106.5,92.9H91.2V89L54.6,50.3v-1.9c0-5.3,4.3-9.7,9.6-9.7h42.3c5.3,0,9.6,4.3,9.6,9.7v1.9
	c0,4.6-3.2,8.6-7.7,9.5V91C108.5,92,107.6,92.9,106.5,92.9z"/>
<g>
	<path class="st5" d="M91.2,102.6H48.8c-1.1,0-1.9-0.9-1.9-1.9V69.5c-4.5-0.9-7.7-4.9-7.7-9.5v-1.9c0-5.3,4.3-9.7,9.6-9.7h42.3
		c5.3,0,9.6,4.3,9.6,9.7V60c0,4.6-3.2,8.6-7.7,9.5v31.2C93.1,101.7,92.2,102.6,91.2,102.6z"/>
	<path class="st5" d="M152.7,81.3v71.6h-11.5V149c0-3.2-2.6-5.8-5.8-5.8l0,0c-3.2,0-5.8,2.6-5.8,5.8v3.9h-17.3V94.8l0,0
		c7.4,0,13.5-6.1,13.5-13.6h11.5v1.9c0,2.1,1.7,3.9,3.8,3.9l0,0c2.1,0,3.8-1.7,3.8-3.9v-1.9L152.7,81.3L152.7,81.3z"/>
</g>
<g>
	<ellipse class="st6" cx="123.9" cy="131.6" rx="5.8" ry="5.8"/>
	<ellipse class="st6" cx="141.2" cy="106.5" rx="3.8" ry="3.9"/>
</g>
<path class="st7" d="M62.8,108.4c-10.1,0.2-18.1,8.7-17.8,18.8c0.2,10.2,8.6,18.2,18.7,18c5.6-0.1,10.8-2.8,14.2-7.3
	c6.4,4.7,15.4,3.2,20-3.2c4.7-6.5,3.2-15.5-3.2-20.2c-5.3-3.8-12.4-3.6-17.5,0.5C73.7,110.7,68.3,108.3,62.8,108.4z"/>
<g>
	<rect x="52.7" y="118.1" class="st8" width="3.8" height="3.9"/>
	<rect x="58.4" y="129.7" class="st8" width="3.8" height="3.9"/>
	<rect x="68.1" y="120" class="st8" width="3.8" height="3.9"/>
	<rect x="81.5" y="129.7" class="st8" width="3.8" height="3.9"/>
	<rect x="87.3" y="118.1" class="st8" width="3.8" height="3.9"/>
</g>
<g>
	<rect x="62.3" y="56.1" class="st6" width="5.8" height="3.9"/>
	<rect x="73.8" y="67.7" class="st6" width="5.8" height="3.9"/>
	<rect x="56.5" y="75.5" class="st6" width="5.8" height="3.9"/>
	<rect x="77.7" y="91" class="st6" width="7.7" height="3.9"/>
</g>
<path class="st9" d="M91.2,102.6H48.8c-1.1,0-1.9-0.9-1.9-1.9V69.5c-4.4-0.9-7.7-4.8-7.7-9.5v-1.9c0-5.3,4.3-9.7,9.6-9.7h42.3
	c5.3,0,9.6,4.3,9.6,9.7V60c0,4.7-3.3,8.6-7.7,9.5v31.2C93.1,101.7,92.2,102.6,91.2,102.6z M50.7,98.7h38.5v-31
	c0-1.1,0.9-1.9,1.9-1.9c3.2,0,5.8-2.6,5.8-5.8v-1.9c0-3.2-2.6-5.8-5.8-5.8H48.8c-3.2,0-5.8,2.6-5.8,5.8V60c0,3.2,2.6,5.8,5.8,5.8
	c1.1,0,1.9,0.9,1.9,1.9V98.7z"/>
<path class="st9" d="M106.5,92.9H91.2V89h13.5v-31c0-1.1,0.9-1.9,1.9-1.9c3.2,0,5.8-2.6,5.8-5.8v-1.9c0-3.2-2.6-5.8-5.8-5.8H64.2
	c-3.2,0-5.8,2.6-5.8,5.8v1.9h-3.8v-1.9c0-5.3,4.3-9.7,9.6-9.7h42.3c5.3,0,9.6,4.3,9.6,9.7v1.9c0,4.7-3.3,8.6-7.7,9.5V91
	C108.5,92,107.6,92.9,106.5,92.9z"/>
<path class="st9" d="M152.7,154.9h-11.5c-1.1,0-1.9-0.9-1.9-1.9V149c0-2.1-1.7-3.9-3.8-3.9c-2.1,0-3.8,1.7-3.8,3.9v3.9
	c0,1.1-0.9,1.9-1.9,1.9h-17.3c-1.1,0-1.9-0.9-1.9-1.9V94.8c0-1.1,0.9-1.9,1.9-1.9c6.4,0,11.5-5.2,11.5-11.6c0-1.1,0.9-1.9,1.9-1.9
	h11.5c1.1,0,1.9,0.9,1.9,1.9v1.9c0,1.1,0.9,1.9,1.9,1.9s1.9-0.9,1.9-1.9v-1.9c0-1.1,0.9-1.9,1.9-1.9h7.7c1.1,0,1.9,0.9,1.9,1.9v71.6
	C154.6,154,153.8,154.9,152.7,154.9z M143.1,151h7.7V83.2h-3.8c0,3.2-2.6,5.8-5.8,5.8c-3.2,0-5.8-2.6-5.8-5.8h-7.8
	c-0.9,7-6.4,12.6-13.3,13.4V151h13.5V149c0-4.3,3.5-7.7,7.7-7.7c4.2,0,7.7,3.5,7.7,7.7L143.1,151L143.1,151L143.1,151z"/>
<path class="st9" d="M123.9,139.4c-4.2,0-7.7-3.5-7.7-7.7c0-4.3,3.5-7.7,7.7-7.7c4.2,0,7.7,3.5,7.7,7.7
	C131.6,135.9,128.1,139.4,123.9,139.4z M123.9,127.7c-2.1,0-3.8,1.7-3.8,3.9c0,2.1,1.7,3.9,3.8,3.9c2.1,0,3.8-1.7,3.8-3.9
	C127.7,129.5,126,127.7,123.9,127.7z"/>
<path class="st9" d="M141.2,112.3c-3.2,0-5.8-2.6-5.8-5.8s2.6-5.8,5.8-5.8c3.2,0,5.8,2.6,5.8,5.8S144.4,112.3,141.2,112.3z
	 M141.2,104.5c-1.1,0-1.9,0.9-1.9,1.9s0.9,1.9,1.9,1.9s1.9-0.9,1.9-1.9S142.2,104.5,141.2,104.5z"/>
<path class="st9" d="M63.2,147.1c-10.9,0-19.9-8.8-20.2-19.9c-0.3-11.2,8.6-20.5,19.7-20.8l0,0c5.6-0.1,10.8,2,14.7,5.9
	c5.6-3.6,12.9-3.5,18.4,0.5c3.5,2.6,5.8,6.4,6.5,10.7s-0.3,8.6-2.9,12.2c-2.6,3.5-6.3,5.9-10.6,6.6c-3.7,0.6-7.4-0.1-10.6-1.9
	c-3.7,4.2-8.9,6.6-14.5,6.7C63.5,147.1,63.4,147.1,63.2,147.1z M63.3,110.3c-0.1,0-0.3,0-0.4,0h0c-9,0.2-16.2,7.8-16,16.8
	c0.2,9.1,7.7,16.3,16.7,16.1c5-0.1,9.7-2.5,12.7-6.6c0.6-0.8,1.8-1,2.7-0.4c2.7,2,6,2.8,9.3,2.2c3.3-0.5,6.2-2.3,8.1-5
	c1.9-2.7,2.7-6,2.2-9.3c-0.5-3.3-2.3-6.2-5-8.2c-4.6-3.3-10.8-3.1-15.1,0.4c-0.8,0.7-2,0.6-2.7-0.3
	C72.6,112.4,68.1,110.3,63.3,110.3z"/>
<rect x="53.4" y="120.5" class="st9" width="4.1" height="4.1"/>
<rect x="58.4" y="129.7" class="st9" width="3.8" height="3.9"/>
<rect x="68.1" y="120" class="st9" width="3.8" height="3.9"/>
<rect x="81.5" y="129.7" class="st9" width="3.8" height="3.9"/>
<rect x="87.3" y="118.1" class="st9" width="3.8" height="3.9"/>
<rect x="62.3" y="56.1" class="st9" width="5.8" height="3.9"/>
<rect x="73.8" y="67.7" class="st9" width="5.8" height="3.9"/>
<rect x="56.5" y="75.5" class="st9" width="5.8" height="3.9"/>
<rect x="77.7" y="91" class="st9" width="7.7" height="3.9"/>
</svg>
