<?xml version="1.0" encoding="utf-8"?>
<!-- Generator: Adobe Illustrator 22.0.1, SVG Export Plug-In . SVG Version: 6.00 Build 0)  -->
<svg version="1.1" id="Calque_1" xmlns="http://www.w3.org/2000/svg" xmlns:xlink="http://www.w3.org/1999/xlink" x="0px" y="0px"
	 viewBox="0 0 200 200" style="enable-background:new 0 0 200 200;" xml:space="preserve">
<style type="text/css">
	.st0{fill:#FFFFFF;}
	.st1{fill:#FBEDB6;}
	.st2{fill:none;stroke:#010101;stroke-miterlimit:10;}
	.st3{fill:#FFD296;}
	.st4{fill:#CD965F;}
	.st5{fill:#FCB966;}
	.st6{fill:#C2875A;}
	.st7{fill:#464755;}
</style>
<g id="XMLID_1_">
	<g>
		<path class="st0" d="M184.1,171.6V27.7c0-6.6-5.4-12-12-12H28.2c-6.6,0-12,5.4-12,12v143.9c0,6.6,5.4,12,12,12h143.9
			C178.7,183.6,184.1,178.2,184.1,171.6z M193.6,18.1v163.1c0,6.6-5.4,12-12,12H18.4c-6.6,0-12-5.4-12-12V18.1c0-6.6,5.4-12,12-12
			h163.1C188.2,6.1,193.6,11.5,193.6,18.1z"/>
		<path class="st1" d="M184.1,27.7v143.9c0,6.6-5.4,12-12,12H28.2c-6.6,0-12-5.4-12-12V27.7c0-6.6,5.4-12,12-12h143.9
			C178.7,15.7,184.1,21.1,184.1,27.7z"/>
	</g>
	<g>
		<path class="st2" d="M172.1,183.6H28.2c-6.6,0-12-5.4-12-12V27.7c0-6.6,5.4-12,12-12h143.9c6.6,0,12,5.4,12,12v143.9
			C184.1,178.2,178.7,183.6,172.1,183.6z"/>
		<path class="st2" d="M181.6,193.2H18.4c-6.6,0-12-5.4-12-12V18.1c0-6.6,5.4-12,12-12h163.1c6.6,0,12,5.4,12,12v163.1
			C193.6,187.8,188.2,193.2,181.6,193.2z"/>
	</g>
</g>
<path class="st3" d="M129.7,88.5c0,0,9.3,1.9,14.9-1.9c5.1-3.4,12.2-15.5,13-24.2c0.3-2.7-2.7-4.4-4.9-2.9l-17.4,10.3
	c0,8-7.4,13-7.4,13L129.7,88.5z"/>
<path class="st4" d="M129.3,83.7l-1.2-0.2l-0.2-0.6c0,0,7.4-5,7.4-13l10.1,1.4c1.6,0.2,2.6,2,1.9,3.5
	C142.4,86.2,129.3,83.7,129.3,83.7z"/>
<path class="st3" d="M70.2,88.5c0,0-9.3,1.9-14.9-1.9c-5.1-3.4-12.2-15.5-13-24.2C42,59.7,45,58,47.2,59.5l17.4,10.3
	c0,8,7.4,13,7.4,13L70.2,88.5z"/>
<path class="st5" d="M120.4,43.8c-1.9-1.9-1.9-1.9-5.6-1.9c-3.7,0-5.6,18.6-7.4,20.5s-7.4,1.9-7.4,1.9s-5.6,0-7.4-1.9
	s-3.7-20.5-7.4-20.5s-3.7,0-5.6,1.9C77.6,45.7,77.6,81,77.6,81H100h22.3C122.3,81,122.3,45.7,120.4,43.8z"/>
<g>
	<path class="st3" d="M72,97.8l4.6,32.2c0.6,4.4,3,8.4,6.5,11l9.3,7V97.8H72z"/>
	<path class="st3" d="M127.9,97.8l-4.6,32.2c-0.6,4.4-3,8.4-6.5,11l-9.3,7V97.8H127.9z"/>
</g>
<path class="st6" d="M103.7,157.4h-7.4c-4.1,0-7.4-3.4-7.4-7.4v-1.9c0-4.1,3.4-7.4,7.4-7.4h7.4c4.1,0,7.4,3.4,7.4,7.4v1.9
	C111.1,154,107.8,157.4,103.7,157.4z"/>
<path class="st5" d="M133.5,92.2C133.5,81,107.4,68,100,68S66.4,81,66.4,92.2c0,13,18.6,7.4,22.3,13c3.7,5.6-1.9,27.9-1.9,35.4
	c0,7.4,5.6,13,13,13s13-5.6,13-13c0-7.4-5.6-29.8-1.9-35.4C114.8,99.6,133.5,105.2,133.5,92.2z"/>
<path class="st4" d="M100,68c-5.6,0-21.6,7.3-29.3,15.7c4.8-0.8,12.6-0.8,16.3,6.6c3.7,7.4,9.3,9.3,13,9.3s9.3-1.9,13-9.3
	c3.7-7.4,11.5-7.4,16.3-6.6C121.6,75.3,105.5,68,100,68z"/>
<g>
	<circle class="st7" cx="75.7" cy="92.2" r="3.7"/>
	<circle class="st7" cx="124.2" cy="92.2" r="3.7"/>
</g>
<g>
	<circle class="st6" cx="93.4" cy="139.7" r="2.8"/>
	<circle class="st6" cx="106.5" cy="139.7" r="2.8"/>
</g>
<path class="st4" d="M70.6,83.7l1.2-0.2l0.2-0.6c0,0-7.4-5-7.4-13l-10.1,1.4c-1.6,0.2-2.6,2-1.9,3.5C57.5,86.2,70.6,83.7,70.6,83.7z
	"/>
</svg>
