<?xml version="1.0" encoding="utf-8"?>
<!-- Generator: Adobe Illustrator 22.0.1, SVG Export Plug-In . SVG Version: 6.00 Build 0)  -->
<svg version="1.1" id="Calque_1" xmlns="http://www.w3.org/2000/svg" xmlns:xlink="http://www.w3.org/1999/xlink" x="0px" y="0px"
	 viewBox="0 0 200 200" style="enable-background:new 0 0 200 200;" xml:space="preserve">
<style type="text/css">
	.st0{fill:#D8C3DF;}
	.st1{fill:#FFFFFF;}
	.st2{fill:none;stroke:#010101;stroke-miterlimit:10;}
	.st3{fill:#CF3A27;}
	.st4{fill:none;}
	.st5{fill:#F7CF42;}
	.st6{fill:#B9E1D8;}
	.st7{fill:#FFEBD5;}
	.st8{fill:#010101;}
</style>
<g id="XMLID_1_">
	<g>
		<path class="st0" d="M172,15.3c6.6,0,12,5.4,12,12v143.9c0,6.6-5.4,12-12,12H28.1c-6.6,0-12-5.4-12-12V27.3c0-6.6,5.4-12,12-12
			H172z"/>
		<path class="st1" d="M184,27.3c0-6.6-5.4-12-12-12H28.1c-6.6,0-12,5.4-12,12v143.9c0,6.6,5.4,12,12,12H172c6.6,0,12-5.4,12-12
			L184,27.3L184,27.3z M18.3,5.6h163.1c6.6,0,12,5.4,12,12v163.1c0,6.6-5.4,12-12,12H18.3c-6.6,0-12-5.4-12-12V17.6
			C6.3,11,11.7,5.6,18.3,5.6z"/>
	</g>
	<g>
		<path class="st2" d="M172,183.1H28.1c-6.6,0-12-5.4-12-12V27.3c0-6.6,5.4-12,12-12H172c6.6,0,12,5.4,12,12v143.9
			C184,177.7,178.6,183.1,172,183.1z"/>
		<path class="st2" d="M181.5,192.8H18.3c-6.6,0-12-5.4-12-12V17.6c0-6.6,5.4-12,12-12h163.1c6.6,0,12,5.4,12,12v163.1
			C193.5,187.4,188.1,192.8,181.5,192.8z"/>
	</g>
</g>
<polygon class="st3" points="136.4,156.6 136.4,156.4 136.1,156.6 "/>
<g>
	<path class="st4" d="M115.8,84.2c0.2,1.2,0.3,2.4,0.4,3.7c4.6-2.2,8.2-6.2,10.5-10.7c-1.4,1.4-2.9,2.7-4.5,3.8
		C120.2,82.2,118.1,83.3,115.8,84.2z"/>
	<path class="st5" d="M103.3,86.4c-1,0-2,0-3-0.1c-1.5-0.1-2.6-1.4-2.5-2.9c0.1-1.5,1.4-2.6,2.9-2.5c2.8,0.2,5.5,0.1,8.1-0.4
		c-1.5-2-4.1-2.6-8.3-2.6c-9.6,0-10.6,3.3-10.6,18.8c0,10.6,1.5,14.9,5,16.6c0.2,0.1,0.5,0.2,0.7,0.3c1.4,0.5,3,0.7,4.9,0.7
		c1.5,0,2.8-0.1,3.9-0.4c0.2-0.1,0.5-0.2,0.7-0.2c4.1-1.3,5.9-5.5,5.9-17c0-4.7-0.1-8.3-0.5-11.1C108.2,86.2,105.8,86.4,103.3,86.4z
		"/>
	<path class="st6" d="M49.5,69c-1.6,2.3-1.8,5.3-1.3,6.6c0.4,0.9,0.7,1,1.3,1c0.7,0,1.4-0.7,1.6-1.4c1.1-2.7,1.6-6.3,2-8.9
		C51.6,66.8,50.4,67.7,49.5,69z"/>
	<path class="st7" d="M100.5,45.8c-5.7,0-10.3,4.6-10.3,10.3c0,5.7,4.6,10.3,10.3,10.3c5.7,0,10.3-4.6,10.3-10.3
		C110.8,50.4,106.2,45.8,100.5,45.8z"/>
	<path class="st6" d="M132.4,143.6c-1.6,0-3,1.3-3,3s1.3,3,3,3s3-1.3,3-3C135.4,145,134.1,143.6,132.4,143.6z"/>
	<path class="st8" d="M139.4,60.4h-23.8c0.4-1.4,0.6-2.8,0.6-4.3c0-8.6-7-15.6-15.7-15.6c-8.6,0-15.7,7-15.7,15.6
		c0,1.5,0.2,3,0.6,4.3H56.3c-4.8,0-8.8,2-11.2,5.6c-2.7,3.9-3,8.8-1.9,11.5c1.1,2.9,3.4,4.4,6.3,4.4c3.2,0,5.6-2.3,6.6-4.6
		c1.6-3.7,2.1-8.3,2.5-11.3c0-0.1,0-0.1,0-0.2h29.7c2.9,3.6,7.3,5.9,12.2,5.9c5,0,9.4-2.3,12.2-5.9h15.5c-3.1,6.3-8,10.8-14.1,13.3
		c-2.1-4-6.1-6.5-13.7-6.5c-15.9,0-15.9,10.7-15.9,24.2c0,10.2,1.4,17.5,7.1,20.9c0.2,6-0.5,15.4-5.9,21.4
		c-3.1,3.5-7.6,5.4-13.3,5.6c-1.4,0.1-2.5,1.1-2.6,2.5L69,157.4c-0.1,1.5,1,2.8,2.5,2.9c0.1,0,0.2,0,0.2,0c1.4,0,2.6-1.1,2.7-2.5
		l0.7-8c6.1-0.7,11-3.1,14.7-7.2c6-6.7,7.3-16.4,7.3-23.2c1.1,0.2,2.2,0.2,3.5,0.2c0.7,0,1.3,0,2-0.1l-3.4,37.8
		c-0.1,0.8,0.2,1.5,0.7,2.1c0.5,0.6,1.2,0.9,2,0.9h8.7c1.5,0,2.7-1.2,2.7-2.7s-1.2-2.7-2.7-2.7h-5.8l3.3-36.6
		c6.8-2.9,8.4-10.7,8.4-21.6c0-1.1,0-2.1,0-3.1c5.5-2.1,10.4-6.2,13.8-11.7c3-4.9,4.7-10.5,4.8-16.2h4.3c1.5,0,2.7-1.2,2.7-2.7
		C142.1,61.6,140.9,60.4,139.4,60.4z M51.1,75.2c-0.3,0.7-1,1.4-1.6,1.4c-0.6,0-0.9,0-1.3-1c-0.5-1.2-0.3-4.2,1.3-6.6
		c0.9-1.3,2.1-2.2,3.6-2.7C52.8,68.9,52.2,72.5,51.1,75.2z M100.5,66.3c-5.7,0-10.3-4.6-10.3-10.3c0-5.7,4.6-10.3,10.3-10.3
		c5.7,0,10.3,4.6,10.3,10.3C110.8,61.7,106.2,66.3,100.5,66.3z M105.1,113.7c-0.3,0-0.5,0.1-0.7,0.2c-1.1,0.3-2.4,0.4-3.9,0.4
		c-1.9,0-3.5-0.2-4.9-0.7c-0.2-0.1-0.4-0.2-0.7-0.3c-3.5-1.7-5-6-5-16.6c0-15.5,0.9-18.8,10.6-18.8c4.2,0,6.7,0.6,8.3,2.6
		c-2.5,0.4-5.2,0.6-8.1,0.4c-1.5-0.1-2.8,1-2.9,2.5c-0.1,1.5,1,2.8,2.5,2.9c1,0.1,2,0.1,3,0.1c2.5,0,4.9-0.2,7.3-0.7
		c0.4,2.7,0.5,6.3,0.5,11.1C111.1,108.2,109.3,112.4,105.1,113.7z M116.2,87.8c-0.1-1.3-0.2-2.5-0.4-3.7c2.3-0.9,4.4-2,6.4-3.3
		c1.6-1.1,3.1-2.4,4.5-3.8C124.4,81.6,120.9,85.6,116.2,87.8z"/>
	<path class="st8" d="M132.4,138.2c-4.6,0-8.4,3.7-8.4,8.4c0,3.7,2.4,6.8,5.7,7.9v3.1c0,1.5,1.2,2.7,2.7,2.7s2.7-1.2,2.7-2.7v-3.1
		c3.3-1.1,5.7-4.2,5.7-7.9C140.8,142,137,138.2,132.4,138.2z M132.4,149.6c-1.6,0-3-1.3-3-3s1.3-3,3-3s3,1.3,3,3
		S134.1,149.6,132.4,149.6z"/>
</g>
</svg>
