<?xml version="1.0" encoding="utf-8"?>
<!-- Generator: Adobe Illustrator 22.0.1, SVG Export Plug-In . SVG Version: 6.00 Build 0)  -->
<svg version="1.1" id="Calque_1" xmlns="http://www.w3.org/2000/svg" xmlns:xlink="http://www.w3.org/1999/xlink" x="0px" y="0px"
	 viewBox="0 0 200 200" style="enable-background:new 0 0 200 200;" xml:space="preserve">
<style type="text/css">
	.st0{fill:#D8C3DF;}
	.st1{fill:#FFFFFF;}
	.st2{fill:none;stroke:#010101;stroke-miterlimit:10;}
	.st3{fill:none;}
	.st4{fill:#7A4E34;}
	.st5{fill:#FFEBD5;}
	.st6{fill:#FAAB54;}
	.st7{fill:#010101;}
</style>
<g id="XMLID_1_">
	<g>
		<path class="st0" d="M172.1,16.1c6.6,0,12,5.4,12,12V172c0,6.6-5.4,12-12,12H28.2c-6.6,0-12-5.4-12-12V28.1c0-6.6,5.4-12,12-12
			H172.1z"/>
		<path class="st1" d="M184.1,28.1c0-6.6-5.4-12-12-12H28.2c-6.6,0-12,5.4-12,12V172c0,6.6,5.4,12,12,12h143.9c6.6,0,12-5.4,12-12
			L184.1,28.1L184.1,28.1z M18.4,6.4h163.1c6.6,0,12,5.4,12,12v163.1c0,6.6-5.4,12-12,12H18.4c-6.6,0-12-5.4-12-12V18.4
			C6.4,11.8,11.8,6.4,18.4,6.4z"/>
	</g>
	<g>
		<path class="st2" d="M172.1,183.9H28.2c-6.6,0-12-5.4-12-12V28.1c0-6.6,5.4-12,12-12h143.9c6.6,0,12,5.4,12,12V172
			C184.1,178.5,178.7,183.9,172.1,183.9z"/>
		<path class="st2" d="M181.6,193.6H18.4c-6.6,0-12-5.4-12-12V18.4c0-6.6,5.4-12,12-12h163.1c6.6,0,12,5.4,12,12v163.1
			C193.6,188.2,188.2,193.6,181.6,193.6z"/>
	</g>
</g>
<g>
	<path class="st3" d="M109.7,92.5c-0.8,2.9-1.6,5.6-2.5,8c1.7-0.4,3.3-0.7,5.1-0.9c-0.5-4.6-1.1-7.9-1.8-10.2
		C110.2,90.4,110,91.5,109.7,92.5z"/>
	<path class="st4" d="M104.8,91.3c3.6-14.1,3.5-17.4-5.3-19.6C97.8,71.2,96.3,71,95,71c-4.9,0-6.5,3.5-9.6,15.4
		c-3.5,13.8-1.2,16.7,5.6,18.5c1.4,0.4,2.7,0.5,3.8,0.5C98.8,105.4,101.8,103.1,104.8,91.3z"/>
	<path class="st5" d="M102.2,61c0.8,0.2,1.6,0.3,2.4,0.3c4.4,0,8.3-3,9.4-7.3c1.3-5.2-1.8-10.4-7-11.8c-0.8-0.2-1.6-0.3-2.4-0.3
		c-4.4,0-8.3,3-9.4,7.3C93.9,54.4,97,59.7,102.2,61z"/>
	<path class="st6" d="M78.3,120.7c-1.2,1.3-1.9,3-1.7,4.7c0.1,2,0.9,7.7,1.4,10.9h54.3c0.4-3.2,1.2-8.9,1.4-10.9
		c0.1-1.7-0.5-3.4-1.7-4.7c-1.4-1.5-3.5-2.4-5.6-2.4H83.9C81.8,118.3,79.7,119.2,78.3,120.7z"/>
	<path class="st7" d="M101,65.9c1.2,0.3,2.4,0.5,3.7,0.5c6.7,0,12.6-4.6,14.3-11.1c2-7.9-2.8-15.9-10.7-17.9
		c-1.2-0.3-2.4-0.5-3.6-0.5c-6.8,0-12.6,4.6-14.3,11.1C88.3,55.9,93.1,63.9,101,65.9z M95.2,49.3c1.1-4.3,4.9-7.3,9.4-7.3
		c0.8,0,1.6,0.1,2.4,0.3c5.2,1.3,8.3,6.6,7,11.8c-1.1,4.3-4.9,7.3-9.4,7.3c-0.8,0-1.6-0.1-2.4-0.3C97,59.7,93.9,54.4,95.2,49.3z"/>
	<path class="st7" d="M148.1,98.4c-1-1-2.6-1-3.6-0.1l-4.7,4.6c-6.7-1.9-14.6-3.6-22.4-3.5c-1.2-11.7-3.5-16.6-5.3-18.6
		c0.5-6.6-1.8-11.6-11.3-14c-2.2-0.6-4-0.8-5.7-0.8c-4,0-6.7,1.5-8.7,4.1c-9.5-3.8-16.1-10.8-18.5-20.1c-0.4-1.4-1.7-2.2-3.1-1.8
		c-1.4,0.4-2.2,1.7-1.8,3.1C65.7,61.9,73.1,70,83.8,74.5c-1.3,3.1-2.2,6.8-3.2,10.7c-0.8,3-1.3,5.7-1.6,8.2
		C70.9,86,58.9,82,49.2,79.9l-2-6.3c-0.4-1.3-1.8-2.1-3.2-1.7c-1.3,0.4-2.1,1.8-1.7,3.2l2.4,7.7c0.3,0.9,1,1.5,1.9,1.7
		c11.2,2.3,25.9,7.1,32.8,16.9c0,0,0,0,0,0c1.3,4,4.4,6.8,10.3,8.3c1.9,0.5,3.5,0.7,5,0.7c3.3,0,5.9-1.1,8-3c0,0,0,0,0.1,0
		c3-1.5,6.3-2.3,9.8-2.7c0.2,2.5,0.3,5.4,0.3,8.5h-29c-3.5,0-7,1.5-9.4,4.1c-2.2,2.4-3.3,5.4-3.1,8.6c0.2,3,1.7,13,1.7,13.4
		c0.2,1.2,1.3,2.2,2.5,2.2H83v6.2c0,1.4,1.1,2.5,2.5,2.5c1.4,0,2.5-1.1,2.5-2.5v-6.2h34v6.2c0,1.4,1.1,2.5,2.5,2.5s2.5-1.1,2.5-2.5
		v-6.2h7.3c1.3,0,2.3-0.9,2.5-2.2c0.1-0.4,1.5-10.4,1.7-13.4c0.2-3.1-0.9-6.2-3.1-8.6c-2.4-2.6-5.8-4.1-9.4-4.1H118
		c0-3.2-0.1-6.1-0.3-8.8c7.6,0,15.6,1.8,22,3.8c0.2,0.1,0.5,0.1,0.7,0.1c0.6,0,1.3-0.2,1.8-0.7l5.8-5.6
		C149,101,149.1,99.4,148.1,98.4z M91,104.9c-6.8-1.7-9.1-4.7-5.6-18.5C88.5,74.5,90.1,71,95,71c1.3,0,2.7,0.2,4.5,0.7
		c8.8,2.2,8.9,5.5,5.3,19.6c-3,11.8-5.9,14.1-10,14.1C93.7,105.4,92.5,105.2,91,104.9z M107.2,100.5c1-2.3,1.8-5,2.5-8
		c0.3-1.1,0.5-2.1,0.8-3.1c0.6,2.4,1.3,5.6,1.8,10.2C110.5,99.8,108.8,100.1,107.2,100.5z M131.8,120.7c1.2,1.3,1.9,3,1.7,4.7
		c-0.1,2-0.9,7.7-1.4,10.9H77.9c-0.4-3.2-1.2-8.9-1.4-10.9c-0.1-1.7,0.5-3.4,1.7-4.7c1.4-1.5,3.5-2.4,5.6-2.4h42.3
		C128.3,118.3,130.4,119.2,131.8,120.7z"/>
</g>
</svg>
