<?xml version="1.0" encoding="utf-8"?>
<!-- Generator: Adobe Illustrator 22.0.1, SVG Export Plug-In . SVG Version: 6.00 Build 0)  -->
<svg version="1.1" id="Calque_1" xmlns="http://www.w3.org/2000/svg" xmlns:xlink="http://www.w3.org/1999/xlink" x="0px" y="0px"
	 viewBox="0 0 200 200" style="enable-background:new 0 0 200 200;" xml:space="preserve">
<style type="text/css">
	.st0{fill:#F9BCC4;}
	.st1{fill:#FFFFFF;}
	.st2{fill:none;stroke:#000000;stroke-miterlimit:10;}
	.st3{fill:#CE3927;}
	.st4{fill:#EE8826;}
	.st5{fill:#85BD94;}
	.st6{fill:#CF5A3F;}
	.st7{fill:#FDD44B;}
	.st8{fill:#402E21;}
</style>
<g id="XMLID_1_">
	<g>
		<path class="st0" d="M29.7,183.9c-6.6,0-12-5.4-12-12V28.1c0-6.6,5.4-12,12-12h143.9c6.6,0,12,5.4,12,12v143.9c0,6.6-5.4,12-12,12
			H29.7z"/>
		<path class="st1" d="M7.9,18.4c0-6.6,5.4-12,12-12h163.1c6.6,0,12,5.4,12,12v163.1c0,6.6-5.4,12-12,12H19.9c-6.6,0-12-5.4-12-12
			V18.4z M17.7,171.9c0,6.6,5.4,12,12,12h143.9c6.6,0,12-5.4,12-12V28.1c0-6.6-5.4-12-12-12H29.7c-6.6,0-12,5.4-12,12V171.9z"/>
	</g>
	<g>
		<path class="st2" d="M173.5,183.9H29.7c-6.6,0-12-5.4-12-12V28.1c0-6.6,5.4-12,12-12h143.9c6.6,0,12,5.4,12,12v143.9
			C185.5,178.5,180.1,183.9,173.5,183.9z"/>
		<path class="st2" d="M183.1,193.6H19.9c-6.6,0-12-5.4-12-12V18.4c0-6.6,5.4-12,12-12h163.1c6.6,0,12,5.4,12,12v163.1
			C195.1,188.2,189.7,193.6,183.1,193.6z"/>
	</g>
</g>
<polygon class="st3" points="138,157.4 137.9,157.2 137.7,157.4 "/>
<g>
	<path class="st4" d="M74,110.3c-1.8-1.3-3.2-2.3-6.1-2.3c-3,0-4.4,1-6.1,2.3c-0.9,0.7-1.9,1.4-3.2,2c0.2,0,0.5,0.1,0.7,0.1h18
		C75.9,111.7,74.9,111,74,110.3z"/>
	<path class="st4" d="M104.6,110.3c-1.8-1.3-3.2-2.3-6.1-2.3c-3,0-4.4,1-6.1,2.3c-0.9,0.7-2,1.5-3.3,2.1h18.8
		C106.6,111.7,105.5,111,104.6,110.3z"/>
	<path class="st4" d="M129.1,107.9c-3,0-4.4,1-6.1,2.3c-0.9,0.7-2,1.5-3.3,2.1h18c0.2,0,0.5,0,0.7-0.1c-1.3-0.6-2.3-1.4-3.2-2
		C133.5,109,132.1,107.9,129.1,107.9z"/>
	<path class="st5" d="M137.7,101.1H64.3c-2.8,0-5.2,2.2-5.5,4.9c-0.1,0-0.1,0.1-0.2,0.2c2-1.5,4.5-3.3,9.2-3.3
		c4.7,0,7.2,1.9,9.2,3.4c1.8,1.3,3.2,2.4,6.1,2.4c3,0,4.4-1,6.1-2.3c2-1.5,4.5-3.4,9.2-3.4c4.7,0,7.2,1.9,9.2,3.4
		c1.8,1.3,3.2,2.3,6.1,2.3c3,0,4.4-1,6.1-2.3c2-1.5,4.5-3.4,9.2-3.4c4.7,0,7.2,1.9,9.2,3.4c1.5,1.1,2.7,2,4.7,2.3
		c0.2-0.5,0.3-1.2,0.3-1.7C143.2,103.6,140.7,101.1,137.7,101.1z"/>
	<g>
		<path class="st6" d="M141.7,117.8c0.1,0,0.2,0.1,0.3,0.1C141.9,117.9,141.8,117.8,141.7,117.8z"/>
		<path class="st6" d="M142.4,118.2c0.1,0.1,0.2,0.1,0.3,0.2C142.7,118.3,142.6,118.2,142.4,118.2z"/>
		<path class="st6" d="M143.7,119.3c0.1,0.1,0.2,0.2,0.2,0.3C143.8,119.5,143.8,119.4,143.7,119.3z"/>
		<path class="st6" d="M144.2,120.1c0.1,0.2,0.1,0.3,0.2,0.5C144.4,120.5,144.3,120.3,144.2,120.1z"/>
		<path class="st6" d="M140.9,117.5c0.1,0,0.2,0,0.3,0.1C141.1,117.6,141,117.6,140.9,117.5z"/>
		<path class="st6" d="M143.4,118.9c-0.1-0.1-0.2-0.2-0.3-0.3C143.2,118.8,143.3,118.8,143.4,118.9z"/>
		<path class="st6" d="M52.4,123.3c0-0.1-0.1-0.2-0.1-0.3C52.3,123.1,52.4,123.2,52.4,123.3z"/>
		<path class="st6" d="M55.4,126.5c-0.2-0.1-0.4-0.1-0.5-0.2C55.1,126.4,55.2,126.5,55.4,126.5z"/>
		<path class="st6" d="M54.3,126c-0.1-0.1-0.2-0.2-0.3-0.2C54.1,125.9,54.2,126,54.3,126z"/>
		<path class="st6" d="M144.5,120.8c-0.4-0.1-0.7-0.4-1.1-0.4H60.3c-2.6,0-4.7,2.3-4.7,4.9c0,0.4,0.1,0.9,0.1,1.2
			c0.4,0.1,0.7,0.3,1.1,0.3H140c2.6,0,4.7-2.2,4.7-4.8C144.7,121.6,144.6,121.1,144.5,120.8z"/>
		<path class="st6" d="M53.4,125.2c0.1,0.1,0.2,0.2,0.3,0.3C53.6,125.4,53.5,125.3,53.4,125.2z"/>
		<path class="st6" d="M52.7,124.1c0-0.1-0.1-0.2-0.1-0.3C52.6,123.9,52.6,124,52.7,124.1z"/>
		<path class="st6" d="M53.1,124.9c-0.1-0.1-0.1-0.2-0.2-0.3C53,124.7,53.1,124.8,53.1,124.9z"/>
	</g>
	<path class="st7" d="M143.6,131.9H58.4c-5.4,0-5.8,1.3-5.8,3.6c0,3.9,2.6,6.9,5.8,6.9h85.3c3.2,0,5.8-3,5.8-6.9
		C149.4,133.2,149,131.9,143.6,131.9z"/>
	<g>
		<path class="st7" d="M49.8,93.6c0,0.1,0.1,0.1,0.1,0.2C49.8,93.7,49.8,93.6,49.8,93.6z"/>
		<path class="st7" d="M136.5,68.4c0.2,0.1,0.3,0.2,0.5,0.3C136.9,68.6,136.7,68.5,136.5,68.4z"/>
		<path class="st7" d="M47.7,89.7c0-0.1,0-0.2-0.1-0.3C47.6,89.5,47.7,89.6,47.7,89.7z"/>
		<path class="st7" d="M47.6,88.9c0-0.1,0-0.2,0-0.2C47.5,88.8,47.5,88.9,47.6,88.9z"/>
		<path class="st7" d="M142.8,73.5c-0.1-0.1-0.2-0.3-0.4-0.4C142.5,73.2,142.7,73.3,142.8,73.5z"/>
		<path class="st7" d="M143.5,74.2c0.2,0.2,0.3,0.3,0.5,0.5C143.8,74.5,143.7,74.4,143.5,74.2z"/>
		<path class="st7" d="M139.4,70.5c0.2,0.1,0.4,0.3,0.5,0.4C139.8,70.8,139.6,70.6,139.4,70.5z"/>
		<path class="st7" d="M47.9,90.4c0-0.1,0-0.2-0.1-0.2C47.8,90.3,47.9,90.4,47.9,90.4z"/>
		<path class="st7" d="M140.8,71.6c0.2,0.1,0.3,0.3,0.5,0.4C141.1,71.9,140.9,71.7,140.8,71.6z"/>
		<path class="st7" d="M138,69.4c0.2,0.1,0.4,0.3,0.6,0.4C138.4,69.7,138.2,69.6,138,69.4z"/>
		<path class="st7" d="M51.2,94.8c-0.1-0.1-0.2-0.1-0.3-0.2C51.1,94.7,51.1,94.7,51.2,94.8z"/>
		<path class="st7" d="M48.1,91.1C48.1,91.1,48.1,91.1,48.1,91.1C48.1,91.1,48.1,91.1,48.1,91.1z"/>
		<path class="st7" d="M52.5,95.5c-0.1,0-0.2-0.1-0.2-0.1C52.3,95.4,52.4,95.4,52.5,95.5z"/>
		<path class="st7" d="M144.3,75.1c-1.3-1-2.7-1.9-4.2-2.9c-9.7-5.8-22.7-9-36.5-9c-13.8,0-26.8,3.2-36.5,9
			c-9.3,5.6-14.4,12.9-14.4,20.5c0,1,0.2,1.8,0.5,2.7c0.8,0.3,1.6,0.2,2.5,0.2h85.6c4.5,0,8.2-3.4,8.2-7.9
			C149.4,83.2,147.6,79.1,144.3,75.1z M71.4,85.5c-0.5,0.5-1.1,0.7-1.8,0.7s-1.3-0.3-1.8-0.7C67.3,85,67,84.3,67,83.7
			c0-0.7,0.3-1.3,0.7-1.8s1.1-0.7,1.8-0.7c0.7,0,1.3,0.3,1.8,0.7c0.5,0.5,0.7,1.1,0.7,1.8C72.1,84.3,71.8,85,71.4,85.5z M86.6,72.6
			c-0.5,0.5-1.1,0.7-1.8,0.7c-0.7,0-1.3-0.3-1.8-0.7c-0.5-0.5-0.7-1.1-0.7-1.8c0-0.7,0.3-1.3,0.7-1.8c0.5-0.5,1.1-0.7,1.8-0.7
			c0.7,0,1.3,0.3,1.8,0.7c0.5,0.5,0.7,1.1,0.7,1.8C87.3,71.5,87,72.1,86.6,72.6z M100.3,85.5c-0.5,0.5-1.1,0.7-1.8,0.7
			c-0.7,0-1.3-0.3-1.8-0.7c-0.5-0.5-0.7-1.1-0.7-1.8c0-0.7,0.3-1.3,0.7-1.8c0.5-0.5,1.1-0.7,1.8-0.7c0.7,0,1.3,0.3,1.8,0.7
			c0.5,0.5,0.7,1.1,0.7,1.8C101,84.3,100.7,85,100.3,85.5z M113.9,72.6c-0.5,0.5-1.1,0.7-1.8,0.7c-0.7,0-1.3-0.3-1.8-0.7
			c-0.5-0.5-0.7-1.1-0.7-1.8c0-0.7,0.3-1.3,0.7-1.8c0.5-0.5,1.1-0.7,1.8-0.7c0.7,0,1.3,0.3,1.8,0.7c0.5,0.5,0.7,1.1,0.7,1.8
			C114.7,71.5,114.4,72.1,113.9,72.6z M129.1,85.5c-0.5,0.5-1.1,0.7-1.8,0.7c-0.7,0-1.3-0.3-1.8-0.7c-0.5-0.5-0.7-1.1-0.7-1.8
			c0-0.7,0.3-1.3,0.7-1.8c0.5-0.5,1.1-0.7,1.8-0.7c0.7,0,1.3,0.3,1.8,0.7c0.5,0.5,0.7,1.1,0.7,1.8C129.9,84.3,129.6,85,129.1,85.5z"
			/>
		<path class="st7" d="M51.9,95.2c-0.1,0-0.2-0.1-0.3-0.2C51.7,95.1,51.8,95.1,51.9,95.2z"/>
		<path class="st7" d="M48.6,92c0-0.1-0.1-0.1-0.1-0.2C48.5,91.8,48.5,91.9,48.6,92z"/>
		<path class="st7" d="M49,92.6c-0.1-0.1-0.1-0.2-0.2-0.2C48.9,92.5,48.9,92.5,49,92.6z"/>
		<path class="st7" d="M50.6,94.4c-0.1-0.1-0.1-0.1-0.2-0.2C50.5,94.2,50.6,94.3,50.6,94.4z"/>
		<path class="st7" d="M49.4,93.2c-0.1-0.1-0.1-0.1-0.2-0.2C49.3,93,49.4,93.1,49.4,93.2z"/>
	</g>
	<path class="st8" d="M69.6,81.1c-0.7,0-1.3,0.3-1.8,0.7C67.3,82.3,67,83,67,83.7c0,0.7,0.3,1.3,0.7,1.8c0.5,0.5,1.1,0.7,1.8,0.7
		s1.3-0.3,1.8-0.7c0.5-0.5,0.7-1.1,0.7-1.8c0-0.7-0.3-1.3-0.7-1.8C70.9,81.4,70.2,81.1,69.6,81.1z"/>
	<path class="st8" d="M98.4,81.1c-0.7,0-1.3,0.3-1.8,0.7c-0.5,0.5-0.7,1.1-0.7,1.8c0,0.7,0.3,1.3,0.7,1.8c0.5,0.5,1.1,0.7,1.8,0.7
		c0.7,0,1.3-0.3,1.8-0.7c0.5-0.5,0.7-1.1,0.7-1.8c0-0.7-0.3-1.3-0.7-1.8C99.8,81.4,99.1,81.1,98.4,81.1z"/>
	<path class="st8" d="M127.3,81.1c-0.7,0-1.3,0.3-1.8,0.7c-0.5,0.5-0.7,1.1-0.7,1.8c0,0.7,0.3,1.3,0.7,1.8c0.5,0.5,1.1,0.7,1.8,0.7
		c0.7,0,1.3-0.3,1.8-0.7c0.5-0.5,0.7-1.1,0.7-1.8c0-0.7-0.3-1.3-0.7-1.8C128.7,81.4,128,81.1,127.3,81.1z"/>
	<path class="st8" d="M84.8,68.3c-0.7,0-1.3,0.3-1.8,0.7c-0.5,0.5-0.7,1.1-0.7,1.8c0,0.7,0.3,1.3,0.7,1.8c0.5,0.5,1.1,0.7,1.8,0.7
		c0.7,0,1.3-0.3,1.8-0.7c0.5-0.5,0.7-1.1,0.7-1.8c0-0.7-0.3-1.3-0.7-1.8C86.1,68.5,85.4,68.3,84.8,68.3z"/>
	<path class="st8" d="M112.1,68.3c-0.7,0-1.3,0.3-1.8,0.7c-0.5,0.5-0.7,1.1-0.7,1.8c0,0.7,0.3,1.3,0.7,1.8c0.5,0.5,1.1,0.7,1.8,0.7
		c0.7,0,1.3-0.3,1.8-0.7c0.5-0.5,0.7-1.1,0.7-1.8c0-0.7-0.3-1.3-0.7-1.8C113.5,68.5,112.8,68.3,112.1,68.3z"/>
	<path class="st8" d="M148.3,127.3c0.9-1.5,1.5-3.3,1.5-5.1c0-3.4-1.7-6.3-4.3-8.1c1.8-1.9,2.9-4.5,2.9-7.3c0-2.5-0.8-4.7-2.2-6.5
		c4.9-1.9,8.4-6.7,8.4-12.3c0-9.5-6-18.3-16.9-24.9c-10.5-6.3-24.4-9.8-39.2-9.8c-14.7,0-28.7,3.5-39.2,9.8
		c-10.9,6.5-16.9,15.4-16.9,24.9c0,5.6,3.5,10.4,8.4,12.3c-1.4,1.8-2.2,4.1-2.2,6.5c0,2.8,1.1,5.4,2.9,7.3c-2.6,1.8-4.3,4.7-4.3,8.1
		c0,1.9,0.5,3.6,1.5,5.1c-3,0.8-6.2,2.9-6.2,8.4c0,6.7,4.9,12.2,10.9,12.2h90.4c6,0,10.9-5.5,10.9-12.2
		C154.5,130.1,151.3,128.1,148.3,127.3z M143.6,142.8H53.3c-3.2,0-5.8-3.2-5.8-7.1c0-2.3,0.4-3.8,5.8-3.8h90.4
		c5.4,0,5.8,1.5,5.8,3.8C149.4,139.6,146.8,142.8,143.6,142.8z M137.7,112.4h-18c1.3-0.6,2.3-1.4,3.3-2.1c1.8-1.3,3.2-2.3,6.1-2.3
		c3,0,4.4,1,6.1,2.3c0.9,0.7,1.9,1.4,3.2,2C138.1,112.3,137.9,112.4,137.7,112.4z M89,112.4c1.3-0.6,2.3-1.4,3.3-2.1
		c1.8-1.3,3.2-2.3,6.1-2.3s4.4,1,6.1,2.3c0.9,0.7,2,1.5,3.3,2.1H89z M59.2,112.4c-0.2,0-0.5,0-0.7-0.1c1.3-0.6,2.3-1.4,3.2-2
		c1.8-1.3,3.2-2.3,6.1-2.3c3,0,4.4,1,6.1,2.3c0.9,0.7,2,1.5,3.3,2.1L59.2,112.4L59.2,112.4z M143,108.4c-2.1-0.3-3.3-1.2-4.7-2.3
		c-2-1.5-4.5-3.4-9.2-3.4c-4.7,0-7.2,1.9-9.2,3.4c-1.8,1.3-3.2,2.3-6.1,2.3c-3,0-4.4-1-6.1-2.3c-2-1.5-4.5-3.4-9.2-3.4
		c-4.7,0-7.2,1.9-9.2,3.4c-1.8,1.3-3.2,2.3-6.1,2.3c-3,0-4.4-1-6.1-2.3c-2-1.5-4.5-3.4-9.2-3.4c-4.7,0-7.2,1.9-9.2,3.4
		c-1.5,1.1-2.7,2-4.7,2.3c-0.2-0.5-0.3-1.1-0.3-1.7c0-3.1,2.5-5.6,5.6-5.6h78.4c3.1,0,5.6,2.5,5.6,5.6
		C143.2,107.4,143.2,107.9,143,108.4z M141.3,96.1H55.6c-4.5,0-8.2-3.7-8.2-8.2c0-7.6,5.1-14.9,14.4-20.5c9.7-5.8,22.7-9,36.5-9
		c13.8,0,26.8,3.2,36.5,9c9.3,5.6,14.4,12.9,14.4,20.5C149.4,92.4,145.8,96.1,141.3,96.1z M56.9,117.5H140c2.6,0,4.7,2.1,4.7,4.7
		c0,2.6-2.1,4.7-4.7,4.7H56.9c-2.6,0-4.7-2.1-4.7-4.7C52.2,119.6,54.3,117.5,56.9,117.5z"/>
</g>
</svg>
