<?xml version="1.0" encoding="utf-8"?>
<!-- Generator: Adobe Illustrator 22.0.1, SVG Export Plug-In . SVG Version: 6.00 Build 0)  -->
<svg version="1.1" id="Calque_1" xmlns="http://www.w3.org/2000/svg" xmlns:xlink="http://www.w3.org/1999/xlink" x="0px" y="0px"
	 viewBox="0 0 200 200" style="enable-background:new 0 0 200 200;" xml:space="preserve">
<style type="text/css">
	.st0{fill:#D8C3DF;}
	.st1{fill:#FFFFFF;}
	.st2{fill:none;stroke:#010101;stroke-miterlimit:10;}
	.st3{fill:#7C543F;}
	.st4{fill:#418AC2;}
	.st5{fill:none;stroke:#000000;stroke-miterlimit:10;}
	.st6{fill:#2C6898;}
	.st7{fill:#23679A;}
	.st8{fill:#100A09;}
</style>
<g id="XMLID_1_">
	<g>
		<path class="st0" d="M172.1,16.1c6.6,0,12,5.4,12,12V172c0,6.6-5.4,12-12,12H28.2c-6.6,0-12-5.4-12-12V28.1c0-6.6,5.4-12,12-12
			H172.1z"/>
		<path class="st1" d="M184.1,28.1c0-6.6-5.4-12-12-12H28.2c-6.6,0-12,5.4-12,12V172c0,6.6,5.4,12,12,12h143.9c6.6,0,12-5.4,12-12
			L184.1,28.1L184.1,28.1z M18.4,6.4h163.1c6.6,0,12,5.4,12,12v163.1c0,6.6-5.4,12-12,12H18.4c-6.6,0-12-5.4-12-12V18.4
			C6.4,11.8,11.8,6.4,18.4,6.4z"/>
	</g>
	<g>
		<path class="st2" d="M172.1,183.9H28.2c-6.6,0-12-5.4-12-12V28.1c0-6.6,5.4-12,12-12h143.9c6.6,0,12,5.4,12,12V172
			C184.1,178.5,178.7,183.9,172.1,183.9z"/>
		<path class="st2" d="M181.6,193.6H18.4c-6.6,0-12-5.4-12-12V18.4c0-6.6,5.4-12,12-12h163.1c6.6,0,12,5.4,12,12v163.1
			C193.6,188.2,188.2,193.6,181.6,193.6z"/>
	</g>
</g>
<g transform="matrix(1.25 0 0 -1.25 0 45)">
	<g>
		<g>
			<path class="st3" d="M93.5-3.1c0,5.5-3.9,9.9-8.7,9.9c-4.8,0-8.7-4.4-8.7-9.9s3.2-9.9,9-9.9c2.2,0,5.7,0.4,7.2,2
				C94.2-9.2,93.5-6.1,93.5-3.1"/>
			<g>
				<path class="st4" d="M82.7-96.6c-1.8,0-3.3,1.5-3.3,3.3v9.9c0,1.8,1.5,3.3,3.3,3.3c1.8,0,3.3-1.5,3.3-3.3v-9.9
					C86-95.1,84.5-96.6,82.7-96.6"/>
				<path class="st4" d="M51.6-100.1c-0.7-0.3-1.4-0.4-2.2-0.2c-1.8,0.4-2.9,2.2-2.4,4l2.2,9.1c0.4,1.8,2.2,2.9,4,2.4
					c1.8-0.4,2.9-2.2,2.4-4l-2.2-9.1C53.2-98.9,52.5-99.7,51.6-100.1"/>
			</g>
			<g>
				<path class="st3" d="M88.5-16.6L87-3.7c-0.2,1.8-1.9,3.2-3.7,3c-1.8-0.2-3.1-1.8-2.9-3.6l1.3-12H66.6L47.3-6.7
					c-1.8,0.3-3.5-0.9-3.8-2.7c-0.3-1.8,0.9-3.5,2.7-3.8L64-22.4c0.2,0,2.2-0.4,2.3-0.4h9.1c0-0.9,0.3-1.9,0.8-3.3
					c3.3-8.2,9.9-26.4,9.9-26.4c7.3,0,8.7,15.6,8.7,23.8c0,2,1,2.5,0.6,3.6c3.9,0.5,4.4-1.2,6.2-1.6C101.6-26.8,95.6-16,88.5-16.6"
					/>
				<path class="st3" d="M70.2-72.7c-1.5,1.3-1.8,3.6-0.7,5.3l15.9,24.2c1.2,1.9,3.8,2.4,5.7,1.2c1.9-1.3,2.4-3.8,1.2-5.7L76.3-71.9
					c-1.2-1.9-3.8-2.4-5.7-1.2C70.5-73,70.3-72.9,70.2-72.7"/>
				<path class="st3" d="M51.9-89.1c-1,1.5-0.9,3.5,0.4,4.7L70-68c1.4,1.3,3.6,1.1,5-0.5c1.3-1.5,1.3-3.8-0.1-5.1L57.2-90
					c-1.4-1.3-3.6-1.1-5,0.5C52.1-89.4,52-89.2,51.9-89.1"/>
				<path class="st3" d="M81.1-83.3c-0.6,1.6-0.1,3.4,1.3,4.1l19.1,11c1.5,0.9,3.4,0.2,4.3-1.5c0.9-1.7,0.4-3.7-1.1-4.6l-19.1-11
					c-1.5-0.9-3.4-0.2-4.3,1.5C81.2-83.6,81.2-83.5,81.1-83.3"/>
				<path class="st3" d="M103.6-74.4c-1.8-0.6-3.7,0.1-4.6,1.8L86.6-48.7c-1,1.9-0.2,4.2,1.6,5.1c1.9,0.9,4.2,0.2,5.1-1.6l12.3-23.9
					c1-1.9,0.2-4.2-1.6-5.1C103.9-74.3,103.8-74.4,103.6-74.4"/>
				<path class="st3" d="M103.6-29.6l-12.7,6.6c-1.5,0.8-2.1,2.7-1.3,4.2c0.8,1.5,2.7,2.1,4.2,1.3l12.7-6.6c1.5-0.8,2.1-2.7,1.3-4.2
					C107-29.8,105.1-30.3,103.6-29.6"/>
				<path class="st3" d="M122.6-32.4l-17.5,2.6c-1.7,0.2-2.9,1.8-2.6,3.5c0.2,1.7,1.8,2.9,3.5,2.6l17.5-2.6c1.7-0.2,2.9-1.8,2.6-3.5
					C125.8-31.4,124.3-32.6,122.6-32.4"/>
				<path class="st5" d="M85.7-85.2l19.6,11.5c0,0,2.2,1.3-0.3,6c-2.5,4.8-3.8,7.4-3.8,7.4l1.5,0.4l-6.4,12.8l0.6-0.1
					c0,0-0.3,10.4,0.2,13.9c0,0,0.2,5.6-0.7,7.3l8.1-3.9c0,0,0.5,0.1,1,0.1s17.7-2.6,17.7-2.6s3,0.2,2.9,3.3s-3.4,3-3.4,3l-17.1,2.5
					L94.7-18l-6.2,1.2l-0.4,4c0,0,7.6-0.5,5.3,10.6c0,0,6.2,6.5-4.5,12.3c0,0-8.2,2.8-13.2-2.7c0,0-6.1-5.1,0.5-14.9
					c0,0,0.4-0.4,0.8-0.1c0,0,1.3-3.8,4.3-4.8l0.5-4.1h-1c0,0-0.7,1.1-6,0.6c-5.3-0.5-5.3-0.5-5.3-0.5l-2.8-0.1L47.3-6.7
					c0,0-2.1,0.4-3.1-1.2c0,0-7.4,4.9-10.6-3.4c0,0-1.4-8.1,7.8-8.1c0,0,5.7,1.1,4.9,6.2L64-22.4l6.2-0.4c0,0,4.1-0.6,4.9-1.6
					c0.7-1,4.1-7.9,1.4-20.1l-1-5.4l0.7,0.3c0,0-3.3-9.9-4.6-11.5l1.3-1c0,0-4.1-5.2-4-6.9c0,0-16.8-14.9-17.2-16.1
					c0,0-2.2,0.6-3.4-6.1l-1.3-6.2c0,0,0-2.2,3.7-2.9c0,0,2.7,0.3,3.4,5c0.7,4.7,0.7,4.7,0.7,4.7s0.6-0.9,5.5,3.6
					C65.1-82.7,76-72.4,76-72.4l4.3,6.5l1.2-0.1l6.2,9l5.5-7.8l1.2,0.8l3.3-6.4c0,0-16.2-9.5-16.4-9.8c-0.2-0.4-2-0.5-2-6.3
					s-0.4-9.8,2-9.9s4.6,0,4.6,3S85.7-85.2,85.7-85.2z"/>
			</g>
			<path class="st6" d="M77.9-45.8c0,0-2.6-6.7-3.5-9.5s-2.7-5.9-2.7-5.9s5.6-4.9,9.9-4.7l6.2,9l5.5-7.8c0,0,5.6,4.1,9.5,4.7
				c0,0-4.9,10.1-6.1,12.3c-1.1,2.1-3.9,4.9-3.9,4.9L77.9-45.8z"/>
			<path class="st4" d="M74.7-15.6c0,0,4.2-0.2,5.9-0.4c0,0,0.2-2.7,4.4-2.8c4.2-0.1,5.3,2.1,5.3,2.1s3.2-0.2,5.6-1.7
				c2.3-1.5,5.9-3.2,5.9-3.2s-3.3-2.8-2.1-5.9L96.5-26c0,0,0.4-1.4,0.7-3.9c0.3-3.9-0.7-16.2-0.2-17.3c0,0-4.3,1.1-10.5,0.4
				c-3.8-0.4-11-3.2-11-3.2c1,4.2,1.6,10.4,1.8,13.9c0.3,7-1.3,11.9-3.4,12.4c-2.1,0.5-3.7,0.6-3.7,0.6s0.5,2.2,0,4
				c-0.5,1.7-0.7,3-0.7,3S73.2-15.9,74.7-15.6"/>
			<path class="st7" d="M46.5-13c0,3.6-3,6.6-6.6,6.6s-6.6-3-6.6-6.6s3-6.6,6.6-6.6S46.5-16.6,46.5-13"/>
			<path class="st8" d="M90.4,9.5c-2.3,1.6-8.1,2.2-12.1,0.1c-4.4-2.4-5.6-6.7-4.8-11.1c0.7-4.1,2.6-5.8,2.6-5.8
				c0.8-0.8,2.8,1.3,1.6,3.1c-1.3,2.1-1,4.6,0.6,4.8c1.1,0.1,2.2-0.5,1.9-1.5c-0.4-1.2,0.1-1.6,0.1-1.6s0.9-0.6,1.8,2.1
				c0.5,1.4,3.8,1.2,8.7,3.4c0.6,0.3,2.1-1.4,2.5-5.1c0.1-0.8,1.6,1.7,1.8,3.4C95.4,4.3,93.3,7.4,90.4,9.5"/>
		</g>
	</g>
</g>
</svg>
