<?xml version="1.0" encoding="utf-8"?>
<!-- Generator: Adobe Illustrator 22.0.1, SVG Export Plug-In . SVG Version: 6.00 Build 0)  -->
<svg version="1.1" id="Calque_1" xmlns="http://www.w3.org/2000/svg" xmlns:xlink="http://www.w3.org/1999/xlink" x="0px" y="0px"
	 viewBox="0 0 200 200" style="enable-background:new 0 0 200 200;" xml:space="preserve">
<style type="text/css">
	.st0{fill:#D8C3DF;}
	.st1{fill:#FFFFFF;}
	.st2{fill:none;stroke:#010101;stroke-miterlimit:10;}
	.st3{fill:#CF3A27;}
	.st4{fill:#B6D997;}
	.st5{fill:#F7CF42;}
	.st6{fill:#FFEBD5;}
	.st7{fill:#010101;}
</style>
<g id="XMLID_1_">
	<g>
		<path class="st0" d="M172,15.3c6.6,0,12,5.4,12,12v143.9c0,6.6-5.4,12-12,12H28.1c-6.6,0-12-5.4-12-12V27.3c0-6.6,5.4-12,12-12
			H172z"/>
		<path class="st1" d="M184,27.3c0-6.6-5.4-12-12-12H28.1c-6.6,0-12,5.4-12,12v143.9c0,6.6,5.4,12,12,12H172c6.6,0,12-5.4,12-12
			L184,27.3L184,27.3z M18.3,5.6h163.1c6.6,0,12,5.4,12,12v163.1c0,6.6-5.4,12-12,12H18.3c-6.6,0-12-5.4-12-12V17.6
			C6.3,11,11.7,5.6,18.3,5.6z"/>
	</g>
	<g>
		<path class="st2" d="M172,183.1H28.1c-6.6,0-12-5.4-12-12V27.3c0-6.6,5.4-12,12-12H172c6.6,0,12,5.4,12,12v143.9
			C184,177.7,178.6,183.1,172,183.1z"/>
		<path class="st2" d="M181.5,192.8H18.3c-6.6,0-12-5.4-12-12V17.6c0-6.6,5.4-12,12-12h163.1c6.6,0,12,5.4,12,12v163.1
			C193.5,187.4,188.1,192.8,181.5,192.8z"/>
	</g>
</g>
<polygon class="st3" points="136.4,156.6 136.4,156.4 136.1,156.6 "/>
<g>
	<path class="st4" d="M148.6,124.9c-0.5-0.5-1.3-0.8-2-0.8c-0.8,0-1.5,0.3-2,0.8c-0.5,0.5-0.8,1.3-0.8,2c0,0.8,0.3,1.5,0.8,2
		c2.2,2.2,2.2,5.8,0,8c-1.1,1.1-2.5,1.6-4,1.6c-1.5,0-2.9-0.6-4-1.6c-0.3-0.3-6.9-6.7-16.4-16l-3.7,3.7c9.2,9.5,15.7,16.1,16,16.4
		c2.1,2.1,5,3.3,8,3.3h0c3,0,5.9-1.2,8-3.3C153.1,136.5,153.1,129.3,148.6,124.9z"/>
	<path class="st4" d="M113,120.9l3.6-3.6c-0.7-0.6-1.3-1.3-2-2l-3.6,3.6C111.7,119.5,112.3,120.2,113,120.9z"/>
	<path class="st5" d="M93.1,100.6c1.1-1,2.1-2.1,3.2-3.1c-26.7-26.1-42-41.1-45.5-44.6c-0.6-0.6-1.6-0.6-2.2,0
		c-0.6,0.6-0.6,1.6,0,2.2C52.8,59.4,74.8,81.8,93.1,100.6z"/>
	<path class="st5" d="M110.8,111.7L107,108c-1.1,1.2-2.3,2.3-3.4,3.4l3.7,3.8L110.8,111.7z"/>
	<path class="st4" d="M79.8,120.9c-9.5,9.3-16.1,15.8-16.4,16c-1.1,1.1-2.5,1.6-4,1.6c-1.5,0-2.9-0.6-4-1.6c-2.2-2.2-2.2-5.8,0-8
		c0.5-0.5,0.8-1.3,0.8-2c0-0.8-0.3-1.5-0.8-2c-0.5-0.5-1.3-0.8-2-0.8c-0.8,0-1.5,0.3-2,0.8c-4.4,4.4-4.4,11.6,0,16
		c2.1,2.1,5,3.3,8,3.3c3,0,5.9-1.2,8-3.3c0.3-0.3,6.8-6.9,16-16.4L79.8,120.9z"/>
	<path class="st4" d="M83.5,117.3l3.6,3.6c0.6-0.7,1.3-1.3,2-2l-3.6-3.6C84.9,116,84.2,116.6,83.5,117.3z"/>
	<path class="st5" d="M105.1,102.5C105.1,102.5,105.1,102.5,105.1,102.5L105.1,102.5c19.3-19.8,42-43,46.4-47.3
		c0.6-0.6,0.6-1.6,0-2.2c-0.3-0.3-0.7-0.5-1.1-0.5c-0.4,0-0.8,0.2-1.1,0.5c-4.7,4.7-30.7,30.1-54.4,53.2c0,0,0,0,0,0c0,0,0,0,0,0
		c-1.9,1.9-3.8,3.7-5.7,5.5l3.5,3.5C96.5,111.3,100.7,107,105.1,102.5z"/>
	<path class="st6" d="M100,71.4c3.7,0,6.6-3,6.6-6.6c0-3.7-3-6.6-6.6-6.6c-3.7,0-6.6,3-6.6,6.6C93.4,68.5,96.4,71.4,100,71.4z"/>
	<path class="st7" d="M152.3,121.2c-1.5-1.5-3.5-2.4-5.7-2.4s-4.2,0.8-5.7,2.4c-1.5,1.5-2.4,3.5-2.4,5.7c0,2.2,0.8,4.2,2.4,5.7
		c0.2,0.2,0.2,0.4,0,0.6c-0.1,0.1-0.2,0.1-0.3,0.1s-0.2,0-0.3-0.1c0,0,0,0,0,0c0,0-10.4-10.1-23.9-23.4l-5.7-5.6
		C129.6,84.9,151,63,155.2,58.8c2.6-2.6,2.6-6.9,0-9.5c-1.3-1.3-3-2-4.8-2c-1.8,0-3.5,0.7-4.8,2c-4.2,4.1-24.7,24.2-45.6,44.6
		C73.3,67.7,57.9,52.6,54.5,49.2c-2.6-2.6-6.9-2.6-9.5,0c-2.6,2.6-2.6,6.9,0,9.5c3.4,3.4,18.8,19.1,44.5,45.5
		c-1.9,1.9-3.8,3.7-5.7,5.6c0,0,0,0,0,0c-13.6,13.3-23.9,23.4-23.9,23.4c0,0,0,0,0,0c-0.1,0.1-0.2,0.1-0.3,0.1s-0.2,0-0.3-0.1
		c-0.2-0.2-0.2-0.4,0-0.6c1.5-1.5,2.4-3.5,2.4-5.7c0-2.2-0.8-4.2-2.4-5.7c-1.5-1.5-3.5-2.4-5.7-2.4c-2.2,0-4.2,0.8-5.7,2.4
		c-6.4,6.4-6.4,16.9,0,23.4c3.1,3.1,7.3,4.8,11.7,4.8c4.4,0,8.6-1.7,11.7-4.8c0,0,0,0,0,0c0,0,10.1-10.4,23.4-23.9
		c1.7-1.8,3.5-3.6,5.4-5.6l5.4,5.6c13.3,13.6,23.4,23.9,23.4,23.9c0,0,0,0,0,0c3.1,3.1,7.3,4.8,11.7,4.8c0,0,0,0,0,0
		c4.4,0,8.6-1.7,11.7-4.8C158.8,138.2,158.8,127.7,152.3,121.2z M140.6,144.3L140.6,144.3c-3,0-5.9-1.2-8-3.3
		c-0.3-0.3-6.8-6.9-16-16.4l3.7-3.7c9.5,9.3,16.1,15.8,16.4,16c1.1,1.1,2.5,1.6,4,1.6c1.5,0,2.9-0.6,4-1.6c2.2-2.2,2.2-5.8,0-8
		c-0.5-0.5-0.8-1.3-0.8-2c0-0.8,0.3-1.5,0.8-2c0.5-0.5,1.3-0.8,2-0.8s1.5,0.3,2,0.8c4.4,4.4,4.4,11.6,0,16
		C146.5,143.1,143.7,144.3,140.6,144.3z M59.5,144.3c-3,0-5.9-1.2-8-3.3c-4.4-4.4-4.4-11.6,0-16c0.5-0.5,1.3-0.8,2-0.8
		c0.8,0,1.5,0.3,2,0.8c0.5,0.5,0.8,1.3,0.8,2c0,0.8-0.3,1.5-0.8,2c-2.2,2.2-2.2,5.8,0,8c1.1,1.1,2.5,1.6,4,1.6c1.5,0,2.9-0.6,4-1.6
		c0.3-0.3,6.9-6.7,16.4-16l3.7,3.7c-9.2,9.5-15.7,16.1-16,16.4C65.3,143.1,62.5,144.3,59.5,144.3z M87.1,120.9l-3.6-3.6
		c0.7-0.6,1.3-1.3,2-2l3.6,3.6C88.4,119.5,87.8,120.2,87.1,120.9z M89.3,111.7c1.9-1.8,3.8-3.7,5.7-5.5c0,0,0,0,0,0s0,0,0,0
		c23.7-23.1,49.6-48.6,54.4-53.2c0.3-0.3,0.7-0.5,1.1-0.5c0.4,0,0.8,0.2,1.1,0.5c0.6,0.6,0.6,1.6,0,2.2c-4.3,4.4-27,27.6-46.4,47.3
		l0,0c0,0,0,0,0,0c-4.4,4.5-8.6,8.8-12.4,12.7L89.3,111.7z M48.6,52.9c0.6-0.6,1.6-0.6,2.2,0c3.5,3.4,18.8,18.4,45.5,44.6
		c-1.1,1-2.1,2.1-3.2,3.1C74.8,81.8,52.8,59.4,48.6,55.1C48,54.5,48,53.5,48.6,52.9z M107,108l3.8,3.7l-3.5,3.5l-3.7-3.8
		C104.8,110.3,105.9,109.1,107,108z M116.6,117.3l-3.6,3.6c-0.6-0.7-1.3-1.3-2-2l3.6-3.6C115.2,116,115.9,116.6,116.6,117.3z"/>
	<path class="st7" d="M100,76.6c6.5,0,11.8-5.3,11.8-11.8c0-6.5-5.3-11.8-11.8-11.8c-6.5,0-11.8,5.3-11.8,11.8
		C88.2,71.3,93.5,76.6,100,76.6z M100,58.2c3.7,0,6.6,3,6.6,6.6c0,3.7-3,6.6-6.6,6.6c-3.7,0-6.6-3-6.6-6.6
		C93.4,61.1,96.4,58.2,100,58.2z"/>
</g>
</svg>
