<?xml version="1.0" encoding="utf-8"?>
<!-- Generator: Adobe Illustrator 22.0.1, SVG Export Plug-In . SVG Version: 6.00 Build 0)  -->
<svg version="1.1" id="Calque_1" xmlns="http://www.w3.org/2000/svg" xmlns:xlink="http://www.w3.org/1999/xlink" x="0px" y="0px"
	 viewBox="0 0 200 200" style="enable-background:new 0 0 200 200;" xml:space="preserve">
<style type="text/css">
	.st0{fill:#D8C3DF;}
	.st1{fill:#FFFFFF;}
	.st2{fill:none;stroke:#010101;stroke-miterlimit:10;}
	.st3{fill:#41599C;}
	.st4{fill:#DB3A40;}
	.st5{fill:#FCC8A1;}
	.st6{fill:#92D6E1;}
	.st7{fill:#D87844;}
	.st8{fill:#010101;}
</style>
<g id="XMLID_1_">
	<g>
		<path class="st0" d="M172.1,16.1c6.6,0,12,5.4,12,12V172c0,6.6-5.4,12-12,12H28.2c-6.6,0-12-5.4-12-12V28.1c0-6.6,5.4-12,12-12
			H172.1z"/>
		<path class="st1" d="M184.1,28.1c0-6.6-5.4-12-12-12H28.2c-6.6,0-12,5.4-12,12V172c0,6.6,5.4,12,12,12h143.9c6.6,0,12-5.4,12-12
			L184.1,28.1L184.1,28.1z M18.4,6.4h163.1c6.6,0,12,5.4,12,12v163.1c0,6.6-5.4,12-12,12H18.4c-6.6,0-12-5.4-12-12V18.4
			C6.4,11.8,11.8,6.4,18.4,6.4z"/>
	</g>
	<g>
		<path class="st2" d="M172.1,183.9H28.2c-6.6,0-12-5.4-12-12V28.1c0-6.6,5.4-12,12-12h143.9c6.6,0,12,5.4,12,12V172
			C184.1,178.5,178.7,183.9,172.1,183.9z"/>
		<path class="st2" d="M181.6,193.6H18.4c-6.6,0-12-5.4-12-12V18.4c0-6.6,5.4-12,12-12h163.1c6.6,0,12,5.4,12,12v163.1
			C193.6,188.2,188.2,193.6,181.6,193.6z"/>
	</g>
</g>
<path class="st3" d="M107.6,61.1c1.6-5.8-1.9-11.8-7.7-13.3c-5.8-1.6-11.8,1.9-13.3,7.7L107.6,61.1z"/>
<path class="st4" d="M107.6,61.1l-3.2,6.6l-2,5.8L99.3,72l-2.5,2.1c-1.9,1.6-4.6,1.8-6.7,0.4L88,73l-7,4.4l-16.8,13L51,99V73.1
	l25.5-7.5c3.5-0.6,6.5-2.8,8.1-6l2.1-4.1L107.6,61.1z"/>
<path class="st5" d="M86.6,55.5l-2.1,4.1c-0.7,1.3-1.6,2.5-2.7,3.4c1,4.2,3.2,7.7,6.1,10l0.1,0l2.2,1.5c0.1,0,0.1,0.1,0.2,0.1
	c0.6,0.3,1.2,0.5,1.8,0.7c1.6,0.3,3.4-0.1,4.7-1.2l2.5-2.1l3.1,1.6l2-5.8l3.2-6.6L86.6,55.5z"/>
<path class="st6" d="M104.1,67.9c0,0-7.2,0.2-7-9.6l10.5,2.8L104.1,67.9z"/>
<path class="st4" d="M64.1,80.8v8.2c0,3.1,1.9,5.9,4.7,7.1l22.8,9.6l4.6-1.8L83.1,90.4c-2.6-2.7-3.7-6.4-3.1-10l1.3-8L64.1,80.8z"/>
<path class="st7" d="M128,92.3c0,0-7.3-1.1-5.4-11.5c-4.5,2.1-6.5,5.8-6.4,9.8l-0.1-0.2l0,0c-4.3,0-8.4,1.9-11.2,5.2l-1.4,1.6
	c-7.4,8.8-18.7,13.1-30,11.6L51,106v40.4h34.6h1.1h7.7h12.8c0-1.9-0.8-3.8-2.2-5.1c-2.2-2.1-5.7-5.4-8.7-8.2l18.6-16.6
	c1.6,2.9,4.6,4.8,8,4.8h4.9l11.5,7h6.6l4.3-7.7L128,92.3z M119.2,99.6l-0.2,0.4l-0.4-1.4C118.8,98.8,119,99.2,119.2,99.6z"/>
<path class="st3" d="M132.8,100.1h-8c0,0,0.7,5.7,11.6,5.7L132.8,100.1z"/>
<path class="st8" d="M151.5,119.4l-21.9-28.3c-0.3-0.4-0.8-0.7-1.3-0.8c-0.2,0-1.8-0.4-2.9-2c-1.1-1.6-1.4-4-0.8-7.1
	c0.1-0.7-0.2-1.5-0.8-2c-0.6-0.5-1.4-0.5-2.1-0.2c-3.7,1.8-6.2,4.6-7.1,8.1c-0.1,0.4-0.2,0.9-0.3,1.4c-4.3,0.5-8.2,2.5-11,5.9
	l-1.4,1.6c-1.7,2-3.6,3.7-5.6,5.2L84.5,89c-2.1-2.2-3.1-5.3-2.6-8.3l0.3-1.7l5.7-3.6l1.1,0.7c2.8,1.9,6.6,1.7,9.1-0.5l1.5-1.2l1.9,1
	c0.5,0.3,1.1,0.3,1.7,0.1c0.5-0.2,1-0.7,1.1-1.2l1.9-5.7l3.1-6.5c0.1-0.1,0.1-0.3,0.2-0.4c1.8-6.9-2.2-13.9-9.1-15.8
	c-6.8-1.8-13.8,2.2-15.7,8.9l-2,3.9c-1.3,2.6-3.8,4.4-6.7,4.9c-0.1,0-0.2,0-0.2,0.1l-25.5,7.5c-0.9,0.3-1.4,1-1.4,1.9V99
	c0,0.7,0.4,1.4,1,1.8c0.3,0.2,0.6,0.2,1,0.2c0.4,0,0.8-0.1,1.1-0.3l11.1-7.1c1,2,2.7,3.6,4.9,4.5l18.8,7.9c-4.2,1.2-8.6,1.6-13,1
	l-22.5-3c-0.6-0.1-1.2,0.1-1.6,0.5c-0.4,0.4-0.7,0.9-0.7,1.5v40.4c0,1.1,0.9,2,2,2h49.5c1.1,0,2-0.9,2-2s-0.9-2-2-2H86.6h-1.1
	c-2,0-3.8-1-4.8-2.7l-3.9-6.3c-0.6-0.9-1.8-1.2-2.8-0.7c-0.9,0.6-1.2,1.8-0.7,2.8l3.9,6.3c0.1,0.2,0.2,0.4,0.4,0.6H53v-36.1
	l20.2,2.7c5.9,0.8,11.9,0.1,17.5-2.1c1.1-0.4,2.2-0.9,3.3-1.5l17.3,9.5l-15.1,13.5c-1.1-1-2-1.8-2.6-2.4c-0.6-0.5-1-0.9-1.3-1.1
	c-1.6-1.2-2.7-0.6-3.2-0.1c-0.8,0.8-0.8,2.1,0,2.8c0.2,0.2,0.5,0.4,0.7,0.5c1,0.7,5.1,4.4,13.8,12.6c1,0.9,1.6,2.3,1.6,3.6
	c0,1.1,0.9,2,2,2c1.1,0,2-0.9,2-2c0-2.5-1-4.9-2.8-6.6c-1.9-1.8-4.6-4.4-7.1-6.7l15.2-13.6c2.1,2.4,5.1,3.8,8.4,3.8h4.3l11,6.7
	c0.3,0.2,0.7,0.3,1.1,0.3h6.6c0.7,0,1.4-0.4,1.8-1l4.3-7.7C152.1,120.9,152,120,151.5,119.4z M91.6,129.9c0.1,0,0.1-0.1,0.2-0.1
	C91.7,129.9,91.6,129.9,91.6,129.9z M132.8,102.2c0.1,0,0.2,0,0.2,0l1.2,1.6c-2.7-0.2-4.4-0.9-5.5-1.5H132.8z M118.4,88.2
	c0.3-1.2,0.9-2.3,1.8-3.3c0.1,2.3,0.8,4.2,1.9,5.8c1.5,2.1,3.5,3,4.7,3.4l0.7,0.9c-2.6,0-5.3,0.6-7.6,1.8
	C118.3,93.8,117.8,90.8,118.4,88.2z M105,98.6l1.4-1.6c2-2.4,4.8-4,7.9-4.4c0.3,2.2,1.1,4.4,2.3,6.5c-0.2,0.2-0.4,0.4-0.6,0.6
	c-3.4,3.4-5,8-4.7,12.6L98,105C100.6,103.2,103,101,105,98.6z M87.7,57.9l7.5,2c0,0.4,0.1,0.8,0.1,1.2l-8.1-2.2L87.7,57.9z
	 M100,63.1C100,63.1,99.9,63.1,100,63.1c-0.3-0.7-0.5-1.4-0.7-2.2l5.5,1.5l-1.6,3.3c-0.6-0.2-1.5-0.5-2.2-1.2
	C100.6,64.2,100.2,63.7,100,63.1z M99.4,49.8c4,1.1,6.7,4.8,6.6,8.8l-16.7-4.5C91.2,50.6,95.4,48.7,99.4,49.8z M69.6,94.3
	c-2.1-0.9-3.5-2.9-3.5-5.2v-8.2c0-1.1-0.9-2-2-2c-1.1,0-2,0.9-2,2v8.2c0,0.1,0,0.2,0,0.4L53,95.3V74.6l23.9-7
	c3.3-0.6,6.2-2.4,8.2-5.1l11.6,3.2c0.4,0.6,0.8,1.2,1.4,1.7c1.2,1.2,2.5,1.8,3.6,2.2l-0.4,1.2l-1.1-0.5c-0.7-0.4-1.6-0.3-2.2,0.3
	l-2.5,2.1c-1.2,1-2.9,1.1-4.3,0.2l-2.2-1.5c-0.7-0.4-1.5-0.5-2.2,0l-3.8,2.4l0.2-1c0.2-1.1-0.6-2.1-1.7-2.3
	c-1.1-0.2-2.1,0.6-2.3,1.7l-1.3,8c-0.7,4.2,0.7,8.6,3.7,11.7l11.2,11.6c-0.3,0.1-0.5,0.3-0.8,0.4L69.6,94.3z M116.5,115.6
	C116.5,115.5,116.5,115.5,116.5,115.6C116.5,115.5,116.5,115.5,116.5,115.6c-0.1-0.1-0.1-0.1-0.1-0.1c-0.2-0.4-0.3-0.7-0.5-1.1
	c-0.1-0.3-0.2-0.5-0.4-0.7c-0.7-3.2,0-6.4,1.7-9.1l7.1,14.8h-1.7C120.1,119.3,117.7,117.8,116.5,115.6z M144.5,126.3h-4.8l-10.5-6.4
	l-9-18.5c0.8-0.6,1.7-1.1,2.6-1.5c0,0.2,0,0.3,0,0.5c0,0.3,1.1,7.4,13.6,7.4c0.3,0,0.6-0.1,0.9-0.2l10.2,13.2L144.5,126.3z"/>
<path class="st8" d="M70.6,129.2c-0.9,0.6-1.2,1.8-0.7,2.8l0.1,0.1c0.4,0.6,1,1,1.7,1c0.4,0,0.7-0.1,1.1-0.3
	c0.9-0.6,1.2-1.8,0.7-2.8l-0.1-0.1C72.8,128.9,71.6,128.6,70.6,129.2z"/>
<path class="st8" d="M141.3,124.5c1.2,0,2.2-1,2.2-2.2c0-1.2-1-2.2-2.2-2.2c-1.2,0-2.2,1-2.2,2.2
	C139.1,123.5,140.1,124.5,141.3,124.5z"/>
</svg>
