<?xml version="1.0" encoding="utf-8"?>
<!-- Generator: Adobe Illustrator 22.0.1, SVG Export Plug-In . SVG Version: 6.00 Build 0)  -->
<svg version="1.1" id="Calque_1" xmlns="http://www.w3.org/2000/svg" xmlns:xlink="http://www.w3.org/1999/xlink" x="0px" y="0px"
	 viewBox="0 0 200 200" style="enable-background:new 0 0 200 200;" xml:space="preserve">
<style type="text/css">
	.st0{fill:#FFFFFF;}
	.st1{fill:#D8EBDD;}
	.st2{fill:none;stroke:#010101;stroke-miterlimit:10;}
	.st3{fill:#1E8943;}
	.st4{fill:#EEEDEE;}
	.st5{fill:#F8993A;}
	.st6{fill:#282A74;}
	.st7{opacity:0.6;}
</style>
<g id="XMLID_1_">
	<g>
		<path class="st0" d="M193.6,18.4v163.1c0,6.6-5.4,12-12,12H18.4c-6.6,0-12-5.4-12-12V18.4c0-6.6,5.4-12,12-12h163.1
			C188.2,6.4,193.6,11.8,193.6,18.4z M184.1,171.9V28.1c0-6.6-5.4-12-12-12H28.2c-6.6,0-12,5.4-12,12V172c0,6.6,5.4,12,12,12h143.9
			C178.7,183.9,184.1,178.5,184.1,171.9z"/>
		<path class="st1" d="M184.1,28.1V172c0,6.6-5.4,12-12,12H28.2c-6.6,0-12-5.4-12-12V28.1c0-6.6,5.4-12,12-12h143.9
			C178.7,16.1,184.1,21.5,184.1,28.1z"/>
	</g>
	<g>
		<path class="st2" d="M172.1,183.9H28.2c-6.6,0-12-5.4-12-12V28.1c0-6.6,5.4-12,12-12h143.9c6.6,0,12,5.4,12,12V172
			C184.1,178.5,178.7,183.9,172.1,183.9z"/>
		<path class="st2" d="M181.6,193.6H18.4c-6.6,0-12-5.4-12-12V18.4c0-6.6,5.4-12,12-12h163.1c6.6,0,12,5.4,12,12v163.1
			C193.6,188.2,188.2,193.6,181.6,193.6z"/>
	</g>
</g>
<g>
	<g>
		<g transform="matrix(1.25 0 0 -1.25 0 45)">
			<path class="st3" d="M35.5-66.4c0-5.4,4.4-9.7,9.7-9.7h68.1c5.4,0,9.7,4.4,9.7,9.7v9.7H35.5V-66.4z"/>
			<path class="st4" d="M35.5-56.7h87.6v24.3H35.5V-56.7z"/>
			<path class="st5" d="M123.1-32.4v9.7c0,5.4-4.4,9.7-9.7,9.7H45.3c-5.4,0-9.7-4.4-9.7-9.7v-9.7H123.1z"/>
			<path class="st6" d="M89-44.6c0,5.4-4.4,9.7-9.7,9.7c-5.4,0-9.7-4.4-9.7-9.7c0-5.4,4.4-9.7,9.7-9.7C84.7-54.3,89-49.9,89-44.6"/>
			<path class="st4" d="M86.6-44.6c0,4-3.3,7.3-7.3,7.3c-4,0-7.3-3.3-7.3-7.3s3.3-7.3,7.3-7.3C83.3-51.8,86.6-48.6,86.6-44.6"/>
			<g>
				<g class="st7">
					<path class="st6" d="M79.3-37.3l0.4-5.5l2.4,4.9L80.3-43l4.1,3.6l-3.6-4.1l5.2,1.8l-4.9-2.4l5.5-0.4l-5.5-0.4l4.9-2.4l-5.2,1.8
						l3.6-4.1l-4.1,3.6l1.8-5.2l-2.4,4.9l-0.4-5.5L79-46.3l-2.4-4.9l1.8,5.2l-4.1-3.6l3.6,4.1l-5.2-1.8l4.9,2.4L72-44.6l5.5,0.4
						l-4.9,2.4l5.2-1.8l-3.6,4.1l4.1-3.6l-1.8,5.2l2.4-4.9L79.3-37.3z"/>
				</g>
				<path class="st6" d="M76.9-44.6c0,1.3,1.1,2.4,2.4,2.4c1.3,0,2.4-1.1,2.4-2.4S80.7-47,79.3-47C78-47,76.9-45.9,76.9-44.6"/>
			</g>
		</g>
	</g>
</g>
</svg>
