<?xml version="1.0" encoding="utf-8"?>
<!-- Generator: Adobe Illustrator 22.0.1, SVG Export Plug-In . SVG Version: 6.00 Build 0)  -->
<svg version="1.1" id="Calque_1" xmlns="http://www.w3.org/2000/svg" xmlns:xlink="http://www.w3.org/1999/xlink" x="0px" y="0px"
	 viewBox="0 0 200 200" style="enable-background:new 0 0 200 200;" xml:space="preserve">
<style type="text/css">
	.st0{fill:#FFFFFF;}
	.st1{fill:#D8EBDD;}
	.st2{fill:none;stroke:#010101;stroke-miterlimit:10;}
	.st3{fill:#EDECEC;}
	.st4{fill:#EEEDEE;}
	.st5{fill:#2C499F;}
</style>
<g id="XMLID_1_">
	<g>
		<path class="st0" d="M193.6,18.4v163.1c0,6.6-5.4,12-12,12H18.4c-6.6,0-12-5.4-12-12V18.4c0-6.6,5.4-12,12-12h163.1
			C188.2,6.4,193.6,11.8,193.6,18.4z M184.1,171.9V28.1c0-6.6-5.4-12-12-12H28.2c-6.6,0-12,5.4-12,12V172c0,6.6,5.4,12,12,12h143.9
			C178.7,183.9,184.1,178.5,184.1,171.9z"/>
		<path class="st1" d="M184.1,28.1V172c0,6.6-5.4,12-12,12H28.2c-6.6,0-12-5.4-12-12V28.1c0-6.6,5.4-12,12-12h143.9
			C178.7,16.1,184.1,21.5,184.1,28.1z"/>
	</g>
	<g>
		<path class="st2" d="M172.1,183.9H28.2c-6.6,0-12-5.4-12-12V28.1c0-6.6,5.4-12,12-12h143.9c6.6,0,12,5.4,12,12V172
			C184.1,178.5,178.7,183.9,172.1,183.9z"/>
		<path class="st2" d="M181.6,193.6H18.4c-6.6,0-12-5.4-12-12V18.4c0-6.6,5.4-12,12-12h163.1c6.6,0,12,5.4,12,12v163.1
			C193.6,188.2,188.2,193.6,181.6,193.6z"/>
	</g>
</g>
<g transform="matrix(1.25 0 0 -1.25 0 45)">
	<g>
		<path class="st3" d="M83.9-46.9h2.3l-1.1,2L83.9-46.9z"/>
		<path class="st3" d="M77.4-49.3l1.1-2l1.1,2H77.4z"/>
	</g>
	<path class="st4" d="M34.9-59.5h87.3v34H34.9V-59.5z"/>
	<g>
		<g>
			<path class="st4" d="M35.6-17h85.9c-1.4,3.6-4.9,6.1-9,6.1H44.6C40.5-11,37-13.5,35.6-17"/>
			<path id="SVGCleanerId_0" class="st3" d="M86.1-38.1h-2.3l1.1-2L86.1-38.1z"/>
			<g transform="translate(-5.332)">
				<path id="SVGCleanerId_0_1_" class="st3" d="M77.4-38.1h-2.3l1.1-2L77.4-38.1z"/>
			</g>
			<g>
				<path class="st3" d="M81.1-46.9l2.5,4.4l-2.5,4.4H76l-2.5-4.4l2.5-4.4H81.1z"/>
				<path class="st3" d="M72.1-44.9l-1.1-2h2.3L72.1-44.9z"/>
				<path class="st3" d="M78.5-33.7l-1.1-2h2.3L78.5-33.7z"/>
			</g>
			<path class="st5" d="M35.6-17c-0.5-1.1-0.7-2.3-0.7-3.6v-4.9h87.3v4.9c0,1.3-0.3,2.5-0.7,3.6C121.5-17,35.6-17,35.6-17z"/>
			<path class="st4" d="M35.6-68h85.9c-1.4-3.6-4.9-6.1-9-6.1H44.6C40.5-74,37-71.5,35.6-68"/>
			<g>
				<path class="st5" d="M35.6-68c-0.5,1.1-0.7,2.3-0.7,3.6v4.9h87.3v-4.9c0-1.3-0.3-2.5-0.7-3.6L35.6-68L35.6-68z"/>
				<path class="st5" d="M72.1-44.9l1.1-2h-2.3L72.1-44.9z M73.2-38.1l-1.1-2l-1.1,2H73.2z M76-38.1h5.1l2.5-4.4l-2.5-4.4H76
					l-2.5,4.4L76-38.1z M78.5-33.7l1.1-2h-2.3L78.5-33.7z M85-44.9l1.1-2h-2.3L85-44.9z M86.1-38.1l-1.1-2l-1.1,2H86.1z M78.5-51.3
					l-1.1,2h2.3L78.5-51.3z M74.6-49.3l3.9-6.8l3.9,6.8h7.9l-3.9,6.8l3.9,6.8h-7.9l-3.9,6.8l-3.9-6.8h-7.9l3.9-6.8l-3.9-6.8
					C66.7-49.3,74.6-49.3,74.6-49.3z"/>
			</g>
		</g>
	</g>
</g>
</svg>
