<?xml version="1.0" encoding="utf-8"?>
<!-- Generator: Adobe Illustrator 22.0.1, SVG Export Plug-In . SVG Version: 6.00 Build 0)  -->
<svg version="1.1" id="Calque_1" xmlns="http://www.w3.org/2000/svg" xmlns:xlink="http://www.w3.org/1999/xlink" x="0px" y="0px"
	 viewBox="0 0 200 200" style="enable-background:new 0 0 200 200;" xml:space="preserve">
<style type="text/css">
	.st0{fill:#FFFFFF;}
	.st1{fill:#D8EBDD;}
	.st2{fill:none;stroke:#010101;stroke-miterlimit:10;}
	.st3{fill:#EEEDEE;}
	.st4{fill:#EC1F31;}
</style>
<g id="XMLID_1_">
	<g>
		<path class="st0" d="M196,18.4v163.1c0,6.6-5.4,12-12,12H20.8c-6.6,0-12-5.4-12-12V18.4c0-6.6,5.4-12,12-12h163.1
			C190.6,6.4,196,11.8,196,18.4z M186.5,171.9V28.1c0-6.6-5.4-12-12-12H30.6c-6.6,0-12,5.4-12,12V172c0,6.6,5.4,12,12,12h143.9
			C181.1,183.9,186.5,178.5,186.5,171.9z"/>
		<path class="st1" d="M186.5,28.1V172c0,6.6-5.4,12-12,12H30.6c-6.6,0-12-5.4-12-12V28.1c0-6.6,5.4-12,12-12h143.9
			C181.1,16.1,186.5,21.5,186.5,28.1z"/>
	</g>
	<g>
		<path class="st2" d="M174.5,183.9H30.6c-6.6,0-12-5.4-12-12V28.1c0-6.6,5.4-12,12-12h143.9c6.6,0,12,5.4,12,12V172
			C186.5,178.5,181.1,183.9,174.5,183.9z"/>
		<path class="st2" d="M184,193.6H20.8c-6.6,0-12-5.4-12-12V18.4c0-6.6,5.4-12,12-12h163.1c6.6,0,12,5.4,12,12v163.1
			C196,188.2,190.6,193.6,184,193.6z"/>
	</g>
</g>
<g transform="matrix(1.25 0 0 -1.25 0 45)">
	<g>
		<g>
			<path class="st3" d="M122.6-64c0-5.2-4.2-9.5-9.5-9.5H46.9c-5.2,0-9.5,4.2-9.5,9.5v42.6c0,5.2,4.2,9.5,9.5,9.5h66.2
				c5.2,0,9.5-4.2,9.5-9.5L122.6-64L122.6-64z"/>
			<path class="st4" d="M96.6-42.7c0-9.1-7.4-16.6-16.6-16.6s-16.6,7.4-16.6,16.6S70.9-26.1,80-26.1S96.6-33.5,96.6-42.7"/>
		</g>
	</g>
</g>
</svg>
