<?xml version="1.0" encoding="utf-8"?>
<!-- Generator: Adobe Illustrator 22.0.1, SVG Export Plug-In . SVG Version: 6.00 Build 0)  -->
<svg version="1.1" id="Calque_1" xmlns="http://www.w3.org/2000/svg" xmlns:xlink="http://www.w3.org/1999/xlink" x="0px" y="0px"
	 viewBox="0 0 200 200" style="enable-background:new 0 0 200 200;" xml:space="preserve">
<style type="text/css">
	.st0{fill:#D8C3DF;}
	.st1{fill:#FFFFFF;}
	.st2{fill:none;stroke:#010101;stroke-miterlimit:10;}
	.st3{fill:#47499E;}
	.st4{fill:#BE1E2D;}
	.st5{fill:none;stroke:#000000;stroke-miterlimit:10;}
	.st6{fill:#FFD340;}
	.st7{fill:#010101;}
</style>
<g id="XMLID_1_">
	<g>
		<path class="st0" d="M172.1,16.1c6.6,0,12,5.4,12,12V172c0,6.6-5.4,12-12,12H28.2c-6.6,0-12-5.4-12-12V28.1c0-6.6,5.4-12,12-12
			H172.1z"/>
		<path class="st1" d="M184.1,28.1c0-6.6-5.4-12-12-12H28.2c-6.6,0-12,5.4-12,12V172c0,6.6,5.4,12,12,12h143.9c6.6,0,12-5.4,12-12
			L184.1,28.1L184.1,28.1z M18.4,6.4h163.1c6.6,0,12,5.4,12,12v163.1c0,6.6-5.4,12-12,12H18.4c-6.6,0-12-5.4-12-12V18.4
			C6.4,11.8,11.8,6.4,18.4,6.4z"/>
	</g>
	<g>
		<path class="st2" d="M172.1,183.9H28.2c-6.6,0-12-5.4-12-12V28.1c0-6.6,5.4-12,12-12h143.9c6.6,0,12,5.4,12,12V172
			C184.1,178.5,178.7,183.9,172.1,183.9z"/>
		<path class="st2" d="M181.6,193.6H18.4c-6.6,0-12-5.4-12-12V18.4c0-6.6,5.4-12,12-12h163.1c6.6,0,12,5.4,12,12v163.1
			C193.6,188.2,188.2,193.6,181.6,193.6z"/>
	</g>
</g>
<g id="Calque_2">
</g>
<g>
	<g>
		<path class="st3" d="M95.5,128.6c0-2.1,0-4.2,0-6.2c-1.6,0.2-3.3,0.4-4.9,0.7c0.3,1.7,0.9,3,1.8,4.4c1.3,2.1,4.6,1.2,4.7-1.3
			c0.1-2.5,0.2-5,0.3-7.5c-1.6,0.2-3.3,0.4-4.9,0.7c1.6,7.4,3.2,14.8,4.8,22.2c0.8,3.5,1.5,7.1,2.3,10.6c0.4,1.7,1.4,4,1.2,5.8
			c-0.2,3.3-1.7,3.8-4.6,3.7c-2.3-0.1-3.2,2.7-1.8,4.3c1.1,1.2,1.6,1.5,3.1,1.9c0.4-1.6,0.9-3.2,1.3-4.8c-3.1-0.5-4.2-1.6-4.6-4.6
			c-0.5-3.2-0.9-6.5-1.4-9.7c-0.9-6.2-1.8-12.3-2.7-18.5c-0.4,0.9-0.8,1.9-1.1,2.8c0.7-0.3,1.4-0.5,2.2-0.8c-1-0.6-2.1-1.2-3.1-1.7
			c1.1,2.7,1.7,5.2,1.9,8.1c0.2,2.7,4.2,3.5,4.9,0.7c0.6-2.3,1.2-4.6,1.8-6.9c-1.6-0.2-3.3-0.4-4.9-0.7c0.7,6.5,2.4,12.5,4.1,18.8
			c0.5,1.7,0.4,3.9,1,5.4c0.6,1.4,0.5,2.1,1.1,0.5c0.7-2-0.6-6-1.1-7.9c-1.6-6.1-3.6-12-4.9-18.2c-1-4.6-5.3-16.9-0.9-20.6
			c-0.8,0.2-1.6,0.4-2.4,0.6c3.6,0.7,4.2,5.9,4.6,8.8c1-1,2.1-2.1,3.1-3.1c-2.1-0.7-3.4-2-4.3-3.9c-0.4-0.9-0.4-2-1-2.9
			c-1-1.7-2.2-1.7-3.7-2.7c0.3,1.1,0.6,2.3,0.9,3.4c0.1-0.1,0.1-0.3,0.2-0.4c-1.1,0.3-2.3,0.6-3.4,0.9c0.1,0,0.2,0.1,0.3,0.1
			c0-1.4,0-2.9,0-4.3c-3.3,1.7-3.9,5.2-3.8,8.7c0.2,6.4,1.7,12.9,3.4,19c0.6,2.2,4.5,2.6,4.8,0c0.7-5.1,1.4-10.2,2.1-15.2
			c-1.6-0.2-3.3-0.4-4.9-0.7c0.3,2.6,0.8,5.1,1.6,7.6c0.9,3.1,5.7,1.8,4.8-1.3c-0.6-2.1-1.1-4.1-1.4-6.3c-0.3-2.5-4.5-3.7-4.9-0.7
			c-0.7,5.1-1.4,10.2-2.1,15.2c1.6,0,3.2,0,4.8,0c-1-3.6-1.9-7.2-2.5-10.9c-0.4-2.2-2.4-9.6,0.5-11.1c1.6-0.8,1.7-3.5,0-4.3
			c-0.1,0-0.2-0.1-0.3-0.1c-1.2-0.5-2.8-0.4-3.4,0.9c-0.1,0.1-0.1,0.3-0.2,0.4c-0.6,1.3-0.3,2.6,0.9,3.4c1.3,0.9,1.7,1.1,2.4,2.6
			c0.5,1.1,0.6,2.3,1.3,3.4c1.5,2.3,4,3.2,6.5,4c2,0.7,3.3-1.3,3.1-3.1c-0.6-4-1.7-8.8-5.3-11.2c-3.1-2.1-5.9-1.1-7.4,2.4
			c-1.8,4.2-0.7,9.2,0.1,13.6c1.1,6.7,2.6,13.2,4.4,19.7c0.8,2.8,1.8,5.5,2.5,8.3c0.7,2.9,0.3,5.7,0.8,8.5c0.5,2.6,2.9,4.9,5.7,4
			c3.8-1.3,3.3-7.4,2.8-10.4c-1.3-7.1-4-13.7-4.8-20.9c-0.3-2.6-4.2-3.6-4.9-0.7c-0.6,2.3-1.2,4.6-1.8,6.9c1.6,0.2,3.3,0.4,4.9,0.7
			c-0.3-3.3-0.9-6.3-2.1-9.4c-0.5-1.3-1.6-2.1-3.1-1.7c-1.6,0.3-1.9,0.5-3.3,1.3c-1.1,0.6-1.3,1.7-1.1,2.8
			c1.2,8.4,2.5,16.9,3.7,25.3c0.9,6.2,1.8,9.9,8.6,11c3.1,0.5,4.5-3.9,1.3-4.8c-0.3-0.2-0.6-0.4-0.9-0.7c-0.6,1.4-1.2,2.8-1.8,4.3
			c3.1,0.1,6.7-0.1,8.7-3c2.2-3.2,0.7-7.4-0.1-10.9c-2.5-11.6-5-23.1-7.5-34.7c-0.6-2.8-4.8-2.1-4.9,0.7c-0.1,2.5-0.2,5-0.3,7.5
			c1.6-0.4,3.1-0.8,4.7-1.3c-0.7-1-1.2-2-1.3-3.2c-0.6-2.8-4.9-2.1-4.9,0.7c0,2.1,0,4.2,0,6.2C90.5,131.9,95.5,131.9,95.5,128.6
			L95.5,128.6z"/>
	</g>
</g>
<g>
	<g>
		<path class="st3" d="M71.7,133.2c-0.1,0.2-0.3,0.3-0.4,0.5c-0.8,0.9-0.9,2-0.4,3c2,4,6.4,0.8,9.1-0.6c-1-1.3-2-2.6-3-3.9
			c-3.9,4.7-7.4,9.7-10.4,15c-1.6,2.9-3,6-4.6,8.9c-1.4,2.4-7.6,8.6-7.7,2.5c0-3.1,3.4-7.1,5-9.6c1.9-3.1,3.8-6.2,5.8-9.2
			c4-6.4,8-12.9,12-19.3c-1.4,0-2.9,0-4.3,0c1.4,2.6,4,4,5.6,6.4c0.8,1.1,2.8,6.6,2.7,3c0-0.9-0.2-1.4-0.6-2.2
			c-0.7-1.4-2.9-1.6-3.9-0.5c-1.4,1.5-2.7,3-4.1,4.5c1.3,1,2.6,2,3.9,3c1.2-2.7,2.4-5.4,3.6-8.1c0.7-1.6,0.1-3-1.5-3.7
			c-7-2.7-10.5,8.4-13.3,12.8c-4.4,7-12.6,13.8-13.5,22.4c-0.2,2-0.2,4.6,1.9,5.6c2.9,1.4,5.4-1.6,7.1-3.5
			c5.6-6.5,8.8-14.6,11.8-22.5c0.9-2.3-2.6-4.2-4.2-2.4c-5.6,6.2-10.2,13-13.8,20.5c-1.4,2.9,2.9,5.4,4.3,2.5
			c3.4-7.1,7.7-13.6,13-19.5c-1.4-0.8-2.8-1.6-4.2-2.4c-1.6,4.1-3.1,8.2-5.1,12.1c-1.1,2.1-5.1,10.6-7.9,10.4
			c0.7,0.4,1.4,0.8,2.2,1.2c-2.6-4.2,6.6-12.9,8.9-16.1c1.5-2.1,9.3-17.2,11.6-16.3c-0.5-1.2-1-2.4-1.5-3.7
			c-1.2,2.7-2.4,5.4-3.6,8.1c-1.1,2.4,1.9,5.3,3.9,3c1.4-1.5,2.7-3,4.1-4.5c-1.3-0.2-2.6-0.3-3.9-0.5c-0.5-1.1-0.5,1.6-0.4,1.9
			c0.2,0.9,0.8,1.7,1.5,2.2c1.9,1.3,4.3,0.4,5.5-1.3c1.6-2.2,1.3-5.4,0.4-7.8c-1.3-3.4-4.5-4.3-6.1-7.2c-0.9-1.7-3.4-1.5-4.3,0
			c-5.6,8.9-11.2,17.9-16.8,26.8c-2.8,4.5-11,15.1-5.2,20.4c4.2,3.9,11.9-0.9,14.4-4.7c2.4-3.6,4-7.8,6.1-11.5
			c2.7-4.7,5.8-9.1,9.2-13.3c1.8-2.2-0.4-5.3-3-3.9c-0.9,0.4-3.1,1.9-4,1.9c0.7,0.4,1.4,0.8,2.2,1.2c-0.1-0.2-0.2-0.5-0.3-0.7
			c-0.1,1-0.3,2-0.4,3c0.1-0.2,0.3-0.3,0.4-0.5C77.5,134.4,73.9,130.8,71.7,133.2L71.7,133.2z"/>
	</g>
</g>
<g>
	<g>
		<path class="st3" d="M74.9,120.9c3.2,0,3.2-5,0-5C71.7,115.9,71.7,120.9,74.9,120.9L74.9,120.9z"/>
	</g>
</g>
<g>
	<g>
		<path class="st4" d="M96.6,89.3c-1.8,0.7-3.2,1.4-4.8,2.6c-2.1,1.5-0.9,5.6,1.9,4.6c3.6-1.3,6.5-3.2,8.9-6.1
			c-1.2-1.2-2.4-2.4-3.5-3.5c-1.9,2.4-3.2,4.7-4.3,7.6c-0.8,2.3,2.5,4.2,4.2,2.4c1.1-1.2,2.1-2.4,3.2-3.6c-1.3-1-2.6-2-3.9-3
			c-2,3.6-4.5,8.1-4.9,12.2c-0.3,3.1,2.5,5.3,2.9,8.4c0.4,2.7,4.1,2.1,4.8,0c2.4-7,5.1-13.9,8-20.7c2.4-5.4,5.5-10.5,6.1-16.5
			c-1.7,0-3.3,0-5,0c-0.3,3.8-1.2,7.2-2.6,10.7c-1.1,2.6,3.3,4.4,4.6,1.9c2.8-5.5,5-12,0.7-17.3c-3.8-4.7-9.1-8.3-15-5.3
			c-1.8,0.9-1.4,3.3,0,4.3c4,2.9,9.4,6.9,6.4,12.7c-3.1,5.8-9.6,0.1-13.1-2c-1.2-0.7-2.7-0.3-3.4,0.9c-2.3,3.8-4.7,7.6-6.9,11.5
			c-1.8,3.2-2.1,6.5-4,9.6c-3.1,5.1-3,11.2,0.3,16.2c1.5,2.3,5.4,0.9,4.6-1.9c-2.6-9.2,5.2-11.3,12.5-10.6c-0.4-1.6-0.8-3.1-1.3-4.7
			c-1.4,0.8-1.9,1.4-2.9,2.7c-1.4,1.8,0.9,4.2,2.8,3.7c8-2.1,11.7-9.2,13.1-16.8c0.5-2.5-2.2-4-4.2-2.4c-4.4,3.5-8.3,7.4-11.8,11.9
			c1.3,1,2.6,2,3.9,3c0.8-1.1,1.5-2.2,2.3-3.3c0.6-0.9,0.4-2.3-0.4-3c-3.9-3.8-10.4,2.2-13.9,4.2c1.2,0.9,2.4,1.9,3.7,2.8
			c1.4-4.8,7.2-6.9,9.3-11.6c0.8-1.9-0.6-4.3-2.8-3.7c-4.4,1.2-7.7,3.6-10.5,7.2c-1.7,2.3,2,5,3.9,3c3.5-3.6,5.9-7.7,7.3-12.5
			c-1.2,0.5-2.4,1-3.7,1.5c2.2,1.2,5.7,4.4,8.5,3.8c1-0.2,1.4-1.1,2.2-1.6c1.8-1.2,3.4-1.2,5.2-2.1c6.2-2.9,7.4-12.2,7.7-18.2
			c0.1-3.2-4.9-3.2-5,0c-0.1,2.8-0.5,5.6-1.4,8.3c-1.3,3.8-3.2,5-6.7,6.2c-1,0.3-2.3,1.8-3.1,2c-1,0.2,0.3,0.1-1.1-0.7
			c-1.2-0.7-2.4-1.3-3.6-2c-1.4-0.8-3.2-0.1-3.7,1.5c-1.2,4.1-3.1,7.3-6,10.3c1.3,1,2.6,2,3.9,3c2-2.6,4.4-4.1,7.5-4.9
			c-0.9-1.2-1.9-2.4-2.8-3.7c-2.3,5.1-8.1,7.1-9.8,12.8c-0.6,2.1,1.8,3.9,3.7,2.8c0.4-0.2,8-4.8,7.8-5c-0.1-1-0.3-2-0.4-3
			c-0.8,1.1-1.5,2.2-2.3,3.3c-1.6,2.3,2.2,5.3,3.9,3c3.5-4.4,7.4-8.3,11.8-11.9c-1.4-0.8-2.8-1.6-4.2-2.4
			c-1.1,5.8-3.3,11.7-9.6,13.3c0.9,1.2,1.9,2.4,2.8,3.7c0.4-0.3,0.7-0.6,1.1-0.9c2.3-1.3,1.1-4.5-1.3-4.7c-11-1-20.7,4.8-17.3,16.9
			c1.5-0.6,3-1.3,4.6-1.9c-1.8-2.7-2.6-6-1.4-9.2c0.9-2.3,2.9-3.9,3.6-6.3c1.7-6.2,5.1-11.3,8.4-16.8c-1.1,0.3-2.3,0.6-3.4,0.9
			c3.3,2,7.6,5.6,11.5,6.1c3.6,0.4,6.8-2.4,8.3-5.4c1.7-3.5,1.7-7.9,0.5-11.6c-1.3-4-5.4-6-8.6-8.3c0,1.4,0,2.9,0,4.3
			c3.7-1.9,8,2.6,9.2,5.6c1.3,3.4-0.1,6.9-1.7,10c1.5,0.6,3,1.3,4.6,1.9c1.6-3.9,2.5-7.9,2.8-12.1c0.3-3.2-4.7-3.2-5,0
			c-0.6,6.1-4.8,12.4-7.2,18c-2.5,5.9-4.7,11.8-6.8,17.8c1.6,0,3.2,0,4.8,0c-0.2-1.3-0.4-2.5-0.8-3.7c-0.4-0.9-1.4-1.8-1.6-2.7
			c-0.7-2.6,2.6-8,4-10.4c1.3-2.4-2-5.2-3.9-3c-1.1,1.2-2.1,2.4-3.2,3.6c1.4,0.8,2.8,1.6,4.2,2.4c0.7-2.1,1.6-3.7,3-5.4
			c2-2.5-1.5-6-3.5-3.5c-1.8,2.3-3.9,3.9-6.7,4.8c0.6,1.5,1.3,3,1.9,4.6c1.1-0.9,2.3-1.6,3.6-2.1C100.9,93,99.6,88.1,96.6,89.3
			L96.6,89.3z"/>
	</g>
</g>
<g>
	<g>
		<path class="st4" d="M93.7,68.3c-1.6,1.7-3.7,4-4.1,6.4C89.1,77.3,92,78.9,94,80c3.5,2,10.4,3.6,11.8-1.9c0.6-2.4-0.8-4.8-2.6-6.3
			c-1.6-1.3-3.5-3.3-5.7-2.3c-1.7,0.7-3.4,2.9-3.3,4.8c0,2.8,3.6,3.6,5.7,4.5c2.9,1.3,5.5-3,2.5-4.3c-1-0.4-3.3-1-4-1.8
			c0.2,0.6,0.5,1.2,0.7,1.8c0,0,0.7-0.6,0.9-0.7c-0.6,0.1-1.3,0.2-1.9,0.3c-1-0.3-0.2,0,0.3,0.3c0.4,0.3,0.9,0.6,1.3,1
			c0.6,0.5,1.7,1.1,0.8,1.6c-1.2,0.7-5.8-1.9-6.3-3c0.1,0.6,0.2,1.3,0.3,1.9c0.5-1.5,1.8-3,2.8-4.1C99.4,69.4,95.9,65.9,93.7,68.3
			L93.7,68.3z"/>
	</g>
</g>
<g>
	<g>
		<path class="st4" d="M122.1,79.6c-1.2,1.5-2.3,2.9-3.5,4.4c1.3,0.2,2.6,0.3,3.9,0.5c-0.4-0.9-1-1.8-1.8-2.5
			c-0.3-0.3-0.9-0.8-1.3-0.9c-0.4-0.3-0.4-0.2,0.1,0.5c0.2,0.9,0.4,0.9,0.5,0.1c0.8-1.8,0.5-4.6,0-6.5c-1.6,0.4-3.2,0.9-4.8,1.3
			c0.4,1.4,1.1,2.5,2.2,3.4c0.5,0.4,0.9,0.6,1.5,0.8c0.3,0.1,0.6,0.2,1,0.3c0.9,0.4,0.8-0.1-0.4-1.3c0.4-0.7,0.8-1.4,1.2-2.2
			c-0.6,0.4-1.1,0.8-1.7,1.2c-2.6,1.8-0.1,6.1,2.5,4.3c0.6-0.4,1.1-0.8,1.7-1.2c0.7-0.5,1.3-1.3,1.2-2.2c-0.2-1.3-0.6-2.4-1.8-3
			c-0.9-0.5-2.3-0.4-2.7-1.5c-0.9-3.1-5.5-1.8-4.8,1.3c0.2,1.1,0.3,2.1,0.1,3.2c-0.2,1.1-0.7,2-0.5,3.1c0.3,2.1,2.5,2.4,3.3,4.2
			c0.6,1.4,3,1.7,3.9,0.5c1.2-1.5,2.3-2.9,3.5-4.4C127.6,80.6,124.1,77,122.1,79.6L122.1,79.6z"/>
	</g>
</g>
<line class="st5" x1="79.9" y1="66" x2="80" y2="66"/>
<g>
	<g>
		<path class="st6" d="M117.9,50.1c1.8,0,3.7,0,5.5,0c-0.7-1.3-1.4-2.5-2.2-3.8c-1.6,2.8-3.6,5.5-3.8,8.7c-0.1,1.6,1.7,2.9,3.2,2.4
			c2-0.6,3.6-1.5,4.9-3.1c1.4-1.7,1.3-3.9,2.5-5.5c-1.6-0.4-3.1-0.8-4.7-1.3c0.1,1.4,0.4,3.5-0.4,4.8c-1.1,1.7-3.8,2.1-5.7,2.4
			c-5.6,0.8-8.8-2.4-7.4-8.1c1-3.8,2.9-8.2,7.8-6.9c2.4,0.7,6.1,5.9,6.8,8.2c0.7,2.6,5.1,2.2,4.9-0.7c-0.3-4.2-1.9-7.8-5.2-10.6
			c-1.6-1.4-4.2-0.5-4.3,1.8c-0.1,3.4-0.3,8-4.3,9.1c1.1,0.8,2.1,1.6,3.2,2.4c0.2-1.2,1.3-2.4,1.8-3.6c0.5-1.3,0.7-2.6,0.8-3.9
			c0.2-1.5-1.7-3-3.2-2.4c-3.6,1.4-6.8,3.1-9.8,5.5c1.2,1.2,2.4,2.4,3.5,3.5c1.8-2,3.6-4,5.4-6c1.6-1.8,0.1-4.9-2.4-4.2
			c-3.9,1.2-7.8,5.5-7.4,9.8c0.2,2.2,2.1,4,3.3,5.7c1.3,1.7,2.2,3,4.5,3c1.1,0,2.1-0.8,2.4-1.8c0.8-2.8-1.6-5.9-2.9-8.3
			c-1.5-2.9-5.8-0.3-4.3,2.5c0.3,0.6,2.5,3.8,2.4,4.4c0.8-0.6,1.6-1.2,2.4-1.8c0,0-2.5-3.4-2.5-3.7c-0.5-2.2,1.5-4.4,3.4-5
			c-0.8-1.4-1.6-2.8-2.4-4.2c-1.8,2-3.6,4-5.4,6c-2.2,2.4,1.1,5.5,3.5,3.5c2.3-1.8,4.9-3.1,7.6-4.2c-1.1-0.8-2.1-1.6-3.2-2.4
			c-0.3,2.8-2.2,4.7-2.6,7.5c-0.2,1.6,1.8,2.8,3.2,2.4c6.4-1.8,7.7-8,8-13.9c-1.4,0.6-2.8,1.2-4.3,1.8c2.2,1.9,3.5,4.1,3.7,7.1
			c1.6-0.2,3.3-0.4,4.9-0.7c-0.9-3.4-3.4-6-5.4-8.8c-1.9-2.7-4.9-3.2-8-3.1c-3.2,0.1-6.1,0.8-7.9,3.6c-1.8,2.8-3.2,6.7-3.5,10.1
			c-0.6,7.4,5.1,11.9,12.2,11.3c7.6-0.6,12.5-4.3,11.7-12.2c-0.2-2.6-3.1-3.3-4.7-1.3c-1.8,2.3-0.9,5.2-4.4,6.3
			c1.1,0.8,2.1,1.6,3.2,2.4c0.1-2,2.2-4.5,3.1-6.2c0.9-1.6-0.2-3.8-2.2-3.8c-1.8,0-3.7,0-5.5,0C114.7,45.1,114.7,50.1,117.9,50.1
			L117.9,50.1z"/>
	</g>
</g>
<g>
	<path d="M116.3,70.2c-1.3-3.2-3.8-5.8-7-7.3c-5-2.4-10.9-1.6-15.1,1.9L74,53c-1.1-0.6-2.4-1-3.6-1c-2.6,0-4.9,1.4-6.2,3.6
		c-2,3.4-0.8,7.9,2.6,9.9l20.1,11.7l-12.5,26.1c-1.5,3.2-1.7,6.7-0.8,9.9c0,0-0.1,0.1-0.1,0.1l-25.4,40.5c-1.4,2.2-1.8,4.7-1.2,7.2
		c0.6,2.5,2.1,4.6,4.2,5.9c1.5,1,3.3,1.5,5,1.5c0.7,0,1.4-0.1,2.1-0.2c2.5-0.6,4.6-2.1,5.9-4.2l19-30.3l5.4,27.9
		c0.9,4.5,4.8,7.7,9.3,7.7c0.6,0,1.2-0.1,1.8-0.2c5.2-1,8.5-6,7.5-11.2l-8-41.2c0.3-0.4,0.5-0.9,0.7-1.3l14.3-30l7.8,7.2
		c1.2,1.1,2.8,1.7,4.3,1.7c1.7,0,3.4-0.7,4.6-2L148.1,74c2-2.2,2.2-5.4,0.7-7.7l13.8,6.9c0.2,0.1,0.4,0.1,0.6,0.1
		c0.5,0,0.9-0.2,1.1-0.7c0.3-0.6,0.1-1.3-0.5-1.7l-34.1-17.2c0.1-0.1,0.1-0.3,0.2-0.4c3.4-7.2,0.4-15.8-6.8-19.2
		c-2-0.9-4-1.4-6.2-1.4c-5.5,0-10.5,3.2-12.9,8.1L74.7,26.2c-0.6-0.3-1.3-0.1-1.7,0.5c-0.3,0.6-0.1,1.3,0.5,1.7L103,43.2
		c-1.9,6.7,1.2,13.9,7.6,17c2,0.9,4,1.4,6.2,1.4c4.5,0,8.8-2.2,11.5-5.7l14.9,7.5c-1.6,0.1-3.1,0.8-4.2,2l-13,13.9L116.3,70.2z
		 M116.8,59.1c-1.8,0-3.5-0.4-5.1-1.2c-5.9-2.8-8.5-10-5.6-15.9c2-4.1,6.2-6.8,10.8-6.8c1.8,0,3.5,0.4,5.1,1.2
		c5.9,2.8,8.5,10,5.6,15.9C125.6,56.5,121.4,59.1,116.8,59.1z M66.2,56.8c0.8-1.5,2.4-2.4,4.1-2.4c0.8,0,1.7,0.2,2.4,0.6l29.8,17.4
		c2.3,1.3,3,4.2,1.7,6.5c-0.8,1.5-2.4,2.4-4.1,2.4c-0.8,0-1.7-0.2-2.4-0.6L67.9,63.3C65.7,62,64.9,59.1,66.2,56.8z M62,162.7
		c-1,1.6-2.6,2.7-4.4,3.1c-1.8,0.4-3.7,0.1-5.3-0.9c-0.3-0.2-0.5-0.4-0.8-0.6l12.5-20.7c0.4-0.6,0.2-1.3-0.4-1.7
		c-0.6-0.4-1.3-0.2-1.7,0.4l-12,19.9c-0.3-0.6-0.5-1.2-0.7-1.8c-0.4-1.8-0.1-3.7,0.9-5.3L74.6,116c1.3,2.5,3.5,4.7,6.2,6.1l1.6,8.1
		L62,162.7z M101.7,165.7l-6.3-30.3c-0.1-0.7-0.8-1.1-1.5-1c-0.7,0.1-1.1,0.8-1,1.5l6.4,30.8c-0.1,0-0.2,0-0.2,0.1
		c-0.4,0.1-0.9,0.1-1.4,0.1c-3.4,0-6.3-2.4-6.9-5.7l-9.1-46.9c-0.7-3.8,1.8-7.5,5.6-8.3c0.4-0.1,0.9-0.1,1.4-0.1
		c3.4,0,6.3,2.4,6.9,5.7l9.1,46.9C105.3,161.3,104,164.1,101.7,165.7z M98.4,112.9l-0.4-1.8c-0.9-4.5-4.8-7.7-9.3-7.7
		c-0.6,0-1.2,0.1-1.8,0.2c-5.2,1-8.5,6-7.5,11.2l0.8,4.2c-4.5-3.3-6.1-9.3-3.7-14.5l12.4-25.9l7.5,4.4c1.1,0.6,2.4,1,3.6,1
		c2.6,0,4.9-1.4,6.2-3.6c2-3.4,0.8-7.9-2.6-9.9l-7.3-4.2c3.4-2.4,8-2.8,11.8-1c2.8,1.3,5,3.7,6,6.7c1,3,0.9,6.1-0.5,9L98.4,112.9z
		 M146.4,72.3l-17.3,18.4c-1.5,1.5-3.9,1.6-5.4,0.2l-8.3-7.8l0.6-1.3c1.1-2.3,1.6-4.8,1.3-7.3l7.9,7.3c0.5,0.5,1.3,0.4,1.7-0.1
		l13.8-14.8c0.7-0.7,1.7-1.2,2.7-1.2c1,0,2,0.3,2.7,1C147.7,68.4,147.8,70.8,146.4,72.3z"/>
	<path class="st7" d="M106.1,86.7c-0.6-0.3-1.3-0.1-1.7,0.5l-7,13.5c-0.3,0.6-0.1,1.3,0.5,1.7c0.2,0.1,0.4,0.1,0.6,0.1
		c0.4,0,0.9-0.2,1.1-0.7l7-13.5C106.9,87.7,106.7,87,106.1,86.7z"/>
</g>
</svg>
