<?xml version="1.0" encoding="utf-8"?>
<!-- Generator: Adobe Illustrator 22.0.1, SVG Export Plug-In . SVG Version: 6.00 Build 0)  -->
<svg version="1.1" id="Calque_1" xmlns="http://www.w3.org/2000/svg" xmlns:xlink="http://www.w3.org/1999/xlink" x="0px" y="0px"
	 viewBox="0 0 200 200" style="enable-background:new 0 0 200 200;" xml:space="preserve">
<style type="text/css">
	.st0{fill:#D8C3DF;}
	.st1{fill:#FFFFFF;}
	.st2{fill:none;stroke:#010101;stroke-miterlimit:10;}
	.st3{fill:#1F2020;stroke:#000000;stroke-miterlimit:10;}
	.st4{fill:#535353;}
	.st5{fill:#EC9864;stroke:#000000;stroke-miterlimit:10;}
	.st6{fill:#F3C996;}
	.st7{fill:#D6CFBF;}
	.st8{fill:#FFF7E4;}
	.st9{fill:#EC9864;}
	.st10{fill:#F3C996;stroke:#000000;stroke-miterlimit:10;}
	.st11{fill:none;stroke:#000000;stroke-miterlimit:10;}
</style>
<g id="XMLID_1_">
	<g>
		<path class="st0" d="M172.1,16.1c6.6,0,12,5.4,12,12V172c0,6.6-5.4,12-12,12H28.2c-6.6,0-12-5.4-12-12V28.1c0-6.6,5.4-12,12-12
			H172.1z"/>
		<path class="st1" d="M184.1,28.1c0-6.6-5.4-12-12-12H28.2c-6.6,0-12,5.4-12,12V172c0,6.6,5.4,12,12,12h143.9c6.6,0,12-5.4,12-12
			L184.1,28.1L184.1,28.1z M18.4,6.4h163.1c6.6,0,12,5.4,12,12v163.1c0,6.6-5.4,12-12,12H18.4c-6.6,0-12-5.4-12-12V18.4
			C6.4,11.8,11.8,6.4,18.4,6.4z"/>
	</g>
	<g>
		<path class="st2" d="M172.1,183.9H28.2c-6.6,0-12-5.4-12-12V28.1c0-6.6,5.4-12,12-12h143.9c6.6,0,12,5.4,12,12V172
			C184.1,178.5,178.7,183.9,172.1,183.9z"/>
		<path class="st2" d="M181.6,193.6H18.4c-6.6,0-12-5.4-12-12V18.4c0-6.6,5.4-12,12-12h163.1c6.6,0,12,5.4,12,12v163.1
			C193.6,188.2,188.2,193.6,181.6,193.6z"/>
	</g>
</g>
<path class="st3" d="M126.7,114.1l-28.3-8c-1.7-0.5-3.5-0.5-5.2,0l-27.7,7.9l-0.6,0.2c-4.1,1.2-7,5-7,9.3v26.2
	c0,5.4,4.4,9.7,9.7,9.7c5.4,0,9.7-4.4,9.7-9.7v-17.8l18.5-3.9l18.5,3.9v17.8c0,5.4,4.4,9.7,9.7,9.7s9.7-4.4,9.7-9.7v-26.2
	C133.7,119.1,130.8,115.2,126.7,114.1z"/>
<path class="st4" d="M94,106.9c-0.8,0-1.7,0.1-2.5,0.3l-26.1,7.5l-0.5,0.1c-3.9,1.1-6.6,4.8-6.6,8.9v25c0,5.1,4.1,9.3,9.1,9.3
	s9.1-4.2,9.1-9.3v-16.9L94,128V106.9z"/>
<path class="st5" d="M98.8,34h-5.8c-6.1,0-11,4.9-11,11v5.8c0,6.1,4.9,11,11,11h5.8c6.1,0,11-4.9,11-11V45
	C109.8,38.9,104.8,34,98.8,34z"/>
<path class="st6" d="M96.5,34.6h-2.9c-6.1,0-11,4.7-11,10.6v5.6c0,5.8,4.9,10.6,11,10.6h2.9V34.6z"/>
<path class="st5" d="M148.1,76.1L148.1,76.1c-2.5-3.3-7.2-4-10.6-1.5l-7.9,6l-15.6-12.9c-1.6-1.3-3.5-1.9-5.5-1.7
	c-2,0.2-3.8,1.1-5.1,2.7c-1.3,1.6-1.9,3.5-1.7,5.5c0.2,2,1.1,3.8,2.7,5.1l17.1,14.2c2.3,1.9,5.1,2.9,8,2.9c2.7,0,5.4-0.9,7.6-2.5
	l9.4-7.2C149.9,84.2,150.6,79.5,148.1,76.1z"/>
<path class="st7" d="M113.3,67.7c-1.9-2.2-4.6-3.4-7.4-3.4H86.6c-2.8,0-5.5,1.3-7.4,3.4c-1.9,2.2-2.8,5.1-2.5,8.1l3.4,35.8
	c0.2,1.9,1.7,3.3,3.5,3.3H109c1.8,0,3.3-1.4,3.5-3.3l3.4-35.8C116.1,72.8,115.2,69.9,113.3,67.7z"/>
<path class="st8" d="M96.3,64.3H86.2c-3,0-5.8,1.3-7.8,3.4c-2,2.2-3,5.1-2.7,8.1l3.5,35.8c0.2,1.9,1.8,3.3,3.7,3.3h13.4L96.3,64.3
	L96.3,64.3z"/>
<path class="st9" d="M97.9,81.2c0,0-5,0-5,0l-9,0l0-12.1c0-1.3-0.8-2.4-2.1-2.8c-1.2-0.4-2.6,0.1-3.3,1.1l-7.2,10.4
	c-2.5,3.6-2.8,8.3-0.7,12.2c2,3.9,6,6.3,10.4,6.3c0,0,0,0,0,0l16.9,0c2,0,3.9-0.8,5.3-2.2c1.4-1.4,2.2-3.3,2.2-5.3
	C105.5,84.6,102.1,81.2,97.9,81.2z"/>
<path class="st10" d="M95.8,81.2c0,0-2.9,0-2.9,0l-9,0l0-12.1c0-1.3-0.8-2.4-2.1-2.8c-1.2-0.4-2.6,0.1-3.3,1.1l-7.2,10.4
	c-2.5,3.6-2.8,8.3-0.7,12.2c2,3.9,6,6.3,10.4,6.3c0,0,0,0,0,0l14.8,0L95.8,81.2z"/>
<line class="st11" x1="115.2" y1="88.3" x2="113.1" y2="110.1"/>
<line class="st11" x1="77.2" y1="96" x2="78.6" y2="109.8"/>
<line class="st11" x1="79.9" y1="66" x2="80" y2="66"/>
</svg>
