<?xml version="1.0" encoding="utf-8"?>
<!-- Generator: Adobe Illustrator 22.0.1, SVG Export Plug-In . SVG Version: 6.00 Build 0)  -->
<svg version="1.1" id="Calque_1" xmlns="http://www.w3.org/2000/svg" xmlns:xlink="http://www.w3.org/1999/xlink" x="0px" y="0px"
	 viewBox="0 0 200 200" style="enable-background:new 0 0 200 200;" xml:space="preserve">
<style type="text/css">
	.st0{fill:#D8C3DF;}
	.st1{fill:#FFFFFF;}
	.st2{fill:none;stroke:#010101;stroke-miterlimit:10;}
	.st3{fill:#F9B6B4;}
	.st4{fill:#F48884;}
	.st5{fill:#EF3F35;}
	.st6{fill:#1C1918;}
</style>
<g id="XMLID_1_">
	<g>
		<path class="st0" d="M172.1,16.1c6.6,0,12,5.4,12,12V172c0,6.6-5.4,12-12,12H28.2c-6.6,0-12-5.4-12-12V28.1c0-6.6,5.4-12,12-12
			H172.1z"/>
		<path class="st1" d="M184.1,28.1c0-6.6-5.4-12-12-12H28.2c-6.6,0-12,5.4-12,12V172c0,6.6,5.4,12,12,12h143.9c6.6,0,12-5.4,12-12
			L184.1,28.1L184.1,28.1z M18.4,6.4h163.1c6.6,0,12,5.4,12,12v163.1c0,6.6-5.4,12-12,12H18.4c-6.6,0-12-5.4-12-12V18.4
			C6.4,11.8,11.8,6.4,18.4,6.4z"/>
	</g>
	<g>
		<path class="st2" d="M172.1,183.9H28.2c-6.6,0-12-5.4-12-12V28.1c0-6.6,5.4-12,12-12h143.9c6.6,0,12,5.4,12,12V172
			C184.1,178.5,178.7,183.9,172.1,183.9z"/>
		<path class="st2" d="M181.6,193.6H18.4c-6.6,0-12-5.4-12-12V18.4c0-6.6,5.4-12,12-12h163.1c6.6,0,12,5.4,12,12v163.1
			C193.6,188.2,188.2,193.6,181.6,193.6z"/>
	</g>
</g>
<g>
	<path class="st3" d="M118.4,148.3v-39.5H77.7v3.3c0.9,0,1.6,0.7,1.6,1.6v34.6L118.4,148.3L118.4,148.3z"/>
	<path class="st3" d="M126.6,123.2h8.4c4,0,7.2-3.3,7.2-7.2V74.6l-21.5-17.5c-0.7-0.5-2.1-1-2.9-1l-4.3,0c-0.3,0-0.6-0.1-0.9-0.3
		l-5.3-3.6L86.4,81.6h31.9V67.7c0-0.9,0.7-1.6,1.6-1.6c0.9,0,1.6,0.7,1.6,1.6v11.6l4-4c0.6-0.6,1.7-0.6,2.3,0c0.6,0.6,0.6,1.7,0,2.3
		l-6.4,6.4v41h3.3C125,124,125.7,123.2,126.6,123.2z"/>
	<path class="st4" d="M69.4,83.9L63,77.5c-0.6-0.6-0.6-1.7,0-2.3c0.6-0.6,1.7-0.6,2.3,0l4,4V67.7c0-0.9,0.7-1.6,1.6-1.6
		c0.9,0,1.6,0.7,1.6,1.6v13.9h9.7l11.1-15.7l-9.7-13.7l-5.3,3.6c-0.3,0.2-0.6,0.3-0.9,0.3c0,0-4.3,0-4.3,0c-0.8,0-2.3,0.5-2.9,1
		L48.8,74.6V116c0,4,3.3,7.2,7.2,7.2h8.4c0.9,0,1.6,0.7,1.6,1.6c0,0,3.3,0,3.3,0V83.9z"/>
	<path class="st4" d="M72.7,108.7v39.5h3.4v-34.6c0-0.9,0.7-1.6,1.6-1.6v-3.3H72.7z"/>
	<path class="st5" d="M72.7,93.5h4.9c0.9,0,1.6,0.7,1.6,1.6c0,0.9-0.7,1.6-1.6,1.6h-4.9v8.6h45.7v-8.6H84.2c-0.9,0-1.6-0.7-1.6-1.6
		c0-0.9,0.7-1.6,1.6-1.6h34.2v-8.6H72.7V93.5z"/>
	<path class="st6" d="M144.9,72.5l-22.1-18c-1.2-1-3.4-1.8-5-1.8h0l-3.8,0l-6.3-4.2c-0.7-0.5-1.7-0.3-2.3,0.4l-10,14.1L85.5,49
		c-0.5-0.7-1.5-0.9-2.3-0.4L77,52.8l-3.8,0h0c-1.6,0-3.7,0.8-5,1.8l-22.1,18c-0.4,0.3-0.6,0.8-0.6,1.3V116c0,5.8,4.7,10.5,10.5,10.5
		h8.4c0.9,0,1.6-0.7,1.6-1.6c0-0.9-0.7-1.6-1.6-1.6h-8.4c-4,0-7.2-3.3-7.2-7.2V74.6l21.5-17.5c0.7-0.5,2.1-1,2.9-1c0,0,4.3,0,4.3,0
		c0.3,0,0.6-0.1,0.9-0.3l5.3-3.6l9.7,13.7L82.4,81.6h-9.7V67.7c0-0.9-0.7-1.6-1.6-1.6c-0.9,0-1.6,0.7-1.6,1.6v11.6l-4-4
		c-0.6-0.6-1.7-0.6-2.3,0s-0.6,1.7,0,2.3l6.4,6.4v66c0,0.9,0.7,1.6,1.6,1.6h49c0.9,0,1.6-0.7,1.6-1.6v-66l6.4-6.4
		c0.6-0.6,0.6-1.7,0-2.3c-0.6-0.6-1.7-0.6-2.3,0l-4,4V67.7c0-0.9-0.7-1.6-1.6-1.6c-0.9,0-1.6,0.7-1.6,1.6v13.9H86.4l20.8-29.3
		l5.3,3.6c0.3,0.2,0.6,0.3,0.9,0.3c0,0,4.3,0,4.3,0c0.8,0,2.3,0.5,2.9,1l21.5,17.5V116c0,4-3.3,7.2-7.2,7.2h-8.4
		c-0.9,0-1.6,0.7-1.6,1.6c0,0.9,0.7,1.6,1.6,1.6h8.4c5.8,0,10.5-4.7,10.5-10.5V73.8C145.5,73.3,145.3,72.8,144.9,72.5z M77.7,112
		c-0.9,0-1.6,0.7-1.6,1.6v34.6h-3.4v-39.5h45.7v39.5h-39v-34.6C79.3,112.8,78.6,112,77.7,112z M118.4,84.9v8.6H84.2
		c-0.9,0-1.6,0.7-1.6,1.6c0,0.9,0.7,1.6,1.6,1.6h34.2v8.6H72.7v-8.6h4.9c0.9,0,1.6-0.7,1.6-1.6c0-0.9-0.7-1.6-1.6-1.6h-4.9v-8.6
		L118.4,84.9L118.4,84.9z"/>
</g>
</svg>
