<?xml version="1.0" encoding="utf-8"?>
<!-- Generator: Adobe Illustrator 22.0.1, SVG Export Plug-In . SVG Version: 6.00 Build 0)  -->
<svg version="1.1" id="Calque_1" xmlns="http://www.w3.org/2000/svg" xmlns:xlink="http://www.w3.org/1999/xlink" x="0px" y="0px"
	 viewBox="0 0 200 200" style="enable-background:new 0 0 200 200;" xml:space="preserve">
<style type="text/css">
	.st0{fill:#FFFFFF;}
	.st1{fill:#FBEDB6;}
	.st2{fill:none;stroke:#010101;stroke-miterlimit:10;}
	.st3{fill:#BFB09C;}
	.st4{fill:#FFEBD3;}
	.st5{fill:#FFDEB8;}
	.st6{fill:#464755;}
</style>
<g id="XMLID_1_">
	<g>
		<path class="st0" d="M184.1,171.6V27.7c0-6.6-5.4-12-12-12H28.2c-6.6,0-12,5.4-12,12v143.9c0,6.6,5.4,12,12,12h143.9
			C178.7,183.6,184.1,178.2,184.1,171.6z M193.6,18.1v163.1c0,6.6-5.4,12-12,12H18.4c-6.6,0-12-5.4-12-12V18.1c0-6.6,5.4-12,12-12
			h163.1C188.2,6.1,193.6,11.5,193.6,18.1z"/>
		<path class="st1" d="M184.1,27.7v143.9c0,6.6-5.4,12-12,12H28.2c-6.6,0-12-5.4-12-12V27.7c0-6.6,5.4-12,12-12h143.9
			C178.7,15.7,184.1,21.1,184.1,27.7z"/>
	</g>
	<g>
		<path class="st2" d="M172.1,183.6H28.2c-6.6,0-12-5.4-12-12V27.7c0-6.6,5.4-12,12-12h143.9c6.6,0,12,5.4,12,12v143.9
			C184.1,178.2,178.7,183.6,172.1,183.6z"/>
		<path class="st2" d="M181.6,193.2H18.4c-6.6,0-12-5.4-12-12V18.1c0-6.6,5.4-12,12-12h163.1c6.6,0,12,5.4,12,12v163.1
			C193.6,187.8,188.2,193.2,181.6,193.2z"/>
	</g>
</g>
<g>
	<path class="st3" d="M85.9,65.6c-5.7-17.2-19.1-28.7-22.8-28.7c-2.9,0-7.8,26.8,7.5,38.3L85.9,65.6z"/>
	<path class="st3" d="M114.4,65.6c5.7-17.2,19.1-28.7,22.8-28.7c2.9,0,7.8,26.8-7.5,38.3L114.4,65.6z"/>
</g>
<path class="st4" d="M100.1,149.6c10.8,6.7,28.7,5.7,28.7,5.7c-1-2.4-1.9-7.6-1.9-7.6c5.7,0,11.4,1.9,11.4,1.9
	c1.7-5.2,0-11.5,0-11.5c4.8,0,7.6,2.2,7.6,1.9c0-2.4-1.2-6.9-3.8-11.5h7.6c0-3.9-3.8-9.6-3.8-9.6c0,0,3.8,0,3.8,0
	s-1.8-8.9-11.5-13.4c-0.3-0.1,9.6-1.8,9.6-1.9c0-5.3-2.7-10.2-5.9-13.4l3.9-3.8c-2.6-5.6-6.3-11.4-13.4-13.3l3.8-3.9
	c-6.7-7.8-19.2-9.6-23.7-9.6c0,0,2.6-3.8,2.5-3.8c-7.7,0-11.8,1.9-15.1,5.7C96.8,57.9,92.7,56,85,56c-0.2,0,2.5,3.8,2.5,3.8
	c-4.5,0-17,1.8-23.7,9.6l3.8,3.9c-7.1,1.9-10.7,7.8-13.4,13.3l3.9,3.8c-3.2,3.2-5.9,8.1-5.9,13.4c0,0.2,9.8,1.8,9.6,1.9
	c-9.7,4.5-11.5,13.4-11.5,13.4s3.8,0,3.8,0c0,0-3.8,5.6-3.8,9.6h7.6c-2.6,4.5-3.8,9.1-3.8,11.5c0,0.2,2.9-1.9,7.6-1.9
	c0,0-1.7,6.2,0,11.5c0,0,5.7-1.9,11.4-1.9c0,0-0.8,5.2-1.9,7.6C71.5,155.4,89.3,156.3,100.1,149.6z"/>
<path class="st0" d="M100.1,94.2c-8.8,0-19.4-1.7-25.5-2.8c-2.5-0.5-4.8,1.7-4.5,4.2c1.2,9.4,3.7,28.7,5.1,33
	c1.9,5.8,19.1,15.3,19.1,15.3l5.7,0l5.7,0c0,0,17.2-9.5,19.1-15.3c1.4-4.3,3.9-23.6,5.1-33c0.3-2.6-1.9-4.7-4.5-4.2
	C119.5,92.6,109,94.2,100.1,94.2z"/>
<ellipse class="st5" cx="100.1" cy="134.3" rx="11.5" ry="13.4"/>
<g>
	<circle class="st6" cx="79.1" cy="105.7" r="3.8"/>
	<circle class="st6" cx="121.2" cy="105.7" r="3.8"/>
</g>
<path class="st4" d="M104.6,117.2c-1.6,0-3.1,0.6-4.5,1.6c-1.3-1-2.8-1.6-4.5-1.6c-4.9,0-8.9,5.1-8.9,11.5c0,6.3,4,11.5,8.9,11.5
	c1.6,0,3.1-0.6,4.5-1.6c1.3,1,2.8,1.6,4.5,1.6c4.9,0,8.9-5.1,8.9-11.5C113.5,122.3,109.5,117.2,104.6,117.2z"/>
<path class="st6" d="M100.1,129.7c0,0-1-3.1-3.8-4c-4.6-1.4-5.7-3.3-5.7-4.8c0-3.2,3.2-5.7,9.6-5.7c6.3,0,9.6,2.6,9.6,5.7
	c0,1.5-1.1,3.4-5.7,4.8C101.1,126.6,100.1,129.7,100.1,129.7z"/>
<path class="st5" d="M98.2,98.1c0,0,28.7-0.1,47.8-11.5c-2.6-5.6-6.3-11.4-13.4-13.3l3.8-3.9c-6.7-7.8-19.2-9.6-23.7-9.6
	c0,0,2.6-3.8,2.5-3.8c-7.7,0-11.8,1.9-15.1,5.7C96.8,57.9,92.7,56,85,56c-0.2,0,2.5,3.8,2.5,3.8c-4.5,0-17,1.8-23.7,9.6l3.8,3.9
	c-7.1,1.9-10.7,7.8-13.4,13.3c0,0,24.9,7.7,45.9,7.7L98.2,98.1z"/>
</svg>
