<?xml version="1.0" encoding="utf-8"?>
<!-- Generator: Adobe Illustrator 22.0.1, SVG Export Plug-In . SVG Version: 6.00 Build 0)  -->
<svg version="1.1" id="Calque_1" xmlns="http://www.w3.org/2000/svg" xmlns:xlink="http://www.w3.org/1999/xlink" x="0px" y="0px"
	 viewBox="0 0 200 200" style="enable-background:new 0 0 200 200;" xml:space="preserve">
<style type="text/css">
	.st0{fill:#FFFFFF;}
	.st1{fill:#FBEDB6;}
	.st2{fill:none;stroke:#010101;stroke-miterlimit:10;}
	.st3{fill:#EE999B;}
	.st4{fill:#78909C;}
	.st5{fill:#B0BEC5;}
	.st6{fill:#010101;}
	.st7{fill:#E0E1E0;}
	.st8{opacity:0.1;fill:#010101;enable-background:new    ;}
	.st9{fill:#212121;}
</style>
<g id="XMLID_1_">
	<g>
		<path class="st0" d="M184.1,171.6V27.7c0-6.6-5.4-12-12-12H28.2c-6.6,0-12,5.4-12,12v143.9c0,6.6,5.4,12,12,12h143.9
			C178.7,183.6,184.1,178.2,184.1,171.6z M193.6,18.1v163.1c0,6.6-5.4,12-12,12H18.4c-6.6,0-12-5.4-12-12V18.1c0-6.6,5.4-12,12-12
			h163.1C188.2,6.1,193.6,11.5,193.6,18.1z"/>
		<path class="st1" d="M184.1,27.7v143.9c0,6.6-5.4,12-12,12H28.2c-6.6,0-12-5.4-12-12V27.7c0-6.6,5.4-12,12-12h143.9
			C178.7,15.7,184.1,21.1,184.1,27.7z"/>
	</g>
	<g>
		<path class="st2" d="M172.1,183.6H28.2c-6.6,0-12-5.4-12-12V27.7c0-6.6,5.4-12,12-12h143.9c6.6,0,12,5.4,12,12v143.9
			C184.1,178.2,178.7,183.6,172.1,183.6z"/>
		<path class="st2" d="M181.6,193.2H18.4c-6.6,0-12-5.4-12-12V18.1c0-6.6,5.4-12,12-12h163.1c6.6,0,12,5.4,12,12v163.1
			C193.6,187.8,188.2,193.2,181.6,193.2z"/>
	</g>
</g>
<path class="st3" d="M79.6,78.6l-12-28.3L49.1,36.1L44,38.4c-2,13.7,15,42.6,31.9,53.1L78,92l2.5-3L79.6,78.6z"/>
<path class="st4" d="M44,38.4C56.9,40.2,67.6,57.3,78,89v3l6.6,1.5V84c-9.6-41.3-29-60.3-38.4-50.7c-1.2,1.2-1.9,2.9-2.2,4.9
	L44,38.4z"/>
<path class="st3" d="M120.7,78.6l12-28.3l18.5-14.2l5.1,2.3c2,13.7-15,42.6-31.9,53.1l-2.2,0.5l-2.5-3L120.7,78.6z"/>
<path class="st4" d="M156.3,38.4c-12.9,1.9-23.7,18.9-34.1,50.6v3l-6.6,1.5V84c9.6-41.3,29-60.3,38.4-50.7c1.2,1.2,1.9,2.9,2.2,4.9
	L156.3,38.4z"/>
<path class="st5" d="M132.4,116.2c1.2-9.4-5.4-35.9-32.2-35.9s-33.4,26.5-32.2,35.9c-15.3,11.7-12,32,8.7,40.8l0.5,0.2h45.9l0.5-0.2
	C144.4,148.2,147.7,127.9,132.4,116.2z"/>
<ellipse class="st6" cx="79.6" cy="114.5" rx="3" ry="4.6"/>
<ellipse class="st6" cx="120.7" cy="114.5" rx="3" ry="4.6"/>
<path class="st7" d="M108,127.8H92.3c-9.1,3.5-15.7,12.9-15.7,24c0,1.9,0.2,3.7,0.5,5.4c6.2,2.5,13.8,4,23,4s16.8-1.5,23-4
	c0.3-1.7,0.5-3.5,0.5-5.4C123.6,140.8,117.1,131.3,108,127.8z"/>
<path class="st8" d="M85.1,157.2l-0.5-0.2c-20.7-8.8-25.6-29.1-10.3-40.8c-1.1-8.9,6.3-33.3,29.8-35.7c-1.3-0.1-2.6-0.2-3.9-0.2
	c-26.8,0-33.4,26.5-32.2,35.9c-15.3,11.7-12,32,8.7,40.8l0.5,0.2c6.2,2.5,13.8,4,23,4c1.3,0,2.7,0,3.9-0.1
	C96.7,160.8,90.3,159.4,85.1,157.2z"/>
<path class="st9" d="M110.3,148.8c-4.5,0-8.1-3.6-8.1-8.1v-7.3c0-1.1-0.9-2-2-2s-2,0.9-2,2v7.3c0,4.5-3.6,8.1-8.1,8.1
	c-1.1,0-2,0.9-2,2c0,1.1,0.9,2,2,2c4.2,0,7.9-2.2,10.1-5.5c2.2,3.3,5.9,5.5,10.1,5.5c1.1,0,2-0.9,2-2
	C112.2,149.7,111.3,148.8,110.3,148.8z"/>
<path class="st3" d="M100.2,126.4c-2.7,0-5.4,0.5-7.8,1.4c0.8,3.2,4,5.6,7.8,5.6s7.1-2.4,7.8-5.6
	C105.5,126.9,102.9,126.4,100.2,126.4z"/>
</svg>
