<?xml version="1.0" encoding="utf-8"?>
<!-- Generator: Adobe Illustrator 22.0.1, SVG Export Plug-In . SVG Version: 6.00 Build 0)  -->
<svg version="1.1" id="Calque_1" xmlns="http://www.w3.org/2000/svg" xmlns:xlink="http://www.w3.org/1999/xlink" x="0px" y="0px"
	 viewBox="0 0 200 200" style="enable-background:new 0 0 200 200;" xml:space="preserve">
<style type="text/css">
	.st0{fill:#FFFFFF;}
	.st1{fill:#D8EBDD;}
	.st2{fill:none;stroke:#010101;stroke-miterlimit:10;}
	.st3{fill:#F04F59;}
	.st4{fill:#5C8351;}
</style>
<g id="XMLID_1_">
	<g>
		<path class="st0" d="M193.6,18.4v163.1c0,6.6-5.4,12-12,12H18.4c-6.6,0-12-5.4-12-12V18.4c0-6.6,5.4-12,12-12h163.1
			C188.2,6.4,193.6,11.8,193.6,18.4z M184.1,171.9V28.1c0-6.6-5.4-12-12-12H28.2c-6.6,0-12,5.4-12,12V172c0,6.6,5.4,12,12,12h143.9
			C178.7,183.9,184.1,178.5,184.1,171.9z"/>
		<path class="st1" d="M184.1,28.1V172c0,6.6-5.4,12-12,12H28.2c-6.6,0-12-5.4-12-12V28.1c0-6.6,5.4-12,12-12h143.9
			C178.7,16.1,184.1,21.5,184.1,28.1z"/>
	</g>
	<g>
		<path class="st2" d="M172.1,183.9H28.2c-6.6,0-12-5.4-12-12V28.1c0-6.6,5.4-12,12-12h143.9c6.6,0,12,5.4,12,12V172
			C184.1,178.5,178.7,183.9,172.1,183.9z"/>
		<path class="st2" d="M181.6,193.6H18.4c-6.6,0-12-5.4-12-12V18.4c0-6.6,5.4-12,12-12h163.1c6.6,0,12,5.4,12,12v163.1
			C193.6,188.2,188.2,193.6,181.6,193.6z"/>
	</g>
</g>
<path class="st3" d="M146.6,135.7H53.7c-4.5,0-8.2-3.7-8.2-8.2V72.4c0-4.5,3.7-8.2,8.2-8.2h92.8c4.5,0,8.2,3.7,8.2,8.2v55.2
	C154.8,132.1,151.1,135.7,146.6,135.7z"/>
<path class="st4" d="M109.1,104.6l14.4-10.6h-17.8l-5.5-17l-5.5,17H76.8l14.4,10.6l-5.5,16.9l14.4-10.3l0,0l0,0l14.4,10.3
	L109.1,104.6z M112,97.8l-4.1,3l-1-3H112z M95.6,103.2l1.7-5.4h5.6l1.7,5.4l-4.5,3.3L95.6,103.2z M100.2,89.3l1.6,4.8h-3.1
	L100.2,89.3z M88.3,97.8h5.1l-1,3L88.3,97.8z M92.8,111.8l1.6-4.8l2.5,1.9L92.8,111.8z M105.9,107l1.6,4.8l-4.1-2.9L105.9,107z"/>
</svg>
