<?xml version="1.0" encoding="utf-8"?>
<!-- Generator: Adobe Illustrator 22.0.1, SVG Export Plug-In . SVG Version: 6.00 Build 0)  -->
<svg version="1.1" id="Calque_1" xmlns="http://www.w3.org/2000/svg" xmlns:xlink="http://www.w3.org/1999/xlink" x="0px" y="0px"
	 viewBox="0 0 200 200" style="enable-background:new 0 0 200 200;" xml:space="preserve">
<style type="text/css">
	.st0{fill:#FFFFFF;}
	.st1{fill:#D8EBDD;}
	.st2{fill:none;stroke:#010101;stroke-miterlimit:10;}
	.st3{fill:#046948;}
	.st4{fill:#CE2028;}
	.st5{fill:#EEEDEE;}
	.st6{fill:#A6D388;}
	.st7{fill:#5D913F;}
	.st8{fill:#5FA9DD;}
	.st9{fill:#FFCC4D;}
	.st10{fill:#C26A50;}
</style>
<g id="XMLID_1_">
	<g>
		<path class="st0" d="M193.6,18.4v163.1c0,6.6-5.4,12-12,12H18.4c-6.6,0-12-5.4-12-12V18.4c0-6.6,5.4-12,12-12h163.1
			C188.2,6.4,193.6,11.8,193.6,18.4z M184.1,171.9V28.1c0-6.6-5.4-12-12-12H28.2c-6.6,0-12,5.4-12,12V172c0,6.6,5.4,12,12,12h143.9
			C178.7,183.9,184.1,178.5,184.1,171.9z"/>
		<path class="st1" d="M184.1,28.1V172c0,6.6-5.4,12-12,12H28.2c-6.6,0-12-5.4-12-12V28.1c0-6.6,5.4-12,12-12h143.9
			C178.7,16.1,184.1,21.5,184.1,28.1z"/>
	</g>
	<g>
		<path class="st2" d="M172.1,183.9H28.2c-6.6,0-12-5.4-12-12V28.1c0-6.6,5.4-12,12-12h143.9c6.6,0,12,5.4,12,12V172
			C184.1,178.5,178.7,183.9,172.1,183.9z"/>
		<path class="st2" d="M181.6,193.6H18.4c-6.6,0-12-5.4-12-12V18.4c0-6.6,5.4-12,12-12h163.1c6.6,0,12,5.4,12,12v163.1
			C193.6,188.2,188.2,193.6,181.6,193.6z"/>
	</g>
</g>
<g transform="matrix(1.25 0 0 -1.25 0 45)">
	<g>
		<g>
			<path class="st3" d="M44-8.2c-5.7,0-10.3-4.6-10.3-10.3v-46.2C33.8-70.4,38.4-75,44-75h18v66.7C62-8.2,44-8.2,44-8.2z"/>
			<path class="st4" d="M115.9-8.2h-18V-75h18c5.7,0,10.3,4.6,10.3,10.3v46.2C126.2-12.8,121.6-8.2,115.9-8.2"/>
			<path class="st5" d="M62-75h35.9v66.7H62V-75z"/>
			<path class="st6" d="M92.8-41.6c0-7.1-5.7-12.8-12.8-12.8c-7.1,0-12.8,5.7-12.8,12.8h-2.6C64.6-50.1,71.5-57,80-57
				s15.4,6.9,15.4,15.4L92.8-41.6L92.8-41.6z"/>
			<g>
				<path class="st7" d="M68.5-47.4c-0.2,0.5-0.7,0.7-1.2,0.7c-0.2,0-0.4-0.1-0.5-0.1c-0.6-0.3-0.9-1.1-0.6-1.7
					c0.2-0.5,0.5-0.9,0.8-1.3c0,0,0,0,0,0c0,0,0,0,0,0l0,0c0,0,0,0,0,0c0,0,0,0,0,0c0,0,0,0,0,0c0,0,0,0,0,0c0,0,0,0,0,0
					c0,0,0,0,0,0c0,0,0,0,0,0v0c0,0,0,0,0,0c0,0,0,0,0,0c0,0,0,0,0,0c0,0,0,0,0,0c0,0,0,0,0,0c0,0,0,0,0,0c0,0,0,0,0,0c0,0,0,0,0,0
					c0,0,0,0,0,0c0,0,0,0,0,0c0,0,0,0,0,0c0,0,0,0,0,0c0,0,0,0,0,0c0,0,0,0,0,0c0,0,0,0,0,0c0,0,0,0,0,0c0,0,0,0,0,0c0,0,0,0,0,0v0
					c0.1-0.2,0.3-0.4,0.4-0.6c0.3-0.4,0.7-0.5,1.1-0.5c0.2,0,0.5,0.1,0.7,0.3c0.6,0.4,0.7,1.2,0.3,1.8
					C69.2-48.7,68.8-48.1,68.5-47.4"/>
				<path class="st7" d="M67.3-43.4c-0.1,0.4-0.1,0.8-0.1,1.2c0,0.3,0,0.6,0,0.9c0,0.7-0.5,1.3-1.2,1.3c0,0-0.1,0-0.1,0
					c-0.7,0-1.2-0.6-1.2-1.2c0-0.3,0-0.5,0-0.8c0,0,0,0,0,0l0,0c0,0,0,0,0,0l0,0c0,0,0,0,0,0v0v0c0,0,0,0,0,0v0c0,0,0,0,0,0
					c0,0,0,0,0,0c0,0,0,0,0,0c0,0,0,0,0,0c0,0,0,0,0,0c0,0,0,0,0,0v0c0,0,0,0,0,0v0c0,0,0,0,0,0v0c0,0,0,0,0,0v0c0,0,0,0,0,0v0
					c0,0,0,0,0,0v0v0c0,0,0,0,0,0v0c0,0,0,0,0,0c0,0,0,0,0,0v0c0,0,0,0,0,0v0c0,0,0,0,0,0c0,0,0,0,0,0v0c0,0,0,0,0,0v0v0v0v0
					c0,0,0,0,0,0v0v0c0,0,0,0,0,0v0c0,0,0,0,0,0v0c0,0,0,0,0,0c0,0,0,0,0-0.1c0,0,0,0,0,0v0c0,0,0,0,0,0v0v0l0,0
					c0-0.4,0.1-0.8,0.1-1.2c0.1-0.7,0.7-1.1,1.3-1.1c0,0,0.1,0,0.1,0C66.9-44.7,67.4-44.1,67.3-43.4"/>
				<path class="st7" d="M80.8-54.4C80.8-54.4,80.8-54.4,80.8-54.4l-0.3,0c-0.6,0-1.2,0-1.8,0.1c-0.1,0-0.1,0-0.2,0
					c-0.6,0-1.2-0.5-1.2-1.2c-0.1-0.7,0.4-1.3,1.1-1.4c0.1,0,0.2,0,0.3,0l0,0c0,0,0,0,0,0c0,0,0,0,0,0c0,0,0,0,0,0h0c0,0,0,0,0,0h0
					h0c0,0,0,0,0,0h0c0,0,0,0,0,0c0,0,0,0,0,0h0h0c0,0,0,0,0,0l0,0c0,0,0,0,0,0h0c0,0,0,0,0,0h0l0,0c0,0,0,0,0,0l0,0c0,0,0,0,0,0
					c0.4,0,0.8,0,1.2,0c0,0,0,0,0.1,0h0h0h0h0c0,0,0,0,0,0c0,0,0,0,0,0h0h0h0c0,0,0,0,0,0h0h0l0,0c0,0,0,0,0,0h0h0l0,0c0,0,0,0,0,0
					h0c0,0,0,0,0,0c0,0,0,0,0,0c0,0,0,0,0,0h0c0,0,0,0,0,0h0h0h0c0,0,0,0,0,0h0h0l0,0c0,0,0,0,0,0h0h0h0c0,0,0,0,0,0h0h0h0h0h0h0
					c0,0,0,0,0,0l0,0h0h0c0,0,0,0,0,0h0c0,0,0,0,0,0h0h0l0,0c0,0,0,0,0,0l0,0h0c0.1,0,0.2,0,0.3,0c0.7,0.1,1.2,0.7,1.2,1.4
					C82.1-54.9,81.5-54.4,80.8-54.4"/>
				<path class="st7" d="M74.6-53.3c-0.6,0.3-1.3,0.7-1.9,1.1C72.5-52,72.2-52,71.9-52c-0.4,0-0.8-0.2-1-0.6
					c-0.4-0.6-0.3-1.4,0.3-1.8c0,0,0,0,0,0c0,0,0,0,0,0c0,0,0,0,0,0h0c0,0,0,0,0,0l0,0c0,0,0,0,0,0h0c0.7-0.5,1.4-0.9,2.2-1.2
					c0.2-0.1,0.4-0.1,0.6-0.1c0.5,0,0.9,0.3,1.1,0.7C75.5-54.3,75.2-53.6,74.6-53.3"/>
				<path class="st7" d="M87.5-52.2c-0.2,0-0.4-0.1-0.6-0.2c-0.6-0.4-1.2-0.7-1.9-1c-0.7-0.3-1-1-0.7-1.7c0.2-0.5,0.7-0.8,1.2-0.8
					c0.2,0,0.3,0,0.4,0.1c0.1,0.1,0.2,0.1,0.3,0.2h0c0,0,0,0,0,0c0,0,0,0,0,0c0,0,0,0,0,0c0,0,0,0,0,0c0,0,0,0,0,0c0,0,0,0,0,0
					c0,0,0,0,0,0c0,0,0,0,0,0c0,0,0,0,0,0c0,0,0,0,0,0c0,0,0,0,0,0c0,0,0,0,0,0c0,0,0,0,0,0c0,0,0,0,0,0l0,0c0,0,0,0,0,0
					c0,0,0,0,0,0c0,0,0,0,0,0h0c0,0,0,0,0,0c0,0,0,0,0,0l0,0c0,0,0,0,0,0c0,0,0,0,0,0c0,0,0,0,0,0c0,0,0,0,0,0c0,0,0,0,0,0
					c0,0,0,0,0,0c0,0,0,0,0,0c0,0,0,0,0,0h0c0,0,0,0,0,0c0,0,0,0,0,0c0,0,0,0,0,0h0c0,0,0,0,0,0c0,0,0,0,0,0c0,0,0,0,0,0
					c0,0,0,0,0,0c0,0,0,0,0,0c0,0,0,0,0,0c0,0,0,0,0,0h0c0,0,0,0,0,0v0c0,0,0,0,0,0h0c0,0,0,0,0.1,0c0,0,0,0,0,0c0,0,0,0,0,0
					c0,0,0,0,0,0h0c0,0,0,0,0,0c0,0,0,0,0,0s0,0,0,0c0,0,0,0,0,0l0,0c0,0,0,0,0,0h0c0,0,0,0,0,0c0,0,0,0,0,0c0,0,0,0,0,0h0
					c0,0,0,0,0,0c0,0,0,0,0,0h0c0,0,0,0,0,0v0c0,0,0,0,0,0l0,0c0,0,0,0,0,0v0c0,0,0,0,0,0l0,0c0,0,0,0,0,0c0,0,0,0,0,0c0,0,0,0,0,0
					c0,0,0,0,0,0c0,0,0,0,0,0c0,0,0,0,0,0c0,0,0,0,0,0c0,0,0,0,0,0c0,0,0,0,0,0c0,0,0,0,0,0c0,0,0,0,0,0c0,0,0,0,0,0c0,0,0,0,0,0
					c0,0,0,0,0,0c0,0,0,0,0,0c0,0,0,0,0,0c0,0,0,0,0,0c0,0,0,0,0,0c0,0,0,0,0,0c0,0,0,0,0,0c0,0,0,0,0,0c0,0,0,0,0,0c0,0,0,0,0,0
					c0,0,0,0,0,0c0,0,0,0,0,0c0,0,0,0,0,0c0,0,0,0,0,0l0,0c0,0,0,0,0,0c0,0,0,0,0,0c0,0,0,0,0,0c0,0,0,0,0,0c0,0,0,0,0,0
					c0,0,0,0,0,0c0,0,0,0,0,0c0,0,0,0,0,0c0,0,0,0,0,0c0,0,0,0,0,0c0,0,0,0,0,0c0,0,0,0,0,0c0,0,0,0,0,0c0,0,0,0,0,0c0,0,0,0,0,0
					c0,0,0,0,0,0c0,0,0,0,0,0v0c0,0,0,0,0,0c0,0,0,0,0,0c0,0,0,0,0.1,0h0c0.2,0.1,0.3,0.2,0.5,0.3c0.6,0.4,0.8,1.2,0.4,1.8
					C88.4-52.4,87.9-52.2,87.5-52.2"/>
				<path class="st7" d="M94.1-40.4C94.1-40.4,94-40.4,94.1-40.4c-0.7,0-1.3-0.6-1.3-1.3c0-0.7-0.1-1.4-0.2-2.1
					c-0.1-0.7,0.4-1.4,1-1.5c0.1,0,0.2,0,0.3,0c0.6,0,1.1,0.5,1.2,1.1v0l0,0c0,0,0,0,0,0c0,0,0,0,0,0c0,0,0,0,0,0v0c0,0,0,0,0,0v0
					c0,0,0,0,0,0v0v0v0v0c0,0,0,0,0,0v0v0c0.1,0.3,0.1,0.7,0.1,1c0,0,0,0,0,0c0,0,0,0,0,0v0c0,0,0,0,0,0v0v0v0c0,0,0,0,0,0v0
					c0,0,0,0,0,0v0c0,0,0,0,0,0v0c0,0,0,0,0,0c0,0,0,0,0,0v0v0c0,0,0,0,0,0v0v0v0c0,0,0,0,0,0v0c0,0,0,0,0,0v0
					c0,0.4,0.1,0.8,0.1,1.3C95.4-41,94.8-40.4,94.1-40.4"/>
				<path class="st7" d="M92.9-47.3c-0.2,0.1-0.4,0.2-0.7,0.2c-0.4,0-0.8-0.3-1.1-0.7c-0.3-0.6-0.7-1.2-1.2-1.8
					c-0.4-0.6-0.3-1.4,0.2-1.8c0.3-0.2,0.6-0.3,0.9-0.3c0.4,0,0.7,0.2,0.9,0.5c0.3,0.4,0.6,0.8,0.8,1.2c0,0,0,0,0,0.1l0,0
					c0,0,0,0,0,0v0c0,0,0,0,0,0c0,0,0,0,0,0l0,0c0,0,0,0,0,0v0c0,0,0,0,0,0c0,0,0,0,0,0c0,0,0,0,0,0v0c0,0,0,0,0,0c0,0,0,0,0,0
					c0,0,0,0,0,0c0,0,0,0,0,0c0,0,0,0,0,0c0,0,0,0,0,0c0,0,0,0,0,0h0c0,0,0,0,0,0c0,0,0,0,0,0c0,0,0,0,0,0c0,0,0,0,0,0c0,0,0,0,0,0
					c0,0,0,0,0,0c0,0,0,0,0,0c0,0,0,0,0,0v0c0,0,0,0,0,0c0,0,0,0,0,0c0,0,0,0,0,0c0,0,0,0,0,0c0,0,0,0,0,0c0,0,0,0,0,0c0,0,0,0,0,0
					c0,0,0,0,0,0c0,0,0,0,0,0c0,0,0,0,0,0c0,0,0,0,0,0s0,0,0,0c0,0,0,0,0,0c0,0,0,0,0,0c0,0,0,0,0,0c0,0,0,0,0,0c0,0,0,0,0,0
					c0,0,0,0,0,0c0,0,0,0,0,0c0,0,0,0,0,0c0,0,0,0,0,0s0,0,0,0v0c0,0,0,0,0,0v0c0,0,0,0,0,0c0,0,0,0,0,0c0,0,0,0,0,0c0,0,0,0,0,0
					c0,0,0,0,0,0v0c0,0,0,0,0,0c0,0,0,0,0,0c0,0,0,0,0,0c0,0,0,0,0,0c0,0,0,0,0,0c0,0,0,0,0,0c0,0,0,0,0,0c0,0,0,0,0,0c0,0,0,0,0,0
					l0,0c0,0,0,0,0,0c0,0,0,0,0,0c0,0,0,0,0,0c0,0,0,0,0,0c0,0,0,0,0,0c0,0,0,0,0,0c0,0,0,0,0,0c0,0,0,0,0,0c0,0,0,0,0,0
					c0,0,0,0,0,0c0,0,0,0,0,0c0,0,0,0,0,0c0,0,0,0,0,0l0,0c0,0,0,0,0,0v0c0,0,0,0,0,0c0,0,0,0,0,0v0c0,0,0,0,0,0c0,0,0,0,0,0
					c0,0,0,0.1,0.1,0.1C93.8-48.4,93.6-47.7,92.9-47.3"/>
			</g>
			<path class="st8" d="M87.7-49.3c0-1.4-3.4-2.6-7.7-2.6s-7.7,1.1-7.7,2.6c0,1.4,3.4,2.6,7.7,2.6S87.7-47.9,87.7-49.3"/>
			<path class="st9" d="M85.1-49.3c0-1.4-1.7-2.6-3.9-2.6c-2.1,0-3.9,1.1-3.9,2.6c0,1.4,1.7,2.6,3.9,2.6
				C83.4-46.8,85.1-47.9,85.1-49.3"/>
			<g>
				<path class="st7" d="M79.2-45.9c-0.1,0-0.1,0-0.2,0c-1,0.1-1.9,0.3-2.7,0.6c-0.7,0.2-1.1,0.9-0.9,1.6c0,0,0,0,0,0c0,0,0,0,0-0.1
					c-0.3-0.6-1.1-0.8-1.7-0.5c-0.9,0.5-1.7,1.1-2.3,1.7c-0.5,0.5-0.5,1.3,0,1.8c0.5,0.5,1.3,0.5,1.8,0c0.5-0.5,1.1-0.9,1.8-1.3
					c0.5-0.3,0.8-1,0.6-1.5c0.3,0.5,0.9,0.8,1.5,0.7c0.7-0.2,1.5-0.4,2.3-0.5c0.7-0.1,1.2-0.7,1.1-1.4
					C80.4-45.5,79.8-45.9,79.2-45.9 M82.8-50c-0.2,0-0.4,0.1-0.6,0.2c-0.6,0.3-0.9,1.1-0.5,1.7c0.4,0.8,0.8,1.4,1.3,2
					c-0.4,0-0.7,0-1.1,0c-0.7,0-1.4,0.6-1.4,1.3c0,0.7,0.5,1.3,1.2,1.3c0,0,0.2,0,0.2,0c0.8,0,1.5,0,2.2,0.1c0.4,0,0.8-0.1,1.1-0.4
					c0,0,0.1,0.1,0.1,0.1c0.3,0.2,0.5,0.3,0.7,0.4c0.2,0.1,0.3,0.2,0.5,0.2c0,0,0.1,0,0.1,0c0.5,0.2,0.8,0.2,1,0.2
					c0.4,0,0.8-0.2,1-0.5c0.2-0.3,0.3-0.7,0.2-1.1c-0.2-0.7-0.7-0.8-1.5-1c-0.2-0.1-0.4-0.2-0.6-0.3c-0.5-0.3-1.1-0.3-1.5,0.1
					c0.4-0.5,0.4-1.1,0-1.6c-0.4-0.6-0.9-1.2-1.3-2C83.7-49.8,83.3-50,82.8-50"/>
				<path class="st7" d="M72.9-39.9c-1.1,0-2.5,0.4-3.4,1.4c-1.3,1.6-2.1,3.5-2,5.1c0,0.4-0.4,0.7-0.8,0.8c-0.2,0.1-0.6,0.1-0.8-0.3
					c-0.2-0.3-0.5-0.5-0.9-0.3c-0.3,0.1-0.5,0.5-0.3,0.9c0.4,0.9,1.3,1.3,2.3,1c0.9-0.2,1.8-1.1,1.7-2.2c-0.1-1.2,0.6-2.8,1.7-4.1
					c0.6-0.7,1.6-0.9,2.2-1c0.6,0,0.8,0.1,0.9,0.2c-0.1,0.3-2,1.3-2.9,1.8c-0.7,0.4-0.9,0.9-0.9,1.2c-0.2,1.2,1,2.4,2.2,3.5
					c0.4,0.4,0.8,0.8,1,1.1c0.2,0.3,0.2,0.5,0.2,0.7c-0.2,0.5-0.9,1-1.9,1.2c-0.9,0.2-1.4,0.6-1.7,1.2c-0.4,0.8-0.2,1.9,0.6,3.3
					c0.2,0.3,0.6,0.4,0.9,0.2c0.3-0.2,0.4-0.6,0.2-0.9c-0.7-1.3-0.7-1.9-0.6-2.1c0.1-0.2,0.4-0.4,0.8-0.5c1.1-0.2,2.4-0.9,2.8-2
					c0.2-0.6,0.1-1.3-0.3-1.9c-0.3-0.4-0.7-0.8-1.1-1.2c-0.7-0.7-1.9-1.9-1.8-2.4c0-0.1,0.2-0.2,0.3-0.3c1.9-1,3.2-1.7,3.5-2.6
					c0.1-0.3,0.1-0.6-0.1-0.9c-0.2-0.4-0.8-0.7-1.5-0.8C73.1-39.9,73-39.9,72.9-39.9"/>
			</g>
			<g>
				<path class="st9" d="M85.1-41.6c0-1.4-0.6-2.6-1.3-2.6c-0.7,0-1.3,1.1-1.3,2.6c0,1.4,0.6,2.6,1.3,2.6
					C84.5-39.1,85.1-40.2,85.1-41.6"/>
				<path class="st9" d="M78.1-39.5c0-0.7-0.9-1.3-2-1.3c-1.1,0-2,0.6-2,1.3c0,0.7,0.9,1.3,2,1.3C77.3-38.2,78.1-38.8,78.1-39.5"/>
				<path class="st9" d="M75.1-27.7c0.1-0.5-0.6-1.2-1.6-1.4c-1-0.2-1.9,0-2.1,0.6c-0.1,0.5,0.6,1.2,1.6,1.4
					C74.1-26.9,75-27.1,75.1-27.7"/>
			</g>
			<path class="st10" d="M91.6-41.5c0.2-0.2,0.6,1.9,0.6,2.5c0,0-0.1,1.4,0.2,2.4c0.2,0.3,0.2,2.8-0.1,3.4c0.2,0,0.5,0.1,0.5,0.4
				c-1-0.4-1.2,2.1-2.2,3.5c-0.9,1.4-2.1,2.2-3.3,3.1c0.1,0.2,0.2,0.5,0.4,0.7c-1.5-0.7-3.8,1.9-7.2,1.7c-0.8-0.1-1.1-0.1-1.3-0.6
				c-0.6-0.1-1.3-0.2-1.3-1c0-0.2,0.2-0.6,0.6-0.6c0.6-0.2,1,0,1.4-0.8l0.1-0.8c0,0-0.5,0.6-0.8,0.7l0.2,0.3c-0.3,0.1-0.7,0-0.7,0
				s-1,0.5-1.8,0.3l-0.2,0.6c-0.1-0.4-0.4-0.4-0.5-0.7c-0.1,0.3-0.2,0.6-0.3,0.9c-0.3-0.4-0.2-0.8-0.3-1.2c-0.1-0.1-0.3-0.1-0.4,0.2
				c0,0.3-0.1,0.3-0.1,0.7c-0.2-0.3-0.4-0.5-0.5-1.1l-0.2,0.7c0-0.8-0.7-1.3-1.3-1.8c-0.2-0.3,0-0.3,0-0.5l0.3-0.2l0.6,0
				c0.1-0.1,0-0.1,0.3-0.2c0.7-0.2,1.6,0.7,2.3-0.7c-0.3-0.3-0.6-0.9-0.5-1c0.1,0-0.3-0.2,0.3,0c-0.5-0.5-0.9-1.2-0.9-1.3
				c-0.1-0.1,0.2,0,0.2-0.2l0.1,0c-1.2-1.3,0-2.8-0.2-3.5c0.2-0.3,0.2,0,0.5,0c0.2-0.9,0.8-1.5,1.2-2.3l-0.8,0c0-0.4,0.3-0.7,0.6-1
				L76.7-39c-0.4-0.2-0.6-0.4-0.9-0.7c-0.2-0.4,0.9-0.5,1.4-0.6l0-0.5c0.8-0.1,1.7,0.2,1.7,0.2l0.2,0.1l0.4-0.2c0.1,0,0.4,0.6,0.3,1
				c0.3-0.3,0.6-0.9,0.8-1.2l0.3,0c0.2-0.4,0.6-0.8,0.8-1.1l0.3-0.1c0.2,0.1,0.3,0.1,0.4,0.4l0.1-0.2l0.4,0.3l0.3,0.1l0.2-0.4
				c0.1,0.1,0.3,0.3,0.3,0.6c0.1-0.3,0.2-0.2,0.3-0.3l0.2,0.4l1.1-1l0.8,0c0.3-0.2,1.1-0.3,1.2,0c0.6-0.3,1.4,0,1.4,0.3
				c0.6-0.2,1.5-0.1,1.5,0c0.1,0,0.4,0.3,0.1,0.5c-2,1.4-4.9,3.6-6,4.2c0,0.4-0.3,1.9-0.6,2.3l0.3,0.4c0.8-0.7,1-0.6,1.5-0.8
				c0.4-0.3,0.6-0.9,1-1.4l0.4-0.1c-0.3,0.7-0.6,1.3-1.4,2.2c0.4-0.2,1.1-0.8,1.6-1.2c0.3-0.5,0.4-0.9,0.7-1.6
				c0.2-0.1,0.4-0.6,0.4-0.2c0,0.7-0.6,1.9-0.6,2c0.8-0.7,0.8-1.7,1.1-2.3c0.2-0.3,0.3-0.7,0.4-0.6l-0.2,1.9l-0.1,0.7
				c0.6-0.4,0.8-1.7,1.1-3.3c0-0.3,0.1-0.5,0.1-0.7c0.1-0.2,0.3-0.6,0.3-0.3c0,0,0,2.7-0.2,3.3c0,0.3,0.1,0.9,0.1,0.9
				c0.2-1.1,0.5-2.3,0.7-3.4v-0.8l0.3-0.3c0.1,0.7,0.1,1.3,0.2,2l-0.3,2.4v0.7c0,0.2,0.2,0.2,0.4-0.1c0-0.6,0-1,0.1-1.6
				c0.1-0.7,0.2-1.1,0.2-2C91.4-39.9,91.5-41.5,91.6-41.5"/>
		</g>
	</g>
</g>
</svg>
