<?xml version="1.0" encoding="utf-8"?>
<!-- Generator: Adobe Illustrator 22.0.1, SVG Export Plug-In . SVG Version: 6.00 Build 0)  -->
<svg version="1.1" id="Calque_1" xmlns="http://www.w3.org/2000/svg" xmlns:xlink="http://www.w3.org/1999/xlink" x="0px" y="0px"
	 viewBox="0 0 200 200" style="enable-background:new 0 0 200 200;" xml:space="preserve">
<style type="text/css">
	.st0{fill:#FFFFFF;}
	.st1{fill:#FBEDB6;}
	.st2{fill:none;stroke:#010101;stroke-miterlimit:10;}
	.st3{fill:#898990;}
	.st4{fill:#797882;}
	.st5{fill:#F7F8F9;}
	.st6{fill:#EDEDEE;}
	.st7{fill:#EAE4DD;}
	.st8{fill:#D8CCBC;}
	.st9{fill:#46454A;}
	.st10{fill:#59585D;}
</style>
<g id="XMLID_1_">
	<g>
		<path class="st0" d="M184.1,171.6V27.7c0-6.6-5.4-12-12-12H28.2c-6.6,0-12,5.4-12,12v143.9c0,6.6,5.4,12,12,12h143.9
			C178.7,183.6,184.1,178.2,184.1,171.6z M193.6,18.1v163.1c0,6.6-5.4,12-12,12H18.4c-6.6,0-12-5.4-12-12V18.1c0-6.6,5.4-12,12-12
			h163.1C188.2,6.1,193.6,11.5,193.6,18.1z"/>
		<path class="st1" d="M184.1,27.7v143.9c0,6.6-5.4,12-12,12H28.2c-6.6,0-12-5.4-12-12V27.7c0-6.6,5.4-12,12-12h143.9
			C178.7,15.7,184.1,21.1,184.1,27.7z"/>
	</g>
	<g>
		<path class="st2" d="M172.1,183.6H28.2c-6.6,0-12-5.4-12-12V27.7c0-6.6,5.4-12,12-12h143.9c6.6,0,12,5.4,12,12v143.9
			C184.1,178.2,178.7,183.6,172.1,183.6z"/>
		<path class="st2" d="M181.6,193.2H18.4c-6.6,0-12-5.4-12-12V18.1c0-6.6,5.4-12,12-12h163.1c6.6,0,12,5.4,12,12v163.1
			C193.6,187.8,188.2,193.2,181.6,193.2z"/>
	</g>
</g>
<path class="st3" d="M119.2,142.2c16.1,0,29.1-13,29.1-29.1V92.7c0-27.3-22.2-49.5-49.5-49.5S49.3,65.4,49.3,92.7v20.4
	c0,16.1,13,29.1,29.1,29.1L119.2,142.2L119.2,142.2z"/>
<path class="st4" d="M98.9,43.2v99h20.4c16.1,0,29.1-13,29.1-29.1V92.7C148.4,65.4,126.2,43.2,98.9,43.2z"/>
<rect x="74.1" y="116" class="st5" width="8.7" height="40.8"/>
<rect x="114.9" y="116" class="st6" width="8.7" height="40.8"/>
<path class="st7" d="M84.3,89.8c-8,0-14.6,6.5-14.6,14.6v14.6h14.6c8,0,14.6-6.5,14.6-14.6S92.3,89.8,84.3,89.8z"/>
<path class="st8" d="M113.4,89.8c-8,0-14.6,6.5-14.6,14.6s6.5,14.6,14.6,14.6H128v-14.6C128,96.3,121.5,89.8,113.4,89.8z"/>
<path class="st9" d="M120.7,79.6L120.7,79.6c-3.2,0-5.8-2.6-5.8-5.8c0-3.2,2.6-5.8,5.8-5.8c3.2,0,5.8,2.6,5.8,5.8
	C126.5,77,123.9,79.6,120.7,79.6z"/>
<g>
	<path class="st10" d="M77,79.6L77,79.6c-3.2,0-5.8-2.6-5.8-5.8c0-3.2,2.6-5.8,5.8-5.8c3.2,0,5.8,2.6,5.8,5.8
		C82.8,77,80.2,79.6,77,79.6z"/>
	<path class="st10" d="M108.2,82.5c-1.5,4.6-5.6,9.8-9.3,9.8c-3.7-0.1-7.8-5.2-9.3-9.8c-0.7-2.4,1.1-4.3,4.1-4.4c3.5,0,7,0,10.5,0
		C107.1,78.2,108.9,80.1,108.2,82.5z"/>
</g>
<path class="st9" d="M104.1,78.2c-1.7,0-3.5,0-5.2,0v14.2c3.7-0.1,7.8-5.2,9.3-9.8C108.9,80.1,107.1,78.2,104.1,78.2z"/>
</svg>
