<?xml version="1.0" encoding="utf-8"?>
<!-- Generator: Adobe Illustrator 22.0.1, SVG Export Plug-In . SVG Version: 6.00 Build 0)  -->
<svg version="1.1" id="Calque_1" xmlns="http://www.w3.org/2000/svg" xmlns:xlink="http://www.w3.org/1999/xlink" x="0px" y="0px"
	 viewBox="0 0 200 200" style="enable-background:new 0 0 200 200;" xml:space="preserve">
<style type="text/css">
	.st0{fill:#FFFFFF;}
	.st1{fill:#FBEDB6;}
	.st2{fill:none;stroke:#010101;stroke-miterlimit:10;}
	.st3{fill:#FDD7AE;}
	.st4{fill:#CBB293;}
	.st5{fill:#2D3039;}
	.st6{fill:#D1D4D1;}
</style>
<g id="XMLID_1_">
	<g>
		<path class="st0" d="M184.1,171.6V27.7c0-6.6-5.4-12-12-12H28.2c-6.6,0-12,5.4-12,12v143.9c0,6.6,5.4,12,12,12h143.9
			C178.7,183.6,184.1,178.2,184.1,171.6z M193.6,18.1v163.1c0,6.6-5.4,12-12,12H18.4c-6.6,0-12-5.4-12-12V18.1c0-6.6,5.4-12,12-12
			h163.1C188.2,6.1,193.6,11.5,193.6,18.1z"/>
		<path class="st1" d="M184.1,27.7v143.9c0,6.6-5.4,12-12,12H28.2c-6.6,0-12-5.4-12-12V27.7c0-6.6,5.4-12,12-12h143.9
			C178.7,15.7,184.1,21.1,184.1,27.7z"/>
	</g>
	<g>
		<path class="st2" d="M172.1,183.6H28.2c-6.6,0-12-5.4-12-12V27.7c0-6.6,5.4-12,12-12h143.9c6.6,0,12,5.4,12,12v143.9
			C184.1,178.2,178.7,183.6,172.1,183.6z"/>
		<path class="st2" d="M181.6,193.2H18.4c-6.6,0-12-5.4-12-12V18.1c0-6.6,5.4-12,12-12h163.1c6.6,0,12,5.4,12,12v163.1
			C193.6,187.8,188.2,193.2,181.6,193.2z"/>
	</g>
</g>
<g transform="translate(0 -1)">
	<path class="st3" d="M131.1,69.9v56.5c0,16.5-12.8,30.1-29.2,31.1c-0.6,0-1.3,0.1-1.9,0.1l-1.9-0.1c-16.4-1-29.2-14.6-29.2-31.1
		V69.9C68.8,69.9,131.1,69.9,131.1,69.9z"/>
	<g>
		<path class="st4" d="M100,134.1c-5.4,0-9.7-4.4-9.7-9.7c0-1.1,0.9-1.9,1.9-1.9s1.9,0.9,1.9,1.9c0,3.2,2.6,5.8,5.8,5.8
			c3.2,0,5.8-2.6,5.8-5.8c0-1.1,0.9-1.9,1.9-1.9s1.9,0.9,1.9,1.9C109.7,129.7,105.3,134.1,100,134.1z"/>
		<path class="st4" d="M101.9,132.2v25.3c-0.6,0-1.3,0.1-1.9,0.1l-1.9-0.1v-25.3c0-1.1,0.9-1.9,1.9-1.9S101.9,131.1,101.9,132.2z"/>
	</g>
	<g>
		<circle class="st5" cx="86.3" cy="97.1" r="5.8"/>
		<circle class="st5" cx="113.6" cy="97.1" r="5.8"/>
	</g>
	<g>
		<path class="st4" d="M154.2,103.4c-0.1,0.9-0.8,1.6-1.7,1.7c-3.6,0.4-13.1,0.9-18.4-4.4c-6.6-6.6-4.2-19.8-4.2-19.8
			s13.2-2.4,19.8,4.2C155.1,90.4,154.7,99.8,154.2,103.4z"/>
		<path class="st4" d="M45.7,103.4c0.1,0.9,0.8,1.6,1.7,1.7c3.6,0.4,13.1,0.9,18.4-4.4c6.6-6.6,4.2-19.8,4.2-19.8
			s-13.2-2.4-19.8,4.2C44.8,90.4,45.3,99.8,45.7,103.4z"/>
	</g>
	<path class="st6" d="M138.9,69.9c0,5-3.1,9.4-7.8,11c-4.7,1.6-9.9,0.2-13-3.7c-2.1,2.6-5.1,4.1-8.4,4.3c-3.3,0.2-6.5-1-8.9-3.4
		c-0.3-0.3-0.6-0.6-0.9-1c-2.2,2.7-5.6,4.3-9.1,4.3c-3.5,0-6.9-1.6-9.1-4.3c-3.2,4-8.7,5.4-13.5,3.5c-4.8-1.9-7.7-6.7-7.3-11.8
		s4.2-9.3,9.2-10.4c-1.7-5.4,1.1-11.2,6.4-13.2s11.2,0.4,13.6,5.6c1.7-3.8,5.5-6.3,9.7-6.3c4.2,0,8,2.5,9.7,6.3
		c2.3-5.1,8.3-7.6,13.6-5.6c5.3,2,8.1,7.8,6.4,13.2C135,59.6,138.9,64.3,138.9,69.9z"/>
</g>
</svg>
