<?xml version="1.0" encoding="utf-8"?>
<!-- Generator: Adobe Illustrator 22.0.1, SVG Export Plug-In . SVG Version: 6.00 Build 0)  -->
<svg version="1.1" id="Calque_1" xmlns="http://www.w3.org/2000/svg" xmlns:xlink="http://www.w3.org/1999/xlink" x="0px" y="0px"
	 viewBox="0 0 200 200" style="enable-background:new 0 0 200 200;" xml:space="preserve">
<style type="text/css">
	.st0{fill:#D8C3DF;}
	.st1{fill:#FFFFFF;}
	.st2{fill:none;stroke:#010101;stroke-miterlimit:10;}
	.st3{fill:#CF3A27;}
	.st4{fill:#FED5A1;}
	.st5{fill:#73C7AC;}
	.st6{fill:#010101;}
</style>
<g id="XMLID_1_">
	<g>
		<path class="st0" d="M172,15.3c6.6,0,12,5.4,12,12v143.9c0,6.6-5.4,12-12,12H28.1c-6.6,0-12-5.4-12-12V27.3c0-6.6,5.4-12,12-12
			H172z"/>
		<path class="st1" d="M184,27.3c0-6.6-5.4-12-12-12H28.1c-6.6,0-12,5.4-12,12v143.9c0,6.6,5.4,12,12,12H172c6.6,0,12-5.4,12-12
			L184,27.3L184,27.3z M18.3,5.6h163.1c6.6,0,12,5.4,12,12v163.1c0,6.6-5.4,12-12,12H18.3c-6.6,0-12-5.4-12-12V17.6
			C6.3,11,11.7,5.6,18.3,5.6z"/>
	</g>
	<g>
		<path class="st2" d="M172,183.1H28.1c-6.6,0-12-5.4-12-12V27.3c0-6.6,5.4-12,12-12H172c6.6,0,12,5.4,12,12v143.9
			C184,177.7,178.6,183.1,172,183.1z"/>
		<path class="st2" d="M181.5,192.8H18.3c-6.6,0-12-5.4-12-12V17.6c0-6.6,5.4-12,12-12h163.1c6.6,0,12,5.4,12,12v163.1
			C193.5,187.4,188.1,192.8,181.5,192.8z"/>
	</g>
</g>
<polygon class="st3" points="136.4,156.6 136.4,156.4 136.1,156.6 "/>
<g>
	<path class="st4" d="M119,93c1.9,0,3.7-0.5,5.3-1.4l-14.5-14.5c-0.9,1.6-1.4,3.4-1.4,5.3c0,2.8,1.1,5.5,3.1,7.5
		C113.5,91.9,116.2,93,119,93z"/>
	<path class="st5" d="M129.6,82.4c0-2.8-1.1-5.5-3.1-7.5c-2-2-4.7-3.1-7.5-3.1c-1.9,0-3.7,0.5-5.3,1.4l14.5,14.5
		C129.1,86.1,129.6,84.3,129.6,82.4z"/>
	<path class="st6" d="M119,98.6c4.3,0,8.4-1.7,11.5-4.8c0,0,0,0,0,0c3.1-3.1,4.7-7.1,4.7-11.4c0-4.3-1.7-8.4-4.7-11.5
		c-3.1-3.1-7.1-4.7-11.5-4.7s-8.4,1.7-11.5,4.7c0,0,0,0,0,0c-3.1,3.1-4.7,7.1-4.7,11.5c0,4.3,1.7,8.4,4.7,11.4
		C110.6,96.9,114.7,98.6,119,98.6z M119,71.8c2.8,0,5.5,1.1,7.5,3.1c2,2,3.1,4.7,3.1,7.5c0,1.9-0.5,3.7-1.4,5.3l-14.5-14.5
		C115.3,72.2,117.1,71.8,119,71.8z M109.8,77.1l14.5,14.5c-1.6,0.9-3.4,1.4-5.3,1.4c-2.8,0-5.5-1.1-7.5-3.1c-2-2-3.1-4.7-3.1-7.5
		C108.4,80.5,108.9,78.7,109.8,77.1z"/>
	<path class="st4" d="M100.8,96.5c-3.9-5.2-6.5-5.5-8.6-5.1c0,0,0,0-0.1,0c0.2,0.3,0.4,0.6,0.7,0.9c0.9,1.2,0.7,3-0.5,3.9
		c-0.5,0.4-1.1,0.6-1.7,0.6c-0.8,0-1.7-0.4-2.2-1.1c-0.5-0.7-1-1.3-1.5-2c-2.4,1.4-5.1,3.4-8.2,5.8c-2,1.5-3.6,2.8-5,4.1
		c1.7-0.6,3.8-1,6.5-1c5.4,0,8.2,1.7,10.7,3.2c2.2,1.3,4,2.4,7.9,2.4c1.5,0,2.6-0.2,3.6-0.4C104.7,104.8,104.9,101.9,100.8,96.5z"/>
	<path class="st6" d="M73.7,103.6c1.4-1.3,3.1-2.6,5-4.1c3.1-2.4,5.8-4.3,8.2-5.8c0.5,0.7,1,1.4,1.5,2c0.5,0.7,1.4,1.1,2.2,1.1
		c0.6,0,1.2-0.2,1.7-0.6c1.2-0.9,1.4-2.7,0.5-3.9c-0.2-0.3-0.5-0.6-0.7-0.9c0,0,0,0,0.1,0c2.2-0.4,4.7-0.1,8.6,5.1
		c4.1,5.4,3.8,8.2,1.6,11.2c1.6-0.4,2.8-1.1,4.2-2c0.9-0.5,1.8-1.1,2.9-1.6c0.2-3.4-1.3-6.9-4.3-10.9c-2.8-3.7-7.3-8.6-14.1-7.3
		c-0.6,0.1-1.3,0.3-2,0.5c-4.3-9.4-2.5-19.1,5.4-25.5c1.2-1,1.4-2.7,0.4-3.9c-1-1.2-2.7-1.4-3.9-0.4c-6.1,4.9-9.4,11.4-9.8,18.8
		c-0.2,4.5,0.8,9.1,2.8,13.5c-2.7,1.6-5.5,3.7-8.8,6.2c-6.7,5-10.5,9.1-12.1,13c2.7-0.3,4.3-1.2,6.1-2.3
		C70.7,105,72,104.2,73.7,103.6z"/>
	<path class="st5" d="M43,108.1c3.9,0,5.6,1.1,7.9,2.4c2.5,1.5,5.3,3.2,10.7,3.2s8.2-1.7,10.7-3.2c2.2-1.3,4-2.4,7.9-2.4
		c3.9,0,5.6,1.1,7.9,2.4c2.5,1.5,5.3,3.2,10.7,3.2c5.4,0,8.2-1.7,10.7-3.2c2.2-1.3,4-2.4,7.9-2.4c3.9,0,5.6,1.1,7.9,2.4
		c2.5,1.5,5.3,3.2,10.7,3.2c5.4,0,8.2-1.7,10.7-3.2c2.2-1.3,4-2.4,7.9-2.4c1.5,0,2.8-1.2,2.8-2.8c0-1.5-1.2-2.8-2.8-2.8
		c-5.4,0-8.2,1.7-10.7,3.2c-2.2,1.3-4,2.4-7.9,2.4s-5.6-1.1-7.9-2.4c-2.5-1.5-5.3-3.2-10.7-3.2c-3.5,0-5.9,0.7-7.8,1.6
		c-1.1,0.5-2,1.1-2.9,1.6c-1.4,0.8-2.6,1.6-4.2,2c-1,0.3-2.2,0.4-3.6,0.4c-3.9,0-5.6-1.1-7.9-2.4c-2.5-1.5-5.3-3.2-10.7-3.2
		c-2.7,0-4.8,0.4-6.5,1c-1.7,0.6-3,1.4-4.2,2.1c-1.9,1.1-3.4,2-6.1,2.3c-0.5,0.1-1.1,0.1-1.7,0.1c-3.9,0-5.6-1.1-7.9-2.4
		c-2.5-1.5-5.3-3.2-10.7-3.2c-1.5,0-2.8,1.2-2.8,2.8C40.2,106.9,41.5,108.1,43,108.1z"/>
	<path class="st5" d="M154.6,119.3c-5.4,0-8.2,1.7-10.7,3.2c-2.2,1.3-4,2.4-7.9,2.4s-5.6-1.1-7.9-2.4c-2.5-1.5-5.3-3.2-10.7-3.2
		c-5.4,0-8.2,1.7-10.7,3.2c-2.2,1.3-4,2.4-7.9,2.4c-3.9,0-5.6-1.1-7.9-2.4c-2.5-1.5-5.3-3.2-10.7-3.2c-5.4,0-8.2,1.7-10.7,3.2
		c-2.2,1.3-4,2.4-7.9,2.4c-3.9,0-5.6-1.1-7.9-2.4c-2.5-1.5-5.3-3.2-10.7-3.2c-1.5,0-2.8,1.2-2.8,2.8c0,1.5,1.2,2.8,2.8,2.8
		c3.9,0,5.6,1.1,7.9,2.4c2.5,1.5,5.3,3.2,10.7,3.2s8.2-1.7,10.7-3.2c2.2-1.3,4-2.4,7.9-2.4c3.9,0,5.6,1.1,7.9,2.4
		c2.5,1.5,5.3,3.2,10.7,3.2c5.4,0,8.2-1.7,10.7-3.2c2.2-1.3,4-2.4,7.9-2.4c3.9,0,5.6,1.1,7.9,2.4c2.5,1.5,5.3,3.2,10.7,3.2
		c5.4,0,8.2-1.7,10.7-3.2c2.2-1.3,4-2.4,7.9-2.4c1.5,0,2.8-1.2,2.8-2.8C157.4,120.5,156.1,119.3,154.6,119.3z"/>
</g>
</svg>
