<?xml version="1.0" encoding="utf-8"?>
<!-- Generator: Adobe Illustrator 22.0.1, SVG Export Plug-In . SVG Version: 6.00 Build 0)  -->
<svg version="1.1" id="Calque_1" xmlns="http://www.w3.org/2000/svg" xmlns:xlink="http://www.w3.org/1999/xlink" x="0px" y="0px"
	 viewBox="0 0 200 200" style="enable-background:new 0 0 200 200;" xml:space="preserve">
<style type="text/css">
	.st0{fill:#FFFFFF;}
	.st1{fill:#D8EBDD;}
	.st2{fill:none;stroke:#010101;stroke-miterlimit:10;}
	.st3{fill:#73AF43;}
	.st4{fill:#F5F6F6;}
</style>
<g id="XMLID_1_">
	<g>
		<path class="st0" d="M193.6,18.4v163.1c0,6.6-5.4,12-12,12H18.4c-6.6,0-12-5.4-12-12V18.4c0-6.6,5.4-12,12-12h163.1
			C188.2,6.4,193.6,11.8,193.6,18.4z M184.1,171.9V28.1c0-6.6-5.4-12-12-12H28.2c-6.6,0-12,5.4-12,12V172c0,6.6,5.4,12,12,12h143.9
			C178.7,183.9,184.1,178.5,184.1,171.9z"/>
		<path class="st1" d="M184.1,28.1V172c0,6.6-5.4,12-12,12H28.2c-6.6,0-12-5.4-12-12V28.1c0-6.6,5.4-12,12-12h143.9
			C178.7,16.1,184.1,21.5,184.1,28.1z"/>
	</g>
	<g>
		<path class="st2" d="M172.1,183.9H28.2c-6.6,0-12-5.4-12-12V28.1c0-6.6,5.4-12,12-12h143.9c6.6,0,12,5.4,12,12V172
			C184.1,178.5,178.7,183.9,172.1,183.9z"/>
		<path class="st2" d="M181.6,193.6H18.4c-6.6,0-12-5.4-12-12V18.4c0-6.6,5.4-12,12-12h163.1c6.6,0,12,5.4,12,12v163.1
			C193.6,188.2,188.2,193.6,181.6,193.6z"/>
	</g>
</g>
<path class="st3" d="M52,65.1c-4.4,0-8,3.6-8,8V127c0,4.4,3.6,8,8,8h27.6V65.1H52z"/>
<rect x="79.6" y="65.1" class="st4" width="35.6" height="69.9"/>
<path class="st3" d="M142.7,65.1h-27.6v69.9h27.6c4.4,0,8-3.6,8-8V73C150.7,68.6,147.1,65.1,142.7,65.1z"/>
</svg>
