<svg id="Calque_1" data-name="Calque 1" xmlns="http://www.w3.org/2000/svg" viewBox="0 0 188.14 188.14"><defs><style>.cls-1{fill:#fff;}.cls-2{fill:#f9bcc4;}.cls-3{fill:none;stroke:#231f20;stroke-miterlimit:10;}.cls-4{fill:#e69c5e;}.cls-5{fill:#f8e38c;}.cls-6{fill:#e6cab1;}.cls-7{fill:#fedec4;}.cls-8{fill:#f5be90;}.cls-9{fill:#f5caa4;}.cls-10{fill:#c27c44;}.cls-11{fill:#010101;}</style></defs><title>oeufs</title><path class="cls-1" d="M193.57,18.43V181.57a12,12,0,0,1-12,12H18.43a12,12,0,0,1-12-12V18.43a12,12,0,0,1,12-12H181.57A12,12,0,0,1,193.57,18.43Zm-9.51,153.5V28.07a12,12,0,0,0-12-12H28.2a12,12,0,0,0-12,12V171.93a12,12,0,0,0,12,12H172.06A12,12,0,0,0,184.06,171.93Z" transform="translate(-5.93 -5.93)"/><rect class="cls-2" x="10.27" y="10.14" width="167.86" height="167.86" rx="12" ry="12"/><rect class="cls-3" x="10.27" y="10.14" width="167.86" height="167.86" rx="12" ry="12"/><rect class="cls-3" x="0.5" y="0.5" width="187.14" height="187.14" rx="12" ry="12"/><path class="cls-4" d="M145.37,119.86a43.05,43.05,0,0,0,16.73-14.92l-14,38.11a104.2,104.2,0,0,1-100.49,0L34.83,102.73c7.69,16,33.54,27.76,64.24,27.76a102.63,102.63,0,0,0,40.85-7.94A14.73,14.73,0,0,0,145.37,119.86Z" transform="translate(-5.93 -5.93)"/><path class="cls-5" d="M148.06,67.28C159,74,165.64,83,165.64,92.8a19.24,19.24,0,0,1-.25,3.22l-3.29,8.92a43.05,43.05,0,0,1-16.73,14.92,23.51,23.51,0,0,0,4.42-4.6c7.91-10.55,11.33-29.17,3-35.42a10.84,10.84,0,0,0-5.08-2l.08-.4a38.71,38.71,0,0,0-.18-10.2Z" transform="translate(-5.93 -5.93)"/><path class="cls-5" d="M119.64,92.65c-7.91,10.55-3.82,19.12,4.53,25.38,5,3.79,10.47,5.85,15.75,4.52a102.63,102.63,0,0,1-40.85,7.94c-30.7,0-56.55-11.76-64.24-27.76l-2-6.48a19.93,19.93,0,0,1-.3-3.45c0-15,15.53-28,38-34a43,43,0,0,0,.1,11.33l-.22,2.74c-.86-.07-1.76-.12-2.72-.12-13.18,0-30.14,8.44-30.14,18.84s17,18.84,30.14,18.84a26.64,26.64,0,0,0,2.82-.15A41.58,41.58,0,0,0,83,121.14c11.58,6.31,19.47,1,24.44-8.16s5.13-18.64-6.45-25c-.56-.28-1.11-.58-1.71-.85l.35-.73c7.79-4,12.26-10.76,8.19-21.66a39.6,39.6,0,0,0-5.4-9.62,105,105,0,0,1,13.94,1.26,41.63,41.63,0,0,0-6,16.3c-1.28,10.38,3.31,15.93,10.42,18.44C120.4,91.67,120,92.15,119.64,92.65Z" transform="translate(-5.93 -5.93)"/><path class="cls-6" d="M120.82,91.17c6.79-8,18.52-14.45,26.91-13.32a10.84,10.84,0,0,1,5.08,2c8.31,6.26,4.89,24.87-3,35.42a23.51,23.51,0,0,1-4.42,4.6c-1.73,1-3.54,1.86-5.45,2.69-5.28,1.33-10.71-.73-15.75-4.52-8.35-6.26-12.44-14.83-4.53-25.38C120,92.15,120.4,91.67,120.82,91.17Z" transform="translate(-5.93 -5.93)"/><path class="cls-6" d="M70.38,72.83a14.7,14.7,0,0,1,13.51,9.92l0,.63a32.05,32.05,0,0,0-8.74.63,13.73,13.73,0,0,0-9.6,6.21c-3,5.5-.25,13.31,5,20a26.64,26.64,0,0,1-2.82.15c-13.19,0-30.14-8.44-30.14-18.84S54.47,72.7,67.66,72.7C68.62,72.7,69.52,72.76,70.38,72.83Z" transform="translate(-5.93 -5.93)"/><path class="cls-7" d="M70.48,110.24c-5.2-6.71-7.94-14.52-5-20A13.73,13.73,0,0,1,75.13,84a32.05,32.05,0,0,1,8.74-.63c.78,0,1.56.1,2.34.18a43.21,43.21,0,0,1,12.86,3.49c.07,0,.17.08.25.13.6.27,1.16.57,1.71.85,11.58,6.31,11.43,15.8,6.45,25S94.62,127.45,83,121.14A41.58,41.58,0,0,1,70.48,110.24Z" transform="translate(-5.93 -5.93)"/><path class="cls-8" d="M99.67,86.45l-.35.73c-.08-.05-.18-.08-.25-.13A43.19,43.19,0,0,0,86.2,83.56c-.77-.08-1.55-.15-2.33-.18l0-.63a14.7,14.7,0,0,0-13.51-9.92l.22-2.74a43,43,0,0,1-.1-11.33c.93-7.31,3.92-13.61,9.12-15.57,7.16-2.67,16.53,3.56,22.84,12a39.6,39.6,0,0,1,5.4,9.62C111.93,75.69,107.46,82.5,99.67,86.45Z" transform="translate(-5.93 -5.93)"/><path class="cls-9" d="M147.63,67.25a38.71,38.71,0,0,1,.18,10.2l-.08.4c-8.39-1.13-20.12,5.28-26.91,13.32-7.11-2.51-11.7-8.06-10.42-18.44a41.78,41.78,0,0,1,6-16.3h0c4.32-6.94,10.4-12,16.43-11.26C140.65,46.15,146.1,56.58,147.63,67.25Z" transform="translate(-5.93 -5.93)"/><path class="cls-10" d="M105.24,148.14l-.39-5A92.11,92.11,0,0,0,125,139.28l1.49,4.8A97.91,97.91,0,0,1,105.24,148.14Z" transform="translate(-5.93 -5.93)"/><path class="cls-10" d="M133.43,141.62l-1.85-4.68c2.54-1,5-2.09,7.25-3.24l2.27,4.48C138.69,139.4,136.11,140.56,133.43,141.62Z" transform="translate(-5.93 -5.93)"/><path class="cls-11" d="M149.88,65.46c-1.89-10.75-7.64-21.64-16.71-22.78-6.1-.78-12.73,3.38-17.95,11.07a110.47,110.47,0,0,0-11.48-1c-6.57-8.29-16.61-15-25-11.9-5.31,2-9,7.79-10.45,16C44.63,63.58,30,77.27,30,92.8a22.12,22.12,0,0,0,.25,3.25l-.13,0,.27.84a24.68,24.68,0,0,0,2.12,6.7L45.17,143.8a2.55,2.55,0,0,0,1.19,1.45,106.73,106.73,0,0,0,102.91,0,2.48,2.48,0,0,0,1.14-1.33l14-38a26.3,26.3,0,0,0,3.42-9.3l.19-.5-.1,0a23.11,23.11,0,0,0,.25-3.33C168.16,82.55,161.66,72.86,149.88,65.46ZM147.4,80.34h0a8.46,8.46,0,0,1,3.89,1.51c6.91,5.2,3.79,22.17-3.52,31.91a21.14,21.14,0,0,1-3.83,4c-1.62.89-3.2,1.67-4.81,2.37-4,.95-8.54-.43-13.46-4.12-8.8-6.6-10.11-13.75-4-21.86.34-.46.69-.9,1.09-1.37,6.1-7.24,16-12.56,23-12.56A12.58,12.58,0,0,1,147.4,80.34ZM112.89,73a39.19,39.19,0,0,1,5.64-15.28l-2.12-1.33h0l2.15,1.33c4.22-6.78,9.59-10.63,14-10.09,6.51.82,11.27,10.66,12.6,20a37.33,37.33,0,0,1,.33,7.62c-8.88.08-19.06,6.22-25.32,12.92C114.37,85.5,112,80.56,112.89,73Zm-9,13.79a19.92,19.92,0,0,0,4.67-4.4,16.41,16.41,0,0,0,8.33,9.74,22.24,22.24,0,0,0-3.77,8.54,17.89,17.89,0,0,0-9.23-13.88Zm1.35,25a18.5,18.5,0,0,1-8.5,8.75,14.24,14.24,0,0,1-12.52-1.6A39.33,39.33,0,0,1,72.47,108.7c-5.12-6.6-6.93-13.23-4.72-17.29a11.61,11.61,0,0,1,7.94-5,28,28,0,0,1,6.06-.63c.67,0,1.35,0,2,.06s1.41.09,2.13.16A40.91,40.91,0,0,1,98,89.32l.12.05.14.07c.37.17.71.35,1,.53l.5.25c8.91,4.87,10.69,11.91,5.45,21.56Zm7.11-53.32a48.73,48.73,0,0,0-2.28,5.18A38.66,38.66,0,0,0,107.32,58C109,58.09,110.71,58.26,112.38,58.46ZM73,59.08c.89-7,3.7-12.11,7.5-13.54,5.35-2,13.55,2.59,20,11.14a36.85,36.85,0,0,1,5.06,9c3.15,8.46.9,14.5-6.89,18.49a46.2,46.2,0,0,0-12.23-3.11l-.52,0A16.75,16.75,0,0,0,73.25,70.75c0-.3-.1-.63-.16-1A40.47,40.47,0,0,1,73,59.08ZM70.12,75.33a12.57,12.57,0,0,1,10,5.53,31.65,31.65,0,0,0-5.57.69A16.09,16.09,0,0,0,63.33,89c-2.71,5-1.72,11.81,2.48,18.79C54,107.09,40,99.75,40,91.55c0-8.64,15.45-16.33,27.63-16.33C68.54,75.22,69.37,75.26,70.12,75.33ZM67.72,62.2a45.6,45.6,0,0,0,.37,8l-.43,0C55,70.19,40,77.23,36,86.72,39.4,76.52,51,67.43,67.72,62.2ZM35.26,95.74A17,17,0,0,1,35,92.8c0-.25,0-.5,0-.73.53,11.58,18,20.83,32.61,20.83.59,0,1.12-.06,1.68-.09a44.15,44.15,0,0,0,12.5,10.54,22.38,22.38,0,0,0,10.7,3.05,15.73,15.73,0,0,0,6.17-1.23,23.26,23.26,0,0,0,11-11A28.55,28.55,0,0,0,113,105.1c.49,5.36,3.72,10.44,9.71,14.93a30.5,30.5,0,0,0,6.42,3.78,105.79,105.79,0,0,1-30,4.16c-29,0-54.4-10.78-61.92-26.23ZM146,141.29a101.68,101.68,0,0,1-96.37,0l-8.35-26.41C53.82,125.93,75.38,133,99.07,133a104.81,104.81,0,0,0,41.73-8.1,17.31,17.31,0,0,0,5.9-2.91,57.32,57.32,0,0,0,8.54-5.68Zm16.89-45.86-3.09,8.38a28.07,28.07,0,0,1-3.11,4.17c4.68-11.23,5-24.62-2.42-30.16a12.56,12.56,0,0,0-3.84-1.91,39.28,39.28,0,0,0,.08-3.93c8.16,6,12.59,13.32,12.59,20.82a16.56,16.56,0,0,1-.21,2.63Z" transform="translate(-5.93 -5.93)"/><path class="cls-11" d="M104.85,143.13l.39,5a97.92,97.92,0,0,0,21.25-4.07l-1.49-4.8A93.32,93.32,0,0,1,104.85,143.13Z" transform="translate(-5.93 -5.93)"/><path class="cls-11" d="M131.58,136.94l1.85,4.68c2.68-1.06,5.26-2.22,7.67-3.44l-2.26-4.48C136.56,134.85,134.12,135.94,131.58,136.94Z" transform="translate(-5.93 -5.93)"/></svg>