<?xml version="1.0" encoding="utf-8"?>
<!-- Generator: Adobe Illustrator 22.0.1, SVG Export Plug-In . SVG Version: 6.00 Build 0)  -->
<svg version="1.1" id="Calque_1" xmlns="http://www.w3.org/2000/svg" xmlns:xlink="http://www.w3.org/1999/xlink" x="0px" y="0px"
	 viewBox="0 0 200 200" style="enable-background:new 0 0 200 200;" xml:space="preserve">
<style type="text/css">
	.st0{fill:#F9BCC4;}
	.st1{fill:#FFFFFF;}
	.st2{fill:none;stroke:#000000;stroke-miterlimit:10;}
	.st3{fill:#CE3927;}
	.st4{fill:#EE8826;}
	.st5{fill:#402E21;}
</style>
<g id="XMLID_1_">
	<g>
		<path class="st0" d="M174.6,16.1c6.6,0,12,5.4,12,12v143.9c0,6.6-5.4,12-12,12H30.7c-6.6,0-12-5.4-12-12V28.1c0-6.6,5.4-12,12-12
			H174.6z"/>
		<path class="st1" d="M186.6,28.1c0-6.6-5.4-12-12-12H30.7c-6.6,0-12,5.4-12,12v143.9c0,6.6,5.4,12,12,12h143.9c6.6,0,12-5.4,12-12
			V28.1z M184.1,6.4c6.6,0,12,5.4,12,12v163.1c0,6.6-5.4,12-12,12H21c-6.6,0-12-5.4-12-12V18.4c0-6.6,5.4-12,12-12H184.1z"/>
	</g>
	<g>
		<path class="st2" d="M174.6,183.9H30.7c-6.6,0-12-5.4-12-12V28.1c0-6.6,5.4-12,12-12h143.9c6.6,0,12,5.4,12,12v143.9
			C186.6,178.5,181.2,183.9,174.6,183.9z"/>
		<path class="st2" d="M184.1,193.6H21c-6.6,0-12-5.4-12-12V18.4c0-6.6,5.4-12,12-12h163.1c6.6,0,12,5.4,12,12v163.1
			C196.1,188.2,190.7,193.6,184.1,193.6z"/>
	</g>
</g>
<polygon class="st3" points="139,157.4 139,157.2 138.8,157.4 "/>
<g>
	<g>
		<g>
			<path class="st4" d="M53.7,109.2c-0.1-0.5-0.2-1.1-0.2-1.6C53.6,108.2,53.6,108.7,53.7,109.2z"/>
			<path class="st4" d="M53.4,107c-0.1-0.8-0.1-1.5-0.1-2.3C53.3,105.4,53.3,106.2,53.4,107z"/>
			<path class="st4" d="M79.3,72.2c0,0,0.1-0.1,0.1-0.1C79.3,72.2,79.3,72.2,79.3,72.2z"/>
			<path class="st4" d="M54.2,111.5c-0.1-0.5-0.2-1-0.3-1.5C54,110.5,54.1,111,54.2,111.5z"/>
			<path class="st4" d="M81.9,70.1c0.1-0.1,0.3-0.2,0.4-0.3C82.2,69.9,82.1,70,81.9,70.1z"/>
			<path class="st4" d="M55.8,115.9c-0.2-0.5-0.4-1-0.6-1.5C55.4,114.9,55.6,115.4,55.8,115.9z"/>
			<path class="st4" d="M59.5,122c-0.3-0.4-0.7-0.9-1-1.4C58.8,121.1,59.1,121.5,59.5,122z"/>
			<path class="st4" d="M58.1,120c-0.3-0.5-0.6-0.9-0.9-1.4C57.5,119.1,57.8,119.6,58.1,120z"/>
			<path class="st4" d="M54.9,113.7c-0.2-0.5-0.3-1-0.5-1.5C54.6,112.7,54.7,113.2,54.9,113.7z"/>
			<path class="st4" d="M56.8,118c-0.3-0.5-0.5-1-0.7-1.5C56.3,117,56.6,117.5,56.8,118z"/>
		</g>
		<g>
			<path class="st4" d="M72.3,132.2c0.2,0.2,0.4,0.3,0.6,0.5C72.7,132.6,72.5,132.4,72.3,132.2z"/>
			<path class="st4" d="M72.2,132.9c0.9,0.5,1.8,1,2.7,1.4C73.9,133.9,73,133.4,72.2,132.9z"/>
			<path class="st4" d="M67.4,126.8c0,0,0.1,0.1,0.1,0.1c-4.7-6.1-7.1-13.1-7.1-20.8c0-9,4-18.3,11.7-26.9c0.7-0.8,1.4-1.5,2.2-2.3
				c-1.6,1.1-3.2,2.2-4.7,3.5c-9.1,7.6-14.3,17.5-14.3,27.1c0,5.2,1.5,10.1,4.2,14.6c3.2,4.1,7.4,7.8,12.4,10.7
				C70.2,130.9,68.7,128.9,67.4,126.8z"/>
			<path class="st4" d="M68.8,128.6c0.2,0.2,0.3,0.4,0.5,0.5C69.1,129,69,128.8,68.8,128.6z"/>
			<path class="st4" d="M71.1,131c-0.2-0.2-0.4-0.4-0.6-0.6C70.7,130.6,70.9,130.8,71.1,131z"/>
		</g>
	</g>
	<g>
		<path class="st4" d="M66.7,108.9c0-0.4-0.1-0.7-0.1-1.1C66.7,108.1,66.7,108.5,66.7,108.9z"/>
		<path class="st4" d="M66.6,107.5c0-0.5,0-0.9,0-1.4C66.6,106.6,66.6,107,66.6,107.5z"/>
		<path class="st4" d="M87.1,79.1C87.1,79.1,87.1,79.1,87.1,79.1c-11.9,9-19.3,20.5-19.3,31.2c0,2.1,0.2,4.1,0.6,6
			c-0.4-1.1-0.8-2.3-1.1-3.5c2.7,11,11.8,18,20.1,22.2c-4.7-5.7-7.6-12.1-8.6-19.3C76.9,102.5,81.6,89.3,87.1,79.1z"/>
		<path class="st4" d="M66.9,110.2c-0.1-0.4-0.1-0.7-0.1-1.1C66.8,109.4,66.8,109.8,66.9,110.2z"/>
		<path class="st4" d="M88.4,76.8C88.4,76.8,88.4,76.8,88.4,76.8C88.4,76.8,88.4,76.8,88.4,76.8z"/>
		<path class="st4" d="M89.6,74.7C89.6,74.6,89.7,74.6,89.6,74.7C89.7,74.6,89.6,74.6,89.6,74.7z"/>
		<path class="st4" d="M67.1,111.5c-0.1-0.4-0.1-0.8-0.2-1.1C67,110.7,67,111.1,67.1,111.5z"/>
		<path class="st4" d="M90.9,72.6c0,0,0-0.1,0.1-0.1C90.9,72.6,90.9,72.6,90.9,72.6z"/>
		<path class="st4" d="M67.4,112.7c-0.1-0.4-0.2-0.8-0.3-1.2C67.2,111.9,67.3,112.3,67.4,112.7z"/>
	</g>
	<g>
		<path class="st4" d="M85.9,118.9c-0.1-0.3-0.2-0.6-0.3-0.9C85.7,118.3,85.8,118.6,85.9,118.9z"/>
		<path class="st4" d="M85.5,117.1c-0.1-0.2-0.1-0.5-0.2-0.7C85.4,116.7,85.4,116.9,85.5,117.1z"/>
		<path class="st4" d="M86.1,117.2c0.5,3.3,1.6,6.4,3,9.3c-0.3-0.4-0.7-0.9-0.9-1.3c2.5,4.7,6.8,9,11,12.7V75.1
			C92.8,84.9,83.8,101.4,86.1,117.2z"/>
		<path class="st4" d="M87,122.1c-0.2-0.4-0.3-0.8-0.5-1.2C86.7,121.4,86.9,121.7,87,122.1z"/>
		<path class="st4" d="M88.4,125.1c-0.2-0.4-0.4-0.9-0.7-1.3C87.9,124.2,88.2,124.7,88.4,125.1z"/>
		<path class="st4" d="M87.7,123.6c-0.2-0.4-0.4-0.8-0.6-1.3C87.3,122.8,87.5,123.2,87.7,123.6z"/>
		<path class="st4" d="M86.4,120.6c-0.1-0.4-0.2-0.7-0.4-1.1C86.2,119.8,86.3,120.2,86.4,120.6z"/>
	</g>
	<g>
		<path class="st4" d="M108.2,46.9c0-0.7,0.1-1.4,0.2-2.1C108.4,45.6,108.3,46.3,108.2,46.9z"/>
		<path class="st4" d="M94.5,59.3c0.6-0.1,1.3-0.2,2-0.2C95.8,59.1,95.2,59.2,94.5,59.3z"/>
		<path class="st4" d="M108.2,48.9c0-0.4,0-0.8,0-1.3C108.2,48.1,108.2,48.5,108.2,48.9z"/>
		<path class="st4" d="M108.3,50.8c0-0.3-0.1-0.7-0.1-1C108.2,50.1,108.2,50.5,108.3,50.8z"/>
		<path class="st4" d="M111.1,59.5c-0.1-0.2-0.6-0.7-0.6-0.9c0.1,0.2,0.2,0.5,0.4,0.7c-1.1-2-2-4.5-2.4-7.6c0,0.1,0,0.2,0,0.3
			c-0.4,0.5-0.7,1-1,1.5c-0.6,1.1-1.7,1.7-2.9,1.6c-1.2,0.1-2.3-0.5-2.9-1.6c-0.8-1.4-1.8-2.5-2.9-3.4c0.5,3.4,0.2,6.5-0.4,9
			c1.4-0.1,4.2,0.1,4.2,0.1c0,0,0.1,0.3,0.1-0.1C102.7,59,111.1,59.5,111.1,59.5z"/>
	</g>
	<g>
		<path class="st4" d="M150.1,107.5c0-9.6-5.2-19.5-14.3-27.1c-1.5-1.3-3.1-2.4-4.7-3.5c0.7,0.8,1.5,1.5,2.2,2.3
			c7.7,8.6,11.7,18,11.7,26.9c0,11.1-5,20.7-14.5,28.2c6.3-3.2,11.6-7.4,15.3-12.3C148.5,117.6,150.1,112.7,150.1,107.5z"/>
		<path class="st4" d="M123,69.8c0.1,0.1,0.3,0.2,0.4,0.3C123.3,70,123.1,69.9,123,69.8z"/>
		<path class="st4" d="M149.8,93.6c0.1,0.2,0.2,0.4,0.2,0.6C150,94,149.9,93.8,149.8,93.6z"/>
		<path class="st4" d="M148.3,90.3C148.3,90.3,148.3,90.3,148.3,90.3C148.3,90.3,148.3,90.3,148.3,90.3z"/>
		<path class="st4" d="M147.2,88.3c-2.4-3.9-5.5-7.6-9.4-10.8c-5.1-4.3-11.1-7.6-17.5-9.7c6.4,2.1,12.3,5.4,17.5,9.7
			C141.6,80.8,144.8,84.5,147.2,88.3z"/>
		<path class="st4" d="M151.9,107c0.1-0.8,0.1-1.5,0.1-2.3C152,105.4,152,106.2,151.9,107z"/>
		<path class="st4" d="M126,72.1c0,0,0.1,0.1,0.1,0.1C126,72.2,126,72.2,126,72.1z"/>
		<path class="st4" d="M147.3,120c0.3-0.5,0.6-0.9,0.9-1.4C147.9,119.1,147.6,119.6,147.3,120z"/>
		<path class="st4" d="M148.5,118c0.3-0.5,0.5-1,0.7-1.5C149,117,148.8,117.5,148.5,118z"/>
		<path class="st4" d="M151.6,109.3c0.1-0.5,0.2-1.1,0.2-1.6C151.8,108.2,151.7,108.7,151.6,109.3z"/>
		<path class="st4" d="M145.9,122c0.3-0.4,0.7-0.9,1-1.4C146.5,121.1,146.2,121.5,145.9,122z"/>
		<path class="st4" d="M151.1,111.5c0.1-0.5,0.2-1,0.3-1.5C151.4,110.5,151.2,111,151.1,111.5z"/>
		<path class="st4" d="M150.4,113.7c0.2-0.5,0.3-1,0.5-1.5C150.7,112.7,150.6,113.2,150.4,113.7z"/>
		<path class="st4" d="M150.2,114.4c-0.2,0.5-0.4,1-0.6,1.5C149.8,115.4,150,114.9,150.2,114.4z"/>
	</g>
	<g>
		<path class="st4" d="M137.7,99c-2.9-10.3-11.9-20.7-24.5-28.3c0,0,0,0,0,0C125.8,78.3,134.8,88.7,137.7,99z"/>
		<path class="st4" d="M114.4,72.6C114.4,72.6,114.4,72.6,114.4,72.6C114.4,72.6,114.4,72.6,114.4,72.6z"/>
		<path class="st4" d="M136.8,116.3c0.4-1.9,0.6-3.9,0.6-6c0-10.7-7.4-22.2-19.3-31.2c5.5,10.3,10.2,23.5,8.3,36.6
			c-1,7.2-3.9,13.6-8.7,19.3c1-0.5,2-1.1,3-1.6c9.9-5.8,15.7-13.1,17.4-21.8C137.9,113.2,137.4,114.8,136.8,116.3z"/>
		<path class="st4" d="M138.3,111c0.1-0.4,0.1-0.9,0.2-1.3C138.4,110.2,138.4,110.6,138.3,111z"/>
		<path class="st4" d="M138.6,108.5c0-0.2,0-0.4,0-0.6C138.7,108.1,138.6,108.3,138.6,108.5z"/>
		<path class="st4" d="M115.7,74.6C115.7,74.6,115.7,74.6,115.7,74.6C115.7,74.6,115.7,74.6,115.7,74.6z"/>
	</g>
	<g>
		<path class="st4" d="M119.3,119.5c-0.1,0.4-0.2,0.7-0.3,1.1C119,120.2,119.1,119.8,119.3,119.5z"/>
		<path class="st4" d="M118.3,122.1c0.2-0.4,0.3-0.8,0.4-1.1C118.6,121.3,118.5,121.7,118.3,122.1z"/>
		<path class="st4" d="M119,117.2c2.3-15.7-6.6-32.2-13.3-42v62.7c4.2-3.4,7.9-7.2,10.4-11.4C117.5,123.5,118.5,120.4,119,117.2z"/>
		<path class="st4" d="M117.7,123.6c0.2-0.4,0.4-0.8,0.5-1.2C118,122.8,117.9,123.2,117.7,123.6z"/>
		<path class="st4" d="M120.4,113.2c1.6-16.3-8-33.1-14.7-42.3v0C112.4,80.2,122,97,120.4,113.2z"/>
		<path class="st4" d="M120.3,114.8C120.3,114.8,120.3,114.8,120.3,114.8c0.1-0.4,0.1-0.8,0.2-1.3
			C120.4,114,120.4,114.4,120.3,114.8z"/>
		<path class="st4" d="M117,125.1c0.2-0.4,0.4-0.8,0.6-1.3C117.4,124.2,117.2,124.6,117,125.1z"/>
		<path class="st4" d="M119.7,118c-0.1,0.3-0.2,0.6-0.3,0.9C119.5,118.6,119.6,118.3,119.7,118z"/>
		<path class="st4" d="M120,116.4c0,0.2-0.1,0.5-0.2,0.7C119.9,116.9,120,116.6,120,116.4z"/>
		<path class="st4" d="M116.2,126.5c0.2-0.4,0.5-0.9,0.7-1.3C116.7,125.6,116.4,126,116.2,126.5z"/>
	</g>
	<path class="st5" d="M141.8,72.8c-6.2-5.2-13.4-9-21.1-11.4c-2-1.5-9.7-8.2-4.4-21.4c0.4-1.1,0.2-2.3-0.5-3.2c-0.8-0.9-2-1.3-3.1-1
		c-0.3,0.1-5.8,1.5-10,6c-4.2-4.5-9.7-5.9-10-6c-1.1-0.3-2.3,0.1-3.1,1s-1,2.1-0.5,3.2c5.4,13.2-2.4,20-4.4,21.4
		c-7.8,2.3-15,6.2-21.1,11.4c-10.5,8.8-16.5,20.4-16.5,31.9c0,11.5,5.9,22.2,16.6,30.2c8.5,6.3,19.2,10.4,30.8,11.6
		c-2,2.6-5,4.6-6.4,5.4c-1.5,0.8-2.1,2.7-1.3,4.2c0.6,1.1,1.6,1.7,2.8,1.7c0.5,0,1-0.1,1.4-0.3c0.3-0.1,5.2-2.7,8.6-7.2v9
		c0,1.7,1.4,3.1,3.1,3.1c1.7,0,3.1-1.4,3.1-3.1v-9c3.4,4.5,8.3,7,8.6,7.2c0.5,0.2,0.9,0.3,1.4,0.3c1.1,0,2.2-0.6,2.8-1.7
		c0.8-1.5,0.2-3.4-1.3-4.2c-1.4-0.7-4.4-2.7-6.4-5.4c11.6-1.3,22.4-5.3,30.8-11.6c10.7-8,16.6-18.7,16.6-30.2
		C158.3,93.2,152.3,81.6,141.8,72.8z M78.9,115.7c1,7.2,3.9,13.6,8.6,19.3c-9.9-5.1-20.9-14-20.9-28.9c0-12.5,10-26,25.5-35.4
		C85.1,81.4,76.4,98.6,78.9,115.7z M99.5,71v66.9c-8.3-6.3-13.2-14.1-14.5-23C82.6,98.1,92.8,80.4,99.5,71z M67.6,77.5
		c5.1-4.3,11.1-7.6,17.5-9.7c-4.9,3.4-9.3,7.2-13,11.4c-7.7,8.6-11.7,18-11.7,26.9c0,11.1,5,20.7,14.5,28.2
		c-13-6.5-21.5-17.4-21.5-29.7C53.3,95,58.5,85.1,67.6,77.5z M102.7,58.8C102.7,58.8,102.7,58.8,102.7,58.8
		C102.7,58.8,102.7,58.8,102.7,58.8C102.6,58.8,102.6,58.8,102.7,58.8c-2.8,0-5.5,0.2-8.2,0.5c1.8-3.3,3.3-8.2,2.3-14.5
		c1.1,0.9,2.1,2,2.9,3.4c0.6,1.1,1.7,1.7,2.9,1.6c1.2,0.1,2.3-0.5,2.9-1.6c0.8-1.4,1.8-2.5,2.9-3.4c-1,6.3,0.5,11.2,2.3,14.5
		C108.2,58.9,105.5,58.8,102.7,58.8C102.7,58.8,102.7,58.8,102.7,58.8z M105.8,71c6.7,9.5,16.9,27.1,14.5,43.8
		c-1.3,9-6.2,16.7-14.5,23.1V71z M113.2,70.7c15.5,9.4,25.5,23,25.5,35.4c0,11.2-6,20.4-17.9,27.3c-1,0.6-2,1.1-3,1.6
		c4.7-5.7,7.6-12.2,8.7-19.3C129,98.6,120.3,81.4,113.2,70.7z M130.5,134.4c9.5-7.5,14.5-17.2,14.5-28.2c0-9-4-18.3-11.7-26.9
		c-3.7-4.2-8.1-8-13-11.4c6.4,2.1,12.3,5.4,17.5,9.7c9.1,7.6,14.3,17.5,14.3,27.1C152,117,143.5,127.9,130.5,134.4z"/>
</g>
</svg>
