<?xml version="1.0" encoding="utf-8"?>
<!-- Generator: Adobe Illustrator 22.0.1, SVG Export Plug-In . SVG Version: 6.00 Build 0)  -->
<svg version="1.1" id="Calque_1" xmlns="http://www.w3.org/2000/svg" xmlns:xlink="http://www.w3.org/1999/xlink" x="0px" y="0px"
	 viewBox="0 0 200 200" style="enable-background:new 0 0 200 200;" xml:space="preserve">
<style type="text/css">
	.st0{fill:#FFFFFF;}
	.st1{fill:#F9BCC4;}
	.st2{fill:none;stroke:#000000;stroke-miterlimit:10;}
	.st3{fill:#F4B954;}
	.st4{fill:#53BB73;}
	.st5{fill:#A7D16A;}
	.st6{fill:#FAE196;}
	.st7{fill:#F79058;}
	.st8{fill:#F36F3D;}
	.st9{fill:#010101;}
</style>
<g id="XMLID_1_">
	<g>
		<path class="st0" d="M193.6,18.4v163.1c0,6.6-5.4,12-12,12H18.4c-6.6,0-12-5.4-12-12V18.4c0-6.6,5.4-12,12-12h163.1
			C188.2,6.4,193.6,11.8,193.6,18.4z M184.1,171.9V28.1c0-6.6-5.4-12-12-12H28.2c-6.6,0-12,5.4-12,12v143.9c0,6.6,5.4,12,12,12
			h143.9C178.7,183.9,184.1,178.5,184.1,171.9z"/>
		<path class="st1" d="M184.1,28.1v143.9c0,6.6-5.4,12-12,12H28.2c-6.6,0-12-5.4-12-12V28.1c0-6.6,5.4-12,12-12h143.9
			C178.7,16.1,184.1,21.5,184.1,28.1z"/>
	</g>
	<g>
		<path class="st2" d="M172.1,183.9H28.2c-6.6,0-12-5.4-12-12V28.1c0-6.6,5.4-12,12-12h143.9c6.6,0,12,5.4,12,12v143.9
			C184.1,178.5,178.7,183.9,172.1,183.9z"/>
		<path class="st2" d="M181.6,193.6H18.4c-6.6,0-12-5.4-12-12V18.4c0-6.6,5.4-12,12-12h163.1c6.6,0,12,5.4,12,12v163.1
			C193.6,188.2,188.2,193.6,181.6,193.6z"/>
	</g>
</g>
<path class="st3" d="M102.1,61.5c-1.6,0-3.2,0.1-4.8,0.3c0.1,0,0.1,0.1,0.1,0.1s-1.9,2.8-5.4,5.7c-3.8,3.6-9.4,7.8-16.4,9.9
	c-2.6,0.8-5.2,1.2-7.8,1.3c-5.2,7-8.3,15.8-8.3,25.2c0,23.5,19,42.5,42.5,42.5s42.5-19,42.5-42.5S125.6,61.5,102.1,61.5z"/>
<path class="st4" d="M97.5,61.5c0,0-8.3,12-21.8,15.9c-13.5,4-27-1.6-27-1.6s8.3-12,21.8-15.9S97.5,61.5,97.5,61.5z"/>
<path class="st5" d="M95.6,60.8c0.7-0.2,1-0.4,1-0.4s-7-9.9-18.3-13.1c-11.2-3.2-22.4,1.5-22.4,1.5s5.2,7.2,13.7,11.3
	c0.3-0.1,0.6-0.2,0.9-0.3C80.9,56.9,91.4,59.5,95.6,60.8z"/>
<path class="st4" d="M98.1,61.5c-0.4-3.4,0.2-6.4,1.5-9.1c2.3-4.8,6.3-5.9,8.4-6.2c2.6-0.3,4.9,1,5.1,2.8c0.2,1.7-1.5,3.3-3.8,3.8
	c-0.7,0.7-2.1,4.2-1.6,8.6L98.1,61.5z"/>
<path class="st6" d="M148.4,95.5c15.2,15.2,15.2,39.7,0,54.9c-15.2,15.1-39.8,15.1-55,0L148.4,95.5z"/>
<path class="st7" d="M141.6,102.3c11.4,11.4,11.4,29.9,0,41.2s-29.9,11.4-41.3,0L141.6,102.3z"/>
<g>
	<path class="st8" d="M121.1,122.8l20.7,20.7c0,0-0.1,0.1-0.1,0.1c-11.4,11.4-29.9,11.4-41.3,0L121.1,122.8z"/>
	<path class="st8" d="M121,151.9L121,151.9v-29h29l0,0C150,138.9,137,151.9,121,151.9z"/>
</g>
<path class="st7" d="M121,151.9L121,151.9v-29l20.5,20.5C136.2,148.7,129,151.9,121,151.9z"/>
<path id="SVGCleanerId_0" class="st6" d="M55.8,95.5c-15.2,15.2-15.2,39.7,0,54.9c15.2,15.1,39.8,15.1,55,0L55.8,95.5z"/>
<path id="SVGCleanerId_1" class="st7" d="M62.6,102.3c-11.4,11.4-11.4,29.9,0,41.2s29.9,11.4,41.3,0L62.6,102.3z"/>
<path id="SVGCleanerId_2" class="st8" d="M83.1,122.8l-20.7,20.7c0,0,0.1,0.1,0.1,0.1c11.4,11.4,29.9,11.4,41.3,0L83.1,122.8z"/>
<path id="SVGCleanerId_3" class="st8" d="M54.2,122.9L54.2,122.9h29v29l0,0C67.2,151.9,54.2,138.9,54.2,122.9z"/>
<path id="SVGCleanerId_4" class="st7" d="M83.2,151.9L83.2,151.9v-29l-20.5,20.5C68,148.7,75.2,151.9,83.2,151.9z"/>
<path class="st3" d="M55.8,95.5c-15.2,15.2-15.2,39.7,0,54.9c15.2,15.1,39.8,15.1,55,0"/>
<g>
	<path id="SVGCleanerId_0_1_" class="st6" d="M55.8,95.5c-15.2,15.2-15.2,39.7,0,54.9c15.2,15.1,39.8,15.1,55,0L55.8,95.5z"/>
</g>
<g>
	<path id="SVGCleanerId_1_1_" class="st7" d="M62.6,102.3c-11.4,11.4-11.4,29.9,0,41.2s29.9,11.4,41.3,0L62.6,102.3z"/>
</g>
<g>
	<path id="SVGCleanerId_2_1_" class="st8" d="M83.1,122.8l-20.7,20.7c0,0,0.1,0.1,0.1,0.1c11.4,11.4,29.9,11.4,41.3,0L83.1,122.8z"
		/>
</g>
<g>
	<path id="SVGCleanerId_3_1_" class="st8" d="M54.2,122.9L54.2,122.9h29v29l0,0C67.2,151.9,54.2,138.9,54.2,122.9z"/>
</g>
<g>
	<path id="SVGCleanerId_4_1_" class="st7" d="M83.2,151.9L83.2,151.9v-29l-20.5,20.5C68,148.7,75.2,151.9,83.2,151.9z"/>
</g>
<path class="st9" d="M150.1,93.8c-0.9-0.9-2.4-0.9-3.3,0l-37.5,37.4c-0.9,0.9-0.9,2.4,0,3.3c0.9,0.9,2.4,0.9,3.3,0l6.1-6v13.2
	c0,1.3,1.1,2.3,2.3,2.3s2.3-1.1,2.3-2.3v-13.2l14.9,14.9c-7.3,6.1-17.4,7.9-26.4,4.6l-6.1-6.1c0-0.1-0.1-0.1-0.1-0.1l-41.3-41.2
	c0,0-0.1-0.1-0.1-0.1l-1.8-1.8c0-0.1,0.1-0.3,0.1-0.4c0.9-6.2,3.2-12.1,6.8-17.2c2.3-0.2,4.8-0.6,7.2-1.4C88.1,76.2,96,67.1,98.5,64
	c0.7-0.1,1.4-0.1,2.1-0.1l2.4,0c16.1,0.4,30.7,10.6,36.5,25.7c0.4,0.9,1.2,1.5,2.2,1.5c0.3,0,0.6-0.1,0.8-0.2c1.2-0.5,1.8-1.8,1.3-3
	c-3.2-8.4-8.8-15.5-16.2-20.7c-5.4-3.7-11.4-6.2-17.7-7.4c0-2.3,0.4-4.1,0.8-4.9c3-1,4.9-3.4,4.6-6.1c-0.4-3.2-3.7-5.3-7.6-4.9
	c-2.7,0.3-7.5,1.7-10.3,7.5c-0.7,1.5-1.2,3-1.5,4.6c-3.1-3.4-9.1-8.7-17-10.9c-11.9-3.4-23.5,1.4-24,1.6c-0.7,0.3-1.2,0.8-1.3,1.5
	c-0.2,0.7-0.1,1.4,0.3,2c0.2,0.3,3.9,5.4,10.2,9.6C53.5,65,47.1,74.1,46.8,74.5c-0.4,0.6-0.5,1.3-0.3,2c0.2,0.7,0.7,1.2,1.4,1.5
	c0.4,0.2,7,2.8,15.7,3.1c-2.5,4.2-4.2,8.7-5.2,13.5l-0.8-0.8c-0.9-0.9-2.4-0.9-3.3,0C46.3,101.6,42,112,42,122.9
	c0,11,4.3,21.3,12.1,29.1c8,8,18.6,12,29.1,12c6.5,0,13-1.5,18.9-4.6c3.2,1.6,6.6,2.9,10.1,3.6c3,0.7,6,1,8.9,1
	c10.8,0,21.2-4.2,29-12c7.8-7.8,12.1-18.1,12.1-29.1C162.2,112,157.9,101.6,150.1,93.8z M101.7,53.4c1.7-3.6,4.5-4.6,6.6-4.8
	c0.2,0,0.3,0,0.5,0c1.2,0,2,0.6,2,0.8c0,0.2-0.5,0.9-1.9,1.2c-0.4,0.1-0.8,0.3-1.2,0.6c-1.2,1.2-2.3,4.3-2.4,7.9l-5,0
	C100.4,57.1,100.9,55.2,101.7,53.4z M59.9,50c3.9-1.1,10.8-2.4,17.7-0.4c5.3,1.5,9.7,4.7,12.6,7.4c-5.4-1-12.9-1.6-20.5,0.6
	c0,0,0,0,0,0C65.4,55.4,62,52.2,59.9,50z M70.3,62.5c0.1,0,0.1,0,0.2-0.1c0.2-0.1,0.5-0.2,0.7-0.2c8.8-2.6,17.8-0.8,22.3,0.5
	c-3.1,3.6-9.7,9.9-18.5,12.5c-8.8,2.6-17.8,0.8-22.3-0.5C55.7,71.2,61.9,65.2,70.3,62.5z M141.5,140.2l-14.9-14.9h21.1
	C147.3,130.8,145.1,135.9,141.5,140.2z M126.6,120.6l14.9-14.9c3.6,4.2,5.7,9.4,6.2,14.9H126.6z M56.5,125.3h21.1l-14.9,14.9
	C59.1,135.9,56.9,130.8,56.5,125.3z M77.6,120.6H56.5c0.5-5.5,2.6-10.7,6.2-14.9L77.6,120.6z M80.9,128.6v21
	c-5.3-0.5-10.6-2.5-14.9-6.1L80.9,128.6z M85.6,128.6l14.9,14.9c-4.3,3.6-9.6,5.7-14.9,6.2L85.6,128.6L85.6,128.6z M57.4,148.7
	c-6.9-6.9-10.7-16-10.7-25.7c0-9,3.2-17.4,9.1-24.1l3.5,3.5c-5,5.7-7.7,12.9-7.7,20.6c0,8.2,3.1,15.9,8.7,21.7
	c0.1,0.2,0.3,0.4,0.4,0.6c0.2,0.2,0.4,0.3,0.6,0.5c6.1,5.8,13.9,8.6,21.7,8.6c7.4,0,14.7-2.5,20.6-7.6l3.5,3.5
	c-6.9,6-15.5,9.1-24.1,9.1C73.8,159.3,64.5,155.8,57.4,148.7z M146.8,148.7c-8.8,8.8-21.4,12.5-33.7,9.8c-2.1-0.5-4.2-1.1-6.2-2
	c1.5-1.1,3-2.3,4.5-3.6c3.2,1,6.4,1.5,9.6,1.5c8.2,0,16.3-3.2,22.3-9.2c6-5.9,9.2-13.8,9.2-22.3c0-7.6-2.7-14.9-7.7-20.6l3.5-3.5
	c5.9,6.7,9.1,15.1,9.1,24.1C157.5,132.7,153.7,141.8,146.8,148.7z"/>
<path class="st9" d="M102.1,68.5c-1.3,0-2.3,1.1-2.3,2.3c0,1.3,1.1,2.3,2.3,2.3l0.2,0c0,0,0,0,0,0c1.3,0,2.3-1,2.3-2.3
	c0-1.3-1-2.4-2.3-2.4L102.1,68.5z"/>
<path class="st9" d="M111.9,69.8c-1.2-0.4-2.5,0.4-2.9,1.6c-0.4,1.2,0.4,2.5,1.6,2.9c9,2.5,16.2,8.9,19.8,17.5
	c0.4,0.9,1.2,1.4,2.2,1.4c0.3,0,0.6-0.1,0.9-0.2c1.2-0.5,1.8-1.9,1.3-3.1C130.6,80.1,122.3,72.8,111.9,69.8z"/>
</svg>
