<?xml version="1.0" encoding="utf-8"?>
<!-- Generator: Adobe Illustrator 22.0.1, SVG Export Plug-In . SVG Version: 6.00 Build 0)  -->
<svg version="1.1" id="Calque_1" xmlns="http://www.w3.org/2000/svg" xmlns:xlink="http://www.w3.org/1999/xlink" x="0px" y="0px"
	 viewBox="0 0 200 200" style="enable-background:new 0 0 200 200;" xml:space="preserve">
<style type="text/css">
	.st0{fill:#FFFFFF;}
	.st1{fill:#FBEDB6;}
	.st2{fill:none;stroke:#010101;stroke-miterlimit:10;}
	.st3{fill:#9C6B58;}
	.st4{fill:#FAE067;}
	.st5{opacity:0.1;fill:#010101;enable-background:new    ;}
	.st6{fill:#4A5058;}
</style>
<g id="XMLID_1_">
	<g>
		<path class="st0" d="M184.1,171.6V27.7c0-6.6-5.4-12-12-12H28.2c-6.6,0-12,5.4-12,12v143.9c0,6.6,5.4,12,12,12h143.9
			C178.7,183.6,184.1,178.2,184.1,171.6z M193.6,18.1v163.1c0,6.6-5.4,12-12,12H18.4c-6.6,0-12-5.4-12-12V18.1c0-6.6,5.4-12,12-12
			h163.1C188.2,6.1,193.6,11.5,193.6,18.1z"/>
		<path class="st1" d="M184.1,27.7v143.9c0,6.6-5.4,12-12,12H28.2c-6.6,0-12-5.4-12-12V27.7c0-6.6,5.4-12,12-12h143.9
			C178.7,15.7,184.1,21.1,184.1,27.7z"/>
	</g>
	<g>
		<path class="st2" d="M172.1,183.6H28.2c-6.6,0-12-5.4-12-12V27.7c0-6.6,5.4-12,12-12h143.9c6.6,0,12,5.4,12,12v143.9
			C184.1,178.2,178.7,183.6,172.1,183.6z"/>
		<path class="st2" d="M181.6,193.2H18.4c-6.6,0-12-5.4-12-12V18.1c0-6.6,5.4-12,12-12h163.1c6.6,0,12,5.4,12,12v163.1
			C193.6,187.8,188.2,193.2,181.6,193.2z"/>
	</g>
</g>
<circle class="st3" cx="58.9" cy="63" r="16.4"/>
<path class="st4" d="M61.8,59.6C57,54.8,49.9,53.7,44,56c-2.8,6.1-1.7,13.5,3.3,18.5c4.8,4.8,11.8,6,17.7,3.6
	C67.8,72.1,66.8,64.6,61.8,59.6z"/>
<path class="st5" d="M61.8,59.6C57,54.8,49.9,53.7,44,56c-0.4,0.9-0.8,1.8-1,2.8c4.6,0.2,14.8,2.4,17.9,20.4
	c1.4-0.2,2.8-0.5,4.1-1.1C67.8,72.1,66.8,64.6,61.8,59.6z"/>
<circle class="st3" cx="141" cy="63" r="16.4"/>
<path class="st4" d="M138.1,59.6c4.8-4.8,11.8-6,17.7-3.6c2.8,6.1,1.7,13.5-3.3,18.5c-4.8,4.8-11.8,6-17.7,3.6
	C132.1,72.1,133.1,64.6,138.1,59.6z"/>
<path class="st5" d="M138.1,59.6c4.8-4.8,11.8-6,17.7-3.6c0.4,0.9,0.8,1.8,1,2.8c-4.6,0.2-14.8,2.4-17.9,20.4
	c-1.4-0.2-2.8-0.5-4.1-1.1C132.1,72.1,133.1,64.6,138.1,59.6z"/>
<path class="st3" d="M158,108.8c0-32.1-26-58-58-58s-58,26-58,58s26,42.1,58,42.1S158,140.9,158,108.8z"/>
<path class="st5" d="M88.3,52c-26.5,5.4-46.4,28.8-46.4,56.9c0,32.1,26,42.1,58,42.1c0.7,0,1.3,0,2,0C48.3,115.9,62.9,66.8,88.3,52z
	"/>
<path class="st4" d="M123.2,116.4c0-12.8-10.4-36.5-23.2-36.5s-23.2,23.7-23.2,36.5s10.4,19.9,23.2,19.9S123.2,129.2,123.2,116.4z"
	/>
<g>
	<path class="st6" d="M109.4,100.1L109.4,100.1c-6.1-2.6-12.9-2.6-19,0l0,0c-1.6,0.7-2,2.8-0.8,4l4.2,4.2c3.4,3.4,8.8,3.4,12.2,0
		l4.2-4.2C111.4,102.9,111,100.8,109.4,100.1z"/>
	<path class="st6" d="M67.6,103.4c-0.9,0-1.7-0.8-1.7-1.7v-5.4c0-0.9,0.8-1.7,1.7-1.7c0.9,0,1.7,0.8,1.7,1.7v5.4
		C69.3,102.7,68.5,103.4,67.6,103.4z"/>
	<path class="st6" d="M132.3,103.4c-0.9,0-1.7-0.8-1.7-1.7v-5.4c0-0.9,0.8-1.7,1.7-1.7s1.7,0.8,1.7,1.7v5.4
		C134,102.7,133.3,103.4,132.3,103.4z"/>
	<path class="st6" d="M100,125.6c-3.8,0-7.3-1.6-9.8-4.5c-0.6-0.7-0.5-1.8,0.2-2.4c0.7-0.6,1.8-0.5,2.4,0.2c1.8,2.1,4.5,3.3,7.3,3.3
		s5.4-1.2,7.3-3.3c0.6-0.7,1.7-0.8,2.4-0.2c0.7,0.6,0.8,1.7,0.2,2.4C107.3,123.9,103.7,125.6,100,125.6z"/>
</g>
</svg>
