<?xml version="1.0" encoding="utf-8"?>
<!-- Generator: Adobe Illustrator 22.0.1, SVG Export Plug-In . SVG Version: 6.00 Build 0)  -->
<svg version="1.1" id="Calque_1" xmlns="http://www.w3.org/2000/svg" xmlns:xlink="http://www.w3.org/1999/xlink" x="0px" y="0px"
	 viewBox="0 0 200 200" style="enable-background:new 0 0 200 200;" xml:space="preserve">
<style type="text/css">
	.st0{fill:#FFFFFF;}
	.st1{fill:#F9BCC4;}
	.st2{fill:none;stroke:#000000;stroke-miterlimit:10;}
	.st3{fill:#F09222;}
	.st4{fill:#CE3927;}
	.st5{fill:#F7CE0F;}
	.st6{fill:#010101;}
</style>
<g id="XMLID_1_">
	<g>
		<path class="st0" d="M184.1,173.6V29.7c0-6.6-5.4-12-12-12H28.2c-6.6,0-12,5.4-12,12v143.9c0,6.6,5.4,12,12,12h143.9
			C178.7,185.6,184.1,180.2,184.1,173.6z M193.6,20.1v163.1c0,6.6-5.4,12-12,12H18.4c-6.6,0-12-5.4-12-12V20.1c0-6.6,5.4-12,12-12
			h163.1C188.2,8.1,193.6,13.5,193.6,20.1z"/>
		<path class="st1" d="M184.1,29.7v143.9c0,6.6-5.4,12-12,12H28.2c-6.6,0-12-5.4-12-12V29.7c0-6.6,5.4-12,12-12h143.9
			C178.7,17.7,184.1,23.1,184.1,29.7z"/>
	</g>
	<g>
		<path class="st2" d="M172.1,185.6H28.2c-6.6,0-12-5.4-12-12V29.7c0-6.6,5.4-12,12-12h143.9c6.6,0,12,5.4,12,12v143.9
			C184.1,180.2,178.7,185.6,172.1,185.6z"/>
		<path class="st2" d="M181.6,195.2H18.4c-6.6,0-12-5.4-12-12V20.1c0-6.6,5.4-12,12-12h163.1c6.6,0,12,5.4,12,12v163.1
			C193.6,189.8,188.2,195.2,181.6,195.2z"/>
	</g>
</g>
<path class="st3" d="M149.9,71.1v-2.1c0-13.7-11.1-24.9-24.9-24.9H79.7c-24.7,0-36.2,19.6-36.3,33.4c1-12.9,11.8-22.9,24.8-22.9
	h45.3c13.7,0,24.9,11.1,24.9,24.9l0,0v2.1c0,5.5-1.8,10.9-5.1,15.3l-0.5,0.7l3.7,61.3l11.6-10.3l-3.7-61.5l0.5-0.7
	C148.1,82,149.9,76.6,149.9,71.1z"/>
<polygon class="st4" points="136.5,159.1 136.5,158.9 136.2,159.1 "/>
<path class="st5" d="M133.2,96.9c3.3-4.4,5.1-9.8,5.1-15.3v-2.1c0-13.7-11.1-24.9-24.9-24.9H68.1c-13,0-23.8,10-24.8,22.9
	c0,0.1,0,0.2,0,0.3c0-0.1,0-0.2,0-0.3c-0.1,0.7-0.1,1.3-0.1,2c0,6.8,2.7,13.2,7.5,18L47,159.1h89.3l0.2-0.2l-3.7-61.3L133.2,96.9z"
	/>
<g>
	<rect x="51.1" y="72.9" transform="matrix(0.7071 -0.7071 0.7071 0.7071 -31.8601 72.8865)" class="st3" width="42" height="4"/>
	<rect x="45.6" y="68.5" transform="matrix(0.6818 -0.7316 0.7316 0.6818 -33.3894 64.2926)" class="st3" width="23.2" height="4"/>
	<rect x="47.8" y="82.8" transform="matrix(0.7071 -0.7071 0.7071 0.7071 -36.5365 81.3869)" class="st3" width="64.4" height="4"/>
	<rect x="43.7" y="94.7" transform="matrix(0.7071 -0.7071 0.7071 0.7071 -42.0375 91.8675)" class="st3" width="92.4" height="4"/>
	
		<rect x="39.6" y="109.5" transform="matrix(0.7071 -0.7071 0.7071 0.7071 -51.6651 98.3147)" class="st3" width="106.4" height="4"/>
	<rect x="62.4" y="125.4" transform="matrix(0.71 -0.7042 0.7042 0.71 -60.9864 106.6376)" class="st3" width="73.1" height="4"/>
	
		<rect x="86.2" y="134.6" transform="matrix(0.7197 -0.6943 0.6943 0.7197 -63.9462 114.6736)" class="st3" width="47.8" height="4"/>
	
		<rect x="111.8" y="144.2" transform="matrix(0.7071 -0.7071 0.7071 0.7071 -67.7617 128.7685)" class="st3" width="19.6" height="4"/>
</g>
<path class="st6" d="M151.9,71.1v-2.1c0-14.8-12-26.8-26.9-26.9H79.7c-26,0-38.2,21-38.3,35.4c0,0.6-0.1,1.3-0.1,1.9
	c0,7,2.6,13.7,7.4,18.8L45,158.9c-0.1,1.1,0.8,2,1.9,2.1c0,0,0.1,0,0.1,0h89.5c0.5,0,1.1-0.2,1.4-0.6c0.1-0.1,0.2-0.3,0.3-0.4
	l11.2-9.9c0.5-0.4,0.7-1,0.7-1.6l-3.7-60.8l0.1-0.1C150,82.9,151.9,77.1,151.9,71.1z M49.1,157.1l3.6-59.4c0-0.6-0.2-1.1-0.6-1.5
	c-4.4-4.4-6.9-10.4-6.9-16.6c0-0.6,0-1.1,0.1-1.7l0,0c0-0.2,0-0.5,0-0.8c1.2-11.6,11.1-20.5,22.8-20.5h45.3
	c12.6,0,22.9,10.3,22.9,22.9v2.1c0,5.1-1.7,10-4.7,14.1l-0.5,0.7c-0.3,0.4-0.4,0.8-0.4,1.3l3.6,59.4L49.1,157.1L49.1,157.1z
	 M146,147.8l-7.8,6.9l-3.4-56.5l0.1-0.1c3.6-4.8,5.5-10.5,5.5-16.5v-2.1c0-14.8-12-26.8-26.9-26.9H68.1c-4.8,0-9.5,1.3-13.6,3.7
	c6.6-6.8,15.7-10.5,25.1-10.2H125c12.6,0,22.9,10.3,22.9,22.9v2.1c0,5.1-1.7,10-4.7,14.1l-0.5,0.7c-0.3,0.4-0.4,0.8-0.4,1.3
	L146,147.8z"/>
<rect x="51.1" y="72.9" transform="matrix(0.7071 -0.7071 0.7071 0.7071 -31.8601 72.8865)" class="st6" width="42" height="4"/>
<rect x="46" y="68" transform="matrix(0.7071 -0.7071 0.7071 0.7071 -32.7048 60.9363)" class="st6" width="22.4" height="4"/>
<rect x="47.8" y="82.8" transform="matrix(0.7071 -0.7071 0.7071 0.7071 -36.5365 81.3869)" class="st6" width="64.4" height="4"/>
<rect x="43.7" y="94.7" transform="matrix(0.7071 -0.7071 0.7071 0.7071 -42.0375 91.8675)" class="st6" width="92.4" height="4"/>
<rect x="39.6" y="109.5" transform="matrix(0.7071 -0.7071 0.7071 0.7071 -51.6651 98.3147)" class="st6" width="106.4" height="4"/>
<rect x="62.7" y="125.4" transform="matrix(0.7203 -0.6936 0.6936 0.7203 -60.4446 104.8275)" class="st6" width="74.2" height="4"/>
<rect x="86.2" y="134.6" transform="matrix(0.7199 -0.694 0.694 0.7199 -63.9377 114.6119)" class="st6" width="47.8" height="4"/>
<rect x="111.8" y="144.2" transform="matrix(0.7071 -0.7071 0.7071 0.7071 -67.7617 128.7685)" class="st6" width="19.6" height="4"/>
</svg>
