<?xml version="1.0" encoding="utf-8"?>
<!-- Generator: Adobe Illustrator 22.0.1, SVG Export Plug-In . SVG Version: 6.00 Build 0)  -->
<svg version="1.1" id="Calque_1" xmlns="http://www.w3.org/2000/svg" xmlns:xlink="http://www.w3.org/1999/xlink" x="0px" y="0px"
	 viewBox="0 0 200 200" style="enable-background:new 0 0 200 200;" xml:space="preserve">
<style type="text/css">
	.st0{fill:#FFFFFF;}
	.st1{fill:#F9BCC4;}
	.st2{fill:none;stroke:#000000;stroke-miterlimit:10;}
	.st3{fill:#CE3927;}
	.st4{fill:#402E21;}
	.st5{fill:#FDD44B;}
	.st6{fill:#CF5A3F;}
	.st7{fill:#85BD94;}
</style>
<g id="XMLID_1_">
	<g>
		<path class="st0" d="M181.5,172.7V28.9c0-6.6-5.4-12-12-12H25.7c-6.6,0-12,5.4-12,12v143.9c0,6.6,5.4,12,12,12h143.9
			C176.1,184.7,181.5,179.3,181.5,172.7z M191.1,19.2v163.1c0,6.6-5.4,12-12,12H15.9c-6.6,0-12-5.4-12-12V19.2c0-6.6,5.4-12,12-12
			h163.1C185.7,7.2,191.1,12.6,191.1,19.2z"/>
		<path class="st1" d="M181.5,28.9v143.9c0,6.6-5.4,12-12,12H25.7c-6.6,0-12-5.4-12-12V28.9c0-6.6,5.4-12,12-12h143.9
			C176.1,16.9,181.5,22.3,181.5,28.9z"/>
	</g>
	<g>
		<path class="st2" d="M169.5,184.7H25.7c-6.6,0-12-5.4-12-12V28.9c0-6.6,5.4-12,12-12h143.9c6.6,0,12,5.4,12,12v143.9
			C181.5,179.3,176.1,184.7,169.5,184.7z"/>
		<path class="st2" d="M179.1,194.4H15.9c-6.6,0-12-5.4-12-12V19.2c0-6.6,5.4-12,12-12h163.1c6.6,0,12,5.4,12,12v163.1
			C191.1,189,185.7,194.4,179.1,194.4z"/>
	</g>
</g>
<polygon class="st3" points="134,158.2 133.9,158 133.7,158.2 "/>
<g>
	<path class="st4" d="M165.2,104.2h-8.7c-0.4-10.8-9.2-19.4-20-19.7c-5.2-10.9-16-17.8-28.2-17.8c-3.2,0-6.3,0.5-9.2,1.4
		c-2.9-4-7.3-6.5-12.3-6.9c-1.1-0.1-2.2-0.1-3.3,0.1c-7,0.9-12.5,5.9-14.2,12.5c-1.8,0-3.7,0.2-5.4,0.6
		c-14.4,2.8-24.9,15.2-25.3,29.8h-8.7c-1.5,0-2.7,1.2-2.7,2.7c0,3.3,7.1,12.3,10.6,16.2c5.4,6,13.2,13.2,20.3,13.2h79.2
		c7,0,14.9-7.2,20.3-13.2c3.4-3.9,10.6-12.9,10.6-16.2C167.9,105.4,166.7,104.2,165.2,104.2z M152.8,120.1
		c-6.2,6.9-11.9,10.8-15.7,10.8H57.9c-3.7,0-9.5-3.9-15.7-10.8c-3.6-4-6.5-7.9-8.1-10.5h126.8C159.2,112.2,156.4,116.1,152.8,120.1z
		 M86.3,66.6c2.9,0.2,5.6,1.5,7.5,3.6c-2.2,1.2-4.3,2.6-6.2,4.3c-1.1,0.9-2.1,2-3,3c-3.1-1.7-6.4-2.8-9.9-3.4c1.4-4,4.9-7,9.3-7.5
		C84.8,66.6,85.5,66.6,86.3,66.6z M151.1,104.2h-5.3c-0.4-5-4.7-9-9.8-9c-5.1,0-9.4,4-9.8,9H124c0,0,0-0.1,0-0.1
		c0-2.2-0.5-4.3-1.3-6.3c2-3.7,7.9-7.9,13.3-7.9C144,89.9,150.6,96.2,151.1,104.2z M105.8,93.7c0.7-0.1,1.4-0.2,2.1-0.2
		c5.9,0,10.6,4.8,10.6,10.6c0,0,0,0.1,0,0.1H97.3c0,0,0-0.1,0-0.1C97.3,99.1,100.9,94.7,105.8,93.7z M107.9,88
		c-1.1,0-2.1,0.1-3.2,0.3c-2.6,0.5-4.9,1.7-6.9,3.2c-0.5-1-1-1.9-1.6-2.9c2.8-3.7,7.2-5.9,12-5.9c5.5,0,10.5,2.9,13.2,7.7
		c-0.7,0.7-1.4,1.5-2,2.4C116.5,89.9,112.4,88,107.9,88z M131.6,104.2c0.4-2,2.2-3.6,4.3-3.6c2.1,0,3.9,1.5,4.3,3.6H131.6z
		 M125.8,87.2c-3.7-6.1-10.3-9.8-17.5-9.8c-6,0-11.5,2.5-15.3,6.8c-1.2-1.3-2.4-2.5-3.8-3.6c0.6-0.7,1.3-1.4,2-2
		c4.7-4.2,10.8-6.5,17.1-6.5c9.4,0,17.9,5,22.4,13C129,85.6,127.3,86.3,125.8,87.2z M93.9,96.2c-1.3,2.3-2.1,5-2.1,7.9
		c0,0,0,0.1,0,0.1h-1.7c-0.4-10.9-9.5-19.7-20.5-19.7s-20.1,8.8-20.5,19.7h-5.3c0.4-12,9-22.2,20.9-24.5c1.6-0.3,3.2-0.5,4.9-0.5
		C80.7,79.2,90.3,86,93.9,96.2z M69.7,95.2c-5.1,0-9.4,4-9.8,9h-5.3c0.4-7.9,7-14.3,15.1-14.3s14.6,6.3,15.1,14.3h-5.3
		C79,99.1,74.8,95.2,69.7,95.2z M74,104.2h-8.7c0.4-2,2.2-3.6,4.3-3.6C71.8,100.6,73.6,102.1,74,104.2z"/>
	<path class="st5" d="M136,100.6c-2.1,0-3.9,1.5-4.3,3.6h8.7C139.9,102.1,138.1,100.6,136,100.6z"/>
	<path class="st5" d="M108.3,82.8c-4.8,0-9.1,2.2-12,5.9c0.6,0.9,1.1,1.9,1.6,2.9c2-1.6,4.3-2.7,6.9-3.2c1-0.2,2.1-0.3,3.2-0.3
		c4.5,0,8.6,1.9,11.5,4.9c0.6-0.8,1.3-1.6,2-2.4C118.8,85.8,113.8,82.8,108.3,82.8z"/>
	<path class="st5" d="M79.5,104.2h5.3c-0.4-7.9-7-14.3-15.1-14.3S55,96.2,54.6,104.2h5.3c0.4-5,4.7-9,9.8-9
		C74.8,95.2,79,99.1,79.5,104.2z"/>
	<path class="st5" d="M65.3,104.2H74c-0.4-2-2.2-3.6-4.3-3.6C67.5,100.6,65.7,102.1,65.3,104.2z"/>
	<g>
		<path class="st5" d="M145.2,93c0.1,0.1,0.2,0.2,0.3,0.2C145.4,93.2,145.3,93.1,145.2,93z"/>
		<path class="st5" d="M147.2,94.9c0.1,0.1,0.2,0.2,0.2,0.2C147.3,95.1,147.3,95,147.2,94.9z"/>
		<path class="st5" d="M146.5,94.2c-0.1-0.1-0.2-0.2-0.3-0.3C146.4,94.1,146.5,94.2,146.5,94.2z"/>
		<path class="st5" d="M142.9,91.6c0.1,0,0.2,0.1,0.3,0.1C143,91.7,143,91.6,142.9,91.6z"/>
		<path class="st5" d="M144,92.2c0.1,0,0.1,0.1,0.2,0.1C144.2,92.3,144.1,92.3,144,92.2z"/>
		<path class="st5" d="M141.5,91c0.1,0,0.2,0.1,0.3,0.1C141.7,91,141.6,91,141.5,91z"/>
		<path class="st5" d="M147.9,95.8c-2.6-2-5.8-3.2-9.2-3.2c-5.4,0-11.3,4.2-13.3,7.9c0.4,0.9,0.7,1.9,0.9,2.9c0,0.3-0.1,0.5-0.1,0.8
			c0.4-5,4.7-9,9.8-9c5.1,0,9.4,4.3,9.8,9h5.3C150.9,101.3,149.7,98.2,147.9,95.8z"/>
		<path class="st5" d="M137.3,90c0.1,0,0.2,0,0.3,0C137.5,90,137.4,90,137.3,90z"/>
		<path class="st5" d="M140.3,90.5C140.3,90.5,140.3,90.5,140.3,90.5C140.3,90.5,140.3,90.5,140.3,90.5z"/>
		<path class="st5" d="M138.8,90.2c0.1,0,0.2,0,0.2,0.1C139,90.2,138.9,90.2,138.8,90.2z"/>
	</g>
	<g>
		<path class="st5" d="M82.7,82.7c0.2,0.1,0.3,0.2,0.5,0.3C83,82.9,82.9,82.8,82.7,82.7z"/>
		<path class="st5" d="M80.9,81.8c0.1,0.1,0.3,0.1,0.4,0.2C81.2,81.9,81,81.8,80.9,81.8z"/>
		<path class="st5" d="M79.2,81c0.2,0.1,0.3,0.1,0.5,0.2C79.5,81.2,79.4,81.1,79.2,81z"/>
		<path class="st5" d="M87.7,86.5c-0.1-0.1-0.3-0.3-0.4-0.4C87.4,86.2,87.5,86.3,87.7,86.5z"/>
		<path class="st5" d="M85.9,84.9c0.2,0.1,0.3,0.3,0.5,0.4C86.2,85.2,86.1,85.1,85.9,84.9z"/>
		<path class="st5" d="M84.2,83.7c0.2,0.1,0.3,0.2,0.5,0.3C84.5,83.9,84.4,83.8,84.2,83.7z"/>
		<path class="st5" d="M71.5,79.3c0.2,0,0.3,0,0.5,0C71.8,79.3,71.6,79.3,71.5,79.3z"/>
		<path class="st5" d="M93.9,96.2c-1.2-3.3-3-6.3-5.3-8.8c-4.5-3.6-10.1-5.7-16.2-5.7c-1.6,0-3.3,0.2-4.9,0.5
			c-11,2.1-19.2,10.8-20.7,22h2.3c0.4-11.2,9.5-19.7,20.5-19.7c11,0,20.1,8.5,20.5,19.7h1.7c0,0,0-0.1,0-0.1
			C91.9,101.3,92.6,98.6,93.9,96.2z"/>
		<path class="st5" d="M77.4,80.4c0.1,0,0.2,0.1,0.3,0.1C77.5,80.4,77.5,80.4,77.4,80.4z"/>
		<path class="st5" d="M73.6,79.5c0,0,0.1,0,0.1,0C73.7,79.5,73.6,79.5,73.6,79.5z"/>
		<path class="st5" d="M75.5,79.9c0.2,0,0.3,0.1,0.5,0.1C75.8,79.9,75.6,79.9,75.5,79.9z"/>
	</g>
	<g>
		<path class="st5" d="M121,75.5c0.2,0.1,0.4,0.2,0.6,0.3C121.4,75.7,121.2,75.6,121,75.5z"/>
		<path class="st5" d="M119.5,74.7c0.2,0.1,0.4,0.2,0.5,0.3C119.8,74.9,119.7,74.8,119.5,74.7z"/>
		<path class="st5" d="M122.6,76.4c0.2,0.1,0.4,0.3,0.5,0.4C122.9,76.7,122.8,76.6,122.6,76.4z"/>
		<path class="st5" d="M123.8,77.3c0.2,0.1,0.4,0.3,0.6,0.4C124.2,77.6,124,77.5,123.8,77.3z"/>
		<path class="st5" d="M125,78.3c0.2,0.2,0.4,0.3,0.5,0.5C125.4,78.6,125.2,78.4,125,78.3z"/>
		<path class="st5" d="M126.9,80.1c-0.2-0.2-0.4-0.5-0.7-0.7C126.5,79.6,126.7,79.9,126.9,80.1z"/>
		<path class="st5" d="M118,74c0.2,0.1,0.4,0.2,0.6,0.2C118.4,74.2,118.2,74.1,118,74z"/>
		<path class="st5" d="M109.9,72.2c0.2,0,0.3,0,0.5,0C110.2,72.2,110.1,72.2,109.9,72.2z"/>
		<path class="st5" d="M116.6,73.5c0.2,0.1,0.3,0.1,0.5,0.2C116.9,73.6,116.8,73.6,116.6,73.5z"/>
		<path class="st5" d="M127.5,80.7c-4.5-3.7-10.2-5.8-16.4-5.8c-6.3,0-12.4,2.3-17.1,6.5c-0.7,0.6-1.3,1.3-2,1.9
			c-0.2-0.2-0.4-0.4-0.6-0.6c0.5,0.5,1,1,1.5,1.6c-0.1-0.1-0.2-0.2-0.3-0.3c0.1,0.1,0.2,0.2,0.3,0.3c3.9-4.3,9.3-6.8,15.3-6.8
			c7.2,0,13.8,3.7,17.5,9.8c1.5-0.9,3.2-1.6,4.9-2C129.8,83.6,128.7,82.1,127.5,80.7z"/>
		<path class="st5" d="M89.2,80.6c0.6,0.5,1.2,1,1.8,1.6C90.4,81.7,89.8,81.1,89.2,80.6z"/>
		<path class="st5" d="M115,73c0.1,0,0.1,0,0.2,0.1C115.1,73.1,115.1,73,115,73z"/>
		<path class="st5" d="M113.1,72.6c0.2,0,0.3,0.1,0.5,0.1C113.4,72.7,113.3,72.6,113.1,72.6z"/>
		<path class="st5" d="M111.5,72.3c0.2,0,0.4,0,0.6,0.1C111.9,72.4,111.7,72.4,111.5,72.3z"/>
	</g>
	<g>
		<path class="st6" d="M76.4,74.5c0.1,0,0.2,0,0.2,0.1C76.5,74.6,76.4,74.5,76.4,74.5z"/>
		<path class="st6" d="M93.2,70.6c-1.3-0.7-2.8-1.1-4.4-1.2c-0.8-0.1-1.5,0-2.3,0.1C83,69.9,79.9,72,78.2,75
			c2.2,0.6,4.4,1.5,6.4,2.6c0.9-1.1,1.9-2.1,3-3c1.9-1.7,4-3.1,6.2-4.3C93.6,70.4,93.4,70.5,93.2,70.6z"/>
	</g>
	<g>
		<path class="st6" d="M107.9,93.5c0.4,0,0.8,0,1.2,0.1C108.7,93.5,108.3,93.5,107.9,93.5z"/>
		<path class="st6" d="M114.1,95.4c0.3,0.2,0.5,0.4,0.8,0.6C114.6,95.8,114.3,95.6,114.1,95.4z"/>
		<path class="st6" d="M115.9,97.1c0.2,0.2,0.4,0.5,0.6,0.7C116.3,97.6,116.1,97.4,115.9,97.1z"/>
		<path class="st6" d="M115.7,96.9c-0.2-0.2-0.4-0.4-0.6-0.6C115.3,96.5,115.5,96.7,115.7,96.9z"/>
		<path class="st6" d="M112.9,94.7c0.3,0.2,0.7,0.4,1,0.6C113.6,95.1,113.3,94.9,112.9,94.7z"/>
		<path class="st6" d="M109.5,93.6c0.3,0,0.6,0.1,0.8,0.2C110.1,93.7,109.8,93.6,109.5,93.6z"/>
		<path class="st6" d="M111.9,94.2c0.3,0.1,0.6,0.3,0.9,0.4C112.5,94.5,112.2,94.4,111.9,94.2z"/>
		<path class="st6" d="M116.6,98c-1.7-1.1-3.7-1.8-5.8-1.8c-0.7,0-1.4,0.1-2.1,0.2c-4,0.8-7.2,4.2-8.2,7.8h18.1c0,0,0-0.1,0-0.1
			C118.5,101.8,117.8,99.7,116.6,98z"/>
		<path class="st6" d="M110.7,93.9c0.3,0.1,0.5,0.2,0.8,0.2C111.3,94,111,93.9,110.7,93.9z"/>
	</g>
	<g>
		<path class="st7" d="M48.1,125.9c-0.2-0.1-0.3-0.3-0.5-0.4C47.8,125.6,48,125.8,48.1,125.9z"/>
		<path class="st7" d="M47.1,125c-0.1-0.1-0.3-0.2-0.4-0.3C46.8,124.7,46.9,124.9,47.1,125z"/>
		<path class="st7" d="M49.1,126.7c-0.2-0.1-0.3-0.3-0.5-0.4C48.8,126.4,48.9,126.6,49.1,126.7z"/>
		<path class="st7" d="M44.3,122.3c0.1,0.1,0.3,0.3,0.4,0.4C44.6,122.6,44.4,122.5,44.3,122.3z"/>
		<path class="st7" d="M43.6,121.6c-0.1-0.1-0.2-0.2-0.3-0.3C43.4,121.4,43.5,121.5,43.6,121.6z"/>
		<path class="st7" d="M45.7,123.7c-0.1-0.1-0.2-0.2-0.3-0.3C45.5,123.5,45.6,123.6,45.7,123.7z"/>
		<path class="st7" d="M51.4,128.4c-0.6-0.4-1.3-0.9-1.9-1.4C50.2,127.5,50.8,128,51.4,128.4z"/>
		<path class="st7" d="M159,112.4c0.2-0.3,0.4-0.5,0.5-0.7C159.3,111.9,159.1,112.2,159,112.4z"/>
		<path class="st7" d="M158.1,113.7c0.2-0.3,0.4-0.5,0.6-0.8C158.5,113.1,158.3,113.4,158.1,113.7z"/>
		<path class="st7" d="M52.3,128.9c-0.2-0.1-0.4-0.3-0.6-0.4C51.9,128.7,52.1,128.8,52.3,128.9z"/>
		<path class="st7" d="M159.9,111.1c0.1-0.2,0.2-0.4,0.4-0.5C160.1,110.8,160,111,159.9,111.1z"/>
		<path class="st7" d="M55.2,130.3c-0.8-0.3-1.7-0.7-2.7-1.3C53.4,129.6,54.3,130,55.2,130.3z"/>
		<path class="st7" d="M41.1,113.6c1.7,2.9,4.5,6.7,8.1,10.7c2.1,2.3,4.1,4.1,6,5.7c1,0.4,1.9,0.5,2.7,0.5h79.2
			c3.7,0,9.5-4,15.7-10.8c1.9-2.1,3.6-4.3,5-6.1L41.1,113.6L41.1,113.6z"/>
	</g>
</g>
</svg>
