<?xml version="1.0" encoding="utf-8"?>
<!-- Generator: Adobe Illustrator 22.0.1, SVG Export Plug-In . SVG Version: 6.00 Build 0)  -->
<svg version="1.1" id="Calque_1" xmlns="http://www.w3.org/2000/svg" xmlns:xlink="http://www.w3.org/1999/xlink" x="0px" y="0px"
	 viewBox="0 0 200 200" style="enable-background:new 0 0 200 200;" xml:space="preserve">
<style type="text/css">
	.st0{fill:#D8C3DF;}
	.st1{fill:#FFFFFF;}
	.st2{fill:none;stroke:#010101;stroke-miterlimit:10;}
	.st3{fill:#73C7AC;}
	.st4{fill:#FED5A1;}
	.st5{fill:#010101;}
</style>
<g id="XMLID_1_">
	<g>
		<path class="st0" d="M172.1,16.1c6.6,0,12,5.4,12,12V172c0,6.6-5.4,12-12,12H28.2c-6.6,0-12-5.4-12-12V28.1c0-6.6,5.4-12,12-12
			H172.1z"/>
		<path class="st1" d="M184.1,28.1c0-6.6-5.4-12-12-12H28.2c-6.6,0-12,5.4-12,12V172c0,6.6,5.4,12,12,12h143.9c6.6,0,12-5.4,12-12
			L184.1,28.1L184.1,28.1z M18.4,6.4h163.1c6.6,0,12,5.4,12,12v163.1c0,6.6-5.4,12-12,12H18.4c-6.6,0-12-5.4-12-12V18.4
			C6.4,11.8,11.8,6.4,18.4,6.4z"/>
	</g>
	<g>
		<path class="st2" d="M172.1,183.9H28.2c-6.6,0-12-5.4-12-12V28.1c0-6.6,5.4-12,12-12h143.9c6.6,0,12,5.4,12,12V172
			C184.1,178.5,178.7,183.9,172.1,183.9z"/>
		<path class="st2" d="M181.6,193.6H18.4c-6.6,0-12-5.4-12-12V18.4c0-6.6,5.4-12,12-12h163.1c6.6,0,12,5.4,12,12v163.1
			C193.6,188.2,188.2,193.6,181.6,193.6z"/>
	</g>
</g>
<g>
	<path class="st3" d="M116.4,81.4C116.4,81.4,116.4,81.4,116.4,81.4c1.5,0,2.7,1.2,2.7,2.7c0,3.2,0.5,6.3,1.4,9.1
		c1.6-2.4,2.7-4.5,3.1-6.3c0.5-2.1,0.2-4.6-4.8-8.5c-2.8-2.2-5.1-3.3-7-3.3c-3.8,0-7.5,4.4-13.2,11.6c-5.2,6.6-7.4,11-7,14.3
		c0.3,2.1,1.7,4.1,4.4,6.3c2.5,2,4.5,2.9,6.4,2.9c3.4,0,7.3-3,12.9-10.2c0.4-0.5,0.8-1.1,1.3-1.6c-2-4.2-3.1-9.1-3.1-14.2
		C113.7,82.6,114.9,81.4,116.4,81.4z"/>
	<path class="st4" d="M135.2,63.2v7.3c2.6-0.7,4.9-2.4,6.2-4.8c0.5-0.8,0.8-1.6,1-2.5H135.2z"/>
	<path class="st3" d="M126.8,69.2c0.1,0.1,0.3,0.2,0.4,0.3c0.2,0.1,0.4,0.2,0.6,0.3c0.2,0.1,0.4,0.2,0.6,0.3c0,0,0,0,0,0
		c0.4,0.2,0.8,0.3,1.3,0.4v-10c0-1.5,1.2-2.7,2.7-2.7h10c-0.7-2.6-2.4-4.9-4.8-6.2c-1.6-0.9-3.4-1.4-5.2-1.4c-3.7,0-7.1,2-9,5.2
		c-1.4,2.4-1.8,5.2-1.1,7.9C123.1,65.6,124.6,67.8,126.8,69.2z"/>
	<path class="st5" d="M126.9,150h-12.5c-1.5,0-2.7,1.2-2.7,2.7s1.2,2.7,2.7,2.7h12.5c1.5,0,2.7-1.2,2.7-2.7
		C129.7,151.2,128.5,150,126.9,150z"/>
	<path class="st5" d="M139.2,107C139.2,107,139.2,107,139.2,107c-5.2,0.2-9.8-1.5-13.3-5c-1-1-1.9-2.1-2.7-3.3c3-4,5.1-7.4,5.8-10.7
		c1.4-6.6-3.2-11.1-6.8-14c-3.8-3-7.1-4.4-10.3-4.4c-1.3,0-2.5,0.2-3.6,0.6c-3.9-4-8.4-6.8-13.4-8c-6-1.4-12-0.5-17.4,2.7
		c-1.3,0.8-1.7,2.4-1,3.7c0.8,1.3,2.4,1.7,3.7,1c7.6-4.5,16.4-3.1,23.2,3.5c-2.8,2.4-5.6,5.8-9,10.2c-6.4,8.1-8.7,13.4-8.1,18.3
		c0.2,1.4,0.6,2.8,1.3,4c-1.7,4.5-9.6,22.1-33.4,28.6c-1.2,0.3-2,1.4-2,2.6v8.2c0,1.5,1.2,2.7,2.7,2.7c1.5,0,2.7-1.2,2.7-2.7v-6.2
		c14.5-4.5,23.3-12.8,28.2-19.1c2.7-3.6,4.6-6.9,5.7-9.4c0.4,0.4,0.8,0.7,1.3,1.1c3.2,2.5,6.1,3.8,9.1,4c0,0,0.1,0,0.1,0
		c7.2,0.7,12.5,3.8,15,8.8c2.7,5.4,1.7,12.3-2.7,19.3c-0.5,0.8-0.6,1.9-0.1,2.8c0.5,0.9,1.4,1.4,2.4,1.4h8.2c1.5,0,2.7-1.2,2.7-2.7
		s-1.2-2.7-2.7-2.7h-3.7c3.4-7.3,3.6-14.6,0.7-20.5c-2.1-4.3-5.9-7.6-10.7-9.7c2.6-2,5.4-4.9,8.6-9c0.7,1,1.5,1.9,2.4,2.7
		c4.4,4.3,10,6.5,16.2,6.5c0.3,0,0.6,0,0.9,0c1.5-0.1,2.7-1.3,2.6-2.8C141.9,108.1,140.7,107,139.2,107z M116.7,98.3
		c-0.4,0.5-0.8,1-1.3,1.6c-5.6,7.1-9.5,10.2-12.9,10.2c-1.9,0-3.9-0.9-6.4-2.9c-2.8-2.2-4.2-4.2-4.4-6.3c-0.4-3.2,1.8-7.6,7-14.3
		c5.7-7.2,9.4-11.6,13.2-11.6c1.9,0,4.2,1.1,7,3.3c5,3.9,5.3,6.4,4.8,8.5c-0.4,1.8-1.5,3.9-3.1,6.3c-0.9-2.8-1.4-5.9-1.4-9.1
		c0-1.5-1.2-2.7-2.7-2.7c0,0,0,0,0,0c-1.5,0-2.7,1.2-2.7,2.7C113.6,89.2,114.7,94.1,116.7,98.3z"/>
	<path class="st5" d="M47.2,132c-1.5,0-2.7,1.2-2.7,2.7v12.5c0,1.5,1.2,2.7,2.7,2.7c1.5,0,2.7-1.2,2.7-2.7v-12.5
		C50,133.2,48.7,132,47.2,132z"/>
	<path class="st5" d="M148.3,60.4c0-1.3-0.2-2.7-0.5-4c-0.9-3.4-2.9-6.4-5.6-8.5c0,0,0,0-0.1,0c-0.2-0.1-0.3-0.3-0.5-0.4
		c-0.1-0.1-0.2-0.2-0.4-0.2c-0.1,0-0.1-0.1-0.2-0.1c-0.2-0.1-0.4-0.2-0.6-0.4c-2.4-1.4-5.1-2.1-7.9-2.1c-5.6,0-10.9,3-13.7,7.9
		c-2.1,3.7-2.7,7.9-1.6,12c0.1,0.5,0.3,1,0.5,1.5c0.3,0.7,0.6,1.4,1,2.1c1.4,2.5,3.4,4.5,5.9,6c2.4,1.4,5.2,2.1,7.9,2.1
		c5.6,0,10.9-3,13.7-7.9C147.6,66,148.3,63.2,148.3,60.4C148.3,60.5,148.3,60.5,148.3,60.4C148.3,60.5,148.3,60.5,148.3,60.4z
		 M135.2,70.5v-7.3h7.3c-0.2,0.9-0.6,1.7-1,2.5C140,68,137.8,69.8,135.2,70.5z M123.5,55.3c1.8-3.2,5.3-5.2,9-5.2
		c1.8,0,3.6,0.5,5.2,1.4c2.4,1.4,4.1,3.6,4.8,6.2h-10c-1.5,0-2.7,1.2-2.7,2.7v10c-0.4-0.1-0.9-0.3-1.3-0.4c0,0,0,0,0,0
		c-0.2-0.1-0.4-0.2-0.6-0.3c-0.2-0.1-0.4-0.2-0.6-0.3c-0.1-0.1-0.3-0.2-0.4-0.3c-2.2-1.4-3.7-3.5-4.4-6
		C121.7,60.4,122.1,57.7,123.5,55.3z"/>
</g>
</svg>
