<svg id="Calque_1" data-name="Calque 1" xmlns="http://www.w3.org/2000/svg" viewBox="0 0 391.81 562.78"><defs><style>.cls-1,.cls-14,.cls-27{fill:#aebeb3;}.cls-1,.cls-10,.cls-2,.cls-25,.cls-26,.cls-27,.cls-3,.cls-4,.cls-5,.cls-6,.cls-8,.cls-9{stroke:#231f20;}.cls-1,.cls-10,.cls-13,.cls-2,.cls-25,.cls-26,.cls-27,.cls-3,.cls-4,.cls-5,.cls-6,.cls-8,.cls-9{stroke-miterlimit:10;}.cls-1{stroke-width:3px;}.cls-2{fill:#f15a29;}.cls-3{fill:#f9ed32;stroke-width:0.5px;}.cls-11,.cls-4{fill:#fff;}.cls-19,.cls-5{fill:#00aeef;}.cls-6{fill:#ed1c24;}.cls-17,.cls-18,.cls-20,.cls-22,.cls-26,.cls-7{fill:#231f20;}.cls-8{fill:#21409a;}.cls-9{fill:#603913;}.cls-10{fill:#fdbc5a;}.cls-11{font-size:38px;font-family:ArialRoundedMTBold, Arial Rounded MT Bold;}.cls-12{letter-spacing:-0.01em;}.cls-13,.cls-25{fill:none;}.cls-13{stroke:#fff;stroke-width:4px;}.cls-15{fill:#da1c5c;}.cls-16{fill:#00a651;}.cls-17{font-size:16.68px;}.cls-17,.cls-18,.cls-20,.cls-22{font-family:AbadiMT-CondensedExtraBold, Abadi MT Condensed Extra Bold;}.cls-18{font-size:12.77px;}.cls-20{font-size:13.16px;}.cls-21{fill:#7f3f98;}.cls-22{font-size:10.8px;}.cls-23{letter-spacing:-0.03em;}.cls-24{letter-spacing:-0.05em;}</style></defs><title>drapeaux</title><rect class="cls-1" x="1.5" y="1.5" width="388.81" height="559.78" rx="12" ry="12"/><path class="cls-2" d="M126.31,451.24S64.5,264.24,47.5,244c0,0,5-10.77,15.33-9.19,0,0,61.32,117.56,79.17,211.88C142,446.65,139.05,457.18,126.31,451.24Z" transform="translate(-20.78 -34.12)"/><path class="cls-3" d="M65.12,276.57s4-9,14.15-5.35l29.3,73.32s-2.66,7.25-13.75,5.49Z" transform="translate(-20.78 -34.12)"/><path class="cls-4" d="M80.38,268.71s50.56-42.78,65.72-31.89c0,0,13.37,17.21,22.63,46.26s11.53,36,11.53,36-10.58-7.62-20.31,1.09-44.73,35.93-44.73,35.93Z" transform="translate(-20.78 -34.12)"/><path class="cls-5" d="M91.27,296s47.73-37.42,59.36-35.46,10.63,2.72,10.63,2.72l9.18,23.59s-8.05-6.44-24.75,7.28-41.17,32.78-41.17,32.78Z" transform="translate(-20.78 -34.12)"/><path class="cls-6" d="M115.18,354.94l-10.85-28s52-51.11,64.75-39.93l10.38,31.24s-9.29-9-45.17,22.71Z" transform="translate(-20.78 -34.12)"/><polygon class="cls-4" points="144.62 239.41 151.89 261.3 192.8 229.72 184.41 210.47 144.62 239.41"/><polygon class="cls-5" points="151.89 261.3 159.65 286.38 200.73 255.65 192.8 229.72 151.89 261.3"/><path class="cls-6" d="M232.66,316.93l-48,40.38s-13,7.81-11.89-9c0,0,13-18.84,7.64-27.77l41.08-30.72Z" transform="translate(-20.78 -34.12)"/><path class="cls-7" d="M172.16,350.6s.45-8.76-2-16-7.77-14.39-7.77-14.39,15.43-5.24,17.35-2a18.62,18.62,0,0,1,0,17.7C175.88,343.05,171.89,347.42,172.16,350.6Z" transform="translate(-20.78 -34.12)"/><polygon class="cls-8" points="297.52 302.58 300.73 315.51 311.59 318.86 358.86 297.25 354.12 272.08 309.15 290.44 297.52 302.58"/><path class="cls-9" d="M230.11,355.67s13.08-5.64,17.2-5.64,39.65-.89,40.83,0,16.58,9.17,9.48,11.54-13.58,1.65-21,.53-31.47-.53-37.07-.53S226.56,361,230.11,355.67Z" transform="translate(-20.78 -34.12)"/><path class="cls-10" d="M329.92,385.05s21.31-6.56,22,33.48S349.94,507,349.94,507l-16.12,2.9Z" transform="translate(-20.78 -34.12)"/><path class="cls-10" d="M307.37,389.47l1.56,129.17s24.54-2.8,24.87-6.4-2.26-117-2.26-117-1.62-9.68-15.5-6.13S307.37,389.47,307.37,389.47Z" transform="translate(-20.78 -34.12)"/><path class="cls-10" d="M308.35,387.17,175.71,372.64,211,363.92a66,66,0,0,0,13.92,1.29c6.14-.32,22.75-1,25.64.32s9.53,2.59,16.14,2.59,24.63,2.17,24.63,2.17,14.47,7.51,17,7.51,7.94,1.3,14.44.65,22.39,1.94,22.39,1.94l-10.47,5.13Z" transform="translate(-20.78 -34.12)"/><polygon class="cls-10" points="286.59 359.22 285.9 486.13 155.69 458.49 150.96 340.49 286.59 355.35 286.59 359.22"/><text class="cls-11" transform="translate(105.56 76.4)"><tspan class="cls-12">T</tspan><tspan x="23.25" y="0">OUR DU</tspan><tspan x="15.98" y="45.6">MONDE</tspan></text><rect class="cls-13" x="54.6" y="34.49" width="277.23" height="105.52" rx="12" ry="12"/><path class="cls-14" d="M175.2,470.65" transform="translate(-20.78 -34.12)"/><polygon class="cls-15" points="163.37 431.79 177.06 450.21 226.53 407.58 215.48 388.63 163.37 431.79"/><polygon class="cls-16" points="186 391.79 189.16 353.37 157.58 375.48 186 391.79"/><text class="cls-17" transform="translate(179.34 440.72) rotate(-39.61)">LONDON</text><text class="cls-18" transform="translate(173.37 381.99) rotate(-39.61)">N.Y</text><polygon class="cls-19" points="243.73 361.3 230.26 373.39 267.35 409.15 281.43 399.09 243.73 361.3"/><text class="cls-20" transform="translate(237.89 374.49) rotate(45.1)">BERLIN</text><ellipse class="cls-21" cx="249.41" cy="442.82" rx="20.34" ry="18.89"/><text class="cls-22" transform="translate(238.97 452.71) rotate(-22.74) scale(1.03 1)"><tspan class="cls-23">T</tspan><tspan x="4.87" y="0">OK</tspan><tspan class="cls-24" x="16.01" y="0">Y</tspan><tspan x="20.9" y="0">O</tspan></text><path class="cls-9" d="M172.49,397.56s2.3-11.68,7.13-14.14S191.71,377,191.71,377s-2.52-4.92-9.61-4.3C182.1,372.66,170,367.12,172.49,397.56Z" transform="translate(-20.78 -34.12)"/><path class="cls-9" d="M175.2,470.65s6.18,8.28,11.34,16.19l5.17,7.9s-13.32,1.94-16.51-3.55S169.35,478.53,175.2,470.65Z" transform="translate(-20.78 -34.12)"/><path class="cls-9" d="M291.42,387.51s3.33,7,7.54,11.31,7.08,17.26,10.63,13.3,3.68-5.78,8.87-14.23l5.19-8.46s-9.34-3.57-15.31-2.45S291.42,387.51,291.42,387.51Z" transform="translate(-20.78 -34.12)"/><path class="cls-9" d="M290.53,517.31s18.72-12.31,19.05-12.59,10,11.16,14.53,10.87C324.11,515.59,311.85,528.75,290.53,517.31Z" transform="translate(-20.78 -34.12)"/><line class="cls-25" x1="299.33" y1="362.14" x2="309.79" y2="359.16"/><line class="cls-25" x1="295.91" y1="367.94" x2="311.59" y2="363.44"/><line class="cls-25" x1="290.69" y1="374.96" x2="311.59" y2="368.54"/><line class="cls-25" x1="287.04" y1="381.21" x2="311.05" y2="374.2"/><line class="cls-25" x1="286.59" y1="385.22" x2="311.59" y2="379.51"/><line class="cls-25" x1="287.07" y1="391.86" x2="312.08" y2="384.61"/><line class="cls-25" x1="287.07" y1="396.34" x2="311.59" y2="389.86"/><line class="cls-25" x1="287.24" y1="401.59" x2="311.59" y2="394.07"/><line class="cls-25" x1="287.24" y1="405.96" x2="313.05" y2="398.87"/><line class="cls-25" x1="287.9" y1="411.72" x2="313.54" y2="405.96"/><line class="cls-25" x1="287.24" y1="418.31" x2="313.05" y2="411.72"/><line class="cls-25" x1="287.42" y1="423.93" x2="313.05" y2="416.74"/><line class="cls-25" x1="287.49" y1="429.67" x2="313.54" y2="421.85"/><line class="cls-25" x1="288.41" y1="435.03" x2="311.59" y2="428.14"/><line class="cls-25" x1="288.41" y1="439.68" x2="313.05" y2="432.51"/><line class="cls-25" x1="289.22" y1="444.43" x2="313.05" y2="438.21"/><line class="cls-25" x1="287.9" y1="451.83" x2="312.53" y2="443.62"/><line class="cls-25" x1="288.74" y1="456.85" x2="312.79" y2="449.47"/><line class="cls-25" x1="288.74" y1="463.32" x2="311.59" y2="456.85"/><line class="cls-25" x1="288.41" y1="470.59" x2="312.86" y2="461.71"/><line class="cls-25" x1="297.2" y1="476.83" x2="312.86" y2="469.84"/><polygon class="cls-7" points="183.57 330.76 179.34 340.1 193.35 344.46 193.35 337.61 184.46 337.61 190.68 330.76 183.57 330.76"/><polygon class="cls-7" points="192.68 342.68 189.31 342.96 195.24 330.94 200.59 330.24 192.68 342.68"/><line class="cls-26" x1="208.76" y1="339.94" x2="260.57" y2="345.2"/><line class="cls-25" x1="214.96" y1="341.42" x2="213.18" y2="326.91"/><line class="cls-25" x1="255.84" y1="345.93" x2="260.58" y2="327.98"/><line class="cls-25" x1="272.63" y1="346.2" x2="276.29" y2="332.05"/><path class="cls-25" d="M235.74,353s35.57,3,40.88,2.66,13.91-1.32,13.91-1.32l3-1.34" transform="translate(-20.78 -34.12)"/><path class="cls-25" d="M320.24,343.35S314,340,312.8,344s.35,11.83-3.06,15.37-5.68,7.05-13.82,7.83" transform="translate(-20.78 -34.12)"/><circle class="cls-26" cx="306.45" cy="307.02" r="2.69"/><line class="cls-27" x1="309.15" y1="290.44" x2="315.34" y2="317.09"/><path class="cls-9" d="M339.66,509s9.17-11.16,10.25-15.31,3,17.26-2.63,16.52S339.66,509,339.66,509Z" transform="translate(-20.78 -34.12)"/><path class="cls-9" d="M321.54,385.74s25.67-8.49,26.37-5.91,2.09,27,2.09,27S338.55,388.3,321.54,385.74Z" transform="translate(-20.78 -34.12)"/><path class="cls-7" d="M333.64,422.36s13.92-5.05,18.24-3.83-.59,18-.59,18a5.87,5.87,0,0,0,2.37,6.43c3.64,2.66,9.08,18.39,9.63,26.18,0,0-6.77-3.79-10.19-3.44s-19.54-3.44-19.54-3.44l-1.2-39.91" transform="translate(-20.78 -34.12)"/><line class="cls-25" x1="311.05" y1="368.9" x2="321.66" y2="363.44"/><line class="cls-25" x1="311.5" y1="374.85" x2="326.19" y2="368.54"/><line class="cls-25" x1="311.05" y1="378.86" x2="329.22" y2="372.75"/><line class="cls-25" x1="311.53" y1="385.5" x2="331.05" y2="378.24"/><line class="cls-25" x1="311.21" y1="448.61" x2="330.41" y2="442.71"/><line class="cls-25" x1="312.32" y1="454.86" x2="330.21" y2="448.61"/><line class="cls-25" x1="311.87" y1="458.87" x2="330.21" y2="453.16"/><line class="cls-25" x1="312.35" y1="465.51" x2="329.22" y2="458.25"/><line class="cls-25" x1="312.32" y1="433.52" x2="336.34" y2="426.51"/><line class="cls-25" x1="311.87" y1="437.53" x2="331.05" y2="433.52"/><line class="cls-25" x1="312.35" y1="444.17" x2="330.57" y2="437.53"/><line class="cls-25" x1="313.03" y1="471.19" x2="324.33" y2="467.57"/><line class="cls-25" x1="311.05" y1="363.38" x2="317.81" y2="359.9"/></svg>