<?xml version="1.0" encoding="utf-8"?>
<!-- Generator: Adobe Illustrator 22.0.1, SVG Export Plug-In . SVG Version: 6.00 Build 0)  -->
<svg version="1.1" id="Calque_1" xmlns="http://www.w3.org/2000/svg" xmlns:xlink="http://www.w3.org/1999/xlink" x="0px" y="0px"
	 viewBox="0 0 200 200" style="enable-background:new 0 0 200 200;" xml:space="preserve">
<style type="text/css">
	.st0{fill:#F9BCC4;}
	.st1{fill:#FFFFFF;}
	.st2{fill:none;stroke:#000000;stroke-miterlimit:10;}
	.st3{fill:#CE3927;}
	.st4{fill:#FDD44B;}
	.st5{fill:#CF5A3F;}
	.st6{fill:#EE8826;}
	.st7{fill:#85BD94;}
	.st8{fill:#402E21;}
</style>
<g id="XMLID_1_">
	<g>
		<path class="st0" d="M172.1,16.1c6.6,0,12,5.4,12,12v143.9c0,6.6-5.4,12-12,12H28.2c-6.6,0-12-5.4-12-12V28.1c0-6.6,5.4-12,12-12
			H172.1z"/>
		<path class="st1" d="M184.1,28.1c0-6.6-5.4-12-12-12H28.2c-6.6,0-12,5.4-12,12v143.9c0,6.6,5.4,12,12,12h143.9c6.6,0,12-5.4,12-12
			V28.1z M18.4,6.4h163.1c6.6,0,12,5.4,12,12v163.1c0,6.6-5.4,12-12,12H18.4c-6.6,0-12-5.4-12-12V18.4C6.4,11.8,11.8,6.4,18.4,6.4z"
			/>
	</g>
	<g>
		<path class="st2" d="M172.1,183.9H28.2c-6.6,0-12-5.4-12-12V28.1c0-6.6,5.4-12,12-12h143.9c6.6,0,12,5.4,12,12v143.9
			C184.1,178.5,178.7,183.9,172.1,183.9z"/>
		<path class="st2" d="M181.6,193.6H18.4c-6.6,0-12-5.4-12-12V18.4c0-6.6,5.4-12,12-12h163.1c6.6,0,12,5.4,12,12v163.1
			C193.6,188.2,188.2,193.6,181.6,193.6z"/>
	</g>
</g>
<polygon class="st3" points="136.5,157.4 136.5,157.2 136.2,157.4 "/>
<g>
	<g>
		<path class="st4" d="M74.4,85.1c0.1-0.3,0.2-0.5,0.4-0.8C74.6,84.6,74.5,84.8,74.4,85.1z"/>
		<path class="st4" d="M75.2,83.5c0.1-0.2,0.3-0.4,0.4-0.6C75.5,83.1,75.3,83.3,75.2,83.5z"/>
		<path class="st4" d="M73.8,86.8c0.1-0.3,0.2-0.7,0.3-1C74,86.1,73.9,86.4,73.8,86.8z"/>
		<path class="st4" d="M73.3,89c0.1-0.6,0.2-1.1,0.3-1.6C73.5,87.9,73.4,88.4,73.3,89z"/>
		<path class="st4" d="M73,89.9C73,89.9,73,89.9,73,89.9C73,89.9,73,89.9,73,89.9z"/>
		<path class="st4" d="M80.4,78.3c-0.1,0.1-0.3,0.2-0.4,0.3c0.3-0.2,0.6-0.4,0.9-0.6c4.1-2.5,9.3-3.5,14.6-2.8
			c5.3,0.6,10,2.9,13.4,6.3c3.6,3.6,5.2,8,4.7,12.5c-0.3,2.5-1.3,4.4-2.9,5.6c-1.4,1-3,1.3-4.8,1.3c-1.9,0-4.1-0.4-6.4-0.9
			c0,1.2,0.3,3.1,1.3,5.7c0.7,1.3,3.9,7.7,0.9,12.1c-1.6,2.4-4.5,3.4-8.7,3.6c-1.1,0.1-3.3-0.2-3.3-0.2c-5.8-0.7-9.4-2.8-10.6-6.2
			c-1.8-5.1,2.8-10.5,3.8-11.6c1.6-2.3,2.3-4,2.6-5.2c-4.6-0.2-8.5-0.5-10.8-3.2c-0.6-0.8-1-1.6-1.3-2.6v0l-11.2,22.8
			c1.5-0.7,3.1-1.1,4.8-1.1c3.3,0,6.4,1.5,8.4,4.1c1.7,2.2,2.5,5,2.2,7.8c-0.3,2.8-1.8,5.3-4,7.1c-1.9,1.5-4.1,2.2-6.5,2.2
			c-3.3,0-6.3-1.5-8.4-4.1c-1.1-1.4-1.8-3-2.1-4.6c0,0,0,0,0,0.1L48.6,143l87.8-18.9c0.3-10.7-6.3-26.2-17.1-40
			c-9.1-11.7-20.1-20.7-29.6-24.7L80.4,78.3z M125,100.3c1.3,0.1,2.3,1.1,2.5,2.4c1.1,9.8-3.2,18.8-11.5,24c-0.4,0.3-1,0.4-1.5,0.4
			c-0.7,0-1.5-0.3-2-0.9l-6.6-7c-0.6-0.6-0.8-1.4-0.7-2.2c0.1-0.8,0.6-1.5,1.3-2c4.4-2.8,6.6-7.4,6-12.6c-0.1-0.8,0.2-1.6,0.8-2.2
			c0.6-0.6,1.4-0.9,2.2-0.8L125,100.3z"/>
		<path class="st4" d="M56.5,125.1c0,0.1,0,0.1,0,0.2C56.5,125.2,56.5,125.1,56.5,125.1z"/>
		<path class="st4" d="M77.8,80.3c-0.2,0.2-0.3,0.3-0.5,0.5C77.5,80.7,77.6,80.5,77.8,80.3z"/>
		<path class="st4" d="M76.2,82.1c0.1-0.2,0.3-0.4,0.4-0.6C76.5,81.7,76.3,81.9,76.2,82.1z"/>
		<path class="st4" d="M79.1,79.2c-0.2,0.1-0.4,0.3-0.5,0.4C78.8,79.5,78.9,79.3,79.1,79.2z"/>
		<path class="st4" d="M61.4,115.7C61.4,115.7,61.4,115.7,61.4,115.7C61.4,115.7,61.4,115.7,61.4,115.7z"/>
		<path class="st4" d="M88.8,59c0.2,0.1,0.4,0.1,0.6,0.2C89.1,59.2,89,59.1,88.8,59z"/>
		<path class="st4" d="M86.8,58.3c0.1,0,0.3,0.1,0.4,0.1C87,58.4,86.9,58.4,86.8,58.3z"/>
		<path class="st4" d="M56.5,123.9c0-0.1,0-0.2,0-0.3C56.5,123.7,56.5,123.8,56.5,123.9z"/>
		<path class="st4" d="M59.5,117.2c-0.1,0.1-0.2,0.2-0.3,0.3C59.3,117.4,59.4,117.3,59.5,117.2z"/>
		<path class="st4" d="M57.6,119.8c0-0.1,0.1-0.2,0.1-0.2C57.7,119.7,57.6,119.8,57.6,119.8z"/>
		<path class="st4" d="M58.4,118.5c0.1-0.1,0.1-0.1,0.2-0.2C58.5,118.4,58.5,118.4,58.4,118.5z"/>
		<path class="st4" d="M57.1,121.1c0-0.1,0.1-0.2,0.1-0.3C57.1,120.9,57.1,121,57.1,121.1z"/>
	</g>
	<g>
		<path class="st4" d="M105.4,50.7c0.6,0.4,1.2,0.8,1.8,1.2C106.6,51.5,106,51.1,105.4,50.7z"/>
		<path class="st4" d="M101.9,48.7c1.1,0.6,2.2,1.2,3.4,1.9C104.1,49.9,103,49.3,101.9,48.7z"/>
		<path class="st4" d="M100.2,47.9c0.5,0.2,1,0.5,1.5,0.7C101.2,48.4,100.7,48.1,100.2,47.9z"/>
		<path class="st4" d="M121.8,64.4c-2.2-2.3-4.3-4.3-6.4-6.2C117.5,60.1,119.6,62.1,121.8,64.4z"/>
		<path class="st4" d="M98.7,47.3c0.5,0.2,0.9,0.4,1.4,0.6C99.7,47.7,99.2,47.5,98.7,47.3z"/>
		<path class="st4" d="M111.3,54.8c1.3,1,2.7,2.2,4.1,3.4C113.9,57,112.6,55.8,111.3,54.8z"/>
		<path class="st4" d="M93.2,46.1c0.3,0,0.7,0,1.1,0.1C93.9,46.1,93.6,46.1,93.2,46.1z"/>
		<path class="st4" d="M107.3,51.9c1.3,0.9,2.6,1.8,3.9,2.8C109.9,53.7,108.6,52.8,107.3,51.9z"/>
		<path class="st4" d="M87.5,52.8c0.6,0.2,1.3,0.4,2,0.6C88.8,53.2,88.1,53,87.5,52.8z"/>
		<path class="st4" d="M91.4,54.2c-0.5-0.2-0.9-0.4-1.4-0.5C90.5,53.9,91,54,91.4,54.2z"/>
		<path class="st4" d="M148.4,105.5c-3.1-9.3-9.2-20-17.3-30.4c-3.1-4-6.2-7.6-9.3-10.7c-9.5-8.6-18.1-13-23.1-13
			c-1.1,0-2,0.2-2.7,0.6l-1.7,3.5c0,0,0,0,0,0c9.8,4.7,20.4,13.7,29.4,25.3c11.3,14.5,18.1,30.3,18.3,42.2l7-1.5
			C151.1,119.1,151,113.2,148.4,105.5z"/>
		<path class="st4" d="M97.2,46.7c0.4,0.1,0.9,0.3,1.3,0.5C98,47,97.6,46.9,97.2,46.7z"/>
		<path class="st4" d="M92.2,54.5c0.5,0.2,1,0.4,1.5,0.7C93.2,55,92.7,54.7,92.2,54.5z"/>
		<path class="st4" d="M95.8,46.4c0.4,0.1,0.7,0.2,1.1,0.3C96.6,46.6,96.2,46.5,95.8,46.4z"/>
		<path class="st4" d="M94.5,46.1c0.4,0,0.7,0.1,1.1,0.2C95.3,46.3,94.9,46.2,94.5,46.1z"/>
	</g>
	<g>
		<path class="st5" d="M67,119.5c0.2,0,0.5,0,0.7,0.1C67.5,119.5,67.3,119.5,67,119.5z"/>
		<path class="st5" d="M67.8,119.6c0.2,0,0.4,0.1,0.7,0.1C68.3,119.7,68,119.6,67.8,119.6z"/>
		<path class="st5" d="M68.2,129.6c-0.1,0-0.2,0.1-0.4,0.1C67.9,129.7,68.1,129.7,68.2,129.6z"/>
		<path class="st5" d="M71.1,121.5c-0.7-0.9-1.6-1.5-2.6-1.8c-0.6,0.2-1.2,0.5-1.7,0.9c-2.2,1.7-2.6,5-0.9,7.2
			c0.7,0.9,1.6,1.5,2.6,1.8c0.6-0.2,1.2-0.5,1.7-0.9c1.1-0.8,1.8-2.1,1.9-3.4C72.3,123.9,71.9,122.6,71.1,121.5z"/>
	</g>
	<g>
		<path class="st6" d="M79.2,91.8C79.2,91.7,79.2,91.7,79.2,91.8C79.2,91.7,79.2,91.7,79.2,91.8z"/>
		<path class="st6" d="M105.8,86.1c-2.3-1.6-5.1-2.6-8.1-3c-4-0.5-8,0.2-11.1,2.1c-2.9,1.7-4.6,4.2-5,7c0,0.1,0,0.1,0,0.2
			c-0.2,0-0.3,0-0.4-0.1c1.5,0.3,3.5,0.3,5.3,0.4c0.6,0,2,0.1,2,0.1c1.2,0.1,2.3,0.9,2.5,2.2c0.7,3.4-0.6,7.3-3.8,11.7
			c-0.1,0.1-0.1,0.2-0.2,0.3c-1.4,1.5-3.3,4.5-2.7,6.1c0.4,1.2,2.8,2.2,6.2,2.6c3.4,0.4,5.9,0,6.6-1c0.9-1.4-0.1-4.7-1.2-6.6
			c-0.1-0.1-0.1-0.2-0.2-0.3c-2-5.1-2.3-9.2-0.8-12.3c0.6-1.1,1.8-1.7,3-1.5c0,0,1.4,0.3,2,0.4c3.1,0.6,6.5,1.3,7.6,0.6
			c0.4-0.3,0.6-1.2,0.7-1.8C108.5,90.8,107.6,88.3,105.8,86.1z"/>
		<path class="st6" d="M79.5,91.9c-0.1,0-0.1,0-0.2-0.1C79.4,91.9,79.5,91.9,79.5,91.9z"/>
		<path class="st6" d="M81.1,92.4c-0.1,0-0.3,0-0.4-0.1C80.8,92.3,81,92.3,81.1,92.4z"/>
		<path class="st6" d="M80.7,92.3c-0.1,0-0.2,0-0.3-0.1C80.4,92.2,80.5,92.2,80.7,92.3z"/>
		<path class="st6" d="M79.9,92.1c-0.1,0-0.1,0-0.2-0.1C79.7,92,79.8,92,79.9,92.1z"/>
		<path class="st6" d="M80.2,92.2c-0.1,0-0.2,0-0.3-0.1C80.1,92.1,80.1,92.1,80.2,92.2z"/>
	</g>
	<path class="st7" d="M122.1,107.6l-2.5-0.2c-0.3,4.7-2.3,9.1-5.7,12.3l-1.9-2l2.9,3c4.8-3.8,7.4-9.1,7.3-15.2
		C122.2,106.3,122.2,107,122.1,107.6z"/>
	<path class="st8" d="M135.4,71.8c-14.5-18.6-31.5-31.2-42.2-31.2c-2.6,0-4.8,0.7-6.6,2.1c-0.3,0.3-0.6,0.6-0.8,0.9L35,147
		c-0.5,0.9-0.3,2.1,0.3,2.9c0.5,0.7,1.3,1.1,2.2,1.1c0.2,0,0.4,0,0.6-0.1l112.6-24.2c0.4-0.1,0.8-0.3,1.1-0.5
		C162.3,117.9,151.2,92,135.4,71.8z M85,57.8c10.4,2.5,23.6,12.6,34.3,26.3c10.8,13.9,17.4,29.3,17.1,40l-94,20.2L85,57.8z
		 M148.8,121.5l-7,1.5c-0.2-12-7-27.7-18.3-42.2c-11.2-14.3-24.7-24.7-36.2-27.9l3-6.2c0.7-0.4,1.6-0.6,2.7-0.6
		c7.6,0,23,10,37.9,29.1c8.1,10.3,14.2,21.1,17.3,30.4C151,113.2,151.1,119.1,148.8,121.5z"/>
	<path class="st8" d="M67,114c-2.4,0-4.6,0.8-6.5,2.2c-4.6,3.6-5.4,10.3-1.8,14.9c2,2.6,5.1,4.1,8.4,4.1c2.4,0,4.6-0.8,6.5-2.2
		c2.2-1.7,3.7-4.3,4-7.1c0.3-2.8-0.4-5.6-2.2-7.8C73.4,115.5,70.3,114,67,114z M72.1,125.3c-0.2,1.4-0.9,2.6-1.9,3.4
		c-0.9,0.7-2,1.1-3.2,1.1c-1.6,0-3.1-0.7-4.1-2c-1.7-2.2-1.3-5.5,0.9-7.2c0.9-0.7,2-1.1,3.2-1.1c1.6,0,3.1,0.7,4,2
		C71.9,122.6,72.3,123.9,72.1,125.3z"/>
	<path class="st8" d="M99.5,100c2.3,0.5,4.5,0.9,6.4,0.9c1.8,0,3.4-0.4,4.8-1.3c1.6-1.2,2.6-3,2.9-5.6c0.6-4.5-1.1-8.9-4.7-12.5
		c-3.4-3.4-8.2-5.6-13.4-6.3C90.2,74.5,85,75.5,80.9,78c-4.3,2.6-7,6.5-7.6,11c-0.3,2.5,0.2,4.6,1.5,6.1c2.2,2.7,6.2,2.9,10.7,3.2
		c-0.3,1.2-1,2.9-2.6,5.2c-1,1.1-5.6,6.5-3.8,11.6c1.2,3.4,4.8,5.5,10.6,6.2c0,0,2.2,0.3,3.3,0.2c4.1-0.2,7.1-1.2,8.7-3.6
		c3-4.5-0.1-10.8-0.9-12.1C99.8,103,99.5,101.2,99.5,100z M97.1,114.7c-0.7,1.1-3.2,1.5-6.6,1c-3.4-0.4-5.8-1.4-6.2-2.6
		c-0.6-1.6,1.3-4.6,2.7-6.1c0.1-0.1,0.2-0.2,0.2-0.3c3.2-4.4,4.5-8.3,3.8-11.7c-0.3-1.2-1.3-2.1-2.5-2.2c0,0-1.4-0.1-2-0.1
		c-3.1-0.1-6.7-0.3-7.5-1.3c-0.3-0.4-0.3-1.4-0.2-1.9c0.3-2.8,2.1-5.3,5-7c3.1-1.9,7-2.6,11.1-2.1c4,0.5,7.7,2.2,10.2,4.7
		c2.4,2.4,3.5,5.2,3.1,8c-0.1,0.5-0.2,1.5-0.7,1.8c-1,0.7-4.5,0-7.6-0.6c-0.6-0.1-2-0.4-2-0.4c-1.2-0.2-2.4,0.4-3,1.5
		c-1.5,3.1-1.2,7.2,0.8,12.3c0,0.1,0.1,0.2,0.2,0.3C96.9,110,98,113.3,97.1,114.7z"/>
	<path class="st8" d="M125,100.3l-9.6-0.8c-0.8-0.1-1.6,0.2-2.2,0.8c-0.6,0.6-0.8,1.4-0.8,2.2c0.6,5.2-1.6,9.8-6,12.6
		c-0.7,0.4-1.2,1.2-1.3,2c-0.1,0.8,0.2,1.6,0.7,2.2l6.6,7c0.5,0.6,1.3,0.9,2,0.9c0.5,0,1-0.1,1.5-0.4c8.3-5.2,12.6-14.2,11.5-24
		C127.4,101.4,126.3,100.4,125,100.3z M114.9,120.8l-2.9-3c3.6-3.3,5.8-7.7,6-12.6l4.2,0.3C122.3,111.7,119.7,117.1,114.9,120.8z"/>
</g>
</svg>
