<?xml version="1.0" encoding="utf-8"?>
<!-- Generator: Adobe Illustrator 22.0.1, SVG Export Plug-In . SVG Version: 6.00 Build 0)  -->
<svg version="1.1" id="Calque_1" xmlns="http://www.w3.org/2000/svg" xmlns:xlink="http://www.w3.org/1999/xlink" x="0px" y="0px"
	 viewBox="0 0 200 200" style="enable-background:new 0 0 200 200;" xml:space="preserve">
<style type="text/css">
	.st0{fill:#FFFFFF;}
	.st1{fill:#F9BCC4;}
	.st2{fill:none;stroke:#000000;stroke-miterlimit:10;}
	.st3{fill:#CE3927;}
	.st4{fill:#85BD94;}
	.st5{fill:#FDD44B;}
	.st6{fill:#402E21;}
</style>
<g id="XMLID_1_">
	<g>
		<path class="st0" d="M183.4,171.9V28.1c0-6.6-5.4-12-12-12H27.5c-6.6,0-12,5.4-12,12v143.9c0,6.6,5.4,12,12,12h143.9
			C178,183.9,183.4,178.5,183.4,171.9z M192.9,18.4v163.1c0,6.6-5.4,12-12,12H17.7c-6.6,0-12-5.4-12-12V18.4c0-6.6,5.4-12,12-12
			h163.1C187.5,6.4,192.9,11.8,192.9,18.4z"/>
		<path class="st1" d="M183.4,28.1v143.9c0,6.6-5.4,12-12,12H27.5c-6.6,0-12-5.4-12-12V28.1c0-6.6,5.4-12,12-12h143.9
			C178,16.1,183.4,21.5,183.4,28.1z"/>
	</g>
	<g>
		<path class="st2" d="M171.4,183.9H27.5c-6.6,0-12-5.4-12-12V28.1c0-6.6,5.4-12,12-12h143.9c6.6,0,12,5.4,12,12v143.9
			C183.4,178.5,178,183.9,171.4,183.9z"/>
		<path class="st2" d="M180.9,193.6H17.7c-6.6,0-12-5.4-12-12V18.4c0-6.6,5.4-12,12-12h163.1c6.6,0,12,5.4,12,12v163.1
			C192.9,188.2,187.5,193.6,180.9,193.6z"/>
	</g>
</g>
<polygon class="st3" points="135.8,157.4 135.8,157.2 135.5,157.4 "/>
<g>
	<g>
		<g>
			<path class="st4" d="M95.4,52.3C95.4,52.3,95.3,52.3,95.4,52.3C95.3,52.3,95.4,52.3,95.4,52.3z"/>
			<path class="st4" d="M94.9,51.9C94.9,51.9,94.9,51.9,94.9,51.9C94.9,51.9,94.9,51.9,94.9,51.9z"/>
			<path class="st4" d="M94.3,51.6c0,0,0.1,0,0.1,0.1C94.3,51.6,94.3,51.6,94.3,51.6z"/>
			<path class="st4" d="M96,53C96,53,96,53,96,53C96,53,96,53,96,53z"/>
			<path class="st4" d="M96.2,53.3C96.2,53.4,96.2,53.4,96.2,53.3C96.2,53.4,96.2,53.4,96.2,53.3z"/>
			<path class="st4" d="M93.6,51.3C93.6,51.3,93.6,51.3,93.6,51.3C93.6,51.3,93.6,51.3,93.6,51.3z"/>
			<path class="st4" d="M95.7,52.6C95.7,52.6,95.7,52.7,95.7,52.6C95.7,52.7,95.7,52.6,95.7,52.6z"/>
			<path class="st4" d="M74.5,52.9c-0.2-0.1-0.4-0.2-0.6-0.3C74.1,52.7,74.3,52.8,74.5,52.9z"/>
			<path class="st4" d="M92.7,51c0,0,0.1,0,0.1,0C92.8,51.1,92.8,51,92.7,51z"/>
			<path class="st4" d="M76.7,54c-0.3-0.1-0.6-0.3-0.9-0.4C76.1,53.7,76.4,53.9,76.7,54z"/>
			<path class="st4" d="M96.3,53.6c-0.8-0.3-1.7-0.5-3-0.6c-1.4-0.1-3.1-0.3-5-0.3c-5.1,0-9.2,0.6-11.5,1.3c3.6,1.6,8.8,3.1,13,3.7
				c0.8,0.1,1.5,0.2,2.2,0.2c4.1,0,4.3-1.7,4.4-2.9C96.4,54.9,96.5,54.3,96.3,53.6z"/>
			<path class="st4" d="M75.5,53.4c-0.2-0.1-0.5-0.2-0.7-0.3C75,53.2,75.2,53.3,75.5,53.4z"/>
			<path class="st4" d="M73.7,52.5c-0.2-0.1-0.5-0.3-0.6-0.4C73.3,52.2,73.5,52.4,73.7,52.5z"/>
			<path class="st4" d="M91.7,50.8c0.1,0,0.1,0,0.2,0C91.8,50.8,91.7,50.8,91.7,50.8z"/>
		</g>
		<g>
			<path class="st5" d="M102.8,73.4c0.1,0,0.2,0,0.3,0.1C103,73.5,102.9,73.4,102.8,73.4z"/>
			<path class="st5" d="M100.9,73.2c0.1,0,0.2,0,0.3,0C101.1,73.2,101,73.2,100.9,73.2z"/>
			<path class="st5" d="M65.3,136c0-0.2,0-0.4,0-0.6C65.3,135.6,65.3,135.8,65.3,136z"/>
			<path class="st5" d="M65.5,137.8c0-0.2-0.1-0.4-0.1-0.6C65.4,137.4,65.4,137.6,65.5,137.8z"/>
			<path class="st5" d="M104.5,73.8c0.1,0,0.2,0.1,0.3,0.1C104.7,73.9,104.6,73.8,104.5,73.8z"/>
			<path class="st5" d="M110.2,77.1c-0.1-0.1-0.2-0.2-0.2-0.3C110,76.9,110.1,77,110.2,77.1z"/>
			<path class="st5" d="M111.8,79.2c0.1,0.1,0.2,0.3,0.2,0.4C111.9,79.5,111.9,79.4,111.8,79.2z"/>
			<path class="st5" d="M106.1,74.3c0.1,0,0.1,0,0.2,0.1C106.2,74.4,106.1,74.3,106.1,74.3z"/>
			<path class="st5" d="M65.7,139.5c0-0.2-0.1-0.4-0.1-0.7C65.7,139,65.7,139.3,65.7,139.5z"/>
			<path class="st5" d="M107.4,74.9c0.1,0.1,0.2,0.1,0.3,0.2C107.6,75.1,107.5,75,107.4,74.9z"/>
			<path class="st5" d="M110.9,77.9c0.1,0.1,0.2,0.2,0.2,0.3C111,78.1,111,78,110.9,77.9z"/>
			<path class="st5" d="M108.7,75.8c0.1,0.1,0.2,0.2,0.3,0.2C108.9,76,108.8,75.9,108.7,75.8z"/>
			<path class="st5" d="M71.9,151.8c-0.1-0.1-0.3-0.3-0.4-0.4C71.7,151.5,71.8,151.6,71.9,151.8z"/>
			<path class="st5" d="M66.1,141.1c-0.1-0.2-0.1-0.4-0.1-0.6C66,140.6,66,140.8,66.1,141.1z"/>
			<path class="st5" d="M72.6,152.4c0.1,0.1,0.2,0.2,0.3,0.3C72.8,152.6,72.7,152.5,72.6,152.4z"/>
			<path class="st5" d="M123.7,113c-4.4-5.2-8.9-10.7-8.9-19c0-6.2-0.9-10.9-2.7-14.2c-2.3-1.4-5.2-2.1-8.9-2.1
				c-11,0-15.6,6.2-15.6,20.8c0,8.3-4.5,13.7-8.9,19c-4.8,5.7-9.3,11.1-9.3,20.7c0,6.4,1.7,11.6,4.6,15.6c6.7,5.8,16.4,8.1,25.2,8.1
				c15.6,0,33.9-7.4,33.9-28.1C133,124.1,128.5,118.7,123.7,113z"/>
			<path class="st5" d="M70.1,149.6c-0.1-0.2-0.2-0.3-0.3-0.5C69.9,149.3,70,149.4,70.1,149.6z"/>
			<path class="st5" d="M71,150.7c-0.1-0.1-0.2-0.3-0.4-0.5C70.7,150.4,70.9,150.6,71,150.7z"/>
			<path class="st5" d="M69.3,148.4c-0.1-0.2-0.2-0.3-0.3-0.5C69.1,148.1,69.2,148.3,69.3,148.4z"/>
			<path class="st5" d="M66.5,142.6c-0.1-0.2-0.1-0.4-0.2-0.6C66.4,142.2,66.5,142.4,66.5,142.6z"/>
			<path class="st5" d="M67,144c-0.1-0.2-0.1-0.3-0.2-0.5C66.9,143.7,67,143.9,67,144z"/>
			<path class="st5" d="M68.5,147.1c-0.1-0.1-0.2-0.3-0.2-0.4C68.3,146.8,68.4,147,68.5,147.1z"/>
			<path class="st5" d="M67.6,145.5c0,0,0-0.1-0.1-0.1C67.6,145.4,67.6,145.4,67.6,145.5z"/>
		</g>
	</g>
	<path class="st6" d="M127.8,109.6c-4.1-4.9-7.7-9.2-7.7-15.6c0-8.5-1.6-14.7-4.8-19.1c-3.1-4.1-7.6-6.4-13.5-6.9V50.4
		c0-0.9,0.1-11.1-7.4-15.7c-1.2-0.8-2.9-0.4-3.6,0.9c-0.8,1.2-0.4,2.9,0.9,3.6c2.8,1.7,4,4.9,4.5,7.4c-1.3-0.5-2.9-0.9-4.8-1.2
		c-1.6-0.2-3.6-0.3-5.7-0.3c-3.9,0-7.9,0.4-11,1c-3,0.6-7.1,1.9-7.5,5.2c-0.4,3,2.4,5.5,8.7,8.1c4.2,1.7,9.4,3.1,13.2,3.6
		c1,0.1,2,0.2,2.9,0.2c1.8,0,3.3-0.3,4.5-0.7V68c-5.9,0.5-10.4,2.8-13.5,6.9c-3.2,4.3-4.8,10.6-4.8,19.1c0,6.4-3.6,10.6-7.7,15.6
		c-5,5.9-10.6,12.6-10.6,24.1c0,10.4,4.1,19,11.7,25c6.9,5.4,16.7,8.4,27.5,8.4s20.6-3,27.5-8.4c7.7-6,11.7-14.7,11.7-25
		C138.3,122.2,132.7,115.5,127.8,109.6z M74.5,113c4.4-5.2,8.9-10.7,8.9-19c0-14.6,4.7-20.8,15.6-20.8s15.6,6.2,15.6,20.8
		c0,8.3,4.5,13.7,8.9,19c4.8,5.7,9.3,11.1,9.3,20.7c0,20.8-18.3,28.1-33.9,28.1s-33.9-7.4-33.9-28.1C65.2,124.1,69.7,118.7,74.5,113
		z M90.6,50.7c6.6,0.6,5.8,4.2,5.8,4.3c-0.1,1.1-0.4,2.9-4.4,2.9c-0.7,0-1.4-0.1-2.2-0.2c-6-0.8-14.1-3.7-16.7-5.6
		c2-0.8,6.6-1.6,12.6-1.6C87.5,50.4,89.3,50.6,90.6,50.7z"/>
</g>
</svg>
