<?xml version="1.0" encoding="utf-8"?>
<!-- Generator: Adobe Illustrator 22.0.1, SVG Export Plug-In . SVG Version: 6.00 Build 0)  -->
<svg version="1.1" id="Calque_1" xmlns="http://www.w3.org/2000/svg" xmlns:xlink="http://www.w3.org/1999/xlink" x="0px" y="0px"
	 viewBox="0 0 200 200" style="enable-background:new 0 0 200 200;" xml:space="preserve">
<style type="text/css">
	.st0{fill:#FFFFFF;}
	.st1{fill:#F9BCC4;}
	.st2{fill:none;stroke:#000000;stroke-miterlimit:10;}
	.st3{fill:#CE3927;}
	.st4{fill:#402E21;}
	.st5{fill:#85BD94;}
	.st6{fill:#FDD44B;}
</style>
<g id="XMLID_1_">
	<g>
		<path class="st0" d="M184.1,171.9V28.1c0-6.6-5.4-12-12-12H28.2c-6.6,0-12,5.4-12,12v143.9c0,6.6,5.4,12,12,12h143.9
			C178.7,183.9,184.1,178.5,184.1,171.9z M193.6,18.4v163.1c0,6.6-5.4,12-12,12H18.4c-6.6,0-12-5.4-12-12V18.4c0-6.6,5.4-12,12-12
			h163.1C188.2,6.4,193.6,11.8,193.6,18.4z"/>
		<path class="st1" d="M184.1,28.1v143.9c0,6.6-5.4,12-12,12H28.2c-6.6,0-12-5.4-12-12V28.1c0-6.6,5.4-12,12-12h143.9
			C178.7,16.1,184.1,21.5,184.1,28.1z"/>
	</g>
	<g>
		<path class="st2" d="M172.1,183.9H28.2c-6.6,0-12-5.4-12-12V28.1c0-6.6,5.4-12,12-12h143.9c6.6,0,12,5.4,12,12v143.9
			C184.1,178.5,178.7,183.9,172.1,183.9z"/>
		<path class="st2" d="M181.6,193.6H18.4c-6.6,0-12-5.4-12-12V18.4c0-6.6,5.4-12,12-12h163.1c6.6,0,12,5.4,12,12v163.1
			C193.6,188.2,188.2,193.6,181.6,193.6z"/>
	</g>
</g>
<polygon class="st3" points="136.5,157.4 136.5,157.2 136.2,157.4 "/>
<g>
	<path class="st4" d="M53.3,94.3c-0.7,0-1.3,0.3-1.8,0.7c-0.5,0.5-0.7,1.1-0.7,1.8c0,0.7,0.3,1.3,0.7,1.8c0.5,0.5,1.1,0.7,1.8,0.7
		c0.7,0,1.3-0.3,1.8-0.7c0.5-0.5,0.7-1.1,0.7-1.8c0-0.7-0.3-1.3-0.7-1.8C54.6,94.6,54,94.3,53.3,94.3z"/>
	<path class="st4" d="M122.2,96.6c-7-4-17.9-8.7-39.8-8.7c-0.2,0-0.4,0-0.6,0c-1.4,0-2.5,1.1-2.5,2.5c0,1.4,1.1,2.5,2.5,2.5
		c0,0,0,0,0,0c21.1-0.1,31.3,4.2,37.8,8c0.4,0.2,0.8,0.3,1.2,0.3c0.9,0,1.7-0.4,2.2-1.2C123.8,98.8,123.3,97.3,122.2,96.6z"/>
	<g>
		<path class="st5" d="M126.3,92.4c0.1,0.1,0.2,0.1,0.3,0.2C126.5,92.6,126.4,92.5,126.3,92.4z"/>
		<path class="st5" d="M127.5,93.2C127.5,93.3,127.6,93.3,127.5,93.2C127.6,93.3,127.5,93.3,127.5,93.2z"/>
		<path class="st5" d="M125.2,91.7c0.1,0.1,0.2,0.1,0.4,0.2C125.4,91.9,125.3,91.8,125.2,91.7z"/>
		<path class="st5" d="M122.6,90.3c0.1,0.1,0.2,0.1,0.3,0.1C122.8,90.4,122.7,90.4,122.6,90.3z"/>
		<path class="st5" d="M131.6,97.1c0.1,0.1,0.1,0.2,0.2,0.3C131.7,97.3,131.7,97.2,131.6,97.1z"/>
		<path class="st5" d="M131,96.4c0.1,0.1,0.1,0.1,0.2,0.2C131.1,96.5,131.1,96.4,131,96.4z"/>
		<path class="st5" d="M121.2,89.7c0.1,0.1,0.3,0.1,0.4,0.2C121.5,89.8,121.4,89.7,121.2,89.7z"/>
		<path class="st5" d="M130.4,95.7c-0.1-0.1-0.1-0.1-0.2-0.2C130.2,95.5,130.3,95.6,130.4,95.7z"/>
		<path class="st5" d="M128.5,94c0.1,0.1,0.2,0.2,0.3,0.2C128.7,94.1,128.6,94.1,128.5,94z"/>
		<path class="st5" d="M129.3,94.7c0.1,0.1,0.2,0.2,0.3,0.3C129.5,94.9,129.4,94.8,129.3,94.7z"/>
		<path class="st5" d="M124.1,91.1c0.1,0.1,0.2,0.1,0.3,0.2C124.3,91.2,124.2,91.1,124.1,91.1z"/>
		<path class="st5" d="M50.9,97.3c0-0.1,0-0.3,0-0.4C50.8,97,50.9,97.1,50.9,97.3z"/>
		<path class="st5" d="M119.9,89.1c0.1,0.1,0.3,0.1,0.4,0.2C120.2,89.2,120,89.1,119.9,89.1z"/>
		<path class="st5" d="M55.4,95.5C55.4,95.5,55.4,95.5,55.4,95.5C55.4,95.5,55.4,95.5,55.4,95.5z"/>
		<path class="st5" d="M132,97.6c-2.3-1.6-5.1-3.1-8.4-4.4c-9.3-3.7-21.3-5.7-33.9-5.7c-2.4,0-4.7,0.1-6.9,0.4
			c21.7,0,32.5,4.6,39.5,8.7c1.2,0.7,1.6,2.2,0.9,3.4c-0.5,0.8-1.3,1.2-2.2,1.2c-0.4,0-0.9-0.2-1.2-0.5c-6.5-3.8-16.7-8.1-37.8-8.1
			c0,0,0,0,0,0c-1.4,0-2.5-1-2.5-2.4c0-1,0.6-1.8,1.5-2.2c0,0,0,0,0,0c-10,1.3-18.6,4.9-24.7,7.8c-0.2,0.1-0.3,0.5-0.5,0.5
			c0,0,0,0,0,0c0.1,0,0.2,0.4,0.2,0.7c0,0.7-0.3,1.2-0.7,1.7c-0.5,0.5-1.1,0.7-1.8,0.7c-0.7,0-1.3-0.3-1.8-0.8
			c-0.2-0.2-0.4-0.5-0.5-0.8c0.1,0.1,0.1,0.2,0.2,0.4c-4.3,2.4-7.3,4.6-9.1,6.1c2.5,1.7,5.5,3.5,9,5.3c2.4,1.2,5.3,2.6,8.5,3.8
			c10.1-4.6,8.8-12,8.8-12.4c-0.3-1.3,0.6-2.7,1.9-2.9c1.3-0.3,2.7,0.6,3,1.9c0.7,3.5-0.2,10.4-7.3,15.5c5.6,1.6,11.9,2.7,18.5,2.7
			c12.6,0,24.7-2,33.9-5.7c8.2-3.2,13.6-7.6,14.9-12C133.1,99.5,132.6,98.5,132,97.6z"/>
		<path class="st5" d="M81.2,88C81.2,88,81.3,88,81.2,88C81.3,88,81.2,88,81.2,88z"/>
		<path class="st5" d="M51,97.7c0-0.1-0.1-0.2-0.1-0.3C50.9,97.5,51,97.6,51,97.7z"/>
		<path class="st5" d="M37.3,100.7c-0.1-0.1-0.1-0.1-0.2-0.2C37.1,100.6,37.2,100.7,37.3,100.7z"/>
		<path class="st5" d="M38.2,101.5c-0.2-0.2-0.4-0.3-0.6-0.5C37.8,101.2,38,101.3,38.2,101.5z"/>
		<path class="st5" d="M42,104.2c-0.3-0.2-0.5-0.4-0.8-0.5C41.5,103.9,41.8,104,42,104.2z"/>
		<path class="st5" d="M41.3,103.7c-1.1-0.8-2.2-1.5-3-2.2C39.1,102.2,40.1,102.9,41.3,103.7z"/>
	</g>
	<g>
		<path class="st6" d="M103.1,74.1c-5.3,0.4-12.7,1.3-19.5,3.7c-0.3,0-0.7,0-1,0c0.7,0,1.3-0.1,2-0.1c6.3,0,12.5,0.5,18.3,1.4
			l0.3-7.8L103.1,74.1z"/>
		<path class="st6" d="M74.1,78.6C73.1,78.8,72,79,71,79.2C72,79,73.1,78.8,74.1,78.6z"/>
		<path class="st6" d="M80.6,78c-0.5,0-0.9,0.1-1.4,0.1C79.7,78,80.1,78,80.6,78z"/>
		<path class="st6" d="M77.3,78.2c-0.6,0.1-1.1,0.1-1.7,0.2C76.2,78.4,76.7,78.3,77.3,78.2z"/>
	</g>
	<g>
		<path class="st5" d="M140.1,102.5c-0.1-0.1-0.1-0.1-0.2-0.2C140,102.4,140.1,102.5,140.1,102.5z"/>
		<path class="st5" d="M139.6,101.8c-0.1-0.1-0.1-0.2-0.2-0.2C139.5,101.7,139.6,101.7,139.6,101.8z"/>
		<path class="st5" d="M140.9,103.5c-0.1-0.1-0.1-0.1-0.2-0.2C140.8,103.3,140.8,103.4,140.9,103.5z"/>
		<path class="st5" d="M142.1,104.9c0.1,0.1,0.2,0.2,0.3,0.3C142.4,105.1,142.2,105,142.1,104.9z"/>
		<path class="st5" d="M141.6,104.3c-0.1-0.1-0.2-0.2-0.3-0.3C141.5,104.1,141.6,104.2,141.6,104.3z"/>
		<path class="st5" d="M139.2,101.2c0-0.1-0.1-0.1-0.1-0.2C139.1,101.1,139.2,101.1,139.2,101.2z"/>
		<path class="st5" d="M155.8,101c-0.1-0.6,0-1,0-1l1.6-7.6c-8.4,2.7-12.4,8.3-13.7,10.6c0.9,1.6,3.1,4.9,7.3,7.6
			c2.1,0.8,4.4,1.4,7.1,1.7L155.8,101C155.9,101,155.9,101,155.8,101z"/>
		<path class="st5" d="M147.2,108.8c-0.2-0.1-0.3-0.2-0.5-0.3C146.8,108.6,147,108.7,147.2,108.8z"/>
		<path class="st5" d="M143.4,106c-0.1-0.1-0.2-0.2-0.3-0.3C143.2,105.8,143.3,105.9,143.4,106z"/>
		<path class="st5" d="M150.5,110.4c-0.2-0.1-0.4-0.2-0.6-0.2C150.1,110.2,150.3,110.3,150.5,110.4z"/>
		<path class="st5" d="M148.8,109.6c-0.1-0.1-0.3-0.1-0.4-0.2C148.5,109.5,148.6,109.5,148.8,109.6z"/>
		<path class="st5" d="M145.9,108c-0.2-0.1-0.3-0.2-0.5-0.3C145.6,107.7,145.7,107.9,145.9,108z"/>
		<path class="st5" d="M144.7,107.1c-0.1-0.1-0.3-0.2-0.4-0.3C144.4,106.9,144.6,107,144.7,107.1z"/>
	</g>
	<g>
		<path class="st6" d="M76.9,122.6c0.3,0,0.4,0.1,0.7,0.1c1,2.2,2.7,4.8,6,6.5v-6.1C81.9,123.1,79.2,122.9,76.9,122.6z"/>
		<path class="st6" d="M75.6,122.5c-0.7-0.1-1.5-0.2-2.2-0.3C74.1,122.3,74.8,122.4,75.6,122.5z"/>
	</g>
	<path class="st4" d="M160.8,100.5l2.9-14c0.2-0.7,0-1.5-0.5-2.1c-0.5-0.6-1.2-0.9-2-0.9c-13.8,0.3-21.3,7.1-24.9,11.7
		c-2.9-4.4-8.4-8.3-16-11.3c-3.8-1.5-8-2.7-12.5-3.7l0.5-11c0.1-1.4-1-2.5-2.4-2.6c-1.4-0.1-32.8-1.2-45.2,15.2
		c-4.9,1.6-9.3,3.5-12.8,5.2c-5.8,2.8-13.9,8-16.6,11.7c-0.9,1.3-1.4,2.1,0.1,3.6c3.4,3.4,17.6,14.3,36.4,18.8c0.3,1.5,1,3.7,2.4,6
		c2.2,3.6,6.7,8.1,15.4,8.8c0.1,0,0.1,0,0.2,0c0.6,0,1.2-0.2,1.7-0.7c0.5-0.5,0.8-1.1,0.8-1.8v-10.3c11.9-0.4,23.1-2.4,32-5.9
		c7.6-3,13.1-6.9,16-11.3c3.6,4.6,11.1,11.4,24.9,11.7c0,0,0,0,0.1,0c0.7,0,1.4-0.3,1.9-0.9c0.5-0.6,0.7-1.4,0.5-2.1L160.8,100.5z
		 M158.2,88.7l-2.4,11.3c0,0-0.1,0.5,0,1c0,0,0,0,0,0l2.4,11.3c-12.5-1.4-17.9-9.1-19.4-11.8C140.4,97.7,145.8,90.1,158.2,88.7z
		 M118.5,112.5c-9.3,3.7-21.3,5.7-33.9,5.7c-6.7,0-13-1.1-18.5-2.7c7.1-5.1,8.1-12,7.3-15.5c-0.3-1.3-1.6-2.2-3-1.9
		c-1.3,0.3-2.2,1.6-1.9,2.9c0.1,0.3,1.3,7.8-8.8,12.4c-3.2-1.2-6.1-2.5-8.5-3.8c-6.9-3.5-12-7.3-14.6-9.4c2.1-1.9,7-5.6,14.6-9.2
		c7.8-3.7,19.9-8.1,33.4-8.1c12.6,0,24.7,2,33.9,5.7c8.2,3.2,13.6,7.6,14.9,12C132.1,104.9,126.8,109.2,118.5,112.5z M83.4,130.4
		c-6.2-1.4-8.9-5.3-10-8.3c3.2,0.5,6.6,0.9,10,0.9V130.4z M102.9,79.3c-5.8-0.9-12-1.4-18.3-1.4c-4.7,0-9.3,0.5-13.6,1.3
		c10.5-6.7,26.2-7.6,32.3-7.6L102.9,79.3z"/>
</g>
</svg>
