<?xml version="1.0" encoding="utf-8"?>
<!-- Generator: Adobe Illustrator 22.0.1, SVG Export Plug-In . SVG Version: 6.00 Build 0)  -->
<svg version="1.1" id="Calque_1" xmlns="http://www.w3.org/2000/svg" xmlns:xlink="http://www.w3.org/1999/xlink" x="0px" y="0px"
	 viewBox="0 0 200 200" style="enable-background:new 0 0 200 200;" xml:space="preserve">
<style type="text/css">
	.st0{fill:#FFFFFF;}
	.st1{fill:#FBEDB6;}
	.st2{fill:none;stroke:#010101;stroke-miterlimit:10;}
	.st3{fill:#698B9F;}
	.st4{fill:#5E7A89;}
	.st5{fill:#556B7A;}
	.st6{fill:#384650;}
</style>
<g id="XMLID_1_">
	<g>
		<path class="st0" d="M184.1,171.6V27.7c0-6.6-5.4-12-12-12H28.2c-6.6,0-12,5.4-12,12v143.9c0,6.6,5.4,12,12,12h143.9
			C178.7,183.6,184.1,178.2,184.1,171.6z M193.6,18.1v163.1c0,6.6-5.4,12-12,12H18.4c-6.6,0-12-5.4-12-12V18.1c0-6.6,5.4-12,12-12
			h163.1C188.2,6.1,193.6,11.5,193.6,18.1z"/>
		<path class="st1" d="M184.1,27.7v143.9c0,6.6-5.4,12-12,12H28.2c-6.6,0-12-5.4-12-12V27.7c0-6.6,5.4-12,12-12h143.9
			C178.7,15.7,184.1,21.1,184.1,27.7z"/>
	</g>
	<g>
		<path class="st2" d="M172.1,183.6H28.2c-6.6,0-12-5.4-12-12V27.7c0-6.6,5.4-12,12-12h143.9c6.6,0,12,5.4,12,12v143.9
			C184.1,178.2,178.7,183.6,172.1,183.6z"/>
		<path class="st2" d="M181.6,193.2H18.4c-6.6,0-12-5.4-12-12V18.1c0-6.6,5.4-12,12-12h163.1c6.6,0,12,5.4,12,12v163.1
			C193.6,187.8,188.2,193.2,181.6,193.2z"/>
	</g>
</g>
<g>
	<path class="st3" d="M152,79.6c1.3-1.4,0.7-3.9-1-4.7c-4.2-1.9-2.5-8-6-7.7c-4,0.4-7-2.6-6.6-6.6c0.4-4-2.6-7-6.6-6.6
		c-4,0.4-0.1-5.9-6.6-6.6c0,0-4.5-1.7-5,2.6l-0.1,16.9H94.1c-25.7,0-46.5,20.8-46.5,46.5v39.6h39.3c25.9,0,46.8-21,46.8-46.8v-26
		l16.9,0.2C151.1,80.2,151.6,80,152,79.6z"/>
	<path class="st4" d="M98.3,139.9h-4.7c0-18-14.6-32.6-32.6-32.6v-4.7C81.6,102.6,98.3,119.3,98.3,139.9z"/>
	<path class="st4" d="M105.8,132.3h-4.7c0-18-14.6-32.6-32.6-32.6v-4.7C89.1,95.1,105.8,111.8,105.8,132.3z"/>
	<path class="st4" d="M113.1,125.1h-4.7c0-18-14.6-32.6-32.6-32.6v-4.7C96.4,87.8,113.1,104.5,113.1,125.1z"/>
	<path class="st4" d="M120.6,117.5H116c0-18-14.6-32.6-32.6-32.6v-4.7C103.9,80.3,120.6,97,120.6,117.5z"/>
	<path class="st5" d="M81.7,68.6C80.8,64,78.9,59,75.2,54c0,0-19.1,9.5-11.3,24C69,73.7,75.1,70.4,81.7,68.6z"/>
	<path class="st5" d="M132.9,114.8c-1.4,7.5-4.6,14.3-9.1,20.1c6.7,0.8,16.4,0.1,26.1-6.9C149.9,128,143.4,114.9,132.9,114.8z"/>
	<circle class="st6" cx="61" cy="124.7" r="4.7"/>
</g>
</svg>
