<?xml version="1.0" encoding="utf-8"?>
<!-- Generator: Adobe Illustrator 22.0.1, SVG Export Plug-In . SVG Version: 6.00 Build 0)  -->
<svg version="1.1" id="Calque_1" xmlns="http://www.w3.org/2000/svg" xmlns:xlink="http://www.w3.org/1999/xlink" x="0px" y="0px"
	 viewBox="0 0 200 200" style="enable-background:new 0 0 200 200;" xml:space="preserve">
<style type="text/css">
	.st0{fill:#F9BCC4;}
	.st1{fill:#FFFFFF;}
	.st2{fill:none;stroke:#000000;stroke-miterlimit:10;}
	.st3{fill:#53BB73;}
	.st4{fill:#F15C5D;}
	.st5{fill:#F58C8D;}
	.st6{fill:#A7D16A;}
	.st7{fill:#010101;}
</style>
<g id="XMLID_1_">
	<g>
		<path class="st0" d="M172.1,16.1c6.6,0,12,5.4,12,12v143.9c0,6.6-5.4,12-12,12H28.2c-6.6,0-12-5.4-12-12V28.1c0-6.6,5.4-12,12-12
			H172.1z"/>
		<path class="st1" d="M184.1,171.9V28.1c0-6.6-5.4-12-12-12H28.2c-6.6,0-12,5.4-12,12v143.9c0,6.6,5.4,12,12,12h143.9
			C178.7,183.9,184.1,178.5,184.1,171.9z M181.6,6.4c6.6,0,12,5.4,12,12v163.1c0,6.6-5.4,12-12,12H18.4c-6.6,0-12-5.4-12-12V18.4
			c0-6.6,5.4-12,12-12H181.6z"/>
	</g>
	<g>
		<path class="st2" d="M172.1,183.9H28.2c-6.6,0-12-5.4-12-12V28.1c0-6.6,5.4-12,12-12h143.9c6.6,0,12,5.4,12,12v143.9
			C184.1,178.5,178.7,183.9,172.1,183.9z"/>
		<path class="st2" d="M181.6,193.6H18.4c-6.6,0-12-5.4-12-12V18.4c0-6.6,5.4-12,12-12h163.1c6.6,0,12,5.4,12,12v163.1
			C193.6,188.2,188.2,193.6,181.6,193.6z"/>
	</g>
</g>
<path class="st3" d="M93.5,73.9c-0.8-4.8-4.5-11.5-9.8-15.9l6.9-6.9c7.6,5.9,12.7,14.8,14.1,21.3L93.5,73.9z"/>
<g>
	<path class="st4" d="M90.5,73.3l-9.1-2.9c-8.6-2.8-18.1-0.5-24.5,5.8l0,0c-7,6.9-9.2,17.3-5.5,26.4l0.7,1.8
		c4.3,10.8,6.6,22.3,6.6,34l0,0c0,7.3,3.5,14,9.5,18.2l0,0c3.7,2.6,8.1,4,12.6,4h0.8c2.6,0,5.2-0.8,7.3-2.3l0,0"/>
	<path class="st4" d="M106.8,158.2L106.8,158.2c2.2,1.5,4.8,2.3,7.4,2.3h0.8c4.5,0,8.9-1.4,12.6-4l0,0c6-4.1,9.5-10.9,9.5-18.2l0,0
		c0-11.6,2.2-23.2,6.6-34l0.7-1.8c3.7-9.1,1.5-19.5-5.5-26.4l0,0c-6.5-6.3-15.9-8.6-24.5-5.8l-9.1,2.9"/>
</g>
<path class="st5" d="M97.9,160.6l2.5-0.3c9.6-1.3,16.7-9.4,16.7-19v-2.6c0-11.8,2.3-23.6,6.7-34.5l2-4.8c2.5-6.2,1.6-13.2-2.4-18.5
	l0,0c-4.6-6.1-12.5-8.8-19.9-6.8l-5.5,1.5L92.3,74c-7.4-2-15.3,0.7-19.9,6.8l0,0c-4,5.3-4.9,12.3-2.4,18.5l2,4.8
	c4.4,11,6.7,22.7,6.7,34.5v2.7c0,9.6,7.1,17.7,16.7,18.9L97.9,160.6z"/>
<path class="st6" d="M103.3,67.9c0,0-2.7-18.2,16-26.3c18-7.7,29.7,1.6,33.1,5.2c-8.8,3.8-12.9,13.4-22.4,18.8
	C121.1,70.6,108.7,71.3,103.3,67.9z"/>
<path class="st7" d="M116.9,101.3c0.5-1.3-0.1-2.7-1.4-3.2c-1.3-0.5-2.7,0.1-3.2,1.4c-4,9.9-6.5,20.3-7.3,30.8
	c-0.1,1.4,0.9,2.6,2.3,2.7c0.1,0,0.1,0,0.2,0c1.3,0,2.4-1,2.5-2.3C110.8,120.6,113.1,110.7,116.9,101.3z"/>
<path class="st7" d="M56.8,78.7c0.6,0,1.3-0.2,1.7-0.7c0,0,0,0,0.1-0.1c1-1,0.9-2.6,0-3.5c-1-1-2.5-0.9-3.5,0c-1,1-1,2.5,0,3.5
	C55.6,78.5,56.2,78.7,56.8,78.7z"/>
<path class="st7" d="M154.1,45.2c-2.4-2.5-15.2-14.7-35.9-5.8c-10.5,4.5-14.7,12.1-16.4,17.7c-0.2,0.7-0.4,1.4-0.5,2
	c-2.4-3.6-5.5-7.1-9.3-10c-1-0.8-2.4-0.7-3.3,0.2l-6.9,6.9c-0.5,0.5-0.8,1.2-0.7,1.9c0,0.7,0.4,1.3,0.9,1.8c3.6,3,6.3,7.1,7.8,10.6
	L82.1,68c-5.2-1.7-10.7-1.7-15.9-0.1c-1.3,0.4-2.1,1.8-1.7,3.1c0.4,1.3,1.8,2.1,3.1,1.7c3.8-1.2,7.9-1.2,11.7-0.2
	c-3.5,1.4-6.6,3.8-9,6.9c-4.5,6-5.6,14-2.8,20.9l2,4.8c4.3,10.7,6.6,22,6.6,33.6v2.7c0,6.6,3,12.5,7.7,16.5
	c-0.7,0.2-1.5,0.3-2.3,0.3h-0.8c-4,0-7.9-1.2-11.2-3.5c-5.3-3.7-8.4-9.7-8.4-16.1c0-12-2.3-23.8-6.8-34.9l-0.7-1.8
	c-1.9-4.8-2.1-10.1-0.5-14.9c0.4-1.3-0.3-2.7-1.6-3.1c-1.3-0.4-2.7,0.3-3.1,1.6c-1.9,6-1.7,12.5,0.6,18.3l0.7,1.8
	c4.2,10.6,6.4,21.7,6.4,33.1c0,8.1,4,15.6,10.6,20.2c4.1,2.9,9,4.4,14.1,4.4h0.8c2.6,0,5.2-0.7,7.5-2c1.8,0.8,3.8,1.4,5.9,1.6
	l2.6,0.3c0.1,0,0.2,0,0.3,0c0.1,0,0.2,0,0.3,0l2.5-0.3c2.1-0.3,4-0.8,5.9-1.6c2.3,1.3,4.9,2,7.6,2h0.8c5.1,0,9.9-1.5,14.1-4.4
	c6.6-4.6,10.6-12.2,10.6-20.2c0-11.4,2.2-22.5,6.4-33.1l0.7-1.8c4.1-10.1,1.7-21.5-6.1-29.1c-2.9-2.9-6.4-5-10.2-6.3
	c0.2-0.1,0.4-0.2,0.7-0.4c4.9-2.8,8.3-6.4,11.7-10c3.3-3.5,6.4-6.9,10.5-8.6c0.7-0.3,1.3-1,1.5-1.8
	C154.9,46.6,154.7,45.8,154.1,45.2z M90.7,54.5c4.8,4.2,8.3,9.6,10.2,14.2c0,0.1,0.1,0.2,0.1,0.4c0.4,1,0.7,1.9,0.9,2.8l-4.1,1.1
	l-2.2-0.6c-1.2-4.8-4.4-10.4-8.4-14.4L90.7,54.5z M100.1,157.8l-2.2,0.3l-2.2-0.3c-8.3-1-14.5-8.1-14.5-16.4v-2.7
	c0-12.2-2.3-24.2-6.9-35.5l-2-4.8c-2.2-5.3-1.3-11.5,2.1-16c3.2-4.2,8-6.5,13-6.5c1.4,0,2.9,0.2,4.3,0.6l5.5,1.5
	c0.4,0.1,0.9,0.1,1.3,0l5.5-1.5c6.5-1.7,13.3,0.6,17.3,5.9c3.5,4.6,4.3,10.7,2.1,16l-2,4.8c-4.6,11.3-6.9,23.3-6.9,35.5v2.6
	C114.6,149.6,108.4,156.7,100.1,157.8z M137.1,78c6.3,6.2,8.3,15.5,5,23.7l-0.7,1.8c-4.5,11.2-6.8,22.9-6.8,34.9
	c0,6.4-3.2,12.5-8.4,16.1c-3.3,2.3-7.2,3.5-11.2,3.5h-0.8c-0.8,0-1.6-0.1-2.4-0.3c4.8-4,7.8-10,7.8-16.6v-2.6
	c0-11.6,2.2-22.9,6.6-33.6l2-4.8c2.8-6.9,1.7-14.9-2.8-20.9c-2.4-3.1-5.5-5.5-9-6.9c0.3-0.1,0.6-0.1,0.9-0.2
	c0.9-0.1,1.7-0.2,2.6-0.4C126.1,71.2,132.5,73.4,137.1,78z M139.1,54.4c-3.1,3.3-6.3,6.7-10.5,9.1c-2.9,1.6-6.2,2.8-9.4,3.4
	c-1,0.1-2,0.2-3,0.5c-3.3,0.4-6.4,0.2-8.8-0.4c4.1-4.4,9-7.9,14.6-10.5c1.2-0.6,1.8-2.1,1.2-3.3c-0.6-1.2-2.1-1.8-3.3-1.2
	c-5.2,2.5-9.9,5.7-14,9.5c0.9-5.4,4.1-13.1,14.2-17.5c13.8-5.9,23.4-1,27.8,2.4C144.6,48.6,141.8,51.5,139.1,54.4z"/>
<path class="st7" d="M130.2,48.2c-1.3,0.4-2.1,1.7-1.8,3c0.3,1.1,1.3,1.8,2.4,1.8c0.2,0,0.4,0,0.6-0.1c0,0,0,0,0,0
	c1.3-0.4,2.1-1.7,1.8-3C132.9,48.7,131.5,47.9,130.2,48.2z"/>
</svg>
