<?xml version="1.0" encoding="utf-8"?>
<!-- Generator: Adobe Illustrator 22.0.1, SVG Export Plug-In . SVG Version: 6.00 Build 0)  -->
<svg version="1.1" id="Calque_1" xmlns="http://www.w3.org/2000/svg" xmlns:xlink="http://www.w3.org/1999/xlink" x="0px" y="0px"
	 viewBox="0 0 200 200" style="enable-background:new 0 0 200 200;" xml:space="preserve">
<style type="text/css">
	.st0{fill:#FFFFFF;}
	.st1{fill:#F9BCC4;}
	.st2{fill:none;stroke:#000000;stroke-miterlimit:10;}
	.st3{fill:#CE3927;}
	.st4{fill:#85BD94;}
	.st5{fill:#CF5A3F;}
	.st6{fill:#402E21;}
</style>
<g id="XMLID_1_">
	<g>
		<path class="st0" d="M184.1,171.9V28.1c0-6.6-5.4-12-12-12H28.2c-6.6,0-12,5.4-12,12v143.9c0,6.6,5.4,12,12,12h143.9
			C178.7,183.9,184.1,178.5,184.1,171.9z M193.6,18.4v163.1c0,6.6-5.4,12-12,12H18.4c-6.6,0-12-5.4-12-12V18.4c0-6.6,5.4-12,12-12
			h163.1C188.2,6.4,193.6,11.8,193.6,18.4z"/>
		<path class="st1" d="M184.1,28.1v143.9c0,6.6-5.4,12-12,12H28.2c-6.6,0-12-5.4-12-12V28.1c0-6.6,5.4-12,12-12h143.9
			C178.7,16.1,184.1,21.5,184.1,28.1z"/>
	</g>
	<g>
		<path class="st2" d="M172.1,183.9H28.2c-6.6,0-12-5.4-12-12V28.1c0-6.6,5.4-12,12-12h143.9c6.6,0,12,5.4,12,12v143.9
			C184.1,178.5,178.7,183.9,172.1,183.9z"/>
		<path class="st2" d="M181.6,193.6H18.4c-6.6,0-12-5.4-12-12V18.4c0-6.6,5.4-12,12-12h163.1c6.6,0,12,5.4,12,12v163.1
			C193.6,188.2,188.2,193.6,181.6,193.6z"/>
	</g>
</g>
<polygon class="st3" points="136.5,157.4 136.5,157.2 136.2,157.4 "/>
<g>
	<g>
		<path class="st4" d="M99.3,54.3c0.1,0.1,0.1,0.2,0.2,0.4C99.4,54.5,99.4,54.4,99.3,54.3z"/>
		<path class="st4" d="M99.6,54.9c0,0.1,0.1,0.2,0.1,0.4C99.7,55.2,99.7,55.1,99.6,54.9z"/>
		<path class="st4" d="M99.8,55.6c0,0.1,0.1,0.3,0.1,0.4C99.9,55.8,99.9,55.7,99.8,55.6z"/>
		<path class="st4" d="M98.9,53.6c0.1,0.1,0.1,0.2,0.2,0.3C99.1,53.9,99,53.7,98.9,53.6z"/>
		<path class="st4" d="M98.1,52.6c-0.1-0.1-0.2-0.2-0.3-0.3C97.9,52.4,98,52.5,98.1,52.6z"/>
		<path class="st4" d="M99.9,56c-0.2-0.2-0.4-0.3-0.6-0.5c-4.4-3.5-13.1-6.8-17.8-6.8c-1,0-1.5,0.2-1.7,0.3
			c-0.2,0.6,0.2,2.9,2.2,6.6c1.8,2.5,3.9,4.7,5.8,6.2c1.9,1.5,3.6,2.2,5.2,2.2c2.3,0,4.1-1.6,5.2-3c1.2-1.6,1.8-3.1,1.8-4.5
			C100,56.4,99.9,56.2,99.9,56z"/>
		<path class="st4" d="M81.9,55.4c-0.3-0.4-0.6-0.8-0.9-1.2C81.3,54.6,81.6,55,81.9,55.4z"/>
		<path class="st4" d="M80.7,53.7c-0.4-0.6-0.7-1.1-1.1-1.7C80,52.5,80.3,53.1,80.7,53.7z"/>
		<path class="st4" d="M97.2,51.7c0.1,0.1,0.2,0.2,0.2,0.2C97.3,51.8,97.3,51.7,97.2,51.7z"/>
		<path class="st4" d="M98.4,53c0.1,0.1,0.2,0.2,0.2,0.3C98.6,53.2,98.5,53.1,98.4,53z"/>
	</g>
	<g>
		<path class="st5" d="M106.8,75.7c0.5-0.1,1.1-0.1,1.6-0.2C107.9,75.6,107.4,75.6,106.8,75.7z"/>
		<path class="st5" d="M136.5,92.7c-2.9-9.8-10.4-15-18.9-16.7c5.4,1.1,10.4,3.6,14.1,7.8c-6.5-4.9-15.4-6.1-23.5-4.7
			c-2.4,0.4-4.7,1.1-6.8,2.1c-0.4,0.2-1.1,0.5-2.1,0c-2.1-1-4.4-1.7-6.8-2.1c-12.6-2.3-27.3,2-31.7,16.7c-1,3.5-4.2,14.2,4.9,26.9
			c2.8,4,4.7,8.7,6.5,13.3c2,4.9,3.8,9.6,6.7,13.1c-3.5-2.4-5.7-6-7.6-10.3c4.1,8.9,9.6,15.4,25.2,12.6c0.3-0.1,0.6,0,0.9,0
			c0,0,0,0,0,0c19,3.3,23-6.9,27.7-18.6c1.8-4.6,3.7-9.3,6.5-13.3C140.8,106.9,137.6,96.2,136.5,92.7z M76,86.3
			c-9.1,2.9-8.8,12.7-8.8,13.1c0.1,1.4-1,2.6-2.5,2.7c0,0-0.1,0-0.1,0c-1.4,0-2.5-1.1-2.6-2.4c-0.3-4.9,2-14.9,12.4-18.3
			c1.4-0.4,2.8,0.3,3.2,1.7C78.1,84.4,77.4,85.9,76,86.3z"/>
		<path class="st5" d="M108.5,75.5c0.5,0,1.1-0.1,1.6-0.1C109.6,75.4,109.1,75.5,108.5,75.5z"/>
		<path class="st5" d="M104.8,76c0.5-0.1,1.1-0.2,1.6-0.3C105.9,75.8,105.4,75.9,104.8,76z"/>
		<path class="st5" d="M110.5,75.4c1.1,0,2.3,0,3.4,0.1C112.7,75.4,111.6,75.4,110.5,75.4z"/>
		<path class="st5" d="M114.1,75.5c1.2,0.1,2.4,0.3,3.5,0.5C116.5,75.8,115.3,75.6,114.1,75.5z"/>
		<path class="st5" d="M71.3,139c-0.2-0.4-0.3-0.7-0.5-1.1C71,138.2,71.1,138.6,71.3,139z"/>
		<path class="st5" d="M70.8,137.7c-0.1-0.3-0.3-0.7-0.4-1C70.5,137.1,70.6,137.4,70.8,137.7z"/>
		<path class="st5" d="M70.3,136.5c-0.1-0.3-0.3-0.7-0.4-1C70,135.9,70.1,136.2,70.3,136.5z"/>
		<path class="st5" d="M69.8,135.3c-0.1-0.3-0.3-0.7-0.4-1C69.5,134.7,69.6,135,69.8,135.3z"/>
		<path class="st5" d="M69.3,134.2c-0.2-0.4-0.3-0.8-0.5-1.2C69,133.4,69.1,133.8,69.3,134.2z"/>
	</g>
	<path class="st6" d="M74.5,81.4c-10.4,3.3-12.6,13.4-12.4,18.3c0.1,1.4,1.2,2.4,2.6,2.4c0,0,0.1,0,0.1,0c1.4-0.1,2.5-1.3,2.5-2.7
		c0-0.4-0.3-10.1,8.8-13.1c1.4-0.4,2.1-1.9,1.7-3.2C77.3,81.7,75.8,81,74.5,81.4z"/>
	<path class="st6" d="M141.5,91.2c-2.3-7.8-7.4-13.9-14.5-17.5c-6.6-3.3-14.8-4.3-23.1-2.8c-1.3,0.2-2.5,0.5-3.8,0.9
		c1-5.1,4.3-15,14.8-21.6c1.2-0.8,1.6-2.4,0.8-3.6c-0.8-1.2-2.4-1.6-3.6-0.8c-3.2,2-5.8,4.3-8,6.6c-0.9-2-2.4-3.8-4.6-5.5
		c-5.3-4.2-15.1-7.9-21-7.9c-2.7,0-4.7,0.7-5.8,2.2c-2,2.6-1.3,6.8,2,12.7c2.6,4.6,6.4,9.2,9.8,11.9c2.8,2.2,5.6,3.3,8.4,3.3
		c0.8,0,1.7-0.1,2.5-0.3c-0.3,1.2-0.5,2.3-0.7,3.3c-1.6-0.5-3.2-0.9-4.8-1.2c-8.3-1.5-16.4-0.5-23,2.8c-7.2,3.6-12.2,9.7-14.5,17.5
		c-1.2,4.1-4.9,16.6,5.6,31.4c2.5,3.5,4.2,7.7,5.9,12.2c4.2,10.7,8.9,22.6,25.7,22.6c2.2,0,4.6-0.2,7.3-0.6c2.6,0.4,5.1,0.6,7.3,0.6
		c16.8,0,21.5-11.9,25.7-22.6c1.8-4.5,3.5-8.7,5.9-12.2C146.4,107.8,142.7,95.3,141.5,91.2z M131.7,119.6c-2.8,4-4.7,8.7-6.5,13.3
		c-4.7,11.8-8.7,22-27.7,18.6c0,0,0,0,0,0c-0.3,0-0.6-0.1-0.9,0c-19,3.3-23-6.9-27.7-18.6c-1.8-4.6-3.7-9.3-6.5-13.3
		c-9.1-12.7-5.9-23.4-4.9-26.9C61.8,78,76.5,73.7,89.1,76c2.4,0.4,4.7,1.1,6.8,2.1c1.1,0.5,1.7,0.2,2.1,0c2.1-1,4.4-1.7,6.8-2.1
		c12.6-2.3,27.3,2,31.7,16.7C137.6,96.2,140.8,106.9,131.7,119.6z M79.6,52c-2.5-4.2-3-6.8-2.8-7.5c0.2-0.1,0.7-0.3,1.7-0.3
		c4.8,0,13.4,3.3,17.8,6.8c2.3,1.8,3.5,3.7,3.6,5.5c0.1,1.4-0.5,2.9-1.8,4.5c-1.1,1.4-2.9,3-5.2,3c-1.6,0-3.3-0.7-5.2-2.2
		C85.1,59.6,81.9,55.9,79.6,52z"/>
</g>
</svg>
