<?xml version="1.0" encoding="utf-8"?>
<!-- Generator: Adobe Illustrator 22.0.1, SVG Export Plug-In . SVG Version: 6.00 Build 0)  -->
<svg version="1.1" id="Calque_1" xmlns="http://www.w3.org/2000/svg" xmlns:xlink="http://www.w3.org/1999/xlink" x="0px" y="0px"
	 viewBox="0 0 200 200" style="enable-background:new 0 0 200 200;" xml:space="preserve">
<style type="text/css">
	.st0{fill:#F9BCC4;}
	.st1{fill:#FFFFFF;}
	.st2{fill:none;stroke:#000000;stroke-miterlimit:10;}
	.st3{fill:#CE3927;}
	.st4{fill:#85BD94;}
	.st5{fill:#FDD44B;}
	.st6{fill:#EE8826;}
	.st7{fill:#402E21;}
</style>
<g id="XMLID_1_">
	<g>
		<path class="st0" d="M183.5,171.7c0,6.6-5.4,12-12,12H27.7c-6.6,0-12-5.4-12-12V27.9c0-6.6,5.4-12,12-12h143.9c6.6,0,12,5.4,12,12
			V171.7z"/>
		<path class="st1" d="M171.5,183.7c6.6,0,12-5.4,12-12V27.9c0-6.6-5.4-12-12-12H27.7c-6.6,0-12,5.4-12,12v143.9c0,6.6,5.4,12,12,12
			H171.5z M5.9,18.2c0-6.6,5.4-12,12-12h163.1c6.6,0,12,5.4,12,12v163.1c0,6.6-5.4,12-12,12H17.9c-6.6,0-12-5.4-12-12V18.2z"/>
	</g>
	<g>
		<path class="st2" d="M171.5,183.7H27.7c-6.6,0-12-5.4-12-12V27.9c0-6.6,5.4-12,12-12h143.9c6.6,0,12,5.4,12,12v143.9
			C183.5,178.3,178.1,183.7,171.5,183.7z"/>
		<path class="st2" d="M181.1,193.4H17.9c-6.6,0-12-5.4-12-12V18.2c0-6.6,5.4-12,12-12h163.1c6.6,0,12,5.4,12,12v163.1
			C193.1,188,187.7,193.4,181.1,193.4z"/>
	</g>
</g>
<polygon class="st3" points="136,157.2 135.9,157 135.7,157.2 "/>
<g>
	<path class="st4" d="M148.5,127.9H46.9c-0.8,0-1.4,0.6-1.4,1.3c0,0.8,0.6,1.3,1.4,1.3h101.6c0.8,0,1.4-0.6,1.4-1.3
		C149.9,128.5,149.3,127.9,148.5,127.9z"/>
	<path class="st5" d="M63.9,66.4c-0.5-0.5-0.7-1.1-0.7-1.8c0-0.7,0.3-1.3,0.7-1.8c1.8-1.8,2.6-3.4,1.9-2c-0.2-0.4-0.7-1.6-1.1-2
		c-0.8-0.8-1.9-1.6-3.1-1.6h0c-0.3,0-0.8,0.1-1.1,0.1c0.2,2.4-0.6,5-1.9,6.9L69,74.4c0.8-0.2,1.6-0.4,2.5-0.5L63.9,66.4z"/>
	<g>
		<path class="st5" d="M55.5,57.5c0,0.1,0.1,0.3,0.1,0.4C55.6,57.8,55.6,57.7,55.5,57.5z"/>
		<path class="st5" d="M54.4,55.8c0.2,0.2,0.3,0.4,0.5,0.5C54.7,56.1,54.6,56,54.4,55.8z"/>
		<path class="st5" d="M55.3,57c0.1,0.1,0.1,0.3,0.2,0.4C55.4,57.2,55.4,57.1,55.3,57z"/>
		<path class="st5" d="M41.1,70.7c-0.1-0.1-0.3-0.2-0.4-0.2C40.8,70.6,41,70.7,41.1,70.7z"/>
		<path class="st5" d="M53.5,66.5c-0.5-0.5-0.8-1.1-0.8-1.8c0-0.7,0.3-1.3,0.8-1.8c0.4-0.4,1.4-1.5,1.9-2.9c0.3-0.7,0.3-1.4,0.2-2.1
			c-0.3-0.1-0.6-0.1-0.9-0.1c-1.2,0-2.4,0.5-3.3,1.3c-1,1-1.5,2.4-1.3,3.8c0.1,0.8-0.1,1.6-0.7,2.1c-0.6,0.6-1.4,0.8-2.1,0.7
			c-1.4-0.2-2.8,0.3-3.8,1.3c-0.9,0.9-1.4,2.1-1.4,3.4c0,0.2,0,0.4,0.1,0.6c-0.4-0.1-0.7-0.2-1-0.3c1.8,0.9,3.6,0.1,5.7-1.3
			c0.6-0.4,2.1-1.5,3.7-0.3c0.1,0.1,0.1,0.1,0.2,0.2l10.8,10.7c0.2-0.3,0.4-0.7,0.6-1c0.6-0.8,1.3-1.5,2.1-2.2L53.5,66.5z"/>
		<path class="st5" d="M55,56.4c0.1,0.1,0.2,0.3,0.3,0.4C55.2,56.7,55.1,56.6,55,56.4z"/>
		<path class="st5" d="M40.1,70c0.2,0.1,0.3,0.3,0.5,0.4C40.4,70.3,40.3,70.2,40.1,70z"/>
	</g>
	<g>
		<path class="st6" d="M67.9,95.8c-0.1-0.2-0.2-0.4-0.3-0.6C67.7,95.4,67.8,95.6,67.9,95.8z"/>
		<path class="st6" d="M73.5,103.2c0.3,0.3,0.7,0.6,1,0.9C74.2,103.9,73.8,103.6,73.5,103.2z"/>
		<path class="st6" d="M94,85.4c0.3,0.3,0.7,0.6,1,0.9C94.6,86,94.3,85.7,94,85.4z"/>
		<path class="st6" d="M92.6,84.4c0.4,0.3,0.8,0.6,1.1,0.9C93.4,85,93,84.7,92.6,84.4z"/>
		<path class="st6" d="M95.9,87.3c-0.3-0.3-0.6-0.6-0.9-0.9C95.3,86.7,95.6,87,95.9,87.3z"/>
		<path class="st6" d="M95.9,87.3c0.3,0.3,0.5,0.6,0.8,1C96.4,88,96.2,87.6,95.9,87.3z"/>
		<path class="st6" d="M72.6,102.3c-0.2-0.2-0.4-0.4-0.6-0.7C72.2,101.8,72.4,102,72.6,102.3z"/>
		<path class="st6" d="M96.7,88.3c-0.2-0.2-0.5-0.3-0.7-0.5C91.1,84.3,84.3,82,78.6,82c-4.2,0-7.4,1.2-8.9,3.4
			c-1.8,2.5-1.7,6.7,0.5,11.5c1.2,2.7,2.9,5.4,5,7.8c0.6,0.5,1.3,1.1,1.9,1.5c3,2.1,5.8,3.2,8.4,3.2c4.7,0,8.2-3.4,10.2-6.3
			C98.5,99.1,100.6,93.6,96.7,88.3z"/>
		<path class="st6" d="M70.1,99.2c-0.2-0.2-0.3-0.5-0.5-0.7C69.7,98.8,69.9,99,70.1,99.2z"/>
		<path class="st6" d="M68.9,97.6c-0.1-0.2-0.3-0.4-0.4-0.7C68.7,97.1,68.8,97.4,68.9,97.6z"/>
		<path class="st6" d="M71.3,100.8c-0.2-0.2-0.4-0.5-0.5-0.7C70.9,100.3,71.1,100.6,71.3,100.8z"/>
	</g>
	<g>
		<path class="st6" d="M58.5,119.4c0-0.1-0.1-0.2-0.1-0.2C58.4,119.2,58.4,119.3,58.5,119.4z"/>
		<path class="st6" d="M141.1,81.1c-0.2-0.2-0.3-0.3-0.5-0.5C140.8,80.8,141,81,141.1,81.1z"/>
		<path class="st6" d="M139.3,79.5c0.2,0.1,0.3,0.3,0.5,0.4C139.6,79.8,139.5,79.6,139.3,79.5z"/>
		<path class="st6" d="M59.1,120.2C59,120.2,59,120.1,59.1,120.2C59,120.1,59,120.2,59.1,120.2z"/>
		<path class="st6" d="M141.8,81.8c0.2,0.2,0.3,0.4,0.5,0.6C142.1,82.2,141.9,82,141.8,81.8z"/>
		<path class="st6" d="M60.6,121.6c0,0-0.1-0.1-0.1-0.1C60.5,121.5,60.5,121.6,60.6,121.6z"/>
		<path class="st6" d="M96.4,81c-0.3-0.2-0.6-0.4-0.9-0.6C95.9,80.5,96.1,80.7,96.4,81z"/>
		<path class="st6" d="M65.3,101.1c-0.1-0.2-0.3-0.4-0.4-0.6C65,100.8,65.1,101,65.3,101.1z"/>
		<path class="st6" d="M142.4,82.7c-0.4-0.3-0.8-0.6-1.2-0.9c-4-2.6-11.9-5.7-21.1-5.7c-8,0-13.9,1.7-22.9,5.5
			c4,3.3,6.2,7.2,6.6,11.4c0.4,4.2-1,8.7-4.1,13c-4,5.5-8.9,8.4-14.3,8.4c-3.7,0-7.5-1.4-11.4-4.1c-2.9-2.1-5.6-4.8-7.8-7.8
			c0.1,0.1,0.1,0.2,0.2,0.3c-0.6,0.9-1.2,1.7-1.7,2.6c-3.9,6.7-5.1,12.3-3.6,16.1c0.1,0.3,0.2,0.3,0.4,0.6c0.6,0.3,1.1,0.5,1.4,0.5
			h62.2c6.7,0,15.7-9.7,19.7-21.3C146.7,95.5,146.8,88.4,142.4,82.7z M124.9,109.7c-0.5,0.5-1.1,0.7-1.8,0.7c-0.7,0-1.3-0.3-1.8-0.7
			c-0.5-0.5-0.7-1.1-0.7-1.8c0-0.7,0.3-1.3,0.7-1.8c0.5-0.5,1.1-0.7,1.8-0.7c0.7,0,1.3,0.3,1.8,0.7c0.5,0.5,0.7,1.1,0.7,1.8
			C125.6,108.6,125.4,109.2,124.9,109.7z M128.8,102.2c-0.5,0.5-1.1,0.7-1.8,0.7c-0.7,0-1.3-0.3-1.8-0.7c-0.5-0.5-0.7-1.1-0.7-1.8
			c0-0.7,0.3-1.3,0.7-1.8c0.5-0.5,1.1-0.7,1.8-0.7c0.7,0,1.3,0.3,1.8,0.7c0.5,0.5,0.7,1.1,0.7,1.8
			C129.5,101.1,129.3,101.8,128.8,102.2z M135,107.9c-0.5,0.5-1.1,0.7-1.8,0.7c-0.7,0-1.3-0.3-1.8-0.7c-0.5-0.5-0.7-1.1-0.7-1.8
			c0-0.7,0.3-1.3,0.7-1.8c0.5-0.5,1.1-0.7,1.8-0.7c0.7,0,1.3,0.3,1.8,0.7c0.5,0.5,0.7,1.1,0.7,1.8
			C135.8,106.8,135.5,107.4,135,107.9z"/>
		<path class="st6" d="M59.7,120.9c0.1,0.1,0.1,0.1,0.2,0.2C59.8,121,59.8,120.9,59.7,120.9z"/>
		<path class="st6" d="M61.4,122.1c-0.1,0-0.1-0.1-0.2-0.1C61.3,122.1,61.3,122.1,61.4,122.1z"/>
	</g>
	<path class="st7" d="M148.5,122.9h-11.8c5.6-4.8,10.4-12.4,12.9-19.8c3.8-11.4,0.3-22.7-8.9-28.8c-4.8-3.1-13.5-6.5-23.8-6.5
		c-10.3,0-17.5,2.6-30,8.1c-2.7-1-5.5-1.6-8.3-2l-9.5-9.3c2.4-3.4,3.3-8.1-0.7-12.2c-1.8-1.8-4.1-2.8-6.6-2.8h0
		c-1.9,0-3.7,0.6-5.2,1.6c-1.5-1-3.2-1.5-5.1-1.6c0,0-0.1,0-0.1,0c-2.5,0-5,1-6.8,2.8c-1.4,1.4-2.4,3.3-2.7,5.3
		c-2,0.3-3.8,1.2-5.3,2.7c-1.9,1.9-2.9,4.4-2.8,7c0.1,2.5,1.1,4.8,2.9,6.5c3.4,3.1,7.4,3.3,12,0.6L60,85.7c-0.1,2.4,0.3,5.1,1.3,7.9
		c-1.6,1.9-3.1,4-4.3,6c-4.8,8.3-6.1,15.2-3.9,20.6c0.4,1,1,2,1.6,2.8H43.6c-3.5,0-6.4,2.9-6.4,6.4c0,3.5,2.9,6.4,6.4,6.4h104.9
		c3.5,0,6.4-2.9,6.4-6.4C154.9,125.8,152,122.9,148.5,122.9z M148.5,130.7H43.6c-0.8,0-1.4-0.6-1.4-1.4c0-0.8,0.6-1.4,1.4-1.4h104.9
		c0.8,0,1.4,0.6,1.4,1.4C149.9,130.1,149.3,130.7,148.5,130.7z M50.6,69.2c-1.5-1.2-3-0.2-3.7,0.3c-2.6,1.8-4.7,2.5-6.8,0.6
		c-0.8-0.7-1.2-1.8-1.3-2.9c0-1.3,0.5-2.5,1.4-3.4c1-1,2.4-1.5,3.8-1.3c0.8,0.1,1.6-0.1,2.1-0.7c0.6-0.6,0.8-1.4,0.7-2.1
		c-0.2-1.4,0.3-2.8,1.3-3.8c0.9-0.9,2-1.3,3.3-1.3c1.2,0,2.3,0.5,3,1.3c1.3,1.4,1.6,2.7,1,4.2c-0.5,1.4-1.5,2.5-1.9,2.9
		c-0.5,0.5-0.8,1.1-0.8,1.8c0,0.7,0.3,1.3,0.8,1.8l10.8,10.4c-0.8,0.6-1.5,1.4-2.1,2.2c-0.2,0.3-0.4,0.7-0.6,1L50.8,69.4
		C50.8,69.3,50.7,69.2,50.6,69.2z M59.9,54.9c0.6-0.3,1.2-0.4,1.8-0.4h0c1.2,0,2.3,0.5,3.1,1.3c2.6,2.6,0.9,5.3-0.9,7.1
		c-0.5,0.5-0.7,1.1-0.7,1.8c0,0.7,0.3,1.3,0.7,1.8l7.6,7.5c-0.9,0.1-1.7,0.3-2.5,0.6l-10.3-10C60.6,61.8,61.6,58.3,59.9,54.9z
		 M66.3,82c1.6-2.2,4.7-3.4,8.9-3.4c5.7,0,12.5,2.2,17.4,5.7c9,6.4,6.6,13.7,3,18.7c-2.1,2.9-5.5,6.3-10.2,6.3
		c-2.6,0-5.5-1.1-8.4-3.2c-4.3-3.1-8.1-7.8-10.2-12.6C64.7,88.8,64.5,84.6,66.3,82z M61.4,102.1c0.7-1.2,1.4-2.3,2.3-3.4
		c2.6,4.5,6.3,8.7,10.4,11.7c3.8,2.7,7.6,4.1,11.4,4.1c5.4,0,10.4-2.9,14.3-8.4c3.1-4.3,4.5-8.8,4.1-13c-0.5-4.9-3.3-9.1-8.3-12.7
		c-0.8-0.6-1.7-1.2-2.6-1.7c9.6-4.1,15.6-5.9,23.8-5.9c9.2,0,17.1,3.1,21.1,5.7c8.9,5.8,9.4,15.7,6.9,23
		c-3.9,11.6-12.9,21.5-19.7,21.5H62.9c-0.9-0.3-3.8-1.6-5.1-4.7C56.3,114.3,57.5,108.8,61.4,102.1z"/>
	<path class="st7" d="M123.1,110.4c0.7,0,1.3-0.3,1.8-0.7c0.5-0.5,0.7-1.1,0.7-1.8c0-0.7-0.3-1.3-0.7-1.8c-0.5-0.5-1.1-0.7-1.8-0.7
		c-0.7,0-1.3,0.3-1.8,0.7c-0.5,0.5-0.7,1.1-0.7,1.8c0,0.7,0.3,1.3,0.7,1.8C121.8,110.1,122.4,110.4,123.1,110.4z"/>
	<path class="st7" d="M133.3,108.6c0.7,0,1.3-0.3,1.8-0.7c0.5-0.5,0.7-1.1,0.7-1.8c0-0.7-0.3-1.3-0.7-1.8c-0.5-0.5-1.1-0.7-1.8-0.7
		c-0.7,0-1.3,0.3-1.8,0.7c-0.5,0.5-0.7,1.1-0.7,1.8c0,0.7,0.3,1.3,0.7,1.8C132,108.3,132.6,108.6,133.3,108.6z"/>
	<path class="st7" d="M127,103c0.7,0,1.3-0.3,1.8-0.7c0.5-0.5,0.7-1.1,0.7-1.8c0-0.7-0.3-1.3-0.7-1.8c-0.5-0.5-1.1-0.7-1.8-0.7
		c-0.7,0-1.3,0.3-1.8,0.7c-0.5,0.5-0.7,1.1-0.7,1.8c0,0.7,0.3,1.3,0.7,1.8C125.7,102.7,126.4,103,127,103z"/>
</g>
</svg>
