<?xml version="1.0" encoding="utf-8"?>
<!-- Generator: Adobe Illustrator 22.0.1, SVG Export Plug-In . SVG Version: 6.00 Build 0)  -->
<svg version="1.1" id="Calque_1" xmlns="http://www.w3.org/2000/svg" xmlns:xlink="http://www.w3.org/1999/xlink" x="0px" y="0px"
	 viewBox="0 0 200 200" style="enable-background:new 0 0 200 200;" xml:space="preserve">
<style type="text/css">
	.st0{fill:#FFFFFF;}
	.st1{fill:#FBEDB6;}
	.st2{fill:none;stroke:#010101;stroke-miterlimit:10;}
	.st3{fill:#E62041;}
	.st4{fill:#EAEAEA;}
	.st5{fill:#FBAA19;}
	.st6{fill:#333333;}
	.st7{fill:#BEBDBF;}
	.st8{fill:#AC1E31;}
	.st9{fill:#AFAFB0;}
	.st10{fill:#BC802B;}
</style>
<g id="XMLID_1_">
	<g>
		<path class="st0" d="M184.1,171.6V27.7c0-6.6-5.4-12-12-12H28.2c-6.6,0-12,5.4-12,12v143.9c0,6.6,5.4,12,12,12h143.9
			C178.7,183.6,184.1,178.2,184.1,171.6z M193.6,18.1v163.1c0,6.6-5.4,12-12,12H18.4c-6.6,0-12-5.4-12-12V18.1c0-6.6,5.4-12,12-12
			h163.1C188.2,6.1,193.6,11.5,193.6,18.1z"/>
		<path class="st1" d="M184.1,27.7v143.9c0,6.6-5.4,12-12,12H28.2c-6.6,0-12-5.4-12-12V27.7c0-6.6,5.4-12,12-12h143.9
			C178.7,15.7,184.1,21.1,184.1,27.7z"/>
	</g>
	<g>
		<path class="st2" d="M172.1,183.6H28.2c-6.6,0-12-5.4-12-12V27.7c0-6.6,5.4-12,12-12h143.9c6.6,0,12,5.4,12,12v143.9
			C184.1,178.2,178.7,183.6,172.1,183.6z"/>
		<path class="st2" d="M181.6,193.2H18.4c-6.6,0-12-5.4-12-12V18.1c0-6.6,5.4-12,12-12h163.1c6.6,0,12,5.4,12,12v163.1
			C193.6,187.8,188.2,193.2,181.6,193.2z"/>
	</g>
</g>
<g>
	<path class="st3" d="M89.6,140.9c0,1.2-0.3,2.6-0.6,4.2c-0.7,3.4-1.5,7.6,1.1,10.9c1.9,2.4,5.2,3.5,10.1,3.5
		c4.8,0,8.1-1.1,10.1-3.5c2.7-3.2,1.8-7.5,1.1-10.9c-0.3-1.5-0.6-3-0.6-4.2H89.6"/>
	<path class="st3" d="M82.9,69.9c-0.1-0.1-1.6-2.6-2.7-5.8c-2-6.1-0.6-9.9,1-12c2-2.7,4.6-3.7,6.8-3.8c0.4-0.8,0.9-1.7,1.5-2.6
		c2.7-3.9,6.4-6,10.7-6c4.3,0,8,2.1,10.7,6c0.6,0.9,1.1,1.8,1.5,2.6c2.2,0.2,4.7,1.2,6.8,3.8c1.6,2.1,3.1,5.9,1,12
		c-1.1,3.2-2.6,5.7-2.7,5.8L82.9,69.9"/>
</g>
<path class="st4" d="M100.1,144.9c-11.1,0-21.7-5.1-29.9-14.3c-7.7-8.7-12.2-20.1-12.2-31.2c0-11.2,4.4-20.7,12.6-27.4
	c7.6-6.2,18-9.7,29.5-9.7s21.9,3.4,29.5,9.7c8.2,6.8,12.6,16.3,12.6,27.4c0,11.1-4.4,22.5-12.2,31.2
	C121.9,139.8,111.3,144.9,100.1,144.9"/>
<polyline class="st5" points="100.1,134.5 82.7,106.8 100.1,91.1 117.6,106.8 100.1,134.5 "/>
<g>
	<path class="st6" d="M76.8,92.9c0-2.7,2.2-4.9,4.8-4.9c2.7,0,4.8,2.2,4.8,4.9c0,2.7-2.2,4.9-4.8,4.9C78.9,97.8,76.8,95.6,76.8,92.9
		z"/>
	<path class="st6" d="M123.5,92.9c0-2.7-2.2-4.9-4.8-4.9c-2.7,0-4.8,2.2-4.8,4.9s2.2,4.9,4.8,4.9C121.4,97.8,123.5,95.6,123.5,92.9"
		/>
</g>
<path class="st7" d="M100.1,159.5L100.1,159.5L100.1,159.5L100.1,159.5 M111,143.3L111,143.3c0.1,0.6,0.2,1.2,0.3,1.8
	c0.3,1.6,0.7,3.4,0.7,5.3c0-1.8-0.4-3.6-0.7-5.3C111.2,144.5,111.1,143.8,111,143.3 M128.2,132.6
	C128.2,132.6,128.2,132.6,128.2,132.6C128.2,132.6,128.2,132.6,128.2,132.6 M128.4,132.4C128.4,132.4,128.4,132.4,128.4,132.4
	C128.4,132.4,128.4,132.4,128.4,132.4 M128.4,132.4C128.4,132.4,128.4,132.4,128.4,132.4C128.4,132.4,128.4,132.4,128.4,132.4
	 M128.5,132.3C128.5,132.3,128.5,132.3,128.5,132.3C128.5,132.3,128.5,132.3,128.5,132.3 M128.6,132.2
	C128.6,132.2,128.6,132.2,128.6,132.2C128.6,132.2,128.6,132.2,128.6,132.2 M128.6,132.2C128.6,132.2,128.6,132.2,128.6,132.2
	C128.6,132.2,128.6,132.2,128.6,132.2 M128.7,132.1C128.7,132.1,128.7,132.1,128.7,132.1C128.7,132.1,128.7,132.1,128.7,132.1
	 M128.8,132C128.8,132,128.8,132,128.8,132C128.8,132,128.8,132,128.8,132 M128.8,131.9C128.8,132,128.8,132,128.8,131.9
	C128.8,132,128.8,132,128.8,131.9 M129,131.8c0,0-0.1,0.1-0.1,0.1C128.9,131.9,128.9,131.8,129,131.8 M129.2,131.6
	c-0.1,0.1-0.1,0.1-0.2,0.2C129.1,131.7,129.1,131.6,129.2,131.6 M129.4,131.4c-0.1,0.1-0.1,0.1-0.2,0.2
	C129.3,131.5,129.3,131.4,129.4,131.4 M129.6,131.2c-0.1,0.1-0.1,0.1-0.2,0.2C129.5,131.3,129.5,131.2,129.6,131.2 M129.6,131.1
	C129.6,131.1,129.6,131.1,129.6,131.1C129.6,131.1,129.6,131.1,129.6,131.1 M129.7,131C129.7,131,129.7,131.1,129.7,131
	C129.7,131.1,129.7,131,129.7,131 M129.8,131C129.8,131,129.7,131,129.8,131C129.7,131,129.8,131,129.8,131 M129.8,130.9
	C129.8,130.9,129.8,130.9,129.8,130.9C129.8,130.9,129.8,130.9,129.8,130.9 M129.9,130.8C129.9,130.8,129.9,130.9,129.9,130.8
	C129.9,130.9,129.9,130.8,129.9,130.8 M130,130.7C129.9,130.8,129.9,130.8,130,130.7C129.9,130.8,129.9,130.8,130,130.7 M130,130.7
	C130,130.7,130,130.7,130,130.7C130,130.7,130,130.7,130,130.7 M129.6,71.9C129.6,71.9,129.6,71.9,129.6,71.9
	C129.6,71.9,129.6,71.9,129.6,71.9 M129.5,71.8L129.5,71.8C129.5,71.8,129.5,71.8,129.5,71.8 M120,64.5C120,64.5,120,64.5,120,64.5
	C120,64.5,120,64.5,120,64.5 M120,64.4C120,64.4,120,64.4,120,64.4C120,64.4,120,64.4,120,64.4 M120.1,64.4
	C120.1,64.4,120.1,64.4,120.1,64.4C120.1,64.4,120.1,64.4,120.1,64.4 M120.1,64.3C120.1,64.3,120.1,64.3,120.1,64.3
	C120.1,64.3,120.1,64.3,120.1,64.3 M120.1,64.3C120.1,64.3,120.1,64.3,120.1,64.3C120.1,64.3,120.1,64.3,120.1,64.3 M120.1,64.2
	C120.1,64.2,120.1,64.2,120.1,64.2C120.1,64.2,120.1,64.2,120.1,64.2"/>
<g>
	<path class="st8" d="M111,143.3c-3.5,1.1-7.1,1.6-10.8,1.6v14.6c0,0,0,0,0,0l0,0c4.8,0,8.1-1.1,10.1-3.5c1.4-1.7,1.8-3.7,1.8-5.6
		c0-1.8-0.4-3.6-0.7-5.3C111.2,144.5,111.1,143.8,111,143.3"/>
	<path class="st8" d="M100.1,39.8v22.4c6.9,0,13.5,1.3,19.3,3.7c0.2-0.4,0.4-0.9,0.5-1.4c0,0,0,0,0,0c0,0,0,0,0,0c0,0,0,0,0,0
		c0,0,0,0,0,0c0,0,0,0,0,0c0,0,0,0,0,0c0,0,0,0,0,0c0,0,0,0,0,0c0,0,0,0,0,0c0,0,0,0,0,0c0,0,0,0,0,0c0,0,0,0,0,0c0.7-2.1,1-4,1-5.6
		c0-3-1-5.1-2-6.4c-2-2.7-4.6-3.7-6.8-3.8c-0.4-0.8-0.9-1.7-1.5-2.6C108.1,41.9,104.5,39.8,100.1,39.8"/>
</g>
<path class="st9" d="M118.7,97.8c-2.7,0-4.8-2.2-4.8-4.9s2.2-4.9,4.8-4.9c2.7,0,4.8,2.2,4.8,4.9S121.4,97.8,118.7,97.8 M100.1,62.3
	v28.9l17.5,15.7l-17.5,27.7v10.4c3.7,0,7.3-0.6,10.8-1.6l0,0c0,0,0,0,0,0c6.3-1.9,12.2-5.6,17.2-10.7c0,0,0,0,0,0
	c0,0,0.1-0.1,0.1-0.1c0,0,0,0,0,0c0,0,0,0,0,0c0,0,0,0,0,0c0,0,0,0,0,0c0,0,0,0,0,0c0,0,0,0,0.1-0.1c0,0,0,0,0,0c0,0,0,0,0,0
	c0,0,0,0,0,0c0,0,0,0,0,0c0,0,0,0,0.1-0.1c0,0,0,0,0,0c0,0,0,0,0,0c0,0,0,0,0,0c0,0,0,0,0,0c0,0,0,0,0,0c0,0,0.1-0.1,0.1-0.1
	c0,0,0,0,0,0c0.1-0.1,0.1-0.1,0.2-0.2c0,0,0,0,0,0c0.1-0.1,0.1-0.1,0.2-0.2c0,0,0,0,0,0c0.1-0.1,0.1-0.1,0.2-0.2c0,0,0,0,0,0
	c0,0,0,0,0,0c0,0,0,0,0,0c0,0,0.1-0.1,0.1-0.1c0,0,0,0,0,0c0,0,0,0,0,0c0,0,0,0,0,0c0,0,0,0,0,0c0,0,0,0,0,0c0,0,0,0,0.1-0.1
	c0,0,0,0,0,0c0,0,0,0,0,0c0,0,0,0,0,0c0,0,0,0,0,0c0,0,0,0,0.1-0.1c7.7-8.7,12.2-20.1,12.2-31.2c0-11.2-4.4-20.7-12.6-27.4l0,0
	c0,0,0,0-0.1-0.1c0,0,0,0,0,0c0,0,0,0-0.1-0.1l0,0c-2.9-2.4-6.3-4.4-10-5.9c0,0,0,0,0,0C113.7,63.5,107.1,62.3,100.1,62.3"/>
<polyline class="st10" points="100.1,91.1 100.1,134.5 117.6,106.8 100.1,91.1 "/>
</svg>
