<?xml version="1.0" encoding="utf-8"?>
<!-- Generator: Adobe Illustrator 22.0.1, SVG Export Plug-In . SVG Version: 6.00 Build 0)  -->
<svg version="1.1" id="Calque_1" xmlns="http://www.w3.org/2000/svg" xmlns:xlink="http://www.w3.org/1999/xlink" x="0px" y="0px"
	 viewBox="0 0 200 200" style="enable-background:new 0 0 200 200;" xml:space="preserve">
<style type="text/css">
	.st0{fill:#FFFFFF;}
	.st1{fill:#F9BCC4;}
	.st2{fill:none;stroke:#000000;stroke-miterlimit:10;}
	.st3{fill:#53BB73;}
	.st4{fill:#A7D16A;}
	.st5{fill:#F15C5D;}
	.st6{fill:#010101;}
</style>
<g id="XMLID_1_">
	<g>
		<path class="st0" d="M193.6,18.4v163.1c0,6.6-5.4,12-12,12H18.4c-6.6,0-12-5.4-12-12V18.4c0-6.6,5.4-12,12-12h163.1
			C188.2,6.4,193.6,11.8,193.6,18.4z M184.1,171.9V28.1c0-6.6-5.4-12-12-12H28.2c-6.6,0-12,5.4-12,12v143.9c0,6.6,5.4,12,12,12
			h143.9C178.7,183.9,184.1,178.5,184.1,171.9z"/>
		<path class="st1" d="M184.1,28.1v143.9c0,6.6-5.4,12-12,12H28.2c-6.6,0-12-5.4-12-12V28.1c0-6.6,5.4-12,12-12h143.9
			C178.7,16.1,184.1,21.5,184.1,28.1z"/>
	</g>
	<g>
		<path class="st2" d="M172.1,183.9H28.2c-6.6,0-12-5.4-12-12V28.1c0-6.6,5.4-12,12-12h143.9c6.6,0,12,5.4,12,12v143.9
			C184.1,178.5,178.7,183.9,172.1,183.9z"/>
		<path class="st2" d="M181.6,193.6H18.4c-6.6,0-12-5.4-12-12V18.4c0-6.6,5.4-12,12-12h163.1c6.6,0,12,5.4,12,12v163.1
			C193.6,188.2,188.2,193.6,181.6,193.6z"/>
	</g>
</g>
<g>
	<path class="st3" d="M101.2,83.4l9.2-10.2c8.4-9.3,13-21.4,13-33.9l0,0h-2.6c-8.5,0-16,5.4-18.7,13.4l0,0c-0.7,2-1,4.2-1,6.3V83.4"
		/>
	<path class="st3" d="M101.2,87.2l-6.6-4c-11.4-6.9-24-11.8-37.1-14.5l0,0l4.3-3c6.1-4.2,13.9-4.8,20.6-1.5l0,0
		c3.1,1.5,5.8,3.8,7.7,6.7L101.2,87.2"/>
</g>
<g>
	<path class="st4" d="M101.2,87.2l6.6-4c11.4-6.9,24-11.8,37.1-14.5l0,0l-4.3-3c-6.1-4.2-13.9-4.8-20.6-1.5l0,0
		c-3.1,1.5-5.8,3.8-7.7,6.7L101.2,87.2"/>
	<path class="st4" d="M101.2,83.4l-9.2-10.2c-8.4-9.3-13-21.4-13-33.9l0,0h2.6c8.5,0,16,5.4,18.7,13.4l0,0c0.7,2,1,4.2,1,6.3V83.4"
		/>
</g>
<path class="st5" d="M101.2,164.3l2.3-6.1c2.3-6,7.2-10.6,13.3-12.5l6.3-1.9c6.7-2.1,12.1-7.1,14.7-13.6l0,0
	c4.4-11.3,0.8-24.1-8.8-31.4l0,0c-4.8-3.6-10.3-6.2-16.2-7.5l0,0c-7.6-1.7-15.5-1.7-23.1,0l0,0c-5.9,1.3-11.4,3.9-16.2,7.5l0,0
	c-9.6,7.3-13.2,20.2-8.8,31.4l0,0c2.6,6.5,8,11.6,14.7,13.6l6.3,1.9c6.1,1.9,11,6.5,13.3,12.5L101.2,164.3z"/>
<path class="st6" d="M99.4,116c-0.5,0.5-0.7,1.1-0.7,1.8c0,0.7,0.3,1.3,0.7,1.8c0.5,0.5,1.1,0.7,1.8,0.7s1.3-0.3,1.8-0.7
	s0.7-1.1,0.7-1.8c0-0.7-0.3-1.3-0.7-1.8s-1.1-0.7-1.8-0.7C100.5,115.3,99.8,115.6,99.4,116z"/>
<path class="st6" d="M96,133.7h-6.4c-1.4,0-2.5,1.1-2.5,2.5s1.1,2.5,2.5,2.5H96c1.4,0,2.5-1.1,2.5-2.5S97.4,133.7,96,133.7z"/>
<path class="st6" d="M74.2,126.8c-0.7,0-1.3,0.3-1.8,0.7c-0.5,0.5-0.7,1.1-0.7,1.8c0,0.7,0.3,1.3,0.7,1.8c0.5,0.5,1.1,0.7,1.8,0.7
	c0.7,0,1.3-0.3,1.8-0.7c0.5-0.5,0.7-1.1,0.7-1.8c0-0.7-0.3-1.3-0.7-1.8C75.5,127.1,74.8,126.8,74.2,126.8z"/>
<path class="st6" d="M94,99.2c-0.3-1.4-1.7-2.2-3-1.9c-5,1.1-9.6,3.3-13.7,6.4c-5.4,4.1-8.5,10.6-8.2,17.5c0.1,1.4,1.2,2.4,2.5,2.4
	c0,0,0.1,0,0.1,0c1.4-0.1,2.5-1.2,2.4-2.7c-0.2-5.2,2.1-10.1,6.2-13.2c3.5-2.7,7.5-4.5,11.8-5.5C93.5,102,94.3,100.6,94,99.2z"/>
<path class="st6" d="M146.4,66.6l-4.3-3c-6.1-4.2-13.9-5.2-20.8-2.7c3-6.8,4.6-14.2,4.6-21.7c0-1.4-1.1-2.5-2.5-2.5h-2.6
	c-8.4,0-15.9,4.7-19.7,11.9c-3.8-7.3-11.3-11.9-19.7-11.9h-2.6c-1.4,0-2.5,1.1-2.5,2.5c0,7.6,1.6,14.9,4.6,21.7
	c-6.9-2.5-14.6-1.5-20.7,2.7l-4.3,3c-0.8,0.6-1.3,1.6-1,2.6c0.2,1,1,1.8,2,2c12.9,2.6,25.1,7.3,36.3,14.1l3.5,2.1
	c-2.6,0.2-5.1,0.6-7.6,1.2c-6.3,1.4-12.1,4.1-17.2,8c-5.2,3.9-8.8,9.3-10.6,15.6c-1.8,6.3-1.4,12.8,0.9,18.8
	c2.9,7.3,8.8,12.8,16.3,15.1l6.3,1.9c5.4,1.7,9.6,5.7,11.6,11l2.3,6.1c0.4,1,1.3,1.6,2.4,1.6c1.1,0,2-0.7,2.4-1.6l2.3-6.1
	c2-5.3,6.2-9.3,11.6-11l6.3-1.9c7.5-2.3,13.4-7.8,16.3-15.1c2.4-6.1,2.7-12.6,0.9-18.8c-1.8-6.3-5.4-11.6-10.6-15.6
	c-5.1-3.9-10.9-6.6-17.2-8c-2.5-0.6-5.1-0.9-7.6-1.2l3.5-2.1c11.2-6.8,23.4-11.6,36.3-14.1c1-0.2,1.8-1,2-2
	C147.7,68.2,147.3,67.2,146.4,66.6z M104.6,53.5c2.4-7,8.9-11.7,16.2-11.7c-0.6,11-4.9,21.4-12.3,29.6l-4.2,4.6
	c0.9-4.7,2.6-9.1,5.2-13.2l4.9-7.6c0.8-1.2,0.4-2.8-0.8-3.5c-1.2-0.8-2.8-0.4-3.5,0.8l-4.9,7.6c-0.6,0.9-1.1,1.8-1.6,2.7V59
	C103.7,57.1,104,55.3,104.6,53.5z M97.7,53.5c0.6,1.8,0.9,3.6,0.9,5.5v3.8c-0.5-0.9-1-1.8-1.6-2.7l-4.9-7.6
	c-0.8-1.2-2.3-1.5-3.5-0.8c-1.2,0.8-1.5,2.3-0.8,3.5l4.9,7.6c2.6,4,4.4,8.5,5.2,13.2l-4.2-4.6c-7.4-8.2-11.7-18.6-12.3-29.6
	C88.8,41.8,95.4,46.5,97.7,53.5z M63.6,67.5c5.2-3.4,11.9-3.7,17.5-1c2.7,1.3,5.1,3.4,6.8,5.9l4.5,6.6
	C83.4,73.9,73.7,70.1,63.6,67.5z M127.4,100.7c4.8,3.7,8,8.9,9.2,14.6h-25.3c-1.4,0-2.5,1.1-2.5,2.5s1.1,2.5,2.5,2.5h25.8
	c0,2-0.3,4-0.8,6h-16c-1.4,0-2.5,1.1-2.5,2.5c0,1.4,1.1,2.5,2.5,2.5h14.1c-2.5,4.7-6.8,8.2-12,9.8l-6.3,1.9
	c-6.9,2.1-12.3,7.2-14.8,13.8c-2.6-6.7-8-11.7-14.8-13.8l-6.3-1.9c-6-1.9-10.8-6.3-13.1-12.1c-4-10.2-0.7-21.9,8-28.5
	c4.5-3.4,9.6-5.8,15.2-7.1c3.6-0.8,7.3-1.2,11-1.2c3.7,0,7.4,0.4,11,1.2C117.7,94.8,122.9,97.2,127.4,100.7z M109.9,79l4.5-6.6
	c1.7-2.5,4.1-4.5,6.8-5.9c2.5-1.2,5.2-1.8,7.9-1.8c3.4,0,6.7,0.9,9.6,2.8C128.7,70.1,119,73.9,109.9,79z"/>
</svg>
