<?xml version="1.0" encoding="utf-8"?>
<!-- Generator: Adobe Illustrator 22.0.1, SVG Export Plug-In . SVG Version: 6.00 Build 0)  -->
<svg version="1.1" id="Calque_1" xmlns="http://www.w3.org/2000/svg" xmlns:xlink="http://www.w3.org/1999/xlink" x="0px" y="0px"
	 viewBox="0 0 200 200" style="enable-background:new 0 0 200 200;" xml:space="preserve">
<style type="text/css">
	.st0{fill:#F9BCC4;}
	.st1{fill:#FFFFFF;}
	.st2{fill:none;stroke:#000000;stroke-miterlimit:10;}
	.st3{fill:#CE3927;}
	.st4{fill:#81396A;}
	.st5{fill:#743561;}
	.st6{fill:#672E56;}
	.st7{fill:#713621;}
	.st8{fill:#010101;}
</style>
<g id="XMLID_1_">
	<g>
		<path class="st0" d="M172.3,16.1c6.6,0,12,5.4,12,12v143.9c0,6.6-5.4,12-12,12H28.4c-6.6,0-12-5.4-12-12V28.1c0-6.6,5.4-12,12-12
			H172.3z"/>
		<path class="st1" d="M184.3,28.1c0-6.6-5.4-12-12-12H28.4c-6.6,0-12,5.4-12,12v143.9c0,6.6,5.4,12,12,12h143.9c6.6,0,12-5.4,12-12
			V28.1z M18.7,6.4h163.1c6.6,0,12,5.4,12,12v163.1c0,6.6-5.4,12-12,12H18.7c-6.6,0-12-5.4-12-12V18.4C6.7,11.8,12.1,6.4,18.7,6.4z"
			/>
	</g>
	<g>
		<path class="st2" d="M172.3,183.9H28.4c-6.6,0-12-5.4-12-12V28.1c0-6.6,5.4-12,12-12h143.9c6.6,0,12,5.4,12,12v143.9
			C184.3,178.5,178.9,183.9,172.3,183.9z"/>
		<path class="st2" d="M181.8,193.6H18.7c-6.6,0-12-5.4-12-12V18.4c0-6.6,5.4-12,12-12h163.1c6.6,0,12,5.4,12,12v163.1
			C193.8,188.2,188.4,193.6,181.8,193.6z"/>
	</g>
</g>
<polygon class="st3" points="136.7,157.4 136.7,157.2 136.5,157.4 "/>
<path class="st4" d="M85.4,86.7c0,3.3,1.1,6.5,3,9.1l-3,2.3c-4.8,0-9.3,2.3-12.1,6.1l-3-2.3c-8.4,0-15.2-6.8-15.2-15.2
	s6.8-15.2,15.2-15.2S85.4,78.4,85.4,86.7z"/>
<g>
	<path class="st5" d="M86.4,145.2c3,7.8,11.7,11.7,19.6,8.8c7.8-3,11.7-11.7,8.8-19.6c-0.9-2.2-2.2-4.2-4-5.8
		c-0.2-0.2-0.5-0.4-0.8-0.6C103,134.8,95.1,140.7,86.4,145.2z"/>
	<path class="st5" d="M138.3,73.5c-1.7,9.9-4.8,19.5-9.3,28.5l1.9-0.1c8.3,1.3,15.2-6.8,15.2-15.2C146,81.2,143.1,76.2,138.3,73.5z"
		/>
	<path class="st5" d="M110,127.9c0.3,0.2,0.5,0.4,0.8,0.6l5-0.2c8.4,0,15.2-6.8,15.2-15.1c0-3.3-1.1-6.5-3.1-9.1
		C123.1,112.9,117.1,120.9,110,127.9z"/>
</g>
<g>
	<path class="st4" d="M100.5,124.6c-8.4,0-15.1,6.8-15.2,15.1c0,1.9,0.3,3.7,1,5.5c8.7-4.6,16.6-10.4,23.6-17.3
		C107.3,125.8,104,124.6,100.5,124.6z"/>
	<path class="st4" d="M130.9,71.6c-8.3-0.1-15.1,6.5-15.2,14.8c0,0.1,0,0.3,0,0.4c0-8.4-6.8-15.2-15.2-15.2s-15.2,6.8-15.2,15.2
		s6.8,15.2,15.2,15.2l3,2.3c5-6.7,14.5-8.1,21.2-3.1c0.4,0.3,0.8,0.6,1.1,0.9l3-0.1c4.5-9,7.7-18.5,9.3-28.5
		C136,72.2,133.5,71.6,130.9,71.6z"/>
	<path class="st4" d="M115.7,98.1c-8.4,0-15.2,6.8-15.2,15.1c0,0,0,0,0,0c0,5.3-2.8,10.2-7.3,13l0.1,0.2c5.3-2.9,11.9-2.3,16.6,1.5
		c7.1-7,13.1-15,17.8-23.8C125,100.3,120.5,98.1,115.7,98.1z"/>
	<path class="st4" d="M88.4,95.8c2.9,3.8,7.4,6.1,12.1,6.1l3,2.3c-2,2.6-3,5.8-3,9.1c0,8.4-6.8,15.2-15.2,15.2s-15.2-6.8-15.2-15.2
		S77,98.1,85.4,98.1L88.4,95.8z"/>
</g>
<g>
	<path class="st6" d="M100.5,156.9c-9.4,0-17.1-7.6-17.1-17.1s7.6-17.1,17.1-17.1c4.2,0,8.3,1.6,11.5,4.4l0,0
		c7,6.3,7.5,17.1,1.2,24.1C109.9,154.8,105.4,156.9,100.5,156.9z M100.5,126.5c-7.3,0-13.3,5.9-13.3,13.3s5.9,13.3,13.3,13.3
		s13.3-5.9,13.3-13.3c0-3.7-1.6-7.3-4.3-9.8l0,0C107,127.8,103.8,126.5,100.5,126.5z"/>
	<path class="st6" d="M85.4,130.3c-9.4,0-17.1-7.6-17.1-17.1S76,96.2,85.4,96.2v3.8c-7.3,0-13.3,5.9-13.3,13.3
		c0,7.3,5.9,13.3,13.3,13.3s13.3-5.9,13.3-13.3h3.8C102.4,122.7,94.8,130.3,85.4,130.3z"/>
	<path class="st6" d="M70.2,103.8c-9.4,0-17.1-7.6-17.1-17.1s7.6-17.1,17.1-17.1s17.1,7.6,17.1,17.1h-3.8c0-7.3-5.9-13.3-13.3-13.3
		S57,79.4,57,86.7S62.9,100,70.2,100L70.2,103.8L70.2,103.8z"/>
	<path class="st6" d="M132.6,103.9c-0.7,0-1.3,0-2-0.1l0.6-3.7c2.9,0.4,5.9-0.5,8.1-2.5c3.1-2.7,4.9-6.7,4.9-10.8
		c0-7.3-5.9-13.3-13.3-13.3c-3.7,0-7.2,1.5-9.7,4.1c-2.4,2.4-3.7,5.7-3.5,9.1l-3.8,0.1c-0.1-4.4,1.5-8.7,4.6-11.9
		c3.3-3.4,7.8-5.3,12.4-5.3c9.4,0,17,7.6,17.1,17.1c0,5.2-2.3,10.2-6.2,13.6C139.2,102.6,136,103.9,132.6,103.9z"/>
	<path class="st6" d="M117.6,86.7h-3.8c0-7.3-5.9-13.3-13.3-13.3s-13.3,5.9-13.3,13.3h-3.8c0-9.4,7.6-17.1,17.1-17.1
		S117.6,77.3,117.6,86.7z"/>
	<path class="st6" d="M100.5,103.8c-5.4,0-10.4-2.5-13.7-6.8c-2.2-2.9-3.4-6.5-3.4-10.2h3.8c0,7.3,5.9,13.3,13.3,13.3L100.5,103.8
		L100.5,103.8z"/>
	<path class="st6" d="M115.7,130.3v-3.8c7.3,0,13.3-5.9,13.3-13.3c0-7.3-5.9-13.3-13.3-13.3s-13.3,5.9-13.3,13.3h-3.8
		c0-3.7,1.2-7.3,3.4-10.2c5.6-7.5,16.3-9.1,23.9-3.5c7.5,5.6,9.1,16.3,3.5,23.9C126.1,127.8,121.1,130.3,115.7,130.3z"/>
</g>
<path class="st7" d="M102.4,71.6h-3.8c0-15.7,12.7-28.4,28.4-28.4h1.9v3.8h-1.9C113.5,46.9,102.5,58,102.4,71.6z"/>
<path class="st8" d="M147.9,86.7c0-9.4-7.6-17-17.1-17.1c-4.7,0-9.2,1.9-12.4,5.3c-1.1,1.2-2.1,2.5-2.8,3.9c-2.6-5-7.5-8.4-13.1-9
	c0.9-12.9,11.6-22.8,24.5-22.9h1.9v-3.8h-1.9c-15,0-27.4,11.7-28.3,26.6C93,70.4,88,73.8,85.4,79c-4.3-8.4-14.6-11.7-23-7.4
	s-11.7,14.6-7.4,23c2.9,5.7,8.8,9.3,15.2,9.3V100C62.9,100,57,94.1,57,86.7s5.9-13.3,13.3-13.3s13.3,5.9,13.3,13.3
	c0,9.4,7.6,17,17.1,17.1V100c-7.3,0-13.3-5.9-13.3-13.3c0-7.3,5.9-13.3,13.3-13.3c7.3,0,13.3,5.9,13.3,13.3l0,0c0,0,0,0,0,0.1
	l1.9-0.1h1.9v-0.1l0,0c-0.1-3.4,1.2-6.7,3.6-9.1c2.6-2.6,6.1-4.1,9.7-4.1c7.3,0,13.3,5.9,13.3,13.3c0,4.1-1.8,8-4.9,10.8
	c-2.2,2-5.2,2.9-8.1,2.5l-0.6,3.7c0.7,0.1,1.3,0.1,2,0.1c3.4,0,6.6-1.3,9.2-3.5C145.7,96.9,147.9,92,147.9,86.7z"/>
<path class="st8" d="M132.8,113.3c0-9.4-7.6-17.1-17.1-17.1s-17.1,7.6-17.1,17.1c0,7.3-5.9,13.3-13.3,13.3s-13.3-5.9-13.3-13.3
	c0-7.3,5.9-13.3,13.3-13.3v-3.8c-9.4,0-17.1,7.6-17.1,17.1s7.6,17.1,17.1,17.1c0.3,0,0.7,0,1-0.1c-5.3,7.8-3.2,18.4,4.6,23.7
	c7.8,5.3,18.4,3.2,23.7-4.6c5.3-7.8,3.2-18.4-4.6-23.7c-2.8-1.9-6.1-2.9-9.5-2.9c-0.3,0-0.7,0-1,0.1c1.9-2.8,2.9-6.1,2.9-9.5
	c0-7.3,5.9-13.3,13.3-13.3c7.3,0,13.3,5.9,13.3,13.3c0,7.3-5.9,13.3-13.3,13.3v3.8C125.1,130.3,132.8,122.7,132.8,113.3z
	 M100.5,126.5c7.3,0,13.3,5.9,13.3,13.3c0,7.3-5.9,13.3-13.3,13.3s-13.3-5.9-13.3-13.3C87.3,132.5,93.2,126.5,100.5,126.5z"/>
</svg>
