<?xml version="1.0" encoding="utf-8"?>
<!-- Generator: Adobe Illustrator 22.0.1, SVG Export Plug-In . SVG Version: 6.00 Build 0)  -->
<svg version="1.1" id="Calque_1" xmlns="http://www.w3.org/2000/svg" xmlns:xlink="http://www.w3.org/1999/xlink" x="0px" y="0px"
	 viewBox="0 0 200 200" style="enable-background:new 0 0 200 200;" xml:space="preserve">
<style type="text/css">
	.st0{fill:#FFFFFF;}
	.st1{fill:#FBEDB6;}
	.st2{fill:none;stroke:#010101;stroke-miterlimit:10;}
	.st3{fill:#FECD9B;}
	.st4{fill:#FFDEB8;}
	.st5{fill:#F68C4B;}
	.st6{fill:#FAA44E;}
	.st7{fill:#464755;}
</style>
<g id="XMLID_1_">
	<g>
		<path class="st0" d="M184.1,171.6V27.7c0-6.6-5.4-12-12-12H28.2c-6.6,0-12,5.4-12,12v143.9c0,6.6,5.4,12,12,12h143.9
			C178.7,183.6,184.1,178.2,184.1,171.6z M193.6,18.1v163.1c0,6.6-5.4,12-12,12H18.4c-6.6,0-12-5.4-12-12V18.1c0-6.6,5.4-12,12-12
			h163.1C188.2,6.1,193.6,11.5,193.6,18.1z"/>
		<path class="st1" d="M184.1,27.7v143.9c0,6.6-5.4,12-12,12H28.2c-6.6,0-12-5.4-12-12V27.7c0-6.6,5.4-12,12-12h143.9
			C178.7,15.7,184.1,21.1,184.1,27.7z"/>
	</g>
	<g>
		<path class="st2" d="M172.1,183.6H28.2c-6.6,0-12-5.4-12-12V27.7c0-6.6,5.4-12,12-12h143.9c6.6,0,12,5.4,12,12v143.9
			C184.1,178.2,178.7,183.6,172.1,183.6z"/>
		<path class="st2" d="M181.6,193.2H18.4c-6.6,0-12-5.4-12-12V18.1c0-6.6,5.4-12,12-12h163.1c6.6,0,12,5.4,12,12v163.1
			C193.6,187.8,188.2,193.2,181.6,193.2z"/>
	</g>
</g>
<path class="st3" d="M91.2,147.7c0,3.1,3.9,5.6,8.7,5.6c4.8,0,8.7-2.5,8.7-5.6H91.2L91.2,147.7z"/>
<path class="st4" d="M138.4,115.2H100H61.5c0,0-7,7-7,14c0,0,24.5-14,29.7,8.7c1.1,4.6,1.7,15.7,15.7,10.5
	c14,5.2,14.7-5.9,15.7-10.5c5.2-22.7,29.7-8.7,29.7-8.7C145.4,122.2,138.4,115.2,138.4,115.2z"/>
<path class="st5" d="M108.8,79.9c0,0,26.2-33.2,35-33.2c5.2,0-3.5,42-8.7,56L108.8,79.9z"/>
<path class="st6" d="M143.8,46.6c-17.5,12.2-24.5,42-24.5,42l-0.6-0.2l-9.9-8.6C108.8,79.9,135.1,46.6,143.8,46.6z"/>
<path class="st5" d="M89.3,79.9c0,0-26.2-33.2-35-33.2c-5.2,0,3.5,42,8.7,56L89.3,79.9z"/>
<g>
	<path class="st6" d="M54.3,46.6c17.5,12.2,24.5,42,24.5,42l0.6-0.2l9.9-8.6C89.3,79.9,63.1,46.6,54.3,46.6z"/>
	<path class="st6" d="M49.2,127.1c0,0,19.2-12.2,33.2-3.5c7.4,4.6,5.2,17.4,17.5,17.4s10.1-12.8,17.5-17.4c14-8.7,33.2,3.5,33.2,3.5
		c-8.7-31.5-30.9-52.5-50.7-52.5S58,95.6,49.2,127.1z"/>
</g>
<g>
	<circle class="st7" cx="86" cy="114.9" r="3.5"/>
	<circle class="st7" cx="113.9" cy="114.9" r="3.5"/>
	<path class="st7" d="M106.1,140.1c0,2.1-2.7,5.4-6.1,5.4c-3.4,0-6.1-3.2-6.1-5.4c0-2.1,2.7-3.8,6.1-3.8
		C103.3,136.2,106.1,137.9,106.1,140.1z"/>
</g>
</svg>
