<?xml version="1.0" encoding="utf-8"?>
<!-- Generator: Adobe Illustrator 22.0.1, SVG Export Plug-In . SVG Version: 6.00 Build 0)  -->
<svg version="1.1" id="Calque_1" xmlns="http://www.w3.org/2000/svg" xmlns:xlink="http://www.w3.org/1999/xlink" x="0px" y="0px"
	 viewBox="0 0 200 200" style="enable-background:new 0 0 200 200;" xml:space="preserve">
<style type="text/css">
	.st0{fill:#FFFFFF;}
	.st1{fill:#FBEDB6;}
	.st2{fill:none;stroke:#010101;stroke-miterlimit:10;}
	.st3{fill:#706672;}
	.st4{fill:#877F89;}
	.st5{fill:#B0A9B0;}
	.st6{fill:#4C404F;}
</style>
<g id="XMLID_1_">
	<g>
		<path class="st0" d="M184.1,171.6V27.7c0-6.6-5.4-12-12-12H28.2c-6.6,0-12,5.4-12,12v143.9c0,6.6,5.4,12,12,12h143.9
			C178.7,183.6,184.1,178.2,184.1,171.6z M193.6,18.1v163.1c0,6.6-5.4,12-12,12H18.4c-6.6,0-12-5.4-12-12V18.1c0-6.6,5.4-12,12-12
			h163.1C188.2,6.1,193.6,11.5,193.6,18.1z"/>
		<path class="st1" d="M184.1,27.7v143.9c0,6.6-5.4,12-12,12H28.2c-6.6,0-12-5.4-12-12V27.7c0-6.6,5.4-12,12-12h143.9
			C178.7,15.7,184.1,21.1,184.1,27.7z"/>
	</g>
	<g>
		<path class="st2" d="M172.1,183.6H28.2c-6.6,0-12-5.4-12-12V27.7c0-6.6,5.4-12,12-12h143.9c6.6,0,12,5.4,12,12v143.9
			C184.1,178.2,178.7,183.6,172.1,183.6z"/>
		<path class="st2" d="M181.6,193.2H18.4c-6.6,0-12-5.4-12-12V18.1c0-6.6,5.4-12,12-12h163.1c6.6,0,12,5.4,12,12v163.1
			C193.6,187.8,188.2,193.2,181.6,193.2z"/>
	</g>
</g>
<path class="st3" d="M105.7,53.6L131,68.5c3.1-4.7,7.7-8.8,10.7-11.2c1.3-1,0.8-3.1-0.7-3.5C127.5,50.3,105.7,53.6,105.7,53.6z"/>
<path class="st4" d="M152.2,94.9c-0.9-3.7-2.2-7.3-3.9-10.8c-2-4.2-4.4-8.2-7.3-11.8c-16.8-20.1-47.1-27.8-71.2-24.2
	C51.8,51,32.6,56,32.6,61.9c0,3.1,4,7.1,9.8,9.7c2.8,1.2,5.9,1.1,10,0.7c2.5,7.3,15.3,9.9,36.6,12c38.6,3.9,55.2,31.8,37.8,50
	c-6.5,6.8-20.1,10-28.1,11.3c-13.3-5.3-28.4-5.9-36.6-5.7c-1.5,0-2,2.1-0.6,2.8l16,7.3l-15.9,7.2c-1.4,0.6-1,2.8,0.6,2.8
	c8.5,0,24.2-0.8,36.8-7c16-1.2,54.6-4.1,54.6-44.2C153.7,103.8,153.2,99.2,152.2,94.9z"/>
<path class="st5" d="M152.1,85.4c-3.8-3.9-14-13.1-29.8-16.3c-18.9-12.9-45.3-17.5-66.9-14.5c-7,1-14.1,2.2-20.4,3.7
	c-1.5,1.2-2.4,2.4-2.4,3.6c0,3.1,4,7.1,9.8,9.7c2.8,1.2,5.9,1.1,10,0.7c2.5,7.3,15.3,9.9,36.6,12c26.8,2.7,42.9,16.9,44.5,31.4
	c6.3,24.7-25.8,35.9-34.5,37.2c8.6-0.7,23.6-1.8,35.8-8.9c7.4-6.4,12.5-15.7,12.5-29.5c0-4.9-0.6-9.4-1.7-13.7
	c-1-3.7-2.5-7.3-4.3-10.7c-0.4-0.7-0.8-1.4-1.2-2.1l11.1-0.7C152.3,87.3,152.8,86.1,152.1,85.4z"/>
<circle class="st6" cx="75.9" cy="57.7" r="3.5"/>
<g>
	<path class="st3" d="M94.9,68.8c-0.5,0-1.1-0.3-1.4-0.7c-0.5-0.8-0.4-1.9,0.4-2.4c0.1,0,3.7-2.7,4-6.5c0.1-1,0.9-1.6,1.9-1.6
		c1,0.1,1.7,0.9,1.6,1.9c-0.5,5.5-5.3,8.9-5.5,9.1C95.6,68.7,95.3,68.8,94.9,68.8z"/>
	<path class="st3" d="M102.7,70.1c-0.5,0-1-0.2-1.3-0.6c-0.6-0.7-0.6-1.8,0.1-2.4c0,0,2.5-2.4,2.5-5.3c0-1,0.7-1.8,1.7-1.8
		c1-0.1,1.8,0.7,1.8,1.7c0.1,4.6-3.5,7.8-3.6,7.9C103.5,69.9,103.1,70.1,102.7,70.1z"/>
	<path class="st3" d="M109.5,71.1c-0.5,0-1-0.2-1.3-0.6c-0.6-0.7-0.6-1.8,0.1-2.4c0,0,1.9-1.8,1.8-3.9c0-1,0.7-1.8,1.7-1.8
		c1,0,1.8,0.7,1.8,1.7c0.1,3.8-2.9,6.5-3,6.6C110.3,70.9,109.9,71.1,109.5,71.1z"/>
</g>
<path class="st4" d="M79.8,71.4c-9.7-1-16.7,0-21.8,0.6c-0.4,0-0.7,0.1-1,0.1c0,0,0,0,0,0c0.4,1.2,1.2,2.3,2.2,3.2
	c4.9-0.6,11.5-1.4,20.3-0.5c1,0.1,1.8-0.6,1.9-1.6C81.5,72.3,80.8,71.5,79.8,71.4z"/>
</svg>
