<?xml version="1.0" encoding="utf-8"?>
<!-- Generator: Adobe Illustrator 22.0.1, SVG Export Plug-In . SVG Version: 6.00 Build 0)  -->
<svg version="1.1" id="Calque_1" xmlns="http://www.w3.org/2000/svg" xmlns:xlink="http://www.w3.org/1999/xlink" x="0px" y="0px"
	 viewBox="0 0 200 200" style="enable-background:new 0 0 200 200;" xml:space="preserve">
<style type="text/css">
	.st0{fill:#FFFFFF;}
	.st1{fill:#FBEDB6;}
	.st2{fill:none;stroke:#010101;stroke-miterlimit:10;}
	.st3{fill:#88878A;}
	.st4{fill:#D37B93;}
	.st5{fill:#656568;}
	.st6{fill:#9E5C6F;}
	.st7{fill:#333333;}
	.st8{fill:#D8D9DD;}
	.st9{fill:#9FA0A4;}
</style>
<g id="XMLID_1_">
	<g>
		<path class="st0" d="M184.1,171.6V27.7c0-6.6-5.4-12-12-12H28.2c-6.6,0-12,5.4-12,12v143.9c0,6.6,5.4,12,12,12h143.9
			C178.7,183.6,184.1,178.2,184.1,171.6z M193.6,18.1v163.1c0,6.6-5.4,12-12,12H18.4c-6.6,0-12-5.4-12-12V18.1c0-6.6,5.4-12,12-12
			h163.1C188.2,6.1,193.6,11.5,193.6,18.1z"/>
		<path class="st1" d="M184.1,27.7v143.9c0,6.6-5.4,12-12,12H28.2c-6.6,0-12-5.4-12-12V27.7c0-6.6,5.4-12,12-12h143.9
			C178.7,15.7,184.1,21.1,184.1,27.7z"/>
	</g>
	<g>
		<path class="st2" d="M172.1,183.6H28.2c-6.6,0-12-5.4-12-12V27.7c0-6.6,5.4-12,12-12h143.9c6.6,0,12,5.4,12,12v143.9
			C184.1,178.2,178.7,183.6,172.1,183.6z"/>
		<path class="st2" d="M181.6,193.2H18.4c-6.6,0-12-5.4-12-12V18.1c0-6.6,5.4-12,12-12h163.1c6.6,0,12,5.4,12,12v163.1
			C193.6,187.8,188.2,193.2,181.6,193.2z"/>
	</g>
</g>
<path class="st3" d="M64.2,76.9c-4.9-0.6-11.8-2-16.5-4.7c-2.8-1.6-4.8-4.3-5.7-7.4c-0.8-3.1-0.4-6.4,1.3-9.2
	c1.6-2.8,4.3-4.8,7.4-5.7c3.1-0.8,6.4-0.4,9.2,1.2c4.6,2.7,9.1,7.9,12.1,11.8L64.2,76.9z"/>
<path class="st4" d="M65.1,69.8c-3.5-0.4-9.9-1.5-13.8-3.8c-1.2-0.7-2-1.8-2.3-3.1c-0.3-1.3-0.2-2.7,0.5-3.8c0.7-1.2,1.8-2,3.1-2.3
	c1.3-0.3,2.7-0.2,3.8,0.5c2.8,1.6,6.4,5.2,10,9.9L65.1,69.8z"/>
<path class="st5" d="M135.7,76.9c4.9-0.6,11.8-2,16.5-4.7c2.8-1.6,4.8-4.3,5.7-7.4c0.8-3.1,0.4-6.4-1.3-9.2
	c-1.6-2.8-4.3-4.8-7.4-5.7c-3.1-0.8-6.4-0.4-9.2,1.2c-4.6,2.7-9.1,7.9-12.1,11.8L135.7,76.9z"/>
<path class="st6" d="M134.8,69.8c3.5-0.4,9.9-1.5,13.8-3.8c1.2-0.7,2-1.8,2.3-3.1c0.3-1.3,0.2-2.7-0.5-3.8s-1.8-2-3.1-2.3
	c-1.3-0.3-2.7-0.2-3.8,0.5c-2.8,1.6-6.4,5.2-10,9.9L134.8,69.8z"/>
<path class="st3" d="M100,149.8c-11.1,0-18.8-3-23.6-9.3c-4.1-5.4-5.3-12.3-6.5-19c-0.6-3.7-1.3-7.2-2.3-10.4
	c-1-2.9-1.9-5.3-2.8-7.7c-2.7-7.1-4.8-12.7-4.8-21.8c0-6.2,1.4-11.6,4.2-16c2.5-3.8,6-6.9,10.6-9.1C83.2,52.4,93.2,52,100,52
	s16.8,0.5,25.1,4.5c4.5,2.2,8.1,5.3,10.6,9.1c2.8,4.4,4.2,9.7,4.2,16c0,9.1-2.1,14.7-4.8,21.8c-0.9,2.4-1.8,4.8-2.8,7.7
	c-1.1,3.2-1.7,6.7-2.3,10.4c-1.2,6.7-2.4,13.6-6.5,19C118.8,146.8,111.1,149.8,100,149.8z"/>
<path class="st5" d="M100,149.8c0-5,0-89.7,0-97.9c6.8,0,16.8,0.5,25.1,4.5c4.5,2.2,8.1,5.3,10.6,9.1c2.8,4.4,4.2,9.7,4.2,16
	c0,9.1-2.1,14.7-4.8,21.8c-0.9,2.4-1.8,4.8-2.8,7.7c-1.1,3.2-1.7,6.7-2.3,10.4c-1.2,6.7-2.4,13.6-6.5,19
	C118.8,146.8,111.1,149.8,100,149.8z"/>
<g>
	<path class="st7" d="M79,80.3c0-2.6,2.1-4.7,4.7-4.7c2.6,0,4.7,2.1,4.7,4.7c0,2.6-2.1,4.7-4.7,4.7C81.1,85.1,79,82.9,79,80.3z"/>
	<path class="st7" d="M120.9,80.3c0-2.6-2.1-4.8-4.7-4.8c-2.6,0-4.7,2.1-4.7,4.8s2.1,4.8,4.7,4.8C118.8,85.1,120.9,83,120.9,80.3z"
		/>
</g>
<path class="st8" d="M100,133.2c-8.1,0-14.6-6.6-14.6-14.6c0-1.9,0.6-6,5.8-18.6c2.8-6.7,5.6-12.8,5.6-12.8l3.2-7l3.2,7
	c0,0.1,2.8,6.1,5.6,12.8c5.2,12.7,5.8,16.7,5.8,18.6C114.6,126.7,108,133.2,100,133.2z"/>
<path class="st9" d="M100,133.2V80.2l3.2,7c0,0.1,2.8,6.1,5.6,12.8c5.2,12.7,5.8,16.7,5.8,18.6C114.6,126.7,108,133.2,100,133.2z"/>
</svg>
