<?xml version="1.0" encoding="utf-8"?>
<!-- Generator: Adobe Illustrator 22.0.1, SVG Export Plug-In . SVG Version: 6.00 Build 0)  -->
<svg version="1.1" id="Calque_1" xmlns="http://www.w3.org/2000/svg" xmlns:xlink="http://www.w3.org/1999/xlink" x="0px" y="0px"
	 viewBox="0 0 200 200" style="enable-background:new 0 0 200 200;" xml:space="preserve">
<style type="text/css">
	.st0{fill:#FFFFFF;}
	.st1{fill:#F9BCC4;}
	.st2{fill:none;stroke:#000000;stroke-miterlimit:10;}
	.st3{fill:#E1E0E2;}
	.st4{fill:#C4D935;}
	.st5{fill:#68C07C;}
	.st6{fill:#F0542C;}
	.st7{fill:#D81F2C;}
	.st8{fill:#FDDA45;}
	.st9{fill:#F8991E;}
	.st10{fill:#010101;}
</style>
<g id="XMLID_1_">
	<g>
		<path class="st0" d="M182.1,27.1c0-6.6-5.4-12-12-12H26.2c-6.6,0-12,5.4-12,12v143.9c0,6.6,5.4,12,12,12h143.9c6.6,0,12-5.4,12-12
			V27.1z M179.6,5.4c6.6,0,12,5.4,12,12v163.1c0,6.6-5.4,12-12,12H16.4c-6.6,0-12-5.4-12-12V17.4c0-6.6,5.4-12,12-12H179.6z"/>
		<path class="st1" d="M170.1,15.1c6.6,0,12,5.4,12,12v143.9c0,6.6-5.4,12-12,12H26.2c-6.6,0-12-5.4-12-12V27.1c0-6.6,5.4-12,12-12
			H170.1z"/>
	</g>
	<g>
		<path class="st2" d="M170.1,182.9H26.2c-6.6,0-12-5.4-12-12V27.1c0-6.6,5.4-12,12-12h143.9c6.6,0,12,5.4,12,12v143.9
			C182.1,177.5,176.7,182.9,170.1,182.9z"/>
		<path class="st2" d="M179.6,192.6H16.4c-6.6,0-12-5.4-12-12V17.4c0-6.6,5.4-12,12-12h163.1c6.6,0,12,5.4,12,12v163.1
			C191.6,187.2,186.2,192.6,179.6,192.6z"/>
	</g>
</g>
<path class="st0" d="M49.4,87.5c-0.1-2.2-0.4-4.4,0.4-6.3c1.2-2.9,4.6-4.6,6.3-7.1c1.7-2.6,2-6.4,4.2-8.5c2.2-2.2,6-2.4,8.5-4.2
	c2.5-1.7,4.2-5.1,7.1-6.3c2.8-1.2,6.4,0,9.5-0.6c3-0.6,5.8-3.1,9-3.1c3.1,0,6,2.5,9,3.1c3.1,0.6,6.7-0.6,9.5,0.6
	c2.9,1.2,4.6,4.6,7.1,6.3c2.6,1.7,6.4,2,8.5,4.2c2.2,2.2,2.4,6,4.2,8.5c1.7,2.5,5.1,4.2,6.3,7.1c0.8,1.9,0.5,4.1,0.4,6.3L49.4,87.5z
	"/>
<path class="st3" d="M61.4,81.2c1.2-2.9,4.6-4.6,6.3-7.1c1.7-2.6,2-6.4,4.2-8.5c2.2-2.2,6-2.4,8.5-4.2c2.5-1.7,4.2-5.1,7.1-6.3
	c2.8-1.2,6.4,0,9.5-0.6c1.1-0.2,2.1-0.7,3.2-1.2c-1.9-0.9-3.8-1.9-5.8-1.9c-3.1,0-6,2.5-9,3.1c-3.1,0.6-6.7-0.6-9.5,0.6
	c-2.9,1.2-4.6,4.6-7.1,6.3c-2.6,1.7-6.4,2-8.5,4.2c-2.2,2.2-2.4,6-4.2,8.5c-1.7,2.5-5.1,4.2-6.3,7.1c-0.8,1.9-0.5,4.1-0.4,6.3
	l11.6,0C60.9,85.3,60.6,83.1,61.4,81.2z"/>
<g>
	<path class="st4" d="M148.2,48.7l-1.1-0.6c-1-0.5-2.3-0.1-2.8,1l-11.7,25c0,0,0,0,0,0c0.8,1.2,2,2.2,3.2,3.3l13.3-25.9
		C149.6,50.5,149.2,49.2,148.2,48.7z"/>
	<path class="st4" d="M128.4,65.6c0.3,0.3,0.6,0.6,0.8,1l9.4-19.9c0.5-1,0-2.3-1-2.8l-1.2-0.5c-1.1-0.5-2.3,0-2.7,1.1l-8.2,19.3
		C126.5,64.2,127.6,64.8,128.4,65.6z"/>
</g>
<g>
	<path class="st5" d="M128.4,63.8l8.2-19.3c0.1-0.3,0.3-0.5,0.5-0.7l-0.8-0.3c-1.1-0.5-2.3,0-2.7,1.1l-8.2,19.3c1.1,0.5,2.2,1,3,1.8
		c0.3,0.3,0.6,0.6,0.8,1l0.9-2C129.6,64.3,129,64,128.4,63.8z"/>
	<path class="st5" d="M135.5,74.1C135.5,74.1,135.5,74.1,135.5,74.1l11.7-25c0.1-0.3,0.3-0.5,0.5-0.6l-0.7-0.3c-1-0.5-2.3-0.1-2.8,1
		l-11.7,25c0,0,0,0,0,0c0.8,1.2,2,2.2,3.2,3.3l1-1.9C136.3,75.1,135.9,74.6,135.5,74.1z"/>
</g>
<path class="st6" d="M43.7,87.5v16.3c0,19,12.8,34.5,30.3,39.4v10h40.7v-10c17.5-4.9,30.3-20.4,30.3-39.4V87.5L43.7,87.5L43.7,87.5z
	"/>
<path class="st7" d="M53.1,103.8V87.5h-9.4v16.3c0,19,12.8,34.5,30.3,39.4v10h9.4v-10C65.9,138.3,53.1,122.8,53.1,103.8z"/>
<rect x="83.5" y="102.7" transform="matrix(0.7071 -0.7071 0.7071 0.7071 -52.6226 99.939)" class="st8" width="21.6" height="21.6"/>
<polygon class="st9" points="87.5,113.5 98.6,102.5 94.3,98.2 79,113.5 94.3,128.8 98.6,124.5 "/>
<g>
	<rect x="137.7" y="92.8" class="st0" width="3.3" height="5"/>
	<path class="st0" d="M117.8,134.3l1.4,3c13.4-6.3,21.8-19.3,21.8-33.9v-2.5h-3.3v2.5C137.7,116.8,130,128.6,117.8,134.3z"/>
	<rect x="105" y="146.5" class="st0" width="4.9" height="3.3"/>
	<rect x="78.7" y="146.5" class="st0" width="24.1" height="3.3"/>
</g>
<path class="st10" d="M123.5,77.7l2.8-1.8c-0.5-0.7-0.8-1.7-1.2-2.6c-0.5-1.5-1.1-3.2-2.4-4.4l-2.3,2.3c0.7,0.7,1.1,1.9,1.6,3.2
	C122.4,75.5,122.8,76.7,123.5,77.7z"/>
<path class="st10" d="M104.9,62.9c1.3-0.1,2.6-0.1,3.5,0.2c1,0.4,1.8,1.3,2.7,2.3c0.8,0.9,1.6,1.8,2.7,2.5c1.1,0.7,2.2,1.1,3.4,1.5
	c0.2,0.1,0.5,0.2,0.7,0.3l1.1-3.1c-0.3-0.1-0.5-0.2-0.8-0.3c-1-0.4-1.9-0.7-2.6-1.2c-0.7-0.5-1.4-1.2-2.1-2
	c-1.1-1.2-2.2-2.5-3.9-3.2c-1.6-0.7-3.3-0.6-5-0.5c-1.1,0.1-2.1,0.1-2.9-0.1l-0.6,3.3C102.4,63.1,103.7,63,104.9,62.9z"/>
<path class="st10" d="M150.8,49.4c-0.3-1-1-1.7-1.9-2.2l-1.1-0.6c-0.9-0.4-1.9-0.5-2.9-0.2c-0.9,0.3-1.7,1-2.1,1.9l-10.2,21.7
	c0-0.1-0.1-0.2-0.1-0.3c-0.4-1.1-0.8-2.2-1.4-3.3l9-19.1c0.4-0.9,0.5-1.9,0.1-2.9c-0.4-0.9-1-1.7-2-2.1l-1.2-0.5
	c-0.9-0.4-1.9-0.4-2.9-0.1c-0.9,0.4-1.7,1.1-2.1,2l-7.6,17.9c-0.1,0-0.2-0.1-0.3-0.1c-1.3-0.4-2.5-0.9-3.4-1.5
	c-0.9-0.6-1.8-1.6-2.7-2.6c-1.4-1.5-2.7-3.1-4.7-3.9c-1.9-0.8-4-0.7-6-0.6c-1.4,0.1-2.6,0.1-3.8-0.1c-1.1-0.2-2.2-0.8-3.4-1.3
	c-1.8-0.9-3.7-1.8-5.9-1.8c-2.2,0-4.1,0.9-5.9,1.8c-1.2,0.6-2.3,1.1-3.4,1.3c-1.1,0.2-2.4,0.2-3.8,0.1c-2-0.1-4.1-0.2-6,0.6
	c-2,0.8-3.4,2.4-4.7,3.9c-0.9,1-1.7,1.9-2.7,2.6c-0.9,0.6-2.1,1-3.4,1.5c-1.9,0.7-3.9,1.4-5.4,2.9c-1.5,1.5-2.2,3.5-2.9,5.4
	c-0.4,1.3-0.9,2.5-1.5,3.4c-0.6,0.9-1.6,1.8-2.6,2.7c-1.5,1.4-3.1,2.7-3.9,4.7c-0.7,1.7-0.7,3.5-0.6,5.3H42v17.9
	c0,18.8,12.1,35,30.3,40.7v10.4h44v-10.4c18.2-5.7,30.3-21.9,30.3-40.7V85.8H141c0.1-1.8,0.1-3.6-0.6-5.3c-0.6-1.4-1.5-2.5-2.6-3.5
	l12.8-24.8C151,51.4,151.1,50.3,150.8,49.4z M127.6,63l7.6-17.9c0.1-0.1,0.2-0.2,0.2-0.2c0.1,0,0.2,0,0.3,0l1.2,0.5
	c0.1,0.1,0.2,0.2,0.2,0.2c0,0.1,0,0.2,0,0.3l-8.3,17.7c0,0,0,0,0,0c0,0,0,0-0.1,0c-0.1-0.1-0.2-0.1-0.2-0.2c0,0-0.1-0.1-0.1-0.1
	c-0.1,0-0.1-0.1-0.2-0.1c-0.1,0-0.1-0.1-0.2-0.1c0,0-0.1,0-0.1-0.1C127.8,63.1,127.7,63,127.6,63C127.6,63,127.6,63,127.6,63z
	 M51.3,81.9c0.5-1.3,1.8-2.4,3-3.5c1.1-1,2.3-2,3.1-3.3c0.9-1.3,1.4-2.7,1.9-4.2c0.6-1.6,1.1-3.2,2.1-4.1s2.5-1.5,4.1-2.1
	c1.4-0.5,2.9-1,4.2-1.9c1.3-0.8,2.3-2,3.3-3.1c1.2-1.3,2.2-2.5,3.5-3c0.8-0.3,1.7-0.4,2.7-0.4c0.6,0,1.3,0,1.9,0.1
	c1.5,0.1,3.1,0.2,4.6-0.1c1.5-0.3,2.8-1,4.2-1.6c1.6-0.8,3.1-1.5,4.5-1.5c1.4,0,2.9,0.7,4.5,1.5c1.3,0.6,2.7,1.3,4.2,1.6
	c1.5,0.3,3.1,0.2,4.6,0.1c1.7-0.1,3.3-0.2,4.6,0.3c1.3,0.5,2.4,1.8,3.5,3c1,1.1,2,2.3,3.3,3.1c1.3,0.9,2.7,1.4,4.2,1.9
	c0.6,0.2,1.2,0.4,1.7,0.6c0.1,0.1,0.3,0.1,0.4,0.2c0,0,0,0,0,0c0.1,0,0.2,0.1,0.3,0.1c0,0,0,0,0.1,0c0.2,0.1,0.4,0.2,0.6,0.3
	c0,0,0.1,0,0.1,0.1c0.1,0,0.1,0.1,0.2,0.1c0,0,0.1,0.1,0.1,0.1c0,0,0.1,0.1,0.1,0.1c0,0,0.1,0.1,0.1,0.1c0,0,0.1,0.1,0.1,0.1
	c0,0,0.1,0,0.1,0.1c0.1,0.1,0.1,0.1,0.2,0.2c0.1,0.1,0.1,0.1,0.2,0.2c0.1,0.2,0.3,0.4,0.4,0.6l0.1,0.1c0.6,0.9,1,2,1.4,3.2
	c0.4,1.1,0.8,2.2,1.3,3.3l0,0l0.5,0.8c0,0,0,0.1,0,0.1c0,0,0,0,0,0c0.1,0.2,0.2,0.3,0.4,0.5c0.8,1,1.8,1.9,2.7,2.8l0.6,0.5
	c1.1,1,2,1.9,2.5,3c0.5,1.1,0.4,2.5,0.4,4l-77.7,0c0-1,0-2,0.3-2.7c0.4-1,1.3-1.8,2.3-2.7c0.9-0.8,1.8-1.6,2.5-2.7l-2.8-1.8
	c-0.5,0.7-1.2,1.4-2,2.1c-1.2,1.1-2.5,2.2-3.2,3.9c-0.5,1.3-0.6,2.7-0.5,4H51C50.9,84.4,50.9,83,51.3,81.9z M143.3,103.8
	c0,17.7-11.7,32.9-29.1,37.8L113,142v9.6H75.6v-6.7H104v-3.3H74.2c-10.5-3-18.9-9.8-23.9-18.7h12.8v-3.3H48.7
	c-2.1-4.8-3.3-10.2-3.3-15.8v-7.7H56v-3.3H45.4v-3.7H123v7.5h3.3v-7.5h16.9L143.3,103.8L143.3,103.8z M147.6,50.7l-12.3,24
	c0,0,0,0-0.1-0.1c-0.1-0.1-0.2-0.2-0.3-0.3c0,0-0.1-0.1-0.1-0.1c-0.1-0.1-0.2-0.3-0.4-0.4l11.3-24.1c0.1-0.1,0.2-0.2,0.2-0.2
	c0.1,0,0.2,0,0.3,0l1.1,0.6c0.1,0.1,0.2,0.2,0.2,0.2C147.7,50.5,147.7,50.6,147.6,50.7z"/>
<path class="st10" d="M76.7,113.5l17.6,17.6l17.6-17.6L94.3,95.9L76.7,113.5z M94.3,126.4l-12.9-12.9l12.9-12.9l12.9,12.9
	L94.3,126.4z"/>
</svg>
