<svg id="Calque_1" data-name="Calque 1" xmlns="http://www.w3.org/2000/svg" viewBox="0 0 428.58 615.75"><defs><style>.cls-1{fill:#e5a9b0;stroke-width:3px;}.cls-1,.cls-15{stroke:#231f20;}.cls-1,.cls-15,.cls-26,.cls-3,.cls-30{stroke-miterlimit:10;}.cls-2{font-size:38px;font-family:ArialRoundedMTBold, Arial Rounded MT Bold;}.cls-19,.cls-2{fill:#fff;}.cls-26,.cls-3,.cls-30{fill:none;}.cls-3{stroke:#fff;stroke-width:4px;}.cls-4{fill:#f6c687;}.cls-5{fill:#9b623f;}.cls-6{fill:#231f20;}.cls-7{fill:#3b2417;}.cls-8{fill:#5a3928;}.cls-9{fill:#662d91;}.cls-10{fill:#f7941d;}.cls-11{fill:#7f3f98;}.cls-12{fill:#9b80bb;}.cls-13{fill:#e3a15d;}.cls-14{fill:#be1e2d;}.cls-15,.cls-16{fill:#fff200;}.cls-15{stroke-width:0.25px;}.cls-17{fill:#ef4136;}.cls-18{fill:#ec008c;}.cls-20{fill:#c5a764;}.cls-21{fill:#eedec9;}.cls-22{fill:#754c29;}.cls-23{fill:#8e4831;}.cls-24{fill:#e6cfae;}.cls-25{fill:#9b623d;}.cls-26{stroke:#e09d4b;}.cls-27{fill:#e9b068;}.cls-28{fill:#f5cf98;}.cls-29{fill:#eeb971;}.cls-30{stroke:#7b3920;}.cls-31{fill:#fcdfa5;}.cls-32{fill:#f3c384;}.cls-33{fill:#6b1b1a;}.cls-34{fill:#af2024;}.cls-35{fill:#d34446;}.cls-36{fill:#7b3920;}</style></defs><title>roibonbon</title><rect class="cls-1" x="1.5" y="1.5" width="425.58" height="612.75" rx="12" ry="12"/><text class="cls-2" transform="translate(144.69 107.63)">SUR LE <tspan x="1.98" y="45.6">TRÔNE</tspan></text><rect class="cls-3" x="75.37" y="65.72" width="277.23" height="105.52" rx="12" ry="12"/><polygon class="cls-4" points="175.17 284.36 154.14 328.69 160.74 348.24 203.74 364.55 253.87 361.02 284.22 334.38 276.68 316.57 252.87 284.36 175.17 284.36"/><path class="cls-5" d="M185.11,333.38s5.41-4.59,8.19-5.66,10.16-4.92,11.76-6.31,6.2-6.52,3.74-9.3a12.47,12.47,0,0,0-9.83-4.49c-4.28,0-13.69,3.21-16.15,10.69s-3.53,11.87-2,13.15S182.17,334.34,185.11,333.38Z" transform="translate(-3.85 -6.41)"/><path class="cls-4" d="M286.11,334.43l8,25.92s19.95,1,16.66-19.54S286.11,334.43,286.11,334.43Z" transform="translate(-3.85 -6.41)"/><path class="cls-4" d="M154.76,334.43l-8,25.92s-20,1-16.66-19.54S154.76,334.43,154.76,334.43Z" transform="translate(-3.85 -6.41)"/><polygon class="cls-6" points="217.99 562.69 217.99 566.43 222.61 566.43 222.61 565.21 219.9 562.69 217.99 562.69"/><polygon class="cls-6" points="213.02 562.69 213.02 566.43 208.4 566.43 208.4 565.21 211.12 562.69 213.02 562.69"/><path class="cls-7" d="M242.19,534.61l-11.72,15.7s-3,7.81.87,10.85,7.81,5.86,14.32,6.73c0,0,2.46,1.73,2.1,3.9,0,0-13,2.82-18.41.87s-7.65-2.6-8.36-5.21a25.23,25.23,0,0,1-.56-6.29l-1.27-.22s1.12,4.56-1.7,7.6-6.93,4.41-12.69,4.81-13.94,0-13.94,0,.16-3.94,2.33-4.6c0,0,13.72-2.74,15.44-7.92a1.27,1.27,0,0,0-.92-1.86s2.52-6.11.92-9.17-12.22-14.74-12.22-14.74S228.35,538.55,242.19,534.61Z" transform="translate(-3.85 -6.41)"/><polyline class="cls-8" points="202.52 529.88 207.53 543.4 215.3 543.86 215.46 539.53 216.47 543.91 223.4 543.4 229.12 529.88"/><path class="cls-9" d="M172.19,486v43.27s37.3,16.54,97.6,1.59V481.08L244.27,466l-45.88,1.55Z" transform="translate(-3.85 -6.41)"/><path class="cls-10" d="M207.14,558.17s6.36-2.79,12,1.33c0,0,8.58-2,12.3-1.12,0,0,0-6.36-1-8.07H220.33l-11.73-.51S206.48,554.72,207.14,558.17Z" transform="translate(-3.85 -6.41)"/><path class="cls-11" d="M179,488.54s6,26.67,4.18,36.18c0,0,43.15,11.15,71.92,0,0,0-.24-26,4.17-35.26,0,0-17.63-2.32-22.5-10.44l-17.63,6.27L204.77,479S196.42,489.93,179,488.54Z" transform="translate(-3.85 -6.41)"/><path class="cls-12" d="M197.93,473.84l-3.71,7s2.08,20,11.13,26.26c0,0-3.48,16.89,1.63,25.47l2.33,4.14H234.1s5.5-14.27,4.62-20.22a28.83,28.83,0,0,0-2.86-9.39s10.69-11,11.9-27l-3.42-5.4-24.6,11Z" transform="translate(-3.85 -6.41)"/><ellipse class="cls-13" cx="314.23" cy="520.4" rx="9.8" ry="8.56"/><ellipse class="cls-13" cx="119.17" cy="519.64" rx="9.8" ry="8.56"/><path class="cls-14" d="M179.74,268.14s11.95-17.14,40.59-16.48,40.28,16.48,40.28,16.48-3.07,6.36-20.43,6.37S182.81,275.39,179.74,268.14Z" transform="translate(-3.85 -6.41)"/><path class="cls-15" d="M268.45,299.82s-68.19-11.81-96.39,0c0,0,2.38-12.83-10.35-34.3s-14.23-23.47-14.23-23.47-3.49,1-5.24-3,2.25-7.49,2.25-7.49,5-2.75,7.49,1.25-1.25,8.23-1.25,8.23,22.72,37.2,43.69,28,23.46-42.19,23.46-42.19-3.49.5-4-5.24,7.49-7.24,7.49-7.24a7.1,7.1,0,0,1,6,7c.25,6.24-3.24,5.74-3.24,5.74s2,33.71,19.22,40.45,45.18-25,45.18-25a7.69,7.69,0,0,1-2.25-7c.75-4.49,7.74-3.49,7.74-3.49s4.75,2,3.25,6-4.49,4.24-4.49,4.24-17.23,25-20.72,37.2S268.45,299.82,268.45,299.82Z" transform="translate(-3.85 -6.41)"/><path class="cls-16" d="M184.18,263.27l-3.74-17s-2.75.25-3.75-3.5,3.75-5,3.75-5,2.49-.5,3.74,2.74a3.37,3.37,0,0,1-1.75,4.5s2.75,12,8.24,14.23A29,29,0,0,0,184.18,263.27Z" transform="translate(-3.85 -6.41)"/><path class="cls-16" d="M250.59,259s6.49-7.49,7.49-12.48c0,0-2.5-2-2.5-4s1.75-5.3,4-4.77,4.25,2,3.75,4.52-.25,1.75-2.75,3l-3.58,18Z" transform="translate(-3.85 -6.41)"/><circle class="cls-17" cx="142.96" cy="229.83" r="5.92"/><circle class="cls-17" cx="176.87" cy="235.27" r="4.17"/><circle class="cls-17" cx="217.08" cy="215.06" r="7.12"/><circle class="cls-17" cx="255.92" cy="235.93" r="4.4"/><circle class="cls-17" cx="287.79" cy="230.87" r="5.92"/><path class="cls-10" d="M211.72,270.89s4.91,14.53,8.46,16.06c0,0,6.58-7.27,8.78-15.22,0,0-4.57-12.5-7.61-16.73C221.35,255,213.92,262.78,211.72,270.89Z" transform="translate(-3.85 -6.41)"/><path class="cls-10" d="M176.67,284.57s5.6,6.25,7.7,6.25a24.09,24.09,0,0,0,1.15-9.53s-5-5.31-7.41-6.78C178.11,274.51,176,280,176.67,284.57Z" transform="translate(-3.85 -6.41)"/><path class="cls-10" d="M256.35,280.93s-1,8.26.37,9.84a24.12,24.12,0,0,0,7.86-5.39s.7-7.19.21-10C264.79,275.41,259.32,277.47,256.35,280.93Z" transform="translate(-3.85 -6.41)"/><path class="cls-18" d="M213.81,270.91s3.89,11.49,6.69,12.69c0,0,5.21-5.75,6.94-12,0,0-3.6-9.89-6-13.23C221.43,258.35,215.55,264.49,213.81,270.91Z" transform="translate(-3.85 -6.41)"/><path class="cls-18" d="M178.23,283.87s3.58,4.07,4.94,4.08a15.7,15.7,0,0,0,.8-6.15,37,37,0,0,0-4.76-4.42A16,16,0,0,0,178.23,283.87Z" transform="translate(-3.85 -6.41)"/><path class="cls-18" d="M257.75,282.38s-.24,5.41.73,6.37a15.65,15.65,0,0,0,4.84-3.89,37.32,37.32,0,0,0-.36-6.48A15.8,15.8,0,0,0,257.75,282.38Z" transform="translate(-3.85 -6.41)"/><ellipse class="cls-19" cx="143.69" cy="227.84" rx="2.54" ry="1.99"/><ellipse class="cls-19" cx="176.44" cy="234.55" rx="1.76" ry="1.38"/><ellipse class="cls-19" cx="217.04" cy="210.42" rx="3.5" ry="2.01"/><ellipse class="cls-19" cx="258.85" cy="240.26" rx="2" ry="1.27" transform="translate(-78.83 118.59) rotate(-23.82)"/><ellipse class="cls-19" cx="287.79" cy="227.56" rx="2.54" ry="1.22"/><path class="cls-14" d="M278.37,482.23s-8.81,26.7-5.29,50.76c0,0-2.05,6.17,14.68-5.57,0,0-7.05-17.32-4.7-34,0,0,6.46,22.3,12,28.76,0,0,21.43,2.64,27-21.43,0,0-13.79-17.9-19.66-38.73C302.43,462,291,479,278.37,482.23Z" transform="translate(-3.85 -6.41)"/><path class="cls-14" d="M162.06,482.23s8.8,26.7,5.28,50.76c0,0,2.06,6.17-14.67-5.57,0,0,7-17.32,4.69-34,0,0-6.45,22.3-12,28.76,0,0-21.42,2.64-27-21.43,0,0,13.79-17.9,19.66-38.73C138,462,149.44,479,162.06,482.23Z" transform="translate(-3.85 -6.41)"/><path class="cls-20" d="M143.25,410.92S125.57,433.81,138,462c0,0,12.81,17.61,24.06,20.25,0,0,9.2,20,6.11,52.38a83.3,83.3,0,0,1-15.5-7.19s-6.07-2.64-7.83,2.05,2.13,8.51,6.35,11.45,21.24,12,21.24,12,6.45,1.17,4.69-10.27-1.17-5-1.17-5,5.58-16.43,3.52-28.47-5-24.65-5-24.65,15.26-.58,21.13-11.73C195.61,472.84,152.84,448.83,143.25,410.92Z" transform="translate(-3.85 -6.41)"/><path class="cls-20" d="M296.63,410.92s17.68,22.89,5.26,51.06c0,0-12.82,17.61-24.07,20.25,0,0-9.19,20-6.11,52.38a83,83,0,0,0,15.5-7.19s6.07-2.64,7.83,2.05-2.13,8.51-6.35,11.45-21.24,12-21.24,12-6.45,1.17-4.69-10.27,1.17-5,1.17-5-5.57-16.43-3.52-28.47,5-24.65,5-24.65-15.26-.58-21.13-11.73C244.27,472.84,287,448.83,296.63,410.92Z" transform="translate(-3.85 -6.41)"/><path class="cls-21" d="M295.09,522.14s24.49-10.08,27-25.31c0,0,9.93,5.35,7.66,21.82,0,0-5.35,12.76-13,14.61S298.92,534.68,295.09,522.14Z" transform="translate(-3.85 -6.41)"/><path class="cls-21" d="M145.52,521.82s-24.48-10.08-27-25.31c0,0-9.92,5.35-7.66,21.82,0,0,5.35,12.76,13,14.61S141.69,534.36,145.52,521.82Z" transform="translate(-3.85 -6.41)"/><path class="cls-21" d="M244.27,534.61l-6.13,6.9s17.88-.85,25.88-5.13l-1.33-5.32S248.81,534.8,244.27,534.61Z" transform="translate(-3.85 -6.41)"/><path class="cls-21" d="M198.17,534.61l6.6,6.9s-19.27-.85-27.89-5.13l1.44-5.32S193.27,534.8,198.17,534.61Z" transform="translate(-3.85 -6.41)"/><polygon class="cls-21" points="119.17 523.96 119.17 523.96 119.17 523.96 119.17 523.96 119.17 523.96"/><path class="cls-22" d="M179,506.67s63.57,2.14,82.82,0V511s-47.32,8.12-82.82,0Z" transform="translate(-3.85 -6.41)"/><ellipse class="cls-16" cx="216.47" cy="504.25" rx="12.64" ry="5.41"/><path class="cls-5" d="M254.26,333.27s-5.41-4.59-8.19-5.66-10.16-4.92-11.76-6.31-6.2-6.52-3.74-9.3a12.47,12.47,0,0,1,9.83-4.49c4.28,0,13.69,3.21,16.15,10.69s3.53,11.87,2,13.15S257.2,334.23,254.26,333.27Z" transform="translate(-3.85 -6.41)"/><path class="cls-23" d="M253.5,331.39s-4.56-3.87-6.91-4.78-8.57-4.15-9.92-5.32-5.23-5.5-3.16-7.85a10.55,10.55,0,0,1,8.3-3.79c3.61,0,11.55,2.71,13.62,9s3,10,1.72,11.09S256,332.2,253.5,331.39Z" transform="translate(-3.85 -6.41)"/><circle class="cls-6" cx="241.47" cy="331.58" r="5.52"/><path class="cls-23" d="M186.63,330.44s4.56-3.87,6.9-4.78a59.94,59.94,0,0,0,9.93-5.32c1.35-1.17,5.23-5.5,3.16-7.85a10.56,10.56,0,0,0-8.3-3.79c-3.61,0-11.55,2.71-13.63,9s-3,10-1.71,11.09S184.14,331.25,186.63,330.44Z" transform="translate(-3.85 -6.41)"/><circle class="cls-19" cx="243.23" cy="328.69" r="1.38"/><circle class="cls-19" cx="245.36" cy="330.7" r="0.75"/><path class="cls-19" d="M241.31,337.86s.71,4.45,4.09,4.33A5.31,5.31,0,0,0,250,339s-.57,3.89-4.27,3.89-4.39-4.27-4.39-4.65" transform="translate(-3.85 -6.41)"/><circle class="cls-6" cx="191.31" cy="331.58" r="5.52"/><circle class="cls-19" cx="193.07" cy="328.69" r="1.38"/><circle class="cls-19" cx="195.2" cy="330.7" r="0.75"/><path class="cls-19" d="M191.15,337.86s.72,4.45,4.09,4.33a5.29,5.29,0,0,0,4.57-3.2s-.56,3.89-4.27,3.89-4.39-4.27-4.39-4.65" transform="translate(-3.85 -6.41)"/><path class="cls-19" d="M133.57,338s2.18-8.63,9.67-6.79a40.48,40.48,0,0,1,11.52,4.46s-10-1.9-13.42-1.6-7.14,6.42-7.14,6.42S131.53,342.1,133.57,338Z" transform="translate(-3.85 -6.41)"/><path class="cls-19" d="M307.77,338.6s-2.17-8.64-9.67-6.79a40.48,40.48,0,0,0-11.52,4.46s10-1.9,13.42-1.61,7.14,6.43,7.14,6.43S309.81,342.71,307.77,338.6Z" transform="translate(-3.85 -6.41)"/><path class="cls-23" d="M172.06,299.58s-12.55,14.86-18,33.72-18.73,68.44-7.4,87.44,29.67,45.59,72.49,62.67c0,0,59.43-19.77,76.4-69,0,0,8.68-41.83-13.13-94.17l-14-20.67L257,297.87s6.22,26.36,22.54,32.89c0,0-1.09,11.63-3.83,14.11,0,0-3.24-7.71-6.59-3.11s-8.59,14.18-14.31,15.43-8.08,2.74-12.31,1l-7.37,3.25s-5.35,9.56-14.49,8.8S205.7,364,205,361.94l-6.29-3.27s-14.35,2.26-20.5-7.29-8.66-11.32-8.66-11.32a8.38,8.38,0,0,0-4,4.92s-4.52-3.79-3.06-14.27c0,0,19.33-16.5,21.17-34.39Z" transform="translate(-3.85 -6.41)"/><path class="cls-24" d="M257.73,473.93s36-33.06,39.54-44.5c0,0,3.13,20.25-8.16,36.52S257.73,473.93,257.73,473.93Z" transform="translate(-3.85 -6.41)"/><path class="cls-24" d="M181.74,473.93s-36-33.06-39.54-44.5c0,0-3.14,20.25,8.15,36.52S181.74,473.93,181.74,473.93Z" transform="translate(-3.85 -6.41)"/><path class="cls-25" d="M142.92,381s4.53,67.86,76.79,93.19c0,0,70.21-24.9,75.27-94.91,0,0,23,63.51-75.27,107.13C219.71,486.37,130.9,460,142.92,381Z" transform="translate(-3.85 -6.41)"/><path class="cls-26" d="M233.87,323s-4.31,15.09,0,26.72" transform="translate(-3.85 -6.41)"/><path class="cls-26" d="M207.59,323.12s4.31,15.08,0,26.72" transform="translate(-3.85 -6.41)"/><ellipse class="cls-27" cx="216.79" cy="353" rx="15.69" ry="11.55"/><ellipse class="cls-28" cx="216.79" cy="348.24" rx="7.71" ry="3.75"/><path class="cls-29" d="M233,352.18s4.17,6.46,1.77,10.21c0,0,8,1.2,7-7.32S233,352.18,233,352.18Z" transform="translate(-3.85 -6.41)"/><path class="cls-29" d="M208.55,352.18s-4.17,6.46-1.77,10.21c0,0-8,1.2-7-7.32S208.55,352.18,208.55,352.18Z" transform="translate(-3.85 -6.41)"/><path class="cls-30" d="M231.74,425.64s4.71,15.74-2.83,27.89-8.26,16.17-8.26,16.17-6.83-10.27-9.66-18.15-7.55-16.25-2.36-23.84" transform="translate(-3.85 -6.41)"/><path class="cls-27" d="M185.09,388.12H254s3.18,41.58-30.19,41.85S185.09,388.12,185.09,388.12Z" transform="translate(-3.85 -6.41)"/><polygon class="cls-31" points="184.96 380.19 184.96 385.76 184.96 388.82 248.79 390.88 248.79 380.19 184.96 380.19"/><ellipse class="cls-32" cx="218.54" cy="413.23" rx="8.3" ry="2.38"/><path class="cls-33" d="M188.81,393.69s31.26,49.53,63.84,0c0,0-3.53,6-8.45,0,0,0-6.19,7.82-12-1.75,0,0-5.7,7.32-11.22,2.11,0,0-6.22,5.49-12.27-2.11,0,0-5.21,10-10.56,1.69C198.19,393.63,194.3,399.52,188.81,393.69Z" transform="translate(-3.85 -6.41)"/><path class="cls-34" d="M202.34,408.16s2.33-9.73,10.16-10,8.14,2.83,8.14,2.83,3.1.74,4.25-1.24,6.53-1.52,6.53-1.52a14.16,14.16,0,0,1,8.92,10.08S220.23,419.63,202.34,408.16Z" transform="translate(-3.85 -6.41)"/><path class="cls-35" d="M219.9,403s-5.8-.1-5.81,3.19,5.81,4.26,5.81,4.26h7.49s3.73-1.1,3.31-4.26-7.49-3.56-7.49-3.56-1.87,2.61-2.48.48" transform="translate(-3.85 -6.41)"/><path class="cls-36" d="M242.22,360.35s13.86,3.3,22.1-9.24,11.22-5.27,11.22-5.27,9.24,26.72-8.25,36.94-30.68,7.59-30.68,7.59-12.81-4.95-15.48-15.83c0,0-6.62,18.09-23.77,16.14S168,376.52,168,376.52s-10.89-14.74,0-32.77c0,0,2-4.84,6.93,3.74,0,0,6.92,15.83,25.07,13.19l6.27,1.65s2.35,8.58,14.86,7.59,14.16-6.27,14.16-6.27Z" transform="translate(-3.85 -6.41)"/><path class="cls-30" d="M186.4,402.59s-16.51,17.28,14.15,61.91" transform="translate(-3.85 -6.41)"/><path class="cls-30" d="M168.17,373.41s-17.11,26.88-7.08,46.23" transform="translate(-3.85 -6.41)"/><path class="cls-30" d="M256.93,389.21s11.48,19.44-9.85,69.63" transform="translate(-3.85 -6.41)"/><path class="cls-30" d="M275.86,373.41s13.67,26.88,5.66,46.23" transform="translate(-3.85 -6.41)"/></svg>