<?xml version="1.0" encoding="utf-8"?>
<!-- Generator: Adobe Illustrator 22.0.1, SVG Export Plug-In . SVG Version: 6.00 Build 0)  -->
<svg version="1.1" id="Calque_1" xmlns="http://www.w3.org/2000/svg" xmlns:xlink="http://www.w3.org/1999/xlink" x="0px" y="0px"
	 viewBox="0 0 200 200" style="enable-background:new 0 0 200 200;" xml:space="preserve">
<style type="text/css">
	.st0{fill:#D8C3DF;}
	.st1{fill:#FFFFFF;}
	.st2{fill:none;stroke:#010101;stroke-miterlimit:10;}
	.st3{fill:#F7CF42;}
	.st4{fill:#010101;}
</style>
<g id="XMLID_1_">
	<g>
		<path class="st0" d="M172.1,16.1c6.6,0,12,5.4,12,12V172c0,6.6-5.4,12-12,12H28.2c-6.6,0-12-5.4-12-12V28.1c0-6.6,5.4-12,12-12
			H172.1z"/>
		<path class="st1" d="M184.1,28.1c0-6.6-5.4-12-12-12H28.2c-6.6,0-12,5.4-12,12V172c0,6.6,5.4,12,12,12h143.9c6.6,0,12-5.4,12-12
			L184.1,28.1L184.1,28.1z M18.4,6.4h163.1c6.6,0,12,5.4,12,12v163.1c0,6.6-5.4,12-12,12H18.4c-6.6,0-12-5.4-12-12V18.4
			C6.4,11.8,11.8,6.4,18.4,6.4z"/>
	</g>
	<g>
		<path class="st2" d="M172.1,183.9H28.2c-6.6,0-12-5.4-12-12V28.1c0-6.6,5.4-12,12-12h143.9c6.6,0,12,5.4,12,12V172
			C184.1,178.5,178.7,183.9,172.1,183.9z"/>
		<path class="st2" d="M181.6,193.6H18.4c-6.6,0-12-5.4-12-12V18.4c0-6.6,5.4-12,12-12h163.1c6.6,0,12,5.4,12,12v163.1
			C193.6,188.2,188.2,193.6,181.6,193.6z"/>
	</g>
</g>
<g>
	<path class="st3" d="M149,67.6c-0.9,3.2-2.2,6.8-4.1,10.6c-5.8,11.9-15.6,25.1-27.7,37.2c-16.3,16.3-34.3,28.2-47.6,31.8
		c1.1,0.1,2.2,0.2,3.4,0.2c15.7,0,35.2-9.7,50.8-25.3C141.1,104.7,150.6,82.8,149,67.6z"/>
	<path class="st3" d="M51.4,129.1c0.9-3.2,2.2-6.8,4.1-10.6c5.8-11.9,15.6-25.1,27.7-37.2c16.3-16.3,34.3-28.2,47.6-31.8
		c-1.1-0.1-2.2-0.2-3.4-0.2c-15.7,0-35.2,9.7-50.8,25.3C59.3,92,49.8,113.9,51.4,129.1z"/>
	<path class="st1" d="M56.9,141.7C56.9,141.7,56.9,141.7,56.9,141.7c1.1,1.1,2.9,1.6,5.2,1.6c9.7,0,30-9.9,51.6-31.5
		c11.7-11.7,21.2-24.4,26.8-35.8c4.9-10,6-18,3.1-21c0,0,0,0,0,0c-1.1-1.1-2.8-1.6-5.2-1.6c-9.7,0-30,9.9-51.6,31.5
		C75,96.6,65.5,109.3,59.9,120.7C55.1,130.7,53.9,138.7,56.9,141.7C56.9,141.7,56.9,141.7,56.9,141.7z"/>
	<path class="st4" d="M147,51.5c-4.6-4.6-11.4-7.1-19.6-7.1c-17,0-37.8,10.3-54.4,26.8c-25.4,25.4-34.4,59.3-19.7,74
		c4.6,4.6,11.4,7.1,19.6,7.1c0,0,0,0,0,0c17,0,37.8-10.3,54.4-26.8C152.7,100.1,161.7,66.2,147,51.5z M59.9,120.7
		c5.6-11.4,15.1-24.1,26.8-35.8c21.6-21.6,41.9-31.5,51.6-31.5c2.3,0,4.1,0.5,5.2,1.6c0,0,0,0,0,0c3,3,1.8,11-3.1,21
		c-5.6,11.4-15.1,24.1-26.8,35.8C92,133.5,71.7,143.3,62,143.3c-2.3,0-4-0.5-5.1-1.6c0,0,0,0-0.1-0.1c0,0,0,0,0,0
		C53.9,138.7,55.1,130.7,59.9,120.7z M130.8,49.6c-13.2,3.6-31.3,15.5-47.6,31.8c-12.1,12.1-21.9,25.3-27.7,37.2
		c-1.9,3.8-3.2,7.4-4.1,10.6c-1.6-15.2,7.9-37.1,25.2-54.4c15.6-15.6,35.1-25.3,50.8-25.3C128.6,49.4,129.7,49.5,130.8,49.6z
		 M69.6,147.1c13.2-3.6,31.3-15.5,47.6-31.8c12.1-12.1,21.9-25.3,27.7-37.2c1.9-3.8,3.2-7.4,4.1-10.6c1.6,15.2-7.9,37.1-25.2,54.4
		c-15.6,15.6-35.1,25.3-50.8,25.3C71.8,147.3,70.7,147.3,69.6,147.1z"/>
</g>
</svg>
