<?xml version="1.0" encoding="utf-8"?>
<!-- Generator: Adobe Illustrator 22.0.1, SVG Export Plug-In . SVG Version: 6.00 Build 0)  -->
<svg version="1.1" id="Calque_1" xmlns="http://www.w3.org/2000/svg" xmlns:xlink="http://www.w3.org/1999/xlink" x="0px" y="0px"
	 viewBox="0 0 200 200" style="enable-background:new 0 0 200 200;" xml:space="preserve">
<style type="text/css">
	.st0{fill:#D8C3DF;}
	.st1{fill:#FFFFFF;}
	.st2{fill:none;stroke:#010101;stroke-miterlimit:10;}
	.st3{fill:#CF3A27;}
	.st4{fill:#F7CF42;}
	.st5{fill:#7A4E34;}
	.st6{fill:#010101;}
</style>
<g id="XMLID_1_">
	<g>
		<path class="st0" d="M172,15.3c6.6,0,12,5.4,12,12v143.9c0,6.6-5.4,12-12,12H28.1c-6.6,0-12-5.4-12-12V27.3c0-6.6,5.4-12,12-12
			H172z"/>
		<path class="st1" d="M184,27.3c0-6.6-5.4-12-12-12H28.1c-6.6,0-12,5.4-12,12v143.9c0,6.6,5.4,12,12,12H172c6.6,0,12-5.4,12-12
			L184,27.3L184,27.3z M18.3,5.6h163.1c6.6,0,12,5.4,12,12v163.1c0,6.6-5.4,12-12,12H18.3c-6.6,0-12-5.4-12-12V17.6
			C6.3,11,11.7,5.6,18.3,5.6z"/>
	</g>
	<g>
		<path class="st2" d="M172,183.1H28.1c-6.6,0-12-5.4-12-12V27.3c0-6.6,5.4-12,12-12H172c6.6,0,12,5.4,12,12v143.9
			C184,177.7,178.6,183.1,172,183.1z"/>
		<path class="st2" d="M181.5,192.8H18.3c-6.6,0-12-5.4-12-12V17.6c0-6.6,5.4-12,12-12h163.1c6.6,0,12,5.4,12,12v163.1
			C193.5,187.4,188.1,192.8,181.5,192.8z"/>
	</g>
</g>
<polygon class="st3" points="136.4,156.6 136.4,156.4 136.1,156.6 "/>
<g>
	<path class="st4" d="M123.9,92.6c0,0,0-0.1,0.1-0.1c1.4-2.9,2.3-5.3,2.4-7.2c0.1-2-0.5-4.2-5.7-7c-2.4-1.3-4.4-2-6-2
		c-0.3,0-0.5,0-0.8,0.1c0.5,0.4,1,0.9,1.5,1.4c1,1,1,2.6,0,3.6c-1,1-2.6,1-3.6,0c-0.8-0.8-1.5-1.4-2.4-2c-1.7,2.1-3.6,5.3-5.9,9.6
		c-3.7,6.9-5,11.2-4.2,14c0.6,1.9,2.1,3.5,5,5c2.1,1.1,3.8,1.7,5.3,1.7c3.5,0,6.7-3.3,11.1-11.3C122.1,96.2,123.1,94.3,123.9,92.6z"
		/>
	<path class="st5" d="M126.9,68.8c1.1,0.4,2.2,0.6,3.4,0.6c4,0,7.6-2.5,9-6.2c0.9-2.4,0.8-5-0.3-7.3c-1.1-2.3-3-4.1-5.4-5
		c-1.1-0.4-2.2-0.6-3.3-0.6c-4,0-7.6,2.5-9,6.2C119.5,61.4,122,67,126.9,68.8z"/>
	<path class="st6" d="M150.9,104.5c-0.3-1.4-1.6-2.2-3-1.9c-7.6,1.6-14.7-1.8-18.8-9.1c1.4-3,2.2-5.6,2.3-8
		c0.3-6.2-4.6-9.6-8.3-11.6c-3.2-1.7-5.9-2.6-8.4-2.6c-2.3,0-4.2,0.7-5.9,1.9c-4-1.7-8.2-1.8-12-0.3c-6.1,2.5-9.8,9-9.8,17.2
		c0,1.4,1.1,2.5,2.5,2.5c1.4,0,2.5-1.1,2.5-2.5c0-6.3,2.4-10.8,6.7-12.6c1.9-0.8,4-0.9,6.1-0.4c-2,2.6-3.8,5.9-5.6,9.4
		c-4.5,8.3-5.9,13.5-4.6,17.9c0.2,0.7,0.5,1.4,0.9,2.1c-4.4,4.8-19.8,21.7-31.4,34.1c-0.4,0.5-0.7,1.1-0.7,1.7v7.9
		c0,1.4,1.1,2.5,2.5,2.5s2.5-1.1,2.5-2.5v-6.9c11.3-12,25.7-27.8,30.4-33c0.9,0.7,2,1.4,3.2,2.1c2.5,1.3,4.7,2.1,6.7,2.3
		c5.3,2.6,6.1,7.8,5.2,11.4c-1,4.2-5.1,9.1-13,8.7c-0.7,0-1.4,0.2-1.9,0.8c-0.5,0.5-0.8,1.2-0.7,1.9l0.5,8.4
		c0.1,1.3,1.2,2.4,2.5,2.4c0.1,0,0.1,0,0.2,0c1.4-0.1,2.4-1.3,2.3-2.7l-0.4-5.7c8.6-0.7,13.8-6.5,15.3-12.5
		c1.3-5.3-0.2-10.5-3.7-14.1c4.1-2.4,7.3-7.3,10.1-12.5c0.4-0.7,0.8-1.4,1.1-2c2.1,2.9,4.7,5.2,7.7,6.8c3.1,1.7,6.5,2.5,10.1,2.5
		c1.6,0,3.2-0.2,4.8-0.5C150.3,107.2,151.2,105.8,150.9,104.5z M109.8,109.7c-1.5,0-3.2-0.6-5.3-1.7c-2.9-1.5-4.4-3.1-5-5
		c-0.8-2.9,0.4-7.2,4.2-14c2.4-4.3,4.2-7.5,5.9-9.6c0.8,0.6,1.6,1.2,2.4,2c1,1,2.6,1,3.6,0c1-1,1-2.6,0-3.6c-0.5-0.5-1-1-1.5-1.4
		c0.3,0,0.5-0.1,0.8-0.1c1.6,0,3.5,0.6,6,2c5.2,2.8,5.8,5,5.7,7c-0.1,1.9-1,4.3-2.4,7.2c0,0,0,0.1-0.1,0.1c-0.8,1.7-1.9,3.6-3,5.7
		C116.6,106.4,113.3,109.7,109.8,109.7z"/>
	<path class="st6" d="M45.7,84.9h34.7c1.4,0,2.5-1.1,2.5-2.5c0-1.4-1.1-2.5-2.5-2.5H45.7c-1.4,0-2.5,1.1-2.5,2.5
		C43.2,83.8,44.3,84.9,45.7,84.9z"/>
	<path class="st6" d="M45.7,95.5h34.4c1.4,0,2.5-1.1,2.5-2.5c0-1.4-1.1-2.5-2.5-2.5H45.7c-1.4,0-2.5,1.1-2.5,2.5
		C43.2,94.4,44.3,95.5,45.7,95.5z"/>
	<path class="st6" d="M89.3,103.5c0-1.4-1.1-2.5-2.5-2.5H45.7c-1.4,0-2.5,1.1-2.5,2.5c0,1.4,1.1,2.5,2.5,2.5h41.1
		C88.2,106,89.3,104.9,89.3,103.5z"/>
	<path class="st6" d="M125.2,73.5c1.6,0.6,3.4,0.9,5.1,0.9c6.1,0,11.5-3.8,13.7-9.5c1.4-3.6,1.2-7.6-0.4-11.1
		c-1.6-3.6-4.5-6.3-8.2-7.6c-1.6-0.6-3.4-0.9-5.1-0.9c-6.1,0-11.6,3.8-13.7,9.5C113.8,62.3,117.6,70.7,125.2,73.5z M121.3,56.5
		c1.4-3.7,5-6.2,9-6.2c1.1,0,2.3,0.2,3.3,0.6c2.4,0.9,4.3,2.7,5.4,5c1.1,2.3,1.2,4.9,0.3,7.3c-1.4,3.7-5,6.2-9,6.2
		c-1.1,0-2.3-0.2-3.4-0.6C122,67,119.5,61.4,121.3,56.5z"/>
</g>
</svg>
