<svg id="Calque_1" data-name="Calque 1" xmlns="http://www.w3.org/2000/svg" viewBox="0 0 188.14 188.14"><defs><style>.cls-1{fill:#fff;}.cls-2{fill:#f9bcc4;}.cls-3{fill:none;}.cls-3,.cls-7{stroke:#231f20;stroke-miterlimit:10;}.cls-4{fill:#d6e590;}.cls-5{fill:#a7d16a;}.cls-6,.cls-7{fill:#010101;}.cls-7{stroke-width:0.5px;}</style></defs><title>salade</title><path class="cls-1" d="M193.57,18.43V181.57a12,12,0,0,1-12,12H18.43a12,12,0,0,1-12-12V18.43a12,12,0,0,1,12-12H181.57A12,12,0,0,1,193.57,18.43Zm-9.51,153.5V28.07a12,12,0,0,0-12-12H28.2a12,12,0,0,0-12,12V171.93a12,12,0,0,0,12,12H172.06A12,12,0,0,0,184.06,171.93Z" transform="translate(-5.93 -5.93)"/><rect class="cls-2" x="10.27" y="10.14" width="167.86" height="167.86" rx="12" ry="12"/><rect class="cls-3" x="10.27" y="10.14" width="167.86" height="167.86" rx="12" ry="12"/><rect class="cls-3" x="0.5" y="0.5" width="187.14" height="187.14" rx="12" ry="12"/><path class="cls-4" d="M147.93,132.56A49.22,49.22,0,0,0,137.67,59.7a49.23,49.23,0,0,0-79.19,3.19,49.27,49.27,0,0,0-16.15,49.9Z" transform="translate(-5.93 -5.93)"/><path class="cls-5" d="M149,101a21.28,21.28,0,0,0-13.67-19.87,4.07,4.07,0,0,1-2.63-3.83v0A18.36,18.36,0,0,0,114.36,58.9c-.35,0-.71,0-1.06,0a31.56,31.56,0,0,1-14.47-2.8,16.46,16.46,0,0,0-22.06,9.5,3.25,3.25,0,0,1-3,2.15H73.6a24,24,0,0,0-24,24,23.77,23.77,0,0,0,1,6.74,24,24,0,0,0,13.24,43.3c2.58.11-.68,6.37,1.67,5.72,3.37,9.19,17.94,9.18,28.29,9.18a24,24,0,0,0,9-1.74,60.68,60.68,0,0,1,22.73-4.47h.29a21.94,21.94,0,0,0,21.08-26.84,28.43,28.43,0,0,1,1-15.71A21.35,21.35,0,0,0,149,101Z" transform="translate(-5.93 -5.93)"/><path class="cls-4" d="M89.81,128.16a100.11,100.11,0,0,0,8.88-14.51c5.69-1.56,13.33-4.16,19.17-10.73a1.82,1.82,0,0,0-2.21-2.81,30.53,30.53,0,0,1-12.7,3.36,72.46,72.46,0,0,0,4-23.36,2.61,2.61,0,0,0-5.1-.8,106.09,106.09,0,0,1-15.33,30,31.88,31.88,0,0,0-8.07-16.54,1.81,1.81,0,0,0-2.93,2.08,39.73,39.73,0,0,1,4.37,22.81c-2.79,3.21-5.61,6.12-8.33,8.72a15.49,15.49,0,0,0-3.7-8.61,2.56,2.56,0,0,0-4.31,2.48,28.6,28.6,0,0,1,.13,13.09C55.88,139.7,52,141.5,52,141.5c-.93,5.72,5.33,12.37,13.32,11.86A116.74,116.74,0,0,0,81.81,138c9.06.71,26,.6,39.21-4.71a2.27,2.27,0,0,0-1.13-4.35C102.88,131,93.85,129.41,89.81,128.16Z" transform="translate(-5.93 -5.93)"/><path class="cls-6" d="M75.42,49.82a2.45,2.45,0,0,0,1.16-.3l0,0a2.41,2.41,0,1,0-1.21.33Z" transform="translate(-5.93 -5.93)"/><path class="cls-7" d="M162.06,100.7a51.6,51.6,0,0,0-22.74-42.8A51.71,51.71,0,0,0,83.84,41.18a2.41,2.41,0,0,0,1.44,4.61,46.9,46.9,0,0,1,47.89,12.42A6.32,6.32,0,0,1,129.74,63a20.24,20.24,0,0,1-2.84,1,20.63,20.63,0,0,0-12.54-4.22c-.39,0-.8,0-1.19,0A29.06,29.06,0,0,1,99.8,57.26,18.88,18.88,0,0,0,75,67a13,13,0,0,1-4.15-4,2.41,2.41,0,1,0-4,2.66A18.74,18.74,0,0,0,69.7,69a26.42,26.42,0,0,0-21.88,32,26.41,26.41,0,0,0-4.32,4.65,48,48,0,0,1-.26-5A46.73,46.73,0,0,1,60,64.74a2.08,2.08,0,0,0,.45-.49,47.2,47.2,0,0,1,9-9.86,2.41,2.41,0,1,0-3.08-3.72,52.08,52.08,0,0,0-9.68,10.59,51.5,51.5,0,0,0-18.27,39.4,52.14,52.14,0,0,0,1.41,12,26.4,26.4,0,0,0,9.71,30,12.16,12.16,0,0,0,3.34,8,15.81,15.81,0,0,0,11.64,5.11h0c8.63,6.69,19.55,6.69,29.22,6.69a26.23,26.23,0,0,0,9.92-1.93,57.47,57.47,0,0,1,21.7-4.27h.4a24.4,24.4,0,0,0,23.93-22.08l.06-.07A51.68,51.68,0,0,0,162.06,100.7ZM137,62.14a46.79,46.79,0,0,1,12.31,64.68c0-.12,0-.23-.07-.34a26,26,0,0,1,.95-14.38,23.7,23.7,0,0,0-13.93-29.87,1.67,1.67,0,0,1-1.08-1.57V80.6a20.67,20.67,0,0,0-4.4-12.76A10.49,10.49,0,0,0,137,62.14Zm-80.5,85.31A7.62,7.62,0,0,1,54.37,143a84.68,84.68,0,0,0,10.87-7.79,2.41,2.41,0,0,0,.84-1.38,31.14,31.14,0,0,0-.17-14.24c0-.09,0-.1,0-.13s.14-.09.16-.08a.18.18,0,0,1,.07.06,13.18,13.18,0,0,1,3.06,7.26,2.41,2.41,0,0,0,4.06,1.43c3-2.85,5.83-5.84,8.48-8.89a2.47,2.47,0,0,0,.58-1.32A42.49,42.49,0,0,0,79.8,98.37a29.14,29.14,0,0,1,4.36,11.25,2.42,2.42,0,0,0,4.35,1.08A108.6,108.6,0,0,0,104.18,80c0-.12.06-.13.11-.13a.33.33,0,0,1,.26.06.26.26,0,0,1,0,.13,70.57,70.57,0,0,1-3.9,22.59,2.42,2.42,0,0,0,2.38,3.2,33.61,33.61,0,0,0,10.66-2.24c-4.84,4.26-10.56,6.27-15.66,7.67a2.38,2.38,0,0,0-1.52,1.25,98.57,98.57,0,0,1-8.67,14.17,2.39,2.39,0,0,0-.34,2.18,2.44,2.44,0,0,0,1.58,1.55c4,1.22,13,2.93,29.89,1-11.49,4.27-26.53,4.94-37,4.11a2.41,2.41,0,0,0-2,.78A114.06,114.06,0,0,1,64.49,151,10.92,10.92,0,0,1,56.45,147.45ZM145,132.36a19.63,19.63,0,0,1-19.26,19.09h-.34a62.19,62.19,0,0,0-23.51,4.64,21.61,21.61,0,0,1-8.12,1.57c-8.14,0-17.26,0-24.39-4.39a119.18,119.18,0,0,0,13.45-12.82c6.7.44,24.48.9,39.1-5a4.68,4.68,0,0,0-2.32-9c-12.92,1.61-21,1-25.75.15a102.45,102.45,0,0,0,6.53-11c6.07-1.74,13.5-4.64,19.3-11.16A4.23,4.23,0,0,0,114.53,98a27.7,27.7,0,0,1-8.16,2.71,74.66,74.66,0,0,0,3-20.57,5,5,0,0,0-9.82-1.55,102.13,102.13,0,0,1-12,24.93,34.24,34.24,0,0,0-7.36-12.4A4.23,4.23,0,0,0,73.42,96a37.37,37.37,0,0,1,4.17,20.66c-1.49,1.69-3,3.37-4.65,5a15.37,15.37,0,0,0-3.3-5.55,5,5,0,0,0-8.38,4.8A25.51,25.51,0,0,1,61.51,132a82,82,0,0,1-9.35,6.68,21.72,21.72,0,0,1-7.66-24.84,1.93,1.93,0,0,0,.15-.4,21.49,21.49,0,0,1,4.8-7.43,17.59,17.59,0,0,0,5.83,6.85,2.42,2.42,0,0,0,2.57-4.09,12.92,12.92,0,0,1-5-7.43s0,0,0,0l0-.1A21.62,21.62,0,0,1,73.6,73.54h.13A5.66,5.66,0,0,0,79,69.79a14.06,14.06,0,0,1,13.2-9.27,13.84,13.84,0,0,1,5.62,1.17,34,34,0,0,0,15.58,3c.31,0,.62,0,.92,0A16,16,0,0,1,130.3,80.61v0a6.47,6.47,0,0,0,4.18,6.09,19,19,0,0,1,12.12,17.62,18.71,18.71,0,0,1-1,6.17,30.86,30.86,0,0,0-1.09,17A19.77,19.77,0,0,1,145,132.36Z" transform="translate(-5.93 -5.93)"/><path class="cls-6" d="M138.69,110.66a2.36,2.36,0,0,1-.78-.13,2.42,2.42,0,0,1-1.5-3.07l0-.09a2.42,2.42,0,0,1,4.57,1.57l0,.09A2.42,2.42,0,0,1,138.69,110.66Z" transform="translate(-5.93 -5.93)"/><path class="cls-6" d="M125.64,146.62a2.42,2.42,0,0,1,0-4.83,9.89,9.89,0,0,0,9.71-9.62,10.28,10.28,0,0,0-.25-2.43,38.83,38.83,0,0,1-.79-12.48,2.41,2.41,0,0,1,4.8.46,34.36,34.36,0,0,0,.69,10.93,14.6,14.6,0,0,1,.38,3.62,14.76,14.76,0,0,1-14.48,14.35Z" transform="translate(-5.93 -5.93)"/></svg>