<?xml version="1.0" encoding="utf-8"?>
<!-- Generator: Adobe Illustrator 22.0.1, SVG Export Plug-In . SVG Version: 6.00 Build 0)  -->
<svg version="1.1" id="Calque_1" xmlns="http://www.w3.org/2000/svg" xmlns:xlink="http://www.w3.org/1999/xlink" x="0px" y="0px"
	 viewBox="0 0 200 200" style="enable-background:new 0 0 200 200;" xml:space="preserve">
<style type="text/css">
	.st0{fill:#D8C3DF;}
	.st1{fill:#FFFFFF;}
	.st2{fill:none;stroke:#010101;stroke-miterlimit:10;}
	.st3{fill:#73C7AC;}
	.st4{fill:#010101;}
</style>
<g id="XMLID_1_">
	<g>
		<path class="st0" d="M172.1,16.1c6.6,0,12,5.4,12,12V172c0,6.6-5.4,12-12,12H28.2c-6.6,0-12-5.4-12-12V28.1c0-6.6,5.4-12,12-12
			H172.1z"/>
		<path class="st1" d="M184.1,28.1c0-6.6-5.4-12-12-12H28.2c-6.6,0-12,5.4-12,12V172c0,6.6,5.4,12,12,12h143.9c6.6,0,12-5.4,12-12
			L184.1,28.1L184.1,28.1z M18.4,6.4h163.1c6.6,0,12,5.4,12,12v163.1c0,6.6-5.4,12-12,12H18.4c-6.6,0-12-5.4-12-12V18.4
			C6.4,11.8,11.8,6.4,18.4,6.4z"/>
	</g>
	<g>
		<path class="st2" d="M172.1,183.9H28.2c-6.6,0-12-5.4-12-12V28.1c0-6.6,5.4-12,12-12h143.9c6.6,0,12,5.4,12,12V172
			C184.1,178.5,178.7,183.9,172.1,183.9z"/>
		<path class="st2" d="M181.6,193.6H18.4c-6.6,0-12-5.4-12-12V18.4c0-6.6,5.4-12,12-12h163.1c6.6,0,12,5.4,12,12v163.1
			C193.6,188.2,188.2,193.6,181.6,193.6z"/>
	</g>
</g>
<g>
	<path class="st3" d="M147.5,51.8c-3.5-3.5-8.2-5.5-13.2-5.5c-5,0-9.6,1.9-13.2,5.5c-3.6,3.6-7.8,8.7-12.2,14.1
		c-5.6,6.9-12,14.7-19,21.7c-7,7-14.8,13.4-21.7,19c-5.4,4.4-10.5,8.6-14.1,12.2c-7.3,7.3-7.3,19.1,0,26.3c3.5,3.5,8.2,5.5,13.2,5.5
		s9.6-1.9,13.2-5.5c3.6-3.6,7.8-8.7,12.2-14.1c5.6-6.9,12-14.7,19-21.7c7-7,14.8-13.4,21.7-19c5.4-4.4,10.5-8.6,14.1-12.2
		C154.8,70.8,154.8,59,147.5,51.8z M76.7,120.1c-0.6,0.6-1.5,1-2.4,1c-0.9,0-1.7-0.3-2.4-1c-1.3-1.3-1.3-3.4,0-4.7
		c0.6-0.6,1.5-1,2.4-1c0.9,0,1.7,0.3,2.4,1C78,116.6,78,118.7,76.7,120.1z M84,127.4c-0.6,0.6-1.5,1-2.4,1c-0.9,0-1.7-0.3-2.4-1
		c-1.3-1.3-1.3-3.4,0-4.7c0.6-0.6,1.5-1,2.4-1s1.7,0.3,2.4,1c0.6,0.6,1,1.5,1,2.4C85,125.9,84.6,126.7,84,127.4z M84,112.7
		c-0.6,0.6-1.5,1-2.4,1c-0.9,0-1.7-0.3-2.4-1c-1.3-1.3-1.3-3.4,0-4.7c0.6-0.6,1.5-1,2.4-1c0.9,0,1.7,0.3,2.4,1c0.6,0.6,1,1.5,1,2.4
		C85,111.3,84.6,112.1,84,112.7z M91.3,120.1c-0.6,0.6-1.5,1-2.4,1c-0.9,0-1.7-0.3-2.4-1c-1.3-1.3-1.3-3.4,0-4.7
		c0.6-0.6,1.5-1,2.4-1c0.9,0,1.7,0.3,2.4,1c0.6,0.6,1,1.5,1,2.4C92.3,118.6,91.9,119.4,91.3,120.1z M115,81.7c-0.6,0.6-1.5,1-2.4,1
		c-0.9,0-1.7-0.3-2.4-1c-0.6-0.6-1-1.5-1-2.4c0-0.9,0.3-1.7,1-2.4c0.6-0.6,1.5-1,2.4-1c0.9,0,1.7,0.3,2.4,1c0.6,0.6,1,1.5,1,2.4
		C116,80.2,115.7,81.1,115,81.7z M122.3,89c-0.6,0.6-1.5,1-2.4,1c-0.9,0-1.7-0.3-2.4-1c-0.6-0.6-1-1.5-1-2.4c0-0.9,0.3-1.7,1-2.4
		c0.6-0.6,1.5-1,2.4-1c0.9,0,1.7,0.3,2.4,1C123.6,85.6,123.6,87.7,122.3,89z M122.3,74.4c-0.6,0.6-1.5,1-2.4,1c-0.9,0-1.7-0.3-2.4-1
		c-0.6-0.6-1-1.5-1-2.4c0-0.9,0.3-1.7,1-2.4c0.6-0.6,1.5-1,2.4-1s1.7,0.3,2.4,1C123.6,71,123.6,73.1,122.3,74.4z M129.6,81.7
		c-0.6,0.6-1.5,1-2.4,1c-0.9,0-1.7-0.3-2.4-1c-1.3-1.3-1.3-3.4,0-4.7c0.6-0.6,1.5-1,2.4-1c0.9,0,1.7,0.3,2.4,1
		C131,78.3,131,80.4,129.6,81.7z"/>
	<path class="st4" d="M151.2,48.1c-4.5-4.5-10.5-7-16.8-7c-6.4,0-12.3,2.5-16.8,7c-3.8,3.8-8.1,9-12.6,14.5
		C99.4,69.4,93.1,77.1,86.3,84c-6.9,6.9-14.5,13.2-21.3,18.7c-5.5,4.5-10.7,8.8-14.5,12.6c-9.3,9.3-9.3,24.4,0,33.6
		c4.5,4.5,10.5,7,16.8,7c6.4,0,12.3-2.5,16.8-7c3.8-3.8,8.1-9,12.6-14.5c5.5-6.8,11.8-14.5,18.7-21.3c6.9-6.9,14.5-13.2,21.3-18.7
		c5.5-4.5,10.7-8.8,14.5-12.6C160.4,72.5,160.4,57.4,151.2,48.1z M133.4,90.3c-6.9,5.6-14.7,12-21.7,19c-7,7-13.4,14.8-19,21.7
		c-4.4,5.4-8.6,10.5-12.2,14.1c-3.5,3.5-8.2,5.5-13.2,5.5s-9.6-1.9-13.2-5.5c-7.3-7.3-7.3-19.1,0-26.3c3.6-3.6,8.7-7.8,14.1-12.2
		c6.9-5.6,14.7-12,21.7-19c7-7,13.4-14.8,19-21.7c4.4-5.4,8.6-10.5,12.2-14.1c3.5-3.5,8.2-5.5,13.2-5.5c5,0,9.6,1.9,13.2,5.5
		c7.3,7.3,7.3,19.1,0,26.3C143.9,81.7,138.8,85.9,133.4,90.3z"/>
	<path class="st4" d="M120,83.3c-0.9,0-1.7,0.3-2.4,1s-1,1.5-1,2.4c0,0.9,0.3,1.7,1,2.4c0.6,0.6,1.5,1,2.4,1c0.9,0,1.7-0.3,2.4-1
		c1.3-1.3,1.3-3.4,0-4.7C121.7,83.6,120.9,83.3,120,83.3z"/>
	<path class="st4" d="M120,68.7c-0.9,0-1.7,0.3-2.4,1c-0.6,0.6-1,1.5-1,2.4c0,0.9,0.3,1.7,1,2.4c0.6,0.6,1.5,1,2.4,1
		c0.9,0,1.7-0.3,2.4-1c1.3-1.3,1.3-3.4,0-4.7C121.7,69,120.9,68.7,120,68.7z"/>
	<path class="st4" d="M127.3,76c-0.9,0-1.7,0.3-2.4,1c-1.3,1.3-1.3,3.4,0,4.7c0.6,0.6,1.5,1,2.4,1c0.9,0,1.7-0.3,2.4-1
		c1.3-1.3,1.3-3.4,0-4.7C129,76.3,128.2,76,127.3,76z"/>
	<path class="st4" d="M88.9,114.3c-0.9,0-1.7,0.3-2.4,1c-1.3,1.3-1.3,3.4,0,4.7c0.6,0.6,1.5,1,2.4,1c0.9,0,1.7-0.3,2.4-1
		c0.6-0.6,1-1.5,1-2.4c0-0.9-0.3-1.7-1-2.4C90.7,114.7,89.8,114.3,88.9,114.3z"/>
	<path class="st4" d="M81.6,121.6c-0.9,0-1.7,0.3-2.4,1c-1.3,1.3-1.3,3.4,0,4.7c0.6,0.6,1.5,1,2.4,1c0.9,0,1.7-0.3,2.4-1
		c0.6-0.6,1-1.5,1-2.4c0-0.9-0.3-1.7-1-2.4C83.4,122,82.5,121.6,81.6,121.6z"/>
	<path class="st4" d="M112.7,76c-0.9,0-1.7,0.3-2.4,1c-0.6,0.6-1,1.5-1,2.4c0,0.9,0.3,1.7,1,2.4c0.6,0.6,1.5,1,2.4,1
		c0.9,0,1.7-0.3,2.4-1c0.6-0.6,1-1.5,1-2.4c0-0.9-0.3-1.7-1-2.4C114.4,76.3,113.6,76,112.7,76z"/>
	<path class="st4" d="M81.6,107c-0.9,0-1.7,0.3-2.4,1c-1.3,1.3-1.3,3.4,0,4.7c0.6,0.6,1.5,1,2.4,1c0.9,0,1.7-0.3,2.4-1s1-1.5,1-2.4
		c0-0.9-0.3-1.7-1-2.4C83.4,107.4,82.5,107,81.6,107z"/>
	<path class="st4" d="M74.3,114.3c-0.9,0-1.7,0.3-2.4,1c-1.3,1.3-1.3,3.4,0,4.7c0.6,0.6,1.5,1,2.4,1c0.9,0,1.7-0.3,2.4-1
		c1.3-1.3,1.3-3.4,0-4.7C76,114.7,75.2,114.3,74.3,114.3z"/>
</g>
</svg>
