<?xml version="1.0" encoding="utf-8"?>
<!-- Generator: Adobe Illustrator 22.0.1, SVG Export Plug-In . SVG Version: 6.00 Build 0)  -->
<svg version="1.1" id="Calque_1" xmlns="http://www.w3.org/2000/svg" xmlns:xlink="http://www.w3.org/1999/xlink" x="0px" y="0px"
	 viewBox="0 0 200 200" style="enable-background:new 0 0 200 200;" xml:space="preserve">
<style type="text/css">
	.st0{fill:#D8C3DF;}
	.st1{fill:#FFFFFF;}
	.st2{fill:none;stroke:#010101;stroke-miterlimit:10;}
	.st3{fill:#CF3A27;}
	.st4{fill:none;}
	.st5{fill:#73C7AC;}
	.st6{fill:#FFEBD5;}
	.st7{fill:#E65725;}
	.st8{fill:#010101;}
</style>
<g id="XMLID_1_">
	<g>
		<path class="st0" d="M172.1,16.1c6.6,0,12,5.4,12,12V172c0,6.6-5.4,12-12,12H28.2c-6.6,0-12-5.4-12-12V28.1c0-6.6,5.4-12,12-12
			H172.1z"/>
		<path class="st1" d="M184.1,28.1c0-6.6-5.4-12-12-12H28.2c-6.6,0-12,5.4-12,12V172c0,6.6,5.4,12,12,12h143.9c6.6,0,12-5.4,12-12
			L184.1,28.1L184.1,28.1z M18.4,6.4h163.1c6.6,0,12,5.4,12,12v163.1c0,6.6-5.4,12-12,12H18.4c-6.6,0-12-5.4-12-12V18.4
			C6.4,11.8,11.8,6.4,18.4,6.4z"/>
	</g>
	<g>
		<path class="st2" d="M172.1,183.9H28.2c-6.6,0-12-5.4-12-12V28.1c0-6.6,5.4-12,12-12h143.9c6.6,0,12,5.4,12,12V172
			C184.1,178.5,178.7,183.9,172.1,183.9z"/>
		<path class="st2" d="M181.6,193.6H18.4c-6.6,0-12-5.4-12-12V18.4c0-6.6,5.4-12,12-12h163.1c6.6,0,12,5.4,12,12v163.1
			C193.6,188.2,188.2,193.6,181.6,193.6z"/>
	</g>
</g>
<polygon class="st3" points="136.5,157.4 136.5,157.2 136.2,157.4 "/>
<g>
	<path class="st4" d="M102.7,104.8c2,0.9,4.4,1.1,7,0.7l-6.5-1.7C103,104.1,102.9,104.4,102.7,104.8z"/>
	<path class="st5" d="M96,106.5c-1.6-1.6-2.8-3.5-3.6-5.7L77.6,97c-2.1,5.6-2.5,9.2-1.5,11.7c0.8,1.9,2.6,3.4,5.7,4.8
		c0.8,0.3,1.7,0.6,2.5,0.9c1,0.3,1.9,0.4,2.7,0.4C89.8,114.7,92.5,113.2,96,106.5z"/>
	<path class="st5" d="M91.3,95c-0.1-2.7,0.4-5.6,1.5-8.5c0.5-1.4,2.1-2.1,3.4-1.6c1.4,0.5,2.1,2.1,1.6,3.4c-1.1,2.9-1.4,5.6-1.1,8.1
		l3.2,0.9c1.7-4.3,2.8-7.7,2.7-10.2c-0.1-2.1-1-4.4-6.8-6.9c-2.4-1-4.3-1.5-5.9-1.5c-4.2,0-6.5,4-10.5,13.2L91.3,95z"/>
	<path class="st6" d="M115.2,62.3H95.6c1.2,4.3,5.1,7.5,9.8,7.5C110.1,69.8,114.1,66.6,115.2,62.3z"/>
	<path class="st7" d="M105.4,49.4c-4.7,0-8.7,3.2-9.8,7.5h19.7C114.1,52.6,110.1,49.4,105.4,49.4z"/>
	<path class="st5" d="M94.4,47.7c0.6,0,1.2-0.2,1.7-0.6c1.3-1,1.6-2.8,0.6-4.1c-0.6-0.8-1.4-1.2-2.4-1.2c-0.6,0-1.2,0.2-1.7,0.6
		c-1.3,1-1.6,2.8-0.6,4.1C92.6,47.2,93.5,47.7,94.4,47.7z"/>
	<path class="st8" d="M91.6,52.5c-1.1,2.1-1.7,4.5-1.7,7.1l0,0l0,0c0,8.6,7,15.5,15.5,15.5c8.6,0,15.5-7,15.5-15.5l0,0l0,0
		c0-8.6-7-15.5-15.5-15.5c-0.9,0-1.8,0.1-2.7,0.2c-0.1-1.6-0.6-3.1-1.6-4.5c-1.6-2.1-4.1-3.4-6.7-3.4c-1.8,0-3.5,0.6-4.9,1.6
		c-3.7,2.7-4.5,7.9-1.8,11.6C88.7,51,90.1,52,91.6,52.5z M92.7,42.4c0.5-0.4,1.1-0.6,1.7-0.6c0.9,0,1.8,0.4,2.4,1.2
		c1,1.3,0.7,3.2-0.6,4.1c-0.5,0.4-1.1,0.6-1.7,0.6c-0.9,0-1.8-0.4-2.4-1.2C91.1,45.2,91.4,43.3,92.7,42.4z M95.6,62.3h19.7
		c-1.2,4.3-5.1,7.5-9.8,7.5C100.7,69.8,96.8,66.6,95.6,62.3z M95.6,56.9c1.2-4.3,5.1-7.5,9.8-7.5c4.7,0,8.7,3.2,9.8,7.5H95.6z"/>
	<path class="st8" d="M145.2,152.5c-1.3-0.8-2.9-0.4-3.7,0.9c0,0-0.7,1-2.6,0.5c-0.3-0.1-15.2-4-32.1-8.5c0.9-8.8-1.4-16.1-6.9-21.7
		c-2.1-2.1-4.4-3.8-6.9-5.3c2.9-1.8,5.2-4.8,7.3-8.8c2.1,0.9,4.3,1.4,6.8,1.4c0,0,0.1,0,0.1,0c3.7,0,7.6-1.1,11.4-3.2l6.6,1.8
		c0.2,0.1,0.5,0.1,0.7,0.1c1.2,0,2.3-0.8,2.6-2c0.4-1.4-0.5-2.9-1.9-3.3l-21.4-5.7c1.9-4.7,3-8.5,2.8-11.9c-0.3-6.6-5.9-9.7-10-11.5
		c-3.1-1.3-5.7-1.9-8-1.9c-8.2,0-11.7,7.9-15.7,17.2L55,85.4l0.4-1.3c0.4-1.4-0.5-2.9-1.9-3.3c-1.4-0.4-2.9,0.5-3.3,1.9l-0.4,1.3
		l-2.3-0.6c-1.4-0.4-2.9,0.5-3.3,1.9c-0.4,1.4,0.5,2.9,1.9,3.3l2.3,0.6l-0.4,1.4c-0.4,1.4,0.5,2.9,1.9,3.3c0.2,0.1,0.5,0.1,0.7,0.1
		c1.2,0,2.3-0.8,2.6-2l0.4-1.4l18.8,5c-2.5,6.8-2.8,11.3-1.3,15.1c1.3,3.3,4.1,5.8,8.6,7.7c0,0,0,0,0,0c0,0,0,0,0.1,0
		c1,0.4,2,0.8,2.9,1c10.5,4,20.1,10.3,19,24.6c-18.9-5-38.5-10.2-41.8-11c-1.4-0.4-2.9,0.5-3.3,1.9c-0.4,1.4,0.5,2.9,1.9,3.3
		c6.6,1.7,78.4,20.7,79.1,20.9c0.9,0.2,1.7,0.3,2.4,0.3c3.2,0,5.4-1.9,6.1-3.2C146.9,154.9,146.5,153.3,145.2,152.5z M84.3,114.3
		c-0.9-0.3-1.7-0.6-2.5-0.9c-3.1-1.3-5-2.9-5.7-4.8c-1-2.5-0.5-6.1,1.5-11.7l14.8,3.9c0.8,2.1,2,4.1,3.6,5.7
		c-3.5,6.7-6.1,8.2-8.9,8.2C86.2,114.7,85.3,114.6,84.3,114.3z M90.1,78.7c1.6,0,3.5,0.5,5.9,1.5c5.7,2.4,6.6,4.7,6.8,6.9
		c0.1,2.5-1,5.9-2.7,10.2l-3.2-0.9c-0.3-2.5,0-5.3,1.1-8.1c0.5-1.4-0.2-2.9-1.6-3.4c-1.4-0.5-2.9,0.2-3.4,1.6
		c-1.1,2.9-1.6,5.8-1.5,8.5L79.6,92C83.6,82.8,85.9,78.7,90.1,78.7z M109.7,105.4c-2.6,0.4-4.9,0.2-7-0.7c0.2-0.3,0.3-0.7,0.5-1
		L109.7,105.4z"/>
</g>
</svg>
