<?xml version="1.0" encoding="utf-8"?>
<!-- Generator: Adobe Illustrator 22.0.1, SVG Export Plug-In . SVG Version: 6.00 Build 0)  -->
<svg version="1.1" id="Calque_1" xmlns="http://www.w3.org/2000/svg" xmlns:xlink="http://www.w3.org/1999/xlink" x="0px" y="0px"
	 viewBox="0 0 200 200" style="enable-background:new 0 0 200 200;" xml:space="preserve">
<style type="text/css">
	.st0{fill:#FFFFFF;}
	.st1{fill:#FBEDB6;}
	.st2{fill:none;stroke:#010101;stroke-miterlimit:10;}
	.st3{fill:#F69A9F;}
	.st4{fill:#7E868C;}
	.st5{fill:#5D6771;}
	.st6{fill:#343F49;}
</style>
<g id="XMLID_1_">
	<g>
		<path class="st0" d="M184.1,171.6V27.7c0-6.6-5.4-12-12-12H28.2c-6.6,0-12,5.4-12,12v143.9c0,6.6,5.4,12,12,12h143.9
			C178.7,183.6,184.1,178.2,184.1,171.6z M193.6,18.1v163.1c0,6.6-5.4,12-12,12H18.4c-6.6,0-12-5.4-12-12V18.1c0-6.6,5.4-12,12-12
			h163.1C188.2,6.1,193.6,11.5,193.6,18.1z"/>
		<path class="st1" d="M184.1,27.7v143.9c0,6.6-5.4,12-12,12H28.2c-6.6,0-12-5.4-12-12V27.7c0-6.6,5.4-12,12-12h143.9
			C178.7,15.7,184.1,21.1,184.1,27.7z"/>
	</g>
	<g>
		<path class="st2" d="M172.1,183.6H28.2c-6.6,0-12-5.4-12-12V27.7c0-6.6,5.4-12,12-12h143.9c6.6,0,12,5.4,12,12v143.9
			C184.1,178.2,178.7,183.6,172.1,183.6z"/>
		<path class="st2" d="M181.6,193.2H18.4c-6.6,0-12-5.4-12-12V18.1c0-6.6,5.4-12,12-12h163.1c6.6,0,12,5.4,12,12v163.1
			C193.6,187.8,188.2,193.2,181.6,193.2z"/>
	</g>
</g>
<g>
	<path class="st3" d="M69.9,119.6H57.1c-10.7,0-19.5-8.7-19.5-19.5c0-10.7,8.7-19.5,19.5-19.5c1.3,0,2.4,1.1,2.4,2.4
		c0,1.3-1.1,2.4-2.4,2.4c-8.1,0-14.7,6.6-14.7,14.7s6.6,14.7,14.7,14.7h12.7c1.3,0,2.4,1.1,2.4,2.4
		C72.2,118.5,71.2,119.6,69.9,119.6z"/>
	<g>
		<path class="st4" d="M144.3,81.2c5.4,0,9.8,4.4,9.8,9.8c0,5.4-4.4,9.8-9.8,9.8h-6c-2.1,0-3.8-1.7-3.8-3.8v-6
			C134.5,85.6,138.9,81.2,144.3,81.2z"/>
		<path class="st3" d="M145.1,98.7c3.6,0,6.6-2.9,6.6-6.6c0-3.6-2.9-6.6-6.6-6.6s-6.6,2.9-6.6,6.6v6c0,0.3,0.3,0.6,0.6,0.6H145.1z"
			/>
	</g>
	<path class="st5" d="M130.4,90.9c-0.4,0-0.8,0-1.2,0c-7.6-8.1-18.4-13.1-30.4-13.1c-23.1,0-41.7,18.7-41.7,41.7h102
		C159.1,103.7,146.3,90.9,130.4,90.9z"/>
	<g>
		<path class="st4" d="M121.6,81.2c-5.4,0-9.8,4.4-9.8,9.8c0,5.4,4.4,9.8,9.8,9.8h6c2.1,0,3.8-1.7,3.8-3.8v-6
			C131.4,85.6,127,81.2,121.6,81.2z"/>
		<path class="st3" d="M122.7,98.7c-3.6,0-6.6-2.9-6.6-6.6c0-3.6,2.9-6.6,6.6-6.6c3.6,0,6.6,2.9,6.6,6.6v6c0,0.3-0.3,0.6-0.6,0.6
			H122.7z"/>
	</g>
	<circle class="st6" cx="159.1" cy="116.4" r="3.1"/>
	<circle class="st6" cx="136.7" cy="101.7" r="1.5"/>
	<path class="st4" d="M86.9,119.6c0-5.4-4.4-9.9-9.9-9.9c-5.4,0-9.9,4.4-9.9,9.9H86.9z"/>
	<path class="st4" d="M128.2,119.6c0-5.4-4.4-9.9-9.9-9.9s-9.9,4.4-9.9,9.9H128.2z"/>
</g>
</svg>
