<svg id="Calque_1" data-name="Calque 1" xmlns="http://www.w3.org/2000/svg" viewBox="0 0 433.68 624.87"><defs><style>.cls-1,.cls-18{fill:#d6c3cc;}.cls-1,.cls-13,.cls-16,.cls-2,.cls-20,.cls-4,.cls-6,.cls-7,.cls-8{stroke:#231f20;}.cls-1,.cls-11,.cls-13,.cls-14,.cls-15,.cls-16,.cls-19,.cls-2,.cls-20,.cls-3,.cls-4,.cls-6,.cls-7,.cls-8{stroke-miterlimit:10;}.cls-1{stroke-width:3px;}.cls-2,.cls-5,.cls-9{fill:#fff;}.cls-11,.cls-13,.cls-14,.cls-15,.cls-19,.cls-3{fill:none;}.cls-3{stroke:#ed1c24;}.cls-17,.cls-4{fill:#a97c50;}.cls-6{fill:#be1e2d;}.cls-7{fill:#f9ed32;}.cls-8{fill:#f7941d;}.cls-9{font-size:42.49px;font-family:ArialRoundedMTBold, Arial Rounded MT Bold;}.cls-10{letter-spacing:-0.09em;}.cls-11,.cls-14,.cls-15{stroke:#fff;}.cls-11{stroke-width:4px;}.cls-12,.cls-20{fill:#231f20;}.cls-15{stroke-width:2px;}.cls-16{fill:#00aeef;}.cls-19{stroke:#939598;}</style></defs><title>sport</title><rect class="cls-1" x="1.5" y="1.5" width="430.68" height="621.87" rx="12" ry="12"/><circle class="cls-2" cx="221.95" cy="484.9" r="25.22"/><path class="cls-3" d="M198.6,479.73s45.48,7.58,46.76-2.94" transform="translate(-1.63 -2.69)"/><path class="cls-3" d="M214.35,510.35s16.49-4.34,24-9.8,9-6.49,9-6.49" transform="translate(-1.63 -2.69)"/><path class="cls-4" d="M135.56,504.59,399.14,271.81s1.84-40.46-33.37-33.62c0,0-7.48-3.16-25.53,17.34s-213,243.28-213,243.28-15.41,2.62-9.24,12.08S131.16,519.3,135.56,504.59Z" transform="translate(-1.63 -2.69)"/><path class="cls-5" d="M250.2,358.3l1.14-1.26,94.51-104.88s16-6.37,6.79,5.8" transform="translate(-1.63 -2.69)"/><path class="cls-5" d="M364.77,245.79s7.27,8.11,7.76,15.64C372.53,261.43,357.49,262.59,364.77,245.79Z" transform="translate(-1.63 -2.69)"/><path class="cls-5" d="M377.87,242.32s11.64,0,15,11.3C392.9,253.62,387.57,256.22,377.87,242.32Z" transform="translate(-1.63 -2.69)"/><path class="cls-6" d="M42.31,455.24s1.66-37,65.07-36.24S168,457.21,168,457.21s-10.1,36.78-62.86,36S42.31,455.24,42.31,455.24Z" transform="translate(-1.63 -2.69)"/><circle class="cls-7" cx="181.9" cy="498.89" r="12.54"/><circle class="cls-8" cx="212.32" cy="361.74" r="55.39"/><text class="cls-9" transform="translate(111.81 101.27)">ES-TU UN <tspan class="cls-10" x="-12.35" y="50.99">A</tspan><tspan x="14.48" y="50.99">THLÈTE ?</tspan></text><rect class="cls-11" x="58.82" y="52.75" width="310.01" height="118" rx="12" ry="12"/><path class="cls-12" d="M286.6,386.64s7.35,4.5,8.16,9.37h7.13S292.41,388.57,286.6,386.64Z" transform="translate(-1.63 -2.69)"/><path class="cls-13" d="M234.66,313.09s51.86,51-20.71,106.74" transform="translate(-1.63 -2.69)"/><path class="cls-13" d="M189.84,314.55s16,4.61,33,19.93,41.45,7.62,41.45,7.62" transform="translate(-1.63 -2.69)"/><path class="cls-13" d="M158.75,359.3s23.76-14.18,65-4,45.13,16.18,45.13,16.18" transform="translate(-1.63 -2.69)"/><path class="cls-13" d="M167.64,394.41a134.28,134.28,0,0,0,46-9.82c23.82-9.82,38.29-6.34,38.29-6.34s8.68,7,5.7,20.46" transform="translate(-1.63 -2.69)"/><path class="cls-14" d="M172.37,495.85a35.77,35.77,0,0,0,22.3,0" transform="translate(-1.63 -2.69)"/><path class="cls-14" d="M173.37,508.93s13.34-2.91,19.19,1.33" transform="translate(-1.63 -2.69)"/><path class="cls-5" d="M66.32,430.3s7.29,35.24-3.47,51.09l12.72,6.95s15.3-39.5,0-64Z" transform="translate(-1.63 -2.69)"/><path class="cls-5" d="M136.54,425.52,151,434.13s9.61,27.91,0,44.08l-12.81,8S149.46,447,136.54,425.52Z" transform="translate(-1.63 -2.69)"/><path class="cls-15" d="M128.07,434.13s-12.66-3.34-38.74,0" transform="translate(-1.63 -2.69)"/><path class="cls-15" d="M91.31,430.58s3,4.76,0,7.89" transform="translate(-1.63 -2.69)"/><path class="cls-15" d="M96.21,429.44s3,4.77,0,7.9" transform="translate(-1.63 -2.69)"/><path class="cls-15" d="M101.55,429.44s3,4.77,0,7.9" transform="translate(-1.63 -2.69)"/><path class="cls-15" d="M106.3,428.7s3,4.77,0,7.9" transform="translate(-1.63 -2.69)"/><path class="cls-15" d="M112.05,428.7s3,4.77,0,7.9" transform="translate(-1.63 -2.69)"/><path class="cls-15" d="M117.65,428.7s3,4.77,0,7.9" transform="translate(-1.63 -2.69)"/><path class="cls-15" d="M124.29,430.19s3,4.76,0,7.89" transform="translate(-1.63 -2.69)"/><path class="cls-16" d="M231.58,468.83s-1.39-13.63-23.13-38.28S165,367.19,165,367.19s-46.73-139.58-108.26-103c0,0-35.16,26.17-14.34,73.06s50,52.16,66.16,56.07c0,0,28.84,5,51.67,19.27S217.45,468.27,231.58,468.83Z" transform="translate(-1.63 -2.69)"/><path class="cls-5" d="M141.09,387.28s8.85-16.38,9.09-23.84c0,0-1.17-6.09,10,13.68s24,36,23.3,38S152.27,404.85,141.09,387.28Z" transform="translate(-1.63 -2.69)"/><path class="cls-17" d="M197.64,419.86s-11.09.1-8.85,13.28L219.7,461.7l4.89-8Z" transform="translate(-1.63 -2.69)"/><ellipse class="cls-18" cx="92.22" cy="327.76" rx="40.93" ry="69.26" transform="translate(-147.03 81.21) rotate(-28.54)"/><line class="cls-19" x1="76.24" y1="263.62" x2="45.27" y2="300.11"/><line class="cls-19" x1="83.29" y1="265.45" x2="45.02" y2="310.55"/><line class="cls-19" x1="88.41" y1="271.48" x2="48.45" y2="318.58"/><line class="cls-19" x1="93.67" y1="279.61" x2="49.75" y2="331.37"/><line class="cls-19" x1="102.04" y1="283.12" x2="54.11" y2="339.6"/><line class="cls-19" x1="109.37" y1="288.79" x2="58.13" y2="349.18"/><line class="cls-19" x1="113.35" y1="296.45" x2="65.67" y2="352.65"/><line class="cls-19" x1="118.73" y1="302.08" x2="69.3" y2="360.33"/><line class="cls-19" x1="119.13" y1="311.76" x2="73.08" y2="366.03"/><line class="cls-19" x1="125.11" y1="316.77" x2="79.01" y2="371.11"/><line class="cls-19" x1="128.64" y1="326.94" x2="86.93" y2="376.1"/><line class="cls-19" x1="134.28" y1="333.66" x2="92.4" y2="381.02"/><line class="cls-19" x1="133.64" y1="348.74" x2="103.6" y2="384.15"/><line class="cls-19" x1="135.8" y1="358.55" x2="112.27" y2="386.28"/><line class="cls-19" x1="43.93" y1="289.3" x2="117.72" y2="385.01"/><line class="cls-19" x1="47.53" y1="283.24" x2="121.32" y2="378.95"/><line class="cls-19" x1="55.75" y1="281.51" x2="129.53" y2="377.22"/><line class="cls-19" x1="58.47" y1="272.83" x2="132.25" y2="368.54"/><line class="cls-19" x1="63.28" y1="268.39" x2="137.07" y2="364.1"/><line class="cls-19" x1="68.4" y1="262.19" x2="137.86" y2="352.3"/><line class="cls-19" x1="79.11" y1="264.31" x2="136.24" y2="337.16"/><line class="cls-19" x1="52.16" y1="333.47" x2="88.73" y2="380.91"/><line class="cls-19" x1="46.51" y1="315.22" x2="99.13" y2="382.85"/><line class="cls-19" x1="43.71" y1="299.28" x2="112.27" y2="386.28"/><circle class="cls-2" cx="265.31" cy="433.24" r="53.05"/><path class="cls-20" d="M261.46,428.77l5.48-20.57h22.14s4.33,19.22,5.68,20.57c0,0-16,9.75-16.65,11.64Z" transform="translate(-1.63 -2.69)"/><path class="cls-20" d="M232,424.3l13,13.68s-8.39,10.56-2.16,19.76c0,0-8.9-3-14.35,2.44,0,0-7.31-20.31-7.31-21.66S232,424.3,232,424.3Z" transform="translate(-1.63 -2.69)"/><path class="cls-12" d="M230.83,397.06s8.16,5.72,9,7.07c0,0,8.39-9,17.06-7.07,0,0,0-9.34,12.46-14.13A49.29,49.29,0,0,0,230.83,397.06Z" transform="translate(-1.63 -2.69)"/><path class="cls-12" d="M252.61,469.77s10.83,8.39,3.25,17.59c0,0,13.54-5.95,23.56,0A20,20,0,0,1,288.89,473s-11.64-3.79-16.24-10C272.65,463,261.82,474.1,252.61,469.77Z" transform="translate(-1.63 -2.69)"/><path class="cls-12" d="M314.14,460.18s2-3.52-4.22-4.06c0,0,.81-13.81,0-16.79,0,0,8.38-7.58,8.79-15C318.71,424.3,323.66,447.08,314.14,460.18Z" transform="translate(-1.63 -2.69)"/><line class="cls-13" x1="294.44" y1="389.32" x2="287.02" y2="406.43"/><line class="cls-13" x1="254.18" y1="392.98" x2="266.08" y2="406.43"/><path class="cls-13" d="M239.8,402.76S232,415.09,232,425.17" transform="translate(-1.63 -2.69)"/><line class="cls-13" x1="226.8" y1="456.38" x2="227.9" y2="470.85"/><line class="cls-13" x1="219.49" y1="435.83" x2="212.32" y2="435.83"/><line class="cls-13" x1="259.83" y1="426.08" x2="242.85" y2="434.79"/><line class="cls-13" x1="276.48" y1="434.79" x2="271.56" y2="462.06"/><path class="cls-13" d="M241.14,456.12s6.67,12.83,17.07,17.42" transform="translate(-1.63 -2.69)"/><path class="cls-13" d="M286.6,473.54s22-13.4,24.78-17.42" transform="translate(-1.63 -2.69)"/><line class="cls-13" x1="293.13" y1="426.08" x2="308.3" y2="436.64"/></svg>