<svg id="Calque_1" data-name="Calque 1" xmlns="http://www.w3.org/2000/svg" viewBox="0 0 474.79 682.24"><defs><style>.cls-1,.cls-18{fill:#d6c3cc;}.cls-1,.cls-13,.cls-16,.cls-2,.cls-20,.cls-4,.cls-6,.cls-7,.cls-8{stroke:#231f20;}.cls-1,.cls-11,.cls-13,.cls-14,.cls-15,.cls-16,.cls-19,.cls-2,.cls-20,.cls-3,.cls-4,.cls-6,.cls-7,.cls-8{stroke-miterlimit:10;}.cls-1{stroke-width:3px;}.cls-2,.cls-5,.cls-9{fill:#fff;}.cls-11,.cls-13,.cls-14,.cls-15,.cls-19,.cls-3{fill:none;}.cls-3{stroke:#ed1c24;}.cls-17,.cls-4{fill:#a97c50;}.cls-6{fill:#be1e2d;}.cls-7{fill:#f9ed32;}.cls-8{fill:#f7941d;}.cls-9{font-size:38px;font-family:ArialRoundedMTBold, Arial Rounded MT Bold;}.cls-10{letter-spacing:-0.09em;}.cls-11,.cls-14,.cls-15{stroke:#fff;}.cls-11{stroke-width:4px;}.cls-12,.cls-20{fill:#231f20;}.cls-15{stroke-width:2px;}.cls-16{fill:#00aeef;}.cls-19{stroke:#939598;}</style></defs><title>sport</title><rect class="cls-1" x="1.5" y="1.5" width="471.79" height="679.24" rx="12" ry="12"/><circle class="cls-2" cx="245.52" cy="510.98" r="25.22"/><path class="cls-3" d="M198.6,479.73s45.48,7.58,46.76-2.94" transform="translate(21.94 23.4)"/><path class="cls-3" d="M214.35,510.35s16.49-4.34,24-9.8,9-6.49,9-6.49" transform="translate(21.94 23.4)"/><path class="cls-4" d="M135.56,504.59,399.14,271.81s1.84-40.46-33.37-33.62c0,0-7.48-3.16-25.53,17.34s-213,243.28-213,243.28-15.41,2.62-9.24,12.08S131.16,519.3,135.56,504.59Z" transform="translate(21.94 23.4)"/><path class="cls-5" d="M250.2,358.3l1.14-1.26,94.51-104.88s16-6.37,6.79,5.8" transform="translate(21.94 23.4)"/><path class="cls-5" d="M364.77,245.79s7.27,8.11,7.76,15.64C372.53,261.43,357.49,262.59,364.77,245.79Z" transform="translate(21.94 23.4)"/><path class="cls-5" d="M377.87,242.32s11.64,0,15,11.3C392.9,253.62,387.57,256.22,377.87,242.32Z" transform="translate(21.94 23.4)"/><path class="cls-6" d="M42.31,455.24s1.66-37,65.07-36.24S168,457.21,168,457.21s-10.1,36.78-62.86,36S42.31,455.24,42.31,455.24Z" transform="translate(21.94 23.4)"/><circle class="cls-7" cx="205.46" cy="524.97" r="12.54"/><circle class="cls-8" cx="235.89" cy="387.83" r="55.39"/><text class="cls-9" transform="translate(144.7 135.12)">ES-TU UN <tspan class="cls-10" x="-11.04" y="45.6">A</tspan><tspan x="12.95" y="45.6">THLÈTE ?</tspan></text><rect class="cls-11" x="97.31" y="91.73" width="277.23" height="105.52" rx="12" ry="12"/><path class="cls-12" d="M286.6,386.64s7.35,4.5,8.16,9.37h7.13S292.41,388.57,286.6,386.64Z" transform="translate(21.94 23.4)"/><path class="cls-13" d="M234.66,313.09s51.86,51-20.71,106.74" transform="translate(21.94 23.4)"/><path class="cls-13" d="M189.84,314.55s16,4.61,33,19.93,41.45,7.62,41.45,7.62" transform="translate(21.94 23.4)"/><path class="cls-13" d="M158.75,359.3s23.76-14.18,65-4,45.13,16.18,45.13,16.18" transform="translate(21.94 23.4)"/><path class="cls-13" d="M167.64,394.41a134.28,134.28,0,0,0,46-9.82c23.82-9.82,38.29-6.34,38.29-6.34s8.68,7,5.7,20.46" transform="translate(21.94 23.4)"/><path class="cls-14" d="M172.37,495.85a35.77,35.77,0,0,0,22.3,0" transform="translate(21.94 23.4)"/><path class="cls-14" d="M173.37,508.93s13.34-2.91,19.19,1.33" transform="translate(21.94 23.4)"/><path class="cls-5" d="M66.32,430.3s7.29,35.24-3.47,51.09l12.72,6.95s15.3-39.5,0-64Z" transform="translate(21.94 23.4)"/><path class="cls-5" d="M136.54,425.52,151,434.13s9.61,27.91,0,44.08l-12.81,8S149.46,447,136.54,425.52Z" transform="translate(21.94 23.4)"/><path class="cls-15" d="M128.07,434.13s-12.66-3.34-38.74,0" transform="translate(21.94 23.4)"/><path class="cls-15" d="M91.31,430.58s3,4.76,0,7.89" transform="translate(21.94 23.4)"/><path class="cls-15" d="M96.21,429.44s3,4.77,0,7.9" transform="translate(21.94 23.4)"/><path class="cls-15" d="M101.55,429.44s3,4.77,0,7.9" transform="translate(21.94 23.4)"/><path class="cls-15" d="M106.3,428.7s3,4.77,0,7.9" transform="translate(21.94 23.4)"/><path class="cls-15" d="M112.05,428.7s3,4.77,0,7.9" transform="translate(21.94 23.4)"/><path class="cls-15" d="M117.65,428.7s3,4.77,0,7.9" transform="translate(21.94 23.4)"/><path class="cls-15" d="M124.29,430.19s3,4.76,0,7.89" transform="translate(21.94 23.4)"/><path class="cls-16" d="M231.58,468.83s-1.39-13.63-23.13-38.28S165,367.19,165,367.19s-46.73-139.58-108.26-103c0,0-35.16,26.17-14.34,73.06s50,52.16,66.16,56.07c0,0,28.84,5,51.67,19.27S217.45,468.27,231.58,468.83Z" transform="translate(21.94 23.4)"/><path class="cls-5" d="M141.09,387.28s8.85-16.38,9.09-23.84c0,0-1.17-6.09,10,13.68s24,36,23.3,38S152.27,404.85,141.09,387.28Z" transform="translate(21.94 23.4)"/><path class="cls-17" d="M197.64,419.86s-11.09.1-8.85,13.28L219.7,461.7l4.89-8Z" transform="translate(21.94 23.4)"/><ellipse class="cls-18" cx="92.22" cy="327.76" rx="40.93" ry="69.26" transform="translate(-123.46 107.3) rotate(-28.54)"/><line class="cls-19" x1="99.8" y1="289.7" x2="68.84" y2="326.2"/><line class="cls-19" x1="106.86" y1="291.53" x2="68.59" y2="336.64"/><line class="cls-19" x1="111.98" y1="297.56" x2="72.01" y2="344.67"/><line class="cls-19" x1="117.24" y1="305.69" x2="73.31" y2="357.46"/><line class="cls-19" x1="125.6" y1="309.2" x2="77.67" y2="365.69"/><line class="cls-19" x1="132.94" y1="314.88" x2="81.7" y2="375.27"/><line class="cls-19" x1="136.92" y1="322.54" x2="89.24" y2="378.74"/><line class="cls-19" x1="142.3" y1="328.17" x2="92.87" y2="386.42"/><line class="cls-19" x1="142.7" y1="337.84" x2="96.65" y2="392.12"/><line class="cls-19" x1="148.68" y1="342.86" x2="102.57" y2="397.2"/><line class="cls-19" x1="152.21" y1="353.02" x2="110.5" y2="402.18"/><line class="cls-19" x1="157.85" y1="359.75" x2="115.96" y2="407.11"/><line class="cls-19" x1="157.21" y1="374.83" x2="127.16" y2="410.23"/><line class="cls-19" x1="159.37" y1="384.64" x2="135.84" y2="412.37"/><line class="cls-19" x1="67.5" y1="315.39" x2="141.28" y2="411.1"/><line class="cls-19" x1="71.1" y1="309.33" x2="144.88" y2="405.04"/><line class="cls-19" x1="79.32" y1="307.59" x2="153.1" y2="403.31"/><line class="cls-19" x1="82.04" y1="298.91" x2="155.82" y2="394.63"/><line class="cls-19" x1="86.85" y1="294.48" x2="160.63" y2="390.19"/><line class="cls-19" x1="91.97" y1="288.28" x2="161.43" y2="378.39"/><line class="cls-19" x1="102.68" y1="290.4" x2="159.81" y2="363.24"/><line class="cls-19" x1="75.73" y1="359.56" x2="112.3" y2="407"/><line class="cls-19" x1="70.07" y1="341.31" x2="122.7" y2="408.94"/><line class="cls-19" x1="67.28" y1="325.37" x2="135.84" y2="412.37"/><circle class="cls-2" cx="288.88" cy="459.33" r="53.05"/><path class="cls-20" d="M261.46,428.77l5.48-20.57h22.14s4.33,19.22,5.68,20.57c0,0-16,9.75-16.65,11.64Z" transform="translate(21.94 23.4)"/><path class="cls-20" d="M232,424.3l13,13.68s-8.39,10.56-2.16,19.76c0,0-8.9-3-14.35,2.44,0,0-7.31-20.31-7.31-21.66S232,424.3,232,424.3Z" transform="translate(21.94 23.4)"/><path class="cls-12" d="M230.83,397.06s8.16,5.72,9,7.07c0,0,8.39-9,17.06-7.07,0,0,0-9.34,12.46-14.13A49.29,49.29,0,0,0,230.83,397.06Z" transform="translate(21.94 23.4)"/><path class="cls-12" d="M252.61,469.77s10.83,8.39,3.25,17.59c0,0,13.54-5.95,23.56,0A20,20,0,0,1,288.89,473s-11.64-3.79-16.24-10C272.65,463,261.82,474.1,252.61,469.77Z" transform="translate(21.94 23.4)"/><path class="cls-12" d="M314.14,460.18s2-3.52-4.22-4.06c0,0,.81-13.81,0-16.79,0,0,8.38-7.58,8.79-15C318.71,424.3,323.66,447.08,314.14,460.18Z" transform="translate(21.94 23.4)"/><line class="cls-13" x1="318.01" y1="415.4" x2="310.59" y2="432.52"/><line class="cls-13" x1="277.75" y1="419.07" x2="289.65" y2="432.52"/><path class="cls-13" d="M239.8,402.76S232,415.09,232,425.17" transform="translate(21.94 23.4)"/><line class="cls-13" x1="250.37" y1="482.47" x2="251.46" y2="496.94"/><line class="cls-13" x1="243.06" y1="461.92" x2="235.89" y2="461.92"/><line class="cls-13" x1="283.4" y1="452.17" x2="266.41" y2="460.88"/><line class="cls-13" x1="300.05" y1="460.88" x2="295.13" y2="488.15"/><path class="cls-13" d="M241.14,456.12s6.67,12.83,17.07,17.42" transform="translate(21.94 23.4)"/><path class="cls-13" d="M286.6,473.54s22-13.4,24.78-17.42" transform="translate(21.94 23.4)"/><line class="cls-13" x1="316.7" y1="452.17" x2="331.86" y2="462.73"/></svg>