<?xml version="1.0" encoding="utf-8"?>
<!-- Generator: Adobe Illustrator 22.0.1, SVG Export Plug-In . SVG Version: 6.00 Build 0)  -->
<svg version="1.1" id="Calque_1" xmlns="http://www.w3.org/2000/svg" xmlns:xlink="http://www.w3.org/1999/xlink" x="0px" y="0px"
	 viewBox="0 0 436 630" style="enable-background:new 0 0 436 630;" xml:space="preserve">
<style type="text/css">
	.st0{fill:#D6C3CC;stroke:#000000;stroke-width:3;stroke-miterlimit:10;}
	.st1{fill:#FFFFFF;stroke:#000000;stroke-miterlimit:10;}
	.st2{fill:none;stroke:#ED1C24;stroke-miterlimit:10;}
	.st3{fill:#A97C50;stroke:#000000;stroke-miterlimit:10;}
	.st4{fill:#FFFFFF;}
	.st5{fill:#BE1E2D;stroke:#000000;stroke-miterlimit:10;}
	.st6{fill:#F9ED32;stroke:#000000;stroke-miterlimit:10;}
	.st7{fill:#F7941D;stroke:#000000;stroke-miterlimit:10;}
	.st8{fill:none;}
	.st9{font-family:'ArialRoundedMTBold';}
	.st10{font-size:42.4932px;}
	.st11{fill:none;stroke:#FFFFFF;stroke-width:4;stroke-miterlimit:10;}
	.st12{fill:none;stroke:#000000;stroke-miterlimit:10;}
	.st13{fill:none;stroke:#FFFFFF;stroke-miterlimit:10;}
	.st14{fill:none;stroke:#FFFFFF;stroke-width:2;stroke-miterlimit:10;}
	.st15{fill:#00AEEF;stroke:#000000;stroke-miterlimit:10;}
	.st16{fill:#A97C50;}
	.st17{fill:#D6C3CC;}
	.st18{fill:none;stroke:#939598;stroke-miterlimit:10;}
	.st19{stroke:#000000;stroke-miterlimit:10;}
</style>
<path class="st0" d="M439.3,657.3H-8.4c-6.6,0-12-5.4-12-12V-9.9c0-6.6,5.4-12,12-12h447.8c6.6,0,12,5.4,12,12v655.2
	C451.3,651.9,445.9,657.3,439.3,657.3z"/>
<circle class="st1" cx="223.6" cy="487.6" r="25.2"/>
<path class="st2" d="M198.6,479.7c0,0,45.5,7.6,46.8-2.9"/>
<path class="st2" d="M214.3,510.3c0,0,16.5-4.3,24-9.8c7.5-5.5,9-6.5,9-6.5"/>
<path class="st3" d="M135.6,504.6l263.6-232.8c0,0,1.8-40.5-33.4-33.6c0,0-7.5-3.2-25.5,17.3c-18,20.5-213,243.3-213,243.3
	s-15.4,2.6-9.2,12.1C124.1,520.4,131.2,519.3,135.6,504.6z"/>
<path class="st4" d="M250.2,358.3l1.1-1.3l94.5-104.9c0,0,16-6.4,6.8,5.8"/>
<path class="st4" d="M364.8,245.8c0,0,7.3,8.1,7.8,15.6C372.5,261.4,357.5,262.6,364.8,245.8z"/>
<path class="st4" d="M377.9,242.3c0,0,11.6,0,15,11.3C392.9,253.6,387.6,256.2,377.9,242.3z"/>
<path class="st5" d="M42.3,455.2c0,0,1.7-37,65.1-36.2c63.4,0.8,60.7,38.2,60.7,38.2s-10.1,36.8-62.9,36S42.3,455.2,42.3,455.2z"/>
<circle class="st6" cx="183.5" cy="501.6" r="12.5"/>
<circle class="st7" cx="213.9" cy="364.4" r="55.4"/>
<rect x="61.3" y="73" class="st8" width="309.2" height="122.6"/>
<text transform="matrix(1 0 0 1 113.4343 103.9642)"><tspan x="0" y="0" class="st4 st9 st10">ES-TU UN  </tspan><tspan x="-14.2" y="51" class="st4 st9 st10">ATHLÈTE ?</tspan></text>
<path class="st11" d="M358.5,173.4h-286c-6.6,0-12-5.4-12-12v-94c0-6.6,5.4-12,12-12h286c6.6,0,12,5.4,12,12v94
	C370.5,168,365.1,173.4,358.5,173.4z"/>
<path d="M286.6,386.6c0,0,7.4,4.5,8.2,9.4h7.1C301.9,396,292.4,388.6,286.6,386.6z"/>
<path class="st12" d="M234.7,313.1c0,0,51.9,51-20.7,106.7"/>
<path class="st12" d="M189.8,314.5c0,0,16,4.6,33,19.9s41.5,7.6,41.5,7.6"/>
<path class="st12" d="M158.8,359.3c0,0,23.8-14.2,65-4s45.1,16.2,45.1,16.2"/>
<path class="st12" d="M167.6,394.4c0,0,22.1,0,46-9.8s38.3-6.3,38.3-6.3s8.7,7,5.7,20.5"/>
<path class="st13" d="M172.4,495.8c0,0,10.4,4,22.3,0"/>
<path class="st13" d="M173.4,508.9c0,0,13.3-2.9,19.2,1.3"/>
<path class="st4" d="M66.3,430.3c0,0,7.3,35.2-3.5,51.1l12.7,7c0,0,15.3-39.5,0-64.1L66.3,430.3z"/>
<path class="st4" d="M136.5,425.5l14.5,8.6c0,0,9.6,27.9,0,44.1l-12.8,8C138.2,486.2,149.5,447,136.5,425.5z"/>
<path class="st14" d="M128.1,434.1c0,0-12.7-3.3-38.7,0"/>
<path class="st14" d="M91.3,430.6c0,0,3,4.8,0,7.9"/>
<path class="st14" d="M96.2,429.4c0,0,3,4.8,0,7.9"/>
<path class="st14" d="M101.6,429.4c0,0,3,4.8,0,7.9"/>
<path class="st14" d="M106.3,428.7c0,0,3,4.8,0,7.9"/>
<path class="st14" d="M112,428.7c0,0,3,4.8,0,7.9"/>
<path class="st14" d="M117.7,428.7c0,0,3,4.8,0,7.9"/>
<path class="st14" d="M124.3,430.2c0,0,3,4.8,0,7.9"/>
<path class="st15" d="M231.6,468.8c0,0-1.4-13.6-23.1-38.3c-21.7-24.6-43.5-63.4-43.5-63.4s-46.7-139.6-108.3-103
	c0,0-35.2,26.2-14.3,73.1s50,52.2,66.2,56.1c0,0,28.8,5,51.7,19.3S217.4,468.3,231.6,468.8z"/>
<path class="st4" d="M141.1,387.3c0,0,8.9-16.4,9.1-23.8c0,0-1.2-6.1,10,13.7c11.2,19.8,24,36,23.3,38
	C182.8,417.2,152.3,404.9,141.1,387.3z"/>
<path class="st16" d="M197.6,419.9c0,0-11.1,0.1-8.8,13.3l30.9,28.6l4.9-8L197.6,419.9z"/>
<ellipse transform="matrix(0.8785 -0.4778 0.4778 0.8785 -145.3989 83.8993)" class="st17" cx="92.2" cy="327.8" rx="40.9" ry="69.3"/>
<line class="st18" x1="77.9" y1="266.3" x2="46.9" y2="302.8"/>
<line class="st18" x1="84.9" y1="268.1" x2="46.6" y2="313.2"/>
<line class="st18" x1="90" y1="274.2" x2="50.1" y2="321.3"/>
<line class="st18" x1="95.3" y1="282.3" x2="51.4" y2="334.1"/>
<line class="st18" x1="103.7" y1="285.8" x2="55.7" y2="342.3"/>
<line class="st18" x1="111" y1="291.5" x2="59.8" y2="351.9"/>
<line class="st18" x1="115" y1="299.1" x2="67.3" y2="355.3"/>
<line class="st18" x1="120.4" y1="304.8" x2="70.9" y2="363"/>
<line class="st18" x1="120.8" y1="314.4" x2="74.7" y2="368.7"/>
<line class="st18" x1="126.7" y1="319.5" x2="80.6" y2="373.8"/>
<line class="st18" x1="130.3" y1="329.6" x2="88.6" y2="378.8"/>
<line class="st18" x1="135.9" y1="336.4" x2="94" y2="383.7"/>
<line class="st18" x1="135.3" y1="351.4" x2="105.2" y2="386.8"/>
<line class="st18" x1="137.4" y1="361.2" x2="113.9" y2="389"/>
<line class="st18" x1="45.6" y1="292" x2="119.3" y2="387.7"/>
<line class="st18" x1="49.2" y1="285.9" x2="122.9" y2="381.6"/>
<line class="st18" x1="57.4" y1="284.2" x2="131.2" y2="379.9"/>
<line class="st18" x1="60.1" y1="275.5" x2="133.9" y2="371.2"/>
<line class="st18" x1="64.9" y1="271.1" x2="138.7" y2="366.8"/>
<line class="st18" x1="70" y1="264.9" x2="139.5" y2="355"/>
<line class="st18" x1="80.7" y1="267" x2="137.9" y2="339.8"/>
<line class="st18" x1="53.8" y1="336.2" x2="90.4" y2="383.6"/>
<line class="st18" x1="48.1" y1="317.9" x2="100.8" y2="385.5"/>
<line class="st18" x1="45.3" y1="302" x2="113.9" y2="389"/>
<circle class="st1" cx="266.9" cy="435.9" r="53.1"/>
<path class="st19" d="M261.5,428.8l5.5-20.6h22.1c0,0,4.3,19.2,5.7,20.6c0,0-16,9.7-16.7,11.6L261.5,428.8z"/>
<path class="st19" d="M231.9,424.3l13,13.7c0,0-8.4,10.6-2.2,19.8c0,0-8.9-3-14.3,2.4c0,0-7.3-20.3-7.3-21.7
	C221.1,437.2,231.9,424.3,231.9,424.3z"/>
<path d="M230.8,397.1c0,0,8.2,5.7,9,7.1c0,0,8.4-9,17.1-7.1c0,0,0-9.3,12.5-14.1C269.3,382.9,248.4,380,230.8,397.1z"/>
<path d="M252.6,469.8c0,0,10.8,8.4,3.2,17.6c0,0,13.5-6,23.6,0c0,0,0.8-9.2,9.5-14.3c0,0-11.6-3.8-16.2-10
	C272.6,463,261.8,474.1,252.6,469.8z"/>
<path d="M314.1,460.2c0,0,2-3.5-4.2-4.1c0,0,0.8-13.8,0-16.8c0,0,8.4-7.6,8.8-15C318.7,424.3,323.7,447.1,314.1,460.2z"/>
<line class="st12" x1="296.1" y1="392" x2="288.6" y2="409.1"/>
<line class="st12" x1="255.8" y1="395.7" x2="267.7" y2="409.1"/>
<path class="st12" d="M239.8,402.8c0,0-7.9,12.3-7.9,22.4"/>
<line class="st12" x1="228.4" y1="459.1" x2="229.5" y2="473.5"/>
<line class="st12" x1="221.1" y1="438.5" x2="213.9" y2="438.5"/>
<line class="st12" x1="261.5" y1="428.8" x2="244.5" y2="437.5"/>
<line class="st12" x1="278.1" y1="437.5" x2="273.2" y2="464.8"/>
<path class="st12" d="M241.1,456.1c0,0,6.7,12.8,17.1,17.4"/>
<path class="st12" d="M286.6,473.5c0,0,22-13.4,24.8-17.4"/>
<line class="st12" x1="294.8" y1="428.8" x2="309.9" y2="439.3"/>
</svg>
