<?xml version="1.0" encoding="utf-8"?>
<!-- Generator: Adobe Illustrator 22.0.1, SVG Export Plug-In . SVG Version: 6.00 Build 0)  -->
<svg version="1.1" id="Calque_1" xmlns="http://www.w3.org/2000/svg" xmlns:xlink="http://www.w3.org/1999/xlink" x="0px" y="0px"
	 viewBox="0 0 200 200" style="enable-background:new 0 0 200 200;" xml:space="preserve">
<style type="text/css">
	.st0{fill:#FFFFFF;}
	.st1{fill:#FBEDB6;}
	.st2{fill:none;stroke:#010101;stroke-miterlimit:10;}
	.st3{fill:#B56628;}
	.st4{fill:#F99F3A;}
	.st5{fill:#FFDCB0;}
	.st6{fill:#D97A28;}
	.st7{fill:#010101;}
	.st8{fill:#A96B39;}
</style>
<g id="XMLID_1_">
	<g>
		<path class="st0" d="M184.1,171.6V27.7c0-6.6-5.4-12-12-12H28.2c-6.6,0-12,5.4-12,12v143.9c0,6.6,5.4,12,12,12h143.9
			C178.7,183.6,184.1,178.2,184.1,171.6z M193.6,18.1v163.1c0,6.6-5.4,12-12,12H18.4c-6.6,0-12-5.4-12-12V18.1c0-6.6,5.4-12,12-12
			h163.1C188.2,6.1,193.6,11.5,193.6,18.1z"/>
		<path class="st1" d="M184.1,27.7v143.9c0,6.6-5.4,12-12,12H28.2c-6.6,0-12-5.4-12-12V27.7c0-6.6,5.4-12,12-12h143.9
			C178.7,15.7,184.1,21.1,184.1,27.7z"/>
	</g>
	<g>
		<path class="st2" d="M172.1,183.6H28.2c-6.6,0-12-5.4-12-12V27.7c0-6.6,5.4-12,12-12h143.9c6.6,0,12,5.4,12,12v143.9
			C184.1,178.2,178.7,183.6,172.1,183.6z"/>
		<path class="st2" d="M181.6,193.2H18.4c-6.6,0-12-5.4-12-12V18.1c0-6.6,5.4-12,12-12h163.1c6.6,0,12,5.4,12,12v163.1
			C193.6,187.8,188.2,193.2,181.6,193.2z"/>
	</g>
</g>
<g>
	<path class="st3" d="M85,137.9c0,0-2.5-2-4.9-6.7c-4.1-7.9-4.9-17.1-4.9-23.5c0-0.8-0.5-1.5-1.3-1.8s-1.6,0-2.1,0.6
		c-0.1,0.1-2.3,2.9-3.8,7.1c-2.1,5.6-1.9,11,0.4,15.7c1.7,3.3,2.4,5.4,2.8,6.7c-2.9-0.1-7.8,0.2-11.1,2.8c-2,1.5-3.1,3.6-3.3,6.2
		c0,0.5,0.1,1,0.5,1.4c0.4,0.4,0.8,0.6,1.4,0.6h19.5c1,0,1.8-0.7,1.8-1.7c0.1-1.4,0.7-3.4,4.3-4.2c0.7-0.2,1.2-0.7,1.4-1.4
		C85.8,139.1,85.5,138.3,85,137.9z"/>
	<path class="st3" d="M73.3,98.6l0-8.4c0.1-0.1,0.2-0.2,0.3-0.3c0.6-0.8,1.1-1.8,1.5-3c0.3-1-0.2-2-1.2-2.3c-1-0.3-2,0.2-2.3,1.2
		c-0.2,0.7-0.5,1.3-0.9,1.8c-0.6,0.8-1.9,2.1-3.2,3.4c-4.3,4.4-7.2,7.5-7.2,10.2c0,6.9,0.8,10.4,2.7,11.9c0.7,0.5,1.4,0.8,2.3,0.8
		c0.3,0,0.6,0,0.8-0.1c3.8-0.8,4-6.9,3.8-10.3l4-1.3c1-0.3,1.5-1.4,1.2-2.3C74.8,99.1,74.1,98.6,73.3,98.6z"/>
</g>
<path class="st4" d="M153.4,144.5c-2.5-7.1-11.6-8.1-21.2-9.1c-4.6-0.5-9.4-1-13.9-2.2c-4.2-1.1-7.8-7.2-10.7-18.3
	c-2.7-10-4.4-22.5-5.7-32.6c-0.7-5-1.3-9.4-1.9-12.9c-1.6-8.9-4.1-15.3-7.8-19.6c-3.2-3.8-7.2-5.9-12.3-6.5c-8.8-1-13,5.6-14.6,8.1
	c-0.1,0.1-0.2,0.3-0.2,0.4c-0.3,0.5-2.2,1.2-3.2,1.6c-1.9,0.7-3.6,1.3-4.4,2.6c-1.2,1.9,0.6,4.3,2.3,6.1c1.4,1.5,2.9,2.7,2.9,2.8
	c0.4,0.3,0.9,0.5,1.5,0.4c2.5-0.4,5.5-0.2,8.3,0.3c0.8,1,2.8,3.7,1.4,7.3c-2.4,6-2.4,11.5-2.4,34.7c0,17.5,5.8,27,9,30.9
	c-0.3,0.2-0.7,0.4-1,0.6c-1.9,1.3-3,3.3-3.2,5.8c0,0.5,0.1,1,0.5,1.4c0.4,0.4,0.8,0.6,1.4,0.6h25c0.8,0,1.4-0.5,1.7-1.2l2.3-5.9
	c2.9,1.7,7.4,3.3,13.6,4.8c6,1.5,12.1,2.2,18.3,2.2h12.6c0.6,0,1.2-0.3,1.5-0.8C153.5,145.7,153.6,145.1,153.4,144.5z"/>
<path class="st5" d="M73.8,73c-2.4,6-2.4,11.5-2.4,34.7c0,17.5,5.8,27,9,30.9c4.6-1,13.5,1.2,13.5,1.2s0-0.3-0.1-0.8l-0.3-0.9
	c-0.6-1.5-2-4.1-5.5-7.8c-3.6-3.9-2.4-8.3-0.8-11.3l-0.4-1.1c0,0-3.4-42.3-7.3-52.5c-4.5,0.8-4.5,0.8-7.2,0.4
	C73.2,66.6,75.2,69.4,73.8,73z"/>
<path class="st4" d="M98.1,98.8c-0.3-1-1.4-1.5-2.3-1.2l-0.1,0l-4.3-10.9c0.4-2.2,0.3-4.1,0.2-4.2c-0.1-1-1-1.8-2-1.7
	c-1,0.1-1.8,1-1.7,2c0,0,0.3,3.7-1.4,6c-0.6,0.8-1.9,2.1-3.2,3.4c-4.3,4.4-7.2,7.5-7.2,10.2c0,6.9,0.8,10.4,2.7,11.9
	c0.7,0.5,1.4,0.8,2.3,0.8c0.3,0,0.6,0,0.8-0.1c2.2-0.5,3.5-2.8,3.8-6.8c0.1-1.3,0.1-2.5,0-3.4l11.1-3.7
	C97.9,100.8,98.4,99.7,98.1,98.8z"/>
<path class="st6" d="M153.4,144.5c-2.5-7.1-11.6-8.1-21.2-9.1c-4.6-0.5-9.4-1-13.9-2.2c-4.2-1.1-7.8-7.2-10.7-18.3
	c-2.7-10-4.4-22.5-5.7-32.6c-0.7-5-1.3-9.4-1.9-12.9c-1.6-8.9-4.1-15.3-7.8-19.6c-3.2-3.8-7.2-5.9-12.3-6.5c-2-0.2-3.7-0.1-5.2,0.3
	c4.1,0.9,7.4,2.9,10.2,6.1c3.7,4.3,6.2,10.7,7.8,19.6c0.6,3.5,1.2,7.9,1.9,12.9c1.4,10,3,22.5,5.7,32.6c3,11,6.6,17.2,10.7,18.3
	c4.5,1.2,9.2,1.7,13.9,2.2c9.6,1,18.6,2,21.2,9.1c0.2,0.6,0.1,1.2-0.2,1.7c-0.3,0.5-0.9,0.8-1.5,0.8h7.3c0.6,0,1.2-0.3,1.5-0.8
	C153.5,145.7,153.6,145.1,153.4,144.5z"/>
<path class="st7" d="M73.2,57.5c-1.2,0-2.1-1-2.1-2.1s1-2.1,2.1-2.1c1.2,0,2.1,1,2.1,2.1S74.3,57.5,73.2,57.5z"/>
<path class="st8" d="M86.6,62.1c-0.3,0-0.7-0.1-1-0.3c-0.9-0.5-1.1-1.7-0.6-2.6c1.3-2.1,1.3-3.1,1.1-3.3c-0.3-0.4-1.9-0.7-3-0.5
	c-1,0.1-1.9-0.6-2.1-1.6c-0.1-1,0.6-1.9,1.6-2.1c0.5-0.1,4.8-0.6,6.6,2.2c1.2,1.8,0.8,4.2-1.1,7.3C87.8,61.8,87.2,62.1,86.6,62.1z"
	/>
</svg>
