<?xml version="1.0" encoding="utf-8"?>
<!-- Generator: Adobe Illustrator 22.0.1, SVG Export Plug-In . SVG Version: 6.00 Build 0)  -->
<svg version="1.1" id="Calque_1" xmlns="http://www.w3.org/2000/svg" xmlns:xlink="http://www.w3.org/1999/xlink" x="0px" y="0px"
	 viewBox="0 0 200 200" style="enable-background:new 0 0 200 200;" xml:space="preserve">
<style type="text/css">
	.st0{fill:#D8C3DF;}
	.st1{fill:#FFFFFF;}
	.st2{fill:none;stroke:#010101;stroke-miterlimit:10;}
	.st3{fill:#CF3A27;}
	.st4{fill:none;}
	.st5{fill:#B9E1D8;}
	.st6{fill:#E65725;}
	.st7{fill:#010101;}
</style>
<g id="XMLID_1_">
	<g>
		<path class="st0" d="M172,15.3c6.6,0,12,5.4,12,12v143.9c0,6.6-5.4,12-12,12H28.1c-6.6,0-12-5.4-12-12V27.3c0-6.6,5.4-12,12-12
			H172z"/>
		<path class="st1" d="M184,27.3c0-6.6-5.4-12-12-12H28.1c-6.6,0-12,5.4-12,12v143.9c0,6.6,5.4,12,12,12H172c6.6,0,12-5.4,12-12
			L184,27.3L184,27.3z M18.3,5.6h163.1c6.6,0,12,5.4,12,12v163.1c0,6.6-5.4,12-12,12H18.3c-6.6,0-12-5.4-12-12V17.6
			C6.3,11,11.7,5.6,18.3,5.6z"/>
	</g>
	<g>
		<path class="st2" d="M172,183.1H28.1c-6.6,0-12-5.4-12-12V27.3c0-6.6,5.4-12,12-12H172c6.6,0,12,5.4,12,12v143.9
			C184,177.7,178.6,183.1,172,183.1z"/>
		<path class="st2" d="M181.5,192.8H18.3c-6.6,0-12-5.4-12-12V17.6c0-6.6,5.4-12,12-12h163.1c6.6,0,12,5.4,12,12v163.1
			C193.5,187.4,188.1,192.8,181.5,192.8z"/>
	</g>
</g>
<polygon class="st3" points="136.4,156.6 136.4,156.4 136.1,156.6 "/>
<g>
	<path class="st4" d="M145.6,85.9c1.3-3.5,2.1-7,2.2-10.4l-6.3,6.3L145.6,85.9z"/>
	<path class="st4" d="M131.3,92.1l6.6,6.6c2.2-2.4,4-5.1,5.5-7.8l-5.4-5.4L131.3,92.1z"/>
	<path class="st4" d="M121,102.4l5.4,5.4c2.7-1.5,5.3-3.3,7.7-5.5l-6.6-6.6L121,102.4z"/>
	<path class="st4" d="M146.8,66.5c-0.8-2.5-2-4.8-3.6-6.9l-1.7,1.7L146.8,66.5z"/>
	<path class="st4" d="M123.7,51.3c-3.5,0.2-7,0.9-10.4,2.2l4.1,4.1L123.7,51.3z"/>
	<path class="st4" d="M139.6,56c-2-1.6-4.3-2.8-6.9-3.6l5.2,5.2L139.6,56z"/>
	<path class="st4" d="M95.2,107.7c2,1.6,4.3,2.8,6.9,3.6l-5.2-5.2L95.2,107.7z"/>
	<path class="st4" d="M103.4,71.6L96.9,65c-2.2,2.4-4,5.1-5.5,7.8l5.4,5.4L103.4,71.6z"/>
	<path class="st4" d="M89.1,77.7c-1.3,3.5-2.1,7-2.2,10.4l6.3-6.3L89.1,77.7z"/>
	<path class="st4" d="M88,97.1c0.8,2.5,2,4.8,3.6,6.9l1.7-1.7L88,97.1z"/>
	<path class="st4" d="M113.7,61.3l-5.4-5.4c-2.7,1.5-5.3,3.3-7.7,5.5l6.6,6.6L113.7,61.3z"/>
	<path class="st4" d="M111.1,112.3c3.5-0.2,7-0.9,10.4-2.2l-4.1-4.1L111.1,112.3z"/>
	
		<rect x="102.4" y="97.7" transform="matrix(0.7071 -0.7071 0.7071 0.7071 -41.0218 105.7095)" class="st4" width="9.4" height="9.4"/>
	
		<rect x="122.9" y="56.6" transform="matrix(0.7071 -0.7071 0.7071 0.7071 -5.9623 108.2001)" class="st4" width="9.4" height="9.4"/>
	
		<rect x="102.4" y="77.2" transform="matrix(0.7071 -0.7071 0.7071 0.7071 -26.499 99.6944)" class="st4" width="9.4" height="9.4"/>
	
		<rect x="112.7" y="66.9" transform="matrix(0.7071 -0.7071 0.7071 0.7071 -16.2306 103.947)" class="st4" width="9.4" height="9.4"/>
	<path class="st4" d="M84.5,102.5c-1.4,6.5-3.6,13.2-7.8,18.4l1.6,1.6c5.2-4.2,11.9-6.5,18.4-7.8c-2.7-1.3-5.1-3-7.2-5.1
		C87.5,107.5,85.8,105.1,84.5,102.5z"/>
	
		<rect x="112.7" y="87.4" transform="matrix(0.7071 -0.7071 0.7071 0.7071 -30.7532 109.9629)" class="st4" width="9.4" height="9.4"/>
	
		<rect x="133.2" y="66.9" transform="matrix(0.7071 -0.7071 0.7071 0.7071 -10.2154 118.4696)" class="st4" width="9.4" height="9.4"/>
	
		<rect x="92.1" y="87.4" transform="matrix(0.7071 -0.7071 0.7071 0.7071 -36.7682 95.4403)" class="st4" width="9.4" height="9.4"/>
	
		<rect x="122.9" y="77.2" transform="matrix(0.7071 -0.7071 0.7071 0.7071 -20.4847 114.2163)" class="st4" width="9.4" height="9.4"/>
	<path class="st5" d="M103.4,71.6l-6.6,6.6l-5.4-5.4c-0.9,1.6-1.7,3.3-2.3,5l4.1,4.1l-6.3,6.3c-0.1,3.1,0.2,6.2,1.1,9l5.2,5.2
		l-1.7,1.7c0.5,0.7,1.1,1.3,1.7,1.9c0.6,0.6,1.3,1.2,1.9,1.7l1.7-1.7l5.2,5.2c2.4,0.7,4.9,1.1,7.7,1.1c0,0,0,0,0,0
		c0.4,0,0.9,0,1.3,0l6.3-6.3l4.1,4.1c1.7-0.6,3.4-1.4,5-2.3l-5.4-5.4l6.6-6.6l6.6,6.6c0.6-0.6,1.3-1.2,1.9-1.8
		c0.6-0.6,1.2-1.2,1.8-1.9l-6.6-6.6l6.6-6.6l5.4,5.4c0.9-1.6,1.7-3.3,2.3-5l-4.1-4.1l6.3-6.3c0.1-3.1-0.2-6.2-1.1-9l-5.2-5.2
		l1.7-1.7c-0.5-0.7-1.1-1.3-1.7-1.9c-0.6-0.6-1.3-1.2-1.9-1.7l-1.7,1.7l-5.2-5.2c-2.4-0.7-4.9-1.1-7.7-1.1c-0.4,0-0.9,0-1.3,0
		l-6.3,6.3l-4.1-4.1c-1.7,0.6-3.4,1.4-5,2.3l5.4,5.4l-6.6,6.6l-6.6-6.6c-0.6,0.6-1.3,1.2-1.9,1.8c-0.6,0.6-1.2,1.2-1.8,1.9
		L103.4,71.6z M90.2,92.1l6.6-6.6l6.6,6.6l-6.6,6.6L90.2,92.1z M107.1,109l-6.6-6.6l6.6-6.6l6.6,6.6L107.1,109z M117.4,98.7
		l-6.6-6.6l6.6-6.6l6.6,6.6L117.4,98.7z M127.6,88.5l-6.6-6.6l6.6-6.6l6.6,6.6L127.6,88.5z M144.5,71.6l-6.6,6.6l-6.6-6.6l6.6-6.6
		L144.5,71.6z M127.6,54.7l6.6,6.6l-6.6,6.6l-6.6-6.6L127.6,54.7z M117.4,64.9l6.6,6.6l-6.6,6.6l-6.6-6.6L117.4,64.9z M113.7,81.8
		l-6.6,6.6l-6.6-6.6l6.6-6.6L113.7,81.8z"/>
	<path class="st6" d="M72.8,124.2l-20.1,20.1c-0.6,0.6-0.6,1.6,0,2.2c0.3,0.3,0.7,0.5,1.1,0.5c0.4,0,0.8-0.2,1.1-0.5L75,126.4
		L72.8,124.2z"/>
	<path class="st7" d="M112.7,117.4c9.6-0.8,19.3-5.5,27-13.2c7.3-7.3,12-16.5,13.1-25.9c1.1-9.6-1.6-18.2-7.7-24.2
		c-5.1-5.1-12.2-7.9-20.1-7.9c-10.6,0-21.5,4.9-30,13.3C87.7,66.8,83.2,76,81.9,85.4c-0.2,1.5-0.5,4-0.8,5.7
		c-1.2,8.9-2.7,20-8.8,26.9c-0.5,0.1-1,0.3-1.4,0.7L49,140.7c-2.6,2.6-2.6,6.9,0,9.5c1.3,1.3,3,2,4.7,2c1.8,0,3.5-0.7,4.7-2
		l21.9-21.9c0.4-0.4,0.6-0.9,0.7-1.4c7-6.1,18-7.6,27-8.8C109.7,117.8,111.3,117.6,112.7,117.4z M100.5,61.4c2.4-2.2,5-4,7.7-5.5
		c1.6-0.9,3.3-1.7,5-2.3c3.4-1.3,6.9-2,10.4-2.2c0.4,0,0.9,0,1.3,0c2.7,0,5.3,0.4,7.7,1.1c2.5,0.8,4.9,2,6.9,3.6
		c0.7,0.5,1.3,1.1,1.9,1.7c0.6,0.6,1.2,1.3,1.7,1.9c1.6,2.1,2.8,4.4,3.6,6.9c0.9,2.8,1.2,5.9,1.1,9c-0.2,3.4-0.9,6.9-2.2,10.4
		c-0.6,1.7-1.4,3.3-2.3,5c-1.5,2.7-3.3,5.3-5.5,7.8c-0.6,0.6-1.2,1.3-1.8,1.9c-0.6,0.6-1.2,1.2-1.9,1.8c-2.4,2.2-5,4-7.7,5.5
		c-1.6,0.9-3.3,1.7-5,2.3c-3.4,1.3-6.9,2-10.4,2.2c-0.4,0-0.9,0-1.3,0c0,0,0,0,0,0c-2.7,0-5.3-0.4-7.7-1.1c-2.5-0.8-4.9-2-6.9-3.6
		c-0.7-0.5-1.3-1.1-1.9-1.7c-0.6-0.6-1.2-1.3-1.7-1.9c-1.6-2.1-2.8-4.4-3.6-6.9c-0.9-2.8-1.2-5.9-1.1-9c0.2-3.4,0.9-6.9,2.2-10.4
		c0.6-1.7,1.4-3.3,2.3-5c1.5-2.7,3.3-5.3,5.5-7.8c0.6-0.6,1.2-1.3,1.8-1.9C99.3,62.5,99.9,61.9,100.5,61.4z M53.8,147
		c-0.4,0-0.8-0.2-1.1-0.5c-0.6-0.6-0.6-1.6,0-2.2l20.1-20.1l2.2,2.2l-20.1,20.1C54.6,146.8,54.2,147,53.8,147z M78.3,122.5l-1.6-1.6
		c4.2-5.2,6.4-11.9,7.8-18.4c1.3,2.6,3,5,5.1,7.1c2.1,2.1,4.5,3.8,7.2,5.1C90.2,116,83.5,118.2,78.3,122.5z"/>
</g>
</svg>
