<?xml version="1.0" encoding="utf-8"?>
<!-- Generator: Adobe Illustrator 22.0.1, SVG Export Plug-In . SVG Version: 6.00 Build 0)  -->
<svg version="1.1" id="Calque_1" xmlns="http://www.w3.org/2000/svg" xmlns:xlink="http://www.w3.org/1999/xlink" x="0px" y="0px"
	 viewBox="0 0 200 200" style="enable-background:new 0 0 200 200;" xml:space="preserve">
<style type="text/css">
	.st0{fill:#D8C3DF;}
	.st1{fill:#FFFFFF;}
	.st2{fill:none;stroke:#010101;stroke-miterlimit:10;}
	.st3{fill:#73C7AC;}
	.st4{fill:#E65725;}
	.st5{fill:#010101;}
</style>
<g id="XMLID_1_">
	<g>
		<path class="st0" d="M172.1,16.1c6.6,0,12,5.4,12,12V172c0,6.6-5.4,12-12,12H28.2c-6.6,0-12-5.4-12-12V28.1c0-6.6,5.4-12,12-12
			H172.1z"/>
		<path class="st1" d="M184.1,28.1c0-6.6-5.4-12-12-12H28.2c-6.6,0-12,5.4-12,12V172c0,6.6,5.4,12,12,12h143.9c6.6,0,12-5.4,12-12
			L184.1,28.1L184.1,28.1z M18.4,6.4h163.1c6.6,0,12,5.4,12,12v163.1c0,6.6-5.4,12-12,12H18.4c-6.6,0-12-5.4-12-12V18.4
			C6.4,11.8,11.8,6.4,18.4,6.4z"/>
	</g>
	<g>
		<path class="st2" d="M172.1,183.9H28.2c-6.6,0-12-5.4-12-12V28.1c0-6.6,5.4-12,12-12h143.9c6.6,0,12,5.4,12,12V172
			C184.1,178.5,178.7,183.9,172.1,183.9z"/>
		<path class="st2" d="M181.6,193.6H18.4c-6.6,0-12-5.4-12-12V18.4c0-6.6,5.4-12,12-12h163.1c6.6,0,12,5.4,12,12v163.1
			C193.6,188.2,188.2,193.6,181.6,193.6z"/>
	</g>
</g>
<g>
	<polygon class="st3" points="139.6,52.6 134.9,57.2 134.9,62.2 139.6,57.6 	"/>
	<polygon class="st3" points="143,61 138.4,65.7 143.4,65.7 148,61 	"/>
	<path class="st1" d="M69.7,106.7c0,13.3,10.8,24.2,24.2,24.2s24.2-10.8,24.2-24.2c0-5.8-2-11.1-5.4-15.3l-6,6c1.9,2.6,3,5.8,3,9.3
		c0,8.7-7.1,15.7-15.7,15.7s-15.7-7.1-15.7-15.7S85.2,91,93.9,91c3.5,0,6.7,1.1,9.3,3l6-6c-4.2-3.4-9.5-5.4-15.3-5.4
		C80.5,82.6,69.7,93.4,69.7,106.7z"/>
	<path class="st1" d="M122,82l-6,6c4.3,5.1,6.9,11.6,6.9,18.7c0,16-13,29-29,29s-29-13-29-29c0-16,13-29,29-29
		c7.1,0,13.7,2.6,18.7,6.9l6-6c-6.6-5.8-15.2-9.3-24.7-9.3c-20.7,0-37.5,16.8-37.5,37.5s16.8,37.5,37.5,37.5s37.5-16.8,37.5-37.5
		C131.3,97.3,127.8,88.6,122,82z"/>
	<path class="st4" d="M93.9,77.7c-16,0-29,13-29,29s13,29,29,29s29-13,29-29c0-7.1-2.6-13.7-6.9-18.7l-3.5,3.5
		c3.4,4.2,5.4,9.5,5.4,15.3c0,13.3-10.8,24.2-24.2,24.2s-24.2-10.8-24.2-24.2s10.8-24.2,24.2-24.2c5.8,0,11.1,2,15.3,5.4l3.5-3.5
		C107.5,80.3,101,77.7,93.9,77.7z"/>
	<path class="st4" d="M83,106.7c0,6,4.9,10.9,10.9,10.9s10.9-4.9,10.9-10.9c0-2.1-0.6-4.1-1.7-5.8l-7.5,7.5
		c-0.5,0.5-1.1,0.7-1.7,0.7s-1.2-0.2-1.7-0.7c-1-1-1-2.5,0-3.4l7.5-7.5c-1.7-1-3.6-1.7-5.8-1.7C87.9,95.9,83,100.8,83,106.7z"/>
	<path class="st5" d="M156.2,57.6c-0.4-0.9-1.3-1.5-2.3-1.5h-9.5v-9.5c0-1-0.6-1.9-1.5-2.3c-0.9-0.4-2-0.2-2.7,0.5l-9.5,9.5
		c-0.5,0.5-0.7,1.1-0.7,1.7v10.9l-8,8c-7.8-6.9-17.7-10.7-28.2-10.7c-11.3,0-22,4.4-29.9,12.4s-12.4,18.6-12.4,29.9
		s4.4,22,12.4,29.9s18.6,12.4,29.9,12.4s22-4.4,29.9-12.4s12.4-18.6,12.4-29.9c0-10.5-3.8-20.4-10.7-28.2l8-8h10.9
		c0.6,0,1.3-0.3,1.7-0.7l9.6-9.5C156.3,59.6,156.6,58.5,156.2,57.6z M93.9,144.2c-20.7,0-37.5-16.8-37.5-37.5s16.8-37.5,37.5-37.5
		c9.5,0,18.1,3.5,24.7,9.3l-6,6l-3.5,3.5l-6,6c-2.6-1.9-5.8-3-9.3-3c-8.7,0-15.7,7.1-15.7,15.7s7.1,15.7,15.7,15.7
		s15.7-7.1,15.7-15.7c0-3.5-1.1-6.7-3-9.3l6-6L116,88l6-6c5.8,6.6,9.3,15.2,9.3,24.7C131.3,127.4,114.5,144.2,93.9,144.2z M92.1,105
		c-1,1-1,2.5,0,3.4c0.5,0.5,1.1,0.7,1.7,0.7s1.2-0.2,1.7-0.7l7.5-7.5c1,1.7,1.7,3.6,1.7,5.8c0,6-4.9,10.9-10.9,10.9
		S83,112.7,83,106.7c0-6,4.9-10.9,10.9-10.9c2.1,0,4.1,0.6,5.8,1.7L92.1,105z M138.4,65.7L143,61h5l-4.7,4.7H138.4z M134.9,57.2
		l4.7-4.7v5l-4.7,4.7V57.2z"/>
</g>
</svg>
