<svg id="Calque_1" data-name="Calque 1" xmlns="http://www.w3.org/2000/svg" viewBox="0 0 188.14 188.14"><defs><style>.cls-1{fill:#fff;}.cls-2{fill:#f9bcc4;}.cls-3{fill:none;stroke:#231f20;stroke-miterlimit:10;}.cls-4{fill:#f15c5d;}.cls-5{fill:#a7d16a;}.cls-6{fill:#010101;}</style></defs><title>tomate</title><path class="cls-1" d="M192.57,18.43V181.57a12,12,0,0,1-12,12H17.43a12,12,0,0,1-12-12V18.43a12,12,0,0,1,12-12H180.57A12,12,0,0,1,192.57,18.43Zm-9.51,153.5V28.07a12,12,0,0,0-12-12H27.2a12,12,0,0,0-12,12V171.93a12,12,0,0,0,12,12H171.06A12,12,0,0,0,183.06,171.93Z" transform="translate(-4.93 -5.93)"/><rect class="cls-2" x="10.27" y="10.14" width="167.86" height="167.86" rx="12" ry="12"/><rect class="cls-3" x="10.27" y="10.14" width="167.86" height="167.86" rx="12" ry="12"/><rect class="cls-3" x="0.5" y="0.5" width="187.14" height="187.14" rx="12" ry="12"/><path class="cls-4" d="M112.34,59.82h0a82.33,82.33,0,0,1-24.68,0h0a45.91,45.91,0,0,0-41.09,14.8l-.33.37a45.91,45.91,0,0,0-11.68,30.59h0a45.93,45.93,0,0,0,17.35,36l.36.28A90.13,90.13,0,0,0,100,161h0a90.13,90.13,0,0,0,47.73-19.17l.36-.28a45.93,45.93,0,0,0,17.35-35.95h0A45.91,45.91,0,0,0,153.76,75l-.33-.37A45.91,45.91,0,0,0,112.34,59.82Z" transform="translate(-4.93 -5.93)"/><path class="cls-5" d="M100,95.48c9.59-6.35,8.33-14.47,8.33-14.47s3.31,3.17,9.92,2.28S131.46,87,131.46,87s-1.57-12.56-12.58-17.39c8-1.65,8.65-6.85,18.88-10.15-17-10.54-37.77.17-37.77.17s-20.76-10.71-37.76-.17c10.23,3.3,10.86,8.5,18.88,10.15C70.1,74.41,68.53,87,68.53,87s6.61-4.57,13.21-3.68S91.66,81,91.66,81,90.4,89.13,100,95.48Z" transform="translate(-4.93 -5.93)"/><path class="cls-5" d="M94.68,63.18V58a27,27,0,0,1,9.74-20.74l7.24-6a5.54,5.54,0,0,1,7.23.14h0a5.54,5.54,0,0,1-.22,8.44l-2.79,2.25a26.94,26.94,0,0,0-10,21h0Z" transform="translate(-4.93 -5.93)"/><path class="cls-6" d="M155.74,73.22l-.33-.38a48.58,48.58,0,0,0-15.68-11.63,2.66,2.66,0,0,0-.57-4.05c-8.24-5.11-19.87-6.81-28.29-4.56a24.3,24.3,0,0,1,6.68-8.4L120.34,42a8.2,8.2,0,0,0,.33-12.49A8.26,8.26,0,0,0,110,29.25l-7.24,6A29.49,29.49,0,0,0,92.3,53.93c-8.93-2.6-19.61-4.12-31.47,3.23a2.65,2.65,0,0,0-.57,4,48.2,48.2,0,0,0-6.94,4,2.66,2.66,0,0,0,3,4.39,42.93,42.93,0,0,1,10.44-5.24,36.16,36.16,0,0,1,4.12,2.92,31.31,31.31,0,0,0,4.17,2.92c-7.8,6.25-9.11,16-9.17,16.48A2.66,2.66,0,0,0,70,89.16c.06,0,5.91-4,11.35-3.23a17.32,17.32,0,0,0,7.93-.67c.76,3.48,3,8.33,9.21,12.44a2.66,2.66,0,0,0,2.93,0c6.21-4.11,8.45-9,9.21-12.44a17.32,17.32,0,0,0,7.93.67c5.48-.74,11.3,3.19,11.35,3.23a2.66,2.66,0,0,0,4.15-2.52c-.06-.48-1.37-10.23-9.17-16.48a31.31,31.31,0,0,0,4.17-2.92,36.7,36.7,0,0,1,4.13-2.93,43.21,43.21,0,0,1,18.21,12.08l.34.37a43.24,43.24,0,0,1-5.35,62.68l-.4.32a87.05,87.05,0,0,1-46,18.55,87.35,87.35,0,0,1-46.08-18.58l-.35-.29a43,43,0,0,1-16.35-33.86,43.47,43.47,0,0,1,4.6-19.41,2.66,2.66,0,1,0-4.75-2.39,48.57,48.57,0,0,0,13.19,59.83l.35.28a92.49,92.49,0,0,0,49.14,19.69h.49a92.35,92.35,0,0,0,49.1-19.65l.4-.32a48.56,48.56,0,0,0,6-70.39ZM125.81,63.06c-2.29,1.8-4.09,3.22-7.47,3.92a2.64,2.64,0,0,0-2.11,2.32A2.68,2.68,0,0,0,117.81,72a18.56,18.56,0,0,1,9.37,9.87,19.9,19.9,0,0,0-9.29-1.24c-5,.67-7.47-1.36-7.73-1.58a2.59,2.59,0,0,0-3-.48,2.68,2.68,0,0,0-1.41,2.82c0,.06.79,5.69-5.71,10.79-6.27-4.92-5.76-10.38-5.71-10.8a2.63,2.63,0,0,0-4.46-2.33c-.26.22-2.78,2.25-7.73,1.58a19.83,19.83,0,0,0-9.31,1.25A18.46,18.46,0,0,1,82.18,72a2.68,2.68,0,0,0,1.58-2.72A2.64,2.64,0,0,0,81.65,67c-3.38-.7-5.18-2.12-7.47-3.92a36.93,36.93,0,0,0-5.68-3.87c8.34-3.41,16.39-2,23.38.11l.14,0v3.84a2.66,2.66,0,1,0,5.32,0V58a24.21,24.21,0,0,1,8.78-18.69l7.24-6a2.91,2.91,0,0,1,3.76.07,2.89,2.89,0,0,1-.12,4.39l-2.79,2.25a29.47,29.47,0,0,0-11,23,2.66,2.66,0,0,0,5.32,0,24.42,24.42,0,0,1,.34-4,.2.2,0,0,1,.08,0c2.94-1.64,7.5-2.37,12.51-2a35.44,35.44,0,0,1,10,2.21A37.1,37.1,0,0,0,125.81,63.06Z" transform="translate(-4.93 -5.93)"/><path class="cls-6" d="M44.47,77a2.62,2.62,0,0,0,1.77.68,2.67,2.67,0,0,0,2-.89l.33-.37a2.66,2.66,0,0,0-4-3.54l-.32.37A2.65,2.65,0,0,0,44.47,77Z" transform="translate(-4.93 -5.93)"/><path class="cls-6" d="M111,151a2.34,2.34,0,0,0,.64-.08,81.24,81.24,0,0,0,31-15.32l.4-.32a2.66,2.66,0,0,0-3.31-4.17l-.4.32a75.94,75.94,0,0,1-29,14.33A2.66,2.66,0,0,0,111,151Z" transform="translate(-4.93 -5.93)"/><path class="cls-6" d="M99,153h.25l.22,0a2.66,2.66,0,1,0-.5-5.3l-.21,0A2.66,2.66,0,0,0,99,153Z" transform="translate(-4.93 -5.93)"/></svg>