<?xml version="1.0" encoding="utf-8"?>
<!-- Generator: Adobe Illustrator 22.0.1, SVG Export Plug-In . SVG Version: 6.00 Build 0)  -->
<svg version="1.1" id="Calque_1" xmlns="http://www.w3.org/2000/svg" xmlns:xlink="http://www.w3.org/1999/xlink" x="0px" y="0px"
	 viewBox="0 0 200 200" style="enable-background:new 0 0 200 200;" xml:space="preserve">
<style type="text/css">
	.st0{fill:#FFFFFF;}
	.st1{fill:#FBEDB6;}
	.st2{fill:none;stroke:#010101;stroke-miterlimit:10;}
	.st3{fill:#896A5F;}
	.st4{fill:#A18577;}
	.st5{fill:#F1F0F0;}
	.st6{fill:#D9D9D8;}
	.st7{fill:#8FBB86;}
	.st8{fill:#80A878;}
	.st9{fill:#7B6255;}
	.st10{fill:#A2D397;}
	.st11{fill:#3C494B;}
</style>
<g id="XMLID_1_">
	<g>
		<path class="st0" d="M184.1,171.6V27.7c0-6.6-5.4-12-12-12H28.2c-6.6,0-12,5.4-12,12v143.9c0,6.6,5.4,12,12,12h143.9
			C178.7,183.6,184.1,178.2,184.1,171.6z M193.6,18.1v163.1c0,6.6-5.4,12-12,12H18.4c-6.6,0-12-5.4-12-12V18.1c0-6.6,5.4-12,12-12
			h163.1C188.2,6.1,193.6,11.5,193.6,18.1z"/>
		<path class="st1" d="M184.1,27.7v143.9c0,6.6-5.4,12-12,12H28.2c-6.6,0-12-5.4-12-12V27.7c0-6.6,5.4-12,12-12h143.9
			C178.7,15.7,184.1,21.1,184.1,27.7z"/>
	</g>
	<g>
		<path class="st2" d="M172.1,183.6H28.2c-6.6,0-12-5.4-12-12V27.7c0-6.6,5.4-12,12-12h143.9c6.6,0,12,5.4,12,12v143.9
			C184.1,178.2,178.7,183.6,172.1,183.6z"/>
		<path class="st2" d="M181.6,193.2H18.4c-6.6,0-12-5.4-12-12V18.1c0-6.6,5.4-12,12-12h163.1c6.6,0,12,5.4,12,12v163.1
			C193.6,187.8,188.2,193.2,181.6,193.2z"/>
	</g>
</g>
<path class="st3" d="M119.2,59.7H74.9c-24.7,0-32.6,29.8-31.2,44.9l53.4,6.8l53.4-6.8C151.8,89.5,144,59.7,119.2,59.7z"/>
<g>
	<path class="st4" d="M142.6,73l-9.8,4l-5.5,8.5l7.6,8.5l15.4,1.7l0,0C149.5,88.4,147.1,79.9,142.6,73z"/>
	<path class="st4" d="M43.8,95.7L43.8,95.7L59.2,94l6.9-8.5L61.3,77l-9.8-4C47,79.9,44.6,88.4,43.8,95.7z"/>
</g>
<path class="st5" d="M66,126.3c0,0,10.2,5.6,31,5.6s31-5.6,31-5.6v-13.6H66L66,126.3L66,126.3z"/>
<path class="st6" d="M128.1,112.7H66v10c1.4,0.8,2.8,1.5,4.4,2.1c10.2,4.2,22,4.7,26.7,4.7c4.6,0,16.4-0.5,26.7-4.7
	c1.6-0.6,3-1.4,4.4-2.1V112.7z"/>
<g>
	<path class="st7" d="M43.7,118.2c0,6.1-15.2,14.6-3,15.4s33.2-4.3,33.7-15.4l-15.2-6.8L43.7,118.2z"/>
	<path class="st7" d="M150.4,118.2c0,6.1,15.2,14.6,3,15.4c-12.1,0.8-33.2-4.3-33.7-15.4l15.2-6.8L150.4,118.2z"/>
</g>
<g>
	<path class="st8" d="M135.7,116.7c1-1.2,1.9-2.5,2.7-3.8l-3.4-1.5l-15.2,6.8c0.1,2.6,1.4,4.9,3.4,6.8c0.2-0.1,0.4-0.1,0.5-0.2
		C128.7,122.8,132.8,120,135.7,116.7z"/>
	<path class="st8" d="M55.8,112.9c0.7,1.3,1.6,2.6,2.7,3.8c2.9,3.3,6.9,6.1,12,8.2c0.2,0.1,0.4,0.1,0.5,0.2c2-2,3.3-4.2,3.4-6.8
		l-15.2-6.8L55.8,112.9z"/>
</g>
<path class="st9" d="M150.4,104.6H43.7c-3.8,0-6.8,3.1-6.8,6.8l0,0c0,3.8,3.1,6.8,6.8,6.8h106.7c3.8,0,6.8-3.1,6.8-6.8l0,0
	C157.2,107.6,154.2,104.6,150.4,104.6z"/>
<path class="st10" d="M97.1,123.4c14.3,0,37.9-4.1,37.9-21.4s2.1-46.9-37.9-46.9S59.2,84.8,59.2,102S82.8,123.4,97.1,123.4z"/>
<path class="st7" d="M66.5,102c0-16.7-1.9-45,34.2-46.8c-1.2-0.1-2.4-0.1-3.7-0.1c-40,0-37.9,29.7-37.9,46.9s23.6,21.4,37.9,21.4
	c1.2,0,2.4,0,3.7-0.1C86.4,122.6,66.5,117.8,66.5,102z"/>
<g>
	<path class="st11" d="M78.2,102.2c-1,0-1.8-0.8-1.8-1.8v-3.4c0-1,0.8-1.8,1.8-1.8c1,0,1.8,0.8,1.8,1.8v3.4
		C80,101.4,79.2,102.2,78.2,102.2z"/>
	<path class="st11" d="M116,102.2c-1,0-1.8-0.8-1.8-1.8v-3.4c0-1,0.8-1.8,1.8-1.8c1,0,1.8,0.8,1.8,1.8v3.4
		C117.8,101.4,117,102.2,116,102.2z"/>
	<path class="st11" d="M97.1,104c-2.4,0-4.6-1-6.1-2.7c-0.7-0.8-0.6-1.9,0.2-2.6c0.8-0.7,1.9-0.6,2.6,0.2c0.8,0.9,2,1.4,3.3,1.4
		c1.3,0,2.5-0.5,3.3-1.4c0.7-0.8,1.8-0.8,2.6-0.2c0.8,0.7,0.8,1.8,0.2,2.6C101.6,103,99.4,104,97.1,104z"/>
</g>
</svg>
