<?xml version="1.0" encoding="utf-8"?>
<!-- Generator: Adobe Illustrator 22.0.1, SVG Export Plug-In . SVG Version: 6.00 Build 0)  -->
<svg version="1.1" id="Calque_1" xmlns="http://www.w3.org/2000/svg" xmlns:xlink="http://www.w3.org/1999/xlink" x="0px" y="0px"
	 viewBox="0 0 200 200" style="enable-background:new 0 0 200 200;" xml:space="preserve">
<style type="text/css">
	.st0{fill:#FFFFFF;}
	.st1{fill:#D8EBDD;}
	.st2{fill:none;stroke:#010101;stroke-miterlimit:10;}
	.st3{fill:#273476;}
	.st4{fill:#CF202C;}
	.st5{fill:#EEEDEE;}
</style>
<g id="XMLID_1_">
	<g>
		<path class="st0" d="M193.6,18.4v163.1c0,6.6-5.4,12-12,12H18.4c-6.6,0-12-5.4-12-12V18.4c0-6.6,5.4-12,12-12h163.1
			C188.2,6.4,193.6,11.8,193.6,18.4z M184.1,171.9V28.1c0-6.6-5.4-12-12-12H28.2c-6.6,0-12,5.4-12,12V172c0,6.6,5.4,12,12,12h143.9
			C178.7,183.9,184.1,178.5,184.1,171.9z"/>
		<path class="st1" d="M184.1,28.1V172c0,6.6-5.4,12-12,12H28.2c-6.6,0-12-5.4-12-12V28.1c0-6.6,5.4-12,12-12h143.9
			C178.7,16.1,184.1,21.5,184.1,28.1z"/>
	</g>
	<g>
		<path class="st2" d="M172.1,183.9H28.2c-6.6,0-12-5.4-12-12V28.1c0-6.6,5.4-12,12-12h143.9c6.6,0,12,5.4,12,12V172
			C184.1,178.5,178.7,183.9,172.1,183.9z"/>
		<path class="st2" d="M181.6,193.6H18.4c-6.6,0-12-5.4-12-12V18.4c0-6.6,5.4-12,12-12h163.1c6.6,0,12,5.4,12,12v163.1
			C193.6,188.2,188.2,193.6,181.6,193.6z"/>
	</g>
</g>
<g transform="matrix(1.25 0 0 -1.25 0 45)">
	<g>
		<path class="st3" d="M36.1-32.5h13.7l-13.7,9.6V-32.5z"/>
		<path class="st3" d="M47.5-76.4h20.3v14.2L47.5-76.4z"/>
		<path class="st3" d="M92.2-62.2v-14.2h20.3L92.2-62.2z"/>
		<path class="st3" d="M36.1-56.9v-9.6l13.7,9.6H36.1z"/>
		<path class="st3" d="M112.5-13H92.2v-14.2L112.5-13z"/>
		<path class="st3" d="M110.1-56.9l13.7-9.6v9.6L110.1-56.9L110.1-56.9z"/>
		<path class="st3" d="M110.1-32.5h13.7v9.6L110.1-32.5z"/>
		<path class="st3" d="M67.8-13H47.5l20.3-14.2L67.8-13L67.8-13z"/>
	</g>
	<g>
		<g>
			<g>
				<path class="st4" d="M97.4-56.9l23.7-16.6c1.1,1.2,2,2.6,2.4,4.3l-17.6,12.3L97.4-56.9L97.4-56.9z"/>
				<path class="st4" d="M67.8-56.9h-5.2L38.9-73.5c1.3-1.3,2.9-2.2,4.7-2.6l24.2,16.9L67.8-56.9L67.8-56.9z"/>
				<path class="st4" d="M92.2-32.5h5.2L121.1-16c-1.3,1.3-2.9,2.2-4.7,2.6L92.2-30.2V-32.5z"/>
				<path class="st4" d="M62.6-32.5L38.9-16c-1.1-1.2-2-2.6-2.4-4.3l17.6-12.3H62.6z"/>
			</g>
			<g>
				<path class="st5" d="M123.9-52H87.3v-24.4h4.9v14.2l20.3-14.2h1.6c2.7,0,5.2,1.1,6.9,2.9L97.4-56.9h8.5l17.6-12.3
					c0.2,0.8,0.4,1.7,0.4,2.6v0.1l-13.7,9.6h13.7V-52z"/>
				<path class="st5" d="M36.1-52v-4.9h13.7l-13.7-9.6v-0.1c0-2.7,1.1-5.1,2.8-6.8l23.7,16.6h5.2v-2.3L43.7-76.1
					c0.7-0.2,1.5-0.3,2.2-0.3h1.6l20.3,14.2v-14.2h4.9V-52L36.1-52L36.1-52z"/>
				<path class="st5" d="M123.9-22.8c0,2.7-1.1,5.1-2.8,6.8L97.4-32.5h-5.2v2.3l24.2,16.9c-0.7,0.2-1.5,0.3-2.2,0.3h-1.6L92.2-27.3
					V-13h-4.9v-24.4h36.6v4.9h-13.7l13.7,9.6V-22.8z"/>
				<path class="st5" d="M67.8-13v-14.2L47.5-13h-1.6c-2.7,0-5.2-1.1-6.9-2.9l23.7-16.6h-8.5L36.5-20.2c-0.2-0.8-0.4-1.7-0.4-2.6
					v-0.1l13.7-9.6H36.1v-4.9h36.6V-13C72.7-13,67.8-13,67.8-13z"/>
			</g>
			<path class="st4" d="M87.3-37.4V-13H72.7v-24.4H36.1v-7.3V-52h36.6v-24.4h14.6V-52h36.6v7.3v7.3H87.3z"/>
		</g>
	</g>
</g>
</svg>
