<?xml version="1.0" encoding="utf-8"?>
<!-- Generator: Adobe Illustrator 22.0.1, SVG Export Plug-In . SVG Version: 6.00 Build 0)  -->
<svg version="1.1" id="Calque_1" xmlns="http://www.w3.org/2000/svg" xmlns:xlink="http://www.w3.org/1999/xlink" x="0px" y="0px"
	 viewBox="0 0 200 200" style="enable-background:new 0 0 200 200;" xml:space="preserve">
<style type="text/css">
	.st0{fill:#FFFFFF;}
	.st1{fill:#D8EBDD;}
	.st2{fill:none;stroke:#010101;stroke-miterlimit:10;}
	.st3{fill:#EEEDEE;}
	.st4{fill:#B22535;}
	.st5{fill:#3D3C6F;}
</style>
<g id="XMLID_1_">
	<g>
		<path class="st0" d="M194,18.4v163.1c0,6.6-5.4,12-12,12H18.8c-6.6,0-12-5.4-12-12V18.4c0-6.6,5.4-12,12-12h163.1
			C188.6,6.4,194,11.8,194,18.4z M184.5,171.9V28.1c0-6.6-5.4-12-12-12H28.6c-6.6,0-12,5.4-12,12V172c0,6.6,5.4,12,12,12h143.9
			C179.1,183.9,184.5,178.5,184.5,171.9z"/>
		<path class="st1" d="M184.5,28.1V172c0,6.6-5.4,12-12,12H28.6c-6.6,0-12-5.4-12-12V28.1c0-6.6,5.4-12,12-12h143.9
			C179.1,16.1,184.5,21.5,184.5,28.1z"/>
	</g>
	<g>
		<path class="st2" d="M172.5,183.9H28.6c-6.6,0-12-5.4-12-12V28.1c0-6.6,5.4-12,12-12h143.9c6.6,0,12,5.4,12,12V172
			C184.5,178.5,179.1,183.9,172.5,183.9z"/>
		<path class="st2" d="M182,193.6H18.8c-6.6,0-12-5.4-12-12V18.4c0-6.6,5.4-12,12-12h163.1c6.6,0,12,5.4,12,12v163.1
			C194,188.2,188.6,193.6,182,193.6z"/>
	</g>
</g>
<path class="st3" d="M47.5,128.3c0.1,0.3,0.2,0.6,0.3,0.9c0.3,0.8,0.6,1.5,1,2.2c0,0,0,0,0,0h0c2,3.5,5.8,5.9,10.1,5.9h82.2
	c4.3,0,8.1-2.4,10.1-5.9h0c0,0,0,0,0,0c0.4-0.7,0.7-1.4,1-2.2c0.1-0.3,0.2-0.6,0.3-0.9c0.1-0.3,0.1-0.5,0.2-0.8
	c0.1-0.6,0.2-1.3,0.2-1.9v0v-5.9v-5.9v-5.9V102v-5.9v-5.9v-5.9v-5.9v-5.9c0-0.7-0.1-1.3-0.2-2c0-0.3-0.1-0.5-0.2-0.8
	c-0.1-0.3-0.2-0.6-0.3-0.9c-0.3-0.8-0.6-1.5-1-2.2c0,0,0,0,0,0h0c-2-3.5-5.8-5.9-10.1-5.9H100v5.9v5.9v5.9v5.9v5.9v5.9v5.9H47.2v5.9
	v5.9v5.9v5.9c0,0.7,0.1,1.3,0.2,2C47.4,127.7,47.5,128,47.5,128.3z"/>
<g>
	<path class="st4" d="M151.2,66.8c-2-3.5-5.8-5.9-10.1-5.9H100v5.9H151.2L151.2,66.8z"/>
	<polygon class="st4" points="47.2,125.5 152.8,125.5 152.8,119.6 47.2,119.6 	"/>
	<rect x="100" y="96.1" class="st4" width="52.8" height="5.9"/>
	<rect x="100" y="84.4" class="st4" width="52.8" height="5.9"/>
	<rect x="47.2" y="107.9" class="st4" width="105.7" height="5.9"/>
	<path class="st4" d="M141.1,137.2c4.3,0,8.1-2.4,10.1-5.9H48.8c2,3.5,5.8,5.9,10.1,5.9H141.1z"/>
	<rect x="100" y="72.6" class="st4" width="52.8" height="5.9"/>
</g>
<g>
	<path class="st3" d="M47.2,72.6c0-0.7,0.1-1.3,0.2-2C47.2,71.3,47.2,71.9,47.2,72.6"/>
	<path class="st3" d="M48.8,66.8C48.8,66.8,48.8,66.8,48.8,66.8C48.8,66.8,48.8,66.8,48.8,66.8z"/>
	<path class="st3" d="M47.5,69.8c0.1-0.3,0.2-0.6,0.3-0.9C47.7,69.2,47.6,69.5,47.5,69.8"/>
</g>
<path class="st5" d="M100,60.9H58.9c-6.5,0-11.7,5.3-11.7,11.7V102H100V60.9z"/>
<g>
	<path class="st0" d="M53,68.9l1.8,1.3l-0.7,2.1L56,71l1.8,1.3l-0.7-2.1l1.8-1.3h-2.2L56,66.8l-0.7,2.1H53z"/>
	<path class="st0" d="M58.9,74.8l1.8,1.3L60,78.2l1.8-1.3l1.8,1.3L63,76.1l1.8-1.3h-2.2l-0.7-2.1l-0.7,2.1H58.9z"/>
	<path class="st0" d="M70.6,74.8l1.8,1.3l-0.7,2.1l1.8-1.3l1.8,1.3l-0.7-2.1l1.8-1.3h-2.2l-0.7-2.1l-0.7,2.1H70.6z"/>
	<path class="st0" d="M82.4,74.8l1.8,1.3l-0.7,2.1l1.8-1.3l1.8,1.3l-0.7-2.1l1.8-1.3H86l-0.7-2.1l-0.7,2.1H82.4z"/>
	<path class="st0" d="M58.9,86.5l1.8,1.3L60,90l1.8-1.3l1.8,1.3L63,87.8l1.8-1.3h-2.2l-0.7-2.1l-0.7,2.1H58.9z"/>
	<path class="st0" d="M70.6,86.5l1.8,1.3L71.8,90l1.8-1.3l1.8,1.3l-0.7-2.1l1.8-1.3h-2.2l-0.7-2.1l-0.7,2.1H70.6z"/>
	<path class="st0" d="M82.4,86.5l1.8,1.3L83.5,90l1.8-1.3l1.8,1.3l-0.7-2.1l1.8-1.3H86l-0.7-2.1l-0.7,2.1H82.4z"/>
	<path class="st0" d="M64.8,68.9l1.8,1.3l-0.7,2.1l1.8-1.3l1.8,1.3l-0.7-2.1l1.8-1.3h-2.2l-0.7-2.1L67,68.9H64.8z"/>
	<path class="st0" d="M76.5,68.9l1.8,1.3l-0.7,2.1l1.8-1.3l1.8,1.3l-0.7-2.1l1.8-1.3h-2.2l-0.7-2.1l-0.7,2.1H76.5z"/>
	<path class="st0" d="M88.3,68.9l1.8,1.3l-0.7,2.1l1.8-1.3l1.8,1.3l-0.7-2.1l1.8-1.3h-2.2l-0.7-2.1l-0.7,2.1H88.3z"/>
	<path class="st0" d="M53,80.6l1.8,1.3l-0.7,2.1l1.8-1.3l1.8,1.3L57.1,82l1.8-1.3h-2.2L56,78.5l-0.7,2.1H53z"/>
	<path class="st0" d="M65.9,84.1l1.8-1.3l1.8,1.3l-0.7-2.1l1.8-1.3h-2.2l-0.7-2.1L67,80.6h-2.2l1.8,1.3L65.9,84.1z"/>
	<path class="st0" d="M76.5,80.6l1.8,1.3l-0.7,2.1l1.8-1.3l1.8,1.3L80.6,82l1.8-1.3h-2.2l-0.7-2.1l-0.7,2.1H76.5z"/>
	<path class="st0" d="M88.3,80.6l1.8,1.3l-0.7,2.1l1.8-1.3l1.8,1.3L92.3,82l1.8-1.3h-2.2l-0.7-2.1l-0.7,2.1H88.3z"/>
	<path class="st0" d="M53,92.4l1.8,1.3l-0.7,2.1l1.8-1.3l1.8,1.3l-0.7-2.1l1.8-1.3h-2.2L56,90.2l-0.7,2.1H53L53,92.4z"/>
	<path class="st0" d="M65.9,95.8l1.8-1.3l1.8,1.3l-0.7-2.1l1.8-1.3h-2.2l-0.7-2.1L67,92.4h-2.2l1.8,1.3L65.9,95.8z"/>
	<path class="st0" d="M76.5,92.4l1.8,1.3l-0.7,2.1l1.8-1.3l1.8,1.3l-0.7-2.1l1.8-1.3h-2.2l-0.7-2.1l-0.7,2.1H76.5L76.5,92.4z"/>
	<path class="st0" d="M88.3,92.4l1.8,1.3l-0.7,2.1l1.8-1.3l1.8,1.3l-0.7-2.1l1.8-1.3h-2.2l-0.7-2.1l-0.7,2.1H88.3L88.3,92.4z"/>
</g>
</svg>
