<?xml version="1.0" encoding="utf-8"?>
<!-- Generator: Adobe Illustrator 22.0.1, SVG Export Plug-In . SVG Version: 6.00 Build 0)  -->
<svg version="1.1" id="Calque_1" xmlns="http://www.w3.org/2000/svg" xmlns:xlink="http://www.w3.org/1999/xlink" x="0px" y="0px"
	 viewBox="0 0 200 200" style="enable-background:new 0 0 200 200;" xml:space="preserve">
<style type="text/css">
	.st0{fill:#FFFFFF;}
	.st1{fill:#FBEDB6;}
	.st2{fill:none;stroke:#010101;stroke-miterlimit:10;}
	.st3{fill:#434343;}
	.st4{fill:#EE999B;}
	.st5{fill:#E6E1D7;}
	.st6{opacity:0.1;fill:#010101;enable-background:new    ;}
	.st7{fill:#212121;}
	.st8{fill:#D98B8C;}
	.st9{fill:#FECD82;}
</style>
<g id="XMLID_1_">
	<g>
		<path class="st0" d="M184.1,171.6V27.7c0-6.6-5.4-12-12-12H28.2c-6.6,0-12,5.4-12,12v143.9c0,6.6,5.4,12,12,12h143.9
			C178.7,183.6,184.1,178.2,184.1,171.6z M193.6,18.1v163.1c0,6.6-5.4,12-12,12H18.4c-6.6,0-12-5.4-12-12V18.1c0-6.6,5.4-12,12-12
			h163.1C188.2,6.1,193.6,11.5,193.6,18.1z"/>
		<path class="st1" d="M184.1,27.7v143.9c0,6.6-5.4,12-12,12H28.2c-6.6,0-12-5.4-12-12V27.7c0-6.6,5.4-12,12-12h143.9
			C178.7,15.7,184.1,21.1,184.1,27.7z"/>
	</g>
	<g>
		<path class="st2" d="M172.1,183.6H28.2c-6.6,0-12-5.4-12-12V27.7c0-6.6,5.4-12,12-12h143.9c6.6,0,12,5.4,12,12v143.9
			C184.1,178.2,178.7,183.6,172.1,183.6z"/>
		<path class="st2" d="M181.6,193.2H18.4c-6.6,0-12-5.4-12-12V18.1c0-6.6,5.4-12,12-12h163.1c6.6,0,12,5.4,12,12v163.1
			C193.6,187.8,188.2,193.2,181.6,193.2z"/>
	</g>
</g>
<path class="st3" d="M62.2,63.6c-9.2-9.7-20.5-7.4-28.8-5.5C25,60,43.7,85.6,60.3,75.8l4.8-2.1L62.2,63.6z"/>
<path class="st4" d="M61.9,68.5c-4-3.5-8.4-5-14-4.7c-1.3,0.1-2.6,0.2-4,0.4c-1.5,0.2-2.1,2.1-1.1,3.2c0.6,0.6,1.3,1.3,2,1.9
	c4,3.4,8.4,5.3,12.1,5.1h0c2-0.1,3.8-0.7,5.6-2l0.4-0.3L61.9,68.5z"/>
<path class="st3" d="M131,63.6c9.2-9.7,20.5-7.4,28.8-5.5S149.5,85.6,133,75.8l-4.8-2.1L131,63.6z"/>
<path class="st4" d="M131.4,68.5c4-3.5,8.4-5,14-4.7c1.3,0.1,2.6,0.2,4,0.4c1.5,0.2,2.1,2.1,1.1,3.2c-0.6,0.6-1.3,1.3-2,1.9
	c-4,3.4-8.4,5.3-12.1,5.1h0c-2-0.1-3.8-0.7-5.6-2l-0.4-0.3L131.4,68.5z"/>
<path class="st5" d="M126.9,116.8C126.9,116.8,126.9,116.8,126.9,116.8L126.9,116.8l-8-68.1c-5.6-3.4-12.9-5.3-22.3-5.3
	c-9.3,0-16.6,1.9-22.1,5.2l-0.3,0.2l0.2,0.2l-8.2,67.8h0v0c0.2,2.3,0.3,4.5,0.5,6.6h59.6c0,0,0,0,0,0l0-0.1
	C126.6,121.2,126.7,119.1,126.9,116.8C126.9,116.8,126.9,116.8,126.9,116.8z"/>
<path class="st6" d="M65.1,73.7l-2.9-10.1c-2.1-2.2-4.3-3.8-6.6-4.9c-1.2,2.8-2.2,5.8-2.8,9c-0.6,3.3-1,6.7-1,10.3
	c2.8,0.1,5.6-0.6,8.3-2.3L65.1,73.7z"/>
<path class="st3" d="M62.6,96.4c2.3,7.7,3.2,14.4,3.7,20.3c6.7-12.3,18.2-12.9,19.2-25.6C86.8,74.6,71.4,73.6,78,53l-3.7-4.3
	C58.8,58.1,57.2,78.2,62.6,96.4z"/>
<path class="st7" d="M72,84.5c-1-0.1-2,0.1-2.9,0.5c-0.5,0.3-0.9,0.7-0.9,1.3l0,0c-0.3,3.1,1.8,5.8,4.8,6.1c1,0.1,2-0.1,2.9-0.5
	c0.5-0.3,0.9-0.7,0.9-1.3l0,0C77.2,87.6,75,84.8,72,84.5z"/>
<path class="st8" d="M118.5,144.5c1.5,10-3.2,14.5-21.9,14.5h0c-18.7,0-23.4-4.5-21.9-14.5H118.5z"/>
<path class="st4" d="M118.5,144.5c6.6-4.8,7.3-11.6,7.9-21.1c-7.7-3.8-18.2-6.2-29.8-6.2c-11.6,0-22.2,2.3-29.8,6.2
	c0.7,9.5,1.3,16.3,7.9,21.1c8.9,5,21.9,4.8,21.9,4.8S109.6,149.5,118.5,144.5z"/>
<ellipse transform="matrix(0.9616 -0.2746 0.2746 0.9616 -32.9943 27.4996)" class="st7" cx="81.7" cy="131.6" rx="5" ry="7.4"/>
<path class="st6" d="M140.4,67.8c-0.6-3.2-1.6-6.2-2.8-9c-2.3,1.1-4.5,2.7-6.6,4.9l-2.9,10.1l4.8,2.1c2.8,1.7,5.6,2.3,8.3,2.3
	C141.3,74.5,141,71,140.4,67.8z"/>
<path class="st3" d="M130.6,96.4c-2.3,7.7-3.2,14.4-3.7,20.3c-6.7-12.3-18.2-12.9-19.2-25.6c-1.2-16.6,14.1-17.7,7.5-38.2l3.7-4.3
	C134.5,58.1,136,78.2,130.6,96.4z"/>
<g>
	<path class="st7" d="M121.2,84.5c1-0.1,2,0.1,2.9,0.5c0.5,0.3,0.9,0.7,0.9,1.3l0,0c0.3,3.1-1.8,5.8-4.8,6.1c-1,0.1-2-0.1-2.9-0.5
		c-0.5-0.3-0.9-0.7-0.9-1.3l0,0C116.1,87.6,118.2,84.8,121.2,84.5z"/>
	<ellipse transform="matrix(0.2746 -0.9616 0.9616 0.2746 -45.6481 202.6796)" class="st7" cx="111.5" cy="131.6" rx="7.4" ry="5"/>
</g>
<path class="st9" d="M83.4,54.1c-1,3.8-5.7,5.4-8.8,3.1c-3.4-2.5-4.3-7.6-4-11.6c0.1-2.4,1.4-8,4.9-7c4.4,1.3,4.5,8.4,7,11.5
	C83.5,51.5,83.7,52.9,83.4,54.1z"/>
<path class="st6" d="M77.2,51.9c-3.4-2.5-4.3-7.6-4-11.6c0-0.4,0.1-0.9,0.2-1.5c-1.9,1.1-2.7,4.9-2.8,6.8c-0.2,4,0.6,9.1,4,11.6
	c3.2,2.3,7.8,0.7,8.8-3.1c0.2-0.6,0.2-1.2,0.1-1.9C81.6,53.3,79.1,53.3,77.2,51.9z"/>
<path class="st9" d="M109.9,54.1c1,3.8,5.7,5.4,8.8,3.1c3.4-2.5,4.3-7.6,4-11.6c-0.1-2.4-1.4-8-4.9-7c-4.4,1.3-4.5,8.4-7,11.5
	C109.7,51.5,109.6,52.9,109.9,54.1z"/>
<path class="st6" d="M116.1,51.9c3.4-2.5,4.3-7.6,4-11.6c0-0.4-0.1-0.9-0.2-1.5c1.9,1.1,2.7,4.9,2.8,6.8c0.2,4-0.6,9.1-4,11.6
	c-3.2,2.3-7.8,0.7-8.8-3.1c-0.2-0.6-0.2-1.2-0.1-1.9C111.7,53.3,114.2,53.3,116.1,51.9z"/>
</svg>
