<?xml version="1.0" encoding="utf-8"?>
<!-- Generator: Adobe Illustrator 22.0.1, SVG Export Plug-In . SVG Version: 6.00 Build 0)  -->
<svg version="1.1" id="Calque_1" xmlns="http://www.w3.org/2000/svg" xmlns:xlink="http://www.w3.org/1999/xlink" x="0px" y="0px"
	 viewBox="0 0 200 200" style="enable-background:new 0 0 200 200;" xml:space="preserve">
<style type="text/css">
	.st0{fill:#D8C3DF;}
	.st1{fill:#FFFFFF;}
	.st2{fill:none;stroke:#010101;stroke-miterlimit:10;}
	.st3{fill:none;stroke:#000000;stroke-miterlimit:10;}
	.st4{fill:#C78C64;}
	.st5{fill:#F4B954;}
	.st6{fill:#48BFAB;}
	.st7{fill:#010101;}
</style>
<g id="XMLID_1_">
	<g>
		<path class="st0" d="M172.1,16.1c6.6,0,12,5.4,12,12V172c0,6.6-5.4,12-12,12H28.2c-6.6,0-12-5.4-12-12V28.1c0-6.6,5.4-12,12-12
			H172.1z"/>
		<path class="st1" d="M184.1,28.1c0-6.6-5.4-12-12-12H28.2c-6.6,0-12,5.4-12,12V172c0,6.6,5.4,12,12,12h143.9c6.6,0,12-5.4,12-12
			L184.1,28.1L184.1,28.1z M18.4,6.4h163.1c6.6,0,12,5.4,12,12v163.1c0,6.6-5.4,12-12,12H18.4c-6.6,0-12-5.4-12-12V18.4
			C6.4,11.8,11.8,6.4,18.4,6.4z"/>
	</g>
	<g>
		<path class="st2" d="M172.1,183.9H28.2c-6.6,0-12-5.4-12-12V28.1c0-6.6,5.4-12,12-12h143.9c6.6,0,12,5.4,12,12V172
			C184.1,178.5,178.7,183.9,172.1,183.9z"/>
		<path class="st2" d="M181.6,193.6H18.4c-6.6,0-12-5.4-12-12V18.4c0-6.6,5.4-12,12-12h163.1c6.6,0,12,5.4,12,12v163.1
			C193.6,188.2,188.2,193.6,181.6,193.6z"/>
	</g>
</g>
<line class="st3" x1="67.5" y1="64.5" x2="67.5" y2="64.5"/>
<path class="st4" d="M47.3,140.7l11-5.6h29.6l16-11.4l18.4,2.6l15.4-9.6h9.4v32.7H47.3V140.7z"/>
<path class="st5" d="M66,83.7l14.2-3.8l-5.2-7l-11.1,3c-2.8,0.7-3.9,4-2.2,6.3l0,0C62.7,83.5,64.4,84.1,66,83.7z"/>
<g>
	<circle class="st6" cx="69.6" cy="114.9" r="20.3"/>
	<circle class="st6" cx="126.8" cy="99.5" r="20.3"/>
</g>
<path class="st7" d="M147.2,114.6h-3.9c1.1-1.2,2.1-2.5,2.9-4c3-5.2,3.8-11.2,2.2-16.9c-3.2-11.9-15.5-19-27.3-15.8
	c-2.1,0.6-4,1.4-5.8,2.5l-11.6-15.7l3.3-0.9c2.1-0.6,3.9-2,5.1-3.9c1.1-1.9,1.4-4.2,0.8-6.3c-0.6-2.1-2-3.9-3.9-5.1
	c-1.9-1.1-4.2-1.4-6.3-0.8l-10.9,2.9c-1.1,0.3-1.7,1.4-1.4,2.5c0.1,0.3,0.2,0.5,0.3,0.7c0,0,0,0,0,0l6.3,8.5L92,63.7
	c-1.1,0.3-1.7,1.4-1.4,2.5c0.2,0.9,1.1,1.5,2,1.5c0.2,0,0.4,0,0.5-0.1l6.4-1.7l4.1,5.6L81,77.5l-4.4-5.9c-0.5-0.7-1.4-1-2.2-0.8
	l-11.1,3c-1.9,0.5-3.5,2-4.2,3.9c-0.7,1.9-0.3,4,0.8,5.6c1.2,1.6,3,2.5,4.9,2.5c0.5,0,1.1-0.1,1.6-0.2l9.5-2.5l-2.6,9.8
	c-3.1-0.5-6.4-0.4-9.6,0.4c-5.8,1.5-10.6,5.2-13.6,10.4c-3,5.2-3.8,11.2-2.2,16.9c1.4,5.3,4.6,9.8,9.2,12.8l-10.8,5.5
	c-0.7,0.3-1.1,1-1.1,1.8v8.6c0,1.1,0.9,2,2,2h99.9c1.1,0,2-0.9,2-2v-32.7C149.2,115.5,148.3,114.6,147.2,114.6z M95.7,53.8l8.1-2.2
	c1.1-0.3,2.3-0.1,3.2,0.4c1,0.6,1.7,1.5,2,2.6c0.3,1.1,0.1,2.3-0.4,3.2c-0.6,1-1.5,1.7-2.6,2l-4.8,1.3L95.7,53.8z M122.1,81.9
	c1.6-0.4,3.2-0.6,4.7-0.6c8.1,0,15.5,5.4,17.7,13.5c1.3,4.7,0.6,9.6-1.8,13.9c-1.5,2.6-3.6,4.7-6,6.3c0,0,0,0,0,0l-0.3,0.2
	c-1.5,0.9-3.1,1.6-4.8,2.1c-4.7,1.3-9.6,0.6-13.9-1.8c-4.2-2.4-7.2-6.4-8.5-11.1c-1.8-6.8,0.4-13.7,5.2-18.1l10.8,14.6
	c0.4,0.5,1,0.8,1.6,0.8c0.4,0,0.8-0.1,1.2-0.4c0.9-0.7,1.1-1.9,0.4-2.8l-10.8-14.6C119.1,82.9,120.5,82.3,122.1,81.9z M65.5,81.7
	c-0.8,0.2-1.7-0.1-2.2-0.8c-0.4-0.6-0.5-1.2-0.3-1.9c0.2-0.6,0.7-1.1,1.4-1.3l9.8-2.6l0.4,0.6c0,0,0,0,0,0l2.2,2.9L65.5,81.7z
	 M80.2,83.3l3,4.1c0.4,0.5,1,0.8,1.6,0.8c0.4,0,0.8-0.1,1.2-0.4c0.9-0.7,1.1-1.9,0.4-2.8l-2.8-3.9l22.6-6.1l5.8,7.8
	c-6.1,5.4-9,14-6.7,22.5c1.5,5.8,5.2,10.6,10.4,13.6c3.1,1.8,6.5,2.8,10,3l-3.8,2.4l-17.7-2.5c-0.5-0.1-1,0.1-1.5,0.4l-15.5,11.1
	h-4.8c2.6-1.8,4.8-4.3,6.5-7.1c2.6-4.6,3.6-9.8,2.7-15l8.9-2.4c0.7-0.2,1.2-0.7,1.4-1.3c0.2-0.6,0.1-1.3-0.3-1.9l-6.1-8.1
	c-0.7-0.9-1.9-1.1-2.8-0.4c-0.9,0.7-1.1,1.9-0.4,2.8l4.3,5.7l-6,1.6c-1.8-4.9-5.2-9-9.8-11.6c-1.1-0.6-2.3-1.2-3.4-1.6L80.2,83.3z
	 M76.3,97.8c0.8,0.3,1.7,0.7,2.5,1.2c3.6,2.1,6.4,5.3,7.9,9.2L72.5,112L76.3,97.8z M51.9,119.6c-2.6-9.7,3.2-19.8,12.9-22.4
	c1.6-0.4,3.2-0.6,4.8-0.6c0.9,0,1.8,0.1,2.7,0.2l-4.7,17.5c-0.2,0.7,0,1.4,0.5,2c0.4,0.4,0.9,0.6,1.4,0.6c0.2,0,0.4,0,0.5-0.1
	l17.5-4.7c0.6,4.1-0.1,8.2-2.2,11.9c-2.4,4.2-6.4,7.2-11.1,8.5c-1.5,0.4-3,0.6-4.4,0.6h-0.1c-3.2,0-6.4-0.8-9.3-2.5
	C56.2,128.2,53.2,124.3,51.9,119.6z M145.1,147.4H49.3V142l9.4-4.8h29.2c0.4,0,0.8-0.1,1.2-0.4l15.4-11l17.6,2.5
	c0.5,0.1,1,0,1.4-0.3l14.9-9.3h6.8L145.1,147.4L145.1,147.4z"/>
<path class="st7" d="M138.8,98.4c0.3,1,1.1,1.6,2.1,1.6c0.2,0,0.4,0,0.6-0.1c1.2-0.3,1.8-1.5,1.5-2.6l0-0.1
	c-0.3-1.2-1.5-1.8-2.6-1.5C139.1,96,138.4,97.2,138.8,98.4L138.8,98.4z"/>
<path class="st7" d="M118.6,106.5c-0.7-0.9-2-1-2.9-0.2c-0.9,0.7-1,2-0.2,2.9c2.9,3.4,7.1,5.3,11.4,5.3c1.3,0,2.6-0.2,3.8-0.5
	c4.6-1.2,8.2-4.5,10-8.9c0.4-1-0.1-2.2-1.1-2.6c-1-0.4-2.2,0.1-2.6,1.1c-1.3,3.2-3.9,5.6-7.3,6.5
	C125.6,111.1,121.3,109.7,118.6,106.5z"/>
<path class="st7" d="M89.5,94.5c0.5,0,1.1-0.2,1.4-0.6c0.4-0.4,0.6-0.9,0.6-1.4c0-0.5-0.2-1.1-0.6-1.4c-0.4-0.4-0.9-0.6-1.4-0.6
	c-0.5,0-1.1,0.2-1.4,0.6c-0.4,0.4-0.6,0.9-0.6,1.4s0.2,1.1,0.6,1.4C88.4,94.3,88.9,94.5,89.5,94.5z"/>
</svg>
