<?xml version="1.0" encoding="utf-8"?>
<!-- Generator: Adobe Illustrator 22.0.1, SVG Export Plug-In . SVG Version: 6.00 Build 0)  -->
<svg version="1.1" id="Calque_1" xmlns="http://www.w3.org/2000/svg" xmlns:xlink="http://www.w3.org/1999/xlink" x="0px" y="0px"
	 viewBox="0 0 200 200" style="enable-background:new 0 0 200 200;" xml:space="preserve">
<style type="text/css">
	.st0{fill:#FFFFFF;}
	.st1{fill:#F9BCC4;}
	.st2{fill:none;stroke:#000000;stroke-miterlimit:10;}
	.st3{fill:#402E21;}
	.st4{fill:#CF5A3F;}
</style>
<g id="XMLID_1_">
	<g>
		<path class="st0" d="M193.6,18.4v163.1c0,6.6-5.4,12-12,12H18.4c-6.6,0-12-5.4-12-12V18.4c0-6.6,5.4-12,12-12h163.1
			C188.2,6.4,193.6,11.8,193.6,18.4z M184.1,171.9V28.1c0-6.6-5.4-12-12-12H28.2c-6.6,0-12,5.4-12,12v143.9c0,6.6,5.4,12,12,12
			h143.9C178.7,183.9,184.1,178.5,184.1,171.9z"/>
		<path class="st1" d="M184.1,28.1v143.9c0,6.6-5.4,12-12,12H28.2c-6.6,0-12-5.4-12-12V28.1c0-6.6,5.4-12,12-12h143.9
			C178.7,16.1,184.1,21.5,184.1,28.1z"/>
	</g>
	<g>
		<path class="st2" d="M172.1,183.9H28.2c-6.6,0-12-5.4-12-12V28.1c0-6.6,5.4-12,12-12h143.9c6.6,0,12,5.4,12,12v143.9
			C184.1,178.5,178.7,183.9,172.1,183.9z"/>
		<path class="st2" d="M181.6,193.6H18.4c-6.6,0-12-5.4-12-12V18.4c0-6.6,5.4-12,12-12h163.1c6.6,0,12,5.4,12,12v163.1
			C193.6,188.2,188.2,193.6,181.6,193.6z"/>
	</g>
</g>
<g>
	<path class="st3" d="M158.6,96.8c-0.2-4.5-2.2-8.8-5.8-13c-5.3-6-14.4-11.6-26.9-16.6c-11-4.4-22.9-6.8-34.2-6.8
		c-12.5,0-24,2.8-33.4,8.1c-0.7,0.4-6,3.2-11,8.9c-4.6,5.2-9.7,13.9-9.6,26.1c0,0.1,0,18.1,0,18.1c0.8,11.2,6.5,19.8,15.8,24.2
		c4.4,2.1,9.5,3.1,14.7,3.1c8,0,16.1-2.3,22.4-6.8c16.4-11.8,28.6-15.3,40.7-11.8c7.9,2.3,14.5,1.9,19.4-1.3c4.3-2.7,7-7.3,8-13.3
		C158.6,115.6,158.6,96.9,158.6,96.8z M153.4,115.1c-0.5,3.1-2,7.2-5.7,9.6c-3.6,2.3-8.7,2.5-15.2,0.7c-7.2-2.1-14.5-1.9-22.2,0.4
		c-6.9,2.1-14.4,6.1-22.9,12.2c-8.9,6.4-22.3,7.8-31.9,3.3c-5.3-2.5-11.8-7.9-12.8-19.6c1.5,2.2,3.3,4.1,5.3,5.7
		c5.3,4.1,12.4,6.4,20,6.4c8.1,0,16.3-2.5,22.3-6.9c12.6-9.1,22.4-13.1,31.8-13.1c3,0,5.9,0.4,8.8,1.3c3.3,1,6.4,1.4,9.2,1.4
		c0,0,0,0,0,0c5.5,0,10-1.8,13.2-5.2L153.4,115.1L153.4,115.1z M60.6,73.2c0,0,8-4.9,17.6-6.3l-35.4,39.5c0-0.1-0.8-15.2,8.1-25.3
		C55.7,75.8,60.5,73.2,60.6,73.2z M148.1,86.4c4.2,4.3,6,8.8,5.2,13.3c-0.9,5.3-3.8,11.7-13,11.7c-2.3,0-5-0.4-7.8-1.2
		c-1.6-0.4-3.1-0.8-4.7-1L148.1,86.4z M121.2,108.7c-9.3,0.3-18.7,3.9-30.2,11.6l40.3-45.1c5.2,2.5,9.6,5.1,13,7.7L121.2,108.7z
		 M77.8,127.3c-3.1,0.9-6.4,1.3-9.7,1.3c-3.5,0-7.1-0.6-10.4-1.8L111,67.9c4.4,1,8.7,2.4,12.9,4.1c0.8,0.3,1.6,0.7,2.5,1L77.8,127.3
		z M52.9,124.5c-3.9-2.5-7.2-6.4-8.9-11.8l42-46.9c1.8-0.1,3.7-0.2,5.6-0.2c4.5,0,9,0.4,13.5,1.1L52.9,124.5z"/>
	<g>
		<path class="st4" d="M149.9,88.4c-0.1-0.2-0.2-0.3-0.4-0.5C149.6,88.1,149.7,88.3,149.9,88.4z"/>
		<path class="st4" d="M149.1,87.5c-0.1-0.1-0.2-0.2-0.3-0.4C148.9,87.3,149,87.4,149.1,87.5z"/>
		<path class="st4" d="M150.5,89.3c-0.1-0.2-0.3-0.4-0.4-0.5C150.3,89,150.4,89.1,150.5,89.3z"/>
		<path class="st4" d="M153.2,95.3c-0.1-0.3-0.1-0.5-0.2-0.8C153.1,94.7,153.1,95,153.2,95.3z"/>
		<path class="st4" d="M129.8,109.5c-0.7-0.1-1.4-0.3-2.1-0.4C128.4,109.2,129.1,109.3,129.8,109.5z"/>
		<path class="st4" d="M151.1,90.2c-0.1-0.2-0.3-0.4-0.4-0.6C150.8,89.8,151,90,151.1,90.2z"/>
		<path class="st4" d="M153.2,95.3c0.3,1.4,0.3,2.7,0.1,4.1c-0.5-3.3-2.2-6.5-5.2-9.6l-17.7,19.8c0,0-0.1,0-0.1,0
			c0.7,0.2,1.5,0.3,2.2,0.6c2.8,0.8,5.5,1.2,7.8,1.2c9.2,0,12.2-6.3,13-11.7C153.5,98.2,153.5,96.7,153.2,95.3z"/>
		<path class="st4" d="M153,94.4c-0.1-0.3-0.1-0.5-0.2-0.8C152.8,93.9,152.9,94.2,153,94.4z"/>
		<path class="st4" d="M151.6,91c-0.1-0.2-0.2-0.4-0.4-0.6C151.4,90.6,151.5,90.8,151.6,91z"/>
		<path class="st4" d="M152.7,93.6c-0.1-0.3-0.2-0.5-0.3-0.8C152.6,93.1,152.7,93.3,152.7,93.6z"/>
		<path class="st4" d="M152,91.9c-0.1-0.2-0.2-0.5-0.3-0.7C151.8,91.4,151.9,91.7,152,91.9z"/>
		<path class="st4" d="M152.4,92.7c-0.1-0.2-0.2-0.5-0.3-0.7C152.2,92.3,152.3,92.5,152.4,92.7z"/>
	</g>
	<path class="st4" d="M78.2,66.8l-5,5.6c-5.4,1.9-9.2,4.2-9.2,4.2c0,0-4.9,2.6-9.6,7.9c-4.8,5.4-6.8,12.2-7.6,17.4L78.2,66.8z"/>
	<g>
		<path class="st4" d="M67,143.8c0.3,0,0.5,0,0.8,0C67.5,143.9,67.2,143.9,67,143.8z"/>
		<path class="st4" d="M57.7,142.1c-0.1,0-0.3-0.1-0.4-0.1C57.5,142.1,57.6,142.1,57.7,142.1z"/>
		<path class="st4" d="M45,124.5c-0.3-0.3-0.5-0.6-0.8-0.9C44.4,123.9,44.7,124.2,45,124.5z"/>
		<path class="st4" d="M45.5,125c0.2,0.3,0.5,0.5,0.8,0.7C46,125.5,45.7,125.3,45.5,125z"/>
		<path class="st4" d="M42.9,121.7c0.3,0.5,0.7,1,1.1,1.5C43.6,122.6,43.2,122.2,42.9,121.7C42.9,121.7,42.9,121.7,42.9,121.7z"/>
		<path class="st4" d="M61.7,143.2c-0.2,0-0.5-0.1-0.7-0.1C61.2,143.2,61.5,143.2,61.7,143.2z"/>
		<path class="st4" d="M140.3,116.2C140.3,116.2,140.3,116.2,140.3,116.2c-2.8,0-6-0.3-9.3-1.3c-3-0.8-5.8-1.2-8.8-1.2
			c-9.3,0-19.1,4.1-31.8,13.1c-6.1,4.4-14.2,6.9-22.3,6.9c-7.7,0-14.8-2.3-20-6.4c-0.5-0.4-0.9-0.7-1.3-1.1c0.1,0,0.1,0.1,0.2,0.2
			c2.1,8.5,7.5,12.7,12,14.8c3.3,1.5,7,2.4,10.8,2.6c6.3-0.3,12.7-2.3,17.7-5.9c8.5-6.1,16-10.1,22.9-12.2
			c7.7-2.3,14.9-2.5,22.2-0.4c6.5,1.9,11.8,1.6,15.4-0.7c3.7-2.3,4.5-6.5,5.8-9.6v-3.9C150,114.7,145.8,116.2,140.3,116.2z"/>
		<path class="st4" d="M69.7,143.8c-0.2,0-0.4,0-0.6,0C69.3,143.8,69.5,143.8,69.7,143.8z"/>
		<path class="st4" d="M59.7,142.8c-0.2-0.1-0.4-0.1-0.6-0.2C59.3,142.7,59.5,142.7,59.7,142.8z"/>
		<path class="st4" d="M63.7,143.6c-0.3,0-0.5-0.1-0.8-0.1C63.2,143.5,63.4,143.5,63.7,143.6z"/>
		<path class="st4" d="M65.7,143.8c-0.3,0-0.5,0-0.8-0.1C65.2,143.7,65.4,143.8,65.7,143.8z"/>
	</g>
	<g>
		<polygon class="st4" points="86,65.8 44.1,112.7 44.1,112.7 		"/>
		<path class="st4" d="M91.6,69c-1.9,0-3.7,0.1-5.6,0.2L45,115.1c1.8,4.2,4.6,7.2,7.9,9.4l49.5-54.7C98.8,69.3,95.1,69,91.6,69z"/>
		<path class="st4" d="M44.9,114.9c-0.1-0.2-0.1-0.4-0.2-0.5C44.7,114.5,44.8,114.7,44.9,114.9z"/>
	</g>
	<path class="st4" d="M124.1,75.5c-0.1,0-0.1-0.1-0.2-0.1c-4.2-1.7-8.5-3-12.9-4.1l-50.9,56.3c-0.4-0.1-0.8-0.2-1.2-0.4
		c3,0.9,6.1,1.4,9.2,1.4c3.3,0,6.6-0.5,9.7-1.3L126.3,73L124.1,75.5z"/>
	<g>
		<path class="st4" d="M92.9,119c-0.6,0.4-1.3,0.8-2,1.3C91.6,119.9,92.2,119.5,92.9,119z"/>
		<path class="st4" d="M131.3,78.6L97.8,116c-0.1,0-0.2,0.1-0.3,0.2c8.6-4.9,16.2-7.3,23.6-7.5L142.4,85
			C139.3,82.8,135.6,80.7,131.3,78.6z"/>
		<path class="st4" d="M96.6,116.7c-0.3,0.2-0.7,0.4-1,0.6C96,117.1,96.3,116.9,96.6,116.7z"/>
		<path class="st4" d="M94.8,117.8c-0.4,0.2-0.8,0.5-1.2,0.7C94,118.3,94.4,118.1,94.8,117.8z"/>
	</g>
</g>
</svg>
