<?xml version="1.0" encoding="utf-8"?>
<!-- Generator: Adobe Illustrator 22.0.1, SVG Export Plug-In . SVG Version: 6.00 Build 0)  -->
<svg version="1.1" id="Calque_1" xmlns="http://www.w3.org/2000/svg" xmlns:xlink="http://www.w3.org/1999/xlink" x="0px" y="0px"
	 viewBox="0 0 200 200" style="enable-background:new 0 0 200 200;" xml:space="preserve">
<style type="text/css">
	.st0{fill:#D8C3DF;}
	.st1{fill:#FFFFFF;}
	.st2{fill:none;stroke:#010101;stroke-miterlimit:10;}
	.st3{fill:#FBAE4C;}
	.st4{fill:#010101;}
</style>
<g id="XMLID_1_">
	<g>
		<path class="st0" d="M172.3,16.1c6.6,0,12,5.4,12,12V172c0,6.6-5.4,12-12,12H28.4c-6.6,0-12-5.4-12-12V28.1c0-6.6,5.4-12,12-12
			H172.3z"/>
		<path class="st1" d="M184.3,28.1c0-6.6-5.4-12-12-12H28.4c-6.6,0-12,5.4-12,12V172c0,6.6,5.4,12,12,12h143.9c6.6,0,12-5.4,12-12
			L184.3,28.1L184.3,28.1z M18.6,6.4h163.1c6.6,0,12,5.4,12,12v163.1c0,6.6-5.4,12-12,12H18.6c-6.6,0-12-5.4-12-12V18.4
			C6.6,11.8,12,6.4,18.6,6.4z"/>
	</g>
	<g>
		<path class="st2" d="M172.3,183.9H28.4c-6.6,0-12-5.4-12-12V28.1c0-6.6,5.4-12,12-12h143.9c6.6,0,12,5.4,12,12V172
			C184.3,178.5,178.9,183.9,172.3,183.9z"/>
		<path class="st2" d="M181.8,193.6H18.6c-6.6,0-12-5.4-12-12V18.4c0-6.6,5.4-12,12-12h163.1c6.6,0,12,5.4,12,12v163.1
			C193.8,188.2,188.4,193.6,181.8,193.6z"/>
	</g>
</g>
<path class="st3" d="M65.8,132.7c19.6,19.6,51.5,19.6,71.1,0s19.6-51.5,0-71.1s-51.5-19.6-71.1,0C46.2,81.2,46.2,113.1,65.8,132.7z"
	/>
<path class="st4" d="M101.4,149.1c-13.3,0-26.6-5.1-36.8-15.2l0,0l0,0c-9.8-9.8-15.2-22.9-15.2-36.8s5.4-27,15.2-36.8
	c20.3-20.3,53.3-20.3,73.6,0c9.8,9.8,15.2,22.9,15.2,36.8s-5.4,27-15.2,36.8C128,144.1,114.7,149.1,101.4,149.1z M101.4,48.6
	c-12.4,0-24.9,4.7-34.3,14.2C57.9,72,52.8,84.2,52.8,97.1s5.1,25.2,14.2,34.3l0,0c18.9,18.9,49.7,18.9,68.7,0
	c9.2-9.2,14.2-21.4,14.2-34.3s-5.1-25.2-14.2-34.3C126.3,53.3,113.8,48.6,101.4,48.6z"/>
<path class="st4" d="M142.1,128.1C142.1,128.1,142.1,128.1,142.1,128.1c-0.5,0-11.9-0.2-25.4-5c-17.9-6.3-30.6-17.8-36.9-33.1
	c-0.4-0.9,0.1-1.9,1-2.3c0.9-0.4,1.9,0.1,2.3,1c14.2,34.9,58.6,35.9,59,35.9c1,0,1.7,0.8,1.7,1.8
	C143.9,127.3,143.1,128.1,142.1,128.1z"/>
<path class="st4" d="M118.8,145.7c-0.1,0-0.2,0-0.2,0c-0.5-0.1-11.7-1.6-24.7-8.4c-12-6.3-27.6-18.5-34.1-40.7
	c-0.3-0.9,0.3-1.9,1.2-2.1c0.9-0.3,1.9,0.3,2.1,1.2c11.7,40.3,55.5,46.6,55.9,46.6c0.9,0.1,1.6,1,1.5,1.9
	C120.4,145.1,119.7,145.7,118.8,145.7z"/>
<path class="st4" d="M53.1,113.2c-0.2,0-0.4,0-0.6-0.1c-0.9-0.3-1.4-1.3-1.1-2.2c0.1-0.3,2.4-6.9,7-13.2c6.2-8.3,13.6-12,21.6-10.6
	c3-2.5,16.9-15.7,16.3-40.2c0-1,0.7-1.8,1.7-1.8c0.9,0,1.8,0.7,1.8,1.7c0.7,29.2-17.5,42.9-18.3,43.5c-0.4,0.3-0.9,0.4-1.4,0.3
	c-7-1.4-13.4,1.6-19,9.2c-4.3,5.8-6.5,12.2-6.5,12.2C54.5,112.7,53.8,113.2,53.1,113.2z"/>
<path class="st4" d="M54.6,81.2c-0.4,0-0.8-0.1-1.1-0.4c-0.8-0.6-0.9-1.7-0.3-2.4c0.2-0.2,17-21.2,42.5-14c0.9,0.3,1.5,1.2,1.2,2.1
	c-0.3,0.9-1.2,1.5-2.1,1.2C71.5,61.2,56.1,80.4,56,80.6C55.6,81,55.1,81.2,54.6,81.2z"/>
<path class="st4" d="M94.6,109.6c-0.5,0-1.1-0.2-1.4-0.7c-0.6-0.8-0.4-1.9,0.4-2.4c0.3-0.2,25.2-18.8,26.5-55.1c0-1,0.8-1.7,1.8-1.7
	c1,0,1.7,0.8,1.7,1.8c-1.4,38-26.9,57-28,57.8C95.3,109.5,95,109.6,94.6,109.6z"/>
<path class="st4" d="M119.7,123.7c-0.5,0-1-0.2-1.4-0.7c-0.6-0.8-0.4-1.8,0.3-2.4c0.2-0.2,23.3-18.2,24.9-47.5
	c0.1-1,0.9-1.7,1.8-1.6c1,0.1,1.7,0.9,1.6,1.8c-1.7,30.9-25.3,49.3-26.3,50C120.4,123.5,120.1,123.7,119.7,123.7z"/>
</svg>
