<?xml version="1.0" encoding="utf-8"?>
<!-- Generator: Adobe Illustrator 22.0.1, SVG Export Plug-In . SVG Version: 6.00 Build 0)  -->
<svg version="1.1" id="Calque_1" xmlns="http://www.w3.org/2000/svg" xmlns:xlink="http://www.w3.org/1999/xlink" x="0px" y="0px"
	 viewBox="0 0 200 200" style="enable-background:new 0 0 200 200;" xml:space="preserve">
<style type="text/css">
	.st0{fill:#FFFFFF;}
	.st1{fill:#FBEDB6;}
	.st2{fill:none;stroke:#010101;stroke-miterlimit:10;}
	.st3{fill:#D8D9DD;}
	.st4{fill:#D37B93;}
	.st5{fill:#9FA0A4;}
	.st6{fill:#9E5C6F;}
	.st7{fill:#AFAEB4;}
	.st8{fill:#333333;}
	.st9{fill:#272626;}
	.st10{fill:#BEBDBF;}
	.st11{fill:#828287;}
</style>
<g id="XMLID_1_">
	<g>
		<path class="st0" d="M184.1,171.6V27.7c0-6.6-5.4-12-12-12H28.2c-6.6,0-12,5.4-12,12v143.9c0,6.6,5.4,12,12,12h143.9
			C178.7,183.6,184.1,178.2,184.1,171.6z M193.6,18.1v163.1c0,6.6-5.4,12-12,12H18.4c-6.6,0-12-5.4-12-12V18.1c0-6.6,5.4-12,12-12
			h163.1C188.2,6.1,193.6,11.5,193.6,18.1z"/>
		<path class="st1" d="M184.1,27.7v143.9c0,6.6-5.4,12-12,12H28.2c-6.6,0-12-5.4-12-12V27.7c0-6.6,5.4-12,12-12h143.9
			C178.7,15.7,184.1,21.1,184.1,27.7z"/>
	</g>
	<g>
		<path class="st2" d="M172.1,183.6H28.2c-6.6,0-12-5.4-12-12V27.7c0-6.6,5.4-12,12-12h143.9c6.6,0,12,5.4,12,12v143.9
			C184.1,178.2,178.7,183.6,172.1,183.6z"/>
		<path class="st2" d="M181.6,193.2H18.4c-6.6,0-12-5.4-12-12V18.1c0-6.6,5.4-12,12-12h163.1c6.6,0,12,5.4,12,12v163.1
			C193.6,187.8,188.2,193.2,181.6,193.2z"/>
	</g>
</g>
<path class="st3" d="M84.8,66.9c-1-9.4-4.4-16.4-10.1-20.8c-8-6.2-17.5-4.9-17.9-4.8l-2.3,0.3L54,43.8c-0.1,0.3-1.6,6.6-0.3,14.2
	c1.2,7.2,5.3,17,17.6,22.7L84.8,66.9z"/>
<path class="st4" d="M74.2,74.4c-7.6-3.5-12.2-9.3-13.6-17.3c-0.6-3.6-0.5-6.9-0.2-9.1c2.6,0.1,6.7,0.8,10.2,3.5
	c4.1,3.2,6.6,8.6,7.4,16L74.2,74.4z"/>
<path class="st5" d="M116,66.9c1-9.4,4.4-16.4,10.1-20.8c8-6.2,17.5-4.9,17.9-4.8l2.3,0.3l0.6,2.2c0.1,0.3,1.6,6.6,0.3,14.2
	c-1.2,7.2-5.3,17-17.6,22.7L116,66.9"/>
<path class="st6" d="M126.6,74.4c7.6-3.5,12.2-9.3,13.6-17.3c0.6-3.6,0.5-6.9,0.3-9.1c-2.6,0.1-6.7,0.8-10.2,3.5
	c-4.1,3.2-6.6,8.6-7.4,16L126.6,74.4"/>
<path class="st3" d="M115.1,61.4c9.7,3.3,20.6,12.1,18.1,35c-0.9,8.6-3,13.7-5.3,19.6c-0.9,2.3-1.9,4.7-2.8,7.4
	c-0.6,1.6-0.6,6.2-0.5,9l0,0.1c0,10.4-5.1,15.7-9.4,18.2c-5,3-10.7,3.6-14.7,3.6c-3.9,0-9.7-0.6-14.7-3.6c-4.3-2.6-9.4-7.8-9.4-18.2
	l0-0.1c0.1-2.7,0-7.3-0.5-9c-1-2.8-1.9-5.1-2.8-7.4c-2.3-5.9-4.4-11-5.3-19.6c-2.5-23,8.4-31.7,18.1-35c0.7-0.3,6.7-1.8,14.7-1.8
	C108.4,59.6,114.3,61,115.1,61.4"/>
<path class="st7" d="M76.3,130.4c0,0.7,0,1.4,0,1.9l0,0.1c0,10.4,5.1,15.7,9.4,18.2c5,3,10.7,3.6,14.7,3.6c3.9,0,9.7-0.6,14.7-3.6
	c4.3-2.6,9.4-7.8,9.4-18.2l0-0.1c0-0.6,0-1.2,0-1.9c-5.8-3.2-14.7-5-24.1-5C91,125.4,82.2,127.3,76.3,130.4"/>
<g>
	<polyline class="st8" points="108.8,73.4 92,73.4 87.1,41.1 113.7,41.1 108.8,73.4 	"/>
	<path class="st8" d="M84.3,99.9c0-2.5,2-4.6,4.6-4.6c2.5,0,4.6,2.1,4.6,4.6s-2,4.6-4.6,4.6C86.4,104.5,84.3,102.5,84.3,99.9z"/>
	<path class="st8" d="M116.5,99.9c0-2.6-2.1-4.6-4.6-4.6c-2.5,0-4.6,2.1-4.6,4.6c0,2.6,2.1,4.6,4.6,4.6
		C114.5,104.6,116.5,102.5,116.5,99.9"/>
	<path class="st8" d="M88.5,137c0-2.2,1.8-4,3.9-4c2.2,0,3.9,1.8,3.9,4c0,2.2-1.8,4-3.9,4C90.2,141,88.5,139.2,88.5,137z"/>
	<path class="st8" d="M112.3,137c0-2.2-1.8-4-4-4c-2.2,0-4,1.8-4,4s1.8,4,4,4C110.6,141,112.3,139.2,112.3,137"/>
</g>
<g>
	<path class="st9" d="M114.3,82.3v6.9h19.2c0-2.5-0.3-4.8-0.7-6.9H114.3"/>
	<path class="st9" d="M112,110.6v6.9h15.3c0.2-0.5,0.4-1.1,0.6-1.6c0.7-1.8,1.4-3.6,2.1-5.4L112,110.6"/>
</g>
<g>
	<path class="st8" d="M86.5,82.3H68c-0.4,2.1-0.6,4.4-0.7,6.9h19.2V82.3z"/>
	<path class="st8" d="M73,116c0.2,0.5,0.4,1,0.6,1.6h15.3v-6.9h-18C71.5,112.4,72.2,114.1,73,116z"/>
</g>
<path class="st10" d="M115.1,61.4C115.1,61.4,115.1,61.4,115.1,61.4c0.6,0.2,1.1,0.4,1.7,0.6l0,0C116.2,61.8,115.6,61.6,115.1,61.4
	C115.1,61.4,115.1,61.4,115.1,61.4 M115.1,61.4C115.1,61.4,115.1,61.4,115.1,61.4C115.1,61.4,115.1,61.4,115.1,61.4 M115.1,61.4
	L115.1,61.4L115.1,61.4"/>
<path class="st5" d="M124.5,132c0,0.1,0,0.2,0,0.3C124.5,132.2,124.5,132.1,124.5,132 M111.9,104.6c-2.5,0-4.6-2.1-4.6-4.6
	c0-2.6,2.1-4.6,4.6-4.6c2.5,0,4.6,2.1,4.6,4.6C116.5,102.5,114.5,104.6,111.9,104.6 M114.3,89.3v-6.9h18.6c0.4,2.1,0.6,4.4,0.7,6.9
	H114.3 M110.8,60.4l-2,13.1h-8.4c0,14.2,0,35,0,51.9c9.4,0,18.2,1.9,24.1,5c0-0.1,0-0.3,0-0.4c0-2.5,0.2-5.4,0.6-6.6
	c0.7-2.2,1.5-4.1,2.2-5.9H112v-6.9h18l0,0c-0.6,1.8-1.3,3.5-2.1,5.4c2.3-5.9,4.4-11,5.3-19.6c0.2-2.3,0.4-4.4,0.4-6.4
	c0-7.3-1.6-12.9-4-17.1c-1.7-3-3.9-5.4-6.3-7.2c-2-1.6-4.2-2.7-6.4-3.6c-0.6-0.2-1.1-0.4-1.7-0.6c0,0,0,0,0,0c0,0,0,0,0,0
	c0,0,0,0,0,0c0,0,0,0,0,0l0,0C114.7,61.2,113.1,60.8,110.8,60.4"/>
<path class="st11" d="M108.4,141c-2.2,0-4-1.8-4-4s1.8-4,4-4c2.2,0,4,1.8,4,4S110.6,141,108.4,141 M100.4,125.4c0,14.8,0,26.7,0,29
	c3.9,0,9.7-0.6,14.7-3.6c4.3-2.6,9.4-7.8,9.4-18.2l0-0.1l0,0c0,0,0,0,0,0l0,0c0-0.1,0-0.2,0-0.3l0,0c0-0.5,0-1,0-1.6c0,0,0,0,0,0
	C118.6,127.3,109.8,125.4,100.4,125.4"/>
<polyline class="st9" points="113.7,41.1 100.4,41.1 100.4,73.4 100.4,73.4 100.4,73.4 108.8,73.4 110.8,60.4 110.8,60.4 
	113.7,41.1 "/>
<path class="st5" d="M127.9,116c0,0,0,0.1,0,0.1C127.8,116,127.8,116,127.9,116"/>
</svg>
